solid ascii
  facet normal -9.993773e-001 3.528542e-002 0.000000e+000
    outer loop
      vertex   -1.044888e+002 1.503174e+002 5.000000e+000
      vertex   -1.044888e+002 1.503174e+002 0.000000e+000
      vertex   -1.045000e+002 1.500000e+002 5.000000e+000
    endloop
  endfacet
  facet normal -6.335801e-002 2.237007e-003 0.000000e+000
    outer loop
      vertex   -1.045000e+002 1.500000e+002 5.000000e+000
      vertex   -1.044888e+002 1.503174e+002 0.000000e+000
      vertex   -1.045000e+002 1.500000e+002 0.000000e+000
    endloop
  endfacet
  facet normal -9.993773e-001 -3.528542e-002 -0.000000e+000
    outer loop
      vertex   -1.045000e+002 1.500000e+002 5.000000e+000
      vertex   -1.045000e+002 1.500000e+002 0.000000e+000
      vertex   -1.044888e+002 1.496826e+002 5.000000e+000
    endloop
  endfacet
  facet normal -6.335801e-002 -2.237007e-003 -0.000000e+000
    outer loop
      vertex   -1.044888e+002 1.496826e+002 5.000000e+000
      vertex   -1.045000e+002 1.500000e+002 0.000000e+000
      vertex   -1.044888e+002 1.496826e+002 0.000000e+000
    endloop
  endfacet
  facet normal -9.943966e-001 -1.057138e-001 -0.000000e+000
    outer loop
      vertex   -1.044888e+002 1.496826e+002 5.000000e+000
      vertex   -1.044888e+002 1.496826e+002 0.000000e+000
      vertex   -1.044552e+002 1.493667e+002 5.000000e+000
    endloop
  endfacet
  facet normal -6.304127e-002 -6.701884e-003 -0.000000e+000
    outer loop
      vertex   -1.044552e+002 1.493667e+002 5.000000e+000
      vertex   -1.044888e+002 1.496826e+002 0.000000e+000
      vertex   -1.044552e+002 1.493667e+002 0.000000e+000
    endloop
  endfacet
  facet normal -9.844673e-001 -1.755678e-001 -0.000000e+000
    outer loop
      vertex   -1.044552e+002 1.493667e+002 5.000000e+000
      vertex   -1.044552e+002 1.493667e+002 0.000000e+000
      vertex   -1.043995e+002 1.490540e+002 5.000000e+000
    endloop
  endfacet
  facet normal -6.241083e-002 -1.113022e-002 -0.000000e+000
    outer loop
      vertex   -1.043995e+002 1.490540e+002 5.000000e+000
      vertex   -1.044552e+002 1.493667e+002 0.000000e+000
      vertex   -1.043995e+002 1.490540e+002 0.000000e+000
    endloop
  endfacet
  facet normal -9.696260e-001 -2.445923e-001 -0.000000e+000
    outer loop
      vertex   -1.043995e+002 1.490540e+002 5.000000e+000
      vertex   -1.043995e+002 1.490540e+002 0.000000e+000
      vertex   -1.043218e+002 1.487461e+002 5.000000e+000
    endloop
  endfacet
  facet normal -6.147277e-002 -1.550677e-002 -0.000000e+000
    outer loop
      vertex   -1.043218e+002 1.487461e+002 5.000000e+000
      vertex   -1.043995e+002 1.490540e+002 0.000000e+000
      vertex   -1.043218e+002 1.487461e+002 0.000000e+000
    endloop
  endfacet
  facet normal -9.499629e-001 -3.123626e-001 -0.000000e+000
    outer loop
      vertex   -1.043218e+002 1.487461e+002 5.000000e+000
      vertex   -1.043218e+002 1.487461e+002 0.000000e+000
      vertex   -1.042225e+002 1.484443e+002 5.000000e+000
    endloop
  endfacet
  facet normal -6.022407e-002 -1.980262e-002 -0.000000e+000
    outer loop
      vertex   -1.042225e+002 1.484443e+002 5.000000e+000
      vertex   -1.043218e+002 1.487461e+002 0.000000e+000
      vertex   -1.042225e+002 1.484443e+002 0.000000e+000
    endloop
  endfacet
  facet normal -9.255561e-001 -3.786104e-001 -0.000000e+000
    outer loop
      vertex   -1.042225e+002 1.484443e+002 5.000000e+000
      vertex   -1.042225e+002 1.484443e+002 0.000000e+000
      vertex   -1.041023e+002 1.481504e+002 5.000000e+000
    endloop
  endfacet
  facet normal -5.867689e-002 -2.400252e-002 -0.000000e+000
    outer loop
      vertex   -1.041023e+002 1.481504e+002 5.000000e+000
      vertex   -1.042225e+002 1.484443e+002 0.000000e+000
      vertex   -1.041023e+002 1.481504e+002 0.000000e+000
    endloop
  endfacet
  facet normal -8.965405e-001 -4.429617e-001 -0.000000e+000
    outer loop
      vertex   -1.041023e+002 1.481504e+002 5.000000e+000
      vertex   -1.041023e+002 1.481504e+002 0.000000e+000
      vertex   -1.039616e+002 1.478656e+002 5.000000e+000
    endloop
  endfacet
  facet normal -5.683734e-002 -2.808213e-002 -0.000000e+000
    outer loop
      vertex   -1.039616e+002 1.478656e+002 5.000000e+000
      vertex   -1.041023e+002 1.481504e+002 0.000000e+000
      vertex   -1.039616e+002 1.478656e+002 0.000000e+000
    endloop
  endfacet
  facet normal -8.630811e-001 -5.050653e-001 -0.000000e+000
    outer loop
      vertex   -1.039616e+002 1.478656e+002 5.000000e+000
      vertex   -1.039616e+002 1.478656e+002 0.000000e+000
      vertex   -1.038012e+002 1.475915e+002 5.000000e+000
    endloop
  endfacet
  facet normal -5.471759e-002 -3.202011e-002 -0.000000e+000
    outer loop
      vertex   -1.038012e+002 1.475915e+002 5.000000e+000
      vertex   -1.039616e+002 1.478656e+002 0.000000e+000
      vertex   -1.038012e+002 1.475915e+002 0.000000e+000
    endloop
  endfacet
  facet normal -8.252860e-001 -5.647149e-001 -0.000000e+000
    outer loop
      vertex   -1.038012e+002 1.475915e+002 5.000000e+000
      vertex   -1.038012e+002 1.475915e+002 0.000000e+000
      vertex   -1.036218e+002 1.473293e+002 5.000000e+000
    endloop
  endfacet
  facet normal -5.232069e-002 -3.580125e-002 -0.000000e+000
    outer loop
      vertex   -1.036218e+002 1.473293e+002 5.000000e+000
      vertex   -1.038012e+002 1.475915e+002 0.000000e+000
      vertex   -1.036218e+002 1.473293e+002 0.000000e+000
    endloop
  endfacet
  facet normal -7.834073e-001 -6.215086e-001 -0.000000e+000
    outer loop
      vertex   -1.036218e+002 1.473293e+002 5.000000e+000
      vertex   -1.036218e+002 1.473293e+002 0.000000e+000
      vertex   -1.034244e+002 1.470805e+002 5.000000e+000
    endloop
  endfacet
  facet normal -4.966491e-002 -3.940117e-002 -0.000000e+000
    outer loop
      vertex   -1.034244e+002 1.470805e+002 5.000000e+000
      vertex   -1.036218e+002 1.473293e+002 0.000000e+000
      vertex   -1.034244e+002 1.470805e+002 0.000000e+000
    endloop
  endfacet
  facet normal -7.376086e-001 -6.752285e-001 -0.000000e+000
    outer loop
      vertex   -1.034244e+002 1.470805e+002 5.000000e+000
      vertex   -1.034244e+002 1.470805e+002 0.000000e+000
      vertex   -1.032099e+002 1.468462e+002 5.000000e+000
    endloop
  endfacet
  facet normal -4.676243e-002 -4.280769e-002 -0.000000e+000
    outer loop
      vertex   -1.032099e+002 1.468462e+002 5.000000e+000
      vertex   -1.034244e+002 1.470805e+002 0.000000e+000
      vertex   -1.032099e+002 1.468462e+002 0.000000e+000
    endloop
  endfacet
  facet normal -6.881350e-001 -7.255827e-001 -0.000000e+000
    outer loop
      vertex   -1.032099e+002 1.468462e+002 5.000000e+000
      vertex   -1.032099e+002 1.468462e+002 0.000000e+000
      vertex   -1.029795e+002 1.466277e+002 5.000000e+000
    endloop
  endfacet
  facet normal -4.362544e-002 -4.599950e-002 -0.000000e+000
    outer loop
      vertex   -1.029795e+002 1.466277e+002 5.000000e+000
      vertex   -1.032099e+002 1.468462e+002 0.000000e+000
      vertex   -1.029795e+002 1.466277e+002 0.000000e+000
    endloop
  endfacet
  facet normal -6.352357e-001 -7.723184e-001 -0.000000e+000
    outer loop
      vertex   -1.029795e+002 1.466277e+002 5.000000e+000
      vertex   -1.029795e+002 1.466277e+002 0.000000e+000
      vertex   -1.027342e+002 1.464259e+002 5.000000e+000
    endloop
  endfacet
  facet normal -4.027222e-002 -4.896289e-002 -0.000000e+000
    outer loop
      vertex   -1.027342e+002 1.464259e+002 5.000000e+000
      vertex   -1.029795e+002 1.466277e+002 0.000000e+000
      vertex   -1.027342e+002 1.464259e+002 0.000000e+000
    endloop
  endfacet
  facet normal -5.791891e-001 -8.151932e-001 -0.000000e+000
    outer loop
      vertex   -1.027342e+002 1.464259e+002 5.000000e+000
      vertex   -1.027342e+002 1.464259e+002 0.000000e+000
      vertex   -1.024753e+002 1.462419e+002 5.000000e+000
    endloop
  endfacet
  facet normal -3.671798e-002 -5.167959e-002 -0.000000e+000
    outer loop
      vertex   -1.024753e+002 1.462419e+002 5.000000e+000
      vertex   -1.027342e+002 1.464259e+002 0.000000e+000
      vertex   -1.024753e+002 1.462419e+002 0.000000e+000
    endloop
  endfacet
  facet normal -5.202593e-001 -8.540083e-001 -0.000000e+000
    outer loop
      vertex   -1.024753e+002 1.462419e+002 5.000000e+000
      vertex   -1.024753e+002 1.462419e+002 0.000000e+000
      vertex   -1.022040e+002 1.460767e+002 5.000000e+000
    endloop
  endfacet
  facet normal -3.298405e-002 -5.414348e-002 -0.000000e+000
    outer loop
      vertex   -1.022040e+002 1.460767e+002 5.000000e+000
      vertex   -1.024753e+002 1.462419e+002 0.000000e+000
      vertex   -1.022040e+002 1.460767e+002 0.000000e+000
    endloop
  endfacet
  facet normal -4.586968e-001 -8.885928e-001 -0.000000e+000
    outer loop
      vertex   -1.022040e+002 1.460767e+002 5.000000e+000
      vertex   -1.022040e+002 1.460767e+002 0.000000e+000
      vertex   -1.019218e+002 1.459310e+002 5.000000e+000
    endloop
  endfacet
  facet normal -2.907957e-002 -5.633329e-002 -0.000000e+000
    outer loop
      vertex   -1.019218e+002 1.459310e+002 5.000000e+000
      vertex   -1.022040e+002 1.460767e+002 0.000000e+000
      vertex   -1.019218e+002 1.459310e+002 0.000000e+000
    endloop
  endfacet
  facet normal -3.948526e-001 -9.187445e-001 -0.000000e+000
    outer loop
      vertex   -1.019218e+002 1.459310e+002 5.000000e+000
      vertex   -1.019218e+002 1.459310e+002 0.000000e+000
      vertex   -1.016299e+002 1.458056e+002 5.000000e+000
    endloop
  endfacet
  facet normal -2.503194e-002 -5.824442e-002 -0.000000e+000
    outer loop
      vertex   -1.016299e+002 1.458056e+002 5.000000e+000
      vertex   -1.019218e+002 1.459310e+002 0.000000e+000
      vertex   -1.016299e+002 1.458056e+002 0.000000e+000
    endloop
  endfacet
  facet normal -3.291187e-001 -9.442886e-001 -0.000000e+000
    outer loop
      vertex   -1.016299e+002 1.458056e+002 5.000000e+000
      vertex   -1.016299e+002 1.458056e+002 0.000000e+000
      vertex   -1.013300e+002 1.457010e+002 5.000000e+000
    endloop
  endfacet
  facet normal -2.086553e-002 -5.986620e-002 -0.000000e+000
    outer loop
      vertex   -1.013300e+002 1.457010e+002 5.000000e+000
      vertex   -1.016299e+002 1.458056e+002 0.000000e+000
      vertex   -1.013300e+002 1.457010e+002 0.000000e+000
    endloop
  endfacet
  facet normal -2.616313e-001 -9.651679e-001 -0.000000e+000
    outer loop
      vertex   -1.013300e+002 1.457010e+002 5.000000e+000
      vertex   -1.013300e+002 1.457010e+002 0.000000e+000
      vertex   -1.010235e+002 1.456179e+002 5.000000e+000
    endloop
  endfacet
  facet normal -1.658644e-002 -6.118801e-002 -0.000000e+000
    outer loop
      vertex   -1.010235e+002 1.456179e+002 5.000000e+000
      vertex   -1.013300e+002 1.457010e+002 0.000000e+000
      vertex   -1.010235e+002 1.456179e+002 0.000000e+000
    endloop
  endfacet
  facet normal -1.929324e-001 -9.812121e-001 -0.000000e+000
    outer loop
      vertex   -1.010235e+002 1.456179e+002 5.000000e+000
      vertex   -1.010235e+002 1.456179e+002 0.000000e+000
      vertex   -1.007118e+002 1.455567e+002 5.000000e+000
    endloop
  endfacet
  facet normal -1.223121e-002 -6.220524e-002 -0.000000e+000
    outer loop
      vertex   -1.007118e+002 1.455567e+002 5.000000e+000
      vertex   -1.010235e+002 1.456179e+002 0.000000e+000
      vertex   -1.007118e+002 1.455567e+002 0.000000e+000
    endloop
  endfacet
  facet normal -1.232247e-001 -9.923788e-001 -0.000000e+000
    outer loop
      vertex   -1.007118e+002 1.455567e+002 5.000000e+000
      vertex   -1.007118e+002 1.455567e+002 0.000000e+000
      vertex   -1.003966e+002 1.455175e+002 5.000000e+000
    endloop
  endfacet
  facet normal -7.812012e-003 -6.291335e-002 -0.000000e+000
    outer loop
      vertex   -1.003966e+002 1.455175e+002 5.000000e+000
      vertex   -1.007118e+002 1.455567e+002 0.000000e+000
      vertex   -1.003966e+002 1.455175e+002 0.000000e+000
    endloop
  endfacet
  facet normal -5.293956e-002 -9.985977e-001 -0.000000e+000
    outer loop
      vertex   -1.003966e+002 1.455175e+002 5.000000e+000
      vertex   -1.003966e+002 1.455175e+002 0.000000e+000
      vertex   -1.000794e+002 1.455007e+002 5.000000e+000
    endloop
  endfacet
  facet normal -3.356272e-003 -6.330927e-002 -0.000000e+000
    outer loop
      vertex   -1.000794e+002 1.455007e+002 5.000000e+000
      vertex   -1.003966e+002 1.455175e+002 0.000000e+000
      vertex   -1.000794e+002 1.455007e+002 0.000000e+000
    endloop
  endfacet
  facet normal 1.763089e-002 -9.998446e-001 0.000000e+000
    outer loop
      vertex   -1.000794e+002 1.455007e+002 5.000000e+000
      vertex   -1.000794e+002 1.455007e+002 0.000000e+000
      vertex   -9.976184e+001 1.455063e+002 5.000000e+000
    endloop
  endfacet
  facet normal 1.117742e-003 -6.338695e-002 0.000000e+000
    outer loop
      vertex   -9.976184e+001 1.455063e+002 5.000000e+000
      vertex   -1.000794e+002 1.455007e+002 0.000000e+000
      vertex   -9.976184e+001 1.455063e+002 0.000000e+000
    endloop
  endfacet
  facet normal 8.815529e-002 -9.961067e-001 0.000000e+000
    outer loop
      vertex   -9.976184e+001 1.455063e+002 5.000000e+000
      vertex   -9.976184e+001 1.455063e+002 0.000000e+000
      vertex   -9.944546e+001 1.455343e+002 5.000000e+000
    endloop
  endfacet
  facet normal 5.588711e-003 -6.314939e-002 0.000000e+000
    outer loop
      vertex   -9.944546e+001 1.455343e+002 5.000000e+000
      vertex   -9.976184e+001 1.455063e+002 0.000000e+000
      vertex   -9.944546e+001 1.455343e+002 0.000000e+000
    endloop
  endfacet
  facet normal 1.581516e-001 -9.874148e-001 0.000000e+000
    outer loop
      vertex   -9.944546e+001 1.455343e+002 5.000000e+000
      vertex   -9.944546e+001 1.455343e+002 0.000000e+000
      vertex   -9.913184e+001 1.455845e+002 5.000000e+000
    endloop
  endfacet
  facet normal 1.002618e-002 -6.259813e-002 0.000000e+000
    outer loop
      vertex   -9.913184e+001 1.455845e+002 5.000000e+000
      vertex   -9.944546e+001 1.455343e+002 0.000000e+000
      vertex   -9.913184e+001 1.455845e+002 0.000000e+000
    endloop
  endfacet
  facet normal 2.274673e-001 -9.737857e-001 0.000000e+000
    outer loop
      vertex   -9.913184e+001 1.455845e+002 5.000000e+000
      vertex   -9.913184e+001 1.455845e+002 0.000000e+000
      vertex   -9.882253e+001 1.456568e+002 5.000000e+000
    endloop
  endfacet
  facet normal 1.442100e-002 -6.173621e-002 0.000000e+000
    outer loop
      vertex   -9.882253e+001 1.456568e+002 5.000000e+000
      vertex   -9.913184e+001 1.455845e+002 0.000000e+000
      vertex   -9.882253e+001 1.456568e+002 0.000000e+000
    endloop
  endfacet
  facet normal 2.955438e-001 -9.553292e-001 0.000000e+000
    outer loop
      vertex   -9.882253e+001 1.456568e+002 5.000000e+000
      vertex   -9.882253e+001 1.456568e+002 0.000000e+000
      vertex   -9.851910e+001 1.457507e+002 5.000000e+000
    endloop
  endfacet
  facet normal 1.873665e-002 -6.056518e-002 0.000000e+000
    outer loop
      vertex   -9.851910e+001 1.457507e+002 5.000000e+000
      vertex   -9.882253e+001 1.456568e+002 0.000000e+000
      vertex   -9.851910e+001 1.457507e+002 0.000000e+000
    endloop
  endfacet
  facet normal 3.622283e-001 -9.320894e-001 0.000000e+000
    outer loop
      vertex   -9.851910e+001 1.457507e+002 5.000000e+000
      vertex   -9.851910e+001 1.457507e+002 0.000000e+000
      vertex   -9.822305e+001 1.458657e+002 5.000000e+000
    endloop
  endfacet
  facet normal 2.296397e-002 -5.909110e-002 0.000000e+000
    outer loop
      vertex   -9.822305e+001 1.458657e+002 5.000000e+000
      vertex   -9.851910e+001 1.457507e+002 0.000000e+000
      vertex   -9.822305e+001 1.458657e+002 0.000000e+000
    endloop
  endfacet
  facet normal 4.270390e-001 -9.042332e-001 0.000000e+000
    outer loop
      vertex   -9.822305e+001 1.458657e+002 5.000000e+000
      vertex   -9.822305e+001 1.458657e+002 0.000000e+000
      vertex   -9.793584e+001 1.460013e+002 5.000000e+000
    endloop
  endfacet
  facet normal 2.707251e-002 -5.732464e-002 0.000000e+000
    outer loop
      vertex   -9.793584e+001 1.460013e+002 5.000000e+000
      vertex   -9.822305e+001 1.458657e+002 0.000000e+000
      vertex   -9.793584e+001 1.460013e+002 0.000000e+000
    endloop
  endfacet
  facet normal 4.897674e-001 -8.718532e-001 0.000000e+000
    outer loop
      vertex   -9.793584e+001 1.460013e+002 5.000000e+000
      vertex   -9.793584e+001 1.460013e+002 0.000000e+000
      vertex   -9.765892e+001 1.461569e+002 5.000000e+000
    endloop
  endfacet
  facet normal 3.105008e-002 -5.527341e-002 0.000000e+000
    outer loop
      vertex   -9.765892e+001 1.461569e+002 5.000000e+000
      vertex   -9.793584e+001 1.460013e+002 0.000000e+000
      vertex   -9.765892e+001 1.461569e+002 0.000000e+000
    endloop
  endfacet
  facet normal 5.500686e-001 -8.351195e-001 0.000000e+000
    outer loop
      vertex   -9.765892e+001 1.461569e+002 5.000000e+000
      vertex   -9.765892e+001 1.461569e+002 0.000000e+000
      vertex   -9.739367e+001 1.463316e+002 5.000000e+000
    endloop
  endfacet
  facet normal 3.487234e-002 -5.294352e-002 0.000000e+000
    outer loop
      vertex   -9.739367e+001 1.463316e+002 5.000000e+000
      vertex   -9.765892e+001 1.461569e+002 0.000000e+000
      vertex   -9.739367e+001 1.463316e+002 0.000000e+000
    endloop
  endfacet
  facet normal 6.075749e-001 -7.942623e-001 0.000000e+000
    outer loop
      vertex   -9.739367e+001 1.463316e+002 5.000000e+000
      vertex   -9.739367e+001 1.463316e+002 0.000000e+000
      vertex   -9.714140e+001 1.465246e+002 5.000000e+000
    endloop
  endfacet
  facet normal 3.851794e-002 -5.035322e-002 0.000000e+000
    outer loop
      vertex   -9.714140e+001 1.465246e+002 5.000000e+000
      vertex   -9.739367e+001 1.463316e+002 0.000000e+000
      vertex   -9.714140e+001 1.465246e+002 0.000000e+000
    endloop
  endfacet
  facet normal 6.621276e-001 -7.493912e-001 0.000000e+000
    outer loop
      vertex   -9.714140e+001 1.465246e+002 5.000000e+000
      vertex   -9.714140e+001 1.465246e+002 0.000000e+000
      vertex   -9.690337e+001 1.467349e+002 5.000000e+000
    endloop
  endfacet
  facet normal 4.197776e-002 -4.751013e-002 0.000000e+000
    outer loop
      vertex   -9.690337e+001 1.467349e+002 5.000000e+000
      vertex   -9.714140e+001 1.465246e+002 0.000000e+000
      vertex   -9.690337e+001 1.467349e+002 0.000000e+000
    endloop
  endfacet
  facet normal 7.133126e-001 -7.008460e-001 0.000000e+000
    outer loop
      vertex   -9.690337e+001 1.467349e+002 5.000000e+000
      vertex   -9.690337e+001 1.467349e+002 0.000000e+000
      vertex   -9.668076e+001 1.469615e+002 5.000000e+000
    endloop
  endfacet
  facet normal 4.522135e-002 -4.443101e-002 0.000000e+000
    outer loop
      vertex   -9.668076e+001 1.469615e+002 5.000000e+000
      vertex   -9.690337e+001 1.467349e+002 0.000000e+000
      vertex   -9.668076e+001 1.469615e+002 0.000000e+000
    endloop
  endfacet
  facet normal 7.609665e-001 -6.487912e-001 0.000000e+000
    outer loop
      vertex   -9.668076e+001 1.469615e+002 5.000000e+000
      vertex   -9.668076e+001 1.469615e+002 0.000000e+000
      vertex   -9.647469e+001 1.472032e+002 5.000000e+000
    endloop
  endfacet
  facet normal 4.824260e-002 -4.113108e-002 0.000000e+000
    outer loop
      vertex   -9.647469e+001 1.472032e+002 5.000000e+000
      vertex   -9.668076e+001 1.469615e+002 0.000000e+000
      vertex   -9.647469e+001 1.472032e+002 0.000000e+000
    endloop
  endfacet
  facet normal 8.048620e-001 -5.934620e-001 0.000000e+000
    outer loop
      vertex   -9.647469e+001 1.472032e+002 5.000000e+000
      vertex   -9.647469e+001 1.472032e+002 0.000000e+000
      vertex   -9.628619e+001 1.474588e+002 5.000000e+000
    endloop
  endfacet
  facet normal 5.102630e-002 -3.762405e-002 0.000000e+000
    outer loop
      vertex   -9.628619e+001 1.474588e+002 5.000000e+000
      vertex   -9.647469e+001 1.472032e+002 0.000000e+000
      vertex   -9.628619e+001 1.474588e+002 0.000000e+000
    endloop
  endfacet
  facet normal 8.446975e-001 -5.352440e-001 0.000000e+000
    outer loop
      vertex   -9.628619e+001 1.474588e+002 5.000000e+000
      vertex   -9.628619e+001 1.474588e+002 0.000000e+000
      vertex   -9.611619e+001 1.477271e+002 5.000000e+000
    endloop
  endfacet
  facet normal 5.355112e-002 -3.393276e-002 0.000000e+000
    outer loop
      vertex   -9.611619e+001 1.477271e+002 5.000000e+000
      vertex   -9.628619e+001 1.474588e+002 0.000000e+000
      vertex   -9.611619e+001 1.477271e+002 0.000000e+000
    endloop
  endfacet
  facet normal 8.803569e-001 -4.743118e-001 0.000000e+000
    outer loop
      vertex   -9.611619e+001 1.477271e+002 5.000000e+000
      vertex   -9.611619e+001 1.477271e+002 0.000000e+000
      vertex   -9.596554e+001 1.480067e+002 5.000000e+000
    endloop
  endfacet
  facet normal 5.581097e-002 -3.006940e-002 0.000000e+000
    outer loop
      vertex   -9.596554e+001 1.480067e+002 5.000000e+000
      vertex   -9.611619e+001 1.477271e+002 0.000000e+000
      vertex   -9.596554e+001 1.480067e+002 0.000000e+000
    endloop
  endfacet
  facet normal 9.116192e-001 -4.110357e-001 0.000000e+000
    outer loop
      vertex   -9.596554e+001 1.480067e+002 5.000000e+000
      vertex   -9.596554e+001 1.480067e+002 0.000000e+000
      vertex   -9.583498e+001 1.482963e+002 5.000000e+000
    endloop
  endfacet
  facet normal 5.779367e-002 -2.605832e-002 0.000000e+000
    outer loop
      vertex   -9.583498e+001 1.482963e+002 5.000000e+000
      vertex   -9.596554e+001 1.480067e+002 0.000000e+000
      vertex   -9.583498e+001 1.482963e+002 0.000000e+000
    endloop
  endfacet
  facet normal 9.383488e-001 -3.456898e-001 0.000000e+000
    outer loop
      vertex   -9.583498e+001 1.482963e+002 5.000000e+000
      vertex   -9.583498e+001 1.482963e+002 0.000000e+000
      vertex   -9.572518e+001 1.485943e+002 5.000000e+000
    endloop
  endfacet
  facet normal 5.949007e-002 -2.191627e-002 0.000000e+000
    outer loop
      vertex   -9.572518e+001 1.485943e+002 5.000000e+000
      vertex   -9.583498e+001 1.482963e+002 0.000000e+000
      vertex   -9.572518e+001 1.485943e+002 0.000000e+000
    endloop
  endfacet
  facet normal 9.603891e-001 -2.786623e-001 0.000000e+000
    outer loop
      vertex   -9.572518e+001 1.485943e+002 5.000000e+000
      vertex   -9.572518e+001 1.485943e+002 0.000000e+000
      vertex   -9.563667e+001 1.488994e+002 5.000000e+000
    endloop
  endfacet
  facet normal 6.088497e-002 -1.766611e-002 0.000000e+000
    outer loop
      vertex   -9.563667e+001 1.488994e+002 5.000000e+000
      vertex   -9.572518e+001 1.485943e+002 0.000000e+000
      vertex   -9.563667e+001 1.488994e+002 0.000000e+000
    endloop
  endfacet
  facet normal 9.776587e-001 -2.101983e-001 0.000000e+000
    outer loop
      vertex   -9.563667e+001 1.488994e+002 5.000000e+000
      vertex   -9.563667e+001 1.488994e+002 0.000000e+000
      vertex   -9.556991e+001 1.492099e+002 5.000000e+000
    endloop
  endfacet
  facet normal 6.198139e-002 -1.332610e-002 0.000000e+000
    outer loop
      vertex   -9.556991e+001 1.492099e+002 5.000000e+000
      vertex   -9.563667e+001 1.488994e+002 0.000000e+000
      vertex   -9.556991e+001 1.492099e+002 0.000000e+000
    endloop
  endfacet
  facet normal 9.900468e-001 -1.407387e-001 0.000000e+000
    outer loop
      vertex   -9.556991e+001 1.492099e+002 5.000000e+000
      vertex   -9.556991e+001 1.492099e+002 0.000000e+000
      vertex   -9.552521e+001 1.495244e+002 5.000000e+000
    endloop
  endfacet
  facet normal 6.276412e-002 -8.922142e-003 0.000000e+000
    outer loop
      vertex   -9.552521e+001 1.495244e+002 5.000000e+000
      vertex   -9.556991e+001 1.492099e+002 0.000000e+000
      vertex   -9.552521e+001 1.495244e+002 0.000000e+000
    endloop
  endfacet
  facet normal 9.975085e-001 -7.054716e-002 0.000000e+000
    outer loop
      vertex   -9.552521e+001 1.495244e+002 5.000000e+000
      vertex   -9.552521e+001 1.495244e+002 0.000000e+000
      vertex   -9.550280e+001 1.498412e+002 5.000000e+000
    endloop
  endfacet
  facet normal 6.323923e-002 -4.472491e-003 0.000000e+000
    outer loop
      vertex   -9.550280e+001 1.498412e+002 5.000000e+000
      vertex   -9.552521e+001 1.495244e+002 0.000000e+000
      vertex   -9.550280e+001 1.498412e+002 0.000000e+000
    endloop
  endfacet
  facet normal 1.000000e+000 -0.000000e+000 0.000000e+000
    outer loop
      vertex   -9.550280e+001 1.498412e+002 5.000000e+000
      vertex   -9.550280e+001 1.498412e+002 0.000000e+000
      vertex   -9.550280e+001 1.501588e+002 5.000000e+000
    endloop
  endfacet
  facet normal 6.339760e-002 0.000000e+000 0.000000e+000
    outer loop
      vertex   -9.550280e+001 1.501588e+002 5.000000e+000
      vertex   -9.550280e+001 1.498412e+002 0.000000e+000
      vertex   -9.550280e+001 1.501588e+002 0.000000e+000
    endloop
  endfacet
  facet normal 9.975085e-001 7.054716e-002 0.000000e+000
    outer loop
      vertex   -9.550280e+001 1.501588e+002 5.000000e+000
      vertex   -9.550280e+001 1.501588e+002 0.000000e+000
      vertex   -9.552521e+001 1.504756e+002 5.000000e+000
    endloop
  endfacet
  facet normal 6.323923e-002 4.472491e-003 0.000000e+000
    outer loop
      vertex   -9.552521e+001 1.504756e+002 5.000000e+000
      vertex   -9.550280e+001 1.501588e+002 0.000000e+000
      vertex   -9.552521e+001 1.504756e+002 0.000000e+000
    endloop
  endfacet
  facet normal 9.900468e-001 1.407387e-001 0.000000e+000
    outer loop
      vertex   -9.552521e+001 1.504756e+002 5.000000e+000
      vertex   -9.552521e+001 1.504756e+002 0.000000e+000
      vertex   -9.556991e+001 1.507901e+002 5.000000e+000
    endloop
  endfacet
  facet normal 6.276412e-002 8.922142e-003 0.000000e+000
    outer loop
      vertex   -9.556991e+001 1.507901e+002 5.000000e+000
      vertex   -9.552521e+001 1.504756e+002 0.000000e+000
      vertex   -9.556991e+001 1.507901e+002 0.000000e+000
    endloop
  endfacet
  facet normal 9.776587e-001 2.101983e-001 0.000000e+000
    outer loop
      vertex   -9.556991e+001 1.507901e+002 5.000000e+000
      vertex   -9.556991e+001 1.507901e+002 0.000000e+000
      vertex   -9.563667e+001 1.511006e+002 5.000000e+000
    endloop
  endfacet
  facet normal 6.198139e-002 1.332610e-002 0.000000e+000
    outer loop
      vertex   -9.563667e+001 1.511006e+002 5.000000e+000
      vertex   -9.556991e+001 1.507901e+002 0.000000e+000
      vertex   -9.563667e+001 1.511006e+002 0.000000e+000
    endloop
  endfacet
  facet normal 9.603891e-001 2.786623e-001 0.000000e+000
    outer loop
      vertex   -9.563667e+001 1.511006e+002 5.000000e+000
      vertex   -9.563667e+001 1.511006e+002 0.000000e+000
      vertex   -9.572518e+001 1.514057e+002 5.000000e+000
    endloop
  endfacet
  facet normal 6.088497e-002 1.766611e-002 0.000000e+000
    outer loop
      vertex   -9.572518e+001 1.514057e+002 5.000000e+000
      vertex   -9.563667e+001 1.511006e+002 0.000000e+000
      vertex   -9.572518e+001 1.514057e+002 0.000000e+000
    endloop
  endfacet
  facet normal 9.383488e-001 3.456898e-001 0.000000e+000
    outer loop
      vertex   -9.572518e+001 1.514057e+002 5.000000e+000
      vertex   -9.572518e+001 1.514057e+002 0.000000e+000
      vertex   -9.583498e+001 1.517037e+002 5.000000e+000
    endloop
  endfacet
  facet normal 5.949007e-002 2.191627e-002 0.000000e+000
    outer loop
      vertex   -9.583498e+001 1.517037e+002 5.000000e+000
      vertex   -9.572518e+001 1.514057e+002 0.000000e+000
      vertex   -9.583498e+001 1.517037e+002 0.000000e+000
    endloop
  endfacet
  facet normal 9.116192e-001 4.110357e-001 0.000000e+000
    outer loop
      vertex   -9.583498e+001 1.517037e+002 5.000000e+000
      vertex   -9.583498e+001 1.517037e+002 0.000000e+000
      vertex   -9.596554e+001 1.519933e+002 5.000000e+000
    endloop
  endfacet
  facet normal 5.779367e-002 2.605832e-002 0.000000e+000
    outer loop
      vertex   -9.596554e+001 1.519933e+002 5.000000e+000
      vertex   -9.583498e+001 1.517037e+002 0.000000e+000
      vertex   -9.596554e+001 1.519933e+002 0.000000e+000
    endloop
  endfacet
  facet normal 8.803569e-001 4.743118e-001 0.000000e+000
    outer loop
      vertex   -9.596554e+001 1.519933e+002 5.000000e+000
      vertex   -9.596554e+001 1.519933e+002 0.000000e+000
      vertex   -9.611619e+001 1.522729e+002 5.000000e+000
    endloop
  endfacet
  facet normal 5.581097e-002 3.006940e-002 0.000000e+000
    outer loop
      vertex   -9.611619e+001 1.522729e+002 5.000000e+000
      vertex   -9.596554e+001 1.519933e+002 0.000000e+000
      vertex   -9.611619e+001 1.522729e+002 0.000000e+000
    endloop
  endfacet
  facet normal 8.446975e-001 5.352440e-001 0.000000e+000
    outer loop
      vertex   -9.611619e+001 1.522729e+002 5.000000e+000
      vertex   -9.611619e+001 1.522729e+002 0.000000e+000
      vertex   -9.628619e+001 1.525412e+002 5.000000e+000
    endloop
  endfacet
  facet normal 5.355112e-002 3.393276e-002 0.000000e+000
    outer loop
      vertex   -9.628619e+001 1.525412e+002 5.000000e+000
      vertex   -9.611619e+001 1.522729e+002 0.000000e+000
      vertex   -9.628619e+001 1.525412e+002 0.000000e+000
    endloop
  endfacet
  facet normal 8.048620e-001 5.934620e-001 0.000000e+000
    outer loop
      vertex   -9.628619e+001 1.525412e+002 5.000000e+000
      vertex   -9.628619e+001 1.525412e+002 0.000000e+000
      vertex   -9.647469e+001 1.527968e+002 5.000000e+000
    endloop
  endfacet
  facet normal 5.102630e-002 3.762405e-002 0.000000e+000
    outer loop
      vertex   -9.647469e+001 1.527968e+002 5.000000e+000
      vertex   -9.628619e+001 1.525412e+002 0.000000e+000
      vertex   -9.647469e+001 1.527968e+002 0.000000e+000
    endloop
  endfacet
  facet normal 7.609665e-001 6.487912e-001 0.000000e+000
    outer loop
      vertex   -9.647469e+001 1.527968e+002 5.000000e+000
      vertex   -9.647469e+001 1.527968e+002 0.000000e+000
      vertex   -9.668076e+001 1.530385e+002 5.000000e+000
    endloop
  endfacet
  facet normal 4.824260e-002 4.113108e-002 0.000000e+000
    outer loop
      vertex   -9.668076e+001 1.530385e+002 5.000000e+000
      vertex   -9.647469e+001 1.527968e+002 0.000000e+000
      vertex   -9.668076e+001 1.530385e+002 0.000000e+000
    endloop
  endfacet
  facet normal 7.133126e-001 7.008460e-001 0.000000e+000
    outer loop
      vertex   -9.668076e+001 1.530385e+002 5.000000e+000
      vertex   -9.668076e+001 1.530385e+002 0.000000e+000
      vertex   -9.690337e+001 1.532651e+002 5.000000e+000
    endloop
  endfacet
  facet normal 4.522135e-002 4.443101e-002 0.000000e+000
    outer loop
      vertex   -9.690337e+001 1.532651e+002 5.000000e+000
      vertex   -9.668076e+001 1.530385e+002 0.000000e+000
      vertex   -9.690337e+001 1.532651e+002 0.000000e+000
    endloop
  endfacet
  facet normal 6.621276e-001 7.493912e-001 0.000000e+000
    outer loop
      vertex   -9.690337e+001 1.532651e+002 5.000000e+000
      vertex   -9.690337e+001 1.532651e+002 0.000000e+000
      vertex   -9.714140e+001 1.534754e+002 5.000000e+000
    endloop
  endfacet
  facet normal 4.197776e-002 4.751013e-002 0.000000e+000
    outer loop
      vertex   -9.714140e+001 1.534754e+002 5.000000e+000
      vertex   -9.690337e+001 1.532651e+002 0.000000e+000
      vertex   -9.714140e+001 1.534754e+002 0.000000e+000
    endloop
  endfacet
  facet normal 6.075749e-001 7.942623e-001 0.000000e+000
    outer loop
      vertex   -9.714140e+001 1.534754e+002 5.000000e+000
      vertex   -9.714140e+001 1.534754e+002 0.000000e+000
      vertex   -9.739367e+001 1.536684e+002 5.000000e+000
    endloop
  endfacet
  facet normal 3.851794e-002 5.035322e-002 0.000000e+000
    outer loop
      vertex   -9.739367e+001 1.536684e+002 5.000000e+000
      vertex   -9.714140e+001 1.534754e+002 0.000000e+000
      vertex   -9.739367e+001 1.536684e+002 0.000000e+000
    endloop
  endfacet
  facet normal 5.500686e-001 8.351195e-001 0.000000e+000
    outer loop
      vertex   -9.739367e+001 1.536684e+002 5.000000e+000
      vertex   -9.739367e+001 1.536684e+002 0.000000e+000
      vertex   -9.765892e+001 1.538431e+002 5.000000e+000
    endloop
  endfacet
  facet normal 3.487234e-002 5.294352e-002 0.000000e+000
    outer loop
      vertex   -9.765892e+001 1.538431e+002 5.000000e+000
      vertex   -9.739367e+001 1.536684e+002 0.000000e+000
      vertex   -9.765892e+001 1.538431e+002 0.000000e+000
    endloop
  endfacet
  facet normal 4.897674e-001 8.718532e-001 0.000000e+000
    outer loop
      vertex   -9.765892e+001 1.538431e+002 5.000000e+000
      vertex   -9.765892e+001 1.538431e+002 0.000000e+000
      vertex   -9.793584e+001 1.539987e+002 5.000000e+000
    endloop
  endfacet
  facet normal 3.105008e-002 5.527341e-002 0.000000e+000
    outer loop
      vertex   -9.793584e+001 1.539987e+002 5.000000e+000
      vertex   -9.765892e+001 1.538431e+002 0.000000e+000
      vertex   -9.793584e+001 1.539987e+002 0.000000e+000
    endloop
  endfacet
  facet normal 4.270390e-001 9.042332e-001 0.000000e+000
    outer loop
      vertex   -9.793584e+001 1.539987e+002 5.000000e+000
      vertex   -9.793584e+001 1.539987e+002 0.000000e+000
      vertex   -9.822305e+001 1.541343e+002 5.000000e+000
    endloop
  endfacet
  facet normal 2.707251e-002 5.732464e-002 0.000000e+000
    outer loop
      vertex   -9.822305e+001 1.541343e+002 5.000000e+000
      vertex   -9.793584e+001 1.539987e+002 0.000000e+000
      vertex   -9.822305e+001 1.541343e+002 0.000000e+000
    endloop
  endfacet
  facet normal 3.622283e-001 9.320894e-001 0.000000e+000
    outer loop
      vertex   -9.822305e+001 1.541343e+002 5.000000e+000
      vertex   -9.822305e+001 1.541343e+002 0.000000e+000
      vertex   -9.851910e+001 1.542493e+002 5.000000e+000
    endloop
  endfacet
  facet normal 2.296397e-002 5.909110e-002 0.000000e+000
    outer loop
      vertex   -9.851910e+001 1.542493e+002 5.000000e+000
      vertex   -9.822305e+001 1.541343e+002 0.000000e+000
      vertex   -9.851910e+001 1.542493e+002 0.000000e+000
    endloop
  endfacet
  facet normal 2.955438e-001 9.553292e-001 0.000000e+000
    outer loop
      vertex   -9.851910e+001 1.542493e+002 5.000000e+000
      vertex   -9.851910e+001 1.542493e+002 0.000000e+000
      vertex   -9.882253e+001 1.543432e+002 5.000000e+000
    endloop
  endfacet
  facet normal 1.873665e-002 6.056518e-002 0.000000e+000
    outer loop
      vertex   -9.882253e+001 1.543432e+002 5.000000e+000
      vertex   -9.851910e+001 1.542493e+002 0.000000e+000
      vertex   -9.882253e+001 1.543432e+002 0.000000e+000
    endloop
  endfacet
  facet normal 2.274673e-001 9.737857e-001 0.000000e+000
    outer loop
      vertex   -9.882253e+001 1.543432e+002 5.000000e+000
      vertex   -9.882253e+001 1.543432e+002 0.000000e+000
      vertex   -9.913184e+001 1.544155e+002 5.000000e+000
    endloop
  endfacet
  facet normal 1.442100e-002 6.173621e-002 0.000000e+000
    outer loop
      vertex   -9.913184e+001 1.544155e+002 5.000000e+000
      vertex   -9.882253e+001 1.543432e+002 0.000000e+000
      vertex   -9.913184e+001 1.544155e+002 0.000000e+000
    endloop
  endfacet
  facet normal 1.581516e-001 9.874148e-001 0.000000e+000
    outer loop
      vertex   -9.913184e+001 1.544155e+002 5.000000e+000
      vertex   -9.913184e+001 1.544155e+002 0.000000e+000
      vertex   -9.944546e+001 1.544657e+002 5.000000e+000
    endloop
  endfacet
  facet normal 1.002618e-002 6.259813e-002 0.000000e+000
    outer loop
      vertex   -9.944546e+001 1.544657e+002 5.000000e+000
      vertex   -9.913184e+001 1.544155e+002 0.000000e+000
      vertex   -9.944546e+001 1.544657e+002 0.000000e+000
    endloop
  endfacet
  facet normal 8.815529e-002 9.961067e-001 0.000000e+000
    outer loop
      vertex   -9.944546e+001 1.544657e+002 5.000000e+000
      vertex   -9.944546e+001 1.544657e+002 0.000000e+000
      vertex   -9.976184e+001 1.544937e+002 5.000000e+000
    endloop
  endfacet
  facet normal 5.588711e-003 6.314939e-002 0.000000e+000
    outer loop
      vertex   -9.976184e+001 1.544937e+002 5.000000e+000
      vertex   -9.944546e+001 1.544657e+002 0.000000e+000
      vertex   -9.976184e+001 1.544937e+002 0.000000e+000
    endloop
  endfacet
  facet normal 1.763089e-002 9.998446e-001 0.000000e+000
    outer loop
      vertex   -9.976184e+001 1.544937e+002 5.000000e+000
      vertex   -9.976184e+001 1.544937e+002 0.000000e+000
      vertex   -1.000794e+002 1.544993e+002 5.000000e+000
    endloop
  endfacet
  facet normal 1.117742e-003 6.338695e-002 0.000000e+000
    outer loop
      vertex   -1.000794e+002 1.544993e+002 5.000000e+000
      vertex   -9.976184e+001 1.544937e+002 0.000000e+000
      vertex   -1.000794e+002 1.544993e+002 0.000000e+000
    endloop
  endfacet
  facet normal -5.293956e-002 9.985977e-001 0.000000e+000
    outer loop
      vertex   -1.000794e+002 1.544993e+002 5.000000e+000
      vertex   -1.000794e+002 1.544993e+002 0.000000e+000
      vertex   -1.003966e+002 1.544825e+002 5.000000e+000
    endloop
  endfacet
  facet normal -3.356272e-003 6.330927e-002 0.000000e+000
    outer loop
      vertex   -1.003966e+002 1.544825e+002 5.000000e+000
      vertex   -1.000794e+002 1.544993e+002 0.000000e+000
      vertex   -1.003966e+002 1.544825e+002 0.000000e+000
    endloop
  endfacet
  facet normal -1.232247e-001 9.923788e-001 0.000000e+000
    outer loop
      vertex   -1.003966e+002 1.544825e+002 5.000000e+000
      vertex   -1.003966e+002 1.544825e+002 0.000000e+000
      vertex   -1.007118e+002 1.544433e+002 5.000000e+000
    endloop
  endfacet
  facet normal -7.812012e-003 6.291335e-002 0.000000e+000
    outer loop
      vertex   -1.007118e+002 1.544433e+002 5.000000e+000
      vertex   -1.003966e+002 1.544825e+002 0.000000e+000
      vertex   -1.007118e+002 1.544433e+002 0.000000e+000
    endloop
  endfacet
  facet normal -1.929324e-001 9.812121e-001 0.000000e+000
    outer loop
      vertex   -1.007118e+002 1.544433e+002 5.000000e+000
      vertex   -1.007118e+002 1.544433e+002 0.000000e+000
      vertex   -1.010235e+002 1.543821e+002 5.000000e+000
    endloop
  endfacet
  facet normal -1.223121e-002 6.220524e-002 0.000000e+000
    outer loop
      vertex   -1.010235e+002 1.543821e+002 5.000000e+000
      vertex   -1.007118e+002 1.544433e+002 0.000000e+000
      vertex   -1.010235e+002 1.543821e+002 0.000000e+000
    endloop
  endfacet
  facet normal -2.616313e-001 9.651679e-001 0.000000e+000
    outer loop
      vertex   -1.010235e+002 1.543821e+002 5.000000e+000
      vertex   -1.010235e+002 1.543821e+002 0.000000e+000
      vertex   -1.013300e+002 1.542990e+002 5.000000e+000
    endloop
  endfacet
  facet normal -1.658644e-002 6.118801e-002 0.000000e+000
    outer loop
      vertex   -1.013300e+002 1.542990e+002 5.000000e+000
      vertex   -1.010235e+002 1.543821e+002 0.000000e+000
      vertex   -1.013300e+002 1.542990e+002 0.000000e+000
    endloop
  endfacet
  facet normal -3.291187e-001 9.442886e-001 0.000000e+000
    outer loop
      vertex   -1.013300e+002 1.542990e+002 5.000000e+000
      vertex   -1.013300e+002 1.542990e+002 0.000000e+000
      vertex   -1.016299e+002 1.541944e+002 5.000000e+000
    endloop
  endfacet
  facet normal -2.086553e-002 5.986620e-002 0.000000e+000
    outer loop
      vertex   -1.016299e+002 1.541944e+002 5.000000e+000
      vertex   -1.013300e+002 1.542990e+002 0.000000e+000
      vertex   -1.016299e+002 1.541944e+002 0.000000e+000
    endloop
  endfacet
  facet normal -3.948526e-001 9.187445e-001 0.000000e+000
    outer loop
      vertex   -1.016299e+002 1.541944e+002 5.000000e+000
      vertex   -1.016299e+002 1.541944e+002 0.000000e+000
      vertex   -1.019218e+002 1.540690e+002 5.000000e+000
    endloop
  endfacet
  facet normal -2.503194e-002 5.824442e-002 0.000000e+000
    outer loop
      vertex   -1.019218e+002 1.540690e+002 5.000000e+000
      vertex   -1.016299e+002 1.541944e+002 0.000000e+000
      vertex   -1.019218e+002 1.540690e+002 0.000000e+000
    endloop
  endfacet
  facet normal -4.586968e-001 8.885928e-001 0.000000e+000
    outer loop
      vertex   -1.019218e+002 1.540690e+002 5.000000e+000
      vertex   -1.019218e+002 1.540690e+002 0.000000e+000
      vertex   -1.022040e+002 1.539233e+002 5.000000e+000
    endloop
  endfacet
  facet normal -2.907957e-002 5.633329e-002 0.000000e+000
    outer loop
      vertex   -1.022040e+002 1.539233e+002 5.000000e+000
      vertex   -1.019218e+002 1.540690e+002 0.000000e+000
      vertex   -1.022040e+002 1.539233e+002 0.000000e+000
    endloop
  endfacet
  facet normal -5.202593e-001 8.540083e-001 0.000000e+000
    outer loop
      vertex   -1.022040e+002 1.539233e+002 5.000000e+000
      vertex   -1.022040e+002 1.539233e+002 0.000000e+000
      vertex   -1.024753e+002 1.537581e+002 5.000000e+000
    endloop
  endfacet
  facet normal -3.298405e-002 5.414348e-002 0.000000e+000
    outer loop
      vertex   -1.024753e+002 1.537581e+002 5.000000e+000
      vertex   -1.022040e+002 1.539233e+002 0.000000e+000
      vertex   -1.024753e+002 1.537581e+002 0.000000e+000
    endloop
  endfacet
  facet normal -5.791891e-001 8.151932e-001 0.000000e+000
    outer loop
      vertex   -1.024753e+002 1.537581e+002 5.000000e+000
      vertex   -1.024753e+002 1.537581e+002 0.000000e+000
      vertex   -1.027342e+002 1.535741e+002 5.000000e+000
    endloop
  endfacet
  facet normal -3.671798e-002 5.167959e-002 0.000000e+000
    outer loop
      vertex   -1.027342e+002 1.535741e+002 5.000000e+000
      vertex   -1.024753e+002 1.537581e+002 0.000000e+000
      vertex   -1.027342e+002 1.535741e+002 0.000000e+000
    endloop
  endfacet
  facet normal -6.352357e-001 7.723184e-001 0.000000e+000
    outer loop
      vertex   -1.027342e+002 1.535741e+002 5.000000e+000
      vertex   -1.027342e+002 1.535741e+002 0.000000e+000
      vertex   -1.029795e+002 1.533723e+002 5.000000e+000
    endloop
  endfacet
  facet normal -4.027222e-002 4.896289e-002 0.000000e+000
    outer loop
      vertex   -1.029795e+002 1.533723e+002 5.000000e+000
      vertex   -1.027342e+002 1.535741e+002 0.000000e+000
      vertex   -1.029795e+002 1.533723e+002 0.000000e+000
    endloop
  endfacet
  facet normal -6.881350e-001 7.255827e-001 0.000000e+000
    outer loop
      vertex   -1.029795e+002 1.533723e+002 5.000000e+000
      vertex   -1.029795e+002 1.533723e+002 0.000000e+000
      vertex   -1.032099e+002 1.531538e+002 5.000000e+000
    endloop
  endfacet
  facet normal -4.362544e-002 4.599950e-002 0.000000e+000
    outer loop
      vertex   -1.032099e+002 1.531538e+002 5.000000e+000
      vertex   -1.029795e+002 1.533723e+002 0.000000e+000
      vertex   -1.032099e+002 1.531538e+002 0.000000e+000
    endloop
  endfacet
  facet normal -7.376086e-001 6.752285e-001 0.000000e+000
    outer loop
      vertex   -1.032099e+002 1.531538e+002 5.000000e+000
      vertex   -1.032099e+002 1.531538e+002 0.000000e+000
      vertex   -1.034244e+002 1.529195e+002 5.000000e+000
    endloop
  endfacet
  facet normal -4.676243e-002 4.280769e-002 0.000000e+000
    outer loop
      vertex   -1.034244e+002 1.529195e+002 5.000000e+000
      vertex   -1.032099e+002 1.531538e+002 0.000000e+000
      vertex   -1.034244e+002 1.529195e+002 0.000000e+000
    endloop
  endfacet
  facet normal -7.834073e-001 6.215086e-001 0.000000e+000
    outer loop
      vertex   -1.034244e+002 1.529195e+002 5.000000e+000
      vertex   -1.034244e+002 1.529195e+002 0.000000e+000
      vertex   -1.036218e+002 1.526707e+002 5.000000e+000
    endloop
  endfacet
  facet normal -4.966491e-002 3.940117e-002 0.000000e+000
    outer loop
      vertex   -1.036218e+002 1.526707e+002 5.000000e+000
      vertex   -1.034244e+002 1.529195e+002 0.000000e+000
      vertex   -1.036218e+002 1.526707e+002 0.000000e+000
    endloop
  endfacet
  facet normal -8.252860e-001 5.647149e-001 0.000000e+000
    outer loop
      vertex   -1.036218e+002 1.526707e+002 5.000000e+000
      vertex   -1.036218e+002 1.526707e+002 0.000000e+000
      vertex   -1.038012e+002 1.524085e+002 5.000000e+000
    endloop
  endfacet
  facet normal -5.232069e-002 3.580125e-002 0.000000e+000
    outer loop
      vertex   -1.038012e+002 1.524085e+002 5.000000e+000
      vertex   -1.036218e+002 1.526707e+002 0.000000e+000
      vertex   -1.038012e+002 1.524085e+002 0.000000e+000
    endloop
  endfacet
  facet normal -8.630811e-001 5.050653e-001 0.000000e+000
    outer loop
      vertex   -1.038012e+002 1.524085e+002 5.000000e+000
      vertex   -1.038012e+002 1.524085e+002 0.000000e+000
      vertex   -1.039616e+002 1.521344e+002 5.000000e+000
    endloop
  endfacet
  facet normal -5.471759e-002 3.202011e-002 0.000000e+000
    outer loop
      vertex   -1.039616e+002 1.521344e+002 5.000000e+000
      vertex   -1.038012e+002 1.524085e+002 0.000000e+000
      vertex   -1.039616e+002 1.521344e+002 0.000000e+000
    endloop
  endfacet
  facet normal -8.965405e-001 4.429617e-001 0.000000e+000
    outer loop
      vertex   -1.039616e+002 1.521344e+002 5.000000e+000
      vertex   -1.039616e+002 1.521344e+002 0.000000e+000
      vertex   -1.041023e+002 1.518496e+002 5.000000e+000
    endloop
  endfacet
  facet normal -5.683734e-002 2.808213e-002 0.000000e+000
    outer loop
      vertex   -1.041023e+002 1.518496e+002 5.000000e+000
      vertex   -1.039616e+002 1.521344e+002 0.000000e+000
      vertex   -1.041023e+002 1.518496e+002 0.000000e+000
    endloop
  endfacet
  facet normal -9.255561e-001 3.786104e-001 0.000000e+000
    outer loop
      vertex   -1.041023e+002 1.518496e+002 5.000000e+000
      vertex   -1.041023e+002 1.518496e+002 0.000000e+000
      vertex   -1.042225e+002 1.515557e+002 5.000000e+000
    endloop
  endfacet
  facet normal -5.867689e-002 2.400252e-002 0.000000e+000
    outer loop
      vertex   -1.042225e+002 1.515557e+002 5.000000e+000
      vertex   -1.041023e+002 1.518496e+002 0.000000e+000
      vertex   -1.042225e+002 1.515557e+002 0.000000e+000
    endloop
  endfacet
  facet normal -9.499629e-001 3.123626e-001 0.000000e+000
    outer loop
      vertex   -1.042225e+002 1.515557e+002 5.000000e+000
      vertex   -1.042225e+002 1.515557e+002 0.000000e+000
      vertex   -1.043218e+002 1.512539e+002 5.000000e+000
    endloop
  endfacet
  facet normal -6.022407e-002 1.980262e-002 0.000000e+000
    outer loop
      vertex   -1.043218e+002 1.512539e+002 5.000000e+000
      vertex   -1.042225e+002 1.515557e+002 0.000000e+000
      vertex   -1.043218e+002 1.512539e+002 0.000000e+000
    endloop
  endfacet
  facet normal -9.696260e-001 2.445923e-001 0.000000e+000
    outer loop
      vertex   -1.043218e+002 1.512539e+002 5.000000e+000
      vertex   -1.043218e+002 1.512539e+002 0.000000e+000
      vertex   -1.043995e+002 1.509460e+002 5.000000e+000
    endloop
  endfacet
  facet normal -6.147277e-002 1.550677e-002 0.000000e+000
    outer loop
      vertex   -1.043995e+002 1.509460e+002 5.000000e+000
      vertex   -1.043218e+002 1.512539e+002 0.000000e+000
      vertex   -1.043995e+002 1.509460e+002 0.000000e+000
    endloop
  endfacet
  facet normal -9.844673e-001 1.755678e-001 0.000000e+000
    outer loop
      vertex   -1.043995e+002 1.509460e+002 5.000000e+000
      vertex   -1.043995e+002 1.509460e+002 0.000000e+000
      vertex   -1.044552e+002 1.506333e+002 5.000000e+000
    endloop
  endfacet
  facet normal -6.241083e-002 1.113022e-002 0.000000e+000
    outer loop
      vertex   -1.044552e+002 1.506333e+002 5.000000e+000
      vertex   -1.043995e+002 1.509460e+002 0.000000e+000
      vertex   -1.044552e+002 1.506333e+002 0.000000e+000
    endloop
  endfacet
  facet normal -9.943966e-001 1.057138e-001 0.000000e+000
    outer loop
      vertex   -1.044552e+002 1.506333e+002 5.000000e+000
      vertex   -1.044552e+002 1.506333e+002 0.000000e+000
      vertex   -1.044888e+002 1.503174e+002 5.000000e+000
    endloop
  endfacet
  facet normal -6.304127e-002 6.701884e-003 0.000000e+000
    outer loop
      vertex   -1.044888e+002 1.503174e+002 5.000000e+000
      vertex   -1.044552e+002 1.506333e+002 0.000000e+000
      vertex   -1.044888e+002 1.503174e+002 0.000000e+000
    endloop
  endfacet
  facet normal 0.000000e+000 -0.000000e+000 9.998444e-001
    outer loop
      vertex   -1.044888e+002 1.496826e+002 5.000000e+000
      vertex   -9.550280e+001 1.498412e+002 5.000000e+000
      vertex   -1.045000e+002 1.500000e+002 5.000000e+000
    endloop
  endfacet
  facet normal -0.000000e+000 0.000000e+000 3.529187e-002
    outer loop
      vertex   -1.045000e+002 1.500000e+002 5.000000e+000
      vertex   -9.550280e+001 1.498412e+002 5.000000e+000
      vertex   -9.550280e+001 1.501588e+002 5.000000e+000
    endloop
  endfacet
  facet normal 0.000000e+000 0.000000e+000 9.985989e-001
    outer loop
      vertex   -1.045000e+002 1.500000e+002 5.000000e+000
      vertex   -9.550280e+001 1.501588e+002 5.000000e+000
      vertex   -1.044888e+002 1.503174e+002 5.000000e+000
    endloop
  endfacet
  facet normal -0.000000e+000 0.000000e+000 3.529162e-002
    outer loop
      vertex   -1.044888e+002 1.503174e+002 5.000000e+000
      vertex   -9.550280e+001 1.501588e+002 5.000000e+000
      vertex   -9.552521e+001 1.504756e+002 5.000000e+000
    endloop
  endfacet
  facet normal 0.000000e+000 0.000000e+000 9.923760e-001
    outer loop
      vertex   -1.044888e+002 1.503174e+002 5.000000e+000
      vertex   -9.552521e+001 1.504756e+002 5.000000e+000
      vertex   -1.044552e+002 1.506333e+002 5.000000e+000
    endloop
  endfacet
  facet normal -0.000000e+000 0.000000e+000 3.529044e-002
    outer loop
      vertex   -1.044552e+002 1.506333e+002 5.000000e+000
      vertex   -9.552521e+001 1.504756e+002 5.000000e+000
      vertex   -9.556991e+001 1.507901e+002 5.000000e+000
    endloop
  endfacet
  facet normal 0.000000e+000 0.000000e+000 9.812157e-001
    outer loop
      vertex   -1.044552e+002 1.506333e+002 5.000000e+000
      vertex   -9.556991e+001 1.507901e+002 5.000000e+000
      vertex   -1.043995e+002 1.509460e+002 5.000000e+000
    endloop
  endfacet
  facet normal -0.000000e+000 0.000000e+000 3.529209e-002
    outer loop
      vertex   -1.043995e+002 1.509460e+002 5.000000e+000
      vertex   -9.556991e+001 1.507901e+002 5.000000e+000
      vertex   -9.563667e+001 1.511006e+002 5.000000e+000
    endloop
  endfacet
  facet normal 0.000000e+000 0.000000e+000 9.651582e-001
    outer loop
      vertex   -1.043995e+002 1.509460e+002 5.000000e+000
      vertex   -9.563667e+001 1.511006e+002 5.000000e+000
      vertex   -1.043218e+002 1.512539e+002 5.000000e+000
    endloop
  endfacet
  facet normal -0.000000e+000 0.000000e+000 3.529096e-002
    outer loop
      vertex   -1.043218e+002 1.512539e+002 5.000000e+000
      vertex   -9.563667e+001 1.511006e+002 5.000000e+000
      vertex   -9.572518e+001 1.514057e+002 5.000000e+000
    endloop
  endfacet
  facet normal 0.000000e+000 0.000000e+000 9.443025e-001
    outer loop
      vertex   -1.043218e+002 1.512539e+002 5.000000e+000
      vertex   -9.572518e+001 1.514057e+002 5.000000e+000
      vertex   -1.042225e+002 1.515557e+002 5.000000e+000
    endloop
  endfacet
  facet normal -0.000000e+000 0.000000e+000 3.529266e-002
    outer loop
      vertex   -1.042225e+002 1.515557e+002 5.000000e+000
      vertex   -9.572518e+001 1.514057e+002 5.000000e+000
      vertex   -9.583498e+001 1.517037e+002 5.000000e+000
    endloop
  endfacet
  facet normal 0.000000e+000 0.000000e+000 9.187298e-001
    outer loop
      vertex   -1.042225e+002 1.515557e+002 5.000000e+000
      vertex   -9.583498e+001 1.517037e+002 5.000000e+000
      vertex   -1.041023e+002 1.518496e+002 5.000000e+000
    endloop
  endfacet
  facet normal -0.000000e+000 0.000000e+000 3.529133e-002
    outer loop
      vertex   -1.041023e+002 1.518496e+002 5.000000e+000
      vertex   -9.583498e+001 1.517037e+002 5.000000e+000
      vertex   -9.596554e+001 1.519933e+002 5.000000e+000
    endloop
  endfacet
  facet normal 0.000000e+000 0.000000e+000 8.885829e-001
    outer loop
      vertex   -1.041023e+002 1.518496e+002 5.000000e+000
      vertex   -9.596554e+001 1.519933e+002 5.000000e+000
      vertex   -1.039616e+002 1.521344e+002 5.000000e+000
    endloop
  endfacet
  facet normal -0.000000e+000 0.000000e+000 3.529095e-002
    outer loop
      vertex   -1.039616e+002 1.521344e+002 5.000000e+000
      vertex   -9.596554e+001 1.519933e+002 5.000000e+000
      vertex   -9.611619e+001 1.522729e+002 5.000000e+000
    endloop
  endfacet
  facet normal 0.000000e+000 0.000000e+000 8.540326e-001
    outer loop
      vertex   -1.039616e+002 1.521344e+002 5.000000e+000
      vertex   -9.611619e+001 1.522729e+002 5.000000e+000
      vertex   -1.038012e+002 1.524085e+002 5.000000e+000
    endloop
  endfacet
  facet normal -0.000000e+000 0.000000e+000 3.529107e-002
    outer loop
      vertex   -1.038012e+002 1.524085e+002 5.000000e+000
      vertex   -9.611619e+001 1.522729e+002 5.000000e+000
      vertex   -9.628619e+001 1.525412e+002 5.000000e+000
    endloop
  endfacet
  facet normal 0.000000e+000 0.000000e+000 8.151914e-001
    outer loop
      vertex   -1.038012e+002 1.524085e+002 5.000000e+000
      vertex   -9.628619e+001 1.525412e+002 5.000000e+000
      vertex   -1.036218e+002 1.526707e+002 5.000000e+000
    endloop
  endfacet
  facet normal -0.000000e+000 0.000000e+000 3.529252e-002
    outer loop
      vertex   -1.036218e+002 1.526707e+002 5.000000e+000
      vertex   -9.628619e+001 1.525412e+002 5.000000e+000
      vertex   -9.647469e+001 1.527968e+002 5.000000e+000
    endloop
  endfacet
  facet normal 0.000000e+000 0.000000e+000 7.723163e-001
    outer loop
      vertex   -1.036218e+002 1.526707e+002 5.000000e+000
      vertex   -9.647469e+001 1.527968e+002 5.000000e+000
      vertex   -1.034244e+002 1.529195e+002 5.000000e+000
    endloop
  endfacet
  facet normal -0.000000e+000 0.000000e+000 3.529069e-002
    outer loop
      vertex   -1.034244e+002 1.529195e+002 5.000000e+000
      vertex   -9.647469e+001 1.527968e+002 5.000000e+000
      vertex   -9.668076e+001 1.530385e+002 5.000000e+000
    endloop
  endfacet
  facet normal 0.000000e+000 0.000000e+000 7.255770e-001
    outer loop
      vertex   -1.034244e+002 1.529195e+002 5.000000e+000
      vertex   -9.668076e+001 1.530385e+002 5.000000e+000
      vertex   -1.032099e+002 1.531538e+002 5.000000e+000
    endloop
  endfacet
  facet normal -0.000000e+000 0.000000e+000 3.529079e-002
    outer loop
      vertex   -1.032099e+002 1.531538e+002 5.000000e+000
      vertex   -9.668076e+001 1.530385e+002 5.000000e+000
      vertex   -9.690337e+001 1.532651e+002 5.000000e+000
    endloop
  endfacet
  facet normal 0.000000e+000 0.000000e+000 6.752231e-001
    outer loop
      vertex   -1.032099e+002 1.531538e+002 5.000000e+000
      vertex   -9.690337e+001 1.532651e+002 5.000000e+000
      vertex   -1.029795e+002 1.533723e+002 5.000000e+000
    endloop
  endfacet
  facet normal -0.000000e+000 0.000000e+000 3.529345e-002
    outer loop
      vertex   -1.029795e+002 1.533723e+002 5.000000e+000
      vertex   -9.690337e+001 1.532651e+002 5.000000e+000
      vertex   -9.714140e+001 1.534754e+002 5.000000e+000
    endloop
  endfacet
  facet normal 0.000000e+000 0.000000e+000 6.215053e-001
    outer loop
      vertex   -1.029795e+002 1.533723e+002 5.000000e+000
      vertex   -9.714140e+001 1.534754e+002 5.000000e+000
      vertex   -1.027342e+002 1.535741e+002 5.000000e+000
    endloop
  endfacet
  facet normal -0.000000e+000 0.000000e+000 3.529009e-002
    outer loop
      vertex   -1.027342e+002 1.535741e+002 5.000000e+000
      vertex   -9.714140e+001 1.534754e+002 5.000000e+000
      vertex   -9.739367e+001 1.536684e+002 5.000000e+000
    endloop
  endfacet
  facet normal 0.000000e+000 0.000000e+000 5.647116e-001
    outer loop
      vertex   -1.027342e+002 1.535741e+002 5.000000e+000
      vertex   -9.739367e+001 1.536684e+002 5.000000e+000
      vertex   -1.024753e+002 1.537581e+002 5.000000e+000
    endloop
  endfacet
  facet normal -0.000000e+000 0.000000e+000 3.529210e-002
    outer loop
      vertex   -1.024753e+002 1.537581e+002 5.000000e+000
      vertex   -9.739367e+001 1.536684e+002 5.000000e+000
      vertex   -9.765892e+001 1.538431e+002 5.000000e+000
    endloop
  endfacet
  facet normal 0.000000e+000 0.000000e+000 5.051050e-001
    outer loop
      vertex   -1.024753e+002 1.537581e+002 5.000000e+000
      vertex   -9.765892e+001 1.538431e+002 5.000000e+000
      vertex   -1.022040e+002 1.539233e+002 5.000000e+000
    endloop
  endfacet
  facet normal -0.000000e+000 0.000000e+000 3.529125e-002
    outer loop
      vertex   -1.022040e+002 1.539233e+002 5.000000e+000
      vertex   -9.765892e+001 1.538431e+002 5.000000e+000
      vertex   -9.793584e+001 1.539987e+002 5.000000e+000
    endloop
  endfacet
  facet normal 0.000000e+000 0.000000e+000 4.429441e-001
    outer loop
      vertex   -1.022040e+002 1.539233e+002 5.000000e+000
      vertex   -9.793584e+001 1.539987e+002 5.000000e+000
      vertex   -1.019218e+002 1.540690e+002 5.000000e+000
    endloop
  endfacet
  facet normal -0.000000e+000 0.000000e+000 3.528938e-002
    outer loop
      vertex   -1.019218e+002 1.540690e+002 5.000000e+000
      vertex   -9.793584e+001 1.539987e+002 5.000000e+000
      vertex   -9.822305e+001 1.541343e+002 5.000000e+000
    endloop
  endfacet
  facet normal 0.000000e+000 0.000000e+000 3.785791e-001
    outer loop
      vertex   -1.019218e+002 1.540690e+002 5.000000e+000
      vertex   -9.822305e+001 1.541343e+002 5.000000e+000
      vertex   -1.016299e+002 1.541944e+002 5.000000e+000
    endloop
  endfacet
  facet normal -0.000000e+000 0.000000e+000 3.529311e-002
    outer loop
      vertex   -1.016299e+002 1.541944e+002 5.000000e+000
      vertex   -9.822305e+001 1.541343e+002 5.000000e+000
      vertex   -9.851910e+001 1.542493e+002 5.000000e+000
    endloop
  endfacet
  facet normal 0.000000e+000 0.000000e+000 3.124003e-001
    outer loop
      vertex   -1.016299e+002 1.541944e+002 5.000000e+000
      vertex   -9.851910e+001 1.542493e+002 5.000000e+000
      vertex   -1.013300e+002 1.542990e+002 5.000000e+000
    endloop
  endfacet
  facet normal -0.000000e+000 0.000000e+000 3.528961e-002
    outer loop
      vertex   -1.013300e+002 1.542990e+002 5.000000e+000
      vertex   -9.851910e+001 1.542493e+002 5.000000e+000
      vertex   -9.882253e+001 1.543432e+002 5.000000e+000
    endloop
  endfacet
  facet normal 0.000000e+000 0.000000e+000 2.445605e-001
    outer loop
      vertex   -1.013300e+002 1.542990e+002 5.000000e+000
      vertex   -9.882253e+001 1.543432e+002 5.000000e+000
      vertex   -1.010235e+002 1.543821e+002 5.000000e+000
    endloop
  endfacet
  facet normal -0.000000e+000 0.000000e+000 3.529784e-002
    outer loop
      vertex   -1.010235e+002 1.543821e+002 5.000000e+000
      vertex   -9.882253e+001 1.543432e+002 5.000000e+000
      vertex   -9.913184e+001 1.544155e+002 5.000000e+000
    endloop
  endfacet
  facet normal 0.000000e+000 0.000000e+000 1.755791e-001
    outer loop
      vertex   -1.010235e+002 1.543821e+002 5.000000e+000
      vertex   -9.913184e+001 1.544155e+002 5.000000e+000
      vertex   -1.007118e+002 1.544433e+002 5.000000e+000
    endloop
  endfacet
  facet normal -0.000000e+000 0.000000e+000 3.528611e-002
    outer loop
      vertex   -1.007118e+002 1.544433e+002 5.000000e+000
      vertex   -9.913184e+001 1.544155e+002 5.000000e+000
      vertex   -9.944546e+001 1.544657e+002 5.000000e+000
    endloop
  endfacet
  facet normal 0.000000e+000 0.000000e+000 1.056902e-001
    outer loop
      vertex   -1.007118e+002 1.544433e+002 5.000000e+000
      vertex   -9.944546e+001 1.544657e+002 5.000000e+000
      vertex   -1.003966e+002 1.544825e+002 5.000000e+000
    endloop
  endfacet
  facet normal -0.000000e+000 0.000000e+000 3.530435e-002
    outer loop
      vertex   -1.003966e+002 1.544825e+002 5.000000e+000
      vertex   -9.944546e+001 1.544657e+002 5.000000e+000
      vertex   -9.976184e+001 1.544937e+002 5.000000e+000
    endloop
  endfacet
  facet normal 0.000000e+000 0.000000e+000 3.529035e-002
    outer loop
      vertex   -1.003966e+002 1.544825e+002 5.000000e+000
      vertex   -9.976184e+001 1.544937e+002 5.000000e+000
      vertex   -1.000794e+002 1.544993e+002 5.000000e+000
    endloop
  endfacet
  facet normal 0.000000e+000 0.000000e+000 9.961080e-001
    outer loop
      vertex   -9.550280e+001 1.498412e+002 5.000000e+000
      vertex   -1.044888e+002 1.496826e+002 5.000000e+000
      vertex   -9.552521e+001 1.495244e+002 5.000000e+000
    endloop
  endfacet
  facet normal 0.000000e+000 0.000000e+000 3.529121e-002
    outer loop
      vertex   -9.552521e+001 1.495244e+002 5.000000e+000
      vertex   -1.044888e+002 1.496826e+002 5.000000e+000
      vertex   -1.044552e+002 1.493667e+002 5.000000e+000
    endloop
  endfacet
  facet normal 0.000000e+000 0.000000e+000 9.874088e-001
    outer loop
      vertex   -9.552521e+001 1.495244e+002 5.000000e+000
      vertex   -1.044552e+002 1.493667e+002 5.000000e+000
      vertex   -9.556991e+001 1.492099e+002 5.000000e+000
    endloop
  endfacet
  facet normal 0.000000e+000 0.000000e+000 3.529081e-002
    outer loop
      vertex   -9.556991e+001 1.492099e+002 5.000000e+000
      vertex   -1.044552e+002 1.493667e+002 5.000000e+000
      vertex   -1.043995e+002 1.490540e+002 5.000000e+000
    endloop
  endfacet
  facet normal 0.000000e+000 0.000000e+000 9.737968e-001
    outer loop
      vertex   -9.556991e+001 1.492099e+002 5.000000e+000
      vertex   -1.043995e+002 1.490540e+002 5.000000e+000
      vertex   -9.563667e+001 1.488994e+002 5.000000e+000
    endloop
  endfacet
  facet normal 0.000000e+000 0.000000e+000 3.529227e-002
    outer loop
      vertex   -9.563667e+001 1.488994e+002 5.000000e+000
      vertex   -1.043995e+002 1.490540e+002 5.000000e+000
      vertex   -1.043218e+002 1.487461e+002 5.000000e+000
    endloop
  endfacet
  facet normal 0.000000e+000 0.000000e+000 9.553216e-001
    outer loop
      vertex   -9.563667e+001 1.488994e+002 5.000000e+000
      vertex   -1.043218e+002 1.487461e+002 5.000000e+000
      vertex   -9.572518e+001 1.485943e+002 5.000000e+000
    endloop
  endfacet
  facet normal 0.000000e+000 0.000000e+000 3.529125e-002
    outer loop
      vertex   -9.572518e+001 1.485943e+002 5.000000e+000
      vertex   -1.043218e+002 1.487461e+002 5.000000e+000
      vertex   -1.042225e+002 1.484443e+002 5.000000e+000
    endloop
  endfacet
  facet normal 0.000000e+000 0.000000e+000 9.321016e-001
    outer loop
      vertex   -9.572518e+001 1.485943e+002 5.000000e+000
      vertex   -1.042225e+002 1.484443e+002 5.000000e+000
      vertex   -9.583498e+001 1.482963e+002 5.000000e+000
    endloop
  endfacet
  facet normal 0.000000e+000 0.000000e+000 3.529106e-002
    outer loop
      vertex   -9.583498e+001 1.482963e+002 5.000000e+000
      vertex   -1.042225e+002 1.484443e+002 5.000000e+000
      vertex   -1.041023e+002 1.481504e+002 5.000000e+000
    endloop
  endfacet
  facet normal 0.000000e+000 0.000000e+000 9.042235e-001
    outer loop
      vertex   -9.583498e+001 1.482963e+002 5.000000e+000
      vertex   -1.041023e+002 1.481504e+002 5.000000e+000
      vertex   -9.596554e+001 1.480067e+002 5.000000e+000
    endloop
  endfacet
  facet normal 0.000000e+000 0.000000e+000 3.529087e-002
    outer loop
      vertex   -9.596554e+001 1.480067e+002 5.000000e+000
      vertex   -1.041023e+002 1.481504e+002 5.000000e+000
      vertex   -1.039616e+002 1.478656e+002 5.000000e+000
    endloop
  endfacet
  facet normal 0.000000e+000 0.000000e+000 8.718497e-001
    outer loop
      vertex   -9.596554e+001 1.480067e+002 5.000000e+000
      vertex   -1.039616e+002 1.478656e+002 5.000000e+000
      vertex   -9.611619e+001 1.477271e+002 5.000000e+000
    endloop
  endfacet
  facet normal 0.000000e+000 0.000000e+000 3.529257e-002
    outer loop
      vertex   -9.611619e+001 1.477271e+002 5.000000e+000
      vertex   -1.039616e+002 1.478656e+002 5.000000e+000
      vertex   -1.038012e+002 1.475915e+002 5.000000e+000
    endloop
  endfacet
  facet normal 0.000000e+000 0.000000e+000 8.351195e-001
    outer loop
      vertex   -9.611619e+001 1.477271e+002 5.000000e+000
      vertex   -1.038012e+002 1.475915e+002 5.000000e+000
      vertex   -9.628619e+001 1.474588e+002 5.000000e+000
    endloop
  endfacet
  facet normal 0.000000e+000 0.000000e+000 3.529139e-002
    outer loop
      vertex   -9.628619e+001 1.474588e+002 5.000000e+000
      vertex   -1.038012e+002 1.475915e+002 5.000000e+000
      vertex   -1.036218e+002 1.473293e+002 5.000000e+000
    endloop
  endfacet
  facet normal 0.000000e+000 0.000000e+000 7.942626e-001
    outer loop
      vertex   -9.628619e+001 1.474588e+002 5.000000e+000
      vertex   -1.036218e+002 1.473293e+002 5.000000e+000
      vertex   -9.647469e+001 1.472032e+002 5.000000e+000
    endloop
  endfacet
  facet normal 0.000000e+000 0.000000e+000 3.529125e-002
    outer loop
      vertex   -9.647469e+001 1.472032e+002 5.000000e+000
      vertex   -1.036218e+002 1.473293e+002 5.000000e+000
      vertex   -1.034244e+002 1.470805e+002 5.000000e+000
    endloop
  endfacet
  facet normal 0.000000e+000 0.000000e+000 7.493984e-001
    outer loop
      vertex   -9.647469e+001 1.472032e+002 5.000000e+000
      vertex   -1.034244e+002 1.470805e+002 5.000000e+000
      vertex   -9.668076e+001 1.469615e+002 5.000000e+000
    endloop
  endfacet
  facet normal 0.000000e+000 0.000000e+000 3.529175e-002
    outer loop
      vertex   -9.668076e+001 1.469615e+002 5.000000e+000
      vertex   -1.034244e+002 1.470805e+002 5.000000e+000
      vertex   -1.032099e+002 1.468462e+002 5.000000e+000
    endloop
  endfacet
  facet normal 0.000000e+000 0.000000e+000 7.008325e-001
    outer loop
      vertex   -9.668076e+001 1.469615e+002 5.000000e+000
      vertex   -1.032099e+002 1.468462e+002 5.000000e+000
      vertex   -9.690337e+001 1.467349e+002 5.000000e+000
    endloop
  endfacet
  facet normal 0.000000e+000 0.000000e+000 3.529106e-002
    outer loop
      vertex   -9.690337e+001 1.467349e+002 5.000000e+000
      vertex   -1.032099e+002 1.468462e+002 5.000000e+000
      vertex   -1.029795e+002 1.466277e+002 5.000000e+000
    endloop
  endfacet
  facet normal 0.000000e+000 0.000000e+000 6.487984e-001
    outer loop
      vertex   -9.690337e+001 1.467349e+002 5.000000e+000
      vertex   -1.029795e+002 1.466277e+002 5.000000e+000
      vertex   -9.714140e+001 1.465246e+002 5.000000e+000
    endloop
  endfacet
  facet normal 0.000000e+000 0.000000e+000 3.529110e-002
    outer loop
      vertex   -9.714140e+001 1.465246e+002 5.000000e+000
      vertex   -1.029795e+002 1.466277e+002 5.000000e+000
      vertex   -1.027342e+002 1.464259e+002 5.000000e+000
    endloop
  endfacet
  facet normal 0.000000e+000 0.000000e+000 5.934643e-001
    outer loop
      vertex   -9.714140e+001 1.465246e+002 5.000000e+000
      vertex   -1.027342e+002 1.464259e+002 5.000000e+000
      vertex   -9.739367e+001 1.463316e+002 5.000000e+000
    endloop
  endfacet
  facet normal 0.000000e+000 0.000000e+000 3.529093e-002
    outer loop
      vertex   -9.739367e+001 1.463316e+002 5.000000e+000
      vertex   -1.027342e+002 1.464259e+002 5.000000e+000
      vertex   -1.024753e+002 1.462419e+002 5.000000e+000
    endloop
  endfacet
  facet normal 0.000000e+000 0.000000e+000 5.352452e-001
    outer loop
      vertex   -9.739367e+001 1.463316e+002 5.000000e+000
      vertex   -1.024753e+002 1.462419e+002 5.000000e+000
      vertex   -9.765892e+001 1.461569e+002 5.000000e+000
    endloop
  endfacet
  facet normal 0.000000e+000 0.000000e+000 3.529412e-002
    outer loop
      vertex   -9.765892e+001 1.461569e+002 5.000000e+000
      vertex   -1.024753e+002 1.462419e+002 5.000000e+000
      vertex   -1.022040e+002 1.460767e+002 5.000000e+000
    endloop
  endfacet
  facet normal 0.000000e+000 0.000000e+000 4.743033e-001
    outer loop
      vertex   -9.765892e+001 1.461569e+002 5.000000e+000
      vertex   -1.022040e+002 1.460767e+002 5.000000e+000
      vertex   -9.793584e+001 1.460013e+002 5.000000e+000
    endloop
  endfacet
  facet normal 0.000000e+000 0.000000e+000 3.529074e-002
    outer loop
      vertex   -9.793584e+001 1.460013e+002 5.000000e+000
      vertex   -1.022040e+002 1.460767e+002 5.000000e+000
      vertex   -1.019218e+002 1.459310e+002 5.000000e+000
    endloop
  endfacet
  facet normal 0.000000e+000 0.000000e+000 4.110137e-001
    outer loop
      vertex   -9.793584e+001 1.460013e+002 5.000000e+000
      vertex   -1.019218e+002 1.459310e+002 5.000000e+000
      vertex   -9.822305e+001 1.458657e+002 5.000000e+000
    endloop
  endfacet
  facet normal 0.000000e+000 0.000000e+000 3.528855e-002
    outer loop
      vertex   -9.822305e+001 1.458657e+002 5.000000e+000
      vertex   -1.019218e+002 1.459310e+002 5.000000e+000
      vertex   -1.016299e+002 1.458056e+002 5.000000e+000
    endloop
  endfacet
  facet normal 0.000000e+000 0.000000e+000 3.457222e-001
    outer loop
      vertex   -9.822305e+001 1.458657e+002 5.000000e+000
      vertex   -1.016299e+002 1.458056e+002 5.000000e+000
      vertex   -9.851910e+001 1.457507e+002 5.000000e+000
    endloop
  endfacet
  facet normal 0.000000e+000 0.000000e+000 3.529538e-002
    outer loop
      vertex   -9.851910e+001 1.457507e+002 5.000000e+000
      vertex   -1.016299e+002 1.458056e+002 5.000000e+000
      vertex   -1.013300e+002 1.457010e+002 5.000000e+000
    endloop
  endfacet
  facet normal 0.000000e+000 0.000000e+000 2.786358e-001
    outer loop
      vertex   -9.851910e+001 1.457507e+002 5.000000e+000
      vertex   -1.013300e+002 1.457010e+002 5.000000e+000
      vertex   -9.882253e+001 1.456568e+002 5.000000e+000
    endloop
  endfacet
  facet normal 0.000000e+000 0.000000e+000 3.528762e-002
    outer loop
      vertex   -9.882253e+001 1.456568e+002 5.000000e+000
      vertex   -1.013300e+002 1.457010e+002 5.000000e+000
      vertex   -1.010235e+002 1.456179e+002 5.000000e+000
    endloop
  endfacet
  facet normal 0.000000e+000 0.000000e+000 2.102460e-001
    outer loop
      vertex   -9.882253e+001 1.456568e+002 5.000000e+000
      vertex   -1.010235e+002 1.456179e+002 5.000000e+000
      vertex   -9.913184e+001 1.455845e+002 5.000000e+000
    endloop
  endfacet
  facet normal 0.000000e+000 0.000000e+000 3.529123e-002
    outer loop
      vertex   -9.913184e+001 1.455845e+002 5.000000e+000
      vertex   -1.010235e+002 1.456179e+002 5.000000e+000
      vertex   -1.007118e+002 1.455567e+002 5.000000e+000
    endloop
  endfacet
  facet normal 0.000000e+000 0.000000e+000 1.407072e-001
    outer loop
      vertex   -9.913184e+001 1.455845e+002 5.000000e+000
      vertex   -1.007118e+002 1.455567e+002 5.000000e+000
      vertex   -9.944546e+001 1.455343e+002 5.000000e+000
    endloop
  endfacet
  facet normal 0.000000e+000 0.000000e+000 3.528839e-002
    outer loop
      vertex   -9.944546e+001 1.455343e+002 5.000000e+000
      vertex   -1.007118e+002 1.455567e+002 5.000000e+000
      vertex   -1.003966e+002 1.455175e+002 5.000000e+000
    endloop
  endfacet
  facet normal 0.000000e+000 0.000000e+000 7.056614e-002
    outer loop
      vertex   -9.944546e+001 1.455343e+002 5.000000e+000
      vertex   -1.003966e+002 1.455175e+002 5.000000e+000
      vertex   -9.976184e+001 1.455063e+002 5.000000e+000
    endloop
  endfacet
  facet normal 0.000000e+000 0.000000e+000 3.529112e-002
    outer loop
      vertex   -9.976184e+001 1.455063e+002 5.000000e+000
      vertex   -1.003966e+002 1.455175e+002 5.000000e+000
      vertex   -1.000794e+002 1.455007e+002 5.000000e+000
    endloop
  endfacet
  facet normal 0.000000e+000 -0.000000e+000 -9.998444e-001
    outer loop
      vertex   -1.044888e+002 1.503174e+002 0.000000e+000
      vertex   -9.550280e+001 1.501588e+002 0.000000e+000
      vertex   -1.045000e+002 1.500000e+002 0.000000e+000
    endloop
  endfacet
  facet normal 0.000000e+000 0.000000e+000 -3.529187e-002
    outer loop
      vertex   -1.045000e+002 1.500000e+002 0.000000e+000
      vertex   -9.550280e+001 1.501588e+002 0.000000e+000
      vertex   -9.550280e+001 1.498412e+002 0.000000e+000
    endloop
  endfacet
  facet normal 0.000000e+000 0.000000e+000 -9.985989e-001
    outer loop
      vertex   -1.045000e+002 1.500000e+002 0.000000e+000
      vertex   -9.550280e+001 1.498412e+002 0.000000e+000
      vertex   -1.044888e+002 1.496826e+002 0.000000e+000
    endloop
  endfacet
  facet normal 0.000000e+000 0.000000e+000 -3.529162e-002
    outer loop
      vertex   -1.044888e+002 1.496826e+002 0.000000e+000
      vertex   -9.550280e+001 1.498412e+002 0.000000e+000
      vertex   -9.552521e+001 1.495244e+002 0.000000e+000
    endloop
  endfacet
  facet normal 0.000000e+000 0.000000e+000 -9.923760e-001
    outer loop
      vertex   -1.044888e+002 1.496826e+002 0.000000e+000
      vertex   -9.552521e+001 1.495244e+002 0.000000e+000
      vertex   -1.044552e+002 1.493667e+002 0.000000e+000
    endloop
  endfacet
  facet normal 0.000000e+000 0.000000e+000 -3.529044e-002
    outer loop
      vertex   -1.044552e+002 1.493667e+002 0.000000e+000
      vertex   -9.552521e+001 1.495244e+002 0.000000e+000
      vertex   -9.556991e+001 1.492099e+002 0.000000e+000
    endloop
  endfacet
  facet normal 0.000000e+000 0.000000e+000 -9.812157e-001
    outer loop
      vertex   -1.044552e+002 1.493667e+002 0.000000e+000
      vertex   -9.556991e+001 1.492099e+002 0.000000e+000
      vertex   -1.043995e+002 1.490540e+002 0.000000e+000
    endloop
  endfacet
  facet normal 0.000000e+000 0.000000e+000 -3.529209e-002
    outer loop
      vertex   -1.043995e+002 1.490540e+002 0.000000e+000
      vertex   -9.556991e+001 1.492099e+002 0.000000e+000
      vertex   -9.563667e+001 1.488994e+002 0.000000e+000
    endloop
  endfacet
  facet normal 0.000000e+000 0.000000e+000 -9.651582e-001
    outer loop
      vertex   -1.043995e+002 1.490540e+002 0.000000e+000
      vertex   -9.563667e+001 1.488994e+002 0.000000e+000
      vertex   -1.043218e+002 1.487461e+002 0.000000e+000
    endloop
  endfacet
  facet normal 0.000000e+000 0.000000e+000 -3.529096e-002
    outer loop
      vertex   -1.043218e+002 1.487461e+002 0.000000e+000
      vertex   -9.563667e+001 1.488994e+002 0.000000e+000
      vertex   -9.572518e+001 1.485943e+002 0.000000e+000
    endloop
  endfacet
  facet normal 0.000000e+000 0.000000e+000 -9.443025e-001
    outer loop
      vertex   -1.043218e+002 1.487461e+002 0.000000e+000
      vertex   -9.572518e+001 1.485943e+002 0.000000e+000
      vertex   -1.042225e+002 1.484443e+002 0.000000e+000
    endloop
  endfacet
  facet normal 0.000000e+000 0.000000e+000 -3.529266e-002
    outer loop
      vertex   -1.042225e+002 1.484443e+002 0.000000e+000
      vertex   -9.572518e+001 1.485943e+002 0.000000e+000
      vertex   -9.583498e+001 1.482963e+002 0.000000e+000
    endloop
  endfacet
  facet normal 0.000000e+000 0.000000e+000 -9.187298e-001
    outer loop
      vertex   -1.042225e+002 1.484443e+002 0.000000e+000
      vertex   -9.583498e+001 1.482963e+002 0.000000e+000
      vertex   -1.041023e+002 1.481504e+002 0.000000e+000
    endloop
  endfacet
  facet normal 0.000000e+000 0.000000e+000 -3.529133e-002
    outer loop
      vertex   -1.041023e+002 1.481504e+002 0.000000e+000
      vertex   -9.583498e+001 1.482963e+002 0.000000e+000
      vertex   -9.596554e+001 1.480067e+002 0.000000e+000
    endloop
  endfacet
  facet normal 0.000000e+000 0.000000e+000 -8.885829e-001
    outer loop
      vertex   -1.041023e+002 1.481504e+002 0.000000e+000
      vertex   -9.596554e+001 1.480067e+002 0.000000e+000
      vertex   -1.039616e+002 1.478656e+002 0.000000e+000
    endloop
  endfacet
  facet normal 0.000000e+000 0.000000e+000 -3.529095e-002
    outer loop
      vertex   -1.039616e+002 1.478656e+002 0.000000e+000
      vertex   -9.596554e+001 1.480067e+002 0.000000e+000
      vertex   -9.611619e+001 1.477271e+002 0.000000e+000
    endloop
  endfacet
  facet normal 0.000000e+000 0.000000e+000 -8.540326e-001
    outer loop
      vertex   -1.039616e+002 1.478656e+002 0.000000e+000
      vertex   -9.611619e+001 1.477271e+002 0.000000e+000
      vertex   -1.038012e+002 1.475915e+002 0.000000e+000
    endloop
  endfacet
  facet normal 0.000000e+000 0.000000e+000 -3.529107e-002
    outer loop
      vertex   -1.038012e+002 1.475915e+002 0.000000e+000
      vertex   -9.611619e+001 1.477271e+002 0.000000e+000
      vertex   -9.628619e+001 1.474588e+002 0.000000e+000
    endloop
  endfacet
  facet normal 0.000000e+000 0.000000e+000 -8.151914e-001
    outer loop
      vertex   -1.038012e+002 1.475915e+002 0.000000e+000
      vertex   -9.628619e+001 1.474588e+002 0.000000e+000
      vertex   -1.036218e+002 1.473293e+002 0.000000e+000
    endloop
  endfacet
  facet normal 0.000000e+000 0.000000e+000 -3.529252e-002
    outer loop
      vertex   -1.036218e+002 1.473293e+002 0.000000e+000
      vertex   -9.628619e+001 1.474588e+002 0.000000e+000
      vertex   -9.647469e+001 1.472032e+002 0.000000e+000
    endloop
  endfacet
  facet normal 0.000000e+000 0.000000e+000 -7.723163e-001
    outer loop
      vertex   -1.036218e+002 1.473293e+002 0.000000e+000
      vertex   -9.647469e+001 1.472032e+002 0.000000e+000
      vertex   -1.034244e+002 1.470805e+002 0.000000e+000
    endloop
  endfacet
  facet normal 0.000000e+000 0.000000e+000 -3.529069e-002
    outer loop
      vertex   -1.034244e+002 1.470805e+002 0.000000e+000
      vertex   -9.647469e+001 1.472032e+002 0.000000e+000
      vertex   -9.668076e+001 1.469615e+002 0.000000e+000
    endloop
  endfacet
  facet normal 0.000000e+000 0.000000e+000 -7.255770e-001
    outer loop
      vertex   -1.034244e+002 1.470805e+002 0.000000e+000
      vertex   -9.668076e+001 1.469615e+002 0.000000e+000
      vertex   -1.032099e+002 1.468462e+002 0.000000e+000
    endloop
  endfacet
  facet normal 0.000000e+000 0.000000e+000 -3.529079e-002
    outer loop
      vertex   -1.032099e+002 1.468462e+002 0.000000e+000
      vertex   -9.668076e+001 1.469615e+002 0.000000e+000
      vertex   -9.690337e+001 1.467349e+002 0.000000e+000
    endloop
  endfacet
  facet normal 0.000000e+000 0.000000e+000 -6.752231e-001
    outer loop
      vertex   -1.032099e+002 1.468462e+002 0.000000e+000
      vertex   -9.690337e+001 1.467349e+002 0.000000e+000
      vertex   -1.029795e+002 1.466277e+002 0.000000e+000
    endloop
  endfacet
  facet normal 0.000000e+000 0.000000e+000 -3.529345e-002
    outer loop
      vertex   -1.029795e+002 1.466277e+002 0.000000e+000
      vertex   -9.690337e+001 1.467349e+002 0.000000e+000
      vertex   -9.714140e+001 1.465246e+002 0.000000e+000
    endloop
  endfacet
  facet normal 0.000000e+000 0.000000e+000 -6.215053e-001
    outer loop
      vertex   -1.029795e+002 1.466277e+002 0.000000e+000
      vertex   -9.714140e+001 1.465246e+002 0.000000e+000
      vertex   -1.027342e+002 1.464259e+002 0.000000e+000
    endloop
  endfacet
  facet normal 0.000000e+000 0.000000e+000 -3.529009e-002
    outer loop
      vertex   -1.027342e+002 1.464259e+002 0.000000e+000
      vertex   -9.714140e+001 1.465246e+002 0.000000e+000
      vertex   -9.739367e+001 1.463316e+002 0.000000e+000
    endloop
  endfacet
  facet normal 0.000000e+000 0.000000e+000 -5.647116e-001
    outer loop
      vertex   -1.027342e+002 1.464259e+002 0.000000e+000
      vertex   -9.739367e+001 1.463316e+002 0.000000e+000
      vertex   -1.024753e+002 1.462419e+002 0.000000e+000
    endloop
  endfacet
  facet normal 0.000000e+000 0.000000e+000 -3.529210e-002
    outer loop
      vertex   -1.024753e+002 1.462419e+002 0.000000e+000
      vertex   -9.739367e+001 1.463316e+002 0.000000e+000
      vertex   -9.765892e+001 1.461569e+002 0.000000e+000
    endloop
  endfacet
  facet normal 0.000000e+000 0.000000e+000 -5.051050e-001
    outer loop
      vertex   -1.024753e+002 1.462419e+002 0.000000e+000
      vertex   -9.765892e+001 1.461569e+002 0.000000e+000
      vertex   -1.022040e+002 1.460767e+002 0.000000e+000
    endloop
  endfacet
  facet normal 0.000000e+000 0.000000e+000 -3.529125e-002
    outer loop
      vertex   -1.022040e+002 1.460767e+002 0.000000e+000
      vertex   -9.765892e+001 1.461569e+002 0.000000e+000
      vertex   -9.793584e+001 1.460013e+002 0.000000e+000
    endloop
  endfacet
  facet normal 0.000000e+000 0.000000e+000 -4.429441e-001
    outer loop
      vertex   -1.022040e+002 1.460767e+002 0.000000e+000
      vertex   -9.793584e+001 1.460013e+002 0.000000e+000
      vertex   -1.019218e+002 1.459310e+002 0.000000e+000
    endloop
  endfacet
  facet normal 0.000000e+000 0.000000e+000 -3.528938e-002
    outer loop
      vertex   -1.019218e+002 1.459310e+002 0.000000e+000
      vertex   -9.793584e+001 1.460013e+002 0.000000e+000
      vertex   -9.822305e+001 1.458657e+002 0.000000e+000
    endloop
  endfacet
  facet normal 0.000000e+000 0.000000e+000 -3.785791e-001
    outer loop
      vertex   -1.019218e+002 1.459310e+002 0.000000e+000
      vertex   -9.822305e+001 1.458657e+002 0.000000e+000
      vertex   -1.016299e+002 1.458056e+002 0.000000e+000
    endloop
  endfacet
  facet normal 0.000000e+000 0.000000e+000 -3.529311e-002
    outer loop
      vertex   -1.016299e+002 1.458056e+002 0.000000e+000
      vertex   -9.822305e+001 1.458657e+002 0.000000e+000
      vertex   -9.851910e+001 1.457507e+002 0.000000e+000
    endloop
  endfacet
  facet normal 0.000000e+000 0.000000e+000 -3.124003e-001
    outer loop
      vertex   -1.016299e+002 1.458056e+002 0.000000e+000
      vertex   -9.851910e+001 1.457507e+002 0.000000e+000
      vertex   -1.013300e+002 1.457010e+002 0.000000e+000
    endloop
  endfacet
  facet normal 0.000000e+000 0.000000e+000 -3.528961e-002
    outer loop
      vertex   -1.013300e+002 1.457010e+002 0.000000e+000
      vertex   -9.851910e+001 1.457507e+002 0.000000e+000
      vertex   -9.882253e+001 1.456568e+002 0.000000e+000
    endloop
  endfacet
  facet normal 0.000000e+000 0.000000e+000 -2.445605e-001
    outer loop
      vertex   -1.013300e+002 1.457010e+002 0.000000e+000
      vertex   -9.882253e+001 1.456568e+002 0.000000e+000
      vertex   -1.010235e+002 1.456179e+002 0.000000e+000
    endloop
  endfacet
  facet normal 0.000000e+000 0.000000e+000 -3.529784e-002
    outer loop
      vertex   -1.010235e+002 1.456179e+002 0.000000e+000
      vertex   -9.882253e+001 1.456568e+002 0.000000e+000
      vertex   -9.913184e+001 1.455845e+002 0.000000e+000
    endloop
  endfacet
  facet normal 0.000000e+000 0.000000e+000 -1.755791e-001
    outer loop
      vertex   -1.010235e+002 1.456179e+002 0.000000e+000
      vertex   -9.913184e+001 1.455845e+002 0.000000e+000
      vertex   -1.007118e+002 1.455567e+002 0.000000e+000
    endloop
  endfacet
  facet normal 0.000000e+000 0.000000e+000 -3.528611e-002
    outer loop
      vertex   -1.007118e+002 1.455567e+002 0.000000e+000
      vertex   -9.913184e+001 1.455845e+002 0.000000e+000
      vertex   -9.944546e+001 1.455343e+002 0.000000e+000
    endloop
  endfacet
  facet normal 0.000000e+000 0.000000e+000 -1.056902e-001
    outer loop
      vertex   -1.007118e+002 1.455567e+002 0.000000e+000
      vertex   -9.944546e+001 1.455343e+002 0.000000e+000
      vertex   -1.003966e+002 1.455175e+002 0.000000e+000
    endloop
  endfacet
  facet normal 0.000000e+000 0.000000e+000 -3.530435e-002
    outer loop
      vertex   -1.003966e+002 1.455175e+002 0.000000e+000
      vertex   -9.944546e+001 1.455343e+002 0.000000e+000
      vertex   -9.976184e+001 1.455063e+002 0.000000e+000
    endloop
  endfacet
  facet normal 0.000000e+000 0.000000e+000 -3.529035e-002
    outer loop
      vertex   -1.003966e+002 1.455175e+002 0.000000e+000
      vertex   -9.976184e+001 1.455063e+002 0.000000e+000
      vertex   -1.000794e+002 1.455007e+002 0.000000e+000
    endloop
  endfacet
  facet normal 0.000000e+000 0.000000e+000 -9.961080e-001
    outer loop
      vertex   -9.550280e+001 1.501588e+002 0.000000e+000
      vertex   -1.044888e+002 1.503174e+002 0.000000e+000
      vertex   -9.552521e+001 1.504756e+002 0.000000e+000
    endloop
  endfacet
  facet normal -0.000000e+000 0.000000e+000 -3.529121e-002
    outer loop
      vertex   -9.552521e+001 1.504756e+002 0.000000e+000
      vertex   -1.044888e+002 1.503174e+002 0.000000e+000
      vertex   -1.044552e+002 1.506333e+002 0.000000e+000
    endloop
  endfacet
  facet normal 0.000000e+000 0.000000e+000 -9.874088e-001
    outer loop
      vertex   -9.552521e+001 1.504756e+002 0.000000e+000
      vertex   -1.044552e+002 1.506333e+002 0.000000e+000
      vertex   -9.556991e+001 1.507901e+002 0.000000e+000
    endloop
  endfacet
  facet normal -0.000000e+000 0.000000e+000 -3.529081e-002
    outer loop
      vertex   -9.556991e+001 1.507901e+002 0.000000e+000
      vertex   -1.044552e+002 1.506333e+002 0.000000e+000
      vertex   -1.043995e+002 1.509460e+002 0.000000e+000
    endloop
  endfacet
  facet normal 0.000000e+000 0.000000e+000 -9.737968e-001
    outer loop
      vertex   -9.556991e+001 1.507901e+002 0.000000e+000
      vertex   -1.043995e+002 1.509460e+002 0.000000e+000
      vertex   -9.563667e+001 1.511006e+002 0.000000e+000
    endloop
  endfacet
  facet normal -0.000000e+000 0.000000e+000 -3.529227e-002
    outer loop
      vertex   -9.563667e+001 1.511006e+002 0.000000e+000
      vertex   -1.043995e+002 1.509460e+002 0.000000e+000
      vertex   -1.043218e+002 1.512539e+002 0.000000e+000
    endloop
  endfacet
  facet normal 0.000000e+000 0.000000e+000 -9.553216e-001
    outer loop
      vertex   -9.563667e+001 1.511006e+002 0.000000e+000
      vertex   -1.043218e+002 1.512539e+002 0.000000e+000
      vertex   -9.572518e+001 1.514057e+002 0.000000e+000
    endloop
  endfacet
  facet normal -0.000000e+000 0.000000e+000 -3.529125e-002
    outer loop
      vertex   -9.572518e+001 1.514057e+002 0.000000e+000
      vertex   -1.043218e+002 1.512539e+002 0.000000e+000
      vertex   -1.042225e+002 1.515557e+002 0.000000e+000
    endloop
  endfacet
  facet normal 0.000000e+000 0.000000e+000 -9.321016e-001
    outer loop
      vertex   -9.572518e+001 1.514057e+002 0.000000e+000
      vertex   -1.042225e+002 1.515557e+002 0.000000e+000
      vertex   -9.583498e+001 1.517037e+002 0.000000e+000
    endloop
  endfacet
  facet normal -0.000000e+000 0.000000e+000 -3.529106e-002
    outer loop
      vertex   -9.583498e+001 1.517037e+002 0.000000e+000
      vertex   -1.042225e+002 1.515557e+002 0.000000e+000
      vertex   -1.041023e+002 1.518496e+002 0.000000e+000
    endloop
  endfacet
  facet normal 0.000000e+000 0.000000e+000 -9.042235e-001
    outer loop
      vertex   -9.583498e+001 1.517037e+002 0.000000e+000
      vertex   -1.041023e+002 1.518496e+002 0.000000e+000
      vertex   -9.596554e+001 1.519933e+002 0.000000e+000
    endloop
  endfacet
  facet normal -0.000000e+000 0.000000e+000 -3.529087e-002
    outer loop
      vertex   -9.596554e+001 1.519933e+002 0.000000e+000
      vertex   -1.041023e+002 1.518496e+002 0.000000e+000
      vertex   -1.039616e+002 1.521344e+002 0.000000e+000
    endloop
  endfacet
  facet normal 0.000000e+000 0.000000e+000 -8.718497e-001
    outer loop
      vertex   -9.596554e+001 1.519933e+002 0.000000e+000
      vertex   -1.039616e+002 1.521344e+002 0.000000e+000
      vertex   -9.611619e+001 1.522729e+002 0.000000e+000
    endloop
  endfacet
  facet normal -0.000000e+000 0.000000e+000 -3.529257e-002
    outer loop
      vertex   -9.611619e+001 1.522729e+002 0.000000e+000
      vertex   -1.039616e+002 1.521344e+002 0.000000e+000
      vertex   -1.038012e+002 1.524085e+002 0.000000e+000
    endloop
  endfacet
  facet normal 0.000000e+000 0.000000e+000 -8.351195e-001
    outer loop
      vertex   -9.611619e+001 1.522729e+002 0.000000e+000
      vertex   -1.038012e+002 1.524085e+002 0.000000e+000
      vertex   -9.628619e+001 1.525412e+002 0.000000e+000
    endloop
  endfacet
  facet normal -0.000000e+000 0.000000e+000 -3.529139e-002
    outer loop
      vertex   -9.628619e+001 1.525412e+002 0.000000e+000
      vertex   -1.038012e+002 1.524085e+002 0.000000e+000
      vertex   -1.036218e+002 1.526707e+002 0.000000e+000
    endloop
  endfacet
  facet normal 0.000000e+000 0.000000e+000 -7.942626e-001
    outer loop
      vertex   -9.628619e+001 1.525412e+002 0.000000e+000
      vertex   -1.036218e+002 1.526707e+002 0.000000e+000
      vertex   -9.647469e+001 1.527968e+002 0.000000e+000
    endloop
  endfacet
  facet normal -0.000000e+000 0.000000e+000 -3.529125e-002
    outer loop
      vertex   -9.647469e+001 1.527968e+002 0.000000e+000
      vertex   -1.036218e+002 1.526707e+002 0.000000e+000
      vertex   -1.034244e+002 1.529195e+002 0.000000e+000
    endloop
  endfacet
  facet normal 0.000000e+000 0.000000e+000 -7.493984e-001
    outer loop
      vertex   -9.647469e+001 1.527968e+002 0.000000e+000
      vertex   -1.034244e+002 1.529195e+002 0.000000e+000
      vertex   -9.668076e+001 1.530385e+002 0.000000e+000
    endloop
  endfacet
  facet normal -0.000000e+000 0.000000e+000 -3.529175e-002
    outer loop
      vertex   -9.668076e+001 1.530385e+002 0.000000e+000
      vertex   -1.034244e+002 1.529195e+002 0.000000e+000
      vertex   -1.032099e+002 1.531538e+002 0.000000e+000
    endloop
  endfacet
  facet normal 0.000000e+000 0.000000e+000 -7.008325e-001
    outer loop
      vertex   -9.668076e+001 1.530385e+002 0.000000e+000
      vertex   -1.032099e+002 1.531538e+002 0.000000e+000
      vertex   -9.690337e+001 1.532651e+002 0.000000e+000
    endloop
  endfacet
  facet normal -0.000000e+000 0.000000e+000 -3.529106e-002
    outer loop
      vertex   -9.690337e+001 1.532651e+002 0.000000e+000
      vertex   -1.032099e+002 1.531538e+002 0.000000e+000
      vertex   -1.029795e+002 1.533723e+002 0.000000e+000
    endloop
  endfacet
  facet normal 0.000000e+000 0.000000e+000 -6.487984e-001
    outer loop
      vertex   -9.690337e+001 1.532651e+002 0.000000e+000
      vertex   -1.029795e+002 1.533723e+002 0.000000e+000
      vertex   -9.714140e+001 1.534754e+002 0.000000e+000
    endloop
  endfacet
  facet normal -0.000000e+000 0.000000e+000 -3.529110e-002
    outer loop
      vertex   -9.714140e+001 1.534754e+002 0.000000e+000
      vertex   -1.029795e+002 1.533723e+002 0.000000e+000
      vertex   -1.027342e+002 1.535741e+002 0.000000e+000
    endloop
  endfacet
  facet normal 0.000000e+000 0.000000e+000 -5.934643e-001
    outer loop
      vertex   -9.714140e+001 1.534754e+002 0.000000e+000
      vertex   -1.027342e+002 1.535741e+002 0.000000e+000
      vertex   -9.739367e+001 1.536684e+002 0.000000e+000
    endloop
  endfacet
  facet normal -0.000000e+000 0.000000e+000 -3.529093e-002
    outer loop
      vertex   -9.739367e+001 1.536684e+002 0.000000e+000
      vertex   -1.027342e+002 1.535741e+002 0.000000e+000
      vertex   -1.024753e+002 1.537581e+002 0.000000e+000
    endloop
  endfacet
  facet normal 0.000000e+000 0.000000e+000 -5.352452e-001
    outer loop
      vertex   -9.739367e+001 1.536684e+002 0.000000e+000
      vertex   -1.024753e+002 1.537581e+002 0.000000e+000
      vertex   -9.765892e+001 1.538431e+002 0.000000e+000
    endloop
  endfacet
  facet normal -0.000000e+000 0.000000e+000 -3.529412e-002
    outer loop
      vertex   -9.765892e+001 1.538431e+002 0.000000e+000
      vertex   -1.024753e+002 1.537581e+002 0.000000e+000
      vertex   -1.022040e+002 1.539233e+002 0.000000e+000
    endloop
  endfacet
  facet normal 0.000000e+000 0.000000e+000 -4.743033e-001
    outer loop
      vertex   -9.765892e+001 1.538431e+002 0.000000e+000
      vertex   -1.022040e+002 1.539233e+002 0.000000e+000
      vertex   -9.793584e+001 1.539987e+002 0.000000e+000
    endloop
  endfacet
  facet normal -0.000000e+000 0.000000e+000 -3.529074e-002
    outer loop
      vertex   -9.793584e+001 1.539987e+002 0.000000e+000
      vertex   -1.022040e+002 1.539233e+002 0.000000e+000
      vertex   -1.019218e+002 1.540690e+002 0.000000e+000
    endloop
  endfacet
  facet normal 0.000000e+000 0.000000e+000 -4.110137e-001
    outer loop
      vertex   -9.793584e+001 1.539987e+002 0.000000e+000
      vertex   -1.019218e+002 1.540690e+002 0.000000e+000
      vertex   -9.822305e+001 1.541343e+002 0.000000e+000
    endloop
  endfacet
  facet normal -0.000000e+000 0.000000e+000 -3.528855e-002
    outer loop
      vertex   -9.822305e+001 1.541343e+002 0.000000e+000
      vertex   -1.019218e+002 1.540690e+002 0.000000e+000
      vertex   -1.016299e+002 1.541944e+002 0.000000e+000
    endloop
  endfacet
  facet normal 0.000000e+000 0.000000e+000 -3.457222e-001
    outer loop
      vertex   -9.822305e+001 1.541343e+002 0.000000e+000
      vertex   -1.016299e+002 1.541944e+002 0.000000e+000
      vertex   -9.851910e+001 1.542493e+002 0.000000e+000
    endloop
  endfacet
  facet normal -0.000000e+000 0.000000e+000 -3.529538e-002
    outer loop
      vertex   -9.851910e+001 1.542493e+002 0.000000e+000
      vertex   -1.016299e+002 1.541944e+002 0.000000e+000
      vertex   -1.013300e+002 1.542990e+002 0.000000e+000
    endloop
  endfacet
  facet normal 0.000000e+000 0.000000e+000 -2.786358e-001
    outer loop
      vertex   -9.851910e+001 1.542493e+002 0.000000e+000
      vertex   -1.013300e+002 1.542990e+002 0.000000e+000
      vertex   -9.882253e+001 1.543432e+002 0.000000e+000
    endloop
  endfacet
  facet normal -0.000000e+000 0.000000e+000 -3.528762e-002
    outer loop
      vertex   -9.882253e+001 1.543432e+002 0.000000e+000
      vertex   -1.013300e+002 1.542990e+002 0.000000e+000
      vertex   -1.010235e+002 1.543821e+002 0.000000e+000
    endloop
  endfacet
  facet normal 0.000000e+000 0.000000e+000 -2.102460e-001
    outer loop
      vertex   -9.882253e+001 1.543432e+002 0.000000e+000
      vertex   -1.010235e+002 1.543821e+002 0.000000e+000
      vertex   -9.913184e+001 1.544155e+002 0.000000e+000
    endloop
  endfacet
  facet normal -0.000000e+000 0.000000e+000 -3.529123e-002
    outer loop
      vertex   -9.913184e+001 1.544155e+002 0.000000e+000
      vertex   -1.010235e+002 1.543821e+002 0.000000e+000
      vertex   -1.007118e+002 1.544433e+002 0.000000e+000
    endloop
  endfacet
  facet normal 0.000000e+000 0.000000e+000 -1.407072e-001
    outer loop
      vertex   -9.913184e+001 1.544155e+002 0.000000e+000
      vertex   -1.007118e+002 1.544433e+002 0.000000e+000
      vertex   -9.944546e+001 1.544657e+002 0.000000e+000
    endloop
  endfacet
  facet normal -0.000000e+000 0.000000e+000 -3.528839e-002
    outer loop
      vertex   -9.944546e+001 1.544657e+002 0.000000e+000
      vertex   -1.007118e+002 1.544433e+002 0.000000e+000
      vertex   -1.003966e+002 1.544825e+002 0.000000e+000
    endloop
  endfacet
  facet normal 0.000000e+000 0.000000e+000 -7.056614e-002
    outer loop
      vertex   -9.944546e+001 1.544657e+002 0.000000e+000
      vertex   -1.003966e+002 1.544825e+002 0.000000e+000
      vertex   -9.976184e+001 1.544937e+002 0.000000e+000
    endloop
  endfacet
  facet normal -0.000000e+000 0.000000e+000 -3.529112e-002
    outer loop
      vertex   -9.976184e+001 1.544937e+002 0.000000e+000
      vertex   -1.003966e+002 1.544825e+002 0.000000e+000
      vertex   -1.000794e+002 1.544993e+002 0.000000e+000
    endloop
  endfacet
endsolid
