solid ascii
  facet normal -9.993773e-001 3.528585e-002 0.000000e+000
    outer loop
      vertex   -5.448879e+001 2.531742e+001 5.000000e+000
      vertex   -5.448879e+001 2.531742e+001 0.000000e+000
      vertex   -5.450000e+001 2.500000e+001 5.000000e+000
    endloop
  endfacet
  facet normal -6.335725e-002 2.237007e-003 0.000000e+000
    outer loop
      vertex   -5.450000e+001 2.500000e+001 5.000000e+000
      vertex   -5.448879e+001 2.531742e+001 0.000000e+000
      vertex   -5.450000e+001 2.500000e+001 0.000000e+000
    endloop
  endfacet
  facet normal -9.993773e-001 -3.528585e-002 -0.000000e+000
    outer loop
      vertex   -5.450000e+001 2.500000e+001 5.000000e+000
      vertex   -5.450000e+001 2.500000e+001 0.000000e+000
      vertex   -5.448879e+001 2.468258e+001 5.000000e+000
    endloop
  endfacet
  facet normal -6.335725e-002 -2.237007e-003 -0.000000e+000
    outer loop
      vertex   -5.448879e+001 2.468258e+001 5.000000e+000
      vertex   -5.450000e+001 2.500000e+001 0.000000e+000
      vertex   -5.448879e+001 2.468258e+001 0.000000e+000
    endloop
  endfacet
  facet normal -9.943979e-001 -1.057013e-001 -0.000000e+000
    outer loop
      vertex   -5.448879e+001 2.468258e+001 5.000000e+000
      vertex   -5.448879e+001 2.468258e+001 0.000000e+000
      vertex   -5.445522e+001 2.436673e+001 5.000000e+000
    endloop
  endfacet
  facet normal -6.304165e-002 -6.701123e-003 -0.000000e+000
    outer loop
      vertex   -5.445522e+001 2.436673e+001 5.000000e+000
      vertex   -5.448879e+001 2.468258e+001 0.000000e+000
      vertex   -5.445522e+001 2.436673e+001 0.000000e+000
    endloop
  endfacet
  facet normal -9.844660e-001 -1.755753e-001 -0.000000e+000
    outer loop
      vertex   -5.445522e+001 2.436673e+001 5.000000e+000
      vertex   -5.445522e+001 2.436673e+001 0.000000e+000
      vertex   -5.439945e+001 2.405404e+001 5.000000e+000
    endloop
  endfacet
  facet normal -6.241234e-002 -1.113098e-002 -0.000000e+000
    outer loop
      vertex   -5.439945e+001 2.405404e+001 5.000000e+000
      vertex   -5.445522e+001 2.436673e+001 0.000000e+000
      vertex   -5.439945e+001 2.405404e+001 0.000000e+000
    endloop
  endfacet
  facet normal -9.696274e-001 -2.445867e-001 -0.000000e+000
    outer loop
      vertex   -5.439945e+001 2.405404e+001 5.000000e+000
      vertex   -5.439945e+001 2.405404e+001 0.000000e+000
      vertex   -5.432177e+001 2.374607e+001 5.000000e+000
    endloop
  endfacet
  facet normal -6.147125e-002 -1.550601e-002 -0.000000e+000
    outer loop
      vertex   -5.432177e+001 2.374607e+001 5.000000e+000
      vertex   -5.439945e+001 2.405404e+001 0.000000e+000
      vertex   -5.432177e+001 2.374607e+001 0.000000e+000
    endloop
  endfacet
  facet normal -9.499599e-001 -3.123717e-001 -0.000000e+000
    outer loop
      vertex   -5.432177e+001 2.374607e+001 5.000000e+000
      vertex   -5.432177e+001 2.374607e+001 0.000000e+000
      vertex   -5.422255e+001 2.344434e+001 5.000000e+000
    endloop
  endfacet
  facet normal -6.022445e-002 -1.980338e-002 -0.000000e+000
    outer loop
      vertex   -5.422255e+001 2.344434e+001 5.000000e+000
      vertex   -5.432177e+001 2.374607e+001 0.000000e+000
      vertex   -5.422255e+001 2.344434e+001 0.000000e+000
    endloop
  endfacet
  facet normal -9.255579e-001 -3.786062e-001 -0.000000e+000
    outer loop
      vertex   -5.422255e+001 2.344434e+001 5.000000e+000
      vertex   -5.422255e+001 2.344434e+001 0.000000e+000
      vertex   -5.410229e+001 2.315036e+001 5.000000e+000
    endloop
  endfacet
  facet normal -5.867765e-002 -2.400252e-002 -0.000000e+000
    outer loop
      vertex   -5.410229e+001 2.315036e+001 5.000000e+000
      vertex   -5.422255e+001 2.344434e+001 0.000000e+000
      vertex   -5.410229e+001 2.315036e+001 0.000000e+000
    endloop
  endfacet
  facet normal -8.965477e-001 -4.429473e-001 -0.000000e+000
    outer loop
      vertex   -5.410229e+001 2.315036e+001 5.000000e+000
      vertex   -5.410229e+001 2.315036e+001 0.000000e+000
      vertex   -5.396161e+001 2.286559e+001 5.000000e+000
    endloop
  endfacet
  facet normal -5.683810e-002 -2.808137e-002 -0.000000e+000
    outer loop
      vertex   -5.396161e+001 2.286559e+001 5.000000e+000
      vertex   -5.410229e+001 2.315036e+001 0.000000e+000
      vertex   -5.396161e+001 2.286559e+001 0.000000e+000
    endloop
  endfacet
  facet normal -8.630682e-001 -5.050874e-001 -0.000000e+000
    outer loop
      vertex   -5.396161e+001 2.286559e+001 5.000000e+000
      vertex   -5.396161e+001 2.286559e+001 0.000000e+000
      vertex   -5.380118e+001 2.259146e+001 5.000000e+000
    endloop
  endfacet
  facet normal -5.471569e-002 -3.202087e-002 -0.000000e+000
    outer loop
      vertex   -5.380118e+001 2.259146e+001 5.000000e+000
      vertex   -5.396161e+001 2.286559e+001 0.000000e+000
      vertex   -5.380118e+001 2.259146e+001 0.000000e+000
    endloop
  endfacet
  facet normal -8.252879e-001 -5.647121e-001 -0.000000e+000
    outer loop
      vertex   -5.380118e+001 2.259146e+001 5.000000e+000
      vertex   -5.380118e+001 2.259146e+001 0.000000e+000
      vertex   -5.362181e+001 2.232933e+001 5.000000e+000
    endloop
  endfacet
  facet normal -5.232107e-002 -3.580125e-002 -0.000000e+000
    outer loop
      vertex   -5.362181e+001 2.232933e+001 5.000000e+000
      vertex   -5.380118e+001 2.259146e+001 0.000000e+000
      vertex   -5.362181e+001 2.232933e+001 0.000000e+000
    endloop
  endfacet
  facet normal -7.834015e-001 -6.215160e-001 -0.000000e+000
    outer loop
      vertex   -5.362181e+001 2.232933e+001 5.000000e+000
      vertex   -5.362181e+001 2.232933e+001 0.000000e+000
      vertex   -5.342440e+001 2.208051e+001 5.000000e+000
    endloop
  endfacet
  facet normal -4.966491e-002 -3.940193e-002 -0.000000e+000
    outer loop
      vertex   -5.342440e+001 2.208051e+001 5.000000e+000
      vertex   -5.362181e+001 2.232933e+001 0.000000e+000
      vertex   -5.342440e+001 2.208051e+001 0.000000e+000
    endloop
  endfacet
  facet normal -7.376119e-001 -6.752250e-001 -0.000000e+000
    outer loop
      vertex   -5.342440e+001 2.208051e+001 5.000000e+000
      vertex   -5.342440e+001 2.208051e+001 0.000000e+000
      vertex   -5.320994e+001 2.184622e+001 5.000000e+000
    endloop
  endfacet
  facet normal -4.676205e-002 -4.280693e-002 -0.000000e+000
    outer loop
      vertex   -5.320994e+001 2.184622e+001 5.000000e+000
      vertex   -5.342440e+001 2.208051e+001 0.000000e+000
      vertex   -5.320994e+001 2.184622e+001 0.000000e+000
    endloop
  endfacet
  facet normal -6.881413e-001 -7.255767e-001 -0.000000e+000
    outer loop
      vertex   -5.320994e+001 2.184622e+001 5.000000e+000
      vertex   -5.320994e+001 2.184622e+001 0.000000e+000
      vertex   -5.297948e+001 2.162765e+001 5.000000e+000
    endloop
  endfacet
  facet normal -4.362620e-002 -4.599950e-002 -0.000000e+000
    outer loop
      vertex   -5.297948e+001 2.162765e+001 5.000000e+000
      vertex   -5.320994e+001 2.184622e+001 0.000000e+000
      vertex   -5.297948e+001 2.162765e+001 0.000000e+000
    endloop
  endfacet
  facet normal -6.352451e-001 -7.723106e-001 -0.000000e+000
    outer loop
      vertex   -5.297948e+001 2.162765e+001 5.000000e+000
      vertex   -5.297948e+001 2.162765e+001 0.000000e+000
      vertex   -5.273417e+001 2.142588e+001 5.000000e+000
    endloop
  endfacet
  facet normal -4.027260e-002 -4.896213e-002 -0.000000e+000
    outer loop
      vertex   -5.273417e+001 2.142588e+001 5.000000e+000
      vertex   -5.297948e+001 2.162765e+001 0.000000e+000
      vertex   -5.273417e+001 2.142588e+001 0.000000e+000
    endloop
  endfacet
  facet normal -5.791817e-001 -8.151985e-001 -0.000000e+000
    outer loop
      vertex   -5.273417e+001 2.142588e+001 5.000000e+000
      vertex   -5.273417e+001 2.142588e+001 0.000000e+000
      vertex   -5.247525e+001 2.124192e+001 5.000000e+000
    endloop
  endfacet
  facet normal -3.671836e-002 -5.168111e-002 -0.000000e+000
    outer loop
      vertex   -5.247525e+001 2.124192e+001 5.000000e+000
      vertex   -5.273417e+001 2.142588e+001 0.000000e+000
      vertex   -5.247525e+001 2.124192e+001 0.000000e+000
    endloop
  endfacet
  facet normal -5.202437e-001 -8.540179e-001 -0.000000e+000
    outer loop
      vertex   -5.247525e+001 2.124192e+001 5.000000e+000
      vertex   -5.247525e+001 2.124192e+001 0.000000e+000
      vertex   -5.220399e+001 2.107668e+001 5.000000e+000
    endloop
  endfacet
  facet normal -3.298177e-002 -5.414197e-002 -0.000000e+000
    outer loop
      vertex   -5.220399e+001 2.107668e+001 5.000000e+000
      vertex   -5.247525e+001 2.124192e+001 0.000000e+000
      vertex   -5.220399e+001 2.107668e+001 0.000000e+000
    endloop
  endfacet
  facet normal -4.586966e-001 -8.885930e-001 -0.000000e+000
    outer loop
      vertex   -5.220399e+001 2.107668e+001 5.000000e+000
      vertex   -5.220399e+001 2.107668e+001 0.000000e+000
      vertex   -5.192175e+001 2.093099e+001 5.000000e+000
    endloop
  endfacet
  facet normal -2.907995e-002 -5.633405e-002 -0.000000e+000
    outer loop
      vertex   -5.192175e+001 2.093099e+001 5.000000e+000
      vertex   -5.220399e+001 2.107668e+001 0.000000e+000
      vertex   -5.192175e+001 2.093099e+001 0.000000e+000
    endloop
  endfacet
  facet normal -3.948830e-001 -9.187314e-001 -0.000000e+000
    outer loop
      vertex   -5.192175e+001 2.093099e+001 5.000000e+000
      vertex   -5.192175e+001 2.093099e+001 0.000000e+000
      vertex   -5.162994e+001 2.080556e+001 5.000000e+000
    endloop
  endfacet
  facet normal -2.503423e-002 -5.824442e-002 -0.000000e+000
    outer loop
      vertex   -5.162994e+001 2.080556e+001 5.000000e+000
      vertex   -5.192175e+001 2.093099e+001 0.000000e+000
      vertex   -5.162994e+001 2.080556e+001 0.000000e+000
    endloop
  endfacet
  facet normal -3.290903e-001 -9.442984e-001 -0.000000e+000
    outer loop
      vertex   -5.162994e+001 2.080556e+001 5.000000e+000
      vertex   -5.162994e+001 2.080556e+001 0.000000e+000
      vertex   -5.133001e+001 2.070104e+001 5.000000e+000
    endloop
  endfacet
  facet normal -2.086325e-002 -5.986544e-002 -0.000000e+000
    outer loop
      vertex   -5.133001e+001 2.070104e+001 5.000000e+000
      vertex   -5.162994e+001 2.080556e+001 0.000000e+000
      vertex   -5.133001e+001 2.070104e+001 0.000000e+000
    endloop
  endfacet
  facet normal -2.616563e-001 -9.651611e-001 -0.000000e+000
    outer loop
      vertex   -5.133001e+001 2.070104e+001 5.000000e+000
      vertex   -5.133001e+001 2.070104e+001 0.000000e+000
      vertex   -5.102345e+001 2.061793e+001 5.000000e+000
    endloop
  endfacet
  facet normal -1.658834e-002 -6.118876e-002 -0.000000e+000
    outer loop
      vertex   -5.102345e+001 2.061793e+001 5.000000e+000
      vertex   -5.133001e+001 2.070104e+001 0.000000e+000
      vertex   -5.102345e+001 2.061793e+001 0.000000e+000
    endloop
  endfacet
  facet normal -1.929266e-001 -9.812132e-001 -0.000000e+000
    outer loop
      vertex   -5.102345e+001 2.061793e+001 5.000000e+000
      vertex   -5.102345e+001 2.061793e+001 0.000000e+000
      vertex   -5.071180e+001 2.055665e+001 5.000000e+000
    endloop
  endfacet
  facet normal -1.223083e-002 -6.220524e-002 -0.000000e+000
    outer loop
      vertex   -5.071180e+001 2.055665e+001 5.000000e+000
      vertex   -5.102345e+001 2.061793e+001 0.000000e+000
      vertex   -5.071180e+001 2.055665e+001 0.000000e+000
    endloop
  endfacet
  facet normal -1.232291e-001 -9.923782e-001 -0.000000e+000
    outer loop
      vertex   -5.071180e+001 2.055665e+001 5.000000e+000
      vertex   -5.071180e+001 2.055665e+001 0.000000e+000
      vertex   -5.039660e+001 2.051751e+001 5.000000e+000
    endloop
  endfacet
  facet normal -7.812393e-003 -6.291411e-002 -0.000000e+000
    outer loop
      vertex   -5.039660e+001 2.051751e+001 5.000000e+000
      vertex   -5.071180e+001 2.055665e+001 0.000000e+000
      vertex   -5.039660e+001 2.051751e+001 0.000000e+000
    endloop
  endfacet
  facet normal -5.292886e-002 -9.985983e-001 -0.000000e+000
    outer loop
      vertex   -5.039660e+001 2.051751e+001 5.000000e+000
      vertex   -5.039660e+001 2.051751e+001 0.000000e+000
      vertex   -5.007942e+001 2.050070e+001 5.000000e+000
    endloop
  endfacet
  facet normal -3.355511e-003 -6.330775e-002 -0.000000e+000
    outer loop
      vertex   -5.007942e+001 2.050070e+001 5.000000e+000
      vertex   -5.039660e+001 2.051751e+001 0.000000e+000
      vertex   -5.007942e+001 2.050070e+001 0.000000e+000
    endloop
  endfacet
  facet normal 1.764890e-002 -9.998443e-001 0.000000e+000
    outer loop
      vertex   -5.007942e+001 2.050070e+001 5.000000e+000
      vertex   -5.007942e+001 2.050070e+001 0.000000e+000
      vertex   -4.976184e+001 2.050631e+001 5.000000e+000
    endloop
  endfacet
  facet normal 1.118884e-003 -6.338694e-002 0.000000e+000
    outer loop
      vertex   -4.976184e+001 2.050631e+001 5.000000e+000
      vertex   -5.007942e+001 2.050070e+001 0.000000e+000
      vertex   -4.976184e+001 2.050631e+001 0.000000e+000
    endloop
  endfacet
  facet normal 8.813636e-002 -9.961084e-001 0.000000e+000
    outer loop
      vertex   -4.976184e+001 2.050631e+001 5.000000e+000
      vertex   -4.976184e+001 2.050631e+001 0.000000e+000
      vertex   -4.944546e+001 2.053430e+001 5.000000e+000
    endloop
  endfacet
  facet normal 5.587569e-003 -6.315015e-002 0.000000e+000
    outer loop
      vertex   -4.944546e+001 2.053430e+001 5.000000e+000
      vertex   -4.976184e+001 2.050631e+001 0.000000e+000
      vertex   -4.944546e+001 2.053430e+001 0.000000e+000
    endloop
  endfacet
  facet normal 1.581732e-001 -9.874114e-001 0.000000e+000
    outer loop
      vertex   -4.944546e+001 2.053430e+001 5.000000e+000
      vertex   -4.944546e+001 2.053430e+001 0.000000e+000
      vertex   -4.913183e+001 2.058454e+001 5.000000e+000
    endloop
  endfacet
  facet normal 1.002770e-002 -6.259889e-002 0.000000e+000
    outer loop
      vertex   -4.913183e+001 2.058454e+001 5.000000e+000
      vertex   -4.944546e+001 2.053430e+001 0.000000e+000
      vertex   -4.913183e+001 2.058454e+001 0.000000e+000
    endloop
  endfacet
  facet normal 2.274358e-001 -9.737931e-001 0.000000e+000
    outer loop
      vertex   -4.913183e+001 2.058454e+001 5.000000e+000
      vertex   -4.913183e+001 2.058454e+001 0.000000e+000
      vertex   -4.882253e+001 2.065678e+001 5.000000e+000
    endloop
  endfacet
  facet normal 1.441872e-002 -6.173545e-002 0.000000e+000
    outer loop
      vertex   -4.882253e+001 2.065678e+001 5.000000e+000
      vertex   -4.913183e+001 2.058454e+001 0.000000e+000
      vertex   -4.882253e+001 2.065678e+001 0.000000e+000
    endloop
  endfacet
  facet normal 2.955582e-001 -9.553247e-001 0.000000e+000
    outer loop
      vertex   -4.882253e+001 2.065678e+001 5.000000e+000
      vertex   -4.882253e+001 2.065678e+001 0.000000e+000
      vertex   -4.851910e+001 2.075065e+001 5.000000e+000
    endloop
  endfacet
  facet normal 1.873741e-002 -6.056442e-002 0.000000e+000
    outer loop
      vertex   -4.851910e+001 2.075065e+001 5.000000e+000
      vertex   -4.882253e+001 2.065678e+001 0.000000e+000
      vertex   -4.851910e+001 2.075065e+001 0.000000e+000
    endloop
  endfacet
  facet normal 3.622139e-001 -9.320951e-001 0.000000e+000
    outer loop
      vertex   -4.851910e+001 2.075065e+001 5.000000e+000
      vertex   -4.851910e+001 2.075065e+001 0.000000e+000
      vertex   -4.822305e+001 2.086570e+001 5.000000e+000
    endloop
  endfacet
  facet normal 2.296321e-002 -5.909186e-002 0.000000e+000
    outer loop
      vertex   -4.822305e+001 2.086570e+001 5.000000e+000
      vertex   -4.851910e+001 2.075065e+001 0.000000e+000
      vertex   -4.822305e+001 2.086570e+001 0.000000e+000
    endloop
  endfacet
  facet normal 4.270540e-001 -9.042261e-001 0.000000e+000
    outer loop
      vertex   -4.822305e+001 2.086570e+001 5.000000e+000
      vertex   -4.822305e+001 2.086570e+001 0.000000e+000
      vertex   -4.793584e+001 2.100134e+001 5.000000e+000
    endloop
  endfacet
  facet normal 2.707403e-002 -5.732540e-002 0.000000e+000
    outer loop
      vertex   -4.793584e+001 2.100134e+001 5.000000e+000
      vertex   -4.822305e+001 2.086570e+001 0.000000e+000
      vertex   -4.793584e+001 2.100134e+001 0.000000e+000
    endloop
  endfacet
  facet normal 4.897776e-001 -8.718474e-001 0.000000e+000
    outer loop
      vertex   -4.793584e+001 2.100134e+001 5.000000e+000
      vertex   -4.793584e+001 2.100134e+001 0.000000e+000
      vertex   -4.765892e+001 2.115691e+001 5.000000e+000
    endloop
  endfacet
  facet normal 3.105009e-002 -5.527189e-002 0.000000e+000
    outer loop
      vertex   -4.765892e+001 2.115691e+001 5.000000e+000
      vertex   -4.793584e+001 2.100134e+001 0.000000e+000
      vertex   -4.765892e+001 2.115691e+001 0.000000e+000
    endloop
  endfacet
  facet normal 5.500492e-001 -8.351322e-001 0.000000e+000
    outer loop
      vertex   -4.765892e+001 2.115691e+001 5.000000e+000
      vertex   -4.765892e+001 2.115691e+001 0.000000e+000
      vertex   -4.739367e+001 2.133162e+001 5.000000e+000
    endloop
  endfacet
  facet normal 3.487157e-002 -5.294504e-002 0.000000e+000
    outer loop
      vertex   -4.739367e+001 2.133162e+001 5.000000e+000
      vertex   -4.765892e+001 2.115691e+001 0.000000e+000
      vertex   -4.739367e+001 2.133162e+001 0.000000e+000
    endloop
  endfacet
  facet normal 6.075997e-001 -7.942435e-001 0.000000e+000
    outer loop
      vertex   -4.739367e+001 2.133162e+001 5.000000e+000
      vertex   -4.739367e+001 2.133162e+001 0.000000e+000
      vertex   -4.714140e+001 2.152460e+001 5.000000e+000
    endloop
  endfacet
  facet normal 3.851984e-002 -5.035245e-002 0.000000e+000
    outer loop
      vertex   -4.714140e+001 2.152460e+001 5.000000e+000
      vertex   -4.739367e+001 2.133162e+001 0.000000e+000
      vertex   -4.714140e+001 2.152460e+001 0.000000e+000
    endloop
  endfacet
  facet normal 6.621073e-001 -7.494090e-001 0.000000e+000
    outer loop
      vertex   -4.714140e+001 2.152460e+001 5.000000e+000
      vertex   -4.714140e+001 2.152460e+001 0.000000e+000
      vertex   -4.690337e+001 2.173491e+001 5.000000e+000
    endloop
  endfacet
  facet normal 4.197548e-002 -4.751013e-002 0.000000e+000
    outer loop
      vertex   -4.690337e+001 2.173491e+001 5.000000e+000
      vertex   -4.714140e+001 2.152460e+001 0.000000e+000
      vertex   -4.690337e+001 2.173491e+001 0.000000e+000
    endloop
  endfacet
  facet normal 7.133185e-001 -7.008400e-001 0.000000e+000
    outer loop
      vertex   -4.690337e+001 2.173491e+001 5.000000e+000
      vertex   -4.690337e+001 2.173491e+001 0.000000e+000
      vertex   -4.668076e+001 2.196147e+001 5.000000e+000
    endloop
  endfacet
  facet normal 4.522211e-002 -4.443101e-002 0.000000e+000
    outer loop
      vertex   -4.668076e+001 2.196147e+001 5.000000e+000
      vertex   -4.690337e+001 2.173491e+001 0.000000e+000
      vertex   -4.668076e+001 2.196147e+001 0.000000e+000
    endloop
  endfacet
  facet normal 7.609774e-001 -6.487783e-001 0.000000e+000
    outer loop
      vertex   -4.668076e+001 2.196147e+001 5.000000e+000
      vertex   -4.668076e+001 2.196147e+001 0.000000e+000
      vertex   -4.647470e+001 2.220317e+001 5.000000e+000
    endloop
  endfacet
  facet normal 4.824337e-002 -4.113032e-002 0.000000e+000
    outer loop
      vertex   -4.647470e+001 2.220317e+001 5.000000e+000
      vertex   -4.668076e+001 2.196147e+001 0.000000e+000
      vertex   -4.647470e+001 2.220317e+001 0.000000e+000
    endloop
  endfacet
  facet normal 8.048421e-001 -5.934891e-001 0.000000e+000
    outer loop
      vertex   -4.647470e+001 2.220317e+001 5.000000e+000
      vertex   -4.647470e+001 2.220317e+001 0.000000e+000
      vertex   -4.628619e+001 2.245881e+001 5.000000e+000
    endloop
  endfacet
  facet normal 5.102478e-002 -3.762557e-002 0.000000e+000
    outer loop
      vertex   -4.628619e+001 2.245881e+001 5.000000e+000
      vertex   -4.647470e+001 2.220317e+001 0.000000e+000
      vertex   -4.628619e+001 2.245881e+001 0.000000e+000
    endloop
  endfacet
  facet normal 8.447117e-001 -5.352215e-001 0.000000e+000
    outer loop
      vertex   -4.628619e+001 2.245881e+001 5.000000e+000
      vertex   -4.628619e+001 2.245881e+001 0.000000e+000
      vertex   -4.611619e+001 2.272711e+001 5.000000e+000
    endloop
  endfacet
  facet normal 5.355188e-002 -3.393124e-002 0.000000e+000
    outer loop
      vertex   -4.611619e+001 2.272711e+001 5.000000e+000
      vertex   -4.628619e+001 2.245881e+001 0.000000e+000
      vertex   -4.611619e+001 2.272711e+001 0.000000e+000
    endloop
  endfacet
  facet normal 8.803546e-001 -4.743161e-001 0.000000e+000
    outer loop
      vertex   -4.611619e+001 2.272711e+001 5.000000e+000
      vertex   -4.611619e+001 2.272711e+001 0.000000e+000
      vertex   -4.596554e+001 2.300673e+001 5.000000e+000
    endloop
  endfacet
  facet normal 5.581173e-002 -3.007016e-002 0.000000e+000
    outer loop
      vertex   -4.596554e+001 2.300673e+001 5.000000e+000
      vertex   -4.611619e+001 2.272711e+001 0.000000e+000
      vertex   -4.596554e+001 2.300673e+001 0.000000e+000
    endloop
  endfacet
  facet normal 9.116203e-001 -4.110335e-001 0.000000e+000
    outer loop
      vertex   -4.596554e+001 2.300673e+001 5.000000e+000
      vertex   -4.596554e+001 2.300673e+001 0.000000e+000
      vertex   -4.583498e+001 2.329629e+001 5.000000e+000
    endloop
  endfacet
  facet normal 5.779405e-002 -2.605831e-002 0.000000e+000
    outer loop
      vertex   -4.583498e+001 2.329629e+001 5.000000e+000
      vertex   -4.596554e+001 2.300673e+001 0.000000e+000
      vertex   -4.583498e+001 2.329629e+001 0.000000e+000
    endloop
  endfacet
  facet normal 9.383453e-001 -3.456995e-001 0.000000e+000
    outer loop
      vertex   -4.583498e+001 2.329629e+001 5.000000e+000
      vertex   -4.583498e+001 2.329629e+001 0.000000e+000
      vertex   -4.572518e+001 2.359433e+001 5.000000e+000
    endloop
  endfacet
  facet normal 5.948817e-002 -2.191627e-002 0.000000e+000
    outer loop
      vertex   -4.572518e+001 2.359433e+001 5.000000e+000
      vertex   -4.583498e+001 2.329629e+001 0.000000e+000
      vertex   -4.572518e+001 2.359433e+001 0.000000e+000
    endloop
  endfacet
  facet normal 9.603901e-001 -2.786590e-001 0.000000e+000
    outer loop
      vertex   -4.572518e+001 2.359433e+001 5.000000e+000
      vertex   -4.572518e+001 2.359433e+001 0.000000e+000
      vertex   -4.563667e+001 2.389937e+001 5.000000e+000
    endloop
  endfacet
  facet normal 6.088573e-002 -1.766611e-002 0.000000e+000
    outer loop
      vertex   -4.563667e+001 2.389937e+001 5.000000e+000
      vertex   -4.572518e+001 2.359433e+001 0.000000e+000
      vertex   -4.563667e+001 2.389937e+001 0.000000e+000
    endloop
  endfacet
  facet normal 9.776555e-001 -2.102135e-001 0.000000e+000
    outer loop
      vertex   -4.563667e+001 2.389937e+001 5.000000e+000
      vertex   -4.563667e+001 2.389937e+001 0.000000e+000
      vertex   -4.556990e+001 2.420989e+001 5.000000e+000
    endloop
  endfacet
  facet normal 6.198025e-002 -1.332687e-002 0.000000e+000
    outer loop
      vertex   -4.556990e+001 2.420989e+001 5.000000e+000
      vertex   -4.563667e+001 2.389937e+001 0.000000e+000
      vertex   -4.556990e+001 2.420989e+001 0.000000e+000
    endloop
  endfacet
  facet normal 9.900491e-001 -1.407227e-001 0.000000e+000
    outer loop
      vertex   -4.556990e+001 2.420989e+001 5.000000e+000
      vertex   -4.556990e+001 2.420989e+001 0.000000e+000
      vertex   -4.552521e+001 2.452436e+001 5.000000e+000
    endloop
  endfacet
  facet normal 6.276602e-002 -8.921379e-003 0.000000e+000
    outer loop
      vertex   -4.552521e+001 2.452436e+001 5.000000e+000
      vertex   -4.556990e+001 2.420989e+001 0.000000e+000
      vertex   -4.552521e+001 2.452436e+001 0.000000e+000
    endloop
  endfacet
  facet normal 9.975092e-001 -7.053563e-002 0.000000e+000
    outer loop
      vertex   -4.552521e+001 2.452436e+001 5.000000e+000
      vertex   -4.552521e+001 2.452436e+001 0.000000e+000
      vertex   -4.550280e+001 2.484119e+001 5.000000e+000
    endloop
  endfacet
  facet normal 6.323885e-002 -4.471730e-003 0.000000e+000
    outer loop
      vertex   -4.550280e+001 2.484119e+001 5.000000e+000
      vertex   -4.552521e+001 2.452436e+001 0.000000e+000
      vertex   -4.550280e+001 2.484119e+001 0.000000e+000
    endloop
  endfacet
  facet normal 1.000000e+000 -0.000000e+000 0.000000e+000
    outer loop
      vertex   -4.550280e+001 2.484119e+001 5.000000e+000
      vertex   -4.550280e+001 2.484119e+001 0.000000e+000
      vertex   -4.550280e+001 2.515881e+001 5.000000e+000
    endloop
  endfacet
  facet normal 6.339684e-002 0.000000e+000 0.000000e+000
    outer loop
      vertex   -4.550280e+001 2.515881e+001 5.000000e+000
      vertex   -4.550280e+001 2.484119e+001 0.000000e+000
      vertex   -4.550280e+001 2.515881e+001 0.000000e+000
    endloop
  endfacet
  facet normal 9.975092e-001 7.053563e-002 0.000000e+000
    outer loop
      vertex   -4.550280e+001 2.515881e+001 5.000000e+000
      vertex   -4.550280e+001 2.515881e+001 0.000000e+000
      vertex   -4.552521e+001 2.547564e+001 5.000000e+000
    endloop
  endfacet
  facet normal 6.323885e-002 4.471730e-003 0.000000e+000
    outer loop
      vertex   -4.552521e+001 2.547564e+001 5.000000e+000
      vertex   -4.550280e+001 2.515881e+001 0.000000e+000
      vertex   -4.552521e+001 2.547564e+001 0.000000e+000
    endloop
  endfacet
  facet normal 9.900491e-001 1.407227e-001 0.000000e+000
    outer loop
      vertex   -4.552521e+001 2.547564e+001 5.000000e+000
      vertex   -4.552521e+001 2.547564e+001 0.000000e+000
      vertex   -4.556990e+001 2.579011e+001 5.000000e+000
    endloop
  endfacet
  facet normal 6.276602e-002 8.921379e-003 0.000000e+000
    outer loop
      vertex   -4.556990e+001 2.579011e+001 5.000000e+000
      vertex   -4.552521e+001 2.547564e+001 0.000000e+000
      vertex   -4.556990e+001 2.579011e+001 0.000000e+000
    endloop
  endfacet
  facet normal 9.776555e-001 2.102135e-001 0.000000e+000
    outer loop
      vertex   -4.556990e+001 2.579011e+001 5.000000e+000
      vertex   -4.556990e+001 2.579011e+001 0.000000e+000
      vertex   -4.563667e+001 2.610063e+001 5.000000e+000
    endloop
  endfacet
  facet normal 6.198025e-002 1.332687e-002 0.000000e+000
    outer loop
      vertex   -4.563667e+001 2.610063e+001 5.000000e+000
      vertex   -4.556990e+001 2.579011e+001 0.000000e+000
      vertex   -4.563667e+001 2.610063e+001 0.000000e+000
    endloop
  endfacet
  facet normal 9.603901e-001 2.786590e-001 0.000000e+000
    outer loop
      vertex   -4.563667e+001 2.610063e+001 5.000000e+000
      vertex   -4.563667e+001 2.610063e+001 0.000000e+000
      vertex   -4.572518e+001 2.640567e+001 5.000000e+000
    endloop
  endfacet
  facet normal 6.088573e-002 1.766611e-002 0.000000e+000
    outer loop
      vertex   -4.572518e+001 2.640567e+001 5.000000e+000
      vertex   -4.563667e+001 2.610063e+001 0.000000e+000
      vertex   -4.572518e+001 2.640567e+001 0.000000e+000
    endloop
  endfacet
  facet normal 9.383453e-001 3.456995e-001 0.000000e+000
    outer loop
      vertex   -4.572518e+001 2.640567e+001 5.000000e+000
      vertex   -4.572518e+001 2.640567e+001 0.000000e+000
      vertex   -4.583498e+001 2.670371e+001 5.000000e+000
    endloop
  endfacet
  facet normal 5.948817e-002 2.191627e-002 0.000000e+000
    outer loop
      vertex   -4.583498e+001 2.670371e+001 5.000000e+000
      vertex   -4.572518e+001 2.640567e+001 0.000000e+000
      vertex   -4.583498e+001 2.670371e+001 0.000000e+000
    endloop
  endfacet
  facet normal 9.116203e-001 4.110335e-001 0.000000e+000
    outer loop
      vertex   -4.583498e+001 2.670371e+001 5.000000e+000
      vertex   -4.583498e+001 2.670371e+001 0.000000e+000
      vertex   -4.596554e+001 2.699327e+001 5.000000e+000
    endloop
  endfacet
  facet normal 5.779405e-002 2.605831e-002 0.000000e+000
    outer loop
      vertex   -4.596554e+001 2.699327e+001 5.000000e+000
      vertex   -4.583498e+001 2.670371e+001 0.000000e+000
      vertex   -4.596554e+001 2.699327e+001 0.000000e+000
    endloop
  endfacet
  facet normal 8.803546e-001 4.743161e-001 0.000000e+000
    outer loop
      vertex   -4.596554e+001 2.699327e+001 5.000000e+000
      vertex   -4.596554e+001 2.699327e+001 0.000000e+000
      vertex   -4.611619e+001 2.727289e+001 5.000000e+000
    endloop
  endfacet
  facet normal 5.581173e-002 3.007016e-002 0.000000e+000
    outer loop
      vertex   -4.611619e+001 2.727289e+001 5.000000e+000
      vertex   -4.596554e+001 2.699327e+001 0.000000e+000
      vertex   -4.611619e+001 2.727289e+001 0.000000e+000
    endloop
  endfacet
  facet normal 8.447117e-001 5.352215e-001 0.000000e+000
    outer loop
      vertex   -4.611619e+001 2.727289e+001 5.000000e+000
      vertex   -4.611619e+001 2.727289e+001 0.000000e+000
      vertex   -4.628619e+001 2.754119e+001 5.000000e+000
    endloop
  endfacet
  facet normal 5.355188e-002 3.393124e-002 0.000000e+000
    outer loop
      vertex   -4.628619e+001 2.754119e+001 5.000000e+000
      vertex   -4.611619e+001 2.727289e+001 0.000000e+000
      vertex   -4.628619e+001 2.754119e+001 0.000000e+000
    endloop
  endfacet
  facet normal 8.048421e-001 5.934891e-001 0.000000e+000
    outer loop
      vertex   -4.628619e+001 2.754119e+001 5.000000e+000
      vertex   -4.628619e+001 2.754119e+001 0.000000e+000
      vertex   -4.647470e+001 2.779683e+001 5.000000e+000
    endloop
  endfacet
  facet normal 5.102478e-002 3.762557e-002 0.000000e+000
    outer loop
      vertex   -4.647470e+001 2.779683e+001 5.000000e+000
      vertex   -4.628619e+001 2.754119e+001 0.000000e+000
      vertex   -4.647470e+001 2.779683e+001 0.000000e+000
    endloop
  endfacet
  facet normal 7.609774e-001 6.487783e-001 0.000000e+000
    outer loop
      vertex   -4.647470e+001 2.779683e+001 5.000000e+000
      vertex   -4.647470e+001 2.779683e+001 0.000000e+000
      vertex   -4.668076e+001 2.803853e+001 5.000000e+000
    endloop
  endfacet
  facet normal 4.824337e-002 4.113032e-002 0.000000e+000
    outer loop
      vertex   -4.668076e+001 2.803853e+001 5.000000e+000
      vertex   -4.647470e+001 2.779683e+001 0.000000e+000
      vertex   -4.668076e+001 2.803853e+001 0.000000e+000
    endloop
  endfacet
  facet normal 7.133185e-001 7.008400e-001 0.000000e+000
    outer loop
      vertex   -4.668076e+001 2.803853e+001 5.000000e+000
      vertex   -4.668076e+001 2.803853e+001 0.000000e+000
      vertex   -4.690337e+001 2.826509e+001 5.000000e+000
    endloop
  endfacet
  facet normal 4.522211e-002 4.443101e-002 0.000000e+000
    outer loop
      vertex   -4.690337e+001 2.826509e+001 5.000000e+000
      vertex   -4.668076e+001 2.803853e+001 0.000000e+000
      vertex   -4.690337e+001 2.826509e+001 0.000000e+000
    endloop
  endfacet
  facet normal 6.621073e-001 7.494090e-001 0.000000e+000
    outer loop
      vertex   -4.690337e+001 2.826509e+001 5.000000e+000
      vertex   -4.690337e+001 2.826509e+001 0.000000e+000
      vertex   -4.714140e+001 2.847540e+001 5.000000e+000
    endloop
  endfacet
  facet normal 4.197548e-002 4.751013e-002 0.000000e+000
    outer loop
      vertex   -4.714140e+001 2.847540e+001 5.000000e+000
      vertex   -4.690337e+001 2.826509e+001 0.000000e+000
      vertex   -4.714140e+001 2.847540e+001 0.000000e+000
    endloop
  endfacet
  facet normal 6.075997e-001 7.942435e-001 0.000000e+000
    outer loop
      vertex   -4.714140e+001 2.847540e+001 5.000000e+000
      vertex   -4.714140e+001 2.847540e+001 0.000000e+000
      vertex   -4.739367e+001 2.866838e+001 5.000000e+000
    endloop
  endfacet
  facet normal 3.851984e-002 5.035245e-002 0.000000e+000
    outer loop
      vertex   -4.739367e+001 2.866838e+001 5.000000e+000
      vertex   -4.714140e+001 2.847540e+001 0.000000e+000
      vertex   -4.739367e+001 2.866838e+001 0.000000e+000
    endloop
  endfacet
  facet normal 5.500492e-001 8.351322e-001 0.000000e+000
    outer loop
      vertex   -4.739367e+001 2.866838e+001 5.000000e+000
      vertex   -4.739367e+001 2.866838e+001 0.000000e+000
      vertex   -4.765892e+001 2.884309e+001 5.000000e+000
    endloop
  endfacet
  facet normal 3.487157e-002 5.294504e-002 0.000000e+000
    outer loop
      vertex   -4.765892e+001 2.884309e+001 5.000000e+000
      vertex   -4.739367e+001 2.866838e+001 0.000000e+000
      vertex   -4.765892e+001 2.884309e+001 0.000000e+000
    endloop
  endfacet
  facet normal 4.897776e-001 8.718474e-001 0.000000e+000
    outer loop
      vertex   -4.765892e+001 2.884309e+001 5.000000e+000
      vertex   -4.765892e+001 2.884309e+001 0.000000e+000
      vertex   -4.793584e+001 2.899866e+001 5.000000e+000
    endloop
  endfacet
  facet normal 3.105009e-002 5.527189e-002 0.000000e+000
    outer loop
      vertex   -4.793584e+001 2.899866e+001 5.000000e+000
      vertex   -4.765892e+001 2.884309e+001 0.000000e+000
      vertex   -4.793584e+001 2.899866e+001 0.000000e+000
    endloop
  endfacet
  facet normal 4.270540e-001 9.042261e-001 0.000000e+000
    outer loop
      vertex   -4.793584e+001 2.899866e+001 5.000000e+000
      vertex   -4.793584e+001 2.899866e+001 0.000000e+000
      vertex   -4.822305e+001 2.913430e+001 5.000000e+000
    endloop
  endfacet
  facet normal 2.707403e-002 5.732540e-002 0.000000e+000
    outer loop
      vertex   -4.822305e+001 2.913430e+001 5.000000e+000
      vertex   -4.793584e+001 2.899866e+001 0.000000e+000
      vertex   -4.822305e+001 2.913430e+001 0.000000e+000
    endloop
  endfacet
  facet normal 3.622139e-001 9.320951e-001 0.000000e+000
    outer loop
      vertex   -4.822305e+001 2.913430e+001 5.000000e+000
      vertex   -4.822305e+001 2.913430e+001 0.000000e+000
      vertex   -4.851910e+001 2.924935e+001 5.000000e+000
    endloop
  endfacet
  facet normal 2.296321e-002 5.909186e-002 0.000000e+000
    outer loop
      vertex   -4.851910e+001 2.924935e+001 5.000000e+000
      vertex   -4.822305e+001 2.913430e+001 0.000000e+000
      vertex   -4.851910e+001 2.924935e+001 0.000000e+000
    endloop
  endfacet
  facet normal 2.955582e-001 9.553247e-001 0.000000e+000
    outer loop
      vertex   -4.851910e+001 2.924935e+001 5.000000e+000
      vertex   -4.851910e+001 2.924935e+001 0.000000e+000
      vertex   -4.882253e+001 2.934322e+001 5.000000e+000
    endloop
  endfacet
  facet normal 1.873741e-002 6.056442e-002 0.000000e+000
    outer loop
      vertex   -4.882253e+001 2.934322e+001 5.000000e+000
      vertex   -4.851910e+001 2.924935e+001 0.000000e+000
      vertex   -4.882253e+001 2.934322e+001 0.000000e+000
    endloop
  endfacet
  facet normal 2.274358e-001 9.737931e-001 0.000000e+000
    outer loop
      vertex   -4.882253e+001 2.934322e+001 5.000000e+000
      vertex   -4.882253e+001 2.934322e+001 0.000000e+000
      vertex   -4.913183e+001 2.941546e+001 5.000000e+000
    endloop
  endfacet
  facet normal 1.441872e-002 6.173545e-002 0.000000e+000
    outer loop
      vertex   -4.913183e+001 2.941546e+001 5.000000e+000
      vertex   -4.882253e+001 2.934322e+001 0.000000e+000
      vertex   -4.913183e+001 2.941546e+001 0.000000e+000
    endloop
  endfacet
  facet normal 1.581732e-001 9.874114e-001 0.000000e+000
    outer loop
      vertex   -4.913183e+001 2.941546e+001 5.000000e+000
      vertex   -4.913183e+001 2.941546e+001 0.000000e+000
      vertex   -4.944546e+001 2.946570e+001 5.000000e+000
    endloop
  endfacet
  facet normal 1.002770e-002 6.259889e-002 0.000000e+000
    outer loop
      vertex   -4.944546e+001 2.946570e+001 5.000000e+000
      vertex   -4.913183e+001 2.941546e+001 0.000000e+000
      vertex   -4.944546e+001 2.946570e+001 0.000000e+000
    endloop
  endfacet
  facet normal 8.813636e-002 9.961084e-001 0.000000e+000
    outer loop
      vertex   -4.944546e+001 2.946570e+001 5.000000e+000
      vertex   -4.944546e+001 2.946570e+001 0.000000e+000
      vertex   -4.976184e+001 2.949369e+001 5.000000e+000
    endloop
  endfacet
  facet normal 5.587569e-003 6.315015e-002 0.000000e+000
    outer loop
      vertex   -4.976184e+001 2.949369e+001 5.000000e+000
      vertex   -4.944546e+001 2.946570e+001 0.000000e+000
      vertex   -4.976184e+001 2.949369e+001 0.000000e+000
    endloop
  endfacet
  facet normal 1.764890e-002 9.998443e-001 0.000000e+000
    outer loop
      vertex   -4.976184e+001 2.949369e+001 5.000000e+000
      vertex   -4.976184e+001 2.949369e+001 0.000000e+000
      vertex   -5.007942e+001 2.949930e+001 5.000000e+000
    endloop
  endfacet
  facet normal 1.118884e-003 6.338694e-002 0.000000e+000
    outer loop
      vertex   -5.007942e+001 2.949930e+001 5.000000e+000
      vertex   -4.976184e+001 2.949369e+001 0.000000e+000
      vertex   -5.007942e+001 2.949930e+001 0.000000e+000
    endloop
  endfacet
  facet normal -5.292886e-002 9.985983e-001 0.000000e+000
    outer loop
      vertex   -5.007942e+001 2.949930e+001 5.000000e+000
      vertex   -5.007942e+001 2.949930e+001 0.000000e+000
      vertex   -5.039660e+001 2.948249e+001 5.000000e+000
    endloop
  endfacet
  facet normal -3.355511e-003 6.330775e-002 0.000000e+000
    outer loop
      vertex   -5.039660e+001 2.948249e+001 5.000000e+000
      vertex   -5.007942e+001 2.949930e+001 0.000000e+000
      vertex   -5.039660e+001 2.948249e+001 0.000000e+000
    endloop
  endfacet
  facet normal -1.232291e-001 9.923782e-001 0.000000e+000
    outer loop
      vertex   -5.039660e+001 2.948249e+001 5.000000e+000
      vertex   -5.039660e+001 2.948249e+001 0.000000e+000
      vertex   -5.071180e+001 2.944335e+001 5.000000e+000
    endloop
  endfacet
  facet normal -7.812393e-003 6.291411e-002 0.000000e+000
    outer loop
      vertex   -5.071180e+001 2.944335e+001 5.000000e+000
      vertex   -5.039660e+001 2.948249e+001 0.000000e+000
      vertex   -5.071180e+001 2.944335e+001 0.000000e+000
    endloop
  endfacet
  facet normal -1.929266e-001 9.812132e-001 0.000000e+000
    outer loop
      vertex   -5.071180e+001 2.944335e+001 5.000000e+000
      vertex   -5.071180e+001 2.944335e+001 0.000000e+000
      vertex   -5.102345e+001 2.938207e+001 5.000000e+000
    endloop
  endfacet
  facet normal -1.223083e-002 6.220524e-002 0.000000e+000
    outer loop
      vertex   -5.102345e+001 2.938207e+001 5.000000e+000
      vertex   -5.071180e+001 2.944335e+001 0.000000e+000
      vertex   -5.102345e+001 2.938207e+001 0.000000e+000
    endloop
  endfacet
  facet normal -2.616563e-001 9.651611e-001 0.000000e+000
    outer loop
      vertex   -5.102345e+001 2.938207e+001 5.000000e+000
      vertex   -5.102345e+001 2.938207e+001 0.000000e+000
      vertex   -5.133001e+001 2.929896e+001 5.000000e+000
    endloop
  endfacet
  facet normal -1.658834e-002 6.118876e-002 0.000000e+000
    outer loop
      vertex   -5.133001e+001 2.929896e+001 5.000000e+000
      vertex   -5.102345e+001 2.938207e+001 0.000000e+000
      vertex   -5.133001e+001 2.929896e+001 0.000000e+000
    endloop
  endfacet
  facet normal -3.290903e-001 9.442984e-001 0.000000e+000
    outer loop
      vertex   -5.133001e+001 2.929896e+001 5.000000e+000
      vertex   -5.133001e+001 2.929896e+001 0.000000e+000
      vertex   -5.162994e+001 2.919444e+001 5.000000e+000
    endloop
  endfacet
  facet normal -2.086325e-002 5.986544e-002 0.000000e+000
    outer loop
      vertex   -5.162994e+001 2.919444e+001 5.000000e+000
      vertex   -5.133001e+001 2.929896e+001 0.000000e+000
      vertex   -5.162994e+001 2.919444e+001 0.000000e+000
    endloop
  endfacet
  facet normal -3.948830e-001 9.187314e-001 0.000000e+000
    outer loop
      vertex   -5.162994e+001 2.919444e+001 5.000000e+000
      vertex   -5.162994e+001 2.919444e+001 0.000000e+000
      vertex   -5.192175e+001 2.906901e+001 5.000000e+000
    endloop
  endfacet
  facet normal -2.503423e-002 5.824442e-002 0.000000e+000
    outer loop
      vertex   -5.192175e+001 2.906901e+001 5.000000e+000
      vertex   -5.162994e+001 2.919444e+001 0.000000e+000
      vertex   -5.192175e+001 2.906901e+001 0.000000e+000
    endloop
  endfacet
  facet normal -4.586966e-001 8.885930e-001 0.000000e+000
    outer loop
      vertex   -5.192175e+001 2.906901e+001 5.000000e+000
      vertex   -5.192175e+001 2.906901e+001 0.000000e+000
      vertex   -5.220399e+001 2.892332e+001 5.000000e+000
    endloop
  endfacet
  facet normal -2.907995e-002 5.633405e-002 0.000000e+000
    outer loop
      vertex   -5.220399e+001 2.892332e+001 5.000000e+000
      vertex   -5.192175e+001 2.906901e+001 0.000000e+000
      vertex   -5.220399e+001 2.892332e+001 0.000000e+000
    endloop
  endfacet
  facet normal -5.202437e-001 8.540179e-001 0.000000e+000
    outer loop
      vertex   -5.220399e+001 2.892332e+001 5.000000e+000
      vertex   -5.220399e+001 2.892332e+001 0.000000e+000
      vertex   -5.247525e+001 2.875808e+001 5.000000e+000
    endloop
  endfacet
  facet normal -3.298177e-002 5.414197e-002 0.000000e+000
    outer loop
      vertex   -5.247525e+001 2.875808e+001 5.000000e+000
      vertex   -5.220399e+001 2.892332e+001 0.000000e+000
      vertex   -5.247525e+001 2.875808e+001 0.000000e+000
    endloop
  endfacet
  facet normal -5.791817e-001 8.151985e-001 0.000000e+000
    outer loop
      vertex   -5.247525e+001 2.875808e+001 5.000000e+000
      vertex   -5.247525e+001 2.875808e+001 0.000000e+000
      vertex   -5.273417e+001 2.857412e+001 5.000000e+000
    endloop
  endfacet
  facet normal -3.671836e-002 5.168111e-002 0.000000e+000
    outer loop
      vertex   -5.273417e+001 2.857412e+001 5.000000e+000
      vertex   -5.247525e+001 2.875808e+001 0.000000e+000
      vertex   -5.273417e+001 2.857412e+001 0.000000e+000
    endloop
  endfacet
  facet normal -6.352451e-001 7.723106e-001 0.000000e+000
    outer loop
      vertex   -5.273417e+001 2.857412e+001 5.000000e+000
      vertex   -5.273417e+001 2.857412e+001 0.000000e+000
      vertex   -5.297948e+001 2.837235e+001 5.000000e+000
    endloop
  endfacet
  facet normal -4.027260e-002 4.896213e-002 0.000000e+000
    outer loop
      vertex   -5.297948e+001 2.837235e+001 5.000000e+000
      vertex   -5.273417e+001 2.857412e+001 0.000000e+000
      vertex   -5.297948e+001 2.837235e+001 0.000000e+000
    endloop
  endfacet
  facet normal -6.881413e-001 7.255767e-001 0.000000e+000
    outer loop
      vertex   -5.297948e+001 2.837235e+001 5.000000e+000
      vertex   -5.297948e+001 2.837235e+001 0.000000e+000
      vertex   -5.320994e+001 2.815378e+001 5.000000e+000
    endloop
  endfacet
  facet normal -4.362620e-002 4.599950e-002 0.000000e+000
    outer loop
      vertex   -5.320994e+001 2.815378e+001 5.000000e+000
      vertex   -5.297948e+001 2.837235e+001 0.000000e+000
      vertex   -5.320994e+001 2.815378e+001 0.000000e+000
    endloop
  endfacet
  facet normal -7.376119e-001 6.752250e-001 0.000000e+000
    outer loop
      vertex   -5.320994e+001 2.815378e+001 5.000000e+000
      vertex   -5.320994e+001 2.815378e+001 0.000000e+000
      vertex   -5.342440e+001 2.791949e+001 5.000000e+000
    endloop
  endfacet
  facet normal -4.676205e-002 4.280693e-002 0.000000e+000
    outer loop
      vertex   -5.342440e+001 2.791949e+001 5.000000e+000
      vertex   -5.320994e+001 2.815378e+001 0.000000e+000
      vertex   -5.342440e+001 2.791949e+001 0.000000e+000
    endloop
  endfacet
  facet normal -7.834015e-001 6.215160e-001 0.000000e+000
    outer loop
      vertex   -5.342440e+001 2.791949e+001 5.000000e+000
      vertex   -5.342440e+001 2.791949e+001 0.000000e+000
      vertex   -5.362181e+001 2.767067e+001 5.000000e+000
    endloop
  endfacet
  facet normal -4.966491e-002 3.940193e-002 0.000000e+000
    outer loop
      vertex   -5.362181e+001 2.767067e+001 5.000000e+000
      vertex   -5.342440e+001 2.791949e+001 0.000000e+000
      vertex   -5.362181e+001 2.767067e+001 0.000000e+000
    endloop
  endfacet
  facet normal -8.252879e-001 5.647121e-001 0.000000e+000
    outer loop
      vertex   -5.362181e+001 2.767067e+001 5.000000e+000
      vertex   -5.362181e+001 2.767067e+001 0.000000e+000
      vertex   -5.380118e+001 2.740854e+001 5.000000e+000
    endloop
  endfacet
  facet normal -5.232107e-002 3.580125e-002 0.000000e+000
    outer loop
      vertex   -5.380118e+001 2.740854e+001 5.000000e+000
      vertex   -5.362181e+001 2.767067e+001 0.000000e+000
      vertex   -5.380118e+001 2.740854e+001 0.000000e+000
    endloop
  endfacet
  facet normal -8.630682e-001 5.050874e-001 0.000000e+000
    outer loop
      vertex   -5.380118e+001 2.740854e+001 5.000000e+000
      vertex   -5.380118e+001 2.740854e+001 0.000000e+000
      vertex   -5.396161e+001 2.713441e+001 5.000000e+000
    endloop
  endfacet
  facet normal -5.471569e-002 3.202087e-002 0.000000e+000
    outer loop
      vertex   -5.396161e+001 2.713441e+001 5.000000e+000
      vertex   -5.380118e+001 2.740854e+001 0.000000e+000
      vertex   -5.396161e+001 2.713441e+001 0.000000e+000
    endloop
  endfacet
  facet normal -8.965477e-001 4.429473e-001 0.000000e+000
    outer loop
      vertex   -5.396161e+001 2.713441e+001 5.000000e+000
      vertex   -5.396161e+001 2.713441e+001 0.000000e+000
      vertex   -5.410229e+001 2.684964e+001 5.000000e+000
    endloop
  endfacet
  facet normal -5.683810e-002 2.808137e-002 0.000000e+000
    outer loop
      vertex   -5.410229e+001 2.684964e+001 5.000000e+000
      vertex   -5.396161e+001 2.713441e+001 0.000000e+000
      vertex   -5.410229e+001 2.684964e+001 0.000000e+000
    endloop
  endfacet
  facet normal -9.255579e-001 3.786062e-001 0.000000e+000
    outer loop
      vertex   -5.410229e+001 2.684964e+001 5.000000e+000
      vertex   -5.410229e+001 2.684964e+001 0.000000e+000
      vertex   -5.422255e+001 2.655566e+001 5.000000e+000
    endloop
  endfacet
  facet normal -5.867765e-002 2.400252e-002 0.000000e+000
    outer loop
      vertex   -5.422255e+001 2.655566e+001 5.000000e+000
      vertex   -5.410229e+001 2.684964e+001 0.000000e+000
      vertex   -5.422255e+001 2.655566e+001 0.000000e+000
    endloop
  endfacet
  facet normal -9.499599e-001 3.123717e-001 0.000000e+000
    outer loop
      vertex   -5.422255e+001 2.655566e+001 5.000000e+000
      vertex   -5.422255e+001 2.655566e+001 0.000000e+000
      vertex   -5.432177e+001 2.625393e+001 5.000000e+000
    endloop
  endfacet
  facet normal -6.022445e-002 1.980338e-002 0.000000e+000
    outer loop
      vertex   -5.432177e+001 2.625393e+001 5.000000e+000
      vertex   -5.422255e+001 2.655566e+001 0.000000e+000
      vertex   -5.432177e+001 2.625393e+001 0.000000e+000
    endloop
  endfacet
  facet normal -9.696274e-001 2.445867e-001 0.000000e+000
    outer loop
      vertex   -5.432177e+001 2.625393e+001 5.000000e+000
      vertex   -5.432177e+001 2.625393e+001 0.000000e+000
      vertex   -5.439945e+001 2.594596e+001 5.000000e+000
    endloop
  endfacet
  facet normal -6.147125e-002 1.550601e-002 0.000000e+000
    outer loop
      vertex   -5.439945e+001 2.594596e+001 5.000000e+000
      vertex   -5.432177e+001 2.625393e+001 0.000000e+000
      vertex   -5.439945e+001 2.594596e+001 0.000000e+000
    endloop
  endfacet
  facet normal -9.844660e-001 1.755753e-001 0.000000e+000
    outer loop
      vertex   -5.439945e+001 2.594596e+001 5.000000e+000
      vertex   -5.439945e+001 2.594596e+001 0.000000e+000
      vertex   -5.445522e+001 2.563327e+001 5.000000e+000
    endloop
  endfacet
  facet normal -6.241234e-002 1.113098e-002 0.000000e+000
    outer loop
      vertex   -5.445522e+001 2.563327e+001 5.000000e+000
      vertex   -5.439945e+001 2.594596e+001 0.000000e+000
      vertex   -5.445522e+001 2.563327e+001 0.000000e+000
    endloop
  endfacet
  facet normal -9.943979e-001 1.057013e-001 0.000000e+000
    outer loop
      vertex   -5.445522e+001 2.563327e+001 5.000000e+000
      vertex   -5.445522e+001 2.563327e+001 0.000000e+000
      vertex   -5.448879e+001 2.531742e+001 5.000000e+000
    endloop
  endfacet
  facet normal -6.304165e-002 6.701123e-003 0.000000e+000
    outer loop
      vertex   -5.448879e+001 2.531742e+001 5.000000e+000
      vertex   -5.445522e+001 2.563327e+001 0.000000e+000
      vertex   -5.448879e+001 2.531742e+001 0.000000e+000
    endloop
  endfacet
  facet normal 0.000000e+000 -0.000000e+000 9.998444e-001
    outer loop
      vertex   -5.448879e+001 2.468258e+001 5.000000e+000
      vertex   -4.550280e+001 2.484119e+001 5.000000e+000
      vertex   -5.450000e+001 2.500000e+001 5.000000e+000
    endloop
  endfacet
  facet normal -0.000000e+000 0.000000e+000 3.529146e-002
    outer loop
      vertex   -5.450000e+001 2.500000e+001 5.000000e+000
      vertex   -4.550280e+001 2.484119e+001 5.000000e+000
      vertex   -4.550280e+001 2.515881e+001 5.000000e+000
    endloop
  endfacet
  facet normal 0.000000e+000 0.000000e+000 9.985989e-001
    outer loop
      vertex   -5.450000e+001 2.500000e+001 5.000000e+000
      vertex   -4.550280e+001 2.515881e+001 5.000000e+000
      vertex   -5.448879e+001 2.531742e+001 5.000000e+000
    endloop
  endfacet
  facet normal -0.000000e+000 0.000000e+000 3.529141e-002
    outer loop
      vertex   -5.448879e+001 2.531742e+001 5.000000e+000
      vertex   -4.550280e+001 2.515881e+001 5.000000e+000
      vertex   -4.552521e+001 2.547564e+001 5.000000e+000
    endloop
  endfacet
  facet normal 0.000000e+000 0.000000e+000 9.923776e-001
    outer loop
      vertex   -5.448879e+001 2.531742e+001 5.000000e+000
      vertex   -4.552521e+001 2.547564e+001 5.000000e+000
      vertex   -5.445522e+001 2.563327e+001 5.000000e+000
    endloop
  endfacet
  facet normal -0.000000e+000 0.000000e+000 3.529149e-002
    outer loop
      vertex   -5.445522e+001 2.563327e+001 5.000000e+000
      vertex   -4.552521e+001 2.547564e+001 5.000000e+000
      vertex   -4.556990e+001 2.579011e+001 5.000000e+000
    endloop
  endfacet
  facet normal 0.000000e+000 0.000000e+000 9.812140e-001
    outer loop
      vertex   -5.445522e+001 2.563327e+001 5.000000e+000
      vertex   -4.556990e+001 2.579011e+001 5.000000e+000
      vertex   -5.439945e+001 2.594596e+001 5.000000e+000
    endloop
  endfacet
  facet normal -0.000000e+000 0.000000e+000 3.529143e-002
    outer loop
      vertex   -5.439945e+001 2.594596e+001 5.000000e+000
      vertex   -4.556990e+001 2.579011e+001 5.000000e+000
      vertex   -4.563667e+001 2.610063e+001 5.000000e+000
    endloop
  endfacet
  facet normal 0.000000e+000 0.000000e+000 9.651598e-001
    outer loop
      vertex   -5.439945e+001 2.594596e+001 5.000000e+000
      vertex   -4.563667e+001 2.610063e+001 5.000000e+000
      vertex   -5.432177e+001 2.625393e+001 5.000000e+000
    endloop
  endfacet
  facet normal -0.000000e+000 0.000000e+000 3.529140e-002
    outer loop
      vertex   -5.432177e+001 2.625393e+001 5.000000e+000
      vertex   -4.563667e+001 2.610063e+001 5.000000e+000
      vertex   -4.572518e+001 2.640567e+001 5.000000e+000
    endloop
  endfacet
  facet normal 0.000000e+000 0.000000e+000 9.442992e-001
    outer loop
      vertex   -5.432177e+001 2.625393e+001 5.000000e+000
      vertex   -4.572518e+001 2.640567e+001 5.000000e+000
      vertex   -5.422255e+001 2.655566e+001 5.000000e+000
    endloop
  endfacet
  facet normal -0.000000e+000 0.000000e+000 3.529153e-002
    outer loop
      vertex   -5.422255e+001 2.655566e+001 5.000000e+000
      vertex   -4.572518e+001 2.640567e+001 5.000000e+000
      vertex   -4.583498e+001 2.670371e+001 5.000000e+000
    endloop
  endfacet
  facet normal 0.000000e+000 0.000000e+000 9.187319e-001
    outer loop
      vertex   -5.422255e+001 2.655566e+001 5.000000e+000
      vertex   -4.583498e+001 2.670371e+001 5.000000e+000
      vertex   -5.410229e+001 2.684964e+001 5.000000e+000
    endloop
  endfacet
  facet normal -0.000000e+000 0.000000e+000 3.529155e-002
    outer loop
      vertex   -5.410229e+001 2.684964e+001 5.000000e+000
      vertex   -4.583498e+001 2.670371e+001 5.000000e+000
      vertex   -4.596554e+001 2.699327e+001 5.000000e+000
    endloop
  endfacet
  facet normal 0.000000e+000 0.000000e+000 8.885907e-001
    outer loop
      vertex   -5.410229e+001 2.684964e+001 5.000000e+000
      vertex   -4.596554e+001 2.699327e+001 5.000000e+000
      vertex   -5.396161e+001 2.713441e+001 5.000000e+000
    endloop
  endfacet
  facet normal -0.000000e+000 0.000000e+000 3.529140e-002
    outer loop
      vertex   -5.396161e+001 2.713441e+001 5.000000e+000
      vertex   -4.596554e+001 2.699327e+001 5.000000e+000
      vertex   -4.611619e+001 2.727289e+001 5.000000e+000
    endloop
  endfacet
  facet normal 0.000000e+000 0.000000e+000 8.540198e-001
    outer loop
      vertex   -5.396161e+001 2.713441e+001 5.000000e+000
      vertex   -4.611619e+001 2.727289e+001 5.000000e+000
      vertex   -5.380118e+001 2.740854e+001 5.000000e+000
    endloop
  endfacet
  facet normal -0.000000e+000 0.000000e+000 3.529158e-002
    outer loop
      vertex   -5.380118e+001 2.740854e+001 5.000000e+000
      vertex   -4.611619e+001 2.727289e+001 5.000000e+000
      vertex   -4.628619e+001 2.754119e+001 5.000000e+000
    endloop
  endfacet
  facet normal 0.000000e+000 0.000000e+000 8.151930e-001
    outer loop
      vertex   -5.380118e+001 2.740854e+001 5.000000e+000
      vertex   -4.628619e+001 2.754119e+001 5.000000e+000
      vertex   -5.362181e+001 2.767067e+001 5.000000e+000
    endloop
  endfacet
  facet normal -0.000000e+000 0.000000e+000 3.529147e-002
    outer loop
      vertex   -5.362181e+001 2.767067e+001 5.000000e+000
      vertex   -4.628619e+001 2.754119e+001 5.000000e+000
      vertex   -4.647470e+001 2.779683e+001 5.000000e+000
    endloop
  endfacet
  facet normal 0.000000e+000 0.000000e+000 7.723106e-001
    outer loop
      vertex   -5.362181e+001 2.767067e+001 5.000000e+000
      vertex   -4.647470e+001 2.779683e+001 5.000000e+000
      vertex   -5.342440e+001 2.791949e+001 5.000000e+000
    endloop
  endfacet
  facet normal -0.000000e+000 0.000000e+000 3.529127e-002
    outer loop
      vertex   -5.342440e+001 2.791949e+001 5.000000e+000
      vertex   -4.647470e+001 2.779683e+001 5.000000e+000
      vertex   -4.668076e+001 2.803853e+001 5.000000e+000
    endloop
  endfacet
  facet normal 0.000000e+000 0.000000e+000 7.255803e-001
    outer loop
      vertex   -5.342440e+001 2.791949e+001 5.000000e+000
      vertex   -4.668076e+001 2.803853e+001 5.000000e+000
      vertex   -5.320994e+001 2.815378e+001 5.000000e+000
    endloop
  endfacet
  facet normal -0.000000e+000 0.000000e+000 3.529140e-002
    outer loop
      vertex   -5.320994e+001 2.815378e+001 5.000000e+000
      vertex   -4.668076e+001 2.803853e+001 5.000000e+000
      vertex   -4.690337e+001 2.826509e+001 5.000000e+000
    endloop
  endfacet
  facet normal 0.000000e+000 0.000000e+000 6.752288e-001
    outer loop
      vertex   -5.320994e+001 2.815378e+001 5.000000e+000
      vertex   -4.690337e+001 2.826509e+001 5.000000e+000
      vertex   -5.297948e+001 2.837235e+001 5.000000e+000
    endloop
  endfacet
  facet normal -0.000000e+000 0.000000e+000 3.529151e-002
    outer loop
      vertex   -5.297948e+001 2.837235e+001 5.000000e+000
      vertex   -4.690337e+001 2.826509e+001 5.000000e+000
      vertex   -4.714140e+001 2.847540e+001 5.000000e+000
    endloop
  endfacet
  facet normal 0.000000e+000 0.000000e+000 6.215162e-001
    outer loop
      vertex   -5.297948e+001 2.837235e+001 5.000000e+000
      vertex   -4.714140e+001 2.847540e+001 5.000000e+000
      vertex   -5.273417e+001 2.857412e+001 5.000000e+000
    endloop
  endfacet
  facet normal -0.000000e+000 0.000000e+000 3.529174e-002
    outer loop
      vertex   -5.273417e+001 2.857412e+001 5.000000e+000
      vertex   -4.714140e+001 2.847540e+001 5.000000e+000
      vertex   -4.739367e+001 2.866838e+001 5.000000e+000
    endloop
  endfacet
  facet normal 0.000000e+000 0.000000e+000 5.647044e-001
    outer loop
      vertex   -5.273417e+001 2.857412e+001 5.000000e+000
      vertex   -4.739367e+001 2.866838e+001 5.000000e+000
      vertex   -5.247525e+001 2.875808e+001 5.000000e+000
    endloop
  endfacet
  facet normal -0.000000e+000 0.000000e+000 3.529130e-002
    outer loop
      vertex   -5.247525e+001 2.875808e+001 5.000000e+000
      vertex   -4.739367e+001 2.866838e+001 5.000000e+000
      vertex   -4.765892e+001 2.884309e+001 5.000000e+000
    endloop
  endfacet
  facet normal 0.000000e+000 0.000000e+000 5.050905e-001
    outer loop
      vertex   -5.247525e+001 2.875808e+001 5.000000e+000
      vertex   -4.765892e+001 2.884309e+001 5.000000e+000
      vertex   -5.220399e+001 2.892332e+001 5.000000e+000
    endloop
  endfacet
  facet normal -0.000000e+000 0.000000e+000 3.529127e-002
    outer loop
      vertex   -5.220399e+001 2.892332e+001 5.000000e+000
      vertex   -4.765892e+001 2.884309e+001 5.000000e+000
      vertex   -4.793584e+001 2.899866e+001 5.000000e+000
    endloop
  endfacet
  facet normal 0.000000e+000 0.000000e+000 4.429432e-001
    outer loop
      vertex   -5.220399e+001 2.892332e+001 5.000000e+000
      vertex   -4.793584e+001 2.899866e+001 5.000000e+000
      vertex   -5.192175e+001 2.906901e+001 5.000000e+000
    endloop
  endfacet
  facet normal -0.000000e+000 0.000000e+000 3.529147e-002
    outer loop
      vertex   -5.192175e+001 2.906901e+001 5.000000e+000
      vertex   -4.793584e+001 2.899866e+001 5.000000e+000
      vertex   -4.822305e+001 2.913430e+001 5.000000e+000
    endloop
  endfacet
  facet normal 0.000000e+000 0.000000e+000 3.786073e-001
    outer loop
      vertex   -5.192175e+001 2.906901e+001 5.000000e+000
      vertex   -4.822305e+001 2.913430e+001 5.000000e+000
      vertex   -5.162994e+001 2.919444e+001 5.000000e+000
    endloop
  endfacet
  facet normal -0.000000e+000 0.000000e+000 3.529185e-002
    outer loop
      vertex   -5.162994e+001 2.919444e+001 5.000000e+000
      vertex   -4.822305e+001 2.913430e+001 5.000000e+000
      vertex   -4.851910e+001 2.924935e+001 5.000000e+000
    endloop
  endfacet
  facet normal 0.000000e+000 0.000000e+000 3.123735e-001
    outer loop
      vertex   -5.162994e+001 2.919444e+001 5.000000e+000
      vertex   -4.851910e+001 2.924935e+001 5.000000e+000
      vertex   -5.133001e+001 2.929896e+001 5.000000e+000
    endloop
  endfacet
  facet normal -0.000000e+000 0.000000e+000 3.529135e-002
    outer loop
      vertex   -5.133001e+001 2.929896e+001 5.000000e+000
      vertex   -4.851910e+001 2.924935e+001 5.000000e+000
      vertex   -4.882253e+001 2.934322e+001 5.000000e+000
    endloop
  endfacet
  facet normal 0.000000e+000 0.000000e+000 2.445819e-001
    outer loop
      vertex   -5.133001e+001 2.929896e+001 5.000000e+000
      vertex   -4.882253e+001 2.934322e+001 5.000000e+000
      vertex   -5.102345e+001 2.938207e+001 5.000000e+000
    endloop
  endfacet
  facet normal -0.000000e+000 0.000000e+000 3.529176e-002
    outer loop
      vertex   -5.102345e+001 2.938207e+001 5.000000e+000
      vertex   -4.882253e+001 2.934322e+001 5.000000e+000
      vertex   -4.913183e+001 2.941546e+001 5.000000e+000
    endloop
  endfacet
  facet normal 0.000000e+000 0.000000e+000 1.755793e-001
    outer loop
      vertex   -5.102345e+001 2.938207e+001 5.000000e+000
      vertex   -4.913183e+001 2.941546e+001 5.000000e+000
      vertex   -5.071180e+001 2.944335e+001 5.000000e+000
    endloop
  endfacet
  facet normal -0.000000e+000 0.000000e+000 3.529060e-002
    outer loop
      vertex   -5.071180e+001 2.944335e+001 5.000000e+000
      vertex   -4.913183e+001 2.941546e+001 5.000000e+000
      vertex   -4.944546e+001 2.946570e+001 5.000000e+000
    endloop
  endfacet
  facet normal 0.000000e+000 0.000000e+000 1.056962e-001
    outer loop
      vertex   -5.071180e+001 2.944335e+001 5.000000e+000
      vertex   -4.944546e+001 2.946570e+001 5.000000e+000
      vertex   -5.039660e+001 2.948249e+001 5.000000e+000
    endloop
  endfacet
  facet normal -0.000000e+000 0.000000e+000 3.529362e-002
    outer loop
      vertex   -5.039660e+001 2.948249e+001 5.000000e+000
      vertex   -4.944546e+001 2.946570e+001 5.000000e+000
      vertex   -4.976184e+001 2.949369e+001 5.000000e+000
    endloop
  endfacet
  facet normal 0.000000e+000 0.000000e+000 3.529443e-002
    outer loop
      vertex   -5.039660e+001 2.948249e+001 5.000000e+000
      vertex   -4.976184e+001 2.949369e+001 5.000000e+000
      vertex   -5.007942e+001 2.949930e+001 5.000000e+000
    endloop
  endfacet
  facet normal 0.000000e+000 0.000000e+000 9.961091e-001
    outer loop
      vertex   -4.550280e+001 2.484119e+001 5.000000e+000
      vertex   -5.448879e+001 2.468258e+001 5.000000e+000
      vertex   -4.552521e+001 2.452436e+001 5.000000e+000
    endloop
  endfacet
  facet normal 0.000000e+000 0.000000e+000 3.529142e-002
    outer loop
      vertex   -4.552521e+001 2.452436e+001 5.000000e+000
      vertex   -5.448879e+001 2.468258e+001 5.000000e+000
      vertex   -5.445522e+001 2.436673e+001 5.000000e+000
    endloop
  endfacet
  facet normal 0.000000e+000 0.000000e+000 9.874113e-001
    outer loop
      vertex   -4.552521e+001 2.452436e+001 5.000000e+000
      vertex   -5.445522e+001 2.436673e+001 5.000000e+000
      vertex   -4.556990e+001 2.420989e+001 5.000000e+000
    endloop
  endfacet
  facet normal 0.000000e+000 0.000000e+000 3.529165e-002
    outer loop
      vertex   -4.556990e+001 2.420989e+001 5.000000e+000
      vertex   -5.445522e+001 2.436673e+001 5.000000e+000
      vertex   -5.439945e+001 2.405404e+001 5.000000e+000
    endloop
  endfacet
  facet normal 0.000000e+000 0.000000e+000 9.737933e-001
    outer loop
      vertex   -4.556990e+001 2.420989e+001 5.000000e+000
      vertex   -5.439945e+001 2.405404e+001 5.000000e+000
      vertex   -4.563667e+001 2.389937e+001 5.000000e+000
    endloop
  endfacet
  facet normal 0.000000e+000 0.000000e+000 3.529139e-002
    outer loop
      vertex   -4.563667e+001 2.389937e+001 5.000000e+000
      vertex   -5.439945e+001 2.405404e+001 5.000000e+000
      vertex   -5.432177e+001 2.374607e+001 5.000000e+000
    endloop
  endfacet
  facet normal 0.000000e+000 0.000000e+000 9.553226e-001
    outer loop
      vertex   -4.563667e+001 2.389937e+001 5.000000e+000
      vertex   -5.432177e+001 2.374607e+001 5.000000e+000
      vertex   -4.572518e+001 2.359433e+001 5.000000e+000
    endloop
  endfacet
  facet normal 0.000000e+000 0.000000e+000 3.529146e-002
    outer loop
      vertex   -4.572518e+001 2.359433e+001 5.000000e+000
      vertex   -5.432177e+001 2.374607e+001 5.000000e+000
      vertex   -5.422255e+001 2.344434e+001 5.000000e+000
    endloop
  endfacet
  facet normal 0.000000e+000 0.000000e+000 9.320980e-001
    outer loop
      vertex   -4.572518e+001 2.359433e+001 5.000000e+000
      vertex   -5.422255e+001 2.344434e+001 5.000000e+000
      vertex   -4.583498e+001 2.329629e+001 5.000000e+000
    endloop
  endfacet
  facet normal 0.000000e+000 0.000000e+000 3.529154e-002
    outer loop
      vertex   -4.583498e+001 2.329629e+001 5.000000e+000
      vertex   -5.422255e+001 2.344434e+001 5.000000e+000
      vertex   -5.410229e+001 2.315036e+001 5.000000e+000
    endloop
  endfacet
  facet normal 0.000000e+000 0.000000e+000 9.042241e-001
    outer loop
      vertex   -4.583498e+001 2.329629e+001 5.000000e+000
      vertex   -5.410229e+001 2.315036e+001 5.000000e+000
      vertex   -4.596554e+001 2.300673e+001 5.000000e+000
    endloop
  endfacet
  facet normal 0.000000e+000 0.000000e+000 3.529136e-002
    outer loop
      vertex   -4.596554e+001 2.300673e+001 5.000000e+000
      vertex   -5.410229e+001 2.315036e+001 5.000000e+000
      vertex   -5.396161e+001 2.286559e+001 5.000000e+000
    endloop
  endfacet
  facet normal 0.000000e+000 0.000000e+000 8.718466e-001
    outer loop
      vertex   -4.596554e+001 2.300673e+001 5.000000e+000
      vertex   -5.396161e+001 2.286559e+001 5.000000e+000
      vertex   -4.611619e+001 2.272711e+001 5.000000e+000
    endloop
  endfacet
  facet normal 0.000000e+000 0.000000e+000 3.529136e-002
    outer loop
      vertex   -4.611619e+001 2.272711e+001 5.000000e+000
      vertex   -5.396161e+001 2.286559e+001 5.000000e+000
      vertex   -5.380118e+001 2.259146e+001 5.000000e+000
    endloop
  endfacet
  facet normal 0.000000e+000 0.000000e+000 8.351344e-001
    outer loop
      vertex   -4.611619e+001 2.272711e+001 5.000000e+000
      vertex   -5.380118e+001 2.259146e+001 5.000000e+000
      vertex   -4.628619e+001 2.245881e+001 5.000000e+000
    endloop
  endfacet
  facet normal 0.000000e+000 0.000000e+000 3.529161e-002
    outer loop
      vertex   -4.628619e+001 2.245881e+001 5.000000e+000
      vertex   -5.380118e+001 2.259146e+001 5.000000e+000
      vertex   -5.362181e+001 2.232933e+001 5.000000e+000
    endloop
  endfacet
  facet normal 0.000000e+000 0.000000e+000 7.942426e-001
    outer loop
      vertex   -4.628619e+001 2.245881e+001 5.000000e+000
      vertex   -5.362181e+001 2.232933e+001 5.000000e+000
      vertex   -4.647470e+001 2.220317e+001 5.000000e+000
    endloop
  endfacet
  facet normal 0.000000e+000 0.000000e+000 3.529130e-002
    outer loop
      vertex   -4.647470e+001 2.220317e+001 5.000000e+000
      vertex   -5.362181e+001 2.232933e+001 5.000000e+000
      vertex   -5.342440e+001 2.208051e+001 5.000000e+000
    endloop
  endfacet
  facet normal 0.000000e+000 0.000000e+000 7.494091e-001
    outer loop
      vertex   -4.647470e+001 2.220317e+001 5.000000e+000
      vertex   -5.342440e+001 2.208051e+001 5.000000e+000
      vertex   -4.668076e+001 2.196147e+001 5.000000e+000
    endloop
  endfacet
  facet normal 0.000000e+000 0.000000e+000 3.529147e-002
    outer loop
      vertex   -4.668076e+001 2.196147e+001 5.000000e+000
      vertex   -5.342440e+001 2.208051e+001 5.000000e+000
      vertex   -5.320994e+001 2.184622e+001 5.000000e+000
    endloop
  endfacet
  facet normal 0.000000e+000 0.000000e+000 7.008387e-001
    outer loop
      vertex   -4.668076e+001 2.196147e+001 5.000000e+000
      vertex   -5.320994e+001 2.184622e+001 5.000000e+000
      vertex   -4.690337e+001 2.173491e+001 5.000000e+000
    endloop
  endfacet
  facet normal 0.000000e+000 0.000000e+000 3.529165e-002
    outer loop
      vertex   -4.690337e+001 2.173491e+001 5.000000e+000
      vertex   -5.320994e+001 2.184622e+001 5.000000e+000
      vertex   -5.297948e+001 2.162765e+001 5.000000e+000
    endloop
  endfacet
  facet normal 0.000000e+000 0.000000e+000 6.487781e-001
    outer loop
      vertex   -4.690337e+001 2.173491e+001 5.000000e+000
      vertex   -5.297948e+001 2.162765e+001 5.000000e+000
      vertex   -4.714140e+001 2.152460e+001 5.000000e+000
    endloop
  endfacet
  facet normal 0.000000e+000 0.000000e+000 3.529150e-002
    outer loop
      vertex   -4.714140e+001 2.152460e+001 5.000000e+000
      vertex   -5.297948e+001 2.162765e+001 5.000000e+000
      vertex   -5.273417e+001 2.142588e+001 5.000000e+000
    endloop
  endfacet
  facet normal 0.000000e+000 0.000000e+000 5.934877e-001
    outer loop
      vertex   -4.714140e+001 2.152460e+001 5.000000e+000
      vertex   -5.273417e+001 2.142588e+001 5.000000e+000
      vertex   -4.739367e+001 2.133162e+001 5.000000e+000
    endloop
  endfacet
  facet normal 0.000000e+000 0.000000e+000 3.529130e-002
    outer loop
      vertex   -4.739367e+001 2.133162e+001 5.000000e+000
      vertex   -5.273417e+001 2.142588e+001 5.000000e+000
      vertex   -5.247525e+001 2.124192e+001 5.000000e+000
    endloop
  endfacet
  facet normal 0.000000e+000 0.000000e+000 5.352249e-001
    outer loop
      vertex   -4.739367e+001 2.133162e+001 5.000000e+000
      vertex   -5.247525e+001 2.124192e+001 5.000000e+000
      vertex   -4.765892e+001 2.115691e+001 5.000000e+000
    endloop
  endfacet
  facet normal 0.000000e+000 0.000000e+000 3.529173e-002
    outer loop
      vertex   -4.765892e+001 2.115691e+001 5.000000e+000
      vertex   -5.247525e+001 2.124192e+001 5.000000e+000
      vertex   -5.220399e+001 2.107668e+001 5.000000e+000
    endloop
  endfacet
  facet normal 0.000000e+000 0.000000e+000 4.743144e-001
    outer loop
      vertex   -4.765892e+001 2.115691e+001 5.000000e+000
      vertex   -5.220399e+001 2.107668e+001 5.000000e+000
      vertex   -4.793584e+001 2.100134e+001 5.000000e+000
    endloop
  endfacet
  facet normal 0.000000e+000 0.000000e+000 3.529111e-002
    outer loop
      vertex   -4.793584e+001 2.100134e+001 5.000000e+000
      vertex   -5.220399e+001 2.107668e+001 5.000000e+000
      vertex   -5.192175e+001 2.093099e+001 5.000000e+000
    endloop
  endfacet
  facet normal 0.000000e+000 0.000000e+000 4.110293e-001
    outer loop
      vertex   -4.793584e+001 2.100134e+001 5.000000e+000
      vertex   -5.192175e+001 2.093099e+001 5.000000e+000
      vertex   -4.822305e+001 2.086570e+001 5.000000e+000
    endloop
  endfacet
  facet normal 0.000000e+000 0.000000e+000 3.529169e-002
    outer loop
      vertex   -4.822305e+001 2.086570e+001 5.000000e+000
      vertex   -5.192175e+001 2.093099e+001 5.000000e+000
      vertex   -5.162994e+001 2.080556e+001 5.000000e+000
    endloop
  endfacet
  facet normal 0.000000e+000 0.000000e+000 3.457071e-001
    outer loop
      vertex   -4.822305e+001 2.086570e+001 5.000000e+000
      vertex   -5.162994e+001 2.080556e+001 5.000000e+000
      vertex   -4.851910e+001 2.075065e+001 5.000000e+000
    endloop
  endfacet
  facet normal 0.000000e+000 0.000000e+000 3.529153e-002
    outer loop
      vertex   -4.851910e+001 2.075065e+001 5.000000e+000
      vertex   -5.162994e+001 2.080556e+001 5.000000e+000
      vertex   -5.133001e+001 2.070104e+001 5.000000e+000
    endloop
  endfacet
  facet normal 0.000000e+000 0.000000e+000 2.786522e-001
    outer loop
      vertex   -4.851910e+001 2.075065e+001 5.000000e+000
      vertex   -5.133001e+001 2.070104e+001 5.000000e+000
      vertex   -4.882253e+001 2.065678e+001 5.000000e+000
    endloop
  endfacet
  facet normal 0.000000e+000 0.000000e+000 3.529140e-002
    outer loop
      vertex   -4.882253e+001 2.065678e+001 5.000000e+000
      vertex   -5.133001e+001 2.070104e+001 5.000000e+000
      vertex   -5.102345e+001 2.061793e+001 5.000000e+000
    endloop
  endfacet
  facet normal 0.000000e+000 0.000000e+000 2.102144e-001
    outer loop
      vertex   -4.882253e+001 2.065678e+001 5.000000e+000
      vertex   -5.102345e+001 2.061793e+001 5.000000e+000
      vertex   -4.913183e+001 2.058454e+001 5.000000e+000
    endloop
  endfacet
  facet normal 0.000000e+000 0.000000e+000 3.529114e-002
    outer loop
      vertex   -4.913183e+001 2.058454e+001 5.000000e+000
      vertex   -5.102345e+001 2.061793e+001 5.000000e+000
      vertex   -5.071180e+001 2.055665e+001 5.000000e+000
    endloop
  endfacet
  facet normal 0.000000e+000 0.000000e+000 1.407229e-001
    outer loop
      vertex   -4.913183e+001 2.058454e+001 5.000000e+000
      vertex   -5.071180e+001 2.055665e+001 5.000000e+000
      vertex   -4.944546e+001 2.053430e+001 5.000000e+000
    endloop
  endfacet
  facet normal 0.000000e+000 0.000000e+000 3.529097e-002
    outer loop
      vertex   -4.944546e+001 2.053430e+001 5.000000e+000
      vertex   -5.071180e+001 2.055665e+001 5.000000e+000
      vertex   -5.039660e+001 2.051751e+001 5.000000e+000
    endloop
  endfacet
  facet normal 0.000000e+000 0.000000e+000 7.054311e-002
    outer loop
      vertex   -4.944546e+001 2.053430e+001 5.000000e+000
      vertex   -5.039660e+001 2.051751e+001 5.000000e+000
      vertex   -4.976184e+001 2.050631e+001 5.000000e+000
    endloop
  endfacet
  facet normal 0.000000e+000 0.000000e+000 3.529432e-002
    outer loop
      vertex   -4.976184e+001 2.050631e+001 5.000000e+000
      vertex   -5.039660e+001 2.051751e+001 5.000000e+000
      vertex   -5.007942e+001 2.050070e+001 5.000000e+000
    endloop
  endfacet
  facet normal 0.000000e+000 -0.000000e+000 -9.998444e-001
    outer loop
      vertex   -5.448879e+001 2.531742e+001 0.000000e+000
      vertex   -4.550280e+001 2.515881e+001 0.000000e+000
      vertex   -5.450000e+001 2.500000e+001 0.000000e+000
    endloop
  endfacet
  facet normal 0.000000e+000 0.000000e+000 -3.529146e-002
    outer loop
      vertex   -5.450000e+001 2.500000e+001 0.000000e+000
      vertex   -4.550280e+001 2.515881e+001 0.000000e+000
      vertex   -4.550280e+001 2.484119e+001 0.000000e+000
    endloop
  endfacet
  facet normal 0.000000e+000 0.000000e+000 -9.985989e-001
    outer loop
      vertex   -5.450000e+001 2.500000e+001 0.000000e+000
      vertex   -4.550280e+001 2.484119e+001 0.000000e+000
      vertex   -5.448879e+001 2.468258e+001 0.000000e+000
    endloop
  endfacet
  facet normal 0.000000e+000 0.000000e+000 -3.529141e-002
    outer loop
      vertex   -5.448879e+001 2.468258e+001 0.000000e+000
      vertex   -4.550280e+001 2.484119e+001 0.000000e+000
      vertex   -4.552521e+001 2.452436e+001 0.000000e+000
    endloop
  endfacet
  facet normal 0.000000e+000 0.000000e+000 -9.923776e-001
    outer loop
      vertex   -5.448879e+001 2.468258e+001 0.000000e+000
      vertex   -4.552521e+001 2.452436e+001 0.000000e+000
      vertex   -5.445522e+001 2.436673e+001 0.000000e+000
    endloop
  endfacet
  facet normal 0.000000e+000 0.000000e+000 -3.529149e-002
    outer loop
      vertex   -5.445522e+001 2.436673e+001 0.000000e+000
      vertex   -4.552521e+001 2.452436e+001 0.000000e+000
      vertex   -4.556990e+001 2.420989e+001 0.000000e+000
    endloop
  endfacet
  facet normal 0.000000e+000 0.000000e+000 -9.812140e-001
    outer loop
      vertex   -5.445522e+001 2.436673e+001 0.000000e+000
      vertex   -4.556990e+001 2.420989e+001 0.000000e+000
      vertex   -5.439945e+001 2.405404e+001 0.000000e+000
    endloop
  endfacet
  facet normal 0.000000e+000 0.000000e+000 -3.529143e-002
    outer loop
      vertex   -5.439945e+001 2.405404e+001 0.000000e+000
      vertex   -4.556990e+001 2.420989e+001 0.000000e+000
      vertex   -4.563667e+001 2.389937e+001 0.000000e+000
    endloop
  endfacet
  facet normal 0.000000e+000 0.000000e+000 -9.651598e-001
    outer loop
      vertex   -5.439945e+001 2.405404e+001 0.000000e+000
      vertex   -4.563667e+001 2.389937e+001 0.000000e+000
      vertex   -5.432177e+001 2.374607e+001 0.000000e+000
    endloop
  endfacet
  facet normal 0.000000e+000 0.000000e+000 -3.529140e-002
    outer loop
      vertex   -5.432177e+001 2.374607e+001 0.000000e+000
      vertex   -4.563667e+001 2.389937e+001 0.000000e+000
      vertex   -4.572518e+001 2.359433e+001 0.000000e+000
    endloop
  endfacet
  facet normal 0.000000e+000 0.000000e+000 -9.442992e-001
    outer loop
      vertex   -5.432177e+001 2.374607e+001 0.000000e+000
      vertex   -4.572518e+001 2.359433e+001 0.000000e+000
      vertex   -5.422255e+001 2.344434e+001 0.000000e+000
    endloop
  endfacet
  facet normal 0.000000e+000 0.000000e+000 -3.529153e-002
    outer loop
      vertex   -5.422255e+001 2.344434e+001 0.000000e+000
      vertex   -4.572518e+001 2.359433e+001 0.000000e+000
      vertex   -4.583498e+001 2.329629e+001 0.000000e+000
    endloop
  endfacet
  facet normal 0.000000e+000 0.000000e+000 -9.187319e-001
    outer loop
      vertex   -5.422255e+001 2.344434e+001 0.000000e+000
      vertex   -4.583498e+001 2.329629e+001 0.000000e+000
      vertex   -5.410229e+001 2.315036e+001 0.000000e+000
    endloop
  endfacet
  facet normal 0.000000e+000 0.000000e+000 -3.529155e-002
    outer loop
      vertex   -5.410229e+001 2.315036e+001 0.000000e+000
      vertex   -4.583498e+001 2.329629e+001 0.000000e+000
      vertex   -4.596554e+001 2.300673e+001 0.000000e+000
    endloop
  endfacet
  facet normal 0.000000e+000 0.000000e+000 -8.885907e-001
    outer loop
      vertex   -5.410229e+001 2.315036e+001 0.000000e+000
      vertex   -4.596554e+001 2.300673e+001 0.000000e+000
      vertex   -5.396161e+001 2.286559e+001 0.000000e+000
    endloop
  endfacet
  facet normal 0.000000e+000 0.000000e+000 -3.529140e-002
    outer loop
      vertex   -5.396161e+001 2.286559e+001 0.000000e+000
      vertex   -4.596554e+001 2.300673e+001 0.000000e+000
      vertex   -4.611619e+001 2.272711e+001 0.000000e+000
    endloop
  endfacet
  facet normal 0.000000e+000 0.000000e+000 -8.540198e-001
    outer loop
      vertex   -5.396161e+001 2.286559e+001 0.000000e+000
      vertex   -4.611619e+001 2.272711e+001 0.000000e+000
      vertex   -5.380118e+001 2.259146e+001 0.000000e+000
    endloop
  endfacet
  facet normal 0.000000e+000 0.000000e+000 -3.529158e-002
    outer loop
      vertex   -5.380118e+001 2.259146e+001 0.000000e+000
      vertex   -4.611619e+001 2.272711e+001 0.000000e+000
      vertex   -4.628619e+001 2.245881e+001 0.000000e+000
    endloop
  endfacet
  facet normal 0.000000e+000 0.000000e+000 -8.151930e-001
    outer loop
      vertex   -5.380118e+001 2.259146e+001 0.000000e+000
      vertex   -4.628619e+001 2.245881e+001 0.000000e+000
      vertex   -5.362181e+001 2.232933e+001 0.000000e+000
    endloop
  endfacet
  facet normal 0.000000e+000 0.000000e+000 -3.529147e-002
    outer loop
      vertex   -5.362181e+001 2.232933e+001 0.000000e+000
      vertex   -4.628619e+001 2.245881e+001 0.000000e+000
      vertex   -4.647470e+001 2.220317e+001 0.000000e+000
    endloop
  endfacet
  facet normal 0.000000e+000 0.000000e+000 -7.723106e-001
    outer loop
      vertex   -5.362181e+001 2.232933e+001 0.000000e+000
      vertex   -4.647470e+001 2.220317e+001 0.000000e+000
      vertex   -5.342440e+001 2.208051e+001 0.000000e+000
    endloop
  endfacet
  facet normal 0.000000e+000 0.000000e+000 -3.529127e-002
    outer loop
      vertex   -5.342440e+001 2.208051e+001 0.000000e+000
      vertex   -4.647470e+001 2.220317e+001 0.000000e+000
      vertex   -4.668076e+001 2.196147e+001 0.000000e+000
    endloop
  endfacet
  facet normal 0.000000e+000 0.000000e+000 -7.255803e-001
    outer loop
      vertex   -5.342440e+001 2.208051e+001 0.000000e+000
      vertex   -4.668076e+001 2.196147e+001 0.000000e+000
      vertex   -5.320994e+001 2.184622e+001 0.000000e+000
    endloop
  endfacet
  facet normal 0.000000e+000 0.000000e+000 -3.529140e-002
    outer loop
      vertex   -5.320994e+001 2.184622e+001 0.000000e+000
      vertex   -4.668076e+001 2.196147e+001 0.000000e+000
      vertex   -4.690337e+001 2.173491e+001 0.000000e+000
    endloop
  endfacet
  facet normal 0.000000e+000 0.000000e+000 -6.752288e-001
    outer loop
      vertex   -5.320994e+001 2.184622e+001 0.000000e+000
      vertex   -4.690337e+001 2.173491e+001 0.000000e+000
      vertex   -5.297948e+001 2.162765e+001 0.000000e+000
    endloop
  endfacet
  facet normal 0.000000e+000 0.000000e+000 -3.529151e-002
    outer loop
      vertex   -5.297948e+001 2.162765e+001 0.000000e+000
      vertex   -4.690337e+001 2.173491e+001 0.000000e+000
      vertex   -4.714140e+001 2.152460e+001 0.000000e+000
    endloop
  endfacet
  facet normal 0.000000e+000 0.000000e+000 -6.215162e-001
    outer loop
      vertex   -5.297948e+001 2.162765e+001 0.000000e+000
      vertex   -4.714140e+001 2.152460e+001 0.000000e+000
      vertex   -5.273417e+001 2.142588e+001 0.000000e+000
    endloop
  endfacet
  facet normal 0.000000e+000 0.000000e+000 -3.529174e-002
    outer loop
      vertex   -5.273417e+001 2.142588e+001 0.000000e+000
      vertex   -4.714140e+001 2.152460e+001 0.000000e+000
      vertex   -4.739367e+001 2.133162e+001 0.000000e+000
    endloop
  endfacet
  facet normal 0.000000e+000 0.000000e+000 -5.647044e-001
    outer loop
      vertex   -5.273417e+001 2.142588e+001 0.000000e+000
      vertex   -4.739367e+001 2.133162e+001 0.000000e+000
      vertex   -5.247525e+001 2.124192e+001 0.000000e+000
    endloop
  endfacet
  facet normal 0.000000e+000 0.000000e+000 -3.529130e-002
    outer loop
      vertex   -5.247525e+001 2.124192e+001 0.000000e+000
      vertex   -4.739367e+001 2.133162e+001 0.000000e+000
      vertex   -4.765892e+001 2.115691e+001 0.000000e+000
    endloop
  endfacet
  facet normal 0.000000e+000 0.000000e+000 -5.050905e-001
    outer loop
      vertex   -5.247525e+001 2.124192e+001 0.000000e+000
      vertex   -4.765892e+001 2.115691e+001 0.000000e+000
      vertex   -5.220399e+001 2.107668e+001 0.000000e+000
    endloop
  endfacet
  facet normal 0.000000e+000 0.000000e+000 -3.529127e-002
    outer loop
      vertex   -5.220399e+001 2.107668e+001 0.000000e+000
      vertex   -4.765892e+001 2.115691e+001 0.000000e+000
      vertex   -4.793584e+001 2.100134e+001 0.000000e+000
    endloop
  endfacet
  facet normal 0.000000e+000 0.000000e+000 -4.429432e-001
    outer loop
      vertex   -5.220399e+001 2.107668e+001 0.000000e+000
      vertex   -4.793584e+001 2.100134e+001 0.000000e+000
      vertex   -5.192175e+001 2.093099e+001 0.000000e+000
    endloop
  endfacet
  facet normal 0.000000e+000 0.000000e+000 -3.529147e-002
    outer loop
      vertex   -5.192175e+001 2.093099e+001 0.000000e+000
      vertex   -4.793584e+001 2.100134e+001 0.000000e+000
      vertex   -4.822305e+001 2.086570e+001 0.000000e+000
    endloop
  endfacet
  facet normal 0.000000e+000 0.000000e+000 -3.786073e-001
    outer loop
      vertex   -5.192175e+001 2.093099e+001 0.000000e+000
      vertex   -4.822305e+001 2.086570e+001 0.000000e+000
      vertex   -5.162994e+001 2.080556e+001 0.000000e+000
    endloop
  endfacet
  facet normal 0.000000e+000 0.000000e+000 -3.529185e-002
    outer loop
      vertex   -5.162994e+001 2.080556e+001 0.000000e+000
      vertex   -4.822305e+001 2.086570e+001 0.000000e+000
      vertex   -4.851910e+001 2.075065e+001 0.000000e+000
    endloop
  endfacet
  facet normal 0.000000e+000 0.000000e+000 -3.123735e-001
    outer loop
      vertex   -5.162994e+001 2.080556e+001 0.000000e+000
      vertex   -4.851910e+001 2.075065e+001 0.000000e+000
      vertex   -5.133001e+001 2.070104e+001 0.000000e+000
    endloop
  endfacet
  facet normal 0.000000e+000 0.000000e+000 -3.529135e-002
    outer loop
      vertex   -5.133001e+001 2.070104e+001 0.000000e+000
      vertex   -4.851910e+001 2.075065e+001 0.000000e+000
      vertex   -4.882253e+001 2.065678e+001 0.000000e+000
    endloop
  endfacet
  facet normal 0.000000e+000 0.000000e+000 -2.445819e-001
    outer loop
      vertex   -5.133001e+001 2.070104e+001 0.000000e+000
      vertex   -4.882253e+001 2.065678e+001 0.000000e+000
      vertex   -5.102345e+001 2.061793e+001 0.000000e+000
    endloop
  endfacet
  facet normal 0.000000e+000 0.000000e+000 -3.529176e-002
    outer loop
      vertex   -5.102345e+001 2.061793e+001 0.000000e+000
      vertex   -4.882253e+001 2.065678e+001 0.000000e+000
      vertex   -4.913183e+001 2.058454e+001 0.000000e+000
    endloop
  endfacet
  facet normal 0.000000e+000 0.000000e+000 -1.755793e-001
    outer loop
      vertex   -5.102345e+001 2.061793e+001 0.000000e+000
      vertex   -4.913183e+001 2.058454e+001 0.000000e+000
      vertex   -5.071180e+001 2.055665e+001 0.000000e+000
    endloop
  endfacet
  facet normal 0.000000e+000 0.000000e+000 -3.529060e-002
    outer loop
      vertex   -5.071180e+001 2.055665e+001 0.000000e+000
      vertex   -4.913183e+001 2.058454e+001 0.000000e+000
      vertex   -4.944546e+001 2.053430e+001 0.000000e+000
    endloop
  endfacet
  facet normal 0.000000e+000 0.000000e+000 -1.056962e-001
    outer loop
      vertex   -5.071180e+001 2.055665e+001 0.000000e+000
      vertex   -4.944546e+001 2.053430e+001 0.000000e+000
      vertex   -5.039660e+001 2.051751e+001 0.000000e+000
    endloop
  endfacet
  facet normal 0.000000e+000 0.000000e+000 -3.529362e-002
    outer loop
      vertex   -5.039660e+001 2.051751e+001 0.000000e+000
      vertex   -4.944546e+001 2.053430e+001 0.000000e+000
      vertex   -4.976184e+001 2.050631e+001 0.000000e+000
    endloop
  endfacet
  facet normal 0.000000e+000 0.000000e+000 -3.529443e-002
    outer loop
      vertex   -5.039660e+001 2.051751e+001 0.000000e+000
      vertex   -4.976184e+001 2.050631e+001 0.000000e+000
      vertex   -5.007942e+001 2.050070e+001 0.000000e+000
    endloop
  endfacet
  facet normal 0.000000e+000 0.000000e+000 -9.961091e-001
    outer loop
      vertex   -4.550280e+001 2.515881e+001 0.000000e+000
      vertex   -5.448879e+001 2.531742e+001 0.000000e+000
      vertex   -4.552521e+001 2.547564e+001 0.000000e+000
    endloop
  endfacet
  facet normal -0.000000e+000 0.000000e+000 -3.529142e-002
    outer loop
      vertex   -4.552521e+001 2.547564e+001 0.000000e+000
      vertex   -5.448879e+001 2.531742e+001 0.000000e+000
      vertex   -5.445522e+001 2.563327e+001 0.000000e+000
    endloop
  endfacet
  facet normal 0.000000e+000 0.000000e+000 -9.874113e-001
    outer loop
      vertex   -4.552521e+001 2.547564e+001 0.000000e+000
      vertex   -5.445522e+001 2.563327e+001 0.000000e+000
      vertex   -4.556990e+001 2.579011e+001 0.000000e+000
    endloop
  endfacet
  facet normal -0.000000e+000 0.000000e+000 -3.529165e-002
    outer loop
      vertex   -4.556990e+001 2.579011e+001 0.000000e+000
      vertex   -5.445522e+001 2.563327e+001 0.000000e+000
      vertex   -5.439945e+001 2.594596e+001 0.000000e+000
    endloop
  endfacet
  facet normal 0.000000e+000 0.000000e+000 -9.737933e-001
    outer loop
      vertex   -4.556990e+001 2.579011e+001 0.000000e+000
      vertex   -5.439945e+001 2.594596e+001 0.000000e+000
      vertex   -4.563667e+001 2.610063e+001 0.000000e+000
    endloop
  endfacet
  facet normal -0.000000e+000 0.000000e+000 -3.529139e-002
    outer loop
      vertex   -4.563667e+001 2.610063e+001 0.000000e+000
      vertex   -5.439945e+001 2.594596e+001 0.000000e+000
      vertex   -5.432177e+001 2.625393e+001 0.000000e+000
    endloop
  endfacet
  facet normal 0.000000e+000 0.000000e+000 -9.553226e-001
    outer loop
      vertex   -4.563667e+001 2.610063e+001 0.000000e+000
      vertex   -5.432177e+001 2.625393e+001 0.000000e+000
      vertex   -4.572518e+001 2.640567e+001 0.000000e+000
    endloop
  endfacet
  facet normal -0.000000e+000 0.000000e+000 -3.529146e-002
    outer loop
      vertex   -4.572518e+001 2.640567e+001 0.000000e+000
      vertex   -5.432177e+001 2.625393e+001 0.000000e+000
      vertex   -5.422255e+001 2.655566e+001 0.000000e+000
    endloop
  endfacet
  facet normal 0.000000e+000 0.000000e+000 -9.320980e-001
    outer loop
      vertex   -4.572518e+001 2.640567e+001 0.000000e+000
      vertex   -5.422255e+001 2.655566e+001 0.000000e+000
      vertex   -4.583498e+001 2.670371e+001 0.000000e+000
    endloop
  endfacet
  facet normal -0.000000e+000 0.000000e+000 -3.529154e-002
    outer loop
      vertex   -4.583498e+001 2.670371e+001 0.000000e+000
      vertex   -5.422255e+001 2.655566e+001 0.000000e+000
      vertex   -5.410229e+001 2.684964e+001 0.000000e+000
    endloop
  endfacet
  facet normal 0.000000e+000 0.000000e+000 -9.042241e-001
    outer loop
      vertex   -4.583498e+001 2.670371e+001 0.000000e+000
      vertex   -5.410229e+001 2.684964e+001 0.000000e+000
      vertex   -4.596554e+001 2.699327e+001 0.000000e+000
    endloop
  endfacet
  facet normal -0.000000e+000 0.000000e+000 -3.529136e-002
    outer loop
      vertex   -4.596554e+001 2.699327e+001 0.000000e+000
      vertex   -5.410229e+001 2.684964e+001 0.000000e+000
      vertex   -5.396161e+001 2.713441e+001 0.000000e+000
    endloop
  endfacet
  facet normal 0.000000e+000 0.000000e+000 -8.718466e-001
    outer loop
      vertex   -4.596554e+001 2.699327e+001 0.000000e+000
      vertex   -5.396161e+001 2.713441e+001 0.000000e+000
      vertex   -4.611619e+001 2.727289e+001 0.000000e+000
    endloop
  endfacet
  facet normal -0.000000e+000 0.000000e+000 -3.529136e-002
    outer loop
      vertex   -4.611619e+001 2.727289e+001 0.000000e+000
      vertex   -5.396161e+001 2.713441e+001 0.000000e+000
      vertex   -5.380118e+001 2.740854e+001 0.000000e+000
    endloop
  endfacet
  facet normal 0.000000e+000 0.000000e+000 -8.351344e-001
    outer loop
      vertex   -4.611619e+001 2.727289e+001 0.000000e+000
      vertex   -5.380118e+001 2.740854e+001 0.000000e+000
      vertex   -4.628619e+001 2.754119e+001 0.000000e+000
    endloop
  endfacet
  facet normal -0.000000e+000 0.000000e+000 -3.529161e-002
    outer loop
      vertex   -4.628619e+001 2.754119e+001 0.000000e+000
      vertex   -5.380118e+001 2.740854e+001 0.000000e+000
      vertex   -5.362181e+001 2.767067e+001 0.000000e+000
    endloop
  endfacet
  facet normal 0.000000e+000 0.000000e+000 -7.942426e-001
    outer loop
      vertex   -4.628619e+001 2.754119e+001 0.000000e+000
      vertex   -5.362181e+001 2.767067e+001 0.000000e+000
      vertex   -4.647470e+001 2.779683e+001 0.000000e+000
    endloop
  endfacet
  facet normal -0.000000e+000 0.000000e+000 -3.529130e-002
    outer loop
      vertex   -4.647470e+001 2.779683e+001 0.000000e+000
      vertex   -5.362181e+001 2.767067e+001 0.000000e+000
      vertex   -5.342440e+001 2.791949e+001 0.000000e+000
    endloop
  endfacet
  facet normal 0.000000e+000 0.000000e+000 -7.494091e-001
    outer loop
      vertex   -4.647470e+001 2.779683e+001 0.000000e+000
      vertex   -5.342440e+001 2.791949e+001 0.000000e+000
      vertex   -4.668076e+001 2.803853e+001 0.000000e+000
    endloop
  endfacet
  facet normal -0.000000e+000 0.000000e+000 -3.529147e-002
    outer loop
      vertex   -4.668076e+001 2.803853e+001 0.000000e+000
      vertex   -5.342440e+001 2.791949e+001 0.000000e+000
      vertex   -5.320994e+001 2.815378e+001 0.000000e+000
    endloop
  endfacet
  facet normal 0.000000e+000 0.000000e+000 -7.008387e-001
    outer loop
      vertex   -4.668076e+001 2.803853e+001 0.000000e+000
      vertex   -5.320994e+001 2.815378e+001 0.000000e+000
      vertex   -4.690337e+001 2.826509e+001 0.000000e+000
    endloop
  endfacet
  facet normal -0.000000e+000 0.000000e+000 -3.529165e-002
    outer loop
      vertex   -4.690337e+001 2.826509e+001 0.000000e+000
      vertex   -5.320994e+001 2.815378e+001 0.000000e+000
      vertex   -5.297948e+001 2.837235e+001 0.000000e+000
    endloop
  endfacet
  facet normal 0.000000e+000 0.000000e+000 -6.487781e-001
    outer loop
      vertex   -4.690337e+001 2.826509e+001 0.000000e+000
      vertex   -5.297948e+001 2.837235e+001 0.000000e+000
      vertex   -4.714140e+001 2.847540e+001 0.000000e+000
    endloop
  endfacet
  facet normal -0.000000e+000 0.000000e+000 -3.529150e-002
    outer loop
      vertex   -4.714140e+001 2.847540e+001 0.000000e+000
      vertex   -5.297948e+001 2.837235e+001 0.000000e+000
      vertex   -5.273417e+001 2.857412e+001 0.000000e+000
    endloop
  endfacet
  facet normal 0.000000e+000 0.000000e+000 -5.934877e-001
    outer loop
      vertex   -4.714140e+001 2.847540e+001 0.000000e+000
      vertex   -5.273417e+001 2.857412e+001 0.000000e+000
      vertex   -4.739367e+001 2.866838e+001 0.000000e+000
    endloop
  endfacet
  facet normal -0.000000e+000 0.000000e+000 -3.529130e-002
    outer loop
      vertex   -4.739367e+001 2.866838e+001 0.000000e+000
      vertex   -5.273417e+001 2.857412e+001 0.000000e+000
      vertex   -5.247525e+001 2.875808e+001 0.000000e+000
    endloop
  endfacet
  facet normal 0.000000e+000 0.000000e+000 -5.352249e-001
    outer loop
      vertex   -4.739367e+001 2.866838e+001 0.000000e+000
      vertex   -5.247525e+001 2.875808e+001 0.000000e+000
      vertex   -4.765892e+001 2.884309e+001 0.000000e+000
    endloop
  endfacet
  facet normal -0.000000e+000 0.000000e+000 -3.529173e-002
    outer loop
      vertex   -4.765892e+001 2.884309e+001 0.000000e+000
      vertex   -5.247525e+001 2.875808e+001 0.000000e+000
      vertex   -5.220399e+001 2.892332e+001 0.000000e+000
    endloop
  endfacet
  facet normal 0.000000e+000 0.000000e+000 -4.743144e-001
    outer loop
      vertex   -4.765892e+001 2.884309e+001 0.000000e+000
      vertex   -5.220399e+001 2.892332e+001 0.000000e+000
      vertex   -4.793584e+001 2.899866e+001 0.000000e+000
    endloop
  endfacet
  facet normal -0.000000e+000 0.000000e+000 -3.529111e-002
    outer loop
      vertex   -4.793584e+001 2.899866e+001 0.000000e+000
      vertex   -5.220399e+001 2.892332e+001 0.000000e+000
      vertex   -5.192175e+001 2.906901e+001 0.000000e+000
    endloop
  endfacet
  facet normal 0.000000e+000 0.000000e+000 -4.110293e-001
    outer loop
      vertex   -4.793584e+001 2.899866e+001 0.000000e+000
      vertex   -5.192175e+001 2.906901e+001 0.000000e+000
      vertex   -4.822305e+001 2.913430e+001 0.000000e+000
    endloop
  endfacet
  facet normal -0.000000e+000 0.000000e+000 -3.529169e-002
    outer loop
      vertex   -4.822305e+001 2.913430e+001 0.000000e+000
      vertex   -5.192175e+001 2.906901e+001 0.000000e+000
      vertex   -5.162994e+001 2.919444e+001 0.000000e+000
    endloop
  endfacet
  facet normal 0.000000e+000 0.000000e+000 -3.457071e-001
    outer loop
      vertex   -4.822305e+001 2.913430e+001 0.000000e+000
      vertex   -5.162994e+001 2.919444e+001 0.000000e+000
      vertex   -4.851910e+001 2.924935e+001 0.000000e+000
    endloop
  endfacet
  facet normal -0.000000e+000 0.000000e+000 -3.529153e-002
    outer loop
      vertex   -4.851910e+001 2.924935e+001 0.000000e+000
      vertex   -5.162994e+001 2.919444e+001 0.000000e+000
      vertex   -5.133001e+001 2.929896e+001 0.000000e+000
    endloop
  endfacet
  facet normal 0.000000e+000 0.000000e+000 -2.786522e-001
    outer loop
      vertex   -4.851910e+001 2.924935e+001 0.000000e+000
      vertex   -5.133001e+001 2.929896e+001 0.000000e+000
      vertex   -4.882253e+001 2.934322e+001 0.000000e+000
    endloop
  endfacet
  facet normal -0.000000e+000 0.000000e+000 -3.529140e-002
    outer loop
      vertex   -4.882253e+001 2.934322e+001 0.000000e+000
      vertex   -5.133001e+001 2.929896e+001 0.000000e+000
      vertex   -5.102345e+001 2.938207e+001 0.000000e+000
    endloop
  endfacet
  facet normal 0.000000e+000 0.000000e+000 -2.102144e-001
    outer loop
      vertex   -4.882253e+001 2.934322e+001 0.000000e+000
      vertex   -5.102345e+001 2.938207e+001 0.000000e+000
      vertex   -4.913183e+001 2.941546e+001 0.000000e+000
    endloop
  endfacet
  facet normal -0.000000e+000 0.000000e+000 -3.529114e-002
    outer loop
      vertex   -4.913183e+001 2.941546e+001 0.000000e+000
      vertex   -5.102345e+001 2.938207e+001 0.000000e+000
      vertex   -5.071180e+001 2.944335e+001 0.000000e+000
    endloop
  endfacet
  facet normal 0.000000e+000 0.000000e+000 -1.407229e-001
    outer loop
      vertex   -4.913183e+001 2.941546e+001 0.000000e+000
      vertex   -5.071180e+001 2.944335e+001 0.000000e+000
      vertex   -4.944546e+001 2.946570e+001 0.000000e+000
    endloop
  endfacet
  facet normal -0.000000e+000 0.000000e+000 -3.529097e-002
    outer loop
      vertex   -4.944546e+001 2.946570e+001 0.000000e+000
      vertex   -5.071180e+001 2.944335e+001 0.000000e+000
      vertex   -5.039660e+001 2.948249e+001 0.000000e+000
    endloop
  endfacet
  facet normal 0.000000e+000 0.000000e+000 -7.054311e-002
    outer loop
      vertex   -4.944546e+001 2.946570e+001 0.000000e+000
      vertex   -5.039660e+001 2.948249e+001 0.000000e+000
      vertex   -4.976184e+001 2.949369e+001 0.000000e+000
    endloop
  endfacet
  facet normal -0.000000e+000 0.000000e+000 -3.529432e-002
    outer loop
      vertex   -4.976184e+001 2.949369e+001 0.000000e+000
      vertex   -5.039660e+001 2.948249e+001 0.000000e+000
      vertex   -5.007942e+001 2.949930e+001 0.000000e+000
    endloop
  endfacet
endsolid
