solid ascii
  facet normal -9.993773e-001 3.528542e-002 0.000000e+000
    outer loop
      vertex   -7.948879e+001 7.531743e+001 5.000000e+000
      vertex   -7.948879e+001 7.531743e+001 0.000000e+000
      vertex   -7.950000e+001 7.500000e+001 5.000000e+000
    endloop
  endfacet
  facet normal -6.335801e-002 2.237007e-003 0.000000e+000
    outer loop
      vertex   -7.950000e+001 7.500000e+001 5.000000e+000
      vertex   -7.948879e+001 7.531743e+001 0.000000e+000
      vertex   -7.950000e+001 7.500000e+001 0.000000e+000
    endloop
  endfacet
  facet normal -9.993773e-001 -3.528542e-002 -0.000000e+000
    outer loop
      vertex   -7.950000e+001 7.500000e+001 5.000000e+000
      vertex   -7.950000e+001 7.500000e+001 0.000000e+000
      vertex   -7.948879e+001 7.468257e+001 5.000000e+000
    endloop
  endfacet
  facet normal -6.335801e-002 -2.237007e-003 -0.000000e+000
    outer loop
      vertex   -7.948879e+001 7.468257e+001 5.000000e+000
      vertex   -7.950000e+001 7.500000e+001 0.000000e+000
      vertex   -7.948879e+001 7.468257e+001 0.000000e+000
    endloop
  endfacet
  facet normal -9.943966e-001 -1.057138e-001 -0.000000e+000
    outer loop
      vertex   -7.948879e+001 7.468257e+001 5.000000e+000
      vertex   -7.948879e+001 7.468257e+001 0.000000e+000
      vertex   -7.945522e+001 7.436673e+001 5.000000e+000
    endloop
  endfacet
  facet normal -6.304127e-002 -6.701884e-003 -0.000000e+000
    outer loop
      vertex   -7.945522e+001 7.436673e+001 5.000000e+000
      vertex   -7.948879e+001 7.468257e+001 0.000000e+000
      vertex   -7.945522e+001 7.436673e+001 0.000000e+000
    endloop
  endfacet
  facet normal -9.844681e-001 -1.755637e-001 -0.000000e+000
    outer loop
      vertex   -7.945522e+001 7.436673e+001 5.000000e+000
      vertex   -7.945522e+001 7.436673e+001 0.000000e+000
      vertex   -7.939945e+001 7.405404e+001 5.000000e+000
    endloop
  endfacet
  facet normal -6.241234e-002 -1.113021e-002 -0.000000e+000
    outer loop
      vertex   -7.939945e+001 7.405404e+001 5.000000e+000
      vertex   -7.945522e+001 7.436673e+001 0.000000e+000
      vertex   -7.939945e+001 7.405404e+001 0.000000e+000
    endloop
  endfacet
  facet normal -9.696246e-001 -2.445980e-001 -0.000000e+000
    outer loop
      vertex   -7.939945e+001 7.405404e+001 5.000000e+000
      vertex   -7.939945e+001 7.405404e+001 0.000000e+000
      vertex   -7.932176e+001 7.374606e+001 5.000000e+000
    endloop
  endfacet
  facet normal -6.147125e-002 -1.550677e-002 -0.000000e+000
    outer loop
      vertex   -7.932176e+001 7.374606e+001 5.000000e+000
      vertex   -7.939945e+001 7.405404e+001 0.000000e+000
      vertex   -7.932176e+001 7.374606e+001 0.000000e+000
    endloop
  endfacet
  facet normal -9.499629e-001 -3.123626e-001 -0.000000e+000
    outer loop
      vertex   -7.932176e+001 7.374606e+001 5.000000e+000
      vertex   -7.932176e+001 7.374606e+001 0.000000e+000
      vertex   -7.922255e+001 7.344434e+001 5.000000e+000
    endloop
  endfacet
  facet normal -6.022407e-002 -1.980262e-002 -0.000000e+000
    outer loop
      vertex   -7.922255e+001 7.344434e+001 5.000000e+000
      vertex   -7.932176e+001 7.374606e+001 0.000000e+000
      vertex   -7.922255e+001 7.344434e+001 0.000000e+000
    endloop
  endfacet
  facet normal -9.255561e-001 -3.786104e-001 -0.000000e+000
    outer loop
      vertex   -7.922255e+001 7.344434e+001 5.000000e+000
      vertex   -7.922255e+001 7.344434e+001 0.000000e+000
      vertex   -7.910229e+001 7.315036e+001 5.000000e+000
    endloop
  endfacet
  facet normal -5.867689e-002 -2.400252e-002 -0.000000e+000
    outer loop
      vertex   -7.910229e+001 7.315036e+001 5.000000e+000
      vertex   -7.922255e+001 7.344434e+001 0.000000e+000
      vertex   -7.910229e+001 7.315036e+001 0.000000e+000
    endloop
  endfacet
  facet normal -8.965452e-001 -4.429522e-001 -0.000000e+000
    outer loop
      vertex   -7.910229e+001 7.315036e+001 5.000000e+000
      vertex   -7.910229e+001 7.315036e+001 0.000000e+000
      vertex   -7.896160e+001 7.286559e+001 5.000000e+000
    endloop
  endfacet
  facet normal -5.683886e-002 -2.808213e-002 -0.000000e+000
    outer loop
      vertex   -7.896160e+001 7.286559e+001 5.000000e+000
      vertex   -7.910229e+001 7.315036e+001 0.000000e+000
      vertex   -7.896160e+001 7.286559e+001 0.000000e+000
    endloop
  endfacet
  facet normal -8.630750e-001 -5.050758e-001 -0.000000e+000
    outer loop
      vertex   -7.896160e+001 7.286559e+001 5.000000e+000
      vertex   -7.896160e+001 7.286559e+001 0.000000e+000
      vertex   -7.880118e+001 7.259146e+001 5.000000e+000
    endloop
  endfacet
  facet normal -5.471607e-002 -3.202011e-002 -0.000000e+000
    outer loop
      vertex   -7.880118e+001 7.259146e+001 5.000000e+000
      vertex   -7.896160e+001 7.286559e+001 0.000000e+000
      vertex   -7.880118e+001 7.259146e+001 0.000000e+000
    endloop
  endfacet
  facet normal -8.252860e-001 -5.647149e-001 -0.000000e+000
    outer loop
      vertex   -7.880118e+001 7.259146e+001 5.000000e+000
      vertex   -7.880118e+001 7.259146e+001 0.000000e+000
      vertex   -7.862181e+001 7.232933e+001 5.000000e+000
    endloop
  endfacet
  facet normal -5.232069e-002 -3.580125e-002 -0.000000e+000
    outer loop
      vertex   -7.862181e+001 7.232933e+001 5.000000e+000
      vertex   -7.880118e+001 7.259146e+001 0.000000e+000
      vertex   -7.862181e+001 7.232933e+001 0.000000e+000
    endloop
  endfacet
  facet normal -7.834073e-001 -6.215086e-001 -0.000000e+000
    outer loop
      vertex   -7.862181e+001 7.232933e+001 5.000000e+000
      vertex   -7.862181e+001 7.232933e+001 0.000000e+000
      vertex   -7.842441e+001 7.208051e+001 5.000000e+000
    endloop
  endfacet
  facet normal -4.966491e-002 -3.940117e-002 -0.000000e+000
    outer loop
      vertex   -7.842441e+001 7.208051e+001 5.000000e+000
      vertex   -7.862181e+001 7.232933e+001 0.000000e+000
      vertex   -7.842441e+001 7.208051e+001 0.000000e+000
    endloop
  endfacet
  facet normal -7.376086e-001 -6.752285e-001 -0.000000e+000
    outer loop
      vertex   -7.842441e+001 7.208051e+001 5.000000e+000
      vertex   -7.842441e+001 7.208051e+001 0.000000e+000
      vertex   -7.820994e+001 7.184622e+001 5.000000e+000
    endloop
  endfacet
  facet normal -4.676243e-002 -4.280769e-002 -0.000000e+000
    outer loop
      vertex   -7.820994e+001 7.184622e+001 5.000000e+000
      vertex   -7.842441e+001 7.208051e+001 0.000000e+000
      vertex   -7.820994e+001 7.184622e+001 0.000000e+000
    endloop
  endfacet
  facet normal -6.881350e-001 -7.255827e-001 -0.000000e+000
    outer loop
      vertex   -7.820994e+001 7.184622e+001 5.000000e+000
      vertex   -7.820994e+001 7.184622e+001 0.000000e+000
      vertex   -7.797948e+001 7.162766e+001 5.000000e+000
    endloop
  endfacet
  facet normal -4.362544e-002 -4.599950e-002 -0.000000e+000
    outer loop
      vertex   -7.797948e+001 7.162766e+001 5.000000e+000
      vertex   -7.820994e+001 7.184622e+001 0.000000e+000
      vertex   -7.797948e+001 7.162766e+001 0.000000e+000
    endloop
  endfacet
  facet normal -6.352357e-001 -7.723184e-001 -0.000000e+000
    outer loop
      vertex   -7.797948e+001 7.162766e+001 5.000000e+000
      vertex   -7.797948e+001 7.162766e+001 0.000000e+000
      vertex   -7.773417e+001 7.142589e+001 5.000000e+000
    endloop
  endfacet
  facet normal -4.027222e-002 -4.896289e-002 -0.000000e+000
    outer loop
      vertex   -7.773417e+001 7.142589e+001 5.000000e+000
      vertex   -7.797948e+001 7.162766e+001 0.000000e+000
      vertex   -7.773417e+001 7.142589e+001 0.000000e+000
    endloop
  endfacet
  facet normal -5.792050e-001 -8.151819e-001 -0.000000e+000
    outer loop
      vertex   -7.773417e+001 7.142589e+001 5.000000e+000
      vertex   -7.773417e+001 7.142589e+001 0.000000e+000
      vertex   -7.747525e+001 7.124192e+001 5.000000e+000
    endloop
  endfacet
  facet normal -3.671950e-002 -5.167959e-002 -0.000000e+000
    outer loop
      vertex   -7.747525e+001 7.124192e+001 5.000000e+000
      vertex   -7.773417e+001 7.142589e+001 0.000000e+000
      vertex   -7.747525e+001 7.124192e+001 0.000000e+000
    endloop
  endfacet
  facet normal -5.202243e-001 -8.540297e-001 -0.000000e+000
    outer loop
      vertex   -7.747525e+001 7.124192e+001 5.000000e+000
      vertex   -7.747525e+001 7.124192e+001 0.000000e+000
      vertex   -7.720399e+001 7.107668e+001 5.000000e+000
    endloop
  endfacet
  facet normal -3.298100e-002 -5.414349e-002 -0.000000e+000
    outer loop
      vertex   -7.720399e+001 7.107668e+001 5.000000e+000
      vertex   -7.747525e+001 7.124192e+001 0.000000e+000
      vertex   -7.720399e+001 7.107668e+001 0.000000e+000
    endloop
  endfacet
  facet normal -4.587157e-001 -8.885831e-001 -0.000000e+000
    outer loop
      vertex   -7.720399e+001 7.107668e+001 5.000000e+000
      vertex   -7.720399e+001 7.107668e+001 0.000000e+000
      vertex   -7.692175e+001 7.093098e+001 5.000000e+000
    endloop
  endfacet
  facet normal -2.908109e-002 -5.633329e-002 -0.000000e+000
    outer loop
      vertex   -7.692175e+001 7.093098e+001 5.000000e+000
      vertex   -7.720399e+001 7.107668e+001 0.000000e+000
      vertex   -7.692175e+001 7.093098e+001 0.000000e+000
    endloop
  endfacet
  facet normal -3.948729e-001 -9.187358e-001 -0.000000e+000
    outer loop
      vertex   -7.692175e+001 7.093098e+001 5.000000e+000
      vertex   -7.692175e+001 7.093098e+001 0.000000e+000
      vertex   -7.662994e+001 7.080556e+001 5.000000e+000
    endloop
  endfacet
  facet normal -2.503346e-002 -5.824442e-002 -0.000000e+000
    outer loop
      vertex   -7.662994e+001 7.080556e+001 5.000000e+000
      vertex   -7.692175e+001 7.093098e+001 0.000000e+000
      vertex   -7.662994e+001 7.080556e+001 0.000000e+000
    endloop
  endfacet
  facet normal -3.290758e-001 -9.443035e-001 -0.000000e+000
    outer loop
      vertex   -7.662994e+001 7.080556e+001 5.000000e+000
      vertex   -7.662994e+001 7.080556e+001 0.000000e+000
      vertex   -7.633001e+001 7.070104e+001 5.000000e+000
    endloop
  endfacet
  facet normal -2.086249e-002 -5.986620e-002 -0.000000e+000
    outer loop
      vertex   -7.633001e+001 7.070104e+001 5.000000e+000
      vertex   -7.662994e+001 7.080556e+001 0.000000e+000
      vertex   -7.633001e+001 7.070104e+001 0.000000e+000
    endloop
  endfacet
  facet normal -2.616761e-001 -9.651558e-001 -0.000000e+000
    outer loop
      vertex   -7.633001e+001 7.070104e+001 5.000000e+000
      vertex   -7.633001e+001 7.070104e+001 0.000000e+000
      vertex   -7.602345e+001 7.061793e+001 5.000000e+000
    endloop
  endfacet
  facet normal -1.658949e-002 -6.118800e-002 -0.000000e+000
    outer loop
      vertex   -7.602345e+001 7.061793e+001 5.000000e+000
      vertex   -7.633001e+001 7.070104e+001 0.000000e+000
      vertex   -7.602345e+001 7.061793e+001 0.000000e+000
    endloop
  endfacet
  facet normal -1.929324e-001 -9.812121e-001 -0.000000e+000
    outer loop
      vertex   -7.602345e+001 7.061793e+001 5.000000e+000
      vertex   -7.602345e+001 7.061793e+001 0.000000e+000
      vertex   -7.571180e+001 7.055665e+001 5.000000e+000
    endloop
  endfacet
  facet normal -1.223121e-002 -6.220524e-002 -0.000000e+000
    outer loop
      vertex   -7.571180e+001 7.055665e+001 5.000000e+000
      vertex   -7.602345e+001 7.061793e+001 0.000000e+000
      vertex   -7.571180e+001 7.055665e+001 0.000000e+000
    endloop
  endfacet
  facet normal -1.232247e-001 -9.923788e-001 -0.000000e+000
    outer loop
      vertex   -7.571180e+001 7.055665e+001 5.000000e+000
      vertex   -7.571180e+001 7.055665e+001 0.000000e+000
      vertex   -7.539660e+001 7.051751e+001 5.000000e+000
    endloop
  endfacet
  facet normal -7.812012e-003 -6.291335e-002 -0.000000e+000
    outer loop
      vertex   -7.539660e+001 7.051751e+001 5.000000e+000
      vertex   -7.571180e+001 7.055665e+001 0.000000e+000
      vertex   -7.539660e+001 7.051751e+001 0.000000e+000
    endloop
  endfacet
  facet normal -5.291561e-002 -9.985990e-001 -0.000000e+000
    outer loop
      vertex   -7.539660e+001 7.051751e+001 5.000000e+000
      vertex   -7.539660e+001 7.051751e+001 0.000000e+000
      vertex   -7.507941e+001 7.050070e+001 5.000000e+000
    endloop
  endfacet
  facet normal -3.354749e-003 -6.330927e-002 -0.000000e+000
    outer loop
      vertex   -7.507941e+001 7.050070e+001 5.000000e+000
      vertex   -7.539660e+001 7.051751e+001 0.000000e+000
      vertex   -7.507941e+001 7.050070e+001 0.000000e+000
    endloop
  endfacet
  facet normal 1.765491e-002 -9.998441e-001 0.000000e+000
    outer loop
      vertex   -7.507941e+001 7.050070e+001 5.000000e+000
      vertex   -7.507941e+001 7.050070e+001 0.000000e+000
      vertex   -7.476184e+001 7.050631e+001 5.000000e+000
    endloop
  endfacet
  facet normal 1.119265e-003 -6.338694e-002 0.000000e+000
    outer loop
      vertex   -7.476184e+001 7.050631e+001 5.000000e+000
      vertex   -7.507941e+001 7.050070e+001 0.000000e+000
      vertex   -7.476184e+001 7.050631e+001 0.000000e+000
    endloop
  endfacet
  facet normal 8.813146e-002 -9.961088e-001 0.000000e+000
    outer loop
      vertex   -7.476184e+001 7.050631e+001 5.000000e+000
      vertex   -7.476184e+001 7.050631e+001 0.000000e+000
      vertex   -7.444546e+001 7.053430e+001 5.000000e+000
    endloop
  endfacet
  facet normal 5.587188e-003 -6.314939e-002 0.000000e+000
    outer loop
      vertex   -7.444546e+001 7.053430e+001 5.000000e+000
      vertex   -7.476184e+001 7.050631e+001 0.000000e+000
      vertex   -7.444546e+001 7.053430e+001 0.000000e+000
    endloop
  endfacet
  facet normal 1.581751e-001 -9.874111e-001 0.000000e+000
    outer loop
      vertex   -7.444546e+001 7.053430e+001 5.000000e+000
      vertex   -7.444546e+001 7.053430e+001 0.000000e+000
      vertex   -7.413184e+001 7.058454e+001 5.000000e+000
    endloop
  endfacet
  facet normal 1.002770e-002 -6.259813e-002 0.000000e+000
    outer loop
      vertex   -7.413184e+001 7.058454e+001 5.000000e+000
      vertex   -7.444546e+001 7.053430e+001 0.000000e+000
      vertex   -7.413184e+001 7.058454e+001 0.000000e+000
    endloop
  endfacet
  facet normal 2.274217e-001 -9.737964e-001 0.000000e+000
    outer loop
      vertex   -7.413184e+001 7.058454e+001 5.000000e+000
      vertex   -7.413184e+001 7.058454e+001 0.000000e+000
      vertex   -7.382253e+001 7.065678e+001 5.000000e+000
    endloop
  endfacet
  facet normal 1.441796e-002 -6.173621e-002 0.000000e+000
    outer loop
      vertex   -7.382253e+001 7.065678e+001 5.000000e+000
      vertex   -7.413184e+001 7.058454e+001 0.000000e+000
      vertex   -7.382253e+001 7.065678e+001 0.000000e+000
    endloop
  endfacet
  facet normal 2.955658e-001 -9.553224e-001 0.000000e+000
    outer loop
      vertex   -7.382253e+001 7.065678e+001 5.000000e+000
      vertex   -7.382253e+001 7.065678e+001 0.000000e+000
      vertex   -7.351910e+001 7.075066e+001 5.000000e+000
    endloop
  endfacet
  facet normal 1.873817e-002 -6.056517e-002 0.000000e+000
    outer loop
      vertex   -7.351910e+001 7.075066e+001 5.000000e+000
      vertex   -7.382253e+001 7.065678e+001 0.000000e+000
      vertex   -7.351910e+001 7.075066e+001 0.000000e+000
    endloop
  endfacet
  facet normal 3.622075e-001 -9.320975e-001 0.000000e+000
    outer loop
      vertex   -7.351910e+001 7.075066e+001 5.000000e+000
      vertex   -7.351910e+001 7.075066e+001 0.000000e+000
      vertex   -7.322305e+001 7.086570e+001 5.000000e+000
    endloop
  endfacet
  facet normal 2.296245e-002 -5.909110e-002 0.000000e+000
    outer loop
      vertex   -7.322305e+001 7.086570e+001 5.000000e+000
      vertex   -7.351910e+001 7.075066e+001 0.000000e+000
      vertex   -7.322305e+001 7.086570e+001 0.000000e+000
    endloop
  endfacet
  facet normal 4.270587e-001 -9.042239e-001 0.000000e+000
    outer loop
      vertex   -7.322305e+001 7.086570e+001 5.000000e+000
      vertex   -7.322305e+001 7.086570e+001 0.000000e+000
      vertex   -7.293584e+001 7.100134e+001 5.000000e+000
    endloop
  endfacet
  facet normal 2.707403e-002 -5.732464e-002 0.000000e+000
    outer loop
      vertex   -7.293584e+001 7.100134e+001 5.000000e+000
      vertex   -7.322305e+001 7.086570e+001 0.000000e+000
      vertex   -7.293584e+001 7.100134e+001 0.000000e+000
    endloop
  endfacet
  facet normal 4.897674e-001 -8.718532e-001 0.000000e+000
    outer loop
      vertex   -7.293584e+001 7.100134e+001 5.000000e+000
      vertex   -7.293584e+001 7.100134e+001 0.000000e+000
      vertex   -7.265892e+001 7.115691e+001 5.000000e+000
    endloop
  endfacet
  facet normal 3.105008e-002 -5.527341e-002 0.000000e+000
    outer loop
      vertex   -7.265892e+001 7.115691e+001 5.000000e+000
      vertex   -7.293584e+001 7.100134e+001 0.000000e+000
      vertex   -7.265892e+001 7.115691e+001 0.000000e+000
    endloop
  endfacet
  facet normal 5.500686e-001 -8.351195e-001 0.000000e+000
    outer loop
      vertex   -7.265892e+001 7.115691e+001 5.000000e+000
      vertex   -7.265892e+001 7.115691e+001 0.000000e+000
      vertex   -7.239367e+001 7.133162e+001 5.000000e+000
    endloop
  endfacet
  facet normal 3.487234e-002 -5.294352e-002 0.000000e+000
    outer loop
      vertex   -7.239367e+001 7.133162e+001 5.000000e+000
      vertex   -7.265892e+001 7.115691e+001 0.000000e+000
      vertex   -7.239367e+001 7.133162e+001 0.000000e+000
    endloop
  endfacet
  facet normal 6.075901e-001 -7.942508e-001 0.000000e+000
    outer loop
      vertex   -7.239367e+001 7.133162e+001 5.000000e+000
      vertex   -7.239367e+001 7.133162e+001 0.000000e+000
      vertex   -7.214140e+001 7.152460e+001 5.000000e+000
    endloop
  endfacet
  facet normal 3.851946e-002 -5.035322e-002 0.000000e+000
    outer loop
      vertex   -7.214140e+001 7.152460e+001 5.000000e+000
      vertex   -7.239367e+001 7.133162e+001 0.000000e+000
      vertex   -7.214140e+001 7.152460e+001 0.000000e+000
    endloop
  endfacet
  facet normal 6.621006e-001 -7.494150e-001 0.000000e+000
    outer loop
      vertex   -7.214140e+001 7.152460e+001 5.000000e+000
      vertex   -7.214140e+001 7.152460e+001 0.000000e+000
      vertex   -7.190337e+001 7.173490e+001 5.000000e+000
    endloop
  endfacet
  facet normal 4.197472e-002 -4.751013e-002 0.000000e+000
    outer loop
      vertex   -7.190337e+001 7.173490e+001 5.000000e+000
      vertex   -7.214140e+001 7.152460e+001 0.000000e+000
      vertex   -7.190337e+001 7.173490e+001 0.000000e+000
    endloop
  endfacet
  facet normal 7.133244e-001 -7.008340e-001 0.000000e+000
    outer loop
      vertex   -7.190337e+001 7.173490e+001 5.000000e+000
      vertex   -7.190337e+001 7.173490e+001 0.000000e+000
      vertex   -7.168076e+001 7.196147e+001 5.000000e+000
    endloop
  endfacet
  facet normal 4.522287e-002 -4.443101e-002 0.000000e+000
    outer loop
      vertex   -7.168076e+001 7.196147e+001 5.000000e+000
      vertex   -7.190337e+001 7.173490e+001 0.000000e+000
      vertex   -7.168076e+001 7.196147e+001 0.000000e+000
    endloop
  endfacet
  facet normal 7.609766e-001 -6.487793e-001 0.000000e+000
    outer loop
      vertex   -7.168076e+001 7.196147e+001 5.000000e+000
      vertex   -7.168076e+001 7.196147e+001 0.000000e+000
      vertex   -7.147469e+001 7.220318e+001 5.000000e+000
    endloop
  endfacet
  facet normal 4.824412e-002 -4.113108e-002 0.000000e+000
    outer loop
      vertex   -7.147469e+001 7.220318e+001 5.000000e+000
      vertex   -7.168076e+001 7.196147e+001 0.000000e+000
      vertex   -7.147469e+001 7.220318e+001 0.000000e+000
    endloop
  endfacet
  facet normal 8.048536e-001 -5.934735e-001 0.000000e+000
    outer loop
      vertex   -7.147469e+001 7.220318e+001 5.000000e+000
      vertex   -7.147469e+001 7.220318e+001 0.000000e+000
      vertex   -7.128619e+001 7.245882e+001 5.000000e+000
    endloop
  endfacet
  facet normal 5.102478e-002 -3.762405e-002 0.000000e+000
    outer loop
      vertex   -7.128619e+001 7.245882e+001 5.000000e+000
      vertex   -7.147469e+001 7.220318e+001 0.000000e+000
      vertex   -7.128619e+001 7.245882e+001 0.000000e+000
    endloop
  endfacet
  facet normal 8.446975e-001 -5.352440e-001 0.000000e+000
    outer loop
      vertex   -7.128619e+001 7.245882e+001 5.000000e+000
      vertex   -7.128619e+001 7.245882e+001 0.000000e+000
      vertex   -7.111619e+001 7.272711e+001 5.000000e+000
    endloop
  endfacet
  facet normal 5.355112e-002 -3.393276e-002 0.000000e+000
    outer loop
      vertex   -7.111619e+001 7.272711e+001 5.000000e+000
      vertex   -7.128619e+001 7.245882e+001 0.000000e+000
      vertex   -7.111619e+001 7.272711e+001 0.000000e+000
    endloop
  endfacet
  facet normal 8.803623e-001 -4.743018e-001 0.000000e+000
    outer loop
      vertex   -7.111619e+001 7.272711e+001 5.000000e+000
      vertex   -7.111619e+001 7.272711e+001 0.000000e+000
      vertex   -7.096554e+001 7.300674e+001 5.000000e+000
    endloop
  endfacet
  facet normal 5.581249e-002 -3.006939e-002 0.000000e+000
    outer loop
      vertex   -7.096554e+001 7.300674e+001 5.000000e+000
      vertex   -7.111619e+001 7.272711e+001 0.000000e+000
      vertex   -7.096554e+001 7.300674e+001 0.000000e+000
    endloop
  endfacet
  facet normal 9.116192e-001 -4.110357e-001 0.000000e+000
    outer loop
      vertex   -7.096554e+001 7.300674e+001 5.000000e+000
      vertex   -7.096554e+001 7.300674e+001 0.000000e+000
      vertex   -7.083498e+001 7.329629e+001 5.000000e+000
    endloop
  endfacet
  facet normal 5.779367e-002 -2.605832e-002 0.000000e+000
    outer loop
      vertex   -7.083498e+001 7.329629e+001 5.000000e+000
      vertex   -7.096554e+001 7.300674e+001 0.000000e+000
      vertex   -7.083498e+001 7.329629e+001 0.000000e+000
    endloop
  endfacet
  facet normal 9.383431e-001 -3.457054e-001 0.000000e+000
    outer loop
      vertex   -7.083498e+001 7.329629e+001 5.000000e+000
      vertex   -7.083498e+001 7.329629e+001 0.000000e+000
      vertex   -7.072518e+001 7.359432e+001 5.000000e+000
    endloop
  endfacet
  facet normal 5.948703e-002 -2.191628e-002 0.000000e+000
    outer loop
      vertex   -7.072518e+001 7.359432e+001 5.000000e+000
      vertex   -7.083498e+001 7.329629e+001 0.000000e+000
      vertex   -7.072518e+001 7.359432e+001 0.000000e+000
    endloop
  endfacet
  facet normal 9.603910e-001 -2.786558e-001 0.000000e+000
    outer loop
      vertex   -7.072518e+001 7.359432e+001 5.000000e+000
      vertex   -7.072518e+001 7.359432e+001 0.000000e+000
      vertex   -7.063667e+001 7.389937e+001 5.000000e+000
    endloop
  endfacet
  facet normal 6.088649e-002 -1.766611e-002 0.000000e+000
    outer loop
      vertex   -7.063667e+001 7.389937e+001 5.000000e+000
      vertex   -7.072518e+001 7.359432e+001 0.000000e+000
      vertex   -7.063667e+001 7.389937e+001 0.000000e+000
    endloop
  endfacet
  facet normal 9.776577e-001 -2.102033e-001 0.000000e+000
    outer loop
      vertex   -7.063667e+001 7.389937e+001 5.000000e+000
      vertex   -7.063667e+001 7.389937e+001 0.000000e+000
      vertex   -7.056991e+001 7.420989e+001 5.000000e+000
    endloop
  endfacet
  facet normal 6.197987e-002 -1.332611e-002 0.000000e+000
    outer loop
      vertex   -7.056991e+001 7.420989e+001 5.000000e+000
      vertex   -7.063667e+001 7.389937e+001 0.000000e+000
      vertex   -7.056991e+001 7.420989e+001 0.000000e+000
    endloop
  endfacet
  facet normal 9.900473e-001 -1.407353e-001 0.000000e+000
    outer loop
      vertex   -7.056991e+001 7.420989e+001 5.000000e+000
      vertex   -7.056991e+001 7.420989e+001 0.000000e+000
      vertex   -7.052521e+001 7.452435e+001 5.000000e+000
    endloop
  endfacet
  facet normal 6.276564e-002 -8.922141e-003 0.000000e+000
    outer loop
      vertex   -7.052521e+001 7.452435e+001 5.000000e+000
      vertex   -7.056991e+001 7.420989e+001 0.000000e+000
      vertex   -7.052521e+001 7.452435e+001 0.000000e+000
    endloop
  endfacet
  facet normal 9.975085e-001 -7.054716e-002 0.000000e+000
    outer loop
      vertex   -7.052521e+001 7.452435e+001 5.000000e+000
      vertex   -7.052521e+001 7.452435e+001 0.000000e+000
      vertex   -7.050280e+001 7.484119e+001 5.000000e+000
    endloop
  endfacet
  facet normal 6.323923e-002 -4.472491e-003 0.000000e+000
    outer loop
      vertex   -7.050280e+001 7.484119e+001 5.000000e+000
      vertex   -7.052521e+001 7.452435e+001 0.000000e+000
      vertex   -7.050280e+001 7.484119e+001 0.000000e+000
    endloop
  endfacet
  facet normal 1.000000e+000 -0.000000e+000 0.000000e+000
    outer loop
      vertex   -7.050280e+001 7.484119e+001 5.000000e+000
      vertex   -7.050280e+001 7.484119e+001 0.000000e+000
      vertex   -7.050280e+001 7.515881e+001 5.000000e+000
    endloop
  endfacet
  facet normal 6.339760e-002 0.000000e+000 0.000000e+000
    outer loop
      vertex   -7.050280e+001 7.515881e+001 5.000000e+000
      vertex   -7.050280e+001 7.484119e+001 0.000000e+000
      vertex   -7.050280e+001 7.515881e+001 0.000000e+000
    endloop
  endfacet
  facet normal 9.975085e-001 7.054716e-002 0.000000e+000
    outer loop
      vertex   -7.050280e+001 7.515881e+001 5.000000e+000
      vertex   -7.050280e+001 7.515881e+001 0.000000e+000
      vertex   -7.052521e+001 7.547565e+001 5.000000e+000
    endloop
  endfacet
  facet normal 6.323923e-002 4.472491e-003 0.000000e+000
    outer loop
      vertex   -7.052521e+001 7.547565e+001 5.000000e+000
      vertex   -7.050280e+001 7.515881e+001 0.000000e+000
      vertex   -7.052521e+001 7.547565e+001 0.000000e+000
    endloop
  endfacet
  facet normal 9.900473e-001 1.407353e-001 0.000000e+000
    outer loop
      vertex   -7.052521e+001 7.547565e+001 5.000000e+000
      vertex   -7.052521e+001 7.547565e+001 0.000000e+000
      vertex   -7.056991e+001 7.579011e+001 5.000000e+000
    endloop
  endfacet
  facet normal 6.276564e-002 8.922141e-003 0.000000e+000
    outer loop
      vertex   -7.056991e+001 7.579011e+001 5.000000e+000
      vertex   -7.052521e+001 7.547565e+001 0.000000e+000
      vertex   -7.056991e+001 7.579011e+001 0.000000e+000
    endloop
  endfacet
  facet normal 9.776577e-001 2.102033e-001 0.000000e+000
    outer loop
      vertex   -7.056991e+001 7.579011e+001 5.000000e+000
      vertex   -7.056991e+001 7.579011e+001 0.000000e+000
      vertex   -7.063667e+001 7.610063e+001 5.000000e+000
    endloop
  endfacet
  facet normal 6.197987e-002 1.332611e-002 0.000000e+000
    outer loop
      vertex   -7.063667e+001 7.610063e+001 5.000000e+000
      vertex   -7.056991e+001 7.579011e+001 0.000000e+000
      vertex   -7.063667e+001 7.610063e+001 0.000000e+000
    endloop
  endfacet
  facet normal 9.603910e-001 2.786558e-001 0.000000e+000
    outer loop
      vertex   -7.063667e+001 7.610063e+001 5.000000e+000
      vertex   -7.063667e+001 7.610063e+001 0.000000e+000
      vertex   -7.072518e+001 7.640568e+001 5.000000e+000
    endloop
  endfacet
  facet normal 6.088649e-002 1.766611e-002 0.000000e+000
    outer loop
      vertex   -7.072518e+001 7.640568e+001 5.000000e+000
      vertex   -7.063667e+001 7.610063e+001 0.000000e+000
      vertex   -7.072518e+001 7.640568e+001 0.000000e+000
    endloop
  endfacet
  facet normal 9.383431e-001 3.457054e-001 0.000000e+000
    outer loop
      vertex   -7.072518e+001 7.640568e+001 5.000000e+000
      vertex   -7.072518e+001 7.640568e+001 0.000000e+000
      vertex   -7.083498e+001 7.670371e+001 5.000000e+000
    endloop
  endfacet
  facet normal 5.948703e-002 2.191628e-002 0.000000e+000
    outer loop
      vertex   -7.083498e+001 7.670371e+001 5.000000e+000
      vertex   -7.072518e+001 7.640568e+001 0.000000e+000
      vertex   -7.083498e+001 7.670371e+001 0.000000e+000
    endloop
  endfacet
  facet normal 9.116192e-001 4.110357e-001 0.000000e+000
    outer loop
      vertex   -7.083498e+001 7.670371e+001 5.000000e+000
      vertex   -7.083498e+001 7.670371e+001 0.000000e+000
      vertex   -7.096554e+001 7.699326e+001 5.000000e+000
    endloop
  endfacet
  facet normal 5.779367e-002 2.605832e-002 0.000000e+000
    outer loop
      vertex   -7.096554e+001 7.699326e+001 5.000000e+000
      vertex   -7.083498e+001 7.670371e+001 0.000000e+000
      vertex   -7.096554e+001 7.699326e+001 0.000000e+000
    endloop
  endfacet
  facet normal 8.803623e-001 4.743018e-001 0.000000e+000
    outer loop
      vertex   -7.096554e+001 7.699326e+001 5.000000e+000
      vertex   -7.096554e+001 7.699326e+001 0.000000e+000
      vertex   -7.111619e+001 7.727289e+001 5.000000e+000
    endloop
  endfacet
  facet normal 5.581249e-002 3.006939e-002 0.000000e+000
    outer loop
      vertex   -7.111619e+001 7.727289e+001 5.000000e+000
      vertex   -7.096554e+001 7.699326e+001 0.000000e+000
      vertex   -7.111619e+001 7.727289e+001 0.000000e+000
    endloop
  endfacet
  facet normal 8.446975e-001 5.352440e-001 0.000000e+000
    outer loop
      vertex   -7.111619e+001 7.727289e+001 5.000000e+000
      vertex   -7.111619e+001 7.727289e+001 0.000000e+000
      vertex   -7.128619e+001 7.754118e+001 5.000000e+000
    endloop
  endfacet
  facet normal 5.355112e-002 3.393276e-002 0.000000e+000
    outer loop
      vertex   -7.128619e+001 7.754118e+001 5.000000e+000
      vertex   -7.111619e+001 7.727289e+001 0.000000e+000
      vertex   -7.128619e+001 7.754118e+001 0.000000e+000
    endloop
  endfacet
  facet normal 8.048536e-001 5.934735e-001 0.000000e+000
    outer loop
      vertex   -7.128619e+001 7.754118e+001 5.000000e+000
      vertex   -7.128619e+001 7.754118e+001 0.000000e+000
      vertex   -7.147469e+001 7.779682e+001 5.000000e+000
    endloop
  endfacet
  facet normal 5.102478e-002 3.762405e-002 0.000000e+000
    outer loop
      vertex   -7.147469e+001 7.779682e+001 5.000000e+000
      vertex   -7.128619e+001 7.754118e+001 0.000000e+000
      vertex   -7.147469e+001 7.779682e+001 0.000000e+000
    endloop
  endfacet
  facet normal 7.609766e-001 6.487793e-001 0.000000e+000
    outer loop
      vertex   -7.147469e+001 7.779682e+001 5.000000e+000
      vertex   -7.147469e+001 7.779682e+001 0.000000e+000
      vertex   -7.168076e+001 7.803853e+001 5.000000e+000
    endloop
  endfacet
  facet normal 4.824412e-002 4.113108e-002 0.000000e+000
    outer loop
      vertex   -7.168076e+001 7.803853e+001 5.000000e+000
      vertex   -7.147469e+001 7.779682e+001 0.000000e+000
      vertex   -7.168076e+001 7.803853e+001 0.000000e+000
    endloop
  endfacet
  facet normal 7.133244e-001 7.008340e-001 0.000000e+000
    outer loop
      vertex   -7.168076e+001 7.803853e+001 5.000000e+000
      vertex   -7.168076e+001 7.803853e+001 0.000000e+000
      vertex   -7.190337e+001 7.826510e+001 5.000000e+000
    endloop
  endfacet
  facet normal 4.522287e-002 4.443101e-002 0.000000e+000
    outer loop
      vertex   -7.190337e+001 7.826510e+001 5.000000e+000
      vertex   -7.168076e+001 7.803853e+001 0.000000e+000
      vertex   -7.190337e+001 7.826510e+001 0.000000e+000
    endloop
  endfacet
  facet normal 6.621006e-001 7.494150e-001 0.000000e+000
    outer loop
      vertex   -7.190337e+001 7.826510e+001 5.000000e+000
      vertex   -7.190337e+001 7.826510e+001 0.000000e+000
      vertex   -7.214140e+001 7.847540e+001 5.000000e+000
    endloop
  endfacet
  facet normal 4.197472e-002 4.751013e-002 0.000000e+000
    outer loop
      vertex   -7.214140e+001 7.847540e+001 5.000000e+000
      vertex   -7.190337e+001 7.826510e+001 0.000000e+000
      vertex   -7.214140e+001 7.847540e+001 0.000000e+000
    endloop
  endfacet
  facet normal 6.075901e-001 7.942508e-001 0.000000e+000
    outer loop
      vertex   -7.214140e+001 7.847540e+001 5.000000e+000
      vertex   -7.214140e+001 7.847540e+001 0.000000e+000
      vertex   -7.239367e+001 7.866838e+001 5.000000e+000
    endloop
  endfacet
  facet normal 3.851946e-002 5.035322e-002 0.000000e+000
    outer loop
      vertex   -7.239367e+001 7.866838e+001 5.000000e+000
      vertex   -7.214140e+001 7.847540e+001 0.000000e+000
      vertex   -7.239367e+001 7.866838e+001 0.000000e+000
    endloop
  endfacet
  facet normal 5.500686e-001 8.351195e-001 0.000000e+000
    outer loop
      vertex   -7.239367e+001 7.866838e+001 5.000000e+000
      vertex   -7.239367e+001 7.866838e+001 0.000000e+000
      vertex   -7.265892e+001 7.884309e+001 5.000000e+000
    endloop
  endfacet
  facet normal 3.487234e-002 5.294352e-002 0.000000e+000
    outer loop
      vertex   -7.265892e+001 7.884309e+001 5.000000e+000
      vertex   -7.239367e+001 7.866838e+001 0.000000e+000
      vertex   -7.265892e+001 7.884309e+001 0.000000e+000
    endloop
  endfacet
  facet normal 4.897674e-001 8.718532e-001 0.000000e+000
    outer loop
      vertex   -7.265892e+001 7.884309e+001 5.000000e+000
      vertex   -7.265892e+001 7.884309e+001 0.000000e+000
      vertex   -7.293584e+001 7.899866e+001 5.000000e+000
    endloop
  endfacet
  facet normal 3.105008e-002 5.527341e-002 0.000000e+000
    outer loop
      vertex   -7.293584e+001 7.899866e+001 5.000000e+000
      vertex   -7.265892e+001 7.884309e+001 0.000000e+000
      vertex   -7.293584e+001 7.899866e+001 0.000000e+000
    endloop
  endfacet
  facet normal 4.270587e-001 9.042239e-001 0.000000e+000
    outer loop
      vertex   -7.293584e+001 7.899866e+001 5.000000e+000
      vertex   -7.293584e+001 7.899866e+001 0.000000e+000
      vertex   -7.322305e+001 7.913430e+001 5.000000e+000
    endloop
  endfacet
  facet normal 2.707403e-002 5.732464e-002 0.000000e+000
    outer loop
      vertex   -7.322305e+001 7.913430e+001 5.000000e+000
      vertex   -7.293584e+001 7.899866e+001 0.000000e+000
      vertex   -7.322305e+001 7.913430e+001 0.000000e+000
    endloop
  endfacet
  facet normal 3.622075e-001 9.320975e-001 0.000000e+000
    outer loop
      vertex   -7.322305e+001 7.913430e+001 5.000000e+000
      vertex   -7.322305e+001 7.913430e+001 0.000000e+000
      vertex   -7.351910e+001 7.924934e+001 5.000000e+000
    endloop
  endfacet
  facet normal 2.296245e-002 5.909110e-002 0.000000e+000
    outer loop
      vertex   -7.351910e+001 7.924934e+001 5.000000e+000
      vertex   -7.322305e+001 7.913430e+001 0.000000e+000
      vertex   -7.351910e+001 7.924934e+001 0.000000e+000
    endloop
  endfacet
  facet normal 2.955658e-001 9.553224e-001 0.000000e+000
    outer loop
      vertex   -7.351910e+001 7.924934e+001 5.000000e+000
      vertex   -7.351910e+001 7.924934e+001 0.000000e+000
      vertex   -7.382253e+001 7.934322e+001 5.000000e+000
    endloop
  endfacet
  facet normal 1.873817e-002 6.056517e-002 0.000000e+000
    outer loop
      vertex   -7.382253e+001 7.934322e+001 5.000000e+000
      vertex   -7.351910e+001 7.924934e+001 0.000000e+000
      vertex   -7.382253e+001 7.934322e+001 0.000000e+000
    endloop
  endfacet
  facet normal 2.274217e-001 9.737964e-001 0.000000e+000
    outer loop
      vertex   -7.382253e+001 7.934322e+001 5.000000e+000
      vertex   -7.382253e+001 7.934322e+001 0.000000e+000
      vertex   -7.413184e+001 7.941546e+001 5.000000e+000
    endloop
  endfacet
  facet normal 1.441796e-002 6.173621e-002 0.000000e+000
    outer loop
      vertex   -7.413184e+001 7.941546e+001 5.000000e+000
      vertex   -7.382253e+001 7.934322e+001 0.000000e+000
      vertex   -7.413184e+001 7.941546e+001 0.000000e+000
    endloop
  endfacet
  facet normal 1.581751e-001 9.874111e-001 0.000000e+000
    outer loop
      vertex   -7.413184e+001 7.941546e+001 5.000000e+000
      vertex   -7.413184e+001 7.941546e+001 0.000000e+000
      vertex   -7.444546e+001 7.946570e+001 5.000000e+000
    endloop
  endfacet
  facet normal 1.002770e-002 6.259813e-002 0.000000e+000
    outer loop
      vertex   -7.444546e+001 7.946570e+001 5.000000e+000
      vertex   -7.413184e+001 7.941546e+001 0.000000e+000
      vertex   -7.444546e+001 7.946570e+001 0.000000e+000
    endloop
  endfacet
  facet normal 8.813146e-002 9.961088e-001 0.000000e+000
    outer loop
      vertex   -7.444546e+001 7.946570e+001 5.000000e+000
      vertex   -7.444546e+001 7.946570e+001 0.000000e+000
      vertex   -7.476184e+001 7.949369e+001 5.000000e+000
    endloop
  endfacet
  facet normal 5.587188e-003 6.314939e-002 0.000000e+000
    outer loop
      vertex   -7.476184e+001 7.949369e+001 5.000000e+000
      vertex   -7.444546e+001 7.946570e+001 0.000000e+000
      vertex   -7.476184e+001 7.949369e+001 0.000000e+000
    endloop
  endfacet
  facet normal 1.765491e-002 9.998441e-001 0.000000e+000
    outer loop
      vertex   -7.476184e+001 7.949369e+001 5.000000e+000
      vertex   -7.476184e+001 7.949369e+001 0.000000e+000
      vertex   -7.507941e+001 7.949930e+001 5.000000e+000
    endloop
  endfacet
  facet normal 1.119265e-003 6.338694e-002 0.000000e+000
    outer loop
      vertex   -7.507941e+001 7.949930e+001 5.000000e+000
      vertex   -7.476184e+001 7.949369e+001 0.000000e+000
      vertex   -7.507941e+001 7.949930e+001 0.000000e+000
    endloop
  endfacet
  facet normal -5.291561e-002 9.985990e-001 0.000000e+000
    outer loop
      vertex   -7.507941e+001 7.949930e+001 5.000000e+000
      vertex   -7.507941e+001 7.949930e+001 0.000000e+000
      vertex   -7.539660e+001 7.948249e+001 5.000000e+000
    endloop
  endfacet
  facet normal -3.354749e-003 6.330927e-002 0.000000e+000
    outer loop
      vertex   -7.539660e+001 7.948249e+001 5.000000e+000
      vertex   -7.507941e+001 7.949930e+001 0.000000e+000
      vertex   -7.539660e+001 7.948249e+001 0.000000e+000
    endloop
  endfacet
  facet normal -1.232247e-001 9.923788e-001 0.000000e+000
    outer loop
      vertex   -7.539660e+001 7.948249e+001 5.000000e+000
      vertex   -7.539660e+001 7.948249e+001 0.000000e+000
      vertex   -7.571180e+001 7.944335e+001 5.000000e+000
    endloop
  endfacet
  facet normal -7.812012e-003 6.291335e-002 0.000000e+000
    outer loop
      vertex   -7.571180e+001 7.944335e+001 5.000000e+000
      vertex   -7.539660e+001 7.948249e+001 0.000000e+000
      vertex   -7.571180e+001 7.944335e+001 0.000000e+000
    endloop
  endfacet
  facet normal -1.929324e-001 9.812121e-001 0.000000e+000
    outer loop
      vertex   -7.571180e+001 7.944335e+001 5.000000e+000
      vertex   -7.571180e+001 7.944335e+001 0.000000e+000
      vertex   -7.602345e+001 7.938207e+001 5.000000e+000
    endloop
  endfacet
  facet normal -1.223121e-002 6.220524e-002 0.000000e+000
    outer loop
      vertex   -7.602345e+001 7.938207e+001 5.000000e+000
      vertex   -7.571180e+001 7.944335e+001 0.000000e+000
      vertex   -7.602345e+001 7.938207e+001 0.000000e+000
    endloop
  endfacet
  facet normal -2.616761e-001 9.651558e-001 0.000000e+000
    outer loop
      vertex   -7.602345e+001 7.938207e+001 5.000000e+000
      vertex   -7.602345e+001 7.938207e+001 0.000000e+000
      vertex   -7.633001e+001 7.929896e+001 5.000000e+000
    endloop
  endfacet
  facet normal -1.658949e-002 6.118800e-002 0.000000e+000
    outer loop
      vertex   -7.633001e+001 7.929896e+001 5.000000e+000
      vertex   -7.602345e+001 7.938207e+001 0.000000e+000
      vertex   -7.633001e+001 7.929896e+001 0.000000e+000
    endloop
  endfacet
  facet normal -3.290758e-001 9.443035e-001 0.000000e+000
    outer loop
      vertex   -7.633001e+001 7.929896e+001 5.000000e+000
      vertex   -7.633001e+001 7.929896e+001 0.000000e+000
      vertex   -7.662994e+001 7.919444e+001 5.000000e+000
    endloop
  endfacet
  facet normal -2.086249e-002 5.986620e-002 0.000000e+000
    outer loop
      vertex   -7.662994e+001 7.919444e+001 5.000000e+000
      vertex   -7.633001e+001 7.929896e+001 0.000000e+000
      vertex   -7.662994e+001 7.919444e+001 0.000000e+000
    endloop
  endfacet
  facet normal -3.948729e-001 9.187358e-001 0.000000e+000
    outer loop
      vertex   -7.662994e+001 7.919444e+001 5.000000e+000
      vertex   -7.662994e+001 7.919444e+001 0.000000e+000
      vertex   -7.692175e+001 7.906902e+001 5.000000e+000
    endloop
  endfacet
  facet normal -2.503346e-002 5.824442e-002 0.000000e+000
    outer loop
      vertex   -7.692175e+001 7.906902e+001 5.000000e+000
      vertex   -7.662994e+001 7.919444e+001 0.000000e+000
      vertex   -7.692175e+001 7.906902e+001 0.000000e+000
    endloop
  endfacet
  facet normal -4.587157e-001 8.885831e-001 0.000000e+000
    outer loop
      vertex   -7.692175e+001 7.906902e+001 5.000000e+000
      vertex   -7.692175e+001 7.906902e+001 0.000000e+000
      vertex   -7.720399e+001 7.892332e+001 5.000000e+000
    endloop
  endfacet
  facet normal -2.908109e-002 5.633329e-002 0.000000e+000
    outer loop
      vertex   -7.720399e+001 7.892332e+001 5.000000e+000
      vertex   -7.692175e+001 7.906902e+001 0.000000e+000
      vertex   -7.720399e+001 7.892332e+001 0.000000e+000
    endloop
  endfacet
  facet normal -5.202243e-001 8.540297e-001 0.000000e+000
    outer loop
      vertex   -7.720399e+001 7.892332e+001 5.000000e+000
      vertex   -7.720399e+001 7.892332e+001 0.000000e+000
      vertex   -7.747525e+001 7.875808e+001 5.000000e+000
    endloop
  endfacet
  facet normal -3.298100e-002 5.414349e-002 0.000000e+000
    outer loop
      vertex   -7.747525e+001 7.875808e+001 5.000000e+000
      vertex   -7.720399e+001 7.892332e+001 0.000000e+000
      vertex   -7.747525e+001 7.875808e+001 0.000000e+000
    endloop
  endfacet
  facet normal -5.792050e-001 8.151819e-001 0.000000e+000
    outer loop
      vertex   -7.747525e+001 7.875808e+001 5.000000e+000
      vertex   -7.747525e+001 7.875808e+001 0.000000e+000
      vertex   -7.773417e+001 7.857411e+001 5.000000e+000
    endloop
  endfacet
  facet normal -3.671950e-002 5.167959e-002 0.000000e+000
    outer loop
      vertex   -7.773417e+001 7.857411e+001 5.000000e+000
      vertex   -7.747525e+001 7.875808e+001 0.000000e+000
      vertex   -7.773417e+001 7.857411e+001 0.000000e+000
    endloop
  endfacet
  facet normal -6.352357e-001 7.723184e-001 0.000000e+000
    outer loop
      vertex   -7.773417e+001 7.857411e+001 5.000000e+000
      vertex   -7.773417e+001 7.857411e+001 0.000000e+000
      vertex   -7.797948e+001 7.837234e+001 5.000000e+000
    endloop
  endfacet
  facet normal -4.027222e-002 4.896289e-002 0.000000e+000
    outer loop
      vertex   -7.797948e+001 7.837234e+001 5.000000e+000
      vertex   -7.773417e+001 7.857411e+001 0.000000e+000
      vertex   -7.797948e+001 7.837234e+001 0.000000e+000
    endloop
  endfacet
  facet normal -6.881350e-001 7.255827e-001 0.000000e+000
    outer loop
      vertex   -7.797948e+001 7.837234e+001 5.000000e+000
      vertex   -7.797948e+001 7.837234e+001 0.000000e+000
      vertex   -7.820994e+001 7.815378e+001 5.000000e+000
    endloop
  endfacet
  facet normal -4.362544e-002 4.599950e-002 0.000000e+000
    outer loop
      vertex   -7.820994e+001 7.815378e+001 5.000000e+000
      vertex   -7.797948e+001 7.837234e+001 0.000000e+000
      vertex   -7.820994e+001 7.815378e+001 0.000000e+000
    endloop
  endfacet
  facet normal -7.376086e-001 6.752285e-001 0.000000e+000
    outer loop
      vertex   -7.820994e+001 7.815378e+001 5.000000e+000
      vertex   -7.820994e+001 7.815378e+001 0.000000e+000
      vertex   -7.842441e+001 7.791949e+001 5.000000e+000
    endloop
  endfacet
  facet normal -4.676243e-002 4.280769e-002 0.000000e+000
    outer loop
      vertex   -7.842441e+001 7.791949e+001 5.000000e+000
      vertex   -7.820994e+001 7.815378e+001 0.000000e+000
      vertex   -7.842441e+001 7.791949e+001 0.000000e+000
    endloop
  endfacet
  facet normal -7.834073e-001 6.215086e-001 0.000000e+000
    outer loop
      vertex   -7.842441e+001 7.791949e+001 5.000000e+000
      vertex   -7.842441e+001 7.791949e+001 0.000000e+000
      vertex   -7.862181e+001 7.767067e+001 5.000000e+000
    endloop
  endfacet
  facet normal -4.966491e-002 3.940117e-002 0.000000e+000
    outer loop
      vertex   -7.862181e+001 7.767067e+001 5.000000e+000
      vertex   -7.842441e+001 7.791949e+001 0.000000e+000
      vertex   -7.862181e+001 7.767067e+001 0.000000e+000
    endloop
  endfacet
  facet normal -8.252860e-001 5.647149e-001 0.000000e+000
    outer loop
      vertex   -7.862181e+001 7.767067e+001 5.000000e+000
      vertex   -7.862181e+001 7.767067e+001 0.000000e+000
      vertex   -7.880118e+001 7.740854e+001 5.000000e+000
    endloop
  endfacet
  facet normal -5.232069e-002 3.580125e-002 0.000000e+000
    outer loop
      vertex   -7.880118e+001 7.740854e+001 5.000000e+000
      vertex   -7.862181e+001 7.767067e+001 0.000000e+000
      vertex   -7.880118e+001 7.740854e+001 0.000000e+000
    endloop
  endfacet
  facet normal -8.630750e-001 5.050758e-001 0.000000e+000
    outer loop
      vertex   -7.880118e+001 7.740854e+001 5.000000e+000
      vertex   -7.880118e+001 7.740854e+001 0.000000e+000
      vertex   -7.896160e+001 7.713441e+001 5.000000e+000
    endloop
  endfacet
  facet normal -5.471607e-002 3.202011e-002 0.000000e+000
    outer loop
      vertex   -7.896160e+001 7.713441e+001 5.000000e+000
      vertex   -7.880118e+001 7.740854e+001 0.000000e+000
      vertex   -7.896160e+001 7.713441e+001 0.000000e+000
    endloop
  endfacet
  facet normal -8.965452e-001 4.429522e-001 0.000000e+000
    outer loop
      vertex   -7.896160e+001 7.713441e+001 5.000000e+000
      vertex   -7.896160e+001 7.713441e+001 0.000000e+000
      vertex   -7.910229e+001 7.684964e+001 5.000000e+000
    endloop
  endfacet
  facet normal -5.683886e-002 2.808213e-002 0.000000e+000
    outer loop
      vertex   -7.910229e+001 7.684964e+001 5.000000e+000
      vertex   -7.896160e+001 7.713441e+001 0.000000e+000
      vertex   -7.910229e+001 7.684964e+001 0.000000e+000
    endloop
  endfacet
  facet normal -9.255561e-001 3.786104e-001 0.000000e+000
    outer loop
      vertex   -7.910229e+001 7.684964e+001 5.000000e+000
      vertex   -7.910229e+001 7.684964e+001 0.000000e+000
      vertex   -7.922255e+001 7.655566e+001 5.000000e+000
    endloop
  endfacet
  facet normal -5.867689e-002 2.400252e-002 0.000000e+000
    outer loop
      vertex   -7.922255e+001 7.655566e+001 5.000000e+000
      vertex   -7.910229e+001 7.684964e+001 0.000000e+000
      vertex   -7.922255e+001 7.655566e+001 0.000000e+000
    endloop
  endfacet
  facet normal -9.499629e-001 3.123626e-001 0.000000e+000
    outer loop
      vertex   -7.922255e+001 7.655566e+001 5.000000e+000
      vertex   -7.922255e+001 7.655566e+001 0.000000e+000
      vertex   -7.932176e+001 7.625394e+001 5.000000e+000
    endloop
  endfacet
  facet normal -6.022407e-002 1.980262e-002 0.000000e+000
    outer loop
      vertex   -7.932176e+001 7.625394e+001 5.000000e+000
      vertex   -7.922255e+001 7.655566e+001 0.000000e+000
      vertex   -7.932176e+001 7.625394e+001 0.000000e+000
    endloop
  endfacet
  facet normal -9.696246e-001 2.445980e-001 0.000000e+000
    outer loop
      vertex   -7.932176e+001 7.625394e+001 5.000000e+000
      vertex   -7.932176e+001 7.625394e+001 0.000000e+000
      vertex   -7.939945e+001 7.594596e+001 5.000000e+000
    endloop
  endfacet
  facet normal -6.147125e-002 1.550677e-002 0.000000e+000
    outer loop
      vertex   -7.939945e+001 7.594596e+001 5.000000e+000
      vertex   -7.932176e+001 7.625394e+001 0.000000e+000
      vertex   -7.939945e+001 7.594596e+001 0.000000e+000
    endloop
  endfacet
  facet normal -9.844681e-001 1.755637e-001 0.000000e+000
    outer loop
      vertex   -7.939945e+001 7.594596e+001 5.000000e+000
      vertex   -7.939945e+001 7.594596e+001 0.000000e+000
      vertex   -7.945522e+001 7.563327e+001 5.000000e+000
    endloop
  endfacet
  facet normal -6.241234e-002 1.113021e-002 0.000000e+000
    outer loop
      vertex   -7.945522e+001 7.563327e+001 5.000000e+000
      vertex   -7.939945e+001 7.594596e+001 0.000000e+000
      vertex   -7.945522e+001 7.563327e+001 0.000000e+000
    endloop
  endfacet
  facet normal -9.943966e-001 1.057138e-001 0.000000e+000
    outer loop
      vertex   -7.945522e+001 7.563327e+001 5.000000e+000
      vertex   -7.945522e+001 7.563327e+001 0.000000e+000
      vertex   -7.948879e+001 7.531743e+001 5.000000e+000
    endloop
  endfacet
  facet normal -6.304127e-002 6.701884e-003 0.000000e+000
    outer loop
      vertex   -7.948879e+001 7.531743e+001 5.000000e+000
      vertex   -7.945522e+001 7.563327e+001 0.000000e+000
      vertex   -7.948879e+001 7.531743e+001 0.000000e+000
    endloop
  endfacet
  facet normal 0.000000e+000 -0.000000e+000 9.998444e-001
    outer loop
      vertex   -7.948879e+001 7.468257e+001 5.000000e+000
      vertex   -7.050280e+001 7.484119e+001 5.000000e+000
      vertex   -7.950000e+001 7.500000e+001 5.000000e+000
    endloop
  endfacet
  facet normal -0.000000e+000 0.000000e+000 3.529187e-002
    outer loop
      vertex   -7.950000e+001 7.500000e+001 5.000000e+000
      vertex   -7.050280e+001 7.484119e+001 5.000000e+000
      vertex   -7.050280e+001 7.515881e+001 5.000000e+000
    endloop
  endfacet
  facet normal 0.000000e+000 0.000000e+000 9.985989e-001
    outer loop
      vertex   -7.950000e+001 7.500000e+001 5.000000e+000
      vertex   -7.050280e+001 7.515881e+001 5.000000e+000
      vertex   -7.948879e+001 7.531743e+001 5.000000e+000
    endloop
  endfacet
  facet normal -0.000000e+000 0.000000e+000 3.529162e-002
    outer loop
      vertex   -7.948879e+001 7.531743e+001 5.000000e+000
      vertex   -7.050280e+001 7.515881e+001 5.000000e+000
      vertex   -7.052521e+001 7.547565e+001 5.000000e+000
    endloop
  endfacet
  facet normal 0.000000e+000 0.000000e+000 9.923760e-001
    outer loop
      vertex   -7.948879e+001 7.531743e+001 5.000000e+000
      vertex   -7.052521e+001 7.547565e+001 5.000000e+000
      vertex   -7.945522e+001 7.563327e+001 5.000000e+000
    endloop
  endfacet
  facet normal -0.000000e+000 0.000000e+000 3.529130e-002
    outer loop
      vertex   -7.945522e+001 7.563327e+001 5.000000e+000
      vertex   -7.052521e+001 7.547565e+001 5.000000e+000
      vertex   -7.056991e+001 7.579011e+001 5.000000e+000
    endloop
  endfacet
  facet normal 0.000000e+000 0.000000e+000 9.812163e-001
    outer loop
      vertex   -7.945522e+001 7.563327e+001 5.000000e+000
      vertex   -7.056991e+001 7.579011e+001 5.000000e+000
      vertex   -7.939945e+001 7.594596e+001 5.000000e+000
    endloop
  endfacet
  facet normal -0.000000e+000 0.000000e+000 3.529122e-002
    outer loop
      vertex   -7.939945e+001 7.594596e+001 5.000000e+000
      vertex   -7.056991e+001 7.579011e+001 5.000000e+000
      vertex   -7.063667e+001 7.610063e+001 5.000000e+000
    endloop
  endfacet
  facet normal 0.000000e+000 0.000000e+000 9.651569e-001
    outer loop
      vertex   -7.939945e+001 7.594596e+001 5.000000e+000
      vertex   -7.063667e+001 7.610063e+001 5.000000e+000
      vertex   -7.932176e+001 7.625394e+001 5.000000e+000
    endloop
  endfacet
  facet normal -0.000000e+000 0.000000e+000 3.529185e-002
    outer loop
      vertex   -7.932176e+001 7.625394e+001 5.000000e+000
      vertex   -7.063667e+001 7.610063e+001 5.000000e+000
      vertex   -7.072518e+001 7.640568e+001 5.000000e+000
    endloop
  endfacet
  facet normal 0.000000e+000 0.000000e+000 9.443022e-001
    outer loop
      vertex   -7.932176e+001 7.625394e+001 5.000000e+000
      vertex   -7.072518e+001 7.640568e+001 5.000000e+000
      vertex   -7.922255e+001 7.655566e+001 5.000000e+000
    endloop
  endfacet
  facet normal -0.000000e+000 0.000000e+000 3.529085e-002
    outer loop
      vertex   -7.922255e+001 7.655566e+001 5.000000e+000
      vertex   -7.072518e+001 7.640568e+001 5.000000e+000
      vertex   -7.083498e+001 7.670371e+001 5.000000e+000
    endloop
  endfacet
  facet normal 0.000000e+000 0.000000e+000 9.187302e-001
    outer loop
      vertex   -7.922255e+001 7.655566e+001 5.000000e+000
      vertex   -7.083498e+001 7.670371e+001 5.000000e+000
      vertex   -7.910229e+001 7.684964e+001 5.000000e+000
    endloop
  endfacet
  facet normal -0.000000e+000 0.000000e+000 3.529132e-002
    outer loop
      vertex   -7.910229e+001 7.684964e+001 5.000000e+000
      vertex   -7.083498e+001 7.670371e+001 5.000000e+000
      vertex   -7.096554e+001 7.699326e+001 5.000000e+000
    endloop
  endfacet
  facet normal 0.000000e+000 0.000000e+000 8.885882e-001
    outer loop
      vertex   -7.910229e+001 7.684964e+001 5.000000e+000
      vertex   -7.096554e+001 7.699326e+001 5.000000e+000
      vertex   -7.896160e+001 7.713441e+001 5.000000e+000
    endloop
  endfacet
  facet normal -0.000000e+000 0.000000e+000 3.529189e-002
    outer loop
      vertex   -7.896160e+001 7.713441e+001 5.000000e+000
      vertex   -7.096554e+001 7.699326e+001 5.000000e+000
      vertex   -7.111619e+001 7.727289e+001 5.000000e+000
    endloop
  endfacet
  facet normal 0.000000e+000 0.000000e+000 8.540267e-001
    outer loop
      vertex   -7.896160e+001 7.713441e+001 5.000000e+000
      vertex   -7.111619e+001 7.727289e+001 5.000000e+000
      vertex   -7.880118e+001 7.740854e+001 5.000000e+000
    endloop
  endfacet
  facet normal -0.000000e+000 0.000000e+000 3.529107e-002
    outer loop
      vertex   -7.880118e+001 7.740854e+001 5.000000e+000
      vertex   -7.111619e+001 7.727289e+001 5.000000e+000
      vertex   -7.128619e+001 7.754118e+001 5.000000e+000
    endloop
  endfacet
  facet normal 0.000000e+000 0.000000e+000 8.151914e-001
    outer loop
      vertex   -7.880118e+001 7.740854e+001 5.000000e+000
      vertex   -7.128619e+001 7.754118e+001 5.000000e+000
      vertex   -7.862181e+001 7.767067e+001 5.000000e+000
    endloop
  endfacet
  facet normal -0.000000e+000 0.000000e+000 3.529146e-002
    outer loop
      vertex   -7.862181e+001 7.767067e+001 5.000000e+000
      vertex   -7.128619e+001 7.754118e+001 5.000000e+000
      vertex   -7.147469e+001 7.779682e+001 5.000000e+000
    endloop
  endfacet
  facet normal 0.000000e+000 0.000000e+000 7.723169e-001
    outer loop
      vertex   -7.862181e+001 7.767067e+001 5.000000e+000
      vertex   -7.147469e+001 7.779682e+001 5.000000e+000
      vertex   -7.842441e+001 7.791949e+001 5.000000e+000
    endloop
  endfacet
  facet normal -0.000000e+000 0.000000e+000 3.529178e-002
    outer loop
      vertex   -7.842441e+001 7.791949e+001 5.000000e+000
      vertex   -7.147469e+001 7.779682e+001 5.000000e+000
      vertex   -7.168076e+001 7.803853e+001 5.000000e+000
    endloop
  endfacet
  facet normal 0.000000e+000 0.000000e+000 7.255770e-001
    outer loop
      vertex   -7.842441e+001 7.791949e+001 5.000000e+000
      vertex   -7.168076e+001 7.803853e+001 5.000000e+000
      vertex   -7.820994e+001 7.815378e+001 5.000000e+000
    endloop
  endfacet
  facet normal -0.000000e+000 0.000000e+000 3.529200e-002
    outer loop
      vertex   -7.820994e+001 7.815378e+001 5.000000e+000
      vertex   -7.168076e+001 7.803853e+001 5.000000e+000
      vertex   -7.190337e+001 7.826510e+001 5.000000e+000
    endloop
  endfacet
  facet normal 0.000000e+000 0.000000e+000 6.752222e-001
    outer loop
      vertex   -7.820994e+001 7.815378e+001 5.000000e+000
      vertex   -7.190337e+001 7.826510e+001 5.000000e+000
      vertex   -7.797948e+001 7.837234e+001 5.000000e+000
    endloop
  endfacet
  facet normal -0.000000e+000 0.000000e+000 3.529089e-002
    outer loop
      vertex   -7.797948e+001 7.837234e+001 5.000000e+000
      vertex   -7.190337e+001 7.826510e+001 5.000000e+000
      vertex   -7.214140e+001 7.847540e+001 5.000000e+000
    endloop
  endfacet
  facet normal 0.000000e+000 0.000000e+000 6.215063e-001
    outer loop
      vertex   -7.797948e+001 7.837234e+001 5.000000e+000
      vertex   -7.214140e+001 7.847540e+001 5.000000e+000
      vertex   -7.773417e+001 7.857411e+001 5.000000e+000
    endloop
  endfacet
  facet normal -0.000000e+000 0.000000e+000 3.529145e-002
    outer loop
      vertex   -7.773417e+001 7.857411e+001 5.000000e+000
      vertex   -7.214140e+001 7.847540e+001 5.000000e+000
      vertex   -7.239367e+001 7.866838e+001 5.000000e+000
    endloop
  endfacet
  facet normal 0.000000e+000 0.000000e+000 5.647277e-001
    outer loop
      vertex   -7.773417e+001 7.857411e+001 5.000000e+000
      vertex   -7.239367e+001 7.866838e+001 5.000000e+000
      vertex   -7.747525e+001 7.875808e+001 5.000000e+000
    endloop
  endfacet
  facet normal -0.000000e+000 0.000000e+000 3.529202e-002
    outer loop
      vertex   -7.747525e+001 7.875808e+001 5.000000e+000
      vertex   -7.239367e+001 7.866838e+001 5.000000e+000
      vertex   -7.265892e+001 7.884309e+001 5.000000e+000
    endloop
  endfacet
  facet normal 0.000000e+000 0.000000e+000 5.050709e-001
    outer loop
      vertex   -7.747525e+001 7.875808e+001 5.000000e+000
      vertex   -7.265892e+001 7.884309e+001 5.000000e+000
      vertex   -7.720399e+001 7.892332e+001 5.000000e+000
    endloop
  endfacet
  facet normal -0.000000e+000 0.000000e+000 3.529136e-002
    outer loop
      vertex   -7.720399e+001 7.892332e+001 5.000000e+000
      vertex   -7.265892e+001 7.884309e+001 5.000000e+000
      vertex   -7.293584e+001 7.899866e+001 5.000000e+000
    endloop
  endfacet
  facet normal 0.000000e+000 0.000000e+000 4.429617e-001
    outer loop
      vertex   -7.720399e+001 7.892332e+001 5.000000e+000
      vertex   -7.293584e+001 7.899866e+001 5.000000e+000
      vertex   -7.692175e+001 7.906902e+001 5.000000e+000
    endloop
  endfacet
  facet normal -0.000000e+000 0.000000e+000 3.529144e-002
    outer loop
      vertex   -7.692175e+001 7.906902e+001 5.000000e+000
      vertex   -7.293584e+001 7.899866e+001 5.000000e+000
      vertex   -7.322305e+001 7.913430e+001 5.000000e+000
    endloop
  endfacet
  facet normal 0.000000e+000 0.000000e+000 3.785976e-001
    outer loop
      vertex   -7.692175e+001 7.906902e+001 5.000000e+000
      vertex   -7.322305e+001 7.913430e+001 5.000000e+000
      vertex   -7.662994e+001 7.919444e+001 5.000000e+000
    endloop
  endfacet
  facet normal -0.000000e+000 0.000000e+000 3.529066e-002
    outer loop
      vertex   -7.662994e+001 7.919444e+001 5.000000e+000
      vertex   -7.322305e+001 7.913430e+001 5.000000e+000
      vertex   -7.351910e+001 7.924934e+001 5.000000e+000
    endloop
  endfacet
  facet normal 0.000000e+000 0.000000e+000 3.123595e-001
    outer loop
      vertex   -7.662994e+001 7.919444e+001 5.000000e+000
      vertex   -7.351910e+001 7.924934e+001 5.000000e+000
      vertex   -7.633001e+001 7.929896e+001 5.000000e+000
    endloop
  endfacet
  facet normal -0.000000e+000 0.000000e+000 3.529298e-002
    outer loop
      vertex   -7.633001e+001 7.929896e+001 5.000000e+000
      vertex   -7.351910e+001 7.924934e+001 5.000000e+000
      vertex   -7.382253e+001 7.934322e+001 5.000000e+000
    endloop
  endfacet
  facet normal 0.000000e+000 0.000000e+000 2.445996e-001
    outer loop
      vertex   -7.633001e+001 7.929896e+001 5.000000e+000
      vertex   -7.382253e+001 7.934322e+001 5.000000e+000
      vertex   -7.602345e+001 7.938207e+001 5.000000e+000
    endloop
  endfacet
  facet normal -0.000000e+000 0.000000e+000 3.528978e-002
    outer loop
      vertex   -7.602345e+001 7.938207e+001 5.000000e+000
      vertex   -7.382253e+001 7.934322e+001 5.000000e+000
      vertex   -7.413184e+001 7.941546e+001 5.000000e+000
    endloop
  endfacet
  facet normal 0.000000e+000 0.000000e+000 1.755871e-001
    outer loop
      vertex   -7.602345e+001 7.938207e+001 5.000000e+000
      vertex   -7.413184e+001 7.941546e+001 5.000000e+000
      vertex   -7.571180e+001 7.944335e+001 5.000000e+000
    endloop
  endfacet
  facet normal -0.000000e+000 0.000000e+000 3.528974e-002
    outer loop
      vertex   -7.571180e+001 7.944335e+001 5.000000e+000
      vertex   -7.413184e+001 7.941546e+001 5.000000e+000
      vertex   -7.444546e+001 7.946570e+001 5.000000e+000
    endloop
  endfacet
  facet normal 0.000000e+000 0.000000e+000 1.056962e-001
    outer loop
      vertex   -7.571180e+001 7.944335e+001 5.000000e+000
      vertex   -7.444546e+001 7.946570e+001 5.000000e+000
      vertex   -7.539660e+001 7.948249e+001 5.000000e+000
    endloop
  endfacet
  facet normal -0.000000e+000 0.000000e+000 3.528834e-002
    outer loop
      vertex   -7.539660e+001 7.948249e+001 5.000000e+000
      vertex   -7.444546e+001 7.946570e+001 5.000000e+000
      vertex   -7.476184e+001 7.949369e+001 5.000000e+000
    endloop
  endfacet
  facet normal 0.000000e+000 0.000000e+000 3.529039e-002
    outer loop
      vertex   -7.539660e+001 7.948249e+001 5.000000e+000
      vertex   -7.476184e+001 7.949369e+001 5.000000e+000
      vertex   -7.507941e+001 7.949930e+001 5.000000e+000
    endloop
  endfacet
  facet normal 0.000000e+000 0.000000e+000 9.961080e-001
    outer loop
      vertex   -7.050280e+001 7.484119e+001 5.000000e+000
      vertex   -7.948879e+001 7.468257e+001 5.000000e+000
      vertex   -7.052521e+001 7.452435e+001 5.000000e+000
    endloop
  endfacet
  facet normal 0.000000e+000 0.000000e+000 3.529121e-002
    outer loop
      vertex   -7.052521e+001 7.452435e+001 5.000000e+000
      vertex   -7.948879e+001 7.468257e+001 5.000000e+000
      vertex   -7.945522e+001 7.436673e+001 5.000000e+000
    endloop
  endfacet
  facet normal 0.000000e+000 0.000000e+000 9.874094e-001
    outer loop
      vertex   -7.052521e+001 7.452435e+001 5.000000e+000
      vertex   -7.945522e+001 7.436673e+001 5.000000e+000
      vertex   -7.056991e+001 7.420989e+001 5.000000e+000
    endloop
  endfacet
  facet normal 0.000000e+000 0.000000e+000 3.529167e-002
    outer loop
      vertex   -7.056991e+001 7.420989e+001 5.000000e+000
      vertex   -7.945522e+001 7.436673e+001 5.000000e+000
      vertex   -7.939945e+001 7.405404e+001 5.000000e+000
    endloop
  endfacet
  facet normal 0.000000e+000 0.000000e+000 9.737957e-001
    outer loop
      vertex   -7.056991e+001 7.420989e+001 5.000000e+000
      vertex   -7.939945e+001 7.405404e+001 5.000000e+000
      vertex   -7.063667e+001 7.389937e+001 5.000000e+000
    endloop
  endfacet
  facet normal 0.000000e+000 0.000000e+000 3.529140e-002
    outer loop
      vertex   -7.063667e+001 7.389937e+001 5.000000e+000
      vertex   -7.939945e+001 7.405404e+001 5.000000e+000
      vertex   -7.932176e+001 7.374606e+001 5.000000e+000
    endloop
  endfacet
  facet normal 0.000000e+000 0.000000e+000 9.553235e-001
    outer loop
      vertex   -7.063667e+001 7.389937e+001 5.000000e+000
      vertex   -7.932176e+001 7.374606e+001 5.000000e+000
      vertex   -7.072518e+001 7.359432e+001 5.000000e+000
    endloop
  endfacet
  facet normal 0.000000e+000 0.000000e+000 3.529124e-002
    outer loop
      vertex   -7.072518e+001 7.359432e+001 5.000000e+000
      vertex   -7.932176e+001 7.374606e+001 5.000000e+000
      vertex   -7.922255e+001 7.344434e+001 5.000000e+000
    endloop
  endfacet
  facet normal 0.000000e+000 0.000000e+000 9.320959e-001
    outer loop
      vertex   -7.072518e+001 7.359432e+001 5.000000e+000
      vertex   -7.922255e+001 7.344434e+001 5.000000e+000
      vertex   -7.083498e+001 7.329629e+001 5.000000e+000
    endloop
  endfacet
  facet normal 0.000000e+000 0.000000e+000 3.529108e-002
    outer loop
      vertex   -7.083498e+001 7.329629e+001 5.000000e+000
      vertex   -7.922255e+001 7.344434e+001 5.000000e+000
      vertex   -7.910229e+001 7.315036e+001 5.000000e+000
    endloop
  endfacet
  facet normal 0.000000e+000 0.000000e+000 9.042231e-001
    outer loop
      vertex   -7.083498e+001 7.329629e+001 5.000000e+000
      vertex   -7.910229e+001 7.315036e+001 5.000000e+000
      vertex   -7.096554e+001 7.300674e+001 5.000000e+000
    endloop
  endfacet
  facet normal 0.000000e+000 0.000000e+000 3.529184e-002
    outer loop
      vertex   -7.096554e+001 7.300674e+001 5.000000e+000
      vertex   -7.910229e+001 7.315036e+001 5.000000e+000
      vertex   -7.896160e+001 7.286559e+001 5.000000e+000
    endloop
  endfacet
  facet normal 0.000000e+000 0.000000e+000 8.718543e-001
    outer loop
      vertex   -7.096554e+001 7.300674e+001 5.000000e+000
      vertex   -7.896160e+001 7.286559e+001 5.000000e+000
      vertex   -7.111619e+001 7.272711e+001 5.000000e+000
    endloop
  endfacet
  facet normal 0.000000e+000 0.000000e+000 3.529160e-002
    outer loop
      vertex   -7.111619e+001 7.272711e+001 5.000000e+000
      vertex   -7.896160e+001 7.286559e+001 5.000000e+000
      vertex   -7.880118e+001 7.259146e+001 5.000000e+000
    endloop
  endfacet
  facet normal 0.000000e+000 0.000000e+000 8.351195e-001
    outer loop
      vertex   -7.111619e+001 7.272711e+001 5.000000e+000
      vertex   -7.880118e+001 7.259146e+001 5.000000e+000
      vertex   -7.128619e+001 7.245882e+001 5.000000e+000
    endloop
  endfacet
  facet normal 0.000000e+000 0.000000e+000 3.529139e-002
    outer loop
      vertex   -7.128619e+001 7.245882e+001 5.000000e+000
      vertex   -7.880118e+001 7.259146e+001 5.000000e+000
      vertex   -7.862181e+001 7.232933e+001 5.000000e+000
    endloop
  endfacet
  facet normal 0.000000e+000 0.000000e+000 7.942540e-001
    outer loop
      vertex   -7.128619e+001 7.245882e+001 5.000000e+000
      vertex   -7.862181e+001 7.232933e+001 5.000000e+000
      vertex   -7.147469e+001 7.220318e+001 5.000000e+000
    endloop
  endfacet
  facet normal 0.000000e+000 0.000000e+000 3.529128e-002
    outer loop
      vertex   -7.147469e+001 7.220318e+001 5.000000e+000
      vertex   -7.862181e+001 7.232933e+001 5.000000e+000
      vertex   -7.842441e+001 7.208051e+001 5.000000e+000
    endloop
  endfacet
  facet normal 0.000000e+000 0.000000e+000 7.494079e-001
    outer loop
      vertex   -7.147469e+001 7.220318e+001 5.000000e+000
      vertex   -7.842441e+001 7.208051e+001 5.000000e+000
      vertex   -7.168076e+001 7.196147e+001 5.000000e+000
    endloop
  endfacet
  facet normal 0.000000e+000 0.000000e+000 3.529175e-002
    outer loop
      vertex   -7.168076e+001 7.196147e+001 5.000000e+000
      vertex   -7.842441e+001 7.208051e+001 5.000000e+000
      vertex   -7.820994e+001 7.184622e+001 5.000000e+000
    endloop
  endfacet
  facet normal 0.000000e+000 0.000000e+000 7.008445e-001
    outer loop
      vertex   -7.168076e+001 7.196147e+001 5.000000e+000
      vertex   -7.820994e+001 7.184622e+001 5.000000e+000
      vertex   -7.190337e+001 7.173490e+001 5.000000e+000
    endloop
  endfacet
  facet normal 0.000000e+000 0.000000e+000 3.529101e-002
    outer loop
      vertex   -7.190337e+001 7.173490e+001 5.000000e+000
      vertex   -7.820994e+001 7.184622e+001 5.000000e+000
      vertex   -7.797948e+001 7.162766e+001 5.000000e+000
    endloop
  endfacet
  facet normal 0.000000e+000 0.000000e+000 6.487719e-001
    outer loop
      vertex   -7.190337e+001 7.173490e+001 5.000000e+000
      vertex   -7.797948e+001 7.162766e+001 5.000000e+000
      vertex   -7.214140e+001 7.152460e+001 5.000000e+000
    endloop
  endfacet
  facet normal 0.000000e+000 0.000000e+000 3.529116e-002
    outer loop
      vertex   -7.214140e+001 7.152460e+001 5.000000e+000
      vertex   -7.797948e+001 7.162766e+001 5.000000e+000
      vertex   -7.773417e+001 7.142589e+001 5.000000e+000
    endloop
  endfacet
  facet normal 0.000000e+000 0.000000e+000 5.934785e-001
    outer loop
      vertex   -7.214140e+001 7.152460e+001 5.000000e+000
      vertex   -7.773417e+001 7.142589e+001 5.000000e+000
      vertex   -7.239367e+001 7.133162e+001 5.000000e+000
    endloop
  endfacet
  facet normal 0.000000e+000 0.000000e+000 3.529243e-002
    outer loop
      vertex   -7.239367e+001 7.133162e+001 5.000000e+000
      vertex   -7.773417e+001 7.142589e+001 5.000000e+000
      vertex   -7.747525e+001 7.124192e+001 5.000000e+000
    endloop
  endfacet
  facet normal 0.000000e+000 0.000000e+000 5.352439e-001
    outer loop
      vertex   -7.239367e+001 7.133162e+001 5.000000e+000
      vertex   -7.747525e+001 7.124192e+001 5.000000e+000
      vertex   -7.265892e+001 7.115691e+001 5.000000e+000
    endloop
  endfacet
  facet normal 0.000000e+000 0.000000e+000 3.529086e-002
    outer loop
      vertex   -7.265892e+001 7.115691e+001 5.000000e+000
      vertex   -7.747525e+001 7.124192e+001 5.000000e+000
      vertex   -7.720399e+001 7.107668e+001 5.000000e+000
    endloop
  endfacet
  facet normal 0.000000e+000 0.000000e+000 4.743048e-001
    outer loop
      vertex   -7.265892e+001 7.115691e+001 5.000000e+000
      vertex   -7.720399e+001 7.107668e+001 5.000000e+000
      vertex   -7.293584e+001 7.100134e+001 5.000000e+000
    endloop
  endfacet
  facet normal 0.000000e+000 0.000000e+000 3.529253e-002
    outer loop
      vertex   -7.293584e+001 7.100134e+001 5.000000e+000
      vertex   -7.720399e+001 7.107668e+001 5.000000e+000
      vertex   -7.692175e+001 7.093098e+001 5.000000e+000
    endloop
  endfacet
  facet normal 0.000000e+000 0.000000e+000 4.110335e-001
    outer loop
      vertex   -7.293584e+001 7.100134e+001 5.000000e+000
      vertex   -7.692175e+001 7.093098e+001 5.000000e+000
      vertex   -7.322305e+001 7.086570e+001 5.000000e+000
    endloop
  endfacet
  facet normal 0.000000e+000 0.000000e+000 3.529061e-002
    outer loop
      vertex   -7.322305e+001 7.086570e+001 5.000000e+000
      vertex   -7.692175e+001 7.093098e+001 5.000000e+000
      vertex   -7.662994e+001 7.080556e+001 5.000000e+000
    endloop
  endfacet
  facet normal 0.000000e+000 0.000000e+000 3.457012e-001
    outer loop
      vertex   -7.322305e+001 7.086570e+001 5.000000e+000
      vertex   -7.662994e+001 7.080556e+001 5.000000e+000
      vertex   -7.351910e+001 7.075066e+001 5.000000e+000
    endloop
  endfacet
  facet normal 0.000000e+000 0.000000e+000 3.529022e-002
    outer loop
      vertex   -7.351910e+001 7.075066e+001 5.000000e+000
      vertex   -7.662994e+001 7.080556e+001 5.000000e+000
      vertex   -7.633001e+001 7.070104e+001 5.000000e+000
    endloop
  endfacet
  facet normal 0.000000e+000 0.000000e+000 2.786605e-001
    outer loop
      vertex   -7.351910e+001 7.075066e+001 5.000000e+000
      vertex   -7.633001e+001 7.070104e+001 5.000000e+000
      vertex   -7.382253e+001 7.065678e+001 5.000000e+000
    endloop
  endfacet
  facet normal 0.000000e+000 0.000000e+000 3.529370e-002
    outer loop
      vertex   -7.382253e+001 7.065678e+001 5.000000e+000
      vertex   -7.633001e+001 7.070104e+001 5.000000e+000
      vertex   -7.602345e+001 7.061793e+001 5.000000e+000
    endloop
  endfacet
  facet normal 0.000000e+000 0.000000e+000 2.102003e-001
    outer loop
      vertex   -7.382253e+001 7.065678e+001 5.000000e+000
      vertex   -7.602345e+001 7.061793e+001 5.000000e+000
      vertex   -7.413184e+001 7.058454e+001 5.000000e+000
    endloop
  endfacet
  facet normal 0.000000e+000 0.000000e+000 3.529282e-002
    outer loop
      vertex   -7.413184e+001 7.058454e+001 5.000000e+000
      vertex   -7.602345e+001 7.061793e+001 5.000000e+000
      vertex   -7.571180e+001 7.055665e+001 5.000000e+000
    endloop
  endfacet
  facet normal 0.000000e+000 0.000000e+000 1.407211e-001
    outer loop
      vertex   -7.413184e+001 7.058454e+001 5.000000e+000
      vertex   -7.571180e+001 7.055665e+001 5.000000e+000
      vertex   -7.444546e+001 7.053430e+001 5.000000e+000
    endloop
  endfacet
  facet normal 0.000000e+000 0.000000e+000 3.529039e-002
    outer loop
      vertex   -7.444546e+001 7.053430e+001 5.000000e+000
      vertex   -7.571180e+001 7.055665e+001 5.000000e+000
      vertex   -7.539660e+001 7.051751e+001 5.000000e+000
    endloop
  endfacet
  facet normal 0.000000e+000 0.000000e+000 7.053427e-002
    outer loop
      vertex   -7.444546e+001 7.053430e+001 5.000000e+000
      vertex   -7.539660e+001 7.051751e+001 5.000000e+000
      vertex   -7.476184e+001 7.050631e+001 5.000000e+000
    endloop
  endfacet
  facet normal 0.000000e+000 0.000000e+000 3.529111e-002
    outer loop
      vertex   -7.476184e+001 7.050631e+001 5.000000e+000
      vertex   -7.539660e+001 7.051751e+001 5.000000e+000
      vertex   -7.507941e+001 7.050070e+001 5.000000e+000
    endloop
  endfacet
  facet normal 0.000000e+000 -0.000000e+000 -9.998444e-001
    outer loop
      vertex   -7.948879e+001 7.531743e+001 0.000000e+000
      vertex   -7.050280e+001 7.515881e+001 0.000000e+000
      vertex   -7.950000e+001 7.500000e+001 0.000000e+000
    endloop
  endfacet
  facet normal 0.000000e+000 0.000000e+000 -3.529187e-002
    outer loop
      vertex   -7.950000e+001 7.500000e+001 0.000000e+000
      vertex   -7.050280e+001 7.515881e+001 0.000000e+000
      vertex   -7.050280e+001 7.484119e+001 0.000000e+000
    endloop
  endfacet
  facet normal 0.000000e+000 0.000000e+000 -9.985989e-001
    outer loop
      vertex   -7.950000e+001 7.500000e+001 0.000000e+000
      vertex   -7.050280e+001 7.484119e+001 0.000000e+000
      vertex   -7.948879e+001 7.468257e+001 0.000000e+000
    endloop
  endfacet
  facet normal 0.000000e+000 0.000000e+000 -3.529162e-002
    outer loop
      vertex   -7.948879e+001 7.468257e+001 0.000000e+000
      vertex   -7.050280e+001 7.484119e+001 0.000000e+000
      vertex   -7.052521e+001 7.452435e+001 0.000000e+000
    endloop
  endfacet
  facet normal 0.000000e+000 0.000000e+000 -9.923760e-001
    outer loop
      vertex   -7.948879e+001 7.468257e+001 0.000000e+000
      vertex   -7.052521e+001 7.452435e+001 0.000000e+000
      vertex   -7.945522e+001 7.436673e+001 0.000000e+000
    endloop
  endfacet
  facet normal 0.000000e+000 0.000000e+000 -3.529130e-002
    outer loop
      vertex   -7.945522e+001 7.436673e+001 0.000000e+000
      vertex   -7.052521e+001 7.452435e+001 0.000000e+000
      vertex   -7.056991e+001 7.420989e+001 0.000000e+000
    endloop
  endfacet
  facet normal 0.000000e+000 0.000000e+000 -9.812163e-001
    outer loop
      vertex   -7.945522e+001 7.436673e+001 0.000000e+000
      vertex   -7.056991e+001 7.420989e+001 0.000000e+000
      vertex   -7.939945e+001 7.405404e+001 0.000000e+000
    endloop
  endfacet
  facet normal 0.000000e+000 0.000000e+000 -3.529122e-002
    outer loop
      vertex   -7.939945e+001 7.405404e+001 0.000000e+000
      vertex   -7.056991e+001 7.420989e+001 0.000000e+000
      vertex   -7.063667e+001 7.389937e+001 0.000000e+000
    endloop
  endfacet
  facet normal 0.000000e+000 0.000000e+000 -9.651569e-001
    outer loop
      vertex   -7.939945e+001 7.405404e+001 0.000000e+000
      vertex   -7.063667e+001 7.389937e+001 0.000000e+000
      vertex   -7.932176e+001 7.374606e+001 0.000000e+000
    endloop
  endfacet
  facet normal 0.000000e+000 0.000000e+000 -3.529185e-002
    outer loop
      vertex   -7.932176e+001 7.374606e+001 0.000000e+000
      vertex   -7.063667e+001 7.389937e+001 0.000000e+000
      vertex   -7.072518e+001 7.359432e+001 0.000000e+000
    endloop
  endfacet
  facet normal 0.000000e+000 0.000000e+000 -9.443022e-001
    outer loop
      vertex   -7.932176e+001 7.374606e+001 0.000000e+000
      vertex   -7.072518e+001 7.359432e+001 0.000000e+000
      vertex   -7.922255e+001 7.344434e+001 0.000000e+000
    endloop
  endfacet
  facet normal 0.000000e+000 0.000000e+000 -3.529085e-002
    outer loop
      vertex   -7.922255e+001 7.344434e+001 0.000000e+000
      vertex   -7.072518e+001 7.359432e+001 0.000000e+000
      vertex   -7.083498e+001 7.329629e+001 0.000000e+000
    endloop
  endfacet
  facet normal 0.000000e+000 0.000000e+000 -9.187302e-001
    outer loop
      vertex   -7.922255e+001 7.344434e+001 0.000000e+000
      vertex   -7.083498e+001 7.329629e+001 0.000000e+000
      vertex   -7.910229e+001 7.315036e+001 0.000000e+000
    endloop
  endfacet
  facet normal 0.000000e+000 0.000000e+000 -3.529132e-002
    outer loop
      vertex   -7.910229e+001 7.315036e+001 0.000000e+000
      vertex   -7.083498e+001 7.329629e+001 0.000000e+000
      vertex   -7.096554e+001 7.300674e+001 0.000000e+000
    endloop
  endfacet
  facet normal 0.000000e+000 0.000000e+000 -8.885882e-001
    outer loop
      vertex   -7.910229e+001 7.315036e+001 0.000000e+000
      vertex   -7.096554e+001 7.300674e+001 0.000000e+000
      vertex   -7.896160e+001 7.286559e+001 0.000000e+000
    endloop
  endfacet
  facet normal 0.000000e+000 0.000000e+000 -3.529189e-002
    outer loop
      vertex   -7.896160e+001 7.286559e+001 0.000000e+000
      vertex   -7.096554e+001 7.300674e+001 0.000000e+000
      vertex   -7.111619e+001 7.272711e+001 0.000000e+000
    endloop
  endfacet
  facet normal 0.000000e+000 0.000000e+000 -8.540267e-001
    outer loop
      vertex   -7.896160e+001 7.286559e+001 0.000000e+000
      vertex   -7.111619e+001 7.272711e+001 0.000000e+000
      vertex   -7.880118e+001 7.259146e+001 0.000000e+000
    endloop
  endfacet
  facet normal 0.000000e+000 0.000000e+000 -3.529107e-002
    outer loop
      vertex   -7.880118e+001 7.259146e+001 0.000000e+000
      vertex   -7.111619e+001 7.272711e+001 0.000000e+000
      vertex   -7.128619e+001 7.245882e+001 0.000000e+000
    endloop
  endfacet
  facet normal 0.000000e+000 0.000000e+000 -8.151914e-001
    outer loop
      vertex   -7.880118e+001 7.259146e+001 0.000000e+000
      vertex   -7.128619e+001 7.245882e+001 0.000000e+000
      vertex   -7.862181e+001 7.232933e+001 0.000000e+000
    endloop
  endfacet
  facet normal 0.000000e+000 0.000000e+000 -3.529146e-002
    outer loop
      vertex   -7.862181e+001 7.232933e+001 0.000000e+000
      vertex   -7.128619e+001 7.245882e+001 0.000000e+000
      vertex   -7.147469e+001 7.220318e+001 0.000000e+000
    endloop
  endfacet
  facet normal 0.000000e+000 0.000000e+000 -7.723169e-001
    outer loop
      vertex   -7.862181e+001 7.232933e+001 0.000000e+000
      vertex   -7.147469e+001 7.220318e+001 0.000000e+000
      vertex   -7.842441e+001 7.208051e+001 0.000000e+000
    endloop
  endfacet
  facet normal 0.000000e+000 0.000000e+000 -3.529178e-002
    outer loop
      vertex   -7.842441e+001 7.208051e+001 0.000000e+000
      vertex   -7.147469e+001 7.220318e+001 0.000000e+000
      vertex   -7.168076e+001 7.196147e+001 0.000000e+000
    endloop
  endfacet
  facet normal 0.000000e+000 0.000000e+000 -7.255770e-001
    outer loop
      vertex   -7.842441e+001 7.208051e+001 0.000000e+000
      vertex   -7.168076e+001 7.196147e+001 0.000000e+000
      vertex   -7.820994e+001 7.184622e+001 0.000000e+000
    endloop
  endfacet
  facet normal 0.000000e+000 0.000000e+000 -3.529200e-002
    outer loop
      vertex   -7.820994e+001 7.184622e+001 0.000000e+000
      vertex   -7.168076e+001 7.196147e+001 0.000000e+000
      vertex   -7.190337e+001 7.173490e+001 0.000000e+000
    endloop
  endfacet
  facet normal 0.000000e+000 0.000000e+000 -6.752222e-001
    outer loop
      vertex   -7.820994e+001 7.184622e+001 0.000000e+000
      vertex   -7.190337e+001 7.173490e+001 0.000000e+000
      vertex   -7.797948e+001 7.162766e+001 0.000000e+000
    endloop
  endfacet
  facet normal 0.000000e+000 0.000000e+000 -3.529089e-002
    outer loop
      vertex   -7.797948e+001 7.162766e+001 0.000000e+000
      vertex   -7.190337e+001 7.173490e+001 0.000000e+000
      vertex   -7.214140e+001 7.152460e+001 0.000000e+000
    endloop
  endfacet
  facet normal 0.000000e+000 0.000000e+000 -6.215063e-001
    outer loop
      vertex   -7.797948e+001 7.162766e+001 0.000000e+000
      vertex   -7.214140e+001 7.152460e+001 0.000000e+000
      vertex   -7.773417e+001 7.142589e+001 0.000000e+000
    endloop
  endfacet
  facet normal 0.000000e+000 0.000000e+000 -3.529145e-002
    outer loop
      vertex   -7.773417e+001 7.142589e+001 0.000000e+000
      vertex   -7.214140e+001 7.152460e+001 0.000000e+000
      vertex   -7.239367e+001 7.133162e+001 0.000000e+000
    endloop
  endfacet
  facet normal 0.000000e+000 0.000000e+000 -5.647277e-001
    outer loop
      vertex   -7.773417e+001 7.142589e+001 0.000000e+000
      vertex   -7.239367e+001 7.133162e+001 0.000000e+000
      vertex   -7.747525e+001 7.124192e+001 0.000000e+000
    endloop
  endfacet
  facet normal 0.000000e+000 0.000000e+000 -3.529202e-002
    outer loop
      vertex   -7.747525e+001 7.124192e+001 0.000000e+000
      vertex   -7.239367e+001 7.133162e+001 0.000000e+000
      vertex   -7.265892e+001 7.115691e+001 0.000000e+000
    endloop
  endfacet
  facet normal 0.000000e+000 0.000000e+000 -5.050709e-001
    outer loop
      vertex   -7.747525e+001 7.124192e+001 0.000000e+000
      vertex   -7.265892e+001 7.115691e+001 0.000000e+000
      vertex   -7.720399e+001 7.107668e+001 0.000000e+000
    endloop
  endfacet
  facet normal 0.000000e+000 0.000000e+000 -3.529136e-002
    outer loop
      vertex   -7.720399e+001 7.107668e+001 0.000000e+000
      vertex   -7.265892e+001 7.115691e+001 0.000000e+000
      vertex   -7.293584e+001 7.100134e+001 0.000000e+000
    endloop
  endfacet
  facet normal 0.000000e+000 0.000000e+000 -4.429617e-001
    outer loop
      vertex   -7.720399e+001 7.107668e+001 0.000000e+000
      vertex   -7.293584e+001 7.100134e+001 0.000000e+000
      vertex   -7.692175e+001 7.093098e+001 0.000000e+000
    endloop
  endfacet
  facet normal 0.000000e+000 0.000000e+000 -3.529144e-002
    outer loop
      vertex   -7.692175e+001 7.093098e+001 0.000000e+000
      vertex   -7.293584e+001 7.100134e+001 0.000000e+000
      vertex   -7.322305e+001 7.086570e+001 0.000000e+000
    endloop
  endfacet
  facet normal 0.000000e+000 0.000000e+000 -3.785976e-001
    outer loop
      vertex   -7.692175e+001 7.093098e+001 0.000000e+000
      vertex   -7.322305e+001 7.086570e+001 0.000000e+000
      vertex   -7.662994e+001 7.080556e+001 0.000000e+000
    endloop
  endfacet
  facet normal 0.000000e+000 0.000000e+000 -3.529066e-002
    outer loop
      vertex   -7.662994e+001 7.080556e+001 0.000000e+000
      vertex   -7.322305e+001 7.086570e+001 0.000000e+000
      vertex   -7.351910e+001 7.075066e+001 0.000000e+000
    endloop
  endfacet
  facet normal 0.000000e+000 0.000000e+000 -3.123595e-001
    outer loop
      vertex   -7.662994e+001 7.080556e+001 0.000000e+000
      vertex   -7.351910e+001 7.075066e+001 0.000000e+000
      vertex   -7.633001e+001 7.070104e+001 0.000000e+000
    endloop
  endfacet
  facet normal 0.000000e+000 0.000000e+000 -3.529298e-002
    outer loop
      vertex   -7.633001e+001 7.070104e+001 0.000000e+000
      vertex   -7.351910e+001 7.075066e+001 0.000000e+000
      vertex   -7.382253e+001 7.065678e+001 0.000000e+000
    endloop
  endfacet
  facet normal 0.000000e+000 0.000000e+000 -2.445996e-001
    outer loop
      vertex   -7.633001e+001 7.070104e+001 0.000000e+000
      vertex   -7.382253e+001 7.065678e+001 0.000000e+000
      vertex   -7.602345e+001 7.061793e+001 0.000000e+000
    endloop
  endfacet
  facet normal 0.000000e+000 0.000000e+000 -3.528978e-002
    outer loop
      vertex   -7.602345e+001 7.061793e+001 0.000000e+000
      vertex   -7.382253e+001 7.065678e+001 0.000000e+000
      vertex   -7.413184e+001 7.058454e+001 0.000000e+000
    endloop
  endfacet
  facet normal 0.000000e+000 0.000000e+000 -1.755871e-001
    outer loop
      vertex   -7.602345e+001 7.061793e+001 0.000000e+000
      vertex   -7.413184e+001 7.058454e+001 0.000000e+000
      vertex   -7.571180e+001 7.055665e+001 0.000000e+000
    endloop
  endfacet
  facet normal 0.000000e+000 0.000000e+000 -3.528974e-002
    outer loop
      vertex   -7.571180e+001 7.055665e+001 0.000000e+000
      vertex   -7.413184e+001 7.058454e+001 0.000000e+000
      vertex   -7.444546e+001 7.053430e+001 0.000000e+000
    endloop
  endfacet
  facet normal 0.000000e+000 0.000000e+000 -1.056962e-001
    outer loop
      vertex   -7.571180e+001 7.055665e+001 0.000000e+000
      vertex   -7.444546e+001 7.053430e+001 0.000000e+000
      vertex   -7.539660e+001 7.051751e+001 0.000000e+000
    endloop
  endfacet
  facet normal 0.000000e+000 0.000000e+000 -3.528834e-002
    outer loop
      vertex   -7.539660e+001 7.051751e+001 0.000000e+000
      vertex   -7.444546e+001 7.053430e+001 0.000000e+000
      vertex   -7.476184e+001 7.050631e+001 0.000000e+000
    endloop
  endfacet
  facet normal 0.000000e+000 0.000000e+000 -3.529039e-002
    outer loop
      vertex   -7.539660e+001 7.051751e+001 0.000000e+000
      vertex   -7.476184e+001 7.050631e+001 0.000000e+000
      vertex   -7.507941e+001 7.050070e+001 0.000000e+000
    endloop
  endfacet
  facet normal 0.000000e+000 0.000000e+000 -9.961080e-001
    outer loop
      vertex   -7.050280e+001 7.515881e+001 0.000000e+000
      vertex   -7.948879e+001 7.531743e+001 0.000000e+000
      vertex   -7.052521e+001 7.547565e+001 0.000000e+000
    endloop
  endfacet
  facet normal -0.000000e+000 0.000000e+000 -3.529121e-002
    outer loop
      vertex   -7.052521e+001 7.547565e+001 0.000000e+000
      vertex   -7.948879e+001 7.531743e+001 0.000000e+000
      vertex   -7.945522e+001 7.563327e+001 0.000000e+000
    endloop
  endfacet
  facet normal 0.000000e+000 0.000000e+000 -9.874094e-001
    outer loop
      vertex   -7.052521e+001 7.547565e+001 0.000000e+000
      vertex   -7.945522e+001 7.563327e+001 0.000000e+000
      vertex   -7.056991e+001 7.579011e+001 0.000000e+000
    endloop
  endfacet
  facet normal -0.000000e+000 0.000000e+000 -3.529167e-002
    outer loop
      vertex   -7.056991e+001 7.579011e+001 0.000000e+000
      vertex   -7.945522e+001 7.563327e+001 0.000000e+000
      vertex   -7.939945e+001 7.594596e+001 0.000000e+000
    endloop
  endfacet
  facet normal 0.000000e+000 0.000000e+000 -9.737957e-001
    outer loop
      vertex   -7.056991e+001 7.579011e+001 0.000000e+000
      vertex   -7.939945e+001 7.594596e+001 0.000000e+000
      vertex   -7.063667e+001 7.610063e+001 0.000000e+000
    endloop
  endfacet
  facet normal -0.000000e+000 0.000000e+000 -3.529140e-002
    outer loop
      vertex   -7.063667e+001 7.610063e+001 0.000000e+000
      vertex   -7.939945e+001 7.594596e+001 0.000000e+000
      vertex   -7.932176e+001 7.625394e+001 0.000000e+000
    endloop
  endfacet
  facet normal 0.000000e+000 0.000000e+000 -9.553235e-001
    outer loop
      vertex   -7.063667e+001 7.610063e+001 0.000000e+000
      vertex   -7.932176e+001 7.625394e+001 0.000000e+000
      vertex   -7.072518e+001 7.640568e+001 0.000000e+000
    endloop
  endfacet
  facet normal -0.000000e+000 0.000000e+000 -3.529124e-002
    outer loop
      vertex   -7.072518e+001 7.640568e+001 0.000000e+000
      vertex   -7.932176e+001 7.625394e+001 0.000000e+000
      vertex   -7.922255e+001 7.655566e+001 0.000000e+000
    endloop
  endfacet
  facet normal 0.000000e+000 0.000000e+000 -9.320959e-001
    outer loop
      vertex   -7.072518e+001 7.640568e+001 0.000000e+000
      vertex   -7.922255e+001 7.655566e+001 0.000000e+000
      vertex   -7.083498e+001 7.670371e+001 0.000000e+000
    endloop
  endfacet
  facet normal -0.000000e+000 0.000000e+000 -3.529108e-002
    outer loop
      vertex   -7.083498e+001 7.670371e+001 0.000000e+000
      vertex   -7.922255e+001 7.655566e+001 0.000000e+000
      vertex   -7.910229e+001 7.684964e+001 0.000000e+000
    endloop
  endfacet
  facet normal 0.000000e+000 0.000000e+000 -9.042231e-001
    outer loop
      vertex   -7.083498e+001 7.670371e+001 0.000000e+000
      vertex   -7.910229e+001 7.684964e+001 0.000000e+000
      vertex   -7.096554e+001 7.699326e+001 0.000000e+000
    endloop
  endfacet
  facet normal -0.000000e+000 0.000000e+000 -3.529184e-002
    outer loop
      vertex   -7.096554e+001 7.699326e+001 0.000000e+000
      vertex   -7.910229e+001 7.684964e+001 0.000000e+000
      vertex   -7.896160e+001 7.713441e+001 0.000000e+000
    endloop
  endfacet
  facet normal 0.000000e+000 0.000000e+000 -8.718543e-001
    outer loop
      vertex   -7.096554e+001 7.699326e+001 0.000000e+000
      vertex   -7.896160e+001 7.713441e+001 0.000000e+000
      vertex   -7.111619e+001 7.727289e+001 0.000000e+000
    endloop
  endfacet
  facet normal -0.000000e+000 0.000000e+000 -3.529160e-002
    outer loop
      vertex   -7.111619e+001 7.727289e+001 0.000000e+000
      vertex   -7.896160e+001 7.713441e+001 0.000000e+000
      vertex   -7.880118e+001 7.740854e+001 0.000000e+000
    endloop
  endfacet
  facet normal 0.000000e+000 0.000000e+000 -8.351195e-001
    outer loop
      vertex   -7.111619e+001 7.727289e+001 0.000000e+000
      vertex   -7.880118e+001 7.740854e+001 0.000000e+000
      vertex   -7.128619e+001 7.754118e+001 0.000000e+000
    endloop
  endfacet
  facet normal -0.000000e+000 0.000000e+000 -3.529139e-002
    outer loop
      vertex   -7.128619e+001 7.754118e+001 0.000000e+000
      vertex   -7.880118e+001 7.740854e+001 0.000000e+000
      vertex   -7.862181e+001 7.767067e+001 0.000000e+000
    endloop
  endfacet
  facet normal 0.000000e+000 0.000000e+000 -7.942540e-001
    outer loop
      vertex   -7.128619e+001 7.754118e+001 0.000000e+000
      vertex   -7.862181e+001 7.767067e+001 0.000000e+000
      vertex   -7.147469e+001 7.779682e+001 0.000000e+000
    endloop
  endfacet
  facet normal -0.000000e+000 0.000000e+000 -3.529128e-002
    outer loop
      vertex   -7.147469e+001 7.779682e+001 0.000000e+000
      vertex   -7.862181e+001 7.767067e+001 0.000000e+000
      vertex   -7.842441e+001 7.791949e+001 0.000000e+000
    endloop
  endfacet
  facet normal 0.000000e+000 0.000000e+000 -7.494079e-001
    outer loop
      vertex   -7.147469e+001 7.779682e+001 0.000000e+000
      vertex   -7.842441e+001 7.791949e+001 0.000000e+000
      vertex   -7.168076e+001 7.803853e+001 0.000000e+000
    endloop
  endfacet
  facet normal -0.000000e+000 0.000000e+000 -3.529175e-002
    outer loop
      vertex   -7.168076e+001 7.803853e+001 0.000000e+000
      vertex   -7.842441e+001 7.791949e+001 0.000000e+000
      vertex   -7.820994e+001 7.815378e+001 0.000000e+000
    endloop
  endfacet
  facet normal 0.000000e+000 0.000000e+000 -7.008445e-001
    outer loop
      vertex   -7.168076e+001 7.803853e+001 0.000000e+000
      vertex   -7.820994e+001 7.815378e+001 0.000000e+000
      vertex   -7.190337e+001 7.826510e+001 0.000000e+000
    endloop
  endfacet
  facet normal -0.000000e+000 0.000000e+000 -3.529101e-002
    outer loop
      vertex   -7.190337e+001 7.826510e+001 0.000000e+000
      vertex   -7.820994e+001 7.815378e+001 0.000000e+000
      vertex   -7.797948e+001 7.837234e+001 0.000000e+000
    endloop
  endfacet
  facet normal 0.000000e+000 0.000000e+000 -6.487719e-001
    outer loop
      vertex   -7.190337e+001 7.826510e+001 0.000000e+000
      vertex   -7.797948e+001 7.837234e+001 0.000000e+000
      vertex   -7.214140e+001 7.847540e+001 0.000000e+000
    endloop
  endfacet
  facet normal -0.000000e+000 0.000000e+000 -3.529116e-002
    outer loop
      vertex   -7.214140e+001 7.847540e+001 0.000000e+000
      vertex   -7.797948e+001 7.837234e+001 0.000000e+000
      vertex   -7.773417e+001 7.857411e+001 0.000000e+000
    endloop
  endfacet
  facet normal 0.000000e+000 0.000000e+000 -5.934785e-001
    outer loop
      vertex   -7.214140e+001 7.847540e+001 0.000000e+000
      vertex   -7.773417e+001 7.857411e+001 0.000000e+000
      vertex   -7.239367e+001 7.866838e+001 0.000000e+000
    endloop
  endfacet
  facet normal -0.000000e+000 0.000000e+000 -3.529243e-002
    outer loop
      vertex   -7.239367e+001 7.866838e+001 0.000000e+000
      vertex   -7.773417e+001 7.857411e+001 0.000000e+000
      vertex   -7.747525e+001 7.875808e+001 0.000000e+000
    endloop
  endfacet
  facet normal 0.000000e+000 0.000000e+000 -5.352439e-001
    outer loop
      vertex   -7.239367e+001 7.866838e+001 0.000000e+000
      vertex   -7.747525e+001 7.875808e+001 0.000000e+000
      vertex   -7.265892e+001 7.884309e+001 0.000000e+000
    endloop
  endfacet
  facet normal -0.000000e+000 0.000000e+000 -3.529086e-002
    outer loop
      vertex   -7.265892e+001 7.884309e+001 0.000000e+000
      vertex   -7.747525e+001 7.875808e+001 0.000000e+000
      vertex   -7.720399e+001 7.892332e+001 0.000000e+000
    endloop
  endfacet
  facet normal 0.000000e+000 0.000000e+000 -4.743048e-001
    outer loop
      vertex   -7.265892e+001 7.884309e+001 0.000000e+000
      vertex   -7.720399e+001 7.892332e+001 0.000000e+000
      vertex   -7.293584e+001 7.899866e+001 0.000000e+000
    endloop
  endfacet
  facet normal -0.000000e+000 0.000000e+000 -3.529253e-002
    outer loop
      vertex   -7.293584e+001 7.899866e+001 0.000000e+000
      vertex   -7.720399e+001 7.892332e+001 0.000000e+000
      vertex   -7.692175e+001 7.906902e+001 0.000000e+000
    endloop
  endfacet
  facet normal 0.000000e+000 0.000000e+000 -4.110335e-001
    outer loop
      vertex   -7.293584e+001 7.899866e+001 0.000000e+000
      vertex   -7.692175e+001 7.906902e+001 0.000000e+000
      vertex   -7.322305e+001 7.913430e+001 0.000000e+000
    endloop
  endfacet
  facet normal -0.000000e+000 0.000000e+000 -3.529061e-002
    outer loop
      vertex   -7.322305e+001 7.913430e+001 0.000000e+000
      vertex   -7.692175e+001 7.906902e+001 0.000000e+000
      vertex   -7.662994e+001 7.919444e+001 0.000000e+000
    endloop
  endfacet
  facet normal 0.000000e+000 0.000000e+000 -3.457012e-001
    outer loop
      vertex   -7.322305e+001 7.913430e+001 0.000000e+000
      vertex   -7.662994e+001 7.919444e+001 0.000000e+000
      vertex   -7.351910e+001 7.924934e+001 0.000000e+000
    endloop
  endfacet
  facet normal -0.000000e+000 0.000000e+000 -3.529022e-002
    outer loop
      vertex   -7.351910e+001 7.924934e+001 0.000000e+000
      vertex   -7.662994e+001 7.919444e+001 0.000000e+000
      vertex   -7.633001e+001 7.929896e+001 0.000000e+000
    endloop
  endfacet
  facet normal 0.000000e+000 0.000000e+000 -2.786605e-001
    outer loop
      vertex   -7.351910e+001 7.924934e+001 0.000000e+000
      vertex   -7.633001e+001 7.929896e+001 0.000000e+000
      vertex   -7.382253e+001 7.934322e+001 0.000000e+000
    endloop
  endfacet
  facet normal -0.000000e+000 0.000000e+000 -3.529370e-002
    outer loop
      vertex   -7.382253e+001 7.934322e+001 0.000000e+000
      vertex   -7.633001e+001 7.929896e+001 0.000000e+000
      vertex   -7.602345e+001 7.938207e+001 0.000000e+000
    endloop
  endfacet
  facet normal 0.000000e+000 0.000000e+000 -2.102003e-001
    outer loop
      vertex   -7.382253e+001 7.934322e+001 0.000000e+000
      vertex   -7.602345e+001 7.938207e+001 0.000000e+000
      vertex   -7.413184e+001 7.941546e+001 0.000000e+000
    endloop
  endfacet
  facet normal -0.000000e+000 0.000000e+000 -3.529282e-002
    outer loop
      vertex   -7.413184e+001 7.941546e+001 0.000000e+000
      vertex   -7.602345e+001 7.938207e+001 0.000000e+000
      vertex   -7.571180e+001 7.944335e+001 0.000000e+000
    endloop
  endfacet
  facet normal 0.000000e+000 0.000000e+000 -1.407211e-001
    outer loop
      vertex   -7.413184e+001 7.941546e+001 0.000000e+000
      vertex   -7.571180e+001 7.944335e+001 0.000000e+000
      vertex   -7.444546e+001 7.946570e+001 0.000000e+000
    endloop
  endfacet
  facet normal -0.000000e+000 0.000000e+000 -3.529039e-002
    outer loop
      vertex   -7.444546e+001 7.946570e+001 0.000000e+000
      vertex   -7.571180e+001 7.944335e+001 0.000000e+000
      vertex   -7.539660e+001 7.948249e+001 0.000000e+000
    endloop
  endfacet
  facet normal 0.000000e+000 0.000000e+000 -7.053427e-002
    outer loop
      vertex   -7.444546e+001 7.946570e+001 0.000000e+000
      vertex   -7.539660e+001 7.948249e+001 0.000000e+000
      vertex   -7.476184e+001 7.949369e+001 0.000000e+000
    endloop
  endfacet
  facet normal -0.000000e+000 0.000000e+000 -3.529111e-002
    outer loop
      vertex   -7.476184e+001 7.949369e+001 0.000000e+000
      vertex   -7.539660e+001 7.948249e+001 0.000000e+000
      vertex   -7.507941e+001 7.949930e+001 0.000000e+000
    endloop
  endfacet
endsolid
