solid ascii
  facet normal 1.643990e-001 0.000000e+000 -9.863939e-001
    outer loop
      vertex   -2.060000e+002 2.290000e+002 -1.000000e+000
      vertex   -2.000000e+002 2.290000e+002 -2.671474e-015
      vertex   -2.060000e+002 2.250000e+002 -1.000000e+000
    endloop
  endfacet
  facet normal 9.032775e-002 0.000000e+000 -5.419665e-001
    outer loop
      vertex   -2.060000e+002 2.250000e+002 -1.000000e+000
      vertex   -2.000000e+002 2.290000e+002 -2.671474e-015
      vertex   -2.000000e+002 2.250000e+002 -3.122502e-015
    endloop
  endfacet
  facet normal 0.000000e+000 6.037997e-002 9.981754e-001
    outer loop
      vertex   -2.000000e+002 2.275000e+002 2.000000e+000
      vertex   -2.000000e+002 2.276808e+002 1.989063e+000
      vertex   -2.015000e+002 2.275000e+002 2.000000e+000
    endloop
  endfacet
  facet normal -8.673617e-019 5.994451e-002 9.909766e-001
    outer loop
      vertex   -2.015000e+002 2.275000e+002 2.000000e+000
      vertex   -2.000000e+002 2.276808e+002 1.989063e+000
      vertex   -2.015000e+002 2.276808e+002 1.989063e+000
    endloop
  endfacet
  facet normal -0.000000e+000 2.161006e-002 1.179278e-001
    outer loop
      vertex   -2.015000e+002 2.276808e+002 1.989063e+000
      vertex   -2.000000e+002 2.276808e+002 1.989063e+000
      vertex   -2.000000e+002 2.278590e+002 1.956413e+000
    endloop
  endfacet
  facet normal 0.000000e+000 1.789467e-001 9.765266e-001
    outer loop
      vertex   -2.015000e+002 2.276808e+002 1.989063e+000
      vertex   -2.000000e+002 2.278590e+002 1.956413e+000
      vertex   -2.015000e+002 2.278590e+002 1.956413e+000
    endloop
  endfacet
  facet normal -0.000000e+000 3.566645e-002 1.144538e-001
    outer loop
      vertex   -2.015000e+002 2.278590e+002 1.956413e+000
      vertex   -2.000000e+002 2.278590e+002 1.956413e+000
      vertex   -2.000000e+002 2.280319e+002 1.902524e+000
    endloop
  endfacet
  facet normal 0.000000e+000 2.953666e-001 9.478327e-001
    outer loop
      vertex   -2.015000e+002 2.278590e+002 1.956413e+000
      vertex   -2.000000e+002 2.280319e+002 1.902524e+000
      vertex   -2.015000e+002 2.280319e+002 1.902524e+000
    endloop
  endfacet
  facet normal -0.000000e+000 4.920279e-002 1.093234e-001
    outer loop
      vertex   -2.015000e+002 2.280319e+002 1.902524e+000
      vertex   -2.000000e+002 2.280319e+002 1.902524e+000
      vertex   -2.000000e+002 2.281971e+002 1.828184e+000
    endloop
  endfacet
  facet normal 0.000000e+000 4.074550e-001 9.053220e-001
    outer loop
      vertex   -2.015000e+002 2.280319e+002 1.902524e+000
      vertex   -2.000000e+002 2.281971e+002 1.828184e+000
      vertex   -2.015000e+002 2.281971e+002 1.828184e+000
    endloop
  endfacet
  facet normal -0.000000e+000 6.202153e-002 1.025973e-001
    outer loop
      vertex   -2.015000e+002 2.281971e+002 1.828184e+000
      vertex   -2.000000e+002 2.281971e+002 1.828184e+000
      vertex   -2.000000e+002 2.283521e+002 1.734476e+000
    endloop
  endfacet
  facet normal 6.938894e-018 5.136021e-001 8.496116e-001
    outer loop
      vertex   -2.015000e+002 2.281971e+002 1.828184e+000
      vertex   -2.000000e+002 2.283521e+002 1.734476e+000
      vertex   -2.015000e+002 2.283521e+002 1.734476e+000
    endloop
  endfacet
  facet normal -0.000000e+000 7.393599e-002 9.437659e-002
    outer loop
      vertex   -2.015000e+002 2.283521e+002 1.734476e+000
      vertex   -2.000000e+002 2.283521e+002 1.734476e+000
      vertex   -2.000000e+002 2.284947e+002 1.622766e+000
    endloop
  endfacet
  facet normal 0.000000e+000 6.122534e-001 7.815192e-001
    outer loop
      vertex   -2.015000e+002 2.283521e+002 1.734476e+000
      vertex   -2.000000e+002 2.284947e+002 1.622766e+000
      vertex   -2.015000e+002 2.284947e+002 1.622766e+000
    endloop
  endfacet
  facet normal -0.000000e+000 8.477225e-002 8.477233e-002
    outer loop
      vertex   -2.015000e+002 2.284947e+002 1.622766e+000
      vertex   -2.000000e+002 2.284947e+002 1.622766e+000
      vertex   -2.000000e+002 2.286228e+002 1.494684e+000
    endloop
  endfacet
  facet normal 6.938894e-018 7.020066e-001 7.020072e-001
    outer loop
      vertex   -2.015000e+002 2.284947e+002 1.622766e+000
      vertex   -2.000000e+002 2.286228e+002 1.494684e+000
      vertex   -2.015000e+002 2.286228e+002 1.494684e+000
    endloop
  endfacet
  facet normal -0.000000e+000 9.437229e-002 7.393594e-002
    outer loop
      vertex   -2.015000e+002 2.286228e+002 1.494684e+000
      vertex   -2.000000e+002 2.286228e+002 1.494684e+000
      vertex   -2.000000e+002 2.287345e+002 1.352097e+000
    endloop
  endfacet
  facet normal -6.938894e-018 7.815062e-001 6.122707e-001
    outer loop
      vertex   -2.015000e+002 2.286228e+002 1.494684e+000
      vertex   -2.000000e+002 2.287345e+002 1.352097e+000
      vertex   -2.015000e+002 2.287345e+002 1.352097e+000
    endloop
  endfacet
  facet normal -0.000000e+000 1.025963e-001 6.201894e-002
    outer loop
      vertex   -2.015000e+002 2.287345e+002 1.352097e+000
      vertex   -2.000000e+002 2.287345e+002 1.352097e+000
      vertex   -2.000000e+002 2.288282e+002 1.197085e+000
    endloop
  endfacet
  facet normal -6.938894e-018 8.496190e-001 5.135905e-001
    outer loop
      vertex   -2.015000e+002 2.287345e+002 1.352097e+000
      vertex   -2.000000e+002 2.288282e+002 1.197085e+000
      vertex   -2.015000e+002 2.288282e+002 1.197085e+000
    endloop
  endfacet
  facet normal -0.000000e+000 1.093241e-001 4.920310e-002
    outer loop
      vertex   -2.015000e+002 2.288282e+002 1.197085e+000
      vertex   -2.000000e+002 2.288282e+002 1.197085e+000
      vertex   -2.000000e+002 2.289025e+002 1.031907e+000
    endloop
  endfacet
  facet normal 0.000000e+000 9.053219e-001 4.074549e-001
    outer loop
      vertex   -2.015000e+002 2.288282e+002 1.197085e+000
      vertex   -2.000000e+002 2.289025e+002 1.031907e+000
      vertex   -2.015000e+002 2.289025e+002 1.031907e+000
    endloop
  endfacet
  facet normal -0.000000e+000 1.144577e-001 3.566014e-002
    outer loop
      vertex   -2.015000e+002 2.289025e+002 1.031907e+000
      vertex   -2.000000e+002 2.289025e+002 1.031907e+000
      vertex   -2.000000e+002 2.289564e+002 8.589735e-001
    endloop
  endfacet
  facet normal 0.000000e+000 9.478502e-001 2.953096e-001
    outer loop
      vertex   -2.015000e+002 2.289025e+002 1.031907e+000
      vertex   -2.000000e+002 2.289564e+002 8.589735e-001
      vertex   -2.015000e+002 2.289564e+002 8.589735e-001
    endloop
  endfacet
  facet normal -0.000000e+000 1.179223e-001 2.161220e-002
    outer loop
      vertex   -2.015000e+002 2.289564e+002 8.589735e-001
      vertex   -2.000000e+002 2.289564e+002 8.589735e-001
      vertex   -2.000000e+002 2.289891e+002 6.808050e-001
    endloop
  endfacet
  facet normal 3.469447e-018 9.765225e-001 1.789721e-001
    outer loop
      vertex   -2.015000e+002 2.289564e+002 8.589735e-001
      vertex   -2.000000e+002 2.289891e+002 6.808050e-001
      vertex   -2.015000e+002 2.289891e+002 6.808050e-001
    endloop
  endfacet
  facet normal -0.000000e+000 1.196673e-001 7.241096e-003
    outer loop
      vertex   -2.015000e+002 2.289891e+002 6.808050e-001
      vertex   -2.000000e+002 2.289891e+002 6.808050e-001
      vertex   -2.000000e+002 2.290000e+002 5.000000e-001
    endloop
  endfacet
  facet normal 8.673617e-019 9.909751e-001 5.996412e-002
    outer loop
      vertex   -2.015000e+002 2.289891e+002 6.808050e-001
      vertex   -2.000000e+002 2.290000e+002 5.000000e-001
      vertex   -2.015000e+002 2.290000e+002 5.000000e-001
    endloop
  endfacet
  facet normal -0.000000e+000 1.000000e+000 0.000000e+000
    outer loop
      vertex   -2.045000e+002 2.290000e+002 3.500000e+000
      vertex   -2.015000e+002 2.290000e+002 3.500000e+000
      vertex   -2.045000e+002 2.290000e+002 5.000000e-001
    endloop
  endfacet
  facet normal 0.000000e+000 7.071068e-001 0.000000e+000
    outer loop
      vertex   -2.045000e+002 2.290000e+002 5.000000e-001
      vertex   -2.015000e+002 2.290000e+002 3.500000e+000
      vertex   -2.015000e+002 2.290000e+002 5.000000e-001
    endloop
  endfacet
  facet normal -0.000000e+000 7.071068e-001 0.000000e+000
    outer loop
      vertex   -2.045000e+002 2.290000e+002 5.000000e-001
      vertex   -2.015000e+002 2.290000e+002 5.000000e-001
      vertex   -2.060000e+002 2.290000e+002 -1.000000e+000
    endloop
  endfacet
  facet normal 0.000000e+000 1.559626e-001 0.000000e+000
    outer loop
      vertex   -2.060000e+002 2.290000e+002 -1.000000e+000
      vertex   -2.015000e+002 2.290000e+002 5.000000e-001
      vertex   -2.000000e+002 2.290000e+002 -2.671474e-015
    endloop
  endfacet
  facet normal 0.000000e+000 9.486833e-001 -0.000000e+000
    outer loop
      vertex   -2.000000e+002 2.290000e+002 -2.671474e-015
      vertex   -2.015000e+002 2.290000e+002 5.000000e-001
      vertex   -2.000000e+002 2.290000e+002 5.000000e-001
    endloop
  endfacet
  facet normal 0.000000e+000 7.071068e-001 0.000000e+000
    outer loop
      vertex   -2.060000e+002 2.290000e+002 -1.000000e+000
      vertex   -2.060000e+002 2.290000e+002 5.000000e-001
      vertex   -2.045000e+002 2.290000e+002 5.000000e-001
    endloop
  endfacet
  facet normal 9.981743e-001 0.000000e+000 0.000000e+000
    outer loop
      vertex   -2.000000e+002 2.289891e+002 6.808050e-001
      vertex   -2.000000e+002 2.250109e+002 6.808050e-001
      vertex   -2.000000e+002 2.290000e+002 5.000000e-001
    endloop
  endfacet
  facet normal 4.527874e-002 0.000000e+000 0.000000e+000
    outer loop
      vertex   -2.000000e+002 2.290000e+002 5.000000e-001
      vertex   -2.000000e+002 2.250109e+002 6.808050e-001
      vertex   -2.000000e+002 2.250000e+002 5.000000e-001
    endloop
  endfacet
  facet normal 1.000000e+000 0.000000e+000 0.000000e+000
    outer loop
      vertex   -2.000000e+002 2.290000e+002 5.000000e-001
      vertex   -2.000000e+002 2.250000e+002 5.000000e-001
      vertex   -2.000000e+002 2.290000e+002 -2.671474e-015
    endloop
  endfacet
  facet normal 1.240347e-001 0.000000e+000 0.000000e+000
    outer loop
      vertex   -2.000000e+002 2.290000e+002 -2.671474e-015
      vertex   -2.000000e+002 2.250000e+002 5.000000e-001
      vertex   -2.000000e+002 2.250000e+002 -3.122502e-015
    endloop
  endfacet
  facet normal 9.836168e-001 0.000000e+000 0.000000e+000
    outer loop
      vertex   -2.000000e+002 2.250109e+002 6.808050e-001
      vertex   -2.000000e+002 2.289891e+002 6.808050e-001
      vertex   -2.000000e+002 2.250436e+002 8.589735e-001
    endloop
  endfacet
  facet normal 4.511182e-002 -0.000000e+000 0.000000e+000
    outer loop
      vertex   -2.000000e+002 2.250436e+002 8.589735e-001
      vertex   -2.000000e+002 2.289891e+002 6.808050e-001
      vertex   -2.000000e+002 2.289564e+002 8.589735e-001
    endloop
  endfacet
  facet normal 9.547359e-001 0.000000e+000 0.000000e+000
    outer loop
      vertex   -2.000000e+002 2.250436e+002 8.589735e-001
      vertex   -2.000000e+002 2.289564e+002 8.589735e-001
      vertex   -2.000000e+002 2.250975e+002 1.031907e+000
    endloop
  endfacet
  facet normal 4.476897e-002 -0.000000e+000 0.000000e+000
    outer loop
      vertex   -2.000000e+002 2.250975e+002 1.031907e+000
      vertex   -2.000000e+002 2.289564e+002 8.589735e-001
      vertex   -2.000000e+002 2.289025e+002 1.031907e+000
    endloop
  endfacet
  facet normal 9.118989e-001 0.000000e+000 0.000000e+000
    outer loop
      vertex   -2.000000e+002 2.250975e+002 1.031907e+000
      vertex   -2.000000e+002 2.289025e+002 1.031907e+000
      vertex   -2.000000e+002 2.251718e+002 1.197085e+000
    endloop
  endfacet
  facet normal 4.423171e-002 -0.000000e+000 0.000000e+000
    outer loop
      vertex   -2.000000e+002 2.251718e+002 1.197085e+000
      vertex   -2.000000e+002 2.289025e+002 1.031907e+000
      vertex   -2.000000e+002 2.288282e+002 1.197085e+000
    endloop
  endfacet
  facet normal 8.557911e-001 0.000000e+000 0.000000e+000
    outer loop
      vertex   -2.000000e+002 2.251718e+002 1.197085e+000
      vertex   -2.000000e+002 2.288282e+002 1.197085e+000
      vertex   -2.000000e+002 2.252655e+002 1.352097e+000
    endloop
  endfacet
  facet normal 4.346907e-002 -0.000000e+000 0.000000e+000
    outer loop
      vertex   -2.000000e+002 2.252655e+002 1.352097e+000
      vertex   -2.000000e+002 2.288282e+002 1.197085e+000
      vertex   -2.000000e+002 2.287345e+002 1.352097e+000
    endloop
  endfacet
  facet normal 7.871836e-001 0.000000e+000 0.000000e+000
    outer loop
      vertex   -2.000000e+002 2.252655e+002 1.352097e+000
      vertex   -2.000000e+002 2.287345e+002 1.352097e+000
      vertex   -2.000000e+002 2.253772e+002 1.494684e+000
    endloop
  endfacet
  facet normal 4.243301e-002 -0.000000e+000 0.000000e+000
    outer loop
      vertex   -2.000000e+002 2.253772e+002 1.494684e+000
      vertex   -2.000000e+002 2.287345e+002 1.352097e+000
      vertex   -2.000000e+002 2.286228e+002 1.494684e+000
    endloop
  endfacet
  facet normal 7.071065e-001 0.000000e+000 0.000000e+000
    outer loop
      vertex   -2.000000e+002 2.253772e+002 1.494684e+000
      vertex   -2.000000e+002 2.286228e+002 1.494684e+000
      vertex   -2.000000e+002 2.255053e+002 1.622766e+000
    endloop
  endfacet
  facet normal 3.926873e-001 -0.000000e+000 0.000000e+000
    outer loop
      vertex   -2.000000e+002 2.255053e+002 1.622766e+000
      vertex   -2.000000e+002 2.286228e+002 1.494684e+000
      vertex   -2.000000e+002 2.265000e+002 2.000000e+000
    endloop
  endfacet
  facet normal 2.974839e-001 0.000000e+000 0.000000e+000
    outer loop
      vertex   -2.000000e+002 2.255053e+002 1.622766e+000
      vertex   -2.000000e+002 2.265000e+002 2.000000e+000
      vertex   -2.000000e+002 2.256479e+002 1.734476e+000
    endloop
  endfacet
  facet normal 2.393105e-001 0.000000e+000 0.000000e+000
    outer loop
      vertex   -2.000000e+002 2.256479e+002 1.734476e+000
      vertex   -2.000000e+002 2.265000e+002 2.000000e+000
      vertex   -2.000000e+002 2.258029e+002 1.828184e+000
    endloop
  endfacet
  facet normal 1.802567e-001 0.000000e+000 0.000000e+000
    outer loop
      vertex   -2.000000e+002 2.258029e+002 1.828184e+000
      vertex   -2.000000e+002 2.265000e+002 2.000000e+000
      vertex   -2.000000e+002 2.259681e+002 1.902524e+000
    endloop
  endfacet
  facet normal 1.205458e-001 0.000000e+000 0.000000e+000
    outer loop
      vertex   -2.000000e+002 2.259681e+002 1.902524e+000
      vertex   -2.000000e+002 2.265000e+002 2.000000e+000
      vertex   -2.000000e+002 2.261410e+002 1.956413e+000
    endloop
  endfacet
  facet normal 6.037162e-002 0.000000e+000 0.000000e+000
    outer loop
      vertex   -2.000000e+002 2.261410e+002 1.956413e+000
      vertex   -2.000000e+002 2.265000e+002 2.000000e+000
      vertex   -2.000000e+002 2.263192e+002 1.989063e+000
    endloop
  endfacet
  facet normal 5.241373e-001 0.000000e+000 0.000000e+000
    outer loop
      vertex   -2.000000e+002 2.286228e+002 1.494684e+000
      vertex   -2.000000e+002 2.284947e+002 1.622766e+000
      vertex   -2.000000e+002 2.265000e+002 2.000000e+000
    endloop
  endfacet
  facet normal 1.858251e-001 -0.000000e+000 0.000000e+000
    outer loop
      vertex   -2.000000e+002 2.265000e+002 2.000000e+000
      vertex   -2.000000e+002 2.284947e+002 1.622766e+000
      vertex   -2.000000e+002 2.275000e+002 2.000000e+000
    endloop
  endfacet
  facet normal 6.037637e-002 0.000000e+000 0.000000e+000
    outer loop
      vertex   -2.000000e+002 2.275000e+002 2.000000e+000
      vertex   -2.000000e+002 2.284947e+002 1.622766e+000
      vertex   -2.000000e+002 2.283521e+002 1.734476e+000
    endloop
  endfacet
  facet normal 6.037784e-002 0.000000e+000 0.000000e+000
    outer loop
      vertex   -2.000000e+002 2.275000e+002 2.000000e+000
      vertex   -2.000000e+002 2.283521e+002 1.734476e+000
      vertex   -2.000000e+002 2.281971e+002 1.828184e+000
    endloop
  endfacet
  facet normal 1.802567e-001 0.000000e+000 0.000000e+000
    outer loop
      vertex   -2.000000e+002 2.281971e+002 1.828184e+000
      vertex   -2.000000e+002 2.280319e+002 1.902524e+000
      vertex   -2.000000e+002 2.275000e+002 2.000000e+000
    endloop
  endfacet
  facet normal 6.038036e-002 0.000000e+000 0.000000e+000
    outer loop
      vertex   -2.000000e+002 2.275000e+002 2.000000e+000
      vertex   -2.000000e+002 2.280319e+002 1.902524e+000
      vertex   -2.000000e+002 2.278590e+002 1.956413e+000
    endloop
  endfacet
  facet normal 6.037558e-002 0.000000e+000 0.000000e+000
    outer loop
      vertex   -2.000000e+002 2.275000e+002 2.000000e+000
      vertex   -2.000000e+002 2.278590e+002 1.956413e+000
      vertex   -2.000000e+002 2.276808e+002 1.989063e+000
    endloop
  endfacet
  facet normal 0.000000e+000 -9.981743e-001 6.039974e-002
    outer loop
      vertex   -2.000000e+002 2.250000e+002 5.000000e-001
      vertex   -2.000000e+002 2.250109e+002 6.808050e-001
      vertex   -2.015000e+002 2.250000e+002 5.000000e-001
    endloop
  endfacet
  facet normal -8.673617e-019 -9.909751e-001 5.996412e-002
    outer loop
      vertex   -2.015000e+002 2.250000e+002 5.000000e-001
      vertex   -2.000000e+002 2.250109e+002 6.808050e-001
      vertex   -2.015000e+002 2.250109e+002 6.808050e-001
    endloop
  endfacet
  facet normal 0.000000e+000 -1.179223e-001 2.161220e-002
    outer loop
      vertex   -2.015000e+002 2.250109e+002 6.808050e-001
      vertex   -2.000000e+002 2.250109e+002 6.808050e-001
      vertex   -2.000000e+002 2.250436e+002 8.589735e-001
    endloop
  endfacet
  facet normal -3.469447e-018 -9.765225e-001 1.789721e-001
    outer loop
      vertex   -2.015000e+002 2.250109e+002 6.808050e-001
      vertex   -2.000000e+002 2.250436e+002 8.589735e-001
      vertex   -2.015000e+002 2.250436e+002 8.589735e-001
    endloop
  endfacet
  facet normal 0.000000e+000 -1.144577e-001 3.566014e-002
    outer loop
      vertex   -2.015000e+002 2.250436e+002 8.589735e-001
      vertex   -2.000000e+002 2.250436e+002 8.589735e-001
      vertex   -2.000000e+002 2.250975e+002 1.031907e+000
    endloop
  endfacet
  facet normal 0.000000e+000 -9.478502e-001 2.953096e-001
    outer loop
      vertex   -2.015000e+002 2.250436e+002 8.589735e-001
      vertex   -2.000000e+002 2.250975e+002 1.031907e+000
      vertex   -2.015000e+002 2.250975e+002 1.031907e+000
    endloop
  endfacet
  facet normal 0.000000e+000 -1.093241e-001 4.920310e-002
    outer loop
      vertex   -2.015000e+002 2.250975e+002 1.031907e+000
      vertex   -2.000000e+002 2.250975e+002 1.031907e+000
      vertex   -2.000000e+002 2.251718e+002 1.197085e+000
    endloop
  endfacet
  facet normal 0.000000e+000 -9.053219e-001 4.074549e-001
    outer loop
      vertex   -2.015000e+002 2.250975e+002 1.031907e+000
      vertex   -2.000000e+002 2.251718e+002 1.197085e+000
      vertex   -2.015000e+002 2.251718e+002 1.197085e+000
    endloop
  endfacet
  facet normal 0.000000e+000 -1.025963e-001 6.201894e-002
    outer loop
      vertex   -2.015000e+002 2.251718e+002 1.197085e+000
      vertex   -2.000000e+002 2.251718e+002 1.197085e+000
      vertex   -2.000000e+002 2.252655e+002 1.352097e+000
    endloop
  endfacet
  facet normal 6.938894e-018 -8.496190e-001 5.135905e-001
    outer loop
      vertex   -2.015000e+002 2.251718e+002 1.197085e+000
      vertex   -2.000000e+002 2.252655e+002 1.352097e+000
      vertex   -2.015000e+002 2.252655e+002 1.352097e+000
    endloop
  endfacet
  facet normal 0.000000e+000 -9.437229e-002 7.393594e-002
    outer loop
      vertex   -2.015000e+002 2.252655e+002 1.352097e+000
      vertex   -2.000000e+002 2.252655e+002 1.352097e+000
      vertex   -2.000000e+002 2.253772e+002 1.494684e+000
    endloop
  endfacet
  facet normal 6.938894e-018 -7.815062e-001 6.122707e-001
    outer loop
      vertex   -2.015000e+002 2.252655e+002 1.352097e+000
      vertex   -2.000000e+002 2.253772e+002 1.494684e+000
      vertex   -2.015000e+002 2.253772e+002 1.494684e+000
    endloop
  endfacet
  facet normal 0.000000e+000 -8.477225e-002 8.477233e-002
    outer loop
      vertex   -2.015000e+002 2.253772e+002 1.494684e+000
      vertex   -2.000000e+002 2.253772e+002 1.494684e+000
      vertex   -2.000000e+002 2.255053e+002 1.622766e+000
    endloop
  endfacet
  facet normal -6.938894e-018 -7.020066e-001 7.020072e-001
    outer loop
      vertex   -2.015000e+002 2.253772e+002 1.494684e+000
      vertex   -2.000000e+002 2.255053e+002 1.622766e+000
      vertex   -2.015000e+002 2.255053e+002 1.622766e+000
    endloop
  endfacet
  facet normal 0.000000e+000 -7.393599e-002 9.437659e-002
    outer loop
      vertex   -2.015000e+002 2.255053e+002 1.622766e+000
      vertex   -2.000000e+002 2.255053e+002 1.622766e+000
      vertex   -2.000000e+002 2.256479e+002 1.734476e+000
    endloop
  endfacet
  facet normal 0.000000e+000 -6.122534e-001 7.815192e-001
    outer loop
      vertex   -2.015000e+002 2.255053e+002 1.622766e+000
      vertex   -2.000000e+002 2.256479e+002 1.734476e+000
      vertex   -2.015000e+002 2.256479e+002 1.734476e+000
    endloop
  endfacet
  facet normal 0.000000e+000 -6.202153e-002 1.025973e-001
    outer loop
      vertex   -2.015000e+002 2.256479e+002 1.734476e+000
      vertex   -2.000000e+002 2.256479e+002 1.734476e+000
      vertex   -2.000000e+002 2.258029e+002 1.828184e+000
    endloop
  endfacet
  facet normal -6.938894e-018 -5.136021e-001 8.496116e-001
    outer loop
      vertex   -2.015000e+002 2.256479e+002 1.734476e+000
      vertex   -2.000000e+002 2.258029e+002 1.828184e+000
      vertex   -2.015000e+002 2.258029e+002 1.828184e+000
    endloop
  endfacet
  facet normal 0.000000e+000 -4.920279e-002 1.093234e-001
    outer loop
      vertex   -2.015000e+002 2.258029e+002 1.828184e+000
      vertex   -2.000000e+002 2.258029e+002 1.828184e+000
      vertex   -2.000000e+002 2.259681e+002 1.902524e+000
    endloop
  endfacet
  facet normal 0.000000e+000 -4.074550e-001 9.053220e-001
    outer loop
      vertex   -2.015000e+002 2.258029e+002 1.828184e+000
      vertex   -2.000000e+002 2.259681e+002 1.902524e+000
      vertex   -2.015000e+002 2.259681e+002 1.902524e+000
    endloop
  endfacet
  facet normal 0.000000e+000 -3.566645e-002 1.144538e-001
    outer loop
      vertex   -2.015000e+002 2.259681e+002 1.902524e+000
      vertex   -2.000000e+002 2.259681e+002 1.902524e+000
      vertex   -2.000000e+002 2.261410e+002 1.956413e+000
    endloop
  endfacet
  facet normal 0.000000e+000 -2.953666e-001 9.478327e-001
    outer loop
      vertex   -2.015000e+002 2.259681e+002 1.902524e+000
      vertex   -2.000000e+002 2.261410e+002 1.956413e+000
      vertex   -2.015000e+002 2.261410e+002 1.956413e+000
    endloop
  endfacet
  facet normal 0.000000e+000 -2.161006e-002 1.179278e-001
    outer loop
      vertex   -2.015000e+002 2.261410e+002 1.956413e+000
      vertex   -2.000000e+002 2.261410e+002 1.956413e+000
      vertex   -2.000000e+002 2.263192e+002 1.989063e+000
    endloop
  endfacet
  facet normal 0.000000e+000 -1.789467e-001 9.765266e-001
    outer loop
      vertex   -2.015000e+002 2.261410e+002 1.956413e+000
      vertex   -2.000000e+002 2.263192e+002 1.989063e+000
      vertex   -2.015000e+002 2.263192e+002 1.989063e+000
    endloop
  endfacet
  facet normal 0.000000e+000 -7.238574e-003 1.196650e-001
    outer loop
      vertex   -2.015000e+002 2.263192e+002 1.989063e+000
      vertex   -2.000000e+002 2.263192e+002 1.989063e+000
      vertex   -2.000000e+002 2.265000e+002 2.000000e+000
    endloop
  endfacet
  facet normal 8.673617e-019 -5.994451e-002 9.909766e-001
    outer loop
      vertex   -2.015000e+002 2.263192e+002 1.989063e+000
      vertex   -2.000000e+002 2.265000e+002 2.000000e+000
      vertex   -2.015000e+002 2.265000e+002 2.000000e+000
    endloop
  endfacet
  facet normal -0.000000e+000 -1.000000e+000 -0.000000e+000
    outer loop
      vertex   -2.000000e+002 2.250000e+002 5.000000e-001
      vertex   -2.015000e+002 2.250000e+002 5.000000e-001
      vertex   -2.000000e+002 2.250000e+002 -3.122502e-015
    endloop
  endfacet
  facet normal -0.000000e+000 -4.678877e-001 0.000000e+000
    outer loop
      vertex   -2.000000e+002 2.250000e+002 -3.122502e-015
      vertex   -2.015000e+002 2.250000e+002 5.000000e-001
      vertex   -2.060000e+002 2.250000e+002 -1.000000e+000
    endloop
  endfacet
  facet normal 0.000000e+000 -4.472136e-001 0.000000e+000
    outer loop
      vertex   -2.060000e+002 2.250000e+002 -1.000000e+000
      vertex   -2.015000e+002 2.250000e+002 5.000000e-001
      vertex   -2.045000e+002 2.250000e+002 5.000000e-001
    endloop
  endfacet
  facet normal 0.000000e+000 -7.071068e-001 0.000000e+000
    outer loop
      vertex   -2.060000e+002 2.250000e+002 -1.000000e+000
      vertex   -2.045000e+002 2.250000e+002 5.000000e-001
      vertex   -2.060000e+002 2.250000e+002 5.000000e-001
    endloop
  endfacet
  facet normal -0.000000e+000 -1.000000e+000 -0.000000e+000
    outer loop
      vertex   -2.015000e+002 2.250000e+002 3.500000e+000
      vertex   -2.045000e+002 2.250000e+002 3.500000e+000
      vertex   -2.015000e+002 2.250000e+002 5.000000e-001
    endloop
  endfacet
  facet normal 0.000000e+000 -7.071068e-001 0.000000e+000
    outer loop
      vertex   -2.015000e+002 2.250000e+002 5.000000e-001
      vertex   -2.045000e+002 2.250000e+002 3.500000e+000
      vertex   -2.045000e+002 2.250000e+002 5.000000e-001
    endloop
  endfacet
  facet normal -0.000000e+000 9.981743e-001 6.039976e-002
    outer loop
      vertex   -2.045000e+002 2.290000e+002 3.500000e+000
      vertex   -2.045000e+002 2.289891e+002 3.680805e+000
      vertex   -2.015000e+002 2.290000e+002 3.500000e+000
    endloop
  endfacet
  facet normal 0.000000e+000 9.963598e-001 6.028997e-002
    outer loop
      vertex   -2.015000e+002 2.290000e+002 3.500000e+000
      vertex   -2.045000e+002 2.289891e+002 3.680805e+000
      vertex   -2.015000e+002 2.289891e+002 3.680805e+000
    endloop
  endfacet
  facet normal 0.000000e+000 5.928155e-002 1.086482e-002
    outer loop
      vertex   -2.015000e+002 2.289891e+002 3.680805e+000
      vertex   -2.045000e+002 2.289891e+002 3.680805e+000
      vertex   -2.045000e+002 2.289564e+002 3.858974e+000
    endloop
  endfacet
  facet normal 1.734723e-018 9.818287e-001 1.799445e-001
    outer loop
      vertex   -2.015000e+002 2.289891e+002 3.680805e+000
      vertex   -2.045000e+002 2.289564e+002 3.858974e+000
      vertex   -2.015000e+002 2.289564e+002 3.858974e+000
    endloop
  endfacet
  facet normal 0.000000e+000 5.753990e-002 1.792695e-002
    outer loop
      vertex   -2.015000e+002 2.289564e+002 3.858974e+000
      vertex   -2.045000e+002 2.289564e+002 3.858974e+000
      vertex   -2.045000e+002 2.289025e+002 4.031908e+000
    endloop
  endfacet
  facet normal 0.000000e+000 9.530005e-001 2.969138e-001
    outer loop
      vertex   -2.015000e+002 2.289564e+002 3.858974e+000
      vertex   -2.045000e+002 2.289025e+002 4.031908e+000
      vertex   -2.015000e+002 2.289025e+002 4.031908e+000
    endloop
  endfacet
  facet normal 0.000000e+000 5.495903e-002 2.473523e-002
    outer loop
      vertex   -2.015000e+002 2.289025e+002 4.031908e+000
      vertex   -2.045000e+002 2.289025e+002 4.031908e+000
      vertex   -2.045000e+002 2.288282e+002 4.197085e+000
    endloop
  endfacet
  facet normal -3.469447e-018 9.102411e-001 4.096692e-001
    outer loop
      vertex   -2.015000e+002 2.289025e+002 4.031908e+000
      vertex   -2.045000e+002 2.288282e+002 4.197085e+000
      vertex   -2.015000e+002 2.288282e+002 4.197085e+000
    endloop
  endfacet
  facet normal 0.000000e+000 5.157679e-002 3.117796e-002
    outer loop
      vertex   -2.015000e+002 2.288282e+002 4.197085e+000
      vertex   -2.045000e+002 2.288282e+002 4.197085e+000
      vertex   -2.045000e+002 2.287345e+002 4.352097e+000
    endloop
  endfacet
  facet normal 3.469447e-018 8.542351e-001 5.163818e-001
    outer loop
      vertex   -2.015000e+002 2.288282e+002 4.197085e+000
      vertex   -2.045000e+002 2.287345e+002 4.352097e+000
      vertex   -2.015000e+002 2.287345e+002 4.352097e+000
    endloop
  endfacet
  facet normal 0.000000e+000 4.744266e-002 3.716884e-002
    outer loop
      vertex   -2.015000e+002 2.287345e+002 4.352097e+000
      vertex   -2.045000e+002 2.287345e+002 4.352097e+000
      vertex   -2.045000e+002 2.286228e+002 4.494684e+000
    endloop
  endfacet
  facet normal 0.000000e+000 7.857534e-001 6.155967e-001
    outer loop
      vertex   -2.015000e+002 2.287345e+002 4.352097e+000
      vertex   -2.045000e+002 2.286228e+002 4.494684e+000
      vertex   -2.015000e+002 2.286228e+002 4.494684e+000
    endloop
  endfacet
  facet normal 0.000000e+000 4.261632e-002 4.261648e-002
    outer loop
      vertex   -2.015000e+002 2.286228e+002 4.494684e+000
      vertex   -2.045000e+002 2.286228e+002 4.494684e+000
      vertex   -2.045000e+002 2.284947e+002 4.622766e+000
    endloop
  endfacet
  facet normal -3.469447e-018 7.058201e-001 7.058227e-001
    outer loop
      vertex   -2.015000e+002 2.286228e+002 4.494684e+000
      vertex   -2.045000e+002 2.284947e+002 4.622766e+000
      vertex   -2.015000e+002 2.284947e+002 4.622766e+000
    endloop
  endfacet
  facet normal 0.000000e+000 3.716884e-002 4.744472e-002
    outer loop
      vertex   -2.015000e+002 2.284947e+002 4.622766e+000
      vertex   -2.045000e+002 2.284947e+002 4.622766e+000
      vertex   -2.045000e+002 2.283521e+002 4.734476e+000
    endloop
  endfacet
  facet normal 3.469447e-018 6.155800e-001 7.857663e-001
    outer loop
      vertex   -2.015000e+002 2.284947e+002 4.622766e+000
      vertex   -2.045000e+002 2.283521e+002 4.734476e+000
      vertex   -2.015000e+002 2.283521e+002 4.734476e+000
    endloop
  endfacet
  facet normal 0.000000e+000 3.117939e-002 5.157742e-002
    outer loop
      vertex   -2.015000e+002 2.283521e+002 4.734476e+000
      vertex   -2.045000e+002 2.283521e+002 4.734476e+000
      vertex   -2.045000e+002 2.281971e+002 4.828184e+000
    endloop
  endfacet
  facet normal 3.469447e-018 5.163944e-001 8.542274e-001
    outer loop
      vertex   -2.015000e+002 2.283521e+002 4.734476e+000
      vertex   -2.045000e+002 2.281971e+002 4.828184e+000
      vertex   -2.015000e+002 2.281971e+002 4.828184e+000
    endloop
  endfacet
  facet normal 0.000000e+000 2.473507e-002 5.495871e-002
    outer loop
      vertex   -2.015000e+002 2.281971e+002 4.828184e+000
      vertex   -2.045000e+002 2.281971e+002 4.828184e+000
      vertex   -2.045000e+002 2.280319e+002 4.902524e+000
    endloop
  endfacet
  facet normal 0.000000e+000 4.096690e-001 9.102412e-001
    outer loop
      vertex   -2.015000e+002 2.281971e+002 4.828184e+000
      vertex   -2.045000e+002 2.280319e+002 4.902524e+000
      vertex   -2.015000e+002 2.280319e+002 4.902524e+000
    endloop
  endfacet
  facet normal 0.000000e+000 1.793012e-002 5.753784e-002
    outer loop
      vertex   -2.015000e+002 2.280319e+002 4.902524e+000
      vertex   -2.045000e+002 2.280319e+002 4.902524e+000
      vertex   -2.045000e+002 2.278590e+002 4.956413e+000
    endloop
  endfacet
  facet normal -3.469447e-018 2.969714e-001 9.529826e-001
    outer loop
      vertex   -2.015000e+002 2.280319e+002 4.902524e+000
      vertex   -2.045000e+002 2.278590e+002 4.956413e+000
      vertex   -2.015000e+002 2.278590e+002 4.956413e+000
    endloop
  endfacet
  facet normal 0.000000e+000 1.086370e-002 5.928432e-002
    outer loop
      vertex   -2.015000e+002 2.278590e+002 4.956413e+000
      vertex   -2.045000e+002 2.278590e+002 4.956413e+000
      vertex   -2.045000e+002 2.276808e+002 4.989063e+000
    endloop
  endfacet
  facet normal 0.000000e+000 1.799185e-001 9.818333e-001
    outer loop
      vertex   -2.015000e+002 2.278590e+002 4.956413e+000
      vertex   -2.045000e+002 2.276808e+002 4.989063e+000
      vertex   -2.015000e+002 2.276808e+002 4.989063e+000
    endloop
  endfacet
  facet normal 0.000000e+000 3.638952e-003 6.015758e-002
    outer loop
      vertex   -2.015000e+002 2.276808e+002 4.989063e+000
      vertex   -2.045000e+002 2.276808e+002 4.989063e+000
      vertex   -2.045000e+002 2.275000e+002 5.000000e+000
    endloop
  endfacet
  facet normal 0.000000e+000 6.027022e-002 9.963610e-001
    outer loop
      vertex   -2.015000e+002 2.276808e+002 4.989063e+000
      vertex   -2.045000e+002 2.275000e+002 5.000000e+000
      vertex   -2.015000e+002 2.275000e+002 5.000000e+000
    endloop
  endfacet
  facet normal 0.000000e+000 0.000000e+000 1.000000e+000
    outer loop
      vertex   -2.015000e+002 2.275000e+002 5.000000e+000
      vertex   -2.045000e+002 2.275000e+002 5.000000e+000
      vertex   -2.015000e+002 2.265000e+002 5.000000e+000
    endloop
  endfacet
  facet normal 0.000000e+000 0.000000e+000 3.162278e-001
    outer loop
      vertex   -2.015000e+002 2.265000e+002 5.000000e+000
      vertex   -2.045000e+002 2.275000e+002 5.000000e+000
      vertex   -2.045000e+002 2.265000e+002 5.000000e+000
    endloop
  endfacet
  facet normal -1.000000e+000 -0.000000e+000 0.000000e+000
    outer loop
      vertex   -2.045000e+002 2.276808e+002 4.989063e+000
      vertex   -2.045000e+002 2.275000e+002 2.000000e+000
      vertex   -2.045000e+002 2.275000e+002 5.000000e+000
    endloop
  endfacet
  facet normal -3.162278e-001 0.000000e+000 -0.000000e+000
    outer loop
      vertex   -2.045000e+002 2.275000e+002 5.000000e+000
      vertex   -2.045000e+002 2.275000e+002 2.000000e+000
      vertex   -2.045000e+002 2.265000e+002 2.000000e+000
    endloop
  endfacet
  facet normal -9.486833e-001 -0.000000e+000 0.000000e+000
    outer loop
      vertex   -2.045000e+002 2.275000e+002 5.000000e+000
      vertex   -2.045000e+002 2.265000e+002 2.000000e+000
      vertex   -2.045000e+002 2.265000e+002 5.000000e+000
    endloop
  endfacet
  facet normal -9.981754e-001 0.000000e+000 -0.000000e+000
    outer loop
      vertex   -2.045000e+002 2.265000e+002 5.000000e+000
      vertex   -2.045000e+002 2.265000e+002 2.000000e+000
      vertex   -2.045000e+002 2.263192e+002 4.989063e+000
    endloop
  endfacet
  facet normal -9.927098e-001 0.000000e+000 -0.000000e+000
    outer loop
      vertex   -2.045000e+002 2.263192e+002 4.989063e+000
      vertex   -2.045000e+002 2.265000e+002 2.000000e+000
      vertex   -2.045000e+002 2.261410e+002 4.956413e+000
    endloop
  endfacet
  facet normal -9.836184e-001 0.000000e+000 -0.000000e+000
    outer loop
      vertex   -2.045000e+002 2.261410e+002 4.956413e+000
      vertex   -2.045000e+002 2.265000e+002 2.000000e+000
      vertex   -2.045000e+002 2.259681e+002 4.902524e+000
    endloop
  endfacet
  facet normal -9.709411e-001 0.000000e+000 -0.000000e+000
    outer loop
      vertex   -2.045000e+002 2.259681e+002 4.902524e+000
      vertex   -2.045000e+002 2.265000e+002 2.000000e+000
      vertex   -2.045000e+002 2.258029e+002 4.828184e+000
    endloop
  endfacet
  facet normal -9.547217e-001 0.000000e+000 -0.000000e+000
    outer loop
      vertex   -2.045000e+002 2.258029e+002 4.828184e+000
      vertex   -2.045000e+002 2.265000e+002 2.000000e+000
      vertex   -2.045000e+002 2.256479e+002 4.734476e+000
    endloop
  endfacet
  facet normal -9.350242e-001 0.000000e+000 -0.000000e+000
    outer loop
      vertex   -2.045000e+002 2.256479e+002 4.734476e+000
      vertex   -2.045000e+002 2.265000e+002 2.000000e+000
      vertex   -2.045000e+002 2.255053e+002 4.622766e+000
    endloop
  endfacet
  facet normal -9.119014e-001 0.000000e+000 -0.000000e+000
    outer loop
      vertex   -2.045000e+002 2.255053e+002 4.622766e+000
      vertex   -2.045000e+002 2.265000e+002 2.000000e+000
      vertex   -2.045000e+002 2.253772e+002 4.494684e+000
    endloop
  endfacet
  facet normal -8.854563e-001 0.000000e+000 -0.000000e+000
    outer loop
      vertex   -2.045000e+002 2.253772e+002 4.494684e+000
      vertex   -2.045000e+002 2.265000e+002 2.000000e+000
      vertex   -2.045000e+002 2.252655e+002 4.352097e+000
    endloop
  endfacet
  facet normal -8.557729e-001 0.000000e+000 -0.000000e+000
    outer loop
      vertex   -2.045000e+002 2.252655e+002 4.352097e+000
      vertex   -2.045000e+002 2.265000e+002 2.000000e+000
      vertex   -2.045000e+002 2.251718e+002 4.197085e+000
    endloop
  endfacet
  facet normal -8.229858e-001 0.000000e+000 -0.000000e+000
    outer loop
      vertex   -2.045000e+002 2.251718e+002 4.197085e+000
      vertex   -2.045000e+002 2.265000e+002 2.000000e+000
      vertex   -2.045000e+002 2.250975e+002 4.031908e+000
    endloop
  endfacet
  facet normal -7.871526e-001 0.000000e+000 -0.000000e+000
    outer loop
      vertex   -2.045000e+002 2.250975e+002 4.031908e+000
      vertex   -2.045000e+002 2.265000e+002 2.000000e+000
      vertex   -2.045000e+002 2.250436e+002 3.858974e+000
    endloop
  endfacet
  facet normal -7.485207e-001 0.000000e+000 -0.000000e+000
    outer loop
      vertex   -2.045000e+002 2.250436e+002 3.858974e+000
      vertex   -2.045000e+002 2.265000e+002 2.000000e+000
      vertex   -2.045000e+002 2.250109e+002 3.680805e+000
    endloop
  endfacet
  facet normal -7.071210e-001 0.000000e+000 -0.000000e+000
    outer loop
      vertex   -2.045000e+002 2.250109e+002 3.680805e+000
      vertex   -2.045000e+002 2.265000e+002 2.000000e+000
      vertex   -2.045000e+002 2.250000e+002 3.500000e+000
    endloop
  endfacet
  facet normal -6.759381e-002 0.000000e+000 0.000000e+000
    outer loop
      vertex   -2.045000e+002 2.250000e+002 3.500000e+000
      vertex   -2.045000e+002 2.265000e+002 2.000000e+000
      vertex   -2.045000e+002 2.263192e+002 1.989063e+000
    endloop
  endfacet
  facet normal -8.110955e-002 0.000000e+000 0.000000e+000
    outer loop
      vertex   -2.045000e+002 2.250000e+002 3.500000e+000
      vertex   -2.045000e+002 2.263192e+002 1.989063e+000
      vertex   -2.045000e+002 2.261410e+002 1.956413e+000
    endloop
  endfacet
  facet normal -9.927098e-001 0.000000e+000 -0.000000e+000
    outer loop
      vertex   -2.045000e+002 2.276808e+002 4.989063e+000
      vertex   -2.045000e+002 2.278590e+002 4.956413e+000
      vertex   -2.045000e+002 2.275000e+002 2.000000e+000
    endloop
  endfacet
  facet normal -6.037651e-002 0.000000e+000 0.000000e+000
    outer loop
      vertex   -2.045000e+002 2.275000e+002 2.000000e+000
      vertex   -2.045000e+002 2.278590e+002 4.956413e+000
      vertex   -2.045000e+002 2.280319e+002 4.902524e+000
    endloop
  endfacet
  facet normal -6.037815e-002 0.000000e+000 0.000000e+000
    outer loop
      vertex   -2.045000e+002 2.275000e+002 2.000000e+000
      vertex   -2.045000e+002 2.280319e+002 4.902524e+000
      vertex   -2.045000e+002 2.281971e+002 4.828184e+000
    endloop
  endfacet
  facet normal -9.547217e-001 0.000000e+000 -0.000000e+000
    outer loop
      vertex   -2.045000e+002 2.281971e+002 4.828184e+000
      vertex   -2.045000e+002 2.283521e+002 4.734476e+000
      vertex   -2.045000e+002 2.275000e+002 2.000000e+000
    endloop
  endfacet
  facet normal -6.038066e-002 0.000000e+000 0.000000e+000
    outer loop
      vertex   -2.045000e+002 2.275000e+002 2.000000e+000
      vertex   -2.045000e+002 2.283521e+002 4.734476e+000
      vertex   -2.045000e+002 2.284947e+002 4.622766e+000
    endloop
  endfacet
  facet normal -6.037850e-002 0.000000e+000 0.000000e+000
    outer loop
      vertex   -2.045000e+002 2.275000e+002 2.000000e+000
      vertex   -2.045000e+002 2.284947e+002 4.622766e+000
      vertex   -2.045000e+002 2.286228e+002 4.494684e+000
    endloop
  endfacet
  facet normal -8.854563e-001 0.000000e+000 -0.000000e+000
    outer loop
      vertex   -2.045000e+002 2.286228e+002 4.494684e+000
      vertex   -2.045000e+002 2.287345e+002 4.352097e+000
      vertex   -2.045000e+002 2.275000e+002 2.000000e+000
    endloop
  endfacet
  facet normal -6.037712e-002 0.000000e+000 0.000000e+000
    outer loop
      vertex   -2.045000e+002 2.275000e+002 2.000000e+000
      vertex   -2.045000e+002 2.287345e+002 4.352097e+000
      vertex   -2.045000e+002 2.288282e+002 4.197085e+000
    endloop
  endfacet
  facet normal -6.037864e-002 0.000000e+000 0.000000e+000
    outer loop
      vertex   -2.045000e+002 2.275000e+002 2.000000e+000
      vertex   -2.045000e+002 2.288282e+002 4.197085e+000
      vertex   -2.045000e+002 2.289025e+002 4.031908e+000
    endloop
  endfacet
  facet normal -7.871526e-001 0.000000e+000 -0.000000e+000
    outer loop
      vertex   -2.045000e+002 2.289025e+002 4.031908e+000
      vertex   -2.045000e+002 2.289564e+002 3.858974e+000
      vertex   -2.045000e+002 2.275000e+002 2.000000e+000
    endloop
  endfacet
  facet normal -6.037959e-002 0.000000e+000 0.000000e+000
    outer loop
      vertex   -2.045000e+002 2.275000e+002 2.000000e+000
      vertex   -2.045000e+002 2.289564e+002 3.858974e+000
      vertex   -2.045000e+002 2.289891e+002 3.680805e+000
    endloop
  endfacet
  facet normal -6.037977e-002 0.000000e+000 0.000000e+000
    outer loop
      vertex   -2.045000e+002 2.275000e+002 2.000000e+000
      vertex   -2.045000e+002 2.289891e+002 3.680805e+000
      vertex   -2.045000e+002 2.290000e+002 3.500000e+000
    endloop
  endfacet
  facet normal -6.039974e-002 0.000000e+000 0.000000e+000
    outer loop
      vertex   -2.045000e+002 2.290000e+002 5.000000e-001
      vertex   -2.045000e+002 2.289891e+002 6.808050e-001
      vertex   -2.045000e+002 2.290000e+002 3.500000e+000
    endloop
  endfacet
  facet normal -1.262405e-002 0.000000e+000 0.000000e+000
    outer loop
      vertex   -2.045000e+002 2.290000e+002 3.500000e+000
      vertex   -2.045000e+002 2.289891e+002 6.808050e-001
      vertex   -2.045000e+002 2.289564e+002 8.589735e-001
    endloop
  endfacet
  facet normal -2.296568e-002 0.000000e+000 0.000000e+000
    outer loop
      vertex   -2.045000e+002 2.290000e+002 3.500000e+000
      vertex   -2.045000e+002 2.289564e+002 8.589735e-001
      vertex   -2.045000e+002 2.289025e+002 1.031907e+000
    endloop
  endfacet
  facet normal -4.460812e-001 0.000000e+000 0.000000e+000
    outer loop
      vertex   -2.045000e+002 2.289025e+002 1.031907e+000
      vertex   -2.045000e+002 2.288282e+002 1.197085e+000
      vertex   -2.045000e+002 2.290000e+002 3.500000e+000
    endloop
  endfacet
  facet normal -4.850520e-002 0.000000e+000 0.000000e+000
    outer loop
      vertex   -2.045000e+002 2.290000e+002 3.500000e+000
      vertex   -2.045000e+002 2.288282e+002 1.197085e+000
      vertex   -2.045000e+002 2.287345e+002 1.352097e+000
    endloop
  endfacet
  facet normal -6.290592e-002 0.000000e+000 0.000000e+000
    outer loop
      vertex   -2.045000e+002 2.290000e+002 3.500000e+000
      vertex   -2.045000e+002 2.287345e+002 1.352097e+000
      vertex   -2.045000e+002 2.286228e+002 1.494684e+000
    endloop
  endfacet
  facet normal -8.256422e-001 0.000000e+000 0.000000e+000
    outer loop
      vertex   -2.045000e+002 2.286228e+002 1.494684e+000
      vertex   -2.045000e+002 2.284947e+002 1.622766e+000
      vertex   -2.045000e+002 2.290000e+002 3.500000e+000
    endloop
  endfacet
  facet normal -8.865459e-002 0.000000e+000 0.000000e+000
    outer loop
      vertex   -2.045000e+002 2.290000e+002 3.500000e+000
      vertex   -2.045000e+002 2.284947e+002 1.622766e+000
      vertex   -2.045000e+002 2.283521e+002 1.734476e+000
    endloop
  endfacet
  facet normal -9.587253e-002 0.000000e+000 0.000000e+000
    outer loop
      vertex   -2.045000e+002 2.290000e+002 3.500000e+000
      vertex   -2.045000e+002 2.283521e+002 1.734476e+000
      vertex   -2.045000e+002 2.281971e+002 1.828184e+000
    endloop
  endfacet
  facet normal -9.996918e-001 0.000000e+000 0.000000e+000
    outer loop
      vertex   -2.045000e+002 2.281971e+002 1.828184e+000
      vertex   -2.045000e+002 2.280319e+002 1.902524e+000
      vertex   -2.045000e+002 2.290000e+002 3.500000e+000
    endloop
  endfacet
  facet normal -9.159506e-002 0.000000e+000 0.000000e+000
    outer loop
      vertex   -2.045000e+002 2.290000e+002 3.500000e+000
      vertex   -2.045000e+002 2.280319e+002 1.902524e+000
      vertex   -2.045000e+002 2.278590e+002 1.956413e+000
    endloop
  endfacet
  facet normal -8.110955e-002 0.000000e+000 0.000000e+000
    outer loop
      vertex   -2.045000e+002 2.290000e+002 3.500000e+000
      vertex   -2.045000e+002 2.278590e+002 1.956413e+000
      vertex   -2.045000e+002 2.276808e+002 1.989063e+000
    endloop
  endfacet
  facet normal -7.916228e-001 0.000000e+000 0.000000e+000
    outer loop
      vertex   -2.045000e+002 2.276808e+002 1.989063e+000
      vertex   -2.045000e+002 2.275000e+002 2.000000e+000
      vertex   -2.045000e+002 2.290000e+002 3.500000e+000
    endloop
  endfacet
  facet normal -9.445850e-001 -0.000000e+000 0.000000e+000
    outer loop
      vertex   -2.045000e+002 2.261410e+002 1.956413e+000
      vertex   -2.045000e+002 2.259681e+002 1.902524e+000
      vertex   -2.045000e+002 2.250000e+002 3.500000e+000
    endloop
  endfacet
  facet normal -9.694125e-002 0.000000e+000 0.000000e+000
    outer loop
      vertex   -2.045000e+002 2.250000e+002 3.500000e+000
      vertex   -2.045000e+002 2.259681e+002 1.902524e+000
      vertex   -2.045000e+002 2.258029e+002 1.828184e+000
    endloop
  endfacet
  facet normal -9.587253e-002 0.000000e+000 0.000000e+000
    outer loop
      vertex   -2.045000e+002 2.250000e+002 3.500000e+000
      vertex   -2.045000e+002 2.258029e+002 1.828184e+000
      vertex   -2.045000e+002 2.256479e+002 1.734476e+000
    endloop
  endfacet
  facet normal -9.514667e-001 -0.000000e+000 0.000000e+000
    outer loop
      vertex   -2.045000e+002 2.256479e+002 1.734476e+000
      vertex   -2.045000e+002 2.255053e+002 1.622766e+000
      vertex   -2.045000e+002 2.250000e+002 3.500000e+000
    endloop
  endfacet
  facet normal -7.692853e-002 0.000000e+000 0.000000e+000
    outer loop
      vertex   -2.045000e+002 2.250000e+002 3.500000e+000
      vertex   -2.045000e+002 2.255053e+002 1.622766e+000
      vertex   -2.045000e+002 2.253772e+002 1.494684e+000
    endloop
  endfacet
  facet normal -6.290592e-002 0.000000e+000 0.000000e+000
    outer loop
      vertex   -2.045000e+002 2.250000e+002 3.500000e+000
      vertex   -2.045000e+002 2.253772e+002 1.494684e+000
      vertex   -2.045000e+002 2.252655e+002 1.352097e+000
    endloop
  endfacet
  facet normal -6.184052e-001 -0.000000e+000 0.000000e+000
    outer loop
      vertex   -2.045000e+002 2.252655e+002 1.352097e+000
      vertex   -2.045000e+002 2.251718e+002 1.197085e+000
      vertex   -2.045000e+002 2.250000e+002 3.500000e+000
    endloop
  endfacet
  facet normal -3.498926e-002 0.000000e+000 0.000000e+000
    outer loop
      vertex   -2.045000e+002 2.250000e+002 3.500000e+000
      vertex   -2.045000e+002 2.251718e+002 1.197085e+000
      vertex   -2.045000e+002 2.250975e+002 1.031907e+000
    endloop
  endfacet
  facet normal -2.296568e-002 0.000000e+000 0.000000e+000
    outer loop
      vertex   -2.045000e+002 2.250000e+002 3.500000e+000
      vertex   -2.045000e+002 2.250975e+002 1.031907e+000
      vertex   -2.045000e+002 2.250436e+002 8.589735e-001
    endloop
  endfacet
  facet normal -1.964817e-001 -0.000000e+000 0.000000e+000
    outer loop
      vertex   -2.045000e+002 2.250436e+002 8.589735e-001
      vertex   -2.045000e+002 2.250109e+002 6.808050e-001
      vertex   -2.045000e+002 2.250000e+002 3.500000e+000
    endloop
  endfacet
  facet normal -3.880707e-003 0.000000e+000 0.000000e+000
    outer loop
      vertex   -2.045000e+002 2.250000e+002 3.500000e+000
      vertex   -2.045000e+002 2.250109e+002 6.808050e-001
      vertex   -2.045000e+002 2.250000e+002 5.000000e-001
    endloop
  endfacet
  facet normal -0.000000e+000 9.981743e-001 6.039974e-002
    outer loop
      vertex   -2.060000e+002 2.290000e+002 5.000000e-001
      vertex   -2.060000e+002 2.289891e+002 6.808050e-001
      vertex   -2.045000e+002 2.290000e+002 5.000000e-001
    endloop
  endfacet
  facet normal 8.673617e-019 9.909751e-001 5.996412e-002
    outer loop
      vertex   -2.045000e+002 2.290000e+002 5.000000e-001
      vertex   -2.060000e+002 2.289891e+002 6.808050e-001
      vertex   -2.045000e+002 2.289891e+002 6.808050e-001
    endloop
  endfacet
  facet normal 0.000000e+000 1.179223e-001 2.161220e-002
    outer loop
      vertex   -2.045000e+002 2.289891e+002 6.808050e-001
      vertex   -2.060000e+002 2.289891e+002 6.808050e-001
      vertex   -2.060000e+002 2.289564e+002 8.589735e-001
    endloop
  endfacet
  facet normal 3.469447e-018 9.765225e-001 1.789721e-001
    outer loop
      vertex   -2.045000e+002 2.289891e+002 6.808050e-001
      vertex   -2.060000e+002 2.289564e+002 8.589735e-001
      vertex   -2.045000e+002 2.289564e+002 8.589735e-001
    endloop
  endfacet
  facet normal 0.000000e+000 1.144577e-001 3.566014e-002
    outer loop
      vertex   -2.045000e+002 2.289564e+002 8.589735e-001
      vertex   -2.060000e+002 2.289564e+002 8.589735e-001
      vertex   -2.060000e+002 2.289025e+002 1.031907e+000
    endloop
  endfacet
  facet normal 0.000000e+000 9.478502e-001 2.953096e-001
    outer loop
      vertex   -2.045000e+002 2.289564e+002 8.589735e-001
      vertex   -2.060000e+002 2.289025e+002 1.031907e+000
      vertex   -2.045000e+002 2.289025e+002 1.031907e+000
    endloop
  endfacet
  facet normal 0.000000e+000 1.093241e-001 4.920310e-002
    outer loop
      vertex   -2.045000e+002 2.289025e+002 1.031907e+000
      vertex   -2.060000e+002 2.289025e+002 1.031907e+000
      vertex   -2.060000e+002 2.288282e+002 1.197085e+000
    endloop
  endfacet
  facet normal 0.000000e+000 9.053219e-001 4.074549e-001
    outer loop
      vertex   -2.045000e+002 2.289025e+002 1.031907e+000
      vertex   -2.060000e+002 2.288282e+002 1.197085e+000
      vertex   -2.045000e+002 2.288282e+002 1.197085e+000
    endloop
  endfacet
  facet normal 0.000000e+000 1.025963e-001 6.201894e-002
    outer loop
      vertex   -2.045000e+002 2.288282e+002 1.197085e+000
      vertex   -2.060000e+002 2.288282e+002 1.197085e+000
      vertex   -2.060000e+002 2.287345e+002 1.352097e+000
    endloop
  endfacet
  facet normal -6.938894e-018 8.496190e-001 5.135905e-001
    outer loop
      vertex   -2.045000e+002 2.288282e+002 1.197085e+000
      vertex   -2.060000e+002 2.287345e+002 1.352097e+000
      vertex   -2.045000e+002 2.287345e+002 1.352097e+000
    endloop
  endfacet
  facet normal 0.000000e+000 9.437229e-002 7.393594e-002
    outer loop
      vertex   -2.045000e+002 2.287345e+002 1.352097e+000
      vertex   -2.060000e+002 2.287345e+002 1.352097e+000
      vertex   -2.060000e+002 2.286228e+002 1.494684e+000
    endloop
  endfacet
  facet normal -6.938894e-018 7.815062e-001 6.122707e-001
    outer loop
      vertex   -2.045000e+002 2.287345e+002 1.352097e+000
      vertex   -2.060000e+002 2.286228e+002 1.494684e+000
      vertex   -2.045000e+002 2.286228e+002 1.494684e+000
    endloop
  endfacet
  facet normal 0.000000e+000 8.477225e-002 8.477233e-002
    outer loop
      vertex   -2.045000e+002 2.286228e+002 1.494684e+000
      vertex   -2.060000e+002 2.286228e+002 1.494684e+000
      vertex   -2.060000e+002 2.284947e+002 1.622766e+000
    endloop
  endfacet
  facet normal 6.938894e-018 7.020066e-001 7.020072e-001
    outer loop
      vertex   -2.045000e+002 2.286228e+002 1.494684e+000
      vertex   -2.060000e+002 2.284947e+002 1.622766e+000
      vertex   -2.045000e+002 2.284947e+002 1.622766e+000
    endloop
  endfacet
  facet normal 0.000000e+000 7.393599e-002 9.437659e-002
    outer loop
      vertex   -2.045000e+002 2.284947e+002 1.622766e+000
      vertex   -2.060000e+002 2.284947e+002 1.622766e+000
      vertex   -2.060000e+002 2.283521e+002 1.734476e+000
    endloop
  endfacet
  facet normal 0.000000e+000 6.122534e-001 7.815192e-001
    outer loop
      vertex   -2.045000e+002 2.284947e+002 1.622766e+000
      vertex   -2.060000e+002 2.283521e+002 1.734476e+000
      vertex   -2.045000e+002 2.283521e+002 1.734476e+000
    endloop
  endfacet
  facet normal 0.000000e+000 6.202153e-002 1.025973e-001
    outer loop
      vertex   -2.045000e+002 2.283521e+002 1.734476e+000
      vertex   -2.060000e+002 2.283521e+002 1.734476e+000
      vertex   -2.060000e+002 2.281971e+002 1.828184e+000
    endloop
  endfacet
  facet normal 6.938894e-018 5.136021e-001 8.496116e-001
    outer loop
      vertex   -2.045000e+002 2.283521e+002 1.734476e+000
      vertex   -2.060000e+002 2.281971e+002 1.828184e+000
      vertex   -2.045000e+002 2.281971e+002 1.828184e+000
    endloop
  endfacet
  facet normal 0.000000e+000 4.920279e-002 1.093234e-001
    outer loop
      vertex   -2.045000e+002 2.281971e+002 1.828184e+000
      vertex   -2.060000e+002 2.281971e+002 1.828184e+000
      vertex   -2.060000e+002 2.280319e+002 1.902524e+000
    endloop
  endfacet
  facet normal 0.000000e+000 4.074550e-001 9.053220e-001
    outer loop
      vertex   -2.045000e+002 2.281971e+002 1.828184e+000
      vertex   -2.060000e+002 2.280319e+002 1.902524e+000
      vertex   -2.045000e+002 2.280319e+002 1.902524e+000
    endloop
  endfacet
  facet normal 0.000000e+000 3.566645e-002 1.144538e-001
    outer loop
      vertex   -2.045000e+002 2.280319e+002 1.902524e+000
      vertex   -2.060000e+002 2.280319e+002 1.902524e+000
      vertex   -2.060000e+002 2.278590e+002 1.956413e+000
    endloop
  endfacet
  facet normal 0.000000e+000 2.953666e-001 9.478327e-001
    outer loop
      vertex   -2.045000e+002 2.280319e+002 1.902524e+000
      vertex   -2.060000e+002 2.278590e+002 1.956413e+000
      vertex   -2.045000e+002 2.278590e+002 1.956413e+000
    endloop
  endfacet
  facet normal 0.000000e+000 2.161006e-002 1.179278e-001
    outer loop
      vertex   -2.045000e+002 2.278590e+002 1.956413e+000
      vertex   -2.060000e+002 2.278590e+002 1.956413e+000
      vertex   -2.060000e+002 2.276808e+002 1.989063e+000
    endloop
  endfacet
  facet normal 0.000000e+000 1.789467e-001 9.765266e-001
    outer loop
      vertex   -2.045000e+002 2.278590e+002 1.956413e+000
      vertex   -2.060000e+002 2.276808e+002 1.989063e+000
      vertex   -2.045000e+002 2.276808e+002 1.989063e+000
    endloop
  endfacet
  facet normal 0.000000e+000 7.238574e-003 1.196650e-001
    outer loop
      vertex   -2.045000e+002 2.276808e+002 1.989063e+000
      vertex   -2.060000e+002 2.276808e+002 1.989063e+000
      vertex   -2.060000e+002 2.275000e+002 2.000000e+000
    endloop
  endfacet
  facet normal -8.673617e-019 5.994451e-002 9.909766e-001
    outer loop
      vertex   -2.045000e+002 2.276808e+002 1.989063e+000
      vertex   -2.060000e+002 2.275000e+002 2.000000e+000
      vertex   -2.045000e+002 2.275000e+002 2.000000e+000
    endloop
  endfacet
  facet normal 0.000000e+000 0.000000e+000 1.000000e+000
    outer loop
      vertex   -2.045000e+002 2.275000e+002 2.000000e+000
      vertex   -2.060000e+002 2.275000e+002 2.000000e+000
      vertex   -2.045000e+002 2.265000e+002 2.000000e+000
    endloop
  endfacet
  facet normal 0.000000e+000 0.000000e+000 5.547002e-001
    outer loop
      vertex   -2.045000e+002 2.265000e+002 2.000000e+000
      vertex   -2.060000e+002 2.275000e+002 2.000000e+000
      vertex   -2.060000e+002 2.265000e+002 2.000000e+000
    endloop
  endfacet
  facet normal -1.205269e-001 -0.000000e+000 -0.000000e+000
    outer loop
      vertex   -2.060000e+002 2.276808e+002 1.989063e+000
      vertex   -2.060000e+002 2.278590e+002 1.956413e+000
      vertex   -2.060000e+002 2.275000e+002 2.000000e+000
    endloop
  endfacet
  facet normal -6.038036e-002 0.000000e+000 0.000000e+000
    outer loop
      vertex   -2.060000e+002 2.275000e+002 2.000000e+000
      vertex   -2.060000e+002 2.278590e+002 1.956413e+000
      vertex   -2.060000e+002 2.280319e+002 1.902524e+000
    endloop
  endfacet
  facet normal -6.037886e-002 0.000000e+000 0.000000e+000
    outer loop
      vertex   -2.060000e+002 2.275000e+002 2.000000e+000
      vertex   -2.060000e+002 2.280319e+002 1.902524e+000
      vertex   -2.060000e+002 2.281971e+002 1.828184e+000
    endloop
  endfacet
  facet normal -2.974974e-001 -0.000000e+000 -0.000000e+000
    outer loop
      vertex   -2.060000e+002 2.281971e+002 1.828184e+000
      vertex   -2.060000e+002 2.283521e+002 1.734476e+000
      vertex   -2.060000e+002 2.275000e+002 2.000000e+000
    endloop
  endfacet
  facet normal -6.037637e-002 0.000000e+000 0.000000e+000
    outer loop
      vertex   -2.060000e+002 2.275000e+002 2.000000e+000
      vertex   -2.060000e+002 2.283521e+002 1.734476e+000
      vertex   -2.060000e+002 2.284947e+002 1.622766e+000
    endloop
  endfacet
  facet normal -6.037847e-002 0.000000e+000 0.000000e+000
    outer loop
      vertex   -2.060000e+002 2.275000e+002 2.000000e+000
      vertex   -2.060000e+002 2.284947e+002 1.622766e+000
      vertex   -2.060000e+002 2.286228e+002 1.494684e+000
    endloop
  endfacet
  facet normal -4.647252e-001 -0.000000e+000 -0.000000e+000
    outer loop
      vertex   -2.060000e+002 2.286228e+002 1.494684e+000
      vertex   -2.060000e+002 2.287345e+002 1.352097e+000
      vertex   -2.060000e+002 2.275000e+002 2.000000e+000
    endloop
  endfacet
  facet normal -6.037984e-002 0.000000e+000 0.000000e+000
    outer loop
      vertex   -2.060000e+002 2.275000e+002 2.000000e+000
      vertex   -2.060000e+002 2.287345e+002 1.352097e+000
      vertex   -2.060000e+002 2.288282e+002 1.197085e+000
    endloop
  endfacet
  facet normal -6.037835e-002 0.000000e+000 0.000000e+000
    outer loop
      vertex   -2.060000e+002 2.275000e+002 2.000000e+000
      vertex   -2.060000e+002 2.288282e+002 1.197085e+000
      vertex   -2.060000e+002 2.289025e+002 1.031907e+000
    endloop
  endfacet
  facet normal -6.167592e-001 -0.000000e+000 -0.000000e+000
    outer loop
      vertex   -2.060000e+002 2.289025e+002 1.031907e+000
      vertex   -2.060000e+002 2.289564e+002 8.589735e-001
      vertex   -2.060000e+002 2.275000e+002 2.000000e+000
    endloop
  endfacet
  facet normal -6.037745e-002 0.000000e+000 0.000000e+000
    outer loop
      vertex   -2.060000e+002 2.275000e+002 2.000000e+000
      vertex   -2.060000e+002 2.289564e+002 8.589735e-001
      vertex   -2.060000e+002 2.289891e+002 6.808050e-001
    endloop
  endfacet
  facet normal -9.364398e-001 0.000000e+000 -0.000000e+000
    outer loop
      vertex   -2.060000e+002 2.275000e+002 2.000000e+000
      vertex   -2.060000e+002 2.289891e+002 6.808050e-001
      vertex   -2.060000e+002 2.250109e+002 6.808050e-001
    endloop
  endfacet
  facet normal -9.981743e-001 0.000000e+000 -0.000000e+000
    outer loop
      vertex   -2.060000e+002 2.250109e+002 6.808050e-001
      vertex   -2.060000e+002 2.289891e+002 6.808050e-001
      vertex   -2.060000e+002 2.250000e+002 5.000000e-001
    endloop
  endfacet
  facet normal -4.527874e-002 0.000000e+000 0.000000e+000
    outer loop
      vertex   -2.060000e+002 2.250000e+002 5.000000e-001
      vertex   -2.060000e+002 2.289891e+002 6.808050e-001
      vertex   -2.060000e+002 2.290000e+002 5.000000e-001
    endloop
  endfacet
  facet normal -1.000000e+000 0.000000e+000 0.000000e+000
    outer loop
      vertex   -2.060000e+002 2.250000e+002 5.000000e-001
      vertex   -2.060000e+002 2.290000e+002 5.000000e-001
      vertex   -2.060000e+002 2.250000e+002 -1.000000e+000
    endloop
  endfacet
  facet normal -3.511235e-001 0.000000e+000 0.000000e+000
    outer loop
      vertex   -2.060000e+002 2.250000e+002 -1.000000e+000
      vertex   -2.060000e+002 2.290000e+002 5.000000e-001
      vertex   -2.060000e+002 2.290000e+002 -1.000000e+000
    endloop
  endfacet
  facet normal -4.682918e-001 -0.000000e+000 0.000000e+000
    outer loop
      vertex   -2.060000e+002 2.275000e+002 2.000000e+000
      vertex   -2.060000e+002 2.250109e+002 6.808050e-001
      vertex   -2.060000e+002 2.265000e+002 2.000000e+000
    endloop
  endfacet
  facet normal -6.037745e-002 0.000000e+000 0.000000e+000
    outer loop
      vertex   -2.060000e+002 2.265000e+002 2.000000e+000
      vertex   -2.060000e+002 2.250109e+002 6.808050e-001
      vertex   -2.060000e+002 2.250436e+002 8.589735e-001
    endloop
  endfacet
  facet normal -6.038168e-002 0.000000e+000 0.000000e+000
    outer loop
      vertex   -2.060000e+002 2.265000e+002 2.000000e+000
      vertex   -2.060000e+002 2.250436e+002 8.589735e-001
      vertex   -2.060000e+002 2.250975e+002 1.031907e+000
    endloop
  endfacet
  facet normal -5.173365e-001 0.000000e+000 0.000000e+000
    outer loop
      vertex   -2.060000e+002 2.250975e+002 1.031907e+000
      vertex   -2.060000e+002 2.251718e+002 1.197085e+000
      vertex   -2.060000e+002 2.265000e+002 2.000000e+000
    endloop
  endfacet
  facet normal -6.037984e-002 0.000000e+000 0.000000e+000
    outer loop
      vertex   -2.060000e+002 2.265000e+002 2.000000e+000
      vertex   -2.060000e+002 2.251718e+002 1.197085e+000
      vertex   -2.060000e+002 2.252655e+002 1.352097e+000
    endloop
  endfacet
  facet normal -6.037850e-002 0.000000e+000 0.000000e+000
    outer loop
      vertex   -2.060000e+002 2.265000e+002 2.000000e+000
      vertex   -2.060000e+002 2.252655e+002 1.352097e+000
      vertex   -2.060000e+002 2.253772e+002 1.494684e+000
    endloop
  endfacet
  facet normal -3.546064e-001 0.000000e+000 0.000000e+000
    outer loop
      vertex   -2.060000e+002 2.253772e+002 1.494684e+000
      vertex   -2.060000e+002 2.255053e+002 1.622766e+000
      vertex   -2.060000e+002 2.265000e+002 2.000000e+000
    endloop
  endfacet
  facet normal -6.037637e-002 0.000000e+000 0.000000e+000
    outer loop
      vertex   -2.060000e+002 2.265000e+002 2.000000e+000
      vertex   -2.060000e+002 2.255053e+002 1.622766e+000
      vertex   -2.060000e+002 2.256479e+002 1.734476e+000
    endloop
  endfacet
  facet normal -6.037784e-002 0.000000e+000 0.000000e+000
    outer loop
      vertex   -2.060000e+002 2.265000e+002 2.000000e+000
      vertex   -2.060000e+002 2.256479e+002 1.734476e+000
      vertex   -2.060000e+002 2.258029e+002 1.828184e+000
    endloop
  endfacet
  facet normal -1.802567e-001 0.000000e+000 0.000000e+000
    outer loop
      vertex   -2.060000e+002 2.258029e+002 1.828184e+000
      vertex   -2.060000e+002 2.259681e+002 1.902524e+000
      vertex   -2.060000e+002 2.265000e+002 2.000000e+000
    endloop
  endfacet
  facet normal -6.038036e-002 0.000000e+000 0.000000e+000
    outer loop
      vertex   -2.060000e+002 2.265000e+002 2.000000e+000
      vertex   -2.060000e+002 2.259681e+002 1.902524e+000
      vertex   -2.060000e+002 2.261410e+002 1.956413e+000
    endloop
  endfacet
  facet normal -6.037558e-002 0.000000e+000 0.000000e+000
    outer loop
      vertex   -2.060000e+002 2.265000e+002 2.000000e+000
      vertex   -2.060000e+002 2.261410e+002 1.956413e+000
      vertex   -2.060000e+002 2.263192e+002 1.989063e+000
    endloop
  endfacet
  facet normal 0.000000e+000 -9.981743e-001 6.039976e-002
    outer loop
      vertex   -2.015000e+002 2.250000e+002 3.500000e+000
      vertex   -2.015000e+002 2.250109e+002 3.680805e+000
      vertex   -2.045000e+002 2.250000e+002 3.500000e+000
    endloop
  endfacet
  facet normal 0.000000e+000 -9.963598e-001 6.028997e-002
    outer loop
      vertex   -2.045000e+002 2.250000e+002 3.500000e+000
      vertex   -2.015000e+002 2.250109e+002 3.680805e+000
      vertex   -2.045000e+002 2.250109e+002 3.680805e+000
    endloop
  endfacet
  facet normal 0.000000e+000 -5.928155e-002 1.086482e-002
    outer loop
      vertex   -2.045000e+002 2.250109e+002 3.680805e+000
      vertex   -2.015000e+002 2.250109e+002 3.680805e+000
      vertex   -2.015000e+002 2.250436e+002 3.858974e+000
    endloop
  endfacet
  facet normal -1.734723e-018 -9.818287e-001 1.799445e-001
    outer loop
      vertex   -2.045000e+002 2.250109e+002 3.680805e+000
      vertex   -2.015000e+002 2.250436e+002 3.858974e+000
      vertex   -2.045000e+002 2.250436e+002 3.858974e+000
    endloop
  endfacet
  facet normal 0.000000e+000 -5.753990e-002 1.792695e-002
    outer loop
      vertex   -2.045000e+002 2.250436e+002 3.858974e+000
      vertex   -2.015000e+002 2.250436e+002 3.858974e+000
      vertex   -2.015000e+002 2.250975e+002 4.031908e+000
    endloop
  endfacet
  facet normal 0.000000e+000 -9.530005e-001 2.969138e-001
    outer loop
      vertex   -2.045000e+002 2.250436e+002 3.858974e+000
      vertex   -2.015000e+002 2.250975e+002 4.031908e+000
      vertex   -2.045000e+002 2.250975e+002 4.031908e+000
    endloop
  endfacet
  facet normal 0.000000e+000 -5.495903e-002 2.473523e-002
    outer loop
      vertex   -2.045000e+002 2.250975e+002 4.031908e+000
      vertex   -2.015000e+002 2.250975e+002 4.031908e+000
      vertex   -2.015000e+002 2.251718e+002 4.197085e+000
    endloop
  endfacet
  facet normal 3.469447e-018 -9.102411e-001 4.096692e-001
    outer loop
      vertex   -2.045000e+002 2.250975e+002 4.031908e+000
      vertex   -2.015000e+002 2.251718e+002 4.197085e+000
      vertex   -2.045000e+002 2.251718e+002 4.197085e+000
    endloop
  endfacet
  facet normal 0.000000e+000 -5.157679e-002 3.117796e-002
    outer loop
      vertex   -2.045000e+002 2.251718e+002 4.197085e+000
      vertex   -2.015000e+002 2.251718e+002 4.197085e+000
      vertex   -2.015000e+002 2.252655e+002 4.352097e+000
    endloop
  endfacet
  facet normal -3.469447e-018 -8.542351e-001 5.163818e-001
    outer loop
      vertex   -2.045000e+002 2.251718e+002 4.197085e+000
      vertex   -2.015000e+002 2.252655e+002 4.352097e+000
      vertex   -2.045000e+002 2.252655e+002 4.352097e+000
    endloop
  endfacet
  facet normal 0.000000e+000 -4.744266e-002 3.716884e-002
    outer loop
      vertex   -2.045000e+002 2.252655e+002 4.352097e+000
      vertex   -2.015000e+002 2.252655e+002 4.352097e+000
      vertex   -2.015000e+002 2.253772e+002 4.494684e+000
    endloop
  endfacet
  facet normal 0.000000e+000 -7.857534e-001 6.155967e-001
    outer loop
      vertex   -2.045000e+002 2.252655e+002 4.352097e+000
      vertex   -2.015000e+002 2.253772e+002 4.494684e+000
      vertex   -2.045000e+002 2.253772e+002 4.494684e+000
    endloop
  endfacet
  facet normal 0.000000e+000 -4.261632e-002 4.261648e-002
    outer loop
      vertex   -2.045000e+002 2.253772e+002 4.494684e+000
      vertex   -2.015000e+002 2.253772e+002 4.494684e+000
      vertex   -2.015000e+002 2.255053e+002 4.622766e+000
    endloop
  endfacet
  facet normal 3.469447e-018 -7.058201e-001 7.058227e-001
    outer loop
      vertex   -2.045000e+002 2.253772e+002 4.494684e+000
      vertex   -2.015000e+002 2.255053e+002 4.622766e+000
      vertex   -2.045000e+002 2.255053e+002 4.622766e+000
    endloop
  endfacet
  facet normal 0.000000e+000 -3.716884e-002 4.744472e-002
    outer loop
      vertex   -2.045000e+002 2.255053e+002 4.622766e+000
      vertex   -2.015000e+002 2.255053e+002 4.622766e+000
      vertex   -2.015000e+002 2.256479e+002 4.734476e+000
    endloop
  endfacet
  facet normal -3.469447e-018 -6.155800e-001 7.857663e-001
    outer loop
      vertex   -2.045000e+002 2.255053e+002 4.622766e+000
      vertex   -2.015000e+002 2.256479e+002 4.734476e+000
      vertex   -2.045000e+002 2.256479e+002 4.734476e+000
    endloop
  endfacet
  facet normal 0.000000e+000 -3.117939e-002 5.157742e-002
    outer loop
      vertex   -2.045000e+002 2.256479e+002 4.734476e+000
      vertex   -2.015000e+002 2.256479e+002 4.734476e+000
      vertex   -2.015000e+002 2.258029e+002 4.828184e+000
    endloop
  endfacet
  facet normal -3.469447e-018 -5.163944e-001 8.542274e-001
    outer loop
      vertex   -2.045000e+002 2.256479e+002 4.734476e+000
      vertex   -2.015000e+002 2.258029e+002 4.828184e+000
      vertex   -2.045000e+002 2.258029e+002 4.828184e+000
    endloop
  endfacet
  facet normal 0.000000e+000 -2.473507e-002 5.495871e-002
    outer loop
      vertex   -2.045000e+002 2.258029e+002 4.828184e+000
      vertex   -2.015000e+002 2.258029e+002 4.828184e+000
      vertex   -2.015000e+002 2.259681e+002 4.902524e+000
    endloop
  endfacet
  facet normal 0.000000e+000 -4.096690e-001 9.102412e-001
    outer loop
      vertex   -2.045000e+002 2.258029e+002 4.828184e+000
      vertex   -2.015000e+002 2.259681e+002 4.902524e+000
      vertex   -2.045000e+002 2.259681e+002 4.902524e+000
    endloop
  endfacet
  facet normal 0.000000e+000 -1.793012e-002 5.753784e-002
    outer loop
      vertex   -2.045000e+002 2.259681e+002 4.902524e+000
      vertex   -2.015000e+002 2.259681e+002 4.902524e+000
      vertex   -2.015000e+002 2.261410e+002 4.956413e+000
    endloop
  endfacet
  facet normal 3.469447e-018 -2.969714e-001 9.529826e-001
    outer loop
      vertex   -2.045000e+002 2.259681e+002 4.902524e+000
      vertex   -2.015000e+002 2.261410e+002 4.956413e+000
      vertex   -2.045000e+002 2.261410e+002 4.956413e+000
    endloop
  endfacet
  facet normal 0.000000e+000 -1.086370e-002 5.928432e-002
    outer loop
      vertex   -2.045000e+002 2.261410e+002 4.956413e+000
      vertex   -2.015000e+002 2.261410e+002 4.956413e+000
      vertex   -2.015000e+002 2.263192e+002 4.989063e+000
    endloop
  endfacet
  facet normal 0.000000e+000 -1.799185e-001 9.818333e-001
    outer loop
      vertex   -2.045000e+002 2.261410e+002 4.956413e+000
      vertex   -2.015000e+002 2.263192e+002 4.989063e+000
      vertex   -2.045000e+002 2.263192e+002 4.989063e+000
    endloop
  endfacet
  facet normal 0.000000e+000 -3.638952e-003 6.015758e-002
    outer loop
      vertex   -2.045000e+002 2.263192e+002 4.989063e+000
      vertex   -2.015000e+002 2.263192e+002 4.989063e+000
      vertex   -2.015000e+002 2.265000e+002 5.000000e+000
    endloop
  endfacet
  facet normal 0.000000e+000 -6.027022e-002 9.963610e-001
    outer loop
      vertex   -2.045000e+002 2.263192e+002 4.989063e+000
      vertex   -2.015000e+002 2.265000e+002 5.000000e+000
      vertex   -2.045000e+002 2.265000e+002 5.000000e+000
    endloop
  endfacet
  facet normal 7.071210e-001 0.000000e+000 0.000000e+000
    outer loop
      vertex   -2.015000e+002 2.289891e+002 3.680805e+000
      vertex   -2.015000e+002 2.275000e+002 2.000000e+000
      vertex   -2.015000e+002 2.290000e+002 3.500000e+000
    endloop
  endfacet
  facet normal 6.759381e-002 0.000000e+000 0.000000e+000
    outer loop
      vertex   -2.015000e+002 2.290000e+002 3.500000e+000
      vertex   -2.015000e+002 2.275000e+002 2.000000e+000
      vertex   -2.015000e+002 2.276808e+002 1.989063e+000
    endloop
  endfacet
  facet normal 8.110955e-002 0.000000e+000 0.000000e+000
    outer loop
      vertex   -2.015000e+002 2.290000e+002 3.500000e+000
      vertex   -2.015000e+002 2.276808e+002 1.989063e+000
      vertex   -2.015000e+002 2.278590e+002 1.956413e+000
    endloop
  endfacet
  facet normal 7.871935e-001 0.000000e+000 0.000000e+000
    outer loop
      vertex   -2.015000e+002 2.289891e+002 3.680805e+000
      vertex   -2.015000e+002 2.289564e+002 3.858974e+000
      vertex   -2.015000e+002 2.275000e+002 2.000000e+000
    endloop
  endfacet
  facet normal 6.037536e-002 0.000000e+000 0.000000e+000
    outer loop
      vertex   -2.015000e+002 2.275000e+002 2.000000e+000
      vertex   -2.015000e+002 2.289564e+002 3.858974e+000
      vertex   -2.015000e+002 2.289025e+002 4.031908e+000
    endloop
  endfacet
  facet normal 6.037864e-002 0.000000e+000 0.000000e+000
    outer loop
      vertex   -2.015000e+002 2.275000e+002 2.000000e+000
      vertex   -2.015000e+002 2.289025e+002 4.031908e+000
      vertex   -2.015000e+002 2.288282e+002 4.197085e+000
    endloop
  endfacet
  facet normal 8.854478e-001 0.000000e+000 0.000000e+000
    outer loop
      vertex   -2.015000e+002 2.288282e+002 4.197085e+000
      vertex   -2.015000e+002 2.287345e+002 4.352097e+000
      vertex   -2.015000e+002 2.275000e+002 2.000000e+000
    endloop
  endfacet
  facet normal 6.037852e-002 0.000000e+000 0.000000e+000
    outer loop
      vertex   -2.015000e+002 2.275000e+002 2.000000e+000
      vertex   -2.015000e+002 2.287345e+002 4.352097e+000
      vertex   -2.015000e+002 2.286228e+002 4.494684e+000
    endloop
  endfacet
  facet normal 6.037850e-002 0.000000e+000 0.000000e+000
    outer loop
      vertex   -2.015000e+002 2.275000e+002 2.000000e+000
      vertex   -2.015000e+002 2.286228e+002 4.494684e+000
      vertex   -2.015000e+002 2.284947e+002 4.622766e+000
    endloop
  endfacet
  facet normal 9.547282e-001 0.000000e+000 0.000000e+000
    outer loop
      vertex   -2.015000e+002 2.284947e+002 4.622766e+000
      vertex   -2.015000e+002 2.283521e+002 4.734476e+000
      vertex   -2.015000e+002 2.275000e+002 2.000000e+000
    endloop
  endfacet
  facet normal 6.037908e-002 0.000000e+000 0.000000e+000
    outer loop
      vertex   -2.015000e+002 2.275000e+002 2.000000e+000
      vertex   -2.015000e+002 2.283521e+002 4.734476e+000
      vertex   -2.015000e+002 2.281971e+002 4.828184e+000
    endloop
  endfacet
  facet normal 6.037815e-002 0.000000e+000 0.000000e+000
    outer loop
      vertex   -2.015000e+002 2.275000e+002 2.000000e+000
      vertex   -2.015000e+002 2.281971e+002 4.828184e+000
      vertex   -2.015000e+002 2.280319e+002 4.902524e+000
    endloop
  endfacet
  facet normal 9.927077e-001 0.000000e+000 0.000000e+000
    outer loop
      vertex   -2.015000e+002 2.280319e+002 4.902524e+000
      vertex   -2.015000e+002 2.278590e+002 4.956413e+000
      vertex   -2.015000e+002 2.275000e+002 2.000000e+000
    endloop
  endfacet
  facet normal 6.038129e-002 0.000000e+000 0.000000e+000
    outer loop
      vertex   -2.015000e+002 2.275000e+002 2.000000e+000
      vertex   -2.015000e+002 2.278590e+002 4.956413e+000
      vertex   -2.015000e+002 2.276808e+002 4.989063e+000
    endloop
  endfacet
  facet normal 6.037729e-002 0.000000e+000 0.000000e+000
    outer loop
      vertex   -2.015000e+002 2.275000e+002 2.000000e+000
      vertex   -2.015000e+002 2.276808e+002 4.989063e+000
      vertex   -2.015000e+002 2.275000e+002 5.000000e+000
    endloop
  endfacet
  facet normal 1.000000e+000 0.000000e+000 0.000000e+000
    outer loop
      vertex   -2.015000e+002 2.275000e+002 5.000000e+000
      vertex   -2.015000e+002 2.265000e+002 5.000000e+000
      vertex   -2.015000e+002 2.275000e+002 2.000000e+000
    endloop
  endfacet
  facet normal 9.486833e-001 0.000000e+000 0.000000e+000
    outer loop
      vertex   -2.015000e+002 2.275000e+002 2.000000e+000
      vertex   -2.015000e+002 2.265000e+002 5.000000e+000
      vertex   -2.015000e+002 2.265000e+002 2.000000e+000
    endloop
  endfacet
  facet normal 6.037729e-002 0.000000e+000 -0.000000e+000
    outer loop
      vertex   -2.015000e+002 2.265000e+002 2.000000e+000
      vertex   -2.015000e+002 2.265000e+002 5.000000e+000
      vertex   -2.015000e+002 2.263192e+002 4.989063e+000
    endloop
  endfacet
  facet normal 6.038129e-002 0.000000e+000 0.000000e+000
    outer loop
      vertex   -2.015000e+002 2.265000e+002 2.000000e+000
      vertex   -2.015000e+002 2.263192e+002 4.989063e+000
      vertex   -2.015000e+002 2.261410e+002 4.956413e+000
    endloop
  endfacet
  facet normal 9.836184e-001 0.000000e+000 0.000000e+000
    outer loop
      vertex   -2.015000e+002 2.261410e+002 4.956413e+000
      vertex   -2.015000e+002 2.259681e+002 4.902524e+000
      vertex   -2.015000e+002 2.265000e+002 2.000000e+000
    endloop
  endfacet
  facet normal 6.037815e-002 0.000000e+000 0.000000e+000
    outer loop
      vertex   -2.015000e+002 2.265000e+002 2.000000e+000
      vertex   -2.015000e+002 2.259681e+002 4.902524e+000
      vertex   -2.015000e+002 2.258029e+002 4.828184e+000
    endloop
  endfacet
  facet normal 6.037908e-002 0.000000e+000 0.000000e+000
    outer loop
      vertex   -2.015000e+002 2.265000e+002 2.000000e+000
      vertex   -2.015000e+002 2.258029e+002 4.828184e+000
      vertex   -2.015000e+002 2.256479e+002 4.734476e+000
    endloop
  endfacet
  facet normal 9.350242e-001 0.000000e+000 0.000000e+000
    outer loop
      vertex   -2.015000e+002 2.256479e+002 4.734476e+000
      vertex   -2.015000e+002 2.255053e+002 4.622766e+000
      vertex   -2.015000e+002 2.265000e+002 2.000000e+000
    endloop
  endfacet
  facet normal 6.037850e-002 0.000000e+000 0.000000e+000
    outer loop
      vertex   -2.015000e+002 2.265000e+002 2.000000e+000
      vertex   -2.015000e+002 2.255053e+002 4.622766e+000
      vertex   -2.015000e+002 2.253772e+002 4.494684e+000
    endloop
  endfacet
  facet normal 6.037852e-002 0.000000e+000 0.000000e+000
    outer loop
      vertex   -2.015000e+002 2.265000e+002 2.000000e+000
      vertex   -2.015000e+002 2.253772e+002 4.494684e+000
      vertex   -2.015000e+002 2.252655e+002 4.352097e+000
    endloop
  endfacet
  facet normal 8.557729e-001 0.000000e+000 0.000000e+000
    outer loop
      vertex   -2.015000e+002 2.252655e+002 4.352097e+000
      vertex   -2.015000e+002 2.251718e+002 4.197085e+000
      vertex   -2.015000e+002 2.265000e+002 2.000000e+000
    endloop
  endfacet
  facet normal 6.037864e-002 0.000000e+000 0.000000e+000
    outer loop
      vertex   -2.015000e+002 2.265000e+002 2.000000e+000
      vertex   -2.015000e+002 2.251718e+002 4.197085e+000
      vertex   -2.015000e+002 2.250975e+002 4.031908e+000
    endloop
  endfacet
  facet normal 6.037536e-002 0.000000e+000 0.000000e+000
    outer loop
      vertex   -2.015000e+002 2.265000e+002 2.000000e+000
      vertex   -2.015000e+002 2.250975e+002 4.031908e+000
      vertex   -2.015000e+002 2.250436e+002 3.858974e+000
    endloop
  endfacet
  facet normal 7.485207e-001 0.000000e+000 0.000000e+000
    outer loop
      vertex   -2.015000e+002 2.250436e+002 3.858974e+000
      vertex   -2.015000e+002 2.250109e+002 3.680805e+000
      vertex   -2.015000e+002 2.265000e+002 2.000000e+000
    endloop
  endfacet
  facet normal 6.037977e-002 0.000000e+000 0.000000e+000
    outer loop
      vertex   -2.015000e+002 2.265000e+002 2.000000e+000
      vertex   -2.015000e+002 2.250109e+002 3.680805e+000
      vertex   -2.015000e+002 2.250000e+002 3.500000e+000
    endloop
  endfacet
  facet normal 7.485117e-001 0.000000e+000 0.000000e+000
    outer loop
      vertex   -2.015000e+002 2.265000e+002 2.000000e+000
      vertex   -2.015000e+002 2.250000e+002 3.500000e+000
      vertex   -2.015000e+002 2.263192e+002 1.989063e+000
    endloop
  endfacet
  facet normal 8.594950e-001 0.000000e+000 0.000000e+000
    outer loop
      vertex   -2.015000e+002 2.263192e+002 1.989063e+000
      vertex   -2.015000e+002 2.250000e+002 3.500000e+000
      vertex   -2.015000e+002 2.261410e+002 1.956413e+000
    endloop
  endfacet
  facet normal 9.445850e-001 0.000000e+000 0.000000e+000
    outer loop
      vertex   -2.015000e+002 2.261410e+002 1.956413e+000
      vertex   -2.015000e+002 2.250000e+002 3.500000e+000
      vertex   -2.015000e+002 2.259681e+002 1.902524e+000
    endloop
  endfacet
  facet normal 9.925768e-001 0.000000e+000 0.000000e+000
    outer loop
      vertex   -2.015000e+002 2.259681e+002 1.902524e+000
      vertex   -2.015000e+002 2.250000e+002 3.500000e+000
      vertex   -2.015000e+002 2.258029e+002 1.828184e+000
    endloop
  endfacet
  facet normal 9.953960e-001 0.000000e+000 0.000000e+000
    outer loop
      vertex   -2.015000e+002 2.258029e+002 1.828184e+000
      vertex   -2.015000e+002 2.250000e+002 3.500000e+000
      vertex   -2.015000e+002 2.256479e+002 1.734476e+000
    endloop
  endfacet
  facet normal 9.514667e-001 0.000000e+000 0.000000e+000
    outer loop
      vertex   -2.015000e+002 2.256479e+002 1.734476e+000
      vertex   -2.015000e+002 2.250000e+002 3.500000e+000
      vertex   -2.015000e+002 2.255053e+002 1.622766e+000
    endloop
  endfacet
  facet normal 8.665981e-001 0.000000e+000 0.000000e+000
    outer loop
      vertex   -2.015000e+002 2.255053e+002 1.622766e+000
      vertex   -2.015000e+002 2.250000e+002 3.500000e+000
      vertex   -2.015000e+002 2.253772e+002 1.494684e+000
    endloop
  endfacet
  facet normal 7.516158e-001 0.000000e+000 0.000000e+000
    outer loop
      vertex   -2.015000e+002 2.253772e+002 1.494684e+000
      vertex   -2.015000e+002 2.250000e+002 3.500000e+000
      vertex   -2.015000e+002 2.252655e+002 1.352097e+000
    endloop
  endfacet
  facet normal 6.184052e-001 0.000000e+000 0.000000e+000
    outer loop
      vertex   -2.015000e+002 2.252655e+002 1.352097e+000
      vertex   -2.015000e+002 2.250000e+002 3.500000e+000
      vertex   -2.015000e+002 2.251718e+002 1.197085e+000
    endloop
  endfacet
  facet normal 4.771231e-001 0.000000e+000 0.000000e+000
    outer loop
      vertex   -2.015000e+002 2.251718e+002 1.197085e+000
      vertex   -2.015000e+002 2.250000e+002 3.500000e+000
      vertex   -2.015000e+002 2.250975e+002 1.031907e+000
    endloop
  endfacet
  facet normal 3.348995e-001 0.000000e+000 0.000000e+000
    outer loop
      vertex   -2.015000e+002 2.250975e+002 1.031907e+000
      vertex   -2.015000e+002 2.250000e+002 3.500000e+000
      vertex   -2.015000e+002 2.250436e+002 8.589735e-001
    endloop
  endfacet
  facet normal 1.964817e-001 0.000000e+000 0.000000e+000
    outer loop
      vertex   -2.015000e+002 2.250436e+002 8.589735e-001
      vertex   -2.015000e+002 2.250000e+002 3.500000e+000
      vertex   -2.015000e+002 2.250109e+002 6.808050e-001
    endloop
  endfacet
  facet normal 6.427291e-002 0.000000e+000 0.000000e+000
    outer loop
      vertex   -2.015000e+002 2.250109e+002 6.808050e-001
      vertex   -2.015000e+002 2.250000e+002 3.500000e+000
      vertex   -2.015000e+002 2.250000e+002 5.000000e-001
    endloop
  endfacet
  facet normal 9.445850e-001 -0.000000e+000 0.000000e+000
    outer loop
      vertex   -2.015000e+002 2.278590e+002 1.956413e+000
      vertex   -2.015000e+002 2.280319e+002 1.902524e+000
      vertex   -2.015000e+002 2.290000e+002 3.500000e+000
    endloop
  endfacet
  facet normal 9.694125e-002 0.000000e+000 0.000000e+000
    outer loop
      vertex   -2.015000e+002 2.290000e+002 3.500000e+000
      vertex   -2.015000e+002 2.280319e+002 1.902524e+000
      vertex   -2.015000e+002 2.281971e+002 1.828184e+000
    endloop
  endfacet
  facet normal 9.587253e-002 0.000000e+000 0.000000e+000
    outer loop
      vertex   -2.015000e+002 2.290000e+002 3.500000e+000
      vertex   -2.015000e+002 2.281971e+002 1.828184e+000
      vertex   -2.015000e+002 2.283521e+002 1.734476e+000
    endloop
  endfacet
  facet normal 9.514667e-001 -0.000000e+000 0.000000e+000
    outer loop
      vertex   -2.015000e+002 2.283521e+002 1.734476e+000
      vertex   -2.015000e+002 2.284947e+002 1.622766e+000
      vertex   -2.015000e+002 2.290000e+002 3.500000e+000
    endloop
  endfacet
  facet normal 7.692853e-002 0.000000e+000 0.000000e+000
    outer loop
      vertex   -2.015000e+002 2.290000e+002 3.500000e+000
      vertex   -2.015000e+002 2.284947e+002 1.622766e+000
      vertex   -2.015000e+002 2.286228e+002 1.494684e+000
    endloop
  endfacet
  facet normal 6.290592e-002 0.000000e+000 0.000000e+000
    outer loop
      vertex   -2.015000e+002 2.290000e+002 3.500000e+000
      vertex   -2.015000e+002 2.286228e+002 1.494684e+000
      vertex   -2.015000e+002 2.287345e+002 1.352097e+000
    endloop
  endfacet
  facet normal 6.184052e-001 -0.000000e+000 0.000000e+000
    outer loop
      vertex   -2.015000e+002 2.287345e+002 1.352097e+000
      vertex   -2.015000e+002 2.288282e+002 1.197085e+000
      vertex   -2.015000e+002 2.290000e+002 3.500000e+000
    endloop
  endfacet
  facet normal 3.498926e-002 0.000000e+000 0.000000e+000
    outer loop
      vertex   -2.015000e+002 2.290000e+002 3.500000e+000
      vertex   -2.015000e+002 2.288282e+002 1.197085e+000
      vertex   -2.015000e+002 2.289025e+002 1.031907e+000
    endloop
  endfacet
  facet normal 2.296568e-002 0.000000e+000 0.000000e+000
    outer loop
      vertex   -2.015000e+002 2.290000e+002 3.500000e+000
      vertex   -2.015000e+002 2.289025e+002 1.031907e+000
      vertex   -2.015000e+002 2.289564e+002 8.589735e-001
    endloop
  endfacet
  facet normal 1.964817e-001 -0.000000e+000 0.000000e+000
    outer loop
      vertex   -2.015000e+002 2.289564e+002 8.589735e-001
      vertex   -2.015000e+002 2.289891e+002 6.808050e-001
      vertex   -2.015000e+002 2.290000e+002 3.500000e+000
    endloop
  endfacet
  facet normal 3.880707e-003 0.000000e+000 0.000000e+000
    outer loop
      vertex   -2.015000e+002 2.290000e+002 3.500000e+000
      vertex   -2.015000e+002 2.289891e+002 6.808050e-001
      vertex   -2.015000e+002 2.290000e+002 5.000000e-001
    endloop
  endfacet
  facet normal 0.000000e+000 -6.037997e-002 9.981754e-001
    outer loop
      vertex   -2.060000e+002 2.265000e+002 2.000000e+000
      vertex   -2.060000e+002 2.263192e+002 1.989063e+000
      vertex   -2.045000e+002 2.265000e+002 2.000000e+000
    endloop
  endfacet
  facet normal 8.673617e-019 -5.994451e-002 9.909766e-001
    outer loop
      vertex   -2.045000e+002 2.265000e+002 2.000000e+000
      vertex   -2.060000e+002 2.263192e+002 1.989063e+000
      vertex   -2.045000e+002 2.263192e+002 1.989063e+000
    endloop
  endfacet
  facet normal 0.000000e+000 -2.161006e-002 1.179278e-001
    outer loop
      vertex   -2.045000e+002 2.263192e+002 1.989063e+000
      vertex   -2.060000e+002 2.263192e+002 1.989063e+000
      vertex   -2.060000e+002 2.261410e+002 1.956413e+000
    endloop
  endfacet
  facet normal 0.000000e+000 -1.789467e-001 9.765266e-001
    outer loop
      vertex   -2.045000e+002 2.263192e+002 1.989063e+000
      vertex   -2.060000e+002 2.261410e+002 1.956413e+000
      vertex   -2.045000e+002 2.261410e+002 1.956413e+000
    endloop
  endfacet
  facet normal 0.000000e+000 -3.566645e-002 1.144538e-001
    outer loop
      vertex   -2.045000e+002 2.261410e+002 1.956413e+000
      vertex   -2.060000e+002 2.261410e+002 1.956413e+000
      vertex   -2.060000e+002 2.259681e+002 1.902524e+000
    endloop
  endfacet
  facet normal 0.000000e+000 -2.953666e-001 9.478327e-001
    outer loop
      vertex   -2.045000e+002 2.261410e+002 1.956413e+000
      vertex   -2.060000e+002 2.259681e+002 1.902524e+000
      vertex   -2.045000e+002 2.259681e+002 1.902524e+000
    endloop
  endfacet
  facet normal 0.000000e+000 -4.920279e-002 1.093234e-001
    outer loop
      vertex   -2.045000e+002 2.259681e+002 1.902524e+000
      vertex   -2.060000e+002 2.259681e+002 1.902524e+000
      vertex   -2.060000e+002 2.258029e+002 1.828184e+000
    endloop
  endfacet
  facet normal 0.000000e+000 -4.074550e-001 9.053220e-001
    outer loop
      vertex   -2.045000e+002 2.259681e+002 1.902524e+000
      vertex   -2.060000e+002 2.258029e+002 1.828184e+000
      vertex   -2.045000e+002 2.258029e+002 1.828184e+000
    endloop
  endfacet
  facet normal 0.000000e+000 -6.202153e-002 1.025973e-001
    outer loop
      vertex   -2.045000e+002 2.258029e+002 1.828184e+000
      vertex   -2.060000e+002 2.258029e+002 1.828184e+000
      vertex   -2.060000e+002 2.256479e+002 1.734476e+000
    endloop
  endfacet
  facet normal -6.938894e-018 -5.136021e-001 8.496116e-001
    outer loop
      vertex   -2.045000e+002 2.258029e+002 1.828184e+000
      vertex   -2.060000e+002 2.256479e+002 1.734476e+000
      vertex   -2.045000e+002 2.256479e+002 1.734476e+000
    endloop
  endfacet
  facet normal 0.000000e+000 -7.393599e-002 9.437659e-002
    outer loop
      vertex   -2.045000e+002 2.256479e+002 1.734476e+000
      vertex   -2.060000e+002 2.256479e+002 1.734476e+000
      vertex   -2.060000e+002 2.255053e+002 1.622766e+000
    endloop
  endfacet
  facet normal 0.000000e+000 -6.122534e-001 7.815192e-001
    outer loop
      vertex   -2.045000e+002 2.256479e+002 1.734476e+000
      vertex   -2.060000e+002 2.255053e+002 1.622766e+000
      vertex   -2.045000e+002 2.255053e+002 1.622766e+000
    endloop
  endfacet
  facet normal 0.000000e+000 -8.477225e-002 8.477233e-002
    outer loop
      vertex   -2.045000e+002 2.255053e+002 1.622766e+000
      vertex   -2.060000e+002 2.255053e+002 1.622766e+000
      vertex   -2.060000e+002 2.253772e+002 1.494684e+000
    endloop
  endfacet
  facet normal -6.938894e-018 -7.020066e-001 7.020072e-001
    outer loop
      vertex   -2.045000e+002 2.255053e+002 1.622766e+000
      vertex   -2.060000e+002 2.253772e+002 1.494684e+000
      vertex   -2.045000e+002 2.253772e+002 1.494684e+000
    endloop
  endfacet
  facet normal 0.000000e+000 -9.437229e-002 7.393594e-002
    outer loop
      vertex   -2.045000e+002 2.253772e+002 1.494684e+000
      vertex   -2.060000e+002 2.253772e+002 1.494684e+000
      vertex   -2.060000e+002 2.252655e+002 1.352097e+000
    endloop
  endfacet
  facet normal 6.938894e-018 -7.815062e-001 6.122707e-001
    outer loop
      vertex   -2.045000e+002 2.253772e+002 1.494684e+000
      vertex   -2.060000e+002 2.252655e+002 1.352097e+000
      vertex   -2.045000e+002 2.252655e+002 1.352097e+000
    endloop
  endfacet
  facet normal 0.000000e+000 -1.025963e-001 6.201894e-002
    outer loop
      vertex   -2.045000e+002 2.252655e+002 1.352097e+000
      vertex   -2.060000e+002 2.252655e+002 1.352097e+000
      vertex   -2.060000e+002 2.251718e+002 1.197085e+000
    endloop
  endfacet
  facet normal 6.938894e-018 -8.496190e-001 5.135905e-001
    outer loop
      vertex   -2.045000e+002 2.252655e+002 1.352097e+000
      vertex   -2.060000e+002 2.251718e+002 1.197085e+000
      vertex   -2.045000e+002 2.251718e+002 1.197085e+000
    endloop
  endfacet
  facet normal 0.000000e+000 -1.093241e-001 4.920310e-002
    outer loop
      vertex   -2.045000e+002 2.251718e+002 1.197085e+000
      vertex   -2.060000e+002 2.251718e+002 1.197085e+000
      vertex   -2.060000e+002 2.250975e+002 1.031907e+000
    endloop
  endfacet
  facet normal 0.000000e+000 -9.053219e-001 4.074549e-001
    outer loop
      vertex   -2.045000e+002 2.251718e+002 1.197085e+000
      vertex   -2.060000e+002 2.250975e+002 1.031907e+000
      vertex   -2.045000e+002 2.250975e+002 1.031907e+000
    endloop
  endfacet
  facet normal 0.000000e+000 -1.144577e-001 3.566014e-002
    outer loop
      vertex   -2.045000e+002 2.250975e+002 1.031907e+000
      vertex   -2.060000e+002 2.250975e+002 1.031907e+000
      vertex   -2.060000e+002 2.250436e+002 8.589735e-001
    endloop
  endfacet
  facet normal 0.000000e+000 -9.478502e-001 2.953096e-001
    outer loop
      vertex   -2.045000e+002 2.250975e+002 1.031907e+000
      vertex   -2.060000e+002 2.250436e+002 8.589735e-001
      vertex   -2.045000e+002 2.250436e+002 8.589735e-001
    endloop
  endfacet
  facet normal 0.000000e+000 -1.179223e-001 2.161220e-002
    outer loop
      vertex   -2.045000e+002 2.250436e+002 8.589735e-001
      vertex   -2.060000e+002 2.250436e+002 8.589735e-001
      vertex   -2.060000e+002 2.250109e+002 6.808050e-001
    endloop
  endfacet
  facet normal -3.469447e-018 -9.765225e-001 1.789721e-001
    outer loop
      vertex   -2.045000e+002 2.250436e+002 8.589735e-001
      vertex   -2.060000e+002 2.250109e+002 6.808050e-001
      vertex   -2.045000e+002 2.250109e+002 6.808050e-001
    endloop
  endfacet
  facet normal 0.000000e+000 -1.196673e-001 7.241096e-003
    outer loop
      vertex   -2.045000e+002 2.250109e+002 6.808050e-001
      vertex   -2.060000e+002 2.250109e+002 6.808050e-001
      vertex   -2.060000e+002 2.250000e+002 5.000000e-001
    endloop
  endfacet
  facet normal -8.673617e-019 -9.909751e-001 5.996412e-002
    outer loop
      vertex   -2.045000e+002 2.250109e+002 6.808050e-001
      vertex   -2.060000e+002 2.250000e+002 5.000000e-001
      vertex   -2.045000e+002 2.250000e+002 5.000000e-001
    endloop
  endfacet
  facet normal 0.000000e+000 0.000000e+000 1.000000e+000
    outer loop
      vertex   -2.000000e+002 2.275000e+002 2.000000e+000
      vertex   -2.015000e+002 2.275000e+002 2.000000e+000
      vertex   -2.000000e+002 2.265000e+002 2.000000e+000
    endloop
  endfacet
  facet normal 0.000000e+000 0.000000e+000 5.547002e-001
    outer loop
      vertex   -2.000000e+002 2.265000e+002 2.000000e+000
      vertex   -2.015000e+002 2.275000e+002 2.000000e+000
      vertex   -2.015000e+002 2.265000e+002 2.000000e+000
    endloop
  endfacet
endsolid
