solid ascii
  facet normal 0.000000e+000 -9.744469e-001 -0.000000e+000
    outer loop
      vertex   -1.216170e+002 8.700000e+001 1.100000e+001
      vertex   -1.230000e+002 8.700000e+001 5.000000e+000
      vertex   -1.189591e+002 8.700000e+001 1.100000e+001
    endloop
  endfacet
  facet normal 0.000000e+000 -8.678637e-001 -0.000000e+000
    outer loop
      vertex   -1.189591e+002 8.700000e+001 1.100000e+001
      vertex   -1.230000e+002 8.700000e+001 5.000000e+000
      vertex   -1.160000e+002 8.700000e+001 5.000000e+000
    endloop
  endfacet
  facet normal 0.000000e+000 -4.423122e-001 0.000000e+000
    outer loop
      vertex   -1.189591e+002 8.700000e+001 1.100000e+001
      vertex   -1.160000e+002 8.700000e+001 5.000000e+000
      vertex   -1.189591e+002 8.700000e+001 1.700000e+001
    endloop
  endfacet
  facet normal 0.000000e+000 -6.441725e-001 0.000000e+000
    outer loop
      vertex   -1.189591e+002 8.700000e+001 1.700000e+001
      vertex   -1.160000e+002 8.700000e+001 5.000000e+000
      vertex   -1.160000e+002 8.700000e+001 2.300000e+001
    endloop
  endfacet
  facet normal 0.000000e+000 -8.678637e-001 0.000000e+000
    outer loop
      vertex   -1.189591e+002 8.700000e+001 1.700000e+001
      vertex   -1.160000e+002 8.700000e+001 2.300000e+001
      vertex   -1.230000e+002 8.700000e+001 2.300000e+001
    endloop
  endfacet
  facet normal -0.000000e+000 -2.246180e-001 0.000000e+000
    outer loop
      vertex   -1.216170e+002 8.700000e+001 1.100000e+001
      vertex   -1.216170e+002 8.700000e+001 1.700000e+001
      vertex   -1.230000e+002 8.700000e+001 5.000000e+000
    endloop
  endfacet
  facet normal 0.000000e+000 -1.144961e-001 0.000000e+000
    outer loop
      vertex   -1.230000e+002 8.700000e+001 5.000000e+000
      vertex   -1.216170e+002 8.700000e+001 1.700000e+001
      vertex   -1.230000e+002 8.700000e+001 2.300000e+001
    endloop
  endfacet
  facet normal 0.000000e+000 -3.580323e-001 0.000000e+000
    outer loop
      vertex   -1.230000e+002 8.700000e+001 2.300000e+001
      vertex   -1.216170e+002 8.700000e+001 1.700000e+001
      vertex   -1.189591e+002 8.700000e+001 1.700000e+001
    endloop
  endfacet
  facet normal 1.000000e+000 0.000000e+000 0.000000e+000
    outer loop
      vertex   -1.160000e+002 7.400000e+001 5.000000e+000
      vertex   -1.160000e+002 7.500000e+001 5.000000e+000
      vertex   -1.160000e+002 7.400000e+001 2.300000e+001
    endloop
  endfacet
  facet normal 9.984604e-001 -0.000000e+000 0.000000e+000
    outer loop
      vertex   -1.160000e+002 7.400000e+001 2.300000e+001
      vertex   -1.160000e+002 7.500000e+001 5.000000e+000
      vertex   -1.160000e+002 7.500000e+001 2.300000e+001
    endloop
  endfacet
  facet normal 1.000000e+000 -0.000000e+000 0.000000e+000
    outer loop
      vertex   -1.160000e+002 8.300000e+001 5.000000e+000
      vertex   -1.160000e+002 8.300000e+001 4.000000e+000
      vertex   -1.160000e+002 8.700000e+001 5.000000e+000
    endloop
  endfacet
  facet normal 8.574929e-001 0.000000e+000 0.000000e+000
    outer loop
      vertex   -1.160000e+002 8.700000e+001 5.000000e+000
      vertex   -1.160000e+002 8.300000e+001 4.000000e+000
      vertex   -1.160000e+002 8.800000e+001 4.000000e+000
    endloop
  endfacet
  facet normal 7.071068e-001 -0.000000e+000 0.000000e+000
    outer loop
      vertex   -1.160000e+002 8.700000e+001 5.000000e+000
      vertex   -1.160000e+002 8.800000e+001 4.000000e+000
      vertex   -1.160000e+002 8.700000e+001 2.300000e+001
    endloop
  endfacet
  facet normal 7.432941e-001 -0.000000e+000 0.000000e+000
    outer loop
      vertex   -1.160000e+002 8.700000e+001 2.300000e+001
      vertex   -1.160000e+002 8.800000e+001 4.000000e+000
      vertex   -1.160000e+002 8.800000e+001 2.400000e+001
    endloop
  endfacet
  facet normal 8.574929e-001 0.000000e+000 -0.000000e+000
    outer loop
      vertex   -1.160000e+002 8.700000e+001 2.300000e+001
      vertex   -1.160000e+002 8.800000e+001 2.400000e+001
      vertex   -1.160000e+002 8.300000e+001 2.400000e+001
    endloop
  endfacet
  facet normal 9.701425e-001 0.000000e+000 0.000000e+000
    outer loop
      vertex   -1.160000e+002 8.300000e+001 2.400000e+001
      vertex   -1.160000e+002 8.300000e+001 2.300000e+001
      vertex   -1.160000e+002 8.700000e+001 2.300000e+001
    endloop
  endfacet
  facet normal -9.890399e-001 -1.225034e-001 0.000000e+000
    outer loop
      vertex   -1.240000e+002 7.000000e+001 4.500000e+000
      vertex   -1.240000e+002 7.000000e+001 2.350000e+001
      vertex   -1.250000e+002 7.807357e+001 3.827203e+000
    endloop
  endfacet
  facet normal -3.792451e-001 -4.697365e-002 0.000000e+000
    outer loop
      vertex   -1.250000e+002 7.807357e+001 3.827203e+000
      vertex   -1.240000e+002 7.000000e+001 2.350000e+001
      vertex   -1.250000e+002 7.807357e+001 2.417280e+001
    endloop
  endfacet
  facet normal -9.615240e-001 0.000000e+000 0.000000e+000
    outer loop
      vertex   -1.250000e+002 8.800000e+001 3.500000e+000
      vertex   -1.250000e+002 8.200000e+001 3.500000e+000
      vertex   -1.250000e+002 8.200000e+001 2.450000e+001
    endloop
  endfacet
  facet normal -1.865963e-001 0.000000e+000 -0.000000e+000
    outer loop
      vertex   -1.250000e+002 8.200000e+001 2.450000e+001
      vertex   -1.250000e+002 8.200000e+001 3.500000e+000
      vertex   -1.250000e+002 7.807357e+001 3.827203e+000
    endloop
  endfacet
  facet normal -9.635472e-001 0.000000e+000 0.000000e+000
    outer loop
      vertex   -1.250000e+002 8.200000e+001 2.450000e+001
      vertex   -1.250000e+002 7.807357e+001 3.827203e+000
      vertex   -1.250000e+002 7.807357e+001 2.417280e+001
    endloop
  endfacet
  facet normal -9.615240e-001 0.000000e+000 0.000000e+000
    outer loop
      vertex   -1.250000e+002 8.200000e+001 2.450000e+001
      vertex   -1.250000e+002 8.800000e+001 2.450000e+001
      vertex   -1.250000e+002 8.800000e+001 3.500000e+000
    endloop
  endfacet
  facet normal -1.000000e+000 0.000000e+000 0.000000e+000
    outer loop
      vertex   -1.189591e+002 8.800000e+001 1.100000e+001
      vertex   -1.189591e+002 8.700000e+001 1.100000e+001
      vertex   -1.189591e+002 8.800000e+001 1.700000e+001
    endloop
  endfacet
  facet normal -9.863939e-001 -0.000000e+000 0.000000e+000
    outer loop
      vertex   -1.189591e+002 8.800000e+001 1.700000e+001
      vertex   -1.189591e+002 8.700000e+001 1.100000e+001
      vertex   -1.189591e+002 8.700000e+001 1.700000e+001
    endloop
  endfacet
  facet normal 0.000000e+000 0.000000e+000 -1.000000e+000
    outer loop
      vertex   -1.216170e+002 8.800000e+001 1.700000e+001
      vertex   -1.189591e+002 8.800000e+001 1.700000e+001
      vertex   -1.216170e+002 8.700000e+001 1.700000e+001
    endloop
  endfacet
  facet normal 0.000000e+000 0.000000e+000 -3.521402e-001
    outer loop
      vertex   -1.216170e+002 8.700000e+001 1.700000e+001
      vertex   -1.189591e+002 8.800000e+001 1.700000e+001
      vertex   -1.189591e+002 8.700000e+001 1.700000e+001
    endloop
  endfacet
  facet normal 1.000000e+000 0.000000e+000 0.000000e+000
    outer loop
      vertex   -1.216170e+002 8.700000e+001 1.100000e+001
      vertex   -1.216170e+002 8.800000e+001 1.100000e+001
      vertex   -1.216170e+002 8.700000e+001 1.700000e+001
    endloop
  endfacet
  facet normal 9.863939e-001 -0.000000e+000 0.000000e+000
    outer loop
      vertex   -1.216170e+002 8.700000e+001 1.700000e+001
      vertex   -1.216170e+002 8.800000e+001 1.100000e+001
      vertex   -1.216170e+002 8.800000e+001 1.700000e+001
    endloop
  endfacet
  facet normal 0.000000e+000 0.000000e+000 1.000000e+000
    outer loop
      vertex   -1.216170e+002 8.700000e+001 1.100000e+001
      vertex   -1.189591e+002 8.700000e+001 1.100000e+001
      vertex   -1.216170e+002 8.800000e+001 1.100000e+001
    endloop
  endfacet
  facet normal -0.000000e+000 0.000000e+000 3.521402e-001
    outer loop
      vertex   -1.216170e+002 8.800000e+001 1.100000e+001
      vertex   -1.189591e+002 8.700000e+001 1.100000e+001
      vertex   -1.189591e+002 8.800000e+001 1.100000e+001
    endloop
  endfacet
  facet normal 0.000000e+000 0.000000e+000 -1.000000e+000
    outer loop
      vertex   -1.160000e+002 8.300000e+001 4.000000e+000
      vertex   -1.230000e+002 8.300000e+001 4.000000e+000
      vertex   -1.160000e+002 8.800000e+001 4.000000e+000
    endloop
  endfacet
  facet normal -0.000000e+000 0.000000e+000 -5.812382e-001
    outer loop
      vertex   -1.160000e+002 8.800000e+001 4.000000e+000
      vertex   -1.230000e+002 8.300000e+001 4.000000e+000
      vertex   -1.230000e+002 8.800000e+001 4.000000e+000
    endloop
  endfacet
  facet normal 0.000000e+000 0.000000e+000 1.000000e+000
    outer loop
      vertex   -1.230000e+002 8.300000e+001 5.000000e+000
      vertex   -1.160000e+002 8.300000e+001 5.000000e+000
      vertex   -1.230000e+002 8.700000e+001 5.000000e+000
    endloop
  endfacet
  facet normal -0.000000e+000 0.000000e+000 4.961389e-001
    outer loop
      vertex   -1.230000e+002 8.700000e+001 5.000000e+000
      vertex   -1.160000e+002 8.300000e+001 5.000000e+000
      vertex   -1.160000e+002 8.700000e+001 5.000000e+000
    endloop
  endfacet
  facet normal 0.000000e+000 -1.000000e+000 0.000000e+000
    outer loop
      vertex   -1.230000e+002 8.300000e+001 4.000000e+000
      vertex   -1.160000e+002 8.300000e+001 4.000000e+000
      vertex   -1.230000e+002 8.300000e+001 5.000000e+000
    endloop
  endfacet
  facet normal 0.000000e+000 -1.414214e-001 0.000000e+000
    outer loop
      vertex   -1.230000e+002 8.300000e+001 5.000000e+000
      vertex   -1.160000e+002 8.300000e+001 4.000000e+000
      vertex   -1.160000e+002 8.300000e+001 5.000000e+000
    endloop
  endfacet
  facet normal 0.000000e+000 0.000000e+000 -1.000000e+000
    outer loop
      vertex   -1.230000e+002 8.200000e+001 3.500000e+000
      vertex   -1.250000e+002 8.200000e+001 3.500000e+000
      vertex   -1.230000e+002 8.800000e+001 3.500000e+000
    endloop
  endfacet
  facet normal -0.000000e+000 0.000000e+000 -9.486833e-001
    outer loop
      vertex   -1.230000e+002 8.800000e+001 3.500000e+000
      vertex   -1.250000e+002 8.200000e+001 3.500000e+000
      vertex   -1.250000e+002 8.800000e+001 3.500000e+000
    endloop
  endfacet
  facet normal -0.000000e+000 -8.304548e-002 -9.965457e-001
    outer loop
      vertex   -1.230000e+002 7.000000e+001 4.500000e+000
      vertex   -1.240000e+002 7.000000e+001 4.500000e+000
      vertex   -1.230000e+002 8.200000e+001 3.500000e+000
    endloop
  endfacet
  facet normal -1.786242e-008 -3.133167e-002 -3.759800e-001
    outer loop
      vertex   -1.230000e+002 8.200000e+001 3.500000e+000
      vertex   -1.240000e+002 7.000000e+001 4.500000e+000
      vertex   -1.250000e+002 7.807357e+001 3.827203e+000
    endloop
  endfacet
  facet normal -0.000000e+000 -7.405140e-002 -8.886166e-001
    outer loop
      vertex   -1.230000e+002 8.200000e+001 3.500000e+000
      vertex   -1.250000e+002 7.807357e+001 3.827203e+000
      vertex   -1.250000e+002 8.200000e+001 3.500000e+000
    endloop
  endfacet
  facet normal 0.000000e+000 -1.000000e+000 0.000000e+000
    outer loop
      vertex   -1.240000e+002 7.000000e+001 4.500000e+000
      vertex   -1.230000e+002 7.000000e+001 4.500000e+000
      vertex   -1.240000e+002 7.000000e+001 2.350000e+001
    endloop
  endfacet
  facet normal 0.000000e+000 -9.986178e-001 0.000000e+000
    outer loop
      vertex   -1.240000e+002 7.000000e+001 2.350000e+001
      vertex   -1.230000e+002 7.000000e+001 4.500000e+000
      vertex   -1.230000e+002 7.000000e+001 2.350000e+001
    endloop
  endfacet
  facet normal 0.000000e+000 -8.304548e-002 9.965457e-001
    outer loop
      vertex   -1.230000e+002 7.000000e+001 2.350000e+001
      vertex   -1.230000e+002 8.200000e+001 2.450000e+001
      vertex   -1.240000e+002 7.000000e+001 2.350000e+001
    endloop
  endfacet
  facet normal 7.735026e-008 -1.695959e-002 2.035150e-001
    outer loop
      vertex   -1.240000e+002 7.000000e+001 2.350000e+001
      vertex   -1.230000e+002 8.200000e+001 2.450000e+001
      vertex   -1.250000e+002 7.807357e+001 2.417280e+001
    endloop
  endfacet
  facet normal 0.000000e+000 -3.758908e-002 4.510699e-001
    outer loop
      vertex   -1.250000e+002 7.807357e+001 2.417280e+001
      vertex   -1.230000e+002 8.200000e+001 2.450000e+001
      vertex   -1.250000e+002 8.200000e+001 2.450000e+001
    endloop
  endfacet
  facet normal 0.000000e+000 0.000000e+000 1.000000e+000
    outer loop
      vertex   -1.250000e+002 8.200000e+001 2.450000e+001
      vertex   -1.230000e+002 8.200000e+001 2.450000e+001
      vertex   -1.250000e+002 8.800000e+001 2.450000e+001
    endloop
  endfacet
  facet normal -0.000000e+000 0.000000e+000 9.486833e-001
    outer loop
      vertex   -1.250000e+002 8.800000e+001 2.450000e+001
      vertex   -1.230000e+002 8.200000e+001 2.450000e+001
      vertex   -1.230000e+002 8.800000e+001 2.450000e+001
    endloop
  endfacet
  facet normal 0.000000e+000 1.000000e+000 -0.000000e+000
    outer loop
      vertex   -1.230000e+002 8.800000e+001 3.500000e+000
      vertex   -1.250000e+002 8.800000e+001 3.500000e+000
      vertex   -1.230000e+002 8.800000e+001 4.000000e+000
    endloop
  endfacet
  facet normal 0.000000e+000 9.047326e-001 -0.000000e+000
    outer loop
      vertex   -1.230000e+002 8.800000e+001 4.000000e+000
      vertex   -1.250000e+002 8.800000e+001 3.500000e+000
      vertex   -1.216170e+002 8.800000e+001 1.100000e+001
    endloop
  endfacet
  facet normal 0.000000e+000 3.226018e-001 0.000000e+000
    outer loop
      vertex   -1.230000e+002 8.800000e+001 4.000000e+000
      vertex   -1.216170e+002 8.800000e+001 1.100000e+001
      vertex   -1.189591e+002 8.800000e+001 1.100000e+001
    endloop
  endfacet
  facet normal 0.000000e+000 4.111781e-001 -0.000000e+000
    outer loop
      vertex   -1.216170e+002 8.800000e+001 1.100000e+001
      vertex   -1.250000e+002 8.800000e+001 3.500000e+000
      vertex   -1.216170e+002 8.800000e+001 1.700000e+001
    endloop
  endfacet
  facet normal 0.000000e+000 6.204260e-001 0.000000e+000
    outer loop
      vertex   -1.216170e+002 8.800000e+001 1.700000e+001
      vertex   -1.250000e+002 8.800000e+001 3.500000e+000
      vertex   -1.250000e+002 8.800000e+001 2.450000e+001
    endloop
  endfacet
  facet normal 0.000000e+000 2.266921e-001 0.000000e+000
    outer loop
      vertex   -1.216170e+002 8.800000e+001 1.700000e+001
      vertex   -1.250000e+002 8.800000e+001 2.450000e+001
      vertex   -1.230000e+002 8.800000e+001 2.400000e+001
    endloop
  endfacet
  facet normal 0.000000e+000 9.701425e-001 -0.000000e+000
    outer loop
      vertex   -1.230000e+002 8.800000e+001 2.400000e+001
      vertex   -1.250000e+002 8.800000e+001 2.450000e+001
      vertex   -1.230000e+002 8.800000e+001 2.450000e+001
    endloop
  endfacet
  facet normal 0.000000e+000 9.810349e-001 -0.000000e+000
    outer loop
      vertex   -1.216170e+002 8.800000e+001 1.700000e+001
      vertex   -1.230000e+002 8.800000e+001 2.400000e+001
      vertex   -1.189591e+002 8.800000e+001 1.700000e+001
    endloop
  endfacet
  facet normal 0.000000e+000 7.977077e-001 -0.000000e+000
    outer loop
      vertex   -1.189591e+002 8.800000e+001 1.700000e+001
      vertex   -1.230000e+002 8.800000e+001 2.400000e+001
      vertex   -1.160000e+002 8.800000e+001 2.400000e+001
    endloop
  endfacet
  facet normal -0.000000e+000 5.840821e-001 0.000000e+000
    outer loop
      vertex   -1.189591e+002 8.800000e+001 1.700000e+001
      vertex   -1.160000e+002 8.800000e+001 2.400000e+001
      vertex   -1.160000e+002 8.800000e+001 4.000000e+000
    endloop
  endfacet
  facet normal 0.000000e+000 2.219437e-001 0.000000e+000
    outer loop
      vertex   -1.189591e+002 8.800000e+001 1.700000e+001
      vertex   -1.160000e+002 8.800000e+001 4.000000e+000
      vertex   -1.189591e+002 8.800000e+001 1.100000e+001
    endloop
  endfacet
  facet normal 0.000000e+000 7.977077e-001 0.000000e+000
    outer loop
      vertex   -1.189591e+002 8.800000e+001 1.100000e+001
      vertex   -1.160000e+002 8.800000e+001 4.000000e+000
      vertex   -1.230000e+002 8.800000e+001 4.000000e+000
    endloop
  endfacet
  facet normal 0.000000e+000 0.000000e+000 1.000000e+000
    outer loop
      vertex   -1.160000e+002 8.800000e+001 2.400000e+001
      vertex   -1.230000e+002 8.800000e+001 2.400000e+001
      vertex   -1.160000e+002 8.300000e+001 2.400000e+001
    endloop
  endfacet
  facet normal 0.000000e+000 0.000000e+000 5.812382e-001
    outer loop
      vertex   -1.160000e+002 8.300000e+001 2.400000e+001
      vertex   -1.230000e+002 8.800000e+001 2.400000e+001
      vertex   -1.230000e+002 8.300000e+001 2.400000e+001
    endloop
  endfacet
  facet normal -0.000000e+000 -1.000000e+000 -0.000000e+000
    outer loop
      vertex   -1.160000e+002 8.300000e+001 2.400000e+001
      vertex   -1.230000e+002 8.300000e+001 2.400000e+001
      vertex   -1.160000e+002 8.300000e+001 2.300000e+001
    endloop
  endfacet
  facet normal 0.000000e+000 -1.414214e-001 0.000000e+000
    outer loop
      vertex   -1.160000e+002 8.300000e+001 2.300000e+001
      vertex   -1.230000e+002 8.300000e+001 2.400000e+001
      vertex   -1.230000e+002 8.300000e+001 2.300000e+001
    endloop
  endfacet
  facet normal 0.000000e+000 0.000000e+000 -1.000000e+000
    outer loop
      vertex   -1.160000e+002 8.300000e+001 2.300000e+001
      vertex   -1.230000e+002 8.300000e+001 2.300000e+001
      vertex   -1.160000e+002 8.700000e+001 2.300000e+001
    endloop
  endfacet
  facet normal -0.000000e+000 0.000000e+000 -4.961389e-001
    outer loop
      vertex   -1.160000e+002 8.700000e+001 2.300000e+001
      vertex   -1.230000e+002 8.300000e+001 2.300000e+001
      vertex   -1.230000e+002 8.700000e+001 2.300000e+001
    endloop
  endfacet
  facet normal 0.000000e+000 0.000000e+000 -1.000000e+000
    outer loop
      vertex   -1.170573e+002 7.400000e+001 2.200000e+001
      vertex   -1.230000e+002 7.400000e+001 2.200000e+001
      vertex   -1.170573e+002 7.500000e+001 2.200000e+001
    endloop
  endfacet
  facet normal -0.000000e+000 0.000000e+000 -1.659394e-001
    outer loop
      vertex   -1.170573e+002 7.500000e+001 2.200000e+001
      vertex   -1.230000e+002 7.400000e+001 2.200000e+001
      vertex   -1.230000e+002 7.500000e+001 2.200000e+001
    endloop
  endfacet
  facet normal -1.000000e+000 0.000000e+000 0.000000e+000
    outer loop
      vertex   -1.170573e+002 7.500000e+001 1.350000e+001
      vertex   -1.170573e+002 7.400000e+001 1.350000e+001
      vertex   -1.170573e+002 7.500000e+001 2.200000e+001
    endloop
  endfacet
  facet normal -9.931506e-001 -0.000000e+000 0.000000e+000
    outer loop
      vertex   -1.170573e+002 7.500000e+001 2.200000e+001
      vertex   -1.170573e+002 7.400000e+001 1.350000e+001
      vertex   -1.170573e+002 7.400000e+001 2.200000e+001
    endloop
  endfacet
  facet normal 0.000000e+000 0.000000e+000 1.000000e+000
    outer loop
      vertex   -1.170573e+002 7.500000e+001 1.350000e+001
      vertex   -1.230000e+002 7.500000e+001 1.350000e+001
      vertex   -1.170573e+002 7.400000e+001 1.350000e+001
    endloop
  endfacet
  facet normal 0.000000e+000 0.000000e+000 1.659394e-001
    outer loop
      vertex   -1.170573e+002 7.400000e+001 1.350000e+001
      vertex   -1.230000e+002 7.500000e+001 1.350000e+001
      vertex   -1.230000e+002 7.400000e+001 1.350000e+001
    endloop
  endfacet
  facet normal 0.000000e+000 0.000000e+000 -1.000000e+000
    outer loop
      vertex   -1.170573e+002 7.400000e+001 1.250000e+001
      vertex   -1.230000e+002 7.400000e+001 1.250000e+001
      vertex   -1.170573e+002 7.500000e+001 1.250000e+001
    endloop
  endfacet
  facet normal -0.000000e+000 0.000000e+000 -1.659394e-001
    outer loop
      vertex   -1.170573e+002 7.500000e+001 1.250000e+001
      vertex   -1.230000e+002 7.400000e+001 1.250000e+001
      vertex   -1.230000e+002 7.500000e+001 1.250000e+001
    endloop
  endfacet
  facet normal -1.000000e+000 0.000000e+000 0.000000e+000
    outer loop
      vertex   -1.170573e+002 7.500000e+001 6.000000e+000
      vertex   -1.170573e+002 7.400000e+001 6.000000e+000
      vertex   -1.170573e+002 7.500000e+001 1.250000e+001
    endloop
  endfacet
  facet normal -9.883717e-001 -0.000000e+000 0.000000e+000
    outer loop
      vertex   -1.170573e+002 7.500000e+001 1.250000e+001
      vertex   -1.170573e+002 7.400000e+001 6.000000e+000
      vertex   -1.170573e+002 7.400000e+001 1.250000e+001
    endloop
  endfacet
  facet normal 0.000000e+000 0.000000e+000 1.000000e+000
    outer loop
      vertex   -1.170573e+002 7.500000e+001 6.000000e+000
      vertex   -1.230000e+002 7.500000e+001 6.000000e+000
      vertex   -1.170573e+002 7.400000e+001 6.000000e+000
    endloop
  endfacet
  facet normal 0.000000e+000 0.000000e+000 1.659394e-001
    outer loop
      vertex   -1.170573e+002 7.400000e+001 6.000000e+000
      vertex   -1.230000e+002 7.500000e+001 6.000000e+000
      vertex   -1.230000e+002 7.400000e+001 6.000000e+000
    endloop
  endfacet
  facet normal 1.000000e+000 0.000000e+000 0.000000e+000
    outer loop
      vertex   -1.230000e+002 8.800000e+001 4.000000e+000
      vertex   -1.230000e+002 8.300000e+001 4.000000e+000
      vertex   -1.230000e+002 8.800000e+001 3.500000e+000
    endloop
  endfacet
  facet normal 9.950372e-002 0.000000e+000 0.000000e+000
    outer loop
      vertex   -1.230000e+002 8.800000e+001 3.500000e+000
      vertex   -1.230000e+002 8.300000e+001 4.000000e+000
      vertex   -1.230000e+002 8.200000e+001 3.500000e+000
    endloop
  endfacet
  facet normal 4.961389e-001 0.000000e+000 0.000000e+000
    outer loop
      vertex   -1.230000e+002 8.200000e+001 3.500000e+000
      vertex   -1.230000e+002 8.300000e+001 4.000000e+000
      vertex   -1.230000e+002 8.300000e+001 5.000000e+000
    endloop
  endfacet
  facet normal 9.701425e-001 0.000000e+000 -0.000000e+000
    outer loop
      vertex   -1.230000e+002 8.200000e+001 3.500000e+000
      vertex   -1.230000e+002 8.300000e+001 5.000000e+000
      vertex   -1.230000e+002 7.500000e+001 6.000000e+000
    endloop
  endfacet
  facet normal 9.922779e-001 -0.000000e+000 0.000000e+000
    outer loop
      vertex   -1.230000e+002 7.500000e+001 6.000000e+000
      vertex   -1.230000e+002 8.300000e+001 5.000000e+000
      vertex   -1.230000e+002 7.500000e+001 1.250000e+001
    endloop
  endfacet
  facet normal 1.520572e-001 0.000000e+000 -0.000000e+000
    outer loop
      vertex   -1.230000e+002 7.500000e+001 6.000000e+000
      vertex   -1.230000e+002 7.500000e+001 1.250000e+001
      vertex   -1.230000e+002 7.400000e+001 1.250000e+001
    endloop
  endfacet
  facet normal 9.761871e-001 0.000000e+000 0.000000e+000
    outer loop
      vertex   -1.230000e+002 8.700000e+001 5.000000e+000
      vertex   -1.230000e+002 8.300000e+001 2.300000e+001
      vertex   -1.230000e+002 8.300000e+001 5.000000e+000
    endloop
  endfacet
  facet normal 6.853647e-001 0.000000e+000 -0.000000e+000
    outer loop
      vertex   -1.230000e+002 8.300000e+001 5.000000e+000
      vertex   -1.230000e+002 8.300000e+001 2.300000e+001
      vertex   -1.230000e+002 7.500000e+001 1.350000e+001
    endloop
  endfacet
  facet normal 6.249988e-002 0.000000e+000 0.000000e+000
    outer loop
      vertex   -1.230000e+002 8.300000e+001 5.000000e+000
      vertex   -1.230000e+002 7.500000e+001 1.350000e+001
      vertex   -1.230000e+002 7.500000e+001 1.250000e+001
    endloop
  endfacet
  facet normal 2.169305e-001 0.000000e+000 -0.000000e+000
    outer loop
      vertex   -1.230000e+002 8.700000e+001 5.000000e+000
      vertex   -1.230000e+002 8.700000e+001 2.300000e+001
      vertex   -1.230000e+002 8.300000e+001 2.300000e+001
    endloop
  endfacet
  facet normal 8.944272e-001 0.000000e+000 0.000000e+000
    outer loop
      vertex   -1.230000e+002 8.300000e+001 2.400000e+001
      vertex   -1.230000e+002 8.200000e+001 2.450000e+001
      vertex   -1.230000e+002 8.300000e+001 2.300000e+001
    endloop
  endfacet
  facet normal 8.944272e-001 0.000000e+000 0.000000e+000
    outer loop
      vertex   -1.230000e+002 8.300000e+001 2.300000e+001
      vertex   -1.230000e+002 8.200000e+001 2.450000e+001
      vertex   -1.230000e+002 7.500000e+001 2.200000e+001
    endloop
  endfacet
  facet normal 6.791093e-001 0.000000e+000 0.000000e+000
    outer loop
      vertex   -1.230000e+002 8.300000e+001 2.300000e+001
      vertex   -1.230000e+002 7.500000e+001 2.200000e+001
      vertex   -1.230000e+002 7.500000e+001 1.350000e+001
    endloop
  endfacet
  facet normal 1.168412e-001 0.000000e+000 -0.000000e+000
    outer loop
      vertex   -1.230000e+002 7.500000e+001 1.350000e+001
      vertex   -1.230000e+002 7.500000e+001 2.200000e+001
      vertex   -1.230000e+002 7.400000e+001 2.200000e+001
    endloop
  endfacet
  facet normal 9.931506e-001 0.000000e+000 0.000000e+000
    outer loop
      vertex   -1.230000e+002 7.500000e+001 1.350000e+001
      vertex   -1.230000e+002 7.400000e+001 2.200000e+001
      vertex   -1.230000e+002 7.400000e+001 1.350000e+001
    endloop
  endfacet
  facet normal 3.713907e-001 0.000000e+000 -0.000000e+000
    outer loop
      vertex   -1.230000e+002 7.400000e+001 1.350000e+001
      vertex   -1.230000e+002 7.400000e+001 2.200000e+001
      vertex   -1.230000e+002 7.000000e+001 2.350000e+001
    endloop
  endfacet
  facet normal 7.164712e-001 0.000000e+000 0.000000e+000
    outer loop
      vertex   -1.230000e+002 7.400000e+001 1.350000e+001
      vertex   -1.230000e+002 7.000000e+001 2.350000e+001
      vertex   -1.230000e+002 7.000000e+001 4.500000e+000
    endloop
  endfacet
  facet normal 1.000000e+000 0.000000e+000 -0.000000e+000
    outer loop
      vertex   -1.230000e+002 8.800000e+001 2.400000e+001
      vertex   -1.230000e+002 8.800000e+001 2.450000e+001
      vertex   -1.230000e+002 8.300000e+001 2.400000e+001
    endloop
  endfacet
  facet normal 5.339930e-001 0.000000e+000 -0.000000e+000
    outer loop
      vertex   -1.230000e+002 8.300000e+001 2.400000e+001
      vertex   -1.230000e+002 8.800000e+001 2.450000e+001
      vertex   -1.230000e+002 8.200000e+001 2.450000e+001
    endloop
  endfacet
  facet normal 2.060105e-001 -0.000000e+000 0.000000e+000
    outer loop
      vertex   -1.230000e+002 7.000000e+001 2.350000e+001
      vertex   -1.230000e+002 7.400000e+001 2.300000e+001
      vertex   -1.230000e+002 8.200000e+001 2.450000e+001
    endloop
  endfacet
  facet normal 2.574254e-002 0.000000e+000 0.000000e+000
    outer loop
      vertex   -1.230000e+002 8.200000e+001 2.450000e+001
      vertex   -1.230000e+002 7.400000e+001 2.300000e+001
      vertex   -1.230000e+002 7.500000e+001 2.300000e+001
    endloop
  endfacet
  facet normal 1.315482e-001 0.000000e+000 0.000000e+000
    outer loop
      vertex   -1.230000e+002 8.200000e+001 2.450000e+001
      vertex   -1.230000e+002 7.500000e+001 2.300000e+001
      vertex   -1.230000e+002 7.500000e+001 2.200000e+001
    endloop
  endfacet
  facet normal 1.020289e-001 0.000000e+000 0.000000e+000
    outer loop
      vertex   -1.230000e+002 8.200000e+001 3.500000e+000
      vertex   -1.230000e+002 7.400000e+001 5.000000e+000
      vertex   -1.230000e+002 7.000000e+001 4.500000e+000
    endloop
  endfacet
  facet normal 2.322747e-001 0.000000e+000 0.000000e+000
    outer loop
      vertex   -1.230000e+002 7.000000e+001 4.500000e+000
      vertex   -1.230000e+002 7.400000e+001 5.000000e+000
      vertex   -1.230000e+002 7.400000e+001 6.000000e+000
    endloop
  endfacet
  facet normal 6.804511e-001 0.000000e+000 0.000000e+000
    outer loop
      vertex   -1.230000e+002 7.000000e+001 4.500000e+000
      vertex   -1.230000e+002 7.400000e+001 6.000000e+000
      vertex   -1.230000e+002 7.400000e+001 1.250000e+001
    endloop
  endfacet
  facet normal 1.520572e-001 0.000000e+000 0.000000e+000
    outer loop
      vertex   -1.230000e+002 7.400000e+001 1.250000e+001
      vertex   -1.230000e+002 7.400000e+001 6.000000e+000
      vertex   -1.230000e+002 7.500000e+001 6.000000e+000
    endloop
  endfacet
  facet normal 9.417419e-001 0.000000e+000 0.000000e+000
    outer loop
      vertex   -1.230000e+002 7.500000e+001 6.000000e+000
      vertex   -1.230000e+002 7.500000e+001 5.000000e+000
      vertex   -1.230000e+002 8.200000e+001 3.500000e+000
    endloop
  endfacet
  facet normal 2.574254e-002 0.000000e+000 0.000000e+000
    outer loop
      vertex   -1.230000e+002 8.200000e+001 3.500000e+000
      vertex   -1.230000e+002 7.500000e+001 5.000000e+000
      vertex   -1.230000e+002 7.400000e+001 5.000000e+000
    endloop
  endfacet
  facet normal 4.472136e-001 0.000000e+000 -0.000000e+000
    outer loop
      vertex   -1.230000e+002 7.400000e+001 1.250000e+001
      vertex   -1.230000e+002 7.400000e+001 1.350000e+001
      vertex   -1.230000e+002 7.000000e+001 4.500000e+000
    endloop
  endfacet
  facet normal 9.363292e-001 0.000000e+000 -0.000000e+000
    outer loop
      vertex   -1.230000e+002 7.400000e+001 2.200000e+001
      vertex   -1.230000e+002 7.400000e+001 2.300000e+001
      vertex   -1.230000e+002 7.000000e+001 2.350000e+001
    endloop
  endfacet
  facet normal 0.000000e+000 -1.000000e+000 0.000000e+000
    outer loop
      vertex   -1.230000e+002 7.400000e+001 6.000000e+000
      vertex   -1.230000e+002 7.400000e+001 5.000000e+000
      vertex   -1.170573e+002 7.400000e+001 6.000000e+000
    endloop
  endfacet
  facet normal 0.000000e+000 -7.981914e-001 -0.000000e+000
    outer loop
      vertex   -1.170573e+002 7.400000e+001 6.000000e+000
      vertex   -1.230000e+002 7.400000e+001 5.000000e+000
      vertex   -1.160000e+002 7.400000e+001 5.000000e+000
    endloop
  endfacet
  facet normal 0.000000e+000 -7.265035e-001 0.000000e+000
    outer loop
      vertex   -1.170573e+002 7.400000e+001 6.000000e+000
      vertex   -1.160000e+002 7.400000e+001 5.000000e+000
      vertex   -1.170573e+002 7.400000e+001 1.250000e+001
    endloop
  endfacet
  facet normal 0.000000e+000 -1.395867e-001 0.000000e+000
    outer loop
      vertex   -1.170573e+002 7.400000e+001 1.250000e+001
      vertex   -1.160000e+002 7.400000e+001 5.000000e+000
      vertex   -1.170573e+002 7.400000e+001 1.350000e+001
    endloop
  endfacet
  facet normal 0.000000e+000 -9.861360e-001 0.000000e+000
    outer loop
      vertex   -1.170573e+002 7.400000e+001 1.250000e+001
      vertex   -1.170573e+002 7.400000e+001 1.350000e+001
      vertex   -1.230000e+002 7.400000e+001 1.350000e+001
    endloop
  endfacet
  facet normal 0.000000e+000 -1.234313e-001 0.000000e+000
    outer loop
      vertex   -1.160000e+002 7.400000e+001 5.000000e+000
      vertex   -1.160000e+002 7.400000e+001 2.300000e+001
      vertex   -1.170573e+002 7.400000e+001 1.350000e+001
    endloop
  endfacet
  facet normal 0.000000e+000 -1.106067e-001 0.000000e+000
    outer loop
      vertex   -1.170573e+002 7.400000e+001 1.350000e+001
      vertex   -1.160000e+002 7.400000e+001 2.300000e+001
      vertex   -1.170573e+002 7.400000e+001 2.200000e+001
    endloop
  endfacet
  facet normal 0.000000e+000 -7.981914e-001 0.000000e+000
    outer loop
      vertex   -1.170573e+002 7.400000e+001 2.200000e+001
      vertex   -1.160000e+002 7.400000e+001 2.300000e+001
      vertex   -1.230000e+002 7.400000e+001 2.300000e+001
    endloop
  endfacet
  facet normal 0.000000e+000 -1.659394e-001 0.000000e+000
    outer loop
      vertex   -1.170573e+002 7.400000e+001 2.200000e+001
      vertex   -1.230000e+002 7.400000e+001 2.300000e+001
      vertex   -1.230000e+002 7.400000e+001 2.200000e+001
    endloop
  endfacet
  facet normal 0.000000e+000 -9.861360e-001 0.000000e+000
    outer loop
      vertex   -1.230000e+002 7.400000e+001 1.350000e+001
      vertex   -1.230000e+002 7.400000e+001 1.250000e+001
      vertex   -1.170573e+002 7.400000e+001 1.250000e+001
    endloop
  endfacet
  facet normal 0.000000e+000 0.000000e+000 1.000000e+000
    outer loop
      vertex   -1.160000e+002 7.500000e+001 2.300000e+001
      vertex   -1.230000e+002 7.500000e+001 2.300000e+001
      vertex   -1.160000e+002 7.400000e+001 2.300000e+001
    endloop
  endfacet
  facet normal 0.000000e+000 0.000000e+000 1.414214e-001
    outer loop
      vertex   -1.160000e+002 7.400000e+001 2.300000e+001
      vertex   -1.230000e+002 7.500000e+001 2.300000e+001
      vertex   -1.230000e+002 7.400000e+001 2.300000e+001
    endloop
  endfacet
  facet normal 0.000000e+000 1.659394e-001 0.000000e+000
    outer loop
      vertex   -1.230000e+002 7.500000e+001 5.000000e+000
      vertex   -1.170573e+002 7.500000e+001 6.000000e+000
      vertex   -1.160000e+002 7.500000e+001 5.000000e+000
    endloop
  endfacet
  facet normal 0.000000e+000 6.234722e-001 0.000000e+000
    outer loop
      vertex   -1.160000e+002 7.500000e+001 5.000000e+000
      vertex   -1.170573e+002 7.500000e+001 6.000000e+000
      vertex   -1.170573e+002 7.500000e+001 1.250000e+001
    endloop
  endfacet
  facet normal 0.000000e+000 1.629639e-002 0.000000e+000
    outer loop
      vertex   -1.160000e+002 7.500000e+001 5.000000e+000
      vertex   -1.170573e+002 7.500000e+001 1.250000e+001
      vertex   -1.170573e+002 7.500000e+001 1.350000e+001
    endloop
  endfacet
  facet normal 0.000000e+000 9.861360e-001 0.000000e+000
    outer loop
      vertex   -1.170573e+002 7.500000e+001 1.350000e+001
      vertex   -1.170573e+002 7.500000e+001 1.250000e+001
      vertex   -1.230000e+002 7.500000e+001 1.250000e+001
    endloop
  endfacet
  facet normal 0.000000e+000 1.659394e-001 0.000000e+000
    outer loop
      vertex   -1.170573e+002 7.500000e+001 1.350000e+001
      vertex   -1.230000e+002 7.500000e+001 1.250000e+001
      vertex   -1.230000e+002 7.500000e+001 1.350000e+001
    endloop
  endfacet
  facet normal 0.000000e+000 9.861360e-001 0.000000e+000
    outer loop
      vertex   -1.230000e+002 7.500000e+001 5.000000e+000
      vertex   -1.230000e+002 7.500000e+001 6.000000e+000
      vertex   -1.170573e+002 7.500000e+001 6.000000e+000
    endloop
  endfacet
  facet normal 0.000000e+000 1.234313e-001 -0.000000e+000
    outer loop
      vertex   -1.160000e+002 7.500000e+001 5.000000e+000
      vertex   -1.170573e+002 7.500000e+001 1.350000e+001
      vertex   -1.160000e+002 7.500000e+001 2.300000e+001
    endloop
  endfacet
  facet normal 0.000000e+000 6.460410e-001 0.000000e+000
    outer loop
      vertex   -1.160000e+002 7.500000e+001 2.300000e+001
      vertex   -1.170573e+002 7.500000e+001 1.350000e+001
      vertex   -1.170573e+002 7.500000e+001 2.200000e+001
    endloop
  endfacet
  facet normal 0.000000e+000 6.871628e-001 0.000000e+000
    outer loop
      vertex   -1.160000e+002 7.500000e+001 2.300000e+001
      vertex   -1.170573e+002 7.500000e+001 2.200000e+001
      vertex   -1.230000e+002 7.500000e+001 2.300000e+001
    endloop
  endfacet
  facet normal 0.000000e+000 9.861360e-001 0.000000e+000
    outer loop
      vertex   -1.230000e+002 7.500000e+001 2.300000e+001
      vertex   -1.170573e+002 7.500000e+001 2.200000e+001
      vertex   -1.230000e+002 7.500000e+001 2.200000e+001
    endloop
  endfacet
  facet normal 0.000000e+000 0.000000e+000 -1.000000e+000
    outer loop
      vertex   -1.160000e+002 7.400000e+001 5.000000e+000
      vertex   -1.230000e+002 7.400000e+001 5.000000e+000
      vertex   -1.160000e+002 7.500000e+001 5.000000e+000
    endloop
  endfacet
  facet normal -0.000000e+000 0.000000e+000 -1.414214e-001
    outer loop
      vertex   -1.160000e+002 7.500000e+001 5.000000e+000
      vertex   -1.230000e+002 7.400000e+001 5.000000e+000
      vertex   -1.230000e+002 7.500000e+001 5.000000e+000
    endloop
  endfacet
endsolid
