solid ascii
  facet normal -1.000000e+000 0.000000e+000 0.000000e+000
    outer loop
      vertex   -1.484091e+002 2.265000e+002 2.000000e+000
      vertex   -1.484091e+002 2.635000e+002 2.000000e+000
      vertex   -1.484091e+002 2.265000e+002 1.500000e+000
    endloop
  endfacet
  facet normal -1.351228e-002 0.000000e+000 0.000000e+000
    outer loop
      vertex   -1.484091e+002 2.265000e+002 1.500000e+000
      vertex   -1.484091e+002 2.635000e+002 2.000000e+000
      vertex   -1.484091e+002 2.635000e+002 1.500000e+000
    endloop
  endfacet
  facet normal 1.000000e+000 0.000000e+000 0.000000e+000
    outer loop
      vertex   -1.494545e+002 2.635000e+002 2.000000e+000
      vertex   -1.494545e+002 2.265000e+002 2.000000e+000
      vertex   -1.494545e+002 2.635000e+002 1.500000e+000
    endloop
  endfacet
  facet normal 1.351228e-002 0.000000e+000 0.000000e+000
    outer loop
      vertex   -1.494545e+002 2.635000e+002 1.500000e+000
      vertex   -1.494545e+002 2.265000e+002 2.000000e+000
      vertex   -1.494545e+002 2.265000e+002 1.500000e+000
    endloop
  endfacet
  facet normal -0.000000e+000 0.000000e+000 1.000000e+000
    outer loop
      vertex   -1.494545e+002 2.635000e+002 1.500000e+000
      vertex   -1.494545e+002 2.265000e+002 1.500000e+000
      vertex   -1.484091e+002 2.635000e+002 1.500000e+000
    endloop
  endfacet
  facet normal 0.000000e+000 0.000000e+000 2.824429e-002
    outer loop
      vertex   -1.484091e+002 2.635000e+002 1.500000e+000
      vertex   -1.494545e+002 2.265000e+002 1.500000e+000
      vertex   -1.484091e+002 2.265000e+002 1.500000e+000
    endloop
  endfacet
  facet normal -1.000000e+000 0.000000e+000 0.000000e+000
    outer loop
      vertex   -1.285455e+002 2.265000e+002 2.000000e+000
      vertex   -1.285455e+002 2.635000e+002 2.000000e+000
      vertex   -1.285455e+002 2.265000e+002 1.500000e+000
    endloop
  endfacet
  facet normal -1.351228e-002 0.000000e+000 0.000000e+000
    outer loop
      vertex   -1.285455e+002 2.265000e+002 1.500000e+000
      vertex   -1.285455e+002 2.635000e+002 2.000000e+000
      vertex   -1.285455e+002 2.635000e+002 1.500000e+000
    endloop
  endfacet
  facet normal 1.000000e+000 0.000000e+000 0.000000e+000
    outer loop
      vertex   -1.295909e+002 2.635000e+002 2.000000e+000
      vertex   -1.295909e+002 2.265000e+002 2.000000e+000
      vertex   -1.295909e+002 2.635000e+002 1.500000e+000
    endloop
  endfacet
  facet normal 1.351228e-002 0.000000e+000 0.000000e+000
    outer loop
      vertex   -1.295909e+002 2.635000e+002 1.500000e+000
      vertex   -1.295909e+002 2.265000e+002 2.000000e+000
      vertex   -1.295909e+002 2.265000e+002 1.500000e+000
    endloop
  endfacet
  facet normal -0.000000e+000 0.000000e+000 1.000000e+000
    outer loop
      vertex   -1.295909e+002 2.635000e+002 1.500000e+000
      vertex   -1.295909e+002 2.265000e+002 1.500000e+000
      vertex   -1.285455e+002 2.635000e+002 1.500000e+000
    endloop
  endfacet
  facet normal 0.000000e+000 0.000000e+000 2.824429e-002
    outer loop
      vertex   -1.285455e+002 2.635000e+002 1.500000e+000
      vertex   -1.295909e+002 2.265000e+002 1.500000e+000
      vertex   -1.285455e+002 2.265000e+002 1.500000e+000
    endloop
  endfacet
  facet normal -1.000000e+000 0.000000e+000 0.000000e+000
    outer loop
      vertex   -1.452727e+002 2.265000e+002 2.000000e+000
      vertex   -1.452727e+002 2.635000e+002 2.000000e+000
      vertex   -1.452727e+002 2.265000e+002 1.500000e+000
    endloop
  endfacet
  facet normal -1.351228e-002 0.000000e+000 0.000000e+000
    outer loop
      vertex   -1.452727e+002 2.265000e+002 1.500000e+000
      vertex   -1.452727e+002 2.635000e+002 2.000000e+000
      vertex   -1.452727e+002 2.635000e+002 1.500000e+000
    endloop
  endfacet
  facet normal 1.000000e+000 0.000000e+000 0.000000e+000
    outer loop
      vertex   -1.463182e+002 2.635000e+002 2.000000e+000
      vertex   -1.463182e+002 2.265000e+002 2.000000e+000
      vertex   -1.463182e+002 2.635000e+002 1.500000e+000
    endloop
  endfacet
  facet normal 1.351228e-002 0.000000e+000 0.000000e+000
    outer loop
      vertex   -1.463182e+002 2.635000e+002 1.500000e+000
      vertex   -1.463182e+002 2.265000e+002 2.000000e+000
      vertex   -1.463182e+002 2.265000e+002 1.500000e+000
    endloop
  endfacet
  facet normal -0.000000e+000 0.000000e+000 1.000000e+000
    outer loop
      vertex   -1.463182e+002 2.635000e+002 1.500000e+000
      vertex   -1.463182e+002 2.265000e+002 1.500000e+000
      vertex   -1.452727e+002 2.635000e+002 1.500000e+000
    endloop
  endfacet
  facet normal 0.000000e+000 0.000000e+000 2.824429e-002
    outer loop
      vertex   -1.452727e+002 2.635000e+002 1.500000e+000
      vertex   -1.463182e+002 2.265000e+002 1.500000e+000
      vertex   -1.452727e+002 2.265000e+002 1.500000e+000
    endloop
  endfacet
  facet normal -1.000000e+000 0.000000e+000 0.000000e+000
    outer loop
      vertex   -1.379545e+002 2.265000e+002 2.000000e+000
      vertex   -1.379545e+002 2.635000e+002 2.000000e+000
      vertex   -1.379545e+002 2.265000e+002 1.500000e+000
    endloop
  endfacet
  facet normal -1.351228e-002 0.000000e+000 0.000000e+000
    outer loop
      vertex   -1.379545e+002 2.265000e+002 1.500000e+000
      vertex   -1.379545e+002 2.635000e+002 2.000000e+000
      vertex   -1.379545e+002 2.635000e+002 1.500000e+000
    endloop
  endfacet
  facet normal 1.000000e+000 0.000000e+000 0.000000e+000
    outer loop
      vertex   -1.400455e+002 2.635000e+002 2.000000e+000
      vertex   -1.400455e+002 2.265000e+002 2.000000e+000
      vertex   -1.400455e+002 2.635000e+002 1.500000e+000
    endloop
  endfacet
  facet normal 1.351228e-002 0.000000e+000 0.000000e+000
    outer loop
      vertex   -1.400455e+002 2.635000e+002 1.500000e+000
      vertex   -1.400455e+002 2.265000e+002 2.000000e+000
      vertex   -1.400455e+002 2.265000e+002 1.500000e+000
    endloop
  endfacet
  facet normal 0.000000e+000 0.000000e+000 1.000000e+000
    outer loop
      vertex   -1.400455e+002 2.265000e+002 1.500000e+000
      vertex   -1.379545e+002 2.265000e+002 1.500000e+000
      vertex   -1.400455e+002 2.635000e+002 1.500000e+000
    endloop
  endfacet
  facet normal -0.000000e+000 0.000000e+000 9.984071e-001
    outer loop
      vertex   -1.400455e+002 2.635000e+002 1.500000e+000
      vertex   -1.379545e+002 2.265000e+002 1.500000e+000
      vertex   -1.379545e+002 2.635000e+002 1.500000e+000
    endloop
  endfacet
  facet normal -1.000000e+000 0.000000e+000 0.000000e+000
    outer loop
      vertex   -1.348182e+002 2.265000e+002 2.000000e+000
      vertex   -1.348182e+002 2.635000e+002 2.000000e+000
      vertex   -1.348182e+002 2.265000e+002 1.500000e+000
    endloop
  endfacet
  facet normal -1.351228e-002 0.000000e+000 0.000000e+000
    outer loop
      vertex   -1.348182e+002 2.265000e+002 1.500000e+000
      vertex   -1.348182e+002 2.635000e+002 2.000000e+000
      vertex   -1.348182e+002 2.635000e+002 1.500000e+000
    endloop
  endfacet
  facet normal 1.000000e+000 0.000000e+000 0.000000e+000
    outer loop
      vertex   -1.358636e+002 2.635000e+002 2.000000e+000
      vertex   -1.358636e+002 2.265000e+002 2.000000e+000
      vertex   -1.358636e+002 2.635000e+002 1.500000e+000
    endloop
  endfacet
  facet normal 1.351228e-002 0.000000e+000 0.000000e+000
    outer loop
      vertex   -1.358636e+002 2.635000e+002 1.500000e+000
      vertex   -1.358636e+002 2.265000e+002 2.000000e+000
      vertex   -1.358636e+002 2.265000e+002 1.500000e+000
    endloop
  endfacet
  facet normal -0.000000e+000 0.000000e+000 1.000000e+000
    outer loop
      vertex   -1.358636e+002 2.635000e+002 1.500000e+000
      vertex   -1.358636e+002 2.265000e+002 1.500000e+000
      vertex   -1.348182e+002 2.635000e+002 1.500000e+000
    endloop
  endfacet
  facet normal 0.000000e+000 0.000000e+000 2.824429e-002
    outer loop
      vertex   -1.348182e+002 2.635000e+002 1.500000e+000
      vertex   -1.358636e+002 2.265000e+002 1.500000e+000
      vertex   -1.348182e+002 2.265000e+002 1.500000e+000
    endloop
  endfacet
  facet normal -1.000000e+000 0.000000e+000 0.000000e+000
    outer loop
      vertex   -1.316818e+002 2.265000e+002 2.000000e+000
      vertex   -1.316818e+002 2.635000e+002 2.000000e+000
      vertex   -1.316818e+002 2.265000e+002 1.500000e+000
    endloop
  endfacet
  facet normal -1.351228e-002 0.000000e+000 0.000000e+000
    outer loop
      vertex   -1.316818e+002 2.265000e+002 1.500000e+000
      vertex   -1.316818e+002 2.635000e+002 2.000000e+000
      vertex   -1.316818e+002 2.635000e+002 1.500000e+000
    endloop
  endfacet
  facet normal 1.000000e+000 0.000000e+000 0.000000e+000
    outer loop
      vertex   -1.327273e+002 2.635000e+002 2.000000e+000
      vertex   -1.327273e+002 2.265000e+002 2.000000e+000
      vertex   -1.327273e+002 2.635000e+002 1.500000e+000
    endloop
  endfacet
  facet normal 1.351228e-002 0.000000e+000 0.000000e+000
    outer loop
      vertex   -1.327273e+002 2.635000e+002 1.500000e+000
      vertex   -1.327273e+002 2.265000e+002 2.000000e+000
      vertex   -1.327273e+002 2.265000e+002 1.500000e+000
    endloop
  endfacet
  facet normal -0.000000e+000 0.000000e+000 1.000000e+000
    outer loop
      vertex   -1.327273e+002 2.635000e+002 1.500000e+000
      vertex   -1.327273e+002 2.265000e+002 1.500000e+000
      vertex   -1.316818e+002 2.635000e+002 1.500000e+000
    endloop
  endfacet
  facet normal 0.000000e+000 0.000000e+000 2.824429e-002
    outer loop
      vertex   -1.316818e+002 2.635000e+002 1.500000e+000
      vertex   -1.327273e+002 2.265000e+002 1.500000e+000
      vertex   -1.316818e+002 2.265000e+002 1.500000e+000
    endloop
  endfacet
  facet normal -1.000000e+000 0.000000e+000 0.000000e+000
    outer loop
      vertex   -1.421364e+002 2.265000e+002 2.000000e+000
      vertex   -1.421364e+002 2.635000e+002 2.000000e+000
      vertex   -1.421364e+002 2.265000e+002 1.500000e+000
    endloop
  endfacet
  facet normal -1.351228e-002 0.000000e+000 0.000000e+000
    outer loop
      vertex   -1.421364e+002 2.265000e+002 1.500000e+000
      vertex   -1.421364e+002 2.635000e+002 2.000000e+000
      vertex   -1.421364e+002 2.635000e+002 1.500000e+000
    endloop
  endfacet
  facet normal 1.000000e+000 0.000000e+000 0.000000e+000
    outer loop
      vertex   -1.431818e+002 2.635000e+002 2.000000e+000
      vertex   -1.431818e+002 2.265000e+002 2.000000e+000
      vertex   -1.431818e+002 2.635000e+002 1.500000e+000
    endloop
  endfacet
  facet normal 1.351228e-002 0.000000e+000 0.000000e+000
    outer loop
      vertex   -1.431818e+002 2.635000e+002 1.500000e+000
      vertex   -1.431818e+002 2.265000e+002 2.000000e+000
      vertex   -1.431818e+002 2.265000e+002 1.500000e+000
    endloop
  endfacet
  facet normal -0.000000e+000 0.000000e+000 1.000000e+000
    outer loop
      vertex   -1.431818e+002 2.635000e+002 1.500000e+000
      vertex   -1.431818e+002 2.265000e+002 1.500000e+000
      vertex   -1.421364e+002 2.635000e+002 1.500000e+000
    endloop
  endfacet
  facet normal 0.000000e+000 0.000000e+000 2.824429e-002
    outer loop
      vertex   -1.421364e+002 2.635000e+002 1.500000e+000
      vertex   -1.431818e+002 2.265000e+002 1.500000e+000
      vertex   -1.421364e+002 2.265000e+002 1.500000e+000
    endloop
  endfacet
  facet normal 0.000000e+000 0.000000e+000 1.000000e+000
    outer loop
      vertex   -1.348182e+002 2.265000e+002 2.000000e+000
      vertex   -1.327273e+002 2.265000e+002 2.000000e+000
      vertex   -1.348182e+002 2.635000e+002 2.000000e+000
    endloop
  endfacet
  facet normal -0.000000e+000 0.000000e+000 9.984071e-001
    outer loop
      vertex   -1.348182e+002 2.635000e+002 2.000000e+000
      vertex   -1.327273e+002 2.265000e+002 2.000000e+000
      vertex   -1.327273e+002 2.635000e+002 2.000000e+000
    endloop
  endfacet
  facet normal 0.000000e+000 0.000000e+000 1.000000e+000
    outer loop
      vertex   -1.379545e+002 2.265000e+002 2.000000e+000
      vertex   -1.358636e+002 2.265000e+002 2.000000e+000
      vertex   -1.379545e+002 2.635000e+002 2.000000e+000
    endloop
  endfacet
  facet normal -0.000000e+000 0.000000e+000 9.984071e-001
    outer loop
      vertex   -1.379545e+002 2.635000e+002 2.000000e+000
      vertex   -1.358636e+002 2.265000e+002 2.000000e+000
      vertex   -1.358636e+002 2.635000e+002 2.000000e+000
    endloop
  endfacet
  facet normal 0.000000e+000 0.000000e+000 1.000000e+000
    outer loop
      vertex   -1.400455e+002 2.635000e+002 2.000000e+000
      vertex   -1.421364e+002 2.635000e+002 2.000000e+000
      vertex   -1.400455e+002 2.265000e+002 2.000000e+000
    endloop
  endfacet
  facet normal 0.000000e+000 0.000000e+000 9.984071e-001
    outer loop
      vertex   -1.400455e+002 2.265000e+002 2.000000e+000
      vertex   -1.421364e+002 2.635000e+002 2.000000e+000
      vertex   -1.421364e+002 2.265000e+002 2.000000e+000
    endloop
  endfacet
  facet normal 0.000000e+000 0.000000e+000 1.000000e+000
    outer loop
      vertex   -1.452727e+002 2.265000e+002 2.000000e+000
      vertex   -1.431818e+002 2.265000e+002 2.000000e+000
      vertex   -1.452727e+002 2.635000e+002 2.000000e+000
    endloop
  endfacet
  facet normal -0.000000e+000 0.000000e+000 9.984071e-001
    outer loop
      vertex   -1.452727e+002 2.635000e+002 2.000000e+000
      vertex   -1.431818e+002 2.265000e+002 2.000000e+000
      vertex   -1.431818e+002 2.635000e+002 2.000000e+000
    endloop
  endfacet
  facet normal 0.000000e+000 0.000000e+000 1.000000e+000
    outer loop
      vertex   -1.285455e+002 2.265000e+002 2.000000e+000
      vertex   -1.265000e+002 2.265000e+002 2.000000e+000
      vertex   -1.285455e+002 2.635000e+002 2.000000e+000
    endloop
  endfacet
  facet normal -0.000000e+000 0.000000e+000 9.984754e-001
    outer loop
      vertex   -1.285455e+002 2.635000e+002 2.000000e+000
      vertex   -1.265000e+002 2.265000e+002 2.000000e+000
      vertex   -1.265000e+002 2.635000e+002 2.000000e+000
    endloop
  endfacet
  facet normal 0.000000e+000 0.000000e+000 1.000000e+000
    outer loop
      vertex   -1.295909e+002 2.635000e+002 2.000000e+000
      vertex   -1.316818e+002 2.635000e+002 2.000000e+000
      vertex   -1.295909e+002 2.265000e+002 2.000000e+000
    endloop
  endfacet
  facet normal 0.000000e+000 0.000000e+000 9.984071e-001
    outer loop
      vertex   -1.295909e+002 2.265000e+002 2.000000e+000
      vertex   -1.316818e+002 2.635000e+002 2.000000e+000
      vertex   -1.316818e+002 2.265000e+002 2.000000e+000
    endloop
  endfacet
  facet normal 0.000000e+000 0.000000e+000 1.000000e+000
    outer loop
      vertex   -1.484091e+002 2.265000e+002 2.000000e+000
      vertex   -1.463182e+002 2.265000e+002 2.000000e+000
      vertex   -1.484091e+002 2.635000e+002 2.000000e+000
    endloop
  endfacet
  facet normal -0.000000e+000 0.000000e+000 9.984071e-001
    outer loop
      vertex   -1.484091e+002 2.635000e+002 2.000000e+000
      vertex   -1.463182e+002 2.265000e+002 2.000000e+000
      vertex   -1.463182e+002 2.635000e+002 2.000000e+000
    endloop
  endfacet
  facet normal 0.000000e+000 0.000000e+000 1.000000e+000
    outer loop
      vertex   -1.494545e+002 2.635000e+002 2.000000e+000
      vertex   -1.515000e+002 2.635000e+002 2.000000e+000
      vertex   -1.494545e+002 2.265000e+002 2.000000e+000
    endloop
  endfacet
  facet normal 0.000000e+000 0.000000e+000 9.984754e-001
    outer loop
      vertex   -1.494545e+002 2.265000e+002 2.000000e+000
      vertex   -1.515000e+002 2.635000e+002 2.000000e+000
      vertex   -1.515000e+002 2.265000e+002 2.000000e+000
    endloop
  endfacet
  facet normal 0.000000e+000 1.000000e+000 0.000000e+000
    outer loop
      vertex   -1.494545e+002 2.635000e+002 2.000000e+000
      vertex   -1.494545e+002 2.635000e+002 1.500000e+000
      vertex   -1.515000e+002 2.635000e+002 2.000000e+000
    endloop
  endfacet
  facet normal 0.000000e+000 9.713991e-001 0.000000e+000
    outer loop
      vertex   -1.515000e+002 2.635000e+002 2.000000e+000
      vertex   -1.494545e+002 2.635000e+002 1.500000e+000
      vertex   -1.515000e+002 2.635000e+002 0.000000e+000
    endloop
  endfacet
  facet normal 0.000000e+000 1.799494e-001 0.000000e+000
    outer loop
      vertex   -1.515000e+002 2.635000e+002 0.000000e+000
      vertex   -1.494545e+002 2.635000e+002 1.500000e+000
      vertex   -1.484091e+002 2.635000e+002 1.500000e+000
    endloop
  endfacet
  facet normal 0.000000e+000 1.692237e-001 0.000000e+000
    outer loop
      vertex   -1.515000e+002 2.635000e+002 0.000000e+000
      vertex   -1.484091e+002 2.635000e+002 1.500000e+000
      vertex   -1.463182e+002 2.635000e+002 1.500000e+000
    endloop
  endfacet
  facet normal 0.000000e+000 1.000000e+000 -0.000000e+000
    outer loop
      vertex   -1.463182e+002 2.635000e+002 1.500000e+000
      vertex   -1.484091e+002 2.635000e+002 1.500000e+000
      vertex   -1.463182e+002 2.635000e+002 2.000000e+000
    endloop
  endfacet
  facet normal 0.000000e+000 2.325729e-001 0.000000e+000
    outer loop
      vertex   -1.463182e+002 2.635000e+002 2.000000e+000
      vertex   -1.484091e+002 2.635000e+002 1.500000e+000
      vertex   -1.484091e+002 2.635000e+002 2.000000e+000
    endloop
  endfacet
  facet normal -0.000000e+000 2.780578e-001 0.000000e+000
    outer loop
      vertex   -1.463182e+002 2.635000e+002 1.500000e+000
      vertex   -1.452727e+002 2.635000e+002 1.500000e+000
      vertex   -1.515000e+002 2.635000e+002 0.000000e+000
    endloop
  endfacet
  facet normal 0.000000e+000 5.792971e-002 0.000000e+000
    outer loop
      vertex   -1.515000e+002 2.635000e+002 0.000000e+000
      vertex   -1.452727e+002 2.635000e+002 1.500000e+000
      vertex   -1.431818e+002 2.635000e+002 1.500000e+000
    endloop
  endfacet
  facet normal 0.000000e+000 1.956471e-002 0.000000e+000
    outer loop
      vertex   -1.515000e+002 2.635000e+002 0.000000e+000
      vertex   -1.431818e+002 2.635000e+002 1.500000e+000
      vertex   -1.421364e+002 2.635000e+002 1.500000e+000
    endloop
  endfacet
  facet normal -0.000000e+000 1.000000e+000 0.000000e+000
    outer loop
      vertex   -1.452727e+002 2.635000e+002 2.000000e+000
      vertex   -1.431818e+002 2.635000e+002 2.000000e+000
      vertex   -1.452727e+002 2.635000e+002 1.500000e+000
    endloop
  endfacet
  facet normal 0.000000e+000 2.325745e-001 0.000000e+000
    outer loop
      vertex   -1.452727e+002 2.635000e+002 1.500000e+000
      vertex   -1.431818e+002 2.635000e+002 2.000000e+000
      vertex   -1.431818e+002 2.635000e+002 1.500000e+000
    endloop
  endfacet
  facet normal -0.000000e+000 1.000000e+000 0.000000e+000
    outer loop
      vertex   -1.421364e+002 2.635000e+002 2.000000e+000
      vertex   -1.400455e+002 2.635000e+002 2.000000e+000
      vertex   -1.421364e+002 2.635000e+002 1.500000e+000
    endloop
  endfacet
  facet normal 0.000000e+000 2.325729e-001 0.000000e+000
    outer loop
      vertex   -1.421364e+002 2.635000e+002 1.500000e+000
      vertex   -1.400455e+002 2.635000e+002 2.000000e+000
      vertex   -1.400455e+002 2.635000e+002 1.500000e+000
    endloop
  endfacet
  facet normal -0.000000e+000 1.581775e-001 0.000000e+000
    outer loop
      vertex   -1.421364e+002 2.635000e+002 1.500000e+000
      vertex   -1.400455e+002 2.635000e+002 1.500000e+000
      vertex   -1.515000e+002 2.635000e+002 0.000000e+000
    endloop
  endfacet
  facet normal 0.000000e+000 1.992125e-002 0.000000e+000
    outer loop
      vertex   -1.515000e+002 2.635000e+002 0.000000e+000
      vertex   -1.400455e+002 2.635000e+002 1.500000e+000
      vertex   -1.379545e+002 2.635000e+002 1.500000e+000
    endloop
  endfacet
  facet normal 0.000000e+000 1.100654e-001 0.000000e+000
    outer loop
      vertex   -1.515000e+002 2.635000e+002 0.000000e+000
      vertex   -1.379545e+002 2.635000e+002 1.500000e+000
      vertex   -1.265000e+002 2.635000e+002 0.000000e+000
    endloop
  endfacet
  facet normal 0.000000e+000 2.862928e-002 0.000000e+000
    outer loop
      vertex   -1.265000e+002 2.635000e+002 0.000000e+000
      vertex   -1.379545e+002 2.635000e+002 1.500000e+000
      vertex   -1.358636e+002 2.635000e+002 1.500000e+000
    endloop
  endfacet
  facet normal 0.000000e+000 1.956471e-002 0.000000e+000
    outer loop
      vertex   -1.265000e+002 2.635000e+002 0.000000e+000
      vertex   -1.358636e+002 2.635000e+002 1.500000e+000
      vertex   -1.348182e+002 2.635000e+002 1.500000e+000
    endloop
  endfacet
  facet normal -0.000000e+000 1.000000e+000 0.000000e+000
    outer loop
      vertex   -1.379545e+002 2.635000e+002 2.000000e+000
      vertex   -1.358636e+002 2.635000e+002 2.000000e+000
      vertex   -1.379545e+002 2.635000e+002 1.500000e+000
    endloop
  endfacet
  facet normal 0.000000e+000 2.325729e-001 0.000000e+000
    outer loop
      vertex   -1.379545e+002 2.635000e+002 1.500000e+000
      vertex   -1.358636e+002 2.635000e+002 2.000000e+000
      vertex   -1.358636e+002 2.635000e+002 1.500000e+000
    endloop
  endfacet
  facet normal -0.000000e+000 1.000000e+000 0.000000e+000
    outer loop
      vertex   -1.348182e+002 2.635000e+002 2.000000e+000
      vertex   -1.327273e+002 2.635000e+002 2.000000e+000
      vertex   -1.348182e+002 2.635000e+002 1.500000e+000
    endloop
  endfacet
  facet normal 0.000000e+000 2.325745e-001 0.000000e+000
    outer loop
      vertex   -1.348182e+002 2.635000e+002 1.500000e+000
      vertex   -1.327273e+002 2.635000e+002 2.000000e+000
      vertex   -1.327273e+002 2.635000e+002 1.500000e+000
    endloop
  endfacet
  facet normal -0.000000e+000 1.774656e-001 0.000000e+000
    outer loop
      vertex   -1.348182e+002 2.635000e+002 1.500000e+000
      vertex   -1.327273e+002 2.635000e+002 1.500000e+000
      vertex   -1.265000e+002 2.635000e+002 0.000000e+000
    endloop
  endfacet
  facet normal 0.000000e+000 4.538322e-002 0.000000e+000
    outer loop
      vertex   -1.265000e+002 2.635000e+002 0.000000e+000
      vertex   -1.327273e+002 2.635000e+002 1.500000e+000
      vertex   -1.316818e+002 2.635000e+002 1.500000e+000
    endloop
  endfacet
  facet normal 0.000000e+000 1.692237e-001 0.000000e+000
    outer loop
      vertex   -1.265000e+002 2.635000e+002 0.000000e+000
      vertex   -1.316818e+002 2.635000e+002 1.500000e+000
      vertex   -1.295909e+002 2.635000e+002 1.500000e+000
    endloop
  endfacet
  facet normal 0.000000e+000 1.000000e+000 -0.000000e+000
    outer loop
      vertex   -1.295909e+002 2.635000e+002 1.500000e+000
      vertex   -1.316818e+002 2.635000e+002 1.500000e+000
      vertex   -1.295909e+002 2.635000e+002 2.000000e+000
    endloop
  endfacet
  facet normal 0.000000e+000 2.325729e-001 0.000000e+000
    outer loop
      vertex   -1.295909e+002 2.635000e+002 2.000000e+000
      vertex   -1.316818e+002 2.635000e+002 1.500000e+000
      vertex   -1.316818e+002 2.635000e+002 2.000000e+000
    endloop
  endfacet
  facet normal -0.000000e+000 4.365978e-001 0.000000e+000
    outer loop
      vertex   -1.295909e+002 2.635000e+002 1.500000e+000
      vertex   -1.285455e+002 2.635000e+002 1.500000e+000
      vertex   -1.265000e+002 2.635000e+002 0.000000e+000
    endloop
  endfacet
  facet normal 0.000000e+000 8.064052e-001 -0.000000e+000
    outer loop
      vertex   -1.265000e+002 2.635000e+002 0.000000e+000
      vertex   -1.285455e+002 2.635000e+002 1.500000e+000
      vertex   -1.265000e+002 2.635000e+002 2.000000e+000
    endloop
  endfacet
  facet normal 0.000000e+000 2.374529e-001 0.000000e+000
    outer loop
      vertex   -1.265000e+002 2.635000e+002 2.000000e+000
      vertex   -1.285455e+002 2.635000e+002 1.500000e+000
      vertex   -1.285455e+002 2.635000e+002 2.000000e+000
    endloop
  endfacet
  facet normal -1.000000e+000 0.000000e+000 0.000000e+000
    outer loop
      vertex   -1.515000e+002 2.635000e+002 0.000000e+000
      vertex   -1.515000e+002 2.265000e+002 0.000000e+000
      vertex   -1.515000e+002 2.635000e+002 2.000000e+000
    endloop
  endfacet
  facet normal -5.397526e-002 -0.000000e+000 0.000000e+000
    outer loop
      vertex   -1.515000e+002 2.635000e+002 2.000000e+000
      vertex   -1.515000e+002 2.265000e+002 0.000000e+000
      vertex   -1.515000e+002 2.265000e+002 2.000000e+000
    endloop
  endfacet
  facet normal 1.000000e+000 0.000000e+000 0.000000e+000
    outer loop
      vertex   -1.265000e+002 2.265000e+002 0.000000e+000
      vertex   -1.265000e+002 2.635000e+002 0.000000e+000
      vertex   -1.265000e+002 2.265000e+002 2.000000e+000
    endloop
  endfacet
  facet normal 5.397526e-002 -0.000000e+000 0.000000e+000
    outer loop
      vertex   -1.265000e+002 2.265000e+002 2.000000e+000
      vertex   -1.265000e+002 2.635000e+002 0.000000e+000
      vertex   -1.265000e+002 2.635000e+002 2.000000e+000
    endloop
  endfacet
  facet normal -0.000000e+000 -1.000000e+000 -0.000000e+000
    outer loop
      vertex   -1.494545e+002 2.265000e+002 2.000000e+000
      vertex   -1.515000e+002 2.265000e+002 2.000000e+000
      vertex   -1.494545e+002 2.265000e+002 1.500000e+000
    endloop
  endfacet
  facet normal -0.000000e+000 -7.659331e-001 0.000000e+000
    outer loop
      vertex   -1.494545e+002 2.265000e+002 1.500000e+000
      vertex   -1.515000e+002 2.265000e+002 2.000000e+000
      vertex   -1.515000e+002 2.265000e+002 0.000000e+000
    endloop
  endfacet
  facet normal 0.000000e+000 -5.913634e-001 -0.000000e+000
    outer loop
      vertex   -1.494545e+002 2.265000e+002 1.500000e+000
      vertex   -1.515000e+002 2.265000e+002 0.000000e+000
      vertex   -1.484091e+002 2.265000e+002 1.500000e+000
    endloop
  endfacet
  facet normal 0.000000e+000 -4.365978e-001 -0.000000e+000
    outer loop
      vertex   -1.484091e+002 2.265000e+002 1.500000e+000
      vertex   -1.515000e+002 2.265000e+002 0.000000e+000
      vertex   -1.463182e+002 2.265000e+002 1.500000e+000
    endloop
  endfacet
  facet normal 0.000000e+000 -1.000000e+000 0.000000e+000
    outer loop
      vertex   -1.484091e+002 2.265000e+002 1.500000e+000
      vertex   -1.463182e+002 2.265000e+002 1.500000e+000
      vertex   -1.484091e+002 2.265000e+002 2.000000e+000
    endloop
  endfacet
  facet normal 0.000000e+000 -2.325729e-001 0.000000e+000
    outer loop
      vertex   -1.484091e+002 2.265000e+002 2.000000e+000
      vertex   -1.463182e+002 2.265000e+002 1.500000e+000
      vertex   -1.463182e+002 2.265000e+002 2.000000e+000
    endloop
  endfacet
  facet normal 0.000000e+000 -1.100654e-001 0.000000e+000
    outer loop
      vertex   -1.265000e+002 2.265000e+002 0.000000e+000
      vertex   -1.400455e+002 2.265000e+002 1.500000e+000
      vertex   -1.515000e+002 2.265000e+002 0.000000e+000
    endloop
  endfacet
  facet normal 0.000000e+000 -2.862928e-002 0.000000e+000
    outer loop
      vertex   -1.515000e+002 2.265000e+002 0.000000e+000
      vertex   -1.400455e+002 2.265000e+002 1.500000e+000
      vertex   -1.421364e+002 2.265000e+002 1.500000e+000
    endloop
  endfacet
  facet normal 0.000000e+000 -1.956471e-002 0.000000e+000
    outer loop
      vertex   -1.515000e+002 2.265000e+002 0.000000e+000
      vertex   -1.421364e+002 2.265000e+002 1.500000e+000
      vertex   -1.431818e+002 2.265000e+002 1.500000e+000
    endloop
  endfacet
  facet normal 0.000000e+000 -9.713991e-001 -0.000000e+000
    outer loop
      vertex   -1.265000e+002 2.265000e+002 2.000000e+000
      vertex   -1.285455e+002 2.265000e+002 1.500000e+000
      vertex   -1.265000e+002 2.265000e+002 0.000000e+000
    endloop
  endfacet
  facet normal 0.000000e+000 -1.799494e-001 0.000000e+000
    outer loop
      vertex   -1.265000e+002 2.265000e+002 0.000000e+000
      vertex   -1.285455e+002 2.265000e+002 1.500000e+000
      vertex   -1.295909e+002 2.265000e+002 1.500000e+000
    endloop
  endfacet
  facet normal 0.000000e+000 -1.692237e-001 0.000000e+000
    outer loop
      vertex   -1.265000e+002 2.265000e+002 0.000000e+000
      vertex   -1.295909e+002 2.265000e+002 1.500000e+000
      vertex   -1.316818e+002 2.265000e+002 1.500000e+000
    endloop
  endfacet
  facet normal 0.000000e+000 -1.000000e+000 0.000000e+000
    outer loop
      vertex   -1.316818e+002 2.265000e+002 1.500000e+000
      vertex   -1.295909e+002 2.265000e+002 1.500000e+000
      vertex   -1.316818e+002 2.265000e+002 2.000000e+000
    endloop
  endfacet
  facet normal 0.000000e+000 -2.325729e-001 0.000000e+000
    outer loop
      vertex   -1.316818e+002 2.265000e+002 2.000000e+000
      vertex   -1.295909e+002 2.265000e+002 1.500000e+000
      vertex   -1.295909e+002 2.265000e+002 2.000000e+000
    endloop
  endfacet
  facet normal -0.000000e+000 -2.374529e-001 0.000000e+000
    outer loop
      vertex   -1.265000e+002 2.265000e+002 2.000000e+000
      vertex   -1.285455e+002 2.265000e+002 2.000000e+000
      vertex   -1.285455e+002 2.265000e+002 1.500000e+000
    endloop
  endfacet
  facet normal -0.000000e+000 -2.780578e-001 -0.000000e+000
    outer loop
      vertex   -1.316818e+002 2.265000e+002 1.500000e+000
      vertex   -1.327273e+002 2.265000e+002 1.500000e+000
      vertex   -1.265000e+002 2.265000e+002 0.000000e+000
    endloop
  endfacet
  facet normal 0.000000e+000 -5.792971e-002 0.000000e+000
    outer loop
      vertex   -1.265000e+002 2.265000e+002 0.000000e+000
      vertex   -1.327273e+002 2.265000e+002 1.500000e+000
      vertex   -1.348182e+002 2.265000e+002 1.500000e+000
    endloop
  endfacet
  facet normal 0.000000e+000 -1.956471e-002 0.000000e+000
    outer loop
      vertex   -1.265000e+002 2.265000e+002 0.000000e+000
      vertex   -1.348182e+002 2.265000e+002 1.500000e+000
      vertex   -1.358636e+002 2.265000e+002 1.500000e+000
    endloop
  endfacet
  facet normal -0.000000e+000 -1.000000e+000 -0.000000e+000
    outer loop
      vertex   -1.327273e+002 2.265000e+002 2.000000e+000
      vertex   -1.348182e+002 2.265000e+002 2.000000e+000
      vertex   -1.327273e+002 2.265000e+002 1.500000e+000
    endloop
  endfacet
  facet normal 0.000000e+000 -2.325745e-001 0.000000e+000
    outer loop
      vertex   -1.327273e+002 2.265000e+002 1.500000e+000
      vertex   -1.348182e+002 2.265000e+002 2.000000e+000
      vertex   -1.348182e+002 2.265000e+002 1.500000e+000
    endloop
  endfacet
  facet normal -0.000000e+000 -1.000000e+000 -0.000000e+000
    outer loop
      vertex   -1.358636e+002 2.265000e+002 2.000000e+000
      vertex   -1.379545e+002 2.265000e+002 2.000000e+000
      vertex   -1.358636e+002 2.265000e+002 1.500000e+000
    endloop
  endfacet
  facet normal 0.000000e+000 -2.325729e-001 0.000000e+000
    outer loop
      vertex   -1.358636e+002 2.265000e+002 1.500000e+000
      vertex   -1.379545e+002 2.265000e+002 2.000000e+000
      vertex   -1.379545e+002 2.265000e+002 1.500000e+000
    endloop
  endfacet
  facet normal -0.000000e+000 -1.581775e-001 -0.000000e+000
    outer loop
      vertex   -1.358636e+002 2.265000e+002 1.500000e+000
      vertex   -1.379545e+002 2.265000e+002 1.500000e+000
      vertex   -1.265000e+002 2.265000e+002 0.000000e+000
    endloop
  endfacet
  facet normal 0.000000e+000 -1.992125e-002 0.000000e+000
    outer loop
      vertex   -1.265000e+002 2.265000e+002 0.000000e+000
      vertex   -1.379545e+002 2.265000e+002 1.500000e+000
      vertex   -1.400455e+002 2.265000e+002 1.500000e+000
    endloop
  endfacet
  facet normal -0.000000e+000 -1.000000e+000 -0.000000e+000
    outer loop
      vertex   -1.400455e+002 2.265000e+002 2.000000e+000
      vertex   -1.421364e+002 2.265000e+002 2.000000e+000
      vertex   -1.400455e+002 2.265000e+002 1.500000e+000
    endloop
  endfacet
  facet normal 0.000000e+000 -2.325729e-001 0.000000e+000
    outer loop
      vertex   -1.400455e+002 2.265000e+002 1.500000e+000
      vertex   -1.421364e+002 2.265000e+002 2.000000e+000
      vertex   -1.421364e+002 2.265000e+002 1.500000e+000
    endloop
  endfacet
  facet normal -0.000000e+000 -1.000000e+000 -0.000000e+000
    outer loop
      vertex   -1.431818e+002 2.265000e+002 2.000000e+000
      vertex   -1.452727e+002 2.265000e+002 2.000000e+000
      vertex   -1.431818e+002 2.265000e+002 1.500000e+000
    endloop
  endfacet
  facet normal 0.000000e+000 -2.325745e-001 0.000000e+000
    outer loop
      vertex   -1.431818e+002 2.265000e+002 1.500000e+000
      vertex   -1.452727e+002 2.265000e+002 2.000000e+000
      vertex   -1.452727e+002 2.265000e+002 1.500000e+000
    endloop
  endfacet
  facet normal -0.000000e+000 -1.774656e-001 0.000000e+000
    outer loop
      vertex   -1.431818e+002 2.265000e+002 1.500000e+000
      vertex   -1.452727e+002 2.265000e+002 1.500000e+000
      vertex   -1.515000e+002 2.265000e+002 0.000000e+000
    endloop
  endfacet
  facet normal 0.000000e+000 -4.538322e-002 0.000000e+000
    outer loop
      vertex   -1.515000e+002 2.265000e+002 0.000000e+000
      vertex   -1.452727e+002 2.265000e+002 1.500000e+000
      vertex   -1.463182e+002 2.265000e+002 1.500000e+000
    endloop
  endfacet
  facet normal 0.000000e+000 0.000000e+000 -1.000000e+000
    outer loop
      vertex   -1.265000e+002 2.265000e+002 0.000000e+000
      vertex   -1.515000e+002 2.265000e+002 0.000000e+000
      vertex   -1.265000e+002 2.635000e+002 0.000000e+000
    endloop
  endfacet
  facet normal -0.000000e+000 0.000000e+000 -8.285890e-001
    outer loop
      vertex   -1.265000e+002 2.635000e+002 0.000000e+000
      vertex   -1.515000e+002 2.265000e+002 0.000000e+000
      vertex   -1.515000e+002 2.635000e+002 0.000000e+000
    endloop
  endfacet
endsolid
