solid ascii
  facet normal -9.989931e-001 4.486348e-002 0.000000e+000
    outer loop
      vertex   -5.273893e+001 1.752465e+002 5.000000e+000
      vertex   -5.273893e+001 1.752465e+002 0.000000e+000
      vertex   -5.275000e+001 1.750000e+002 5.000000e+000
    endloop
  endfacet
  facet normal -4.924122e-002 2.211359e-003 0.000000e+000
    outer loop
      vertex   -5.275000e+001 1.750000e+002 5.000000e+000
      vertex   -5.273893e+001 1.752465e+002 0.000000e+000
      vertex   -5.275000e+001 1.750000e+002 0.000000e+000
    endloop
  endfacet
  facet normal -9.989931e-001 -4.486348e-002 -0.000000e+000
    outer loop
      vertex   -5.275000e+001 1.750000e+002 5.000000e+000
      vertex   -5.275000e+001 1.750000e+002 0.000000e+000
      vertex   -5.273893e+001 1.747535e+002 5.000000e+000
    endloop
  endfacet
  facet normal -4.924122e-002 -2.211359e-003 -0.000000e+000
    outer loop
      vertex   -5.273893e+001 1.747535e+002 5.000000e+000
      vertex   -5.275000e+001 1.750000e+002 0.000000e+000
      vertex   -5.273893e+001 1.747535e+002 0.000000e+000
    endloop
  endfacet
  facet normal -9.909496e-001 -1.342342e-001 -0.000000e+000
    outer loop
      vertex   -5.273893e+001 1.747535e+002 5.000000e+000
      vertex   -5.273893e+001 1.747535e+002 0.000000e+000
      vertex   -5.270581e+001 1.745090e+002 5.000000e+000
    endloop
  endfacet
  facet normal -4.884497e-002 -6.616551e-003 -0.000000e+000
    outer loop
      vertex   -5.270581e+001 1.745090e+002 5.000000e+000
      vertex   -5.273893e+001 1.747535e+002 0.000000e+000
      vertex   -5.270581e+001 1.745090e+002 0.000000e+000
    endloop
  endfacet
  facet normal -9.749277e-001 -2.225217e-001 -0.000000e+000
    outer loop
      vertex   -5.270581e+001 1.745090e+002 5.000000e+000
      vertex   -5.270581e+001 1.745090e+002 0.000000e+000
      vertex   -5.265090e+001 1.742684e+002 5.000000e+000
    endloop
  endfacet
  facet normal -4.805553e-002 -1.096840e-002 -0.000000e+000
    outer loop
      vertex   -5.265090e+001 1.742684e+002 5.000000e+000
      vertex   -5.270581e+001 1.745090e+002 0.000000e+000
      vertex   -5.265090e+001 1.742684e+002 0.000000e+000
    endloop
  endfacet
  facet normal -9.510568e-001 -3.090162e-001 -0.000000e+000
    outer loop
      vertex   -5.265090e+001 1.742684e+002 5.000000e+000
      vertex   -5.265090e+001 1.742684e+002 0.000000e+000
      vertex   -5.257465e+001 1.740337e+002 5.000000e+000
    endloop
  endfacet
  facet normal -4.687898e-002 -1.523186e-002 -0.000000e+000
    outer loop
      vertex   -5.257465e+001 1.740337e+002 5.000000e+000
      vertex   -5.265090e+001 1.742684e+002 0.000000e+000
      vertex   -5.257465e+001 1.740337e+002 0.000000e+000
    endloop
  endfacet
  facet normal -9.195276e-001 -3.930254e-001 -0.000000e+000
    outer loop
      vertex   -5.257465e+001 1.740337e+002 5.000000e+000
      vertex   -5.257465e+001 1.740337e+002 0.000000e+000
      vertex   -5.247766e+001 1.738068e+002 5.000000e+000
    endloop
  endfacet
  facet normal -4.532448e-002 -1.937263e-002 -0.000000e+000
    outer loop
      vertex   -5.247766e+001 1.738068e+002 5.000000e+000
      vertex   -5.257465e+001 1.740337e+002 0.000000e+000
      vertex   -5.247766e+001 1.738068e+002 0.000000e+000
    endloop
  endfacet
  facet normal -8.805996e-001 -4.738610e-001 -0.000000e+000
    outer loop
      vertex   -5.247766e+001 1.738068e+002 5.000000e+000
      vertex   -5.247766e+001 1.738068e+002 0.000000e+000
      vertex   -5.236073e+001 1.735895e+002 5.000000e+000
    endloop
  endfacet
  facet normal -4.340725e-002 -2.335795e-002 -0.000000e+000
    outer loop
      vertex   -5.236073e+001 1.735895e+002 5.000000e+000
      vertex   -5.247766e+001 1.738068e+002 0.000000e+000
      vertex   -5.236073e+001 1.735895e+002 0.000000e+000
    endloop
  endfacet
  facet normal -8.345699e-001 -5.509021e-001 -0.000000e+000
    outer loop
      vertex   -5.236073e+001 1.735895e+002 5.000000e+000
      vertex   -5.236073e+001 1.735895e+002 0.000000e+000
      vertex   -5.222480e+001 1.733836e+002 5.000000e+000
    endloop
  endfacet
  facet normal -4.113646e-002 -2.715430e-002 -0.000000e+000
    outer loop
      vertex   -5.222480e+001 1.733836e+002 5.000000e+000
      vertex   -5.236073e+001 1.735895e+002 0.000000e+000
      vertex   -5.222480e+001 1.733836e+002 0.000000e+000
    endloop
  endfacet
  facet normal -7.818226e-001 -6.235009e-001 -0.000000e+000
    outer loop
      vertex   -5.222480e+001 1.733836e+002 5.000000e+000
      vertex   -5.222480e+001 1.733836e+002 0.000000e+000
      vertex   -5.207095e+001 1.731907e+002 5.000000e+000
    endloop
  endfacet
  facet normal -3.853647e-002 -3.073271e-002 -0.000000e+000
    outer loop
      vertex   -5.207095e+001 1.731907e+002 5.000000e+000
      vertex   -5.222480e+001 1.733836e+002 0.000000e+000
      vertex   -5.207095e+001 1.731907e+002 0.000000e+000
    endloop
  endfacet
  facet normal -7.228050e-001 -6.910520e-001 -0.000000e+000
    outer loop
      vertex   -5.207095e+001 1.731907e+002 5.000000e+000
      vertex   -5.207095e+001 1.731907e+002 0.000000e+000
      vertex   -5.190042e+001 1.730123e+002 5.000000e+000
    endloop
  endfacet
  facet normal -3.562864e-002 -3.406346e-002 -0.000000e+000
    outer loop
      vertex   -5.190042e+001 1.730123e+002 5.000000e+000
      vertex   -5.207095e+001 1.731907e+002 0.000000e+000
      vertex   -5.190042e+001 1.730123e+002 0.000000e+000
    endloop
  endfacet
  facet normal -6.579452e-001 -7.530658e-001 -0.000000e+000
    outer loop
      vertex   -5.190042e+001 1.730123e+002 5.000000e+000
      vertex   -5.190042e+001 1.730123e+002 0.000000e+000
      vertex   -5.171460e+001 1.728500e+002 5.000000e+000
    endloop
  endfacet
  facet normal -3.243123e-002 -3.711989e-002 -0.000000e+000
    outer loop
      vertex   -5.171460e+001 1.728500e+002 5.000000e+000
      vertex   -5.190042e+001 1.730123e+002 0.000000e+000
      vertex   -5.171460e+001 1.728500e+002 0.000000e+000
    endloop
  endfacet
  facet normal -5.877708e-001 -8.090274e-001 -0.000000e+000
    outer loop
      vertex   -5.171460e+001 1.728500e+002 5.000000e+000
      vertex   -5.171460e+001 1.728500e+002 0.000000e+000
      vertex   -5.151497e+001 1.727049e+002 5.000000e+000
    endloop
  endfacet
  facet normal -2.897170e-002 -3.987762e-002 -0.000000e+000
    outer loop
      vertex   -5.151497e+001 1.727049e+002 5.000000e+000
      vertex   -5.171460e+001 1.728500e+002 0.000000e+000
      vertex   -5.151497e+001 1.727049e+002 0.000000e+000
    endloop
  endfacet
  facet normal -5.128875e-001 -8.584558e-001 -0.000000e+000
    outer loop
      vertex   -5.151497e+001 1.727049e+002 5.000000e+000
      vertex   -5.151497e+001 1.727049e+002 0.000000e+000
      vertex   -5.130314e+001 1.725784e+002 5.000000e+000
    endloop
  endfacet
  facet normal -2.528051e-002 -4.231377e-002 -0.000000e+000
    outer loop
      vertex   -5.130314e+001 1.725784e+002 5.000000e+000
      vertex   -5.151497e+001 1.727049e+002 0.000000e+000
      vertex   -5.130314e+001 1.725784e+002 0.000000e+000
    endloop
  endfacet
  facet normal -4.339067e-001 -9.009578e-001 -0.000000e+000
    outer loop
      vertex   -5.130314e+001 1.725784e+002 5.000000e+000
      vertex   -5.130314e+001 1.725784e+002 0.000000e+000
      vertex   -5.108082e+001 1.724713e+002 5.000000e+000
    endloop
  endfacet
  facet normal -2.138815e-002 -4.441006e-002 -0.000000e+000
    outer loop
      vertex   -5.108082e+001 1.724713e+002 5.000000e+000
      vertex   -5.130314e+001 1.725784e+002 0.000000e+000
      vertex   -5.108082e+001 1.724713e+002 0.000000e+000
    endloop
  endfacet
  facet normal -3.513623e-001 -9.362395e-001 -0.000000e+000
    outer loop
      vertex   -5.108082e+001 1.724713e+002 5.000000e+000
      vertex   -5.108082e+001 1.724713e+002 0.000000e+000
      vertex   -5.084980e+001 1.723846e+002 5.000000e+000
    endloop
  endfacet
  facet normal -1.731901e-002 -4.614821e-002 -0.000000e+000
    outer loop
      vertex   -5.084980e+001 1.723846e+002 5.000000e+000
      vertex   -5.108082e+001 1.724713e+002 0.000000e+000
      vertex   -5.084980e+001 1.723846e+002 0.000000e+000
    endloop
  endfacet
  facet normal -2.660241e-001 -9.639664e-001 -0.000000e+000
    outer loop
      vertex   -5.084980e+001 1.723846e+002 5.000000e+000
      vertex   -5.084980e+001 1.723846e+002 0.000000e+000
      vertex   -5.061193e+001 1.723190e+002 5.000000e+000
    endloop
  endfacet
  facet normal -1.311270e-002 -4.751526e-002 -0.000000e+000
    outer loop
      vertex   -5.061193e+001 1.723190e+002 5.000000e+000
      vertex   -5.084980e+001 1.723846e+002 0.000000e+000
      vertex   -5.061193e+001 1.723190e+002 0.000000e+000
    endloop
  endfacet
  facet normal -1.785861e-001 -9.839243e-001 -0.000000e+000
    outer loop
      vertex   -5.061193e+001 1.723190e+002 5.000000e+000
      vertex   -5.061193e+001 1.723190e+002 0.000000e+000
      vertex   -5.036914e+001 1.722749e+002 5.000000e+000
    endloop
  endfacet
  facet normal -8.802763e-003 -4.849902e-002 -0.000000e+000
    outer loop
      vertex   -5.036914e+001 1.722749e+002 5.000000e+000
      vertex   -5.061193e+001 1.723190e+002 0.000000e+000
      vertex   -5.036914e+001 1.722749e+002 0.000000e+000
    endloop
  endfacet
  facet normal -8.966453e-002 -9.959720e-001 -0.000000e+000
    outer loop
      vertex   -5.036914e+001 1.722749e+002 5.000000e+000
      vertex   -5.036914e+001 1.722749e+002 0.000000e+000
      vertex   -5.012338e+001 1.722528e+002 5.000000e+000
    endloop
  endfacet
  facet normal -4.419670e-003 -4.909263e-002 -0.000000e+000
    outer loop
      vertex   -5.012338e+001 1.722528e+002 5.000000e+000
      vertex   -5.036914e+001 1.722749e+002 0.000000e+000
      vertex   -5.012338e+001 1.722528e+002 0.000000e+000
    endloop
  endfacet
  facet normal 0.000000e+000 -1.000000e+000 0.000000e+000
    outer loop
      vertex   -5.012338e+001 1.722528e+002 5.000000e+000
      vertex   -5.012338e+001 1.722528e+002 0.000000e+000
      vertex   -4.987662e+001 1.722528e+002 5.000000e+000
    endloop
  endfacet
  facet normal 0.000000e+000 -4.929151e-002 -0.000000e+000
    outer loop
      vertex   -4.987662e+001 1.722528e+002 5.000000e+000
      vertex   -5.012338e+001 1.722528e+002 0.000000e+000
      vertex   -4.987662e+001 1.722528e+002 0.000000e+000
    endloop
  endfacet
  facet normal 8.966453e-002 -9.959720e-001 0.000000e+000
    outer loop
      vertex   -4.987662e+001 1.722528e+002 5.000000e+000
      vertex   -4.987662e+001 1.722528e+002 0.000000e+000
      vertex   -4.963086e+001 1.722749e+002 5.000000e+000
    endloop
  endfacet
  facet normal 4.419670e-003 -4.909263e-002 0.000000e+000
    outer loop
      vertex   -4.963086e+001 1.722749e+002 5.000000e+000
      vertex   -4.987662e+001 1.722528e+002 0.000000e+000
      vertex   -4.963086e+001 1.722749e+002 0.000000e+000
    endloop
  endfacet
  facet normal 1.785861e-001 -9.839243e-001 0.000000e+000
    outer loop
      vertex   -4.963086e+001 1.722749e+002 5.000000e+000
      vertex   -4.963086e+001 1.722749e+002 0.000000e+000
      vertex   -4.938807e+001 1.723190e+002 5.000000e+000
    endloop
  endfacet
  facet normal 8.802763e-003 -4.849902e-002 0.000000e+000
    outer loop
      vertex   -4.938807e+001 1.723190e+002 5.000000e+000
      vertex   -4.963086e+001 1.722749e+002 0.000000e+000
      vertex   -4.938807e+001 1.723190e+002 0.000000e+000
    endloop
  endfacet
  facet normal 2.660241e-001 -9.639664e-001 0.000000e+000
    outer loop
      vertex   -4.938807e+001 1.723190e+002 5.000000e+000
      vertex   -4.938807e+001 1.723190e+002 0.000000e+000
      vertex   -4.915020e+001 1.723846e+002 5.000000e+000
    endloop
  endfacet
  facet normal 1.311270e-002 -4.751526e-002 0.000000e+000
    outer loop
      vertex   -4.915020e+001 1.723846e+002 5.000000e+000
      vertex   -4.938807e+001 1.723190e+002 0.000000e+000
      vertex   -4.915020e+001 1.723846e+002 0.000000e+000
    endloop
  endfacet
  facet normal 3.513623e-001 -9.362395e-001 0.000000e+000
    outer loop
      vertex   -4.915020e+001 1.723846e+002 5.000000e+000
      vertex   -4.915020e+001 1.723846e+002 0.000000e+000
      vertex   -4.891918e+001 1.724713e+002 5.000000e+000
    endloop
  endfacet
  facet normal 1.731901e-002 -4.614821e-002 0.000000e+000
    outer loop
      vertex   -4.891918e+001 1.724713e+002 5.000000e+000
      vertex   -4.915020e+001 1.723846e+002 0.000000e+000
      vertex   -4.891918e+001 1.724713e+002 0.000000e+000
    endloop
  endfacet
  facet normal 4.339067e-001 -9.009578e-001 0.000000e+000
    outer loop
      vertex   -4.891918e+001 1.724713e+002 5.000000e+000
      vertex   -4.891918e+001 1.724713e+002 0.000000e+000
      vertex   -4.869686e+001 1.725784e+002 5.000000e+000
    endloop
  endfacet
  facet normal 2.138815e-002 -4.441006e-002 0.000000e+000
    outer loop
      vertex   -4.869686e+001 1.725784e+002 5.000000e+000
      vertex   -4.891918e+001 1.724713e+002 0.000000e+000
      vertex   -4.869686e+001 1.725784e+002 0.000000e+000
    endloop
  endfacet
  facet normal 5.128875e-001 -8.584558e-001 0.000000e+000
    outer loop
      vertex   -4.869686e+001 1.725784e+002 5.000000e+000
      vertex   -4.869686e+001 1.725784e+002 0.000000e+000
      vertex   -4.848503e+001 1.727049e+002 5.000000e+000
    endloop
  endfacet
  facet normal 2.528051e-002 -4.231377e-002 0.000000e+000
    outer loop
      vertex   -4.848503e+001 1.727049e+002 5.000000e+000
      vertex   -4.869686e+001 1.725784e+002 0.000000e+000
      vertex   -4.848503e+001 1.727049e+002 0.000000e+000
    endloop
  endfacet
  facet normal 5.877708e-001 -8.090274e-001 0.000000e+000
    outer loop
      vertex   -4.848503e+001 1.727049e+002 5.000000e+000
      vertex   -4.848503e+001 1.727049e+002 0.000000e+000
      vertex   -4.828540e+001 1.728500e+002 5.000000e+000
    endloop
  endfacet
  facet normal 2.897170e-002 -3.987762e-002 0.000000e+000
    outer loop
      vertex   -4.828540e+001 1.728500e+002 5.000000e+000
      vertex   -4.848503e+001 1.727049e+002 0.000000e+000
      vertex   -4.828540e+001 1.728500e+002 0.000000e+000
    endloop
  endfacet
  facet normal 6.579452e-001 -7.530658e-001 0.000000e+000
    outer loop
      vertex   -4.828540e+001 1.728500e+002 5.000000e+000
      vertex   -4.828540e+001 1.728500e+002 0.000000e+000
      vertex   -4.809958e+001 1.730123e+002 5.000000e+000
    endloop
  endfacet
  facet normal 3.243123e-002 -3.711989e-002 0.000000e+000
    outer loop
      vertex   -4.809958e+001 1.730123e+002 5.000000e+000
      vertex   -4.828540e+001 1.728500e+002 0.000000e+000
      vertex   -4.809958e+001 1.730123e+002 0.000000e+000
    endloop
  endfacet
  facet normal 7.228050e-001 -6.910520e-001 0.000000e+000
    outer loop
      vertex   -4.809958e+001 1.730123e+002 5.000000e+000
      vertex   -4.809958e+001 1.730123e+002 0.000000e+000
      vertex   -4.792905e+001 1.731907e+002 5.000000e+000
    endloop
  endfacet
  facet normal 3.562864e-002 -3.406346e-002 0.000000e+000
    outer loop
      vertex   -4.792905e+001 1.731907e+002 5.000000e+000
      vertex   -4.809958e+001 1.730123e+002 0.000000e+000
      vertex   -4.792905e+001 1.731907e+002 0.000000e+000
    endloop
  endfacet
  facet normal 7.818226e-001 -6.235009e-001 0.000000e+000
    outer loop
      vertex   -4.792905e+001 1.731907e+002 5.000000e+000
      vertex   -4.792905e+001 1.731907e+002 0.000000e+000
      vertex   -4.777520e+001 1.733836e+002 5.000000e+000
    endloop
  endfacet
  facet normal 3.853647e-002 -3.073271e-002 0.000000e+000
    outer loop
      vertex   -4.777520e+001 1.733836e+002 5.000000e+000
      vertex   -4.792905e+001 1.731907e+002 0.000000e+000
      vertex   -4.777520e+001 1.733836e+002 0.000000e+000
    endloop
  endfacet
  facet normal 8.345699e-001 -5.509021e-001 0.000000e+000
    outer loop
      vertex   -4.777520e+001 1.733836e+002 5.000000e+000
      vertex   -4.777520e+001 1.733836e+002 0.000000e+000
      vertex   -4.763927e+001 1.735895e+002 5.000000e+000
    endloop
  endfacet
  facet normal 4.113646e-002 -2.715430e-002 0.000000e+000
    outer loop
      vertex   -4.763927e+001 1.735895e+002 5.000000e+000
      vertex   -4.777520e+001 1.733836e+002 0.000000e+000
      vertex   -4.763927e+001 1.735895e+002 0.000000e+000
    endloop
  endfacet
  facet normal 8.805996e-001 -4.738610e-001 0.000000e+000
    outer loop
      vertex   -4.763927e+001 1.735895e+002 5.000000e+000
      vertex   -4.763927e+001 1.735895e+002 0.000000e+000
      vertex   -4.752234e+001 1.738068e+002 5.000000e+000
    endloop
  endfacet
  facet normal 4.340725e-002 -2.335795e-002 0.000000e+000
    outer loop
      vertex   -4.752234e+001 1.738068e+002 5.000000e+000
      vertex   -4.763927e+001 1.735895e+002 0.000000e+000
      vertex   -4.752234e+001 1.738068e+002 0.000000e+000
    endloop
  endfacet
  facet normal 9.195276e-001 -3.930254e-001 0.000000e+000
    outer loop
      vertex   -4.752234e+001 1.738068e+002 5.000000e+000
      vertex   -4.752234e+001 1.738068e+002 0.000000e+000
      vertex   -4.742535e+001 1.740337e+002 5.000000e+000
    endloop
  endfacet
  facet normal 4.532448e-002 -1.937263e-002 0.000000e+000
    outer loop
      vertex   -4.742535e+001 1.740337e+002 5.000000e+000
      vertex   -4.752234e+001 1.738068e+002 0.000000e+000
      vertex   -4.742535e+001 1.740337e+002 0.000000e+000
    endloop
  endfacet
  facet normal 9.510568e-001 -3.090162e-001 0.000000e+000
    outer loop
      vertex   -4.742535e+001 1.740337e+002 5.000000e+000
      vertex   -4.742535e+001 1.740337e+002 0.000000e+000
      vertex   -4.734910e+001 1.742684e+002 5.000000e+000
    endloop
  endfacet
  facet normal 4.687898e-002 -1.523186e-002 0.000000e+000
    outer loop
      vertex   -4.734910e+001 1.742684e+002 5.000000e+000
      vertex   -4.742535e+001 1.740337e+002 0.000000e+000
      vertex   -4.734910e+001 1.742684e+002 0.000000e+000
    endloop
  endfacet
  facet normal 9.749277e-001 -2.225217e-001 0.000000e+000
    outer loop
      vertex   -4.734910e+001 1.742684e+002 5.000000e+000
      vertex   -4.734910e+001 1.742684e+002 0.000000e+000
      vertex   -4.729419e+001 1.745090e+002 5.000000e+000
    endloop
  endfacet
  facet normal 4.805553e-002 -1.096840e-002 0.000000e+000
    outer loop
      vertex   -4.729419e+001 1.745090e+002 5.000000e+000
      vertex   -4.734910e+001 1.742684e+002 0.000000e+000
      vertex   -4.729419e+001 1.745090e+002 0.000000e+000
    endloop
  endfacet
  facet normal 9.909496e-001 -1.342342e-001 0.000000e+000
    outer loop
      vertex   -4.729419e+001 1.745090e+002 5.000000e+000
      vertex   -4.729419e+001 1.745090e+002 0.000000e+000
      vertex   -4.726107e+001 1.747535e+002 5.000000e+000
    endloop
  endfacet
  facet normal 4.884497e-002 -6.616551e-003 0.000000e+000
    outer loop
      vertex   -4.726107e+001 1.747535e+002 5.000000e+000
      vertex   -4.729419e+001 1.745090e+002 0.000000e+000
      vertex   -4.726107e+001 1.747535e+002 0.000000e+000
    endloop
  endfacet
  facet normal 9.989931e-001 -4.486348e-002 0.000000e+000
    outer loop
      vertex   -4.726107e+001 1.747535e+002 5.000000e+000
      vertex   -4.726107e+001 1.747535e+002 0.000000e+000
      vertex   -4.725000e+001 1.750000e+002 5.000000e+000
    endloop
  endfacet
  facet normal 4.924122e-002 -2.211359e-003 0.000000e+000
    outer loop
      vertex   -4.725000e+001 1.750000e+002 5.000000e+000
      vertex   -4.726107e+001 1.747535e+002 0.000000e+000
      vertex   -4.725000e+001 1.750000e+002 0.000000e+000
    endloop
  endfacet
  facet normal 9.989931e-001 4.486348e-002 0.000000e+000
    outer loop
      vertex   -4.725000e+001 1.750000e+002 5.000000e+000
      vertex   -4.725000e+001 1.750000e+002 0.000000e+000
      vertex   -4.726107e+001 1.752465e+002 5.000000e+000
    endloop
  endfacet
  facet normal 4.924122e-002 2.211359e-003 0.000000e+000
    outer loop
      vertex   -4.726107e+001 1.752465e+002 5.000000e+000
      vertex   -4.725000e+001 1.750000e+002 0.000000e+000
      vertex   -4.726107e+001 1.752465e+002 0.000000e+000
    endloop
  endfacet
  facet normal 9.909496e-001 1.342342e-001 0.000000e+000
    outer loop
      vertex   -4.726107e+001 1.752465e+002 5.000000e+000
      vertex   -4.726107e+001 1.752465e+002 0.000000e+000
      vertex   -4.729419e+001 1.754910e+002 5.000000e+000
    endloop
  endfacet
  facet normal 4.884497e-002 6.616551e-003 0.000000e+000
    outer loop
      vertex   -4.729419e+001 1.754910e+002 5.000000e+000
      vertex   -4.726107e+001 1.752465e+002 0.000000e+000
      vertex   -4.729419e+001 1.754910e+002 0.000000e+000
    endloop
  endfacet
  facet normal 9.749277e-001 2.225217e-001 0.000000e+000
    outer loop
      vertex   -4.729419e+001 1.754910e+002 5.000000e+000
      vertex   -4.729419e+001 1.754910e+002 0.000000e+000
      vertex   -4.734910e+001 1.757316e+002 5.000000e+000
    endloop
  endfacet
  facet normal 4.805553e-002 1.096840e-002 0.000000e+000
    outer loop
      vertex   -4.734910e+001 1.757316e+002 5.000000e+000
      vertex   -4.729419e+001 1.754910e+002 0.000000e+000
      vertex   -4.734910e+001 1.757316e+002 0.000000e+000
    endloop
  endfacet
  facet normal 9.510568e-001 3.090162e-001 0.000000e+000
    outer loop
      vertex   -4.734910e+001 1.757316e+002 5.000000e+000
      vertex   -4.734910e+001 1.757316e+002 0.000000e+000
      vertex   -4.742535e+001 1.759663e+002 5.000000e+000
    endloop
  endfacet
  facet normal 4.687898e-002 1.523186e-002 0.000000e+000
    outer loop
      vertex   -4.742535e+001 1.759663e+002 5.000000e+000
      vertex   -4.734910e+001 1.757316e+002 0.000000e+000
      vertex   -4.742535e+001 1.759663e+002 0.000000e+000
    endloop
  endfacet
  facet normal 9.195276e-001 3.930254e-001 0.000000e+000
    outer loop
      vertex   -4.742535e+001 1.759663e+002 5.000000e+000
      vertex   -4.742535e+001 1.759663e+002 0.000000e+000
      vertex   -4.752234e+001 1.761932e+002 5.000000e+000
    endloop
  endfacet
  facet normal 4.532448e-002 1.937263e-002 0.000000e+000
    outer loop
      vertex   -4.752234e+001 1.761932e+002 5.000000e+000
      vertex   -4.742535e+001 1.759663e+002 0.000000e+000
      vertex   -4.752234e+001 1.761932e+002 0.000000e+000
    endloop
  endfacet
  facet normal 8.805996e-001 4.738610e-001 0.000000e+000
    outer loop
      vertex   -4.752234e+001 1.761932e+002 5.000000e+000
      vertex   -4.752234e+001 1.761932e+002 0.000000e+000
      vertex   -4.763927e+001 1.764105e+002 5.000000e+000
    endloop
  endfacet
  facet normal 4.340725e-002 2.335795e-002 0.000000e+000
    outer loop
      vertex   -4.763927e+001 1.764105e+002 5.000000e+000
      vertex   -4.752234e+001 1.761932e+002 0.000000e+000
      vertex   -4.763927e+001 1.764105e+002 0.000000e+000
    endloop
  endfacet
  facet normal 8.345699e-001 5.509021e-001 0.000000e+000
    outer loop
      vertex   -4.763927e+001 1.764105e+002 5.000000e+000
      vertex   -4.763927e+001 1.764105e+002 0.000000e+000
      vertex   -4.777520e+001 1.766164e+002 5.000000e+000
    endloop
  endfacet
  facet normal 4.113646e-002 2.715430e-002 0.000000e+000
    outer loop
      vertex   -4.777520e+001 1.766164e+002 5.000000e+000
      vertex   -4.763927e+001 1.764105e+002 0.000000e+000
      vertex   -4.777520e+001 1.766164e+002 0.000000e+000
    endloop
  endfacet
  facet normal 7.818226e-001 6.235009e-001 0.000000e+000
    outer loop
      vertex   -4.777520e+001 1.766164e+002 5.000000e+000
      vertex   -4.777520e+001 1.766164e+002 0.000000e+000
      vertex   -4.792905e+001 1.768093e+002 5.000000e+000
    endloop
  endfacet
  facet normal 3.853647e-002 3.073271e-002 0.000000e+000
    outer loop
      vertex   -4.792905e+001 1.768093e+002 5.000000e+000
      vertex   -4.777520e+001 1.766164e+002 0.000000e+000
      vertex   -4.792905e+001 1.768093e+002 0.000000e+000
    endloop
  endfacet
  facet normal 7.228050e-001 6.910520e-001 0.000000e+000
    outer loop
      vertex   -4.792905e+001 1.768093e+002 5.000000e+000
      vertex   -4.792905e+001 1.768093e+002 0.000000e+000
      vertex   -4.809958e+001 1.769877e+002 5.000000e+000
    endloop
  endfacet
  facet normal 3.562864e-002 3.406346e-002 0.000000e+000
    outer loop
      vertex   -4.809958e+001 1.769877e+002 5.000000e+000
      vertex   -4.792905e+001 1.768093e+002 0.000000e+000
      vertex   -4.809958e+001 1.769877e+002 0.000000e+000
    endloop
  endfacet
  facet normal 6.579452e-001 7.530658e-001 0.000000e+000
    outer loop
      vertex   -4.809958e+001 1.769877e+002 5.000000e+000
      vertex   -4.809958e+001 1.769877e+002 0.000000e+000
      vertex   -4.828540e+001 1.771500e+002 5.000000e+000
    endloop
  endfacet
  facet normal 3.243123e-002 3.711989e-002 0.000000e+000
    outer loop
      vertex   -4.828540e+001 1.771500e+002 5.000000e+000
      vertex   -4.809958e+001 1.769877e+002 0.000000e+000
      vertex   -4.828540e+001 1.771500e+002 0.000000e+000
    endloop
  endfacet
  facet normal 5.877708e-001 8.090274e-001 0.000000e+000
    outer loop
      vertex   -4.828540e+001 1.771500e+002 5.000000e+000
      vertex   -4.828540e+001 1.771500e+002 0.000000e+000
      vertex   -4.848503e+001 1.772951e+002 5.000000e+000
    endloop
  endfacet
  facet normal 2.897170e-002 3.987762e-002 0.000000e+000
    outer loop
      vertex   -4.848503e+001 1.772951e+002 5.000000e+000
      vertex   -4.828540e+001 1.771500e+002 0.000000e+000
      vertex   -4.848503e+001 1.772951e+002 0.000000e+000
    endloop
  endfacet
  facet normal 5.128875e-001 8.584558e-001 0.000000e+000
    outer loop
      vertex   -4.848503e+001 1.772951e+002 5.000000e+000
      vertex   -4.848503e+001 1.772951e+002 0.000000e+000
      vertex   -4.869686e+001 1.774216e+002 5.000000e+000
    endloop
  endfacet
  facet normal 2.528051e-002 4.231377e-002 0.000000e+000
    outer loop
      vertex   -4.869686e+001 1.774216e+002 5.000000e+000
      vertex   -4.848503e+001 1.772951e+002 0.000000e+000
      vertex   -4.869686e+001 1.774216e+002 0.000000e+000
    endloop
  endfacet
  facet normal 4.339067e-001 9.009578e-001 0.000000e+000
    outer loop
      vertex   -4.869686e+001 1.774216e+002 5.000000e+000
      vertex   -4.869686e+001 1.774216e+002 0.000000e+000
      vertex   -4.891918e+001 1.775287e+002 5.000000e+000
    endloop
  endfacet
  facet normal 2.138815e-002 4.441006e-002 0.000000e+000
    outer loop
      vertex   -4.891918e+001 1.775287e+002 5.000000e+000
      vertex   -4.869686e+001 1.774216e+002 0.000000e+000
      vertex   -4.891918e+001 1.775287e+002 0.000000e+000
    endloop
  endfacet
  facet normal 3.513623e-001 9.362395e-001 0.000000e+000
    outer loop
      vertex   -4.891918e+001 1.775287e+002 5.000000e+000
      vertex   -4.891918e+001 1.775287e+002 0.000000e+000
      vertex   -4.915020e+001 1.776154e+002 5.000000e+000
    endloop
  endfacet
  facet normal 1.731901e-002 4.614821e-002 0.000000e+000
    outer loop
      vertex   -4.915020e+001 1.776154e+002 5.000000e+000
      vertex   -4.891918e+001 1.775287e+002 0.000000e+000
      vertex   -4.915020e+001 1.776154e+002 0.000000e+000
    endloop
  endfacet
  facet normal 2.660241e-001 9.639664e-001 0.000000e+000
    outer loop
      vertex   -4.915020e+001 1.776154e+002 5.000000e+000
      vertex   -4.915020e+001 1.776154e+002 0.000000e+000
      vertex   -4.938807e+001 1.776810e+002 5.000000e+000
    endloop
  endfacet
  facet normal 1.311270e-002 4.751526e-002 0.000000e+000
    outer loop
      vertex   -4.938807e+001 1.776810e+002 5.000000e+000
      vertex   -4.915020e+001 1.776154e+002 0.000000e+000
      vertex   -4.938807e+001 1.776810e+002 0.000000e+000
    endloop
  endfacet
  facet normal 1.785861e-001 9.839243e-001 0.000000e+000
    outer loop
      vertex   -4.938807e+001 1.776810e+002 5.000000e+000
      vertex   -4.938807e+001 1.776810e+002 0.000000e+000
      vertex   -4.963086e+001 1.777251e+002 5.000000e+000
    endloop
  endfacet
  facet normal 8.802763e-003 4.849902e-002 0.000000e+000
    outer loop
      vertex   -4.963086e+001 1.777251e+002 5.000000e+000
      vertex   -4.938807e+001 1.776810e+002 0.000000e+000
      vertex   -4.963086e+001 1.777251e+002 0.000000e+000
    endloop
  endfacet
  facet normal 8.966453e-002 9.959720e-001 0.000000e+000
    outer loop
      vertex   -4.963086e+001 1.777251e+002 5.000000e+000
      vertex   -4.963086e+001 1.777251e+002 0.000000e+000
      vertex   -4.987662e+001 1.777472e+002 5.000000e+000
    endloop
  endfacet
  facet normal 4.419670e-003 4.909263e-002 0.000000e+000
    outer loop
      vertex   -4.987662e+001 1.777472e+002 5.000000e+000
      vertex   -4.963086e+001 1.777251e+002 0.000000e+000
      vertex   -4.987662e+001 1.777472e+002 0.000000e+000
    endloop
  endfacet
  facet normal 0.000000e+000 1.000000e+000 0.000000e+000
    outer loop
      vertex   -4.987662e+001 1.777472e+002 5.000000e+000
      vertex   -4.987662e+001 1.777472e+002 0.000000e+000
      vertex   -5.012338e+001 1.777472e+002 5.000000e+000
    endloop
  endfacet
  facet normal 0.000000e+000 4.929151e-002 0.000000e+000
    outer loop
      vertex   -5.012338e+001 1.777472e+002 5.000000e+000
      vertex   -4.987662e+001 1.777472e+002 0.000000e+000
      vertex   -5.012338e+001 1.777472e+002 0.000000e+000
    endloop
  endfacet
  facet normal -8.966453e-002 9.959720e-001 0.000000e+000
    outer loop
      vertex   -5.012338e+001 1.777472e+002 5.000000e+000
      vertex   -5.012338e+001 1.777472e+002 0.000000e+000
      vertex   -5.036914e+001 1.777251e+002 5.000000e+000
    endloop
  endfacet
  facet normal -4.419670e-003 4.909263e-002 0.000000e+000
    outer loop
      vertex   -5.036914e+001 1.777251e+002 5.000000e+000
      vertex   -5.012338e+001 1.777472e+002 0.000000e+000
      vertex   -5.036914e+001 1.777251e+002 0.000000e+000
    endloop
  endfacet
  facet normal -1.785861e-001 9.839243e-001 0.000000e+000
    outer loop
      vertex   -5.036914e+001 1.777251e+002 5.000000e+000
      vertex   -5.036914e+001 1.777251e+002 0.000000e+000
      vertex   -5.061193e+001 1.776810e+002 5.000000e+000
    endloop
  endfacet
  facet normal -8.802763e-003 4.849902e-002 0.000000e+000
    outer loop
      vertex   -5.061193e+001 1.776810e+002 5.000000e+000
      vertex   -5.036914e+001 1.777251e+002 0.000000e+000
      vertex   -5.061193e+001 1.776810e+002 0.000000e+000
    endloop
  endfacet
  facet normal -2.660241e-001 9.639664e-001 0.000000e+000
    outer loop
      vertex   -5.061193e+001 1.776810e+002 5.000000e+000
      vertex   -5.061193e+001 1.776810e+002 0.000000e+000
      vertex   -5.084980e+001 1.776154e+002 5.000000e+000
    endloop
  endfacet
  facet normal -1.311270e-002 4.751526e-002 0.000000e+000
    outer loop
      vertex   -5.084980e+001 1.776154e+002 5.000000e+000
      vertex   -5.061193e+001 1.776810e+002 0.000000e+000
      vertex   -5.084980e+001 1.776154e+002 0.000000e+000
    endloop
  endfacet
  facet normal -3.513623e-001 9.362395e-001 0.000000e+000
    outer loop
      vertex   -5.084980e+001 1.776154e+002 5.000000e+000
      vertex   -5.084980e+001 1.776154e+002 0.000000e+000
      vertex   -5.108082e+001 1.775287e+002 5.000000e+000
    endloop
  endfacet
  facet normal -1.731901e-002 4.614821e-002 0.000000e+000
    outer loop
      vertex   -5.108082e+001 1.775287e+002 5.000000e+000
      vertex   -5.084980e+001 1.776154e+002 0.000000e+000
      vertex   -5.108082e+001 1.775287e+002 0.000000e+000
    endloop
  endfacet
  facet normal -4.339067e-001 9.009578e-001 0.000000e+000
    outer loop
      vertex   -5.108082e+001 1.775287e+002 5.000000e+000
      vertex   -5.108082e+001 1.775287e+002 0.000000e+000
      vertex   -5.130314e+001 1.774216e+002 5.000000e+000
    endloop
  endfacet
  facet normal -2.138815e-002 4.441006e-002 0.000000e+000
    outer loop
      vertex   -5.130314e+001 1.774216e+002 5.000000e+000
      vertex   -5.108082e+001 1.775287e+002 0.000000e+000
      vertex   -5.130314e+001 1.774216e+002 0.000000e+000
    endloop
  endfacet
  facet normal -5.128875e-001 8.584558e-001 0.000000e+000
    outer loop
      vertex   -5.130314e+001 1.774216e+002 5.000000e+000
      vertex   -5.130314e+001 1.774216e+002 0.000000e+000
      vertex   -5.151497e+001 1.772951e+002 5.000000e+000
    endloop
  endfacet
  facet normal -2.528051e-002 4.231377e-002 0.000000e+000
    outer loop
      vertex   -5.151497e+001 1.772951e+002 5.000000e+000
      vertex   -5.130314e+001 1.774216e+002 0.000000e+000
      vertex   -5.151497e+001 1.772951e+002 0.000000e+000
    endloop
  endfacet
  facet normal -5.877708e-001 8.090274e-001 0.000000e+000
    outer loop
      vertex   -5.151497e+001 1.772951e+002 5.000000e+000
      vertex   -5.151497e+001 1.772951e+002 0.000000e+000
      vertex   -5.171460e+001 1.771500e+002 5.000000e+000
    endloop
  endfacet
  facet normal -2.897170e-002 3.987762e-002 0.000000e+000
    outer loop
      vertex   -5.171460e+001 1.771500e+002 5.000000e+000
      vertex   -5.151497e+001 1.772951e+002 0.000000e+000
      vertex   -5.171460e+001 1.771500e+002 0.000000e+000
    endloop
  endfacet
  facet normal -6.579452e-001 7.530658e-001 0.000000e+000
    outer loop
      vertex   -5.171460e+001 1.771500e+002 5.000000e+000
      vertex   -5.171460e+001 1.771500e+002 0.000000e+000
      vertex   -5.190042e+001 1.769877e+002 5.000000e+000
    endloop
  endfacet
  facet normal -3.243123e-002 3.711989e-002 0.000000e+000
    outer loop
      vertex   -5.190042e+001 1.769877e+002 5.000000e+000
      vertex   -5.171460e+001 1.771500e+002 0.000000e+000
      vertex   -5.190042e+001 1.769877e+002 0.000000e+000
    endloop
  endfacet
  facet normal -7.228050e-001 6.910520e-001 0.000000e+000
    outer loop
      vertex   -5.190042e+001 1.769877e+002 5.000000e+000
      vertex   -5.190042e+001 1.769877e+002 0.000000e+000
      vertex   -5.207095e+001 1.768093e+002 5.000000e+000
    endloop
  endfacet
  facet normal -3.562864e-002 3.406346e-002 0.000000e+000
    outer loop
      vertex   -5.207095e+001 1.768093e+002 5.000000e+000
      vertex   -5.190042e+001 1.769877e+002 0.000000e+000
      vertex   -5.207095e+001 1.768093e+002 0.000000e+000
    endloop
  endfacet
  facet normal -7.818226e-001 6.235009e-001 0.000000e+000
    outer loop
      vertex   -5.207095e+001 1.768093e+002 5.000000e+000
      vertex   -5.207095e+001 1.768093e+002 0.000000e+000
      vertex   -5.222480e+001 1.766164e+002 5.000000e+000
    endloop
  endfacet
  facet normal -3.853647e-002 3.073271e-002 0.000000e+000
    outer loop
      vertex   -5.222480e+001 1.766164e+002 5.000000e+000
      vertex   -5.207095e+001 1.768093e+002 0.000000e+000
      vertex   -5.222480e+001 1.766164e+002 0.000000e+000
    endloop
  endfacet
  facet normal -8.345699e-001 5.509021e-001 0.000000e+000
    outer loop
      vertex   -5.222480e+001 1.766164e+002 5.000000e+000
      vertex   -5.222480e+001 1.766164e+002 0.000000e+000
      vertex   -5.236073e+001 1.764105e+002 5.000000e+000
    endloop
  endfacet
  facet normal -4.113646e-002 2.715430e-002 0.000000e+000
    outer loop
      vertex   -5.236073e+001 1.764105e+002 5.000000e+000
      vertex   -5.222480e+001 1.766164e+002 0.000000e+000
      vertex   -5.236073e+001 1.764105e+002 0.000000e+000
    endloop
  endfacet
  facet normal -8.805996e-001 4.738610e-001 0.000000e+000
    outer loop
      vertex   -5.236073e+001 1.764105e+002 5.000000e+000
      vertex   -5.236073e+001 1.764105e+002 0.000000e+000
      vertex   -5.247766e+001 1.761932e+002 5.000000e+000
    endloop
  endfacet
  facet normal -4.340725e-002 2.335795e-002 0.000000e+000
    outer loop
      vertex   -5.247766e+001 1.761932e+002 5.000000e+000
      vertex   -5.236073e+001 1.764105e+002 0.000000e+000
      vertex   -5.247766e+001 1.761932e+002 0.000000e+000
    endloop
  endfacet
  facet normal -9.195276e-001 3.930254e-001 0.000000e+000
    outer loop
      vertex   -5.247766e+001 1.761932e+002 5.000000e+000
      vertex   -5.247766e+001 1.761932e+002 0.000000e+000
      vertex   -5.257465e+001 1.759663e+002 5.000000e+000
    endloop
  endfacet
  facet normal -4.532448e-002 1.937263e-002 0.000000e+000
    outer loop
      vertex   -5.257465e+001 1.759663e+002 5.000000e+000
      vertex   -5.247766e+001 1.761932e+002 0.000000e+000
      vertex   -5.257465e+001 1.759663e+002 0.000000e+000
    endloop
  endfacet
  facet normal -9.510568e-001 3.090162e-001 0.000000e+000
    outer loop
      vertex   -5.257465e+001 1.759663e+002 5.000000e+000
      vertex   -5.257465e+001 1.759663e+002 0.000000e+000
      vertex   -5.265090e+001 1.757316e+002 5.000000e+000
    endloop
  endfacet
  facet normal -4.687898e-002 1.523186e-002 0.000000e+000
    outer loop
      vertex   -5.265090e+001 1.757316e+002 5.000000e+000
      vertex   -5.257465e+001 1.759663e+002 0.000000e+000
      vertex   -5.265090e+001 1.757316e+002 0.000000e+000
    endloop
  endfacet
  facet normal -9.749277e-001 2.225217e-001 0.000000e+000
    outer loop
      vertex   -5.265090e+001 1.757316e+002 5.000000e+000
      vertex   -5.265090e+001 1.757316e+002 0.000000e+000
      vertex   -5.270581e+001 1.754910e+002 5.000000e+000
    endloop
  endfacet
  facet normal -4.805553e-002 1.096840e-002 0.000000e+000
    outer loop
      vertex   -5.270581e+001 1.754910e+002 5.000000e+000
      vertex   -5.265090e+001 1.757316e+002 0.000000e+000
      vertex   -5.270581e+001 1.754910e+002 0.000000e+000
    endloop
  endfacet
  facet normal -9.909496e-001 1.342342e-001 0.000000e+000
    outer loop
      vertex   -5.270581e+001 1.754910e+002 5.000000e+000
      vertex   -5.270581e+001 1.754910e+002 0.000000e+000
      vertex   -5.273893e+001 1.752465e+002 5.000000e+000
    endloop
  endfacet
  facet normal -4.884497e-002 6.616551e-003 0.000000e+000
    outer loop
      vertex   -5.273893e+001 1.752465e+002 5.000000e+000
      vertex   -5.270581e+001 1.754910e+002 0.000000e+000
      vertex   -5.273893e+001 1.752465e+002 0.000000e+000
    endloop
  endfacet
  facet normal 0.000000e+000 -0.000000e+000 9.989931e-001
    outer loop
      vertex   -5.273893e+001 1.747535e+002 5.000000e+000
      vertex   -4.726107e+001 1.747535e+002 5.000000e+000
      vertex   -5.275000e+001 1.750000e+002 5.000000e+000
    endloop
  endfacet
  facet normal -0.000000e+000 0.000000e+000 4.486440e-002
    outer loop
      vertex   -5.275000e+001 1.750000e+002 5.000000e+000
      vertex   -4.726107e+001 1.747535e+002 5.000000e+000
      vertex   -4.725000e+001 1.750000e+002 5.000000e+000
    endloop
  endfacet
  facet normal 0.000000e+000 0.000000e+000 9.989931e-001
    outer loop
      vertex   -5.275000e+001 1.750000e+002 5.000000e+000
      vertex   -4.725000e+001 1.750000e+002 5.000000e+000
      vertex   -5.273893e+001 1.752465e+002 5.000000e+000
    endloop
  endfacet
  facet normal -0.000000e+000 0.000000e+000 4.486440e-002
    outer loop
      vertex   -5.273893e+001 1.752465e+002 5.000000e+000
      vertex   -4.725000e+001 1.750000e+002 5.000000e+000
      vertex   -4.726107e+001 1.752465e+002 5.000000e+000
    endloop
  endfacet
  facet normal 0.000000e+000 0.000000e+000 9.909496e-001
    outer loop
      vertex   -5.273893e+001 1.752465e+002 5.000000e+000
      vertex   -4.726107e+001 1.752465e+002 5.000000e+000
      vertex   -5.270581e+001 1.754910e+002 5.000000e+000
    endloop
  endfacet
  facet normal -0.000000e+000 0.000000e+000 4.486459e-002
    outer loop
      vertex   -5.270581e+001 1.754910e+002 5.000000e+000
      vertex   -4.726107e+001 1.752465e+002 5.000000e+000
      vertex   -4.729419e+001 1.754910e+002 5.000000e+000
    endloop
  endfacet
  facet normal 0.000000e+000 0.000000e+000 9.749277e-001
    outer loop
      vertex   -5.270581e+001 1.754910e+002 5.000000e+000
      vertex   -4.729419e+001 1.754910e+002 5.000000e+000
      vertex   -5.265090e+001 1.757316e+002 5.000000e+000
    endloop
  endfacet
  facet normal -0.000000e+000 0.000000e+000 4.486486e-002
    outer loop
      vertex   -5.265090e+001 1.757316e+002 5.000000e+000
      vertex   -4.729419e+001 1.754910e+002 5.000000e+000
      vertex   -4.734910e+001 1.757316e+002 5.000000e+000
    endloop
  endfacet
  facet normal 0.000000e+000 0.000000e+000 9.510568e-001
    outer loop
      vertex   -5.265090e+001 1.757316e+002 5.000000e+000
      vertex   -4.734910e+001 1.757316e+002 5.000000e+000
      vertex   -5.257465e+001 1.759663e+002 5.000000e+000
    endloop
  endfacet
  facet normal -0.000000e+000 0.000000e+000 4.486497e-002
    outer loop
      vertex   -5.257465e+001 1.759663e+002 5.000000e+000
      vertex   -4.734910e+001 1.757316e+002 5.000000e+000
      vertex   -4.742535e+001 1.759663e+002 5.000000e+000
    endloop
  endfacet
  facet normal 0.000000e+000 0.000000e+000 9.195276e-001
    outer loop
      vertex   -5.257465e+001 1.759663e+002 5.000000e+000
      vertex   -4.742535e+001 1.759663e+002 5.000000e+000
      vertex   -5.247766e+001 1.761932e+002 5.000000e+000
    endloop
  endfacet
  facet normal -0.000000e+000 0.000000e+000 4.486457e-002
    outer loop
      vertex   -5.247766e+001 1.761932e+002 5.000000e+000
      vertex   -4.742535e+001 1.759663e+002 5.000000e+000
      vertex   -4.752234e+001 1.761932e+002 5.000000e+000
    endloop
  endfacet
  facet normal 0.000000e+000 0.000000e+000 8.805996e-001
    outer loop
      vertex   -5.247766e+001 1.761932e+002 5.000000e+000
      vertex   -4.752234e+001 1.761932e+002 5.000000e+000
      vertex   -5.236073e+001 1.764105e+002 5.000000e+000
    endloop
  endfacet
  facet normal -0.000000e+000 0.000000e+000 4.486642e-002
    outer loop
      vertex   -5.236073e+001 1.764105e+002 5.000000e+000
      vertex   -4.752234e+001 1.761932e+002 5.000000e+000
      vertex   -4.763927e+001 1.764105e+002 5.000000e+000
    endloop
  endfacet
  facet normal 0.000000e+000 0.000000e+000 8.345699e-001
    outer loop
      vertex   -5.236073e+001 1.764105e+002 5.000000e+000
      vertex   -4.763927e+001 1.764105e+002 5.000000e+000
      vertex   -5.222480e+001 1.766164e+002 5.000000e+000
    endloop
  endfacet
  facet normal -0.000000e+000 0.000000e+000 4.486402e-002
    outer loop
      vertex   -5.222480e+001 1.766164e+002 5.000000e+000
      vertex   -4.763927e+001 1.764105e+002 5.000000e+000
      vertex   -4.777520e+001 1.766164e+002 5.000000e+000
    endloop
  endfacet
  facet normal 0.000000e+000 0.000000e+000 7.818226e-001
    outer loop
      vertex   -5.222480e+001 1.766164e+002 5.000000e+000
      vertex   -4.777520e+001 1.766164e+002 5.000000e+000
      vertex   -5.207095e+001 1.768093e+002 5.000000e+000
    endloop
  endfacet
  facet normal -0.000000e+000 0.000000e+000 4.486364e-002
    outer loop
      vertex   -5.207095e+001 1.768093e+002 5.000000e+000
      vertex   -4.777520e+001 1.766164e+002 5.000000e+000
      vertex   -4.792905e+001 1.768093e+002 5.000000e+000
    endloop
  endfacet
  facet normal 0.000000e+000 0.000000e+000 7.228050e-001
    outer loop
      vertex   -5.207095e+001 1.768093e+002 5.000000e+000
      vertex   -4.792905e+001 1.768093e+002 5.000000e+000
      vertex   -5.190042e+001 1.769877e+002 5.000000e+000
    endloop
  endfacet
  facet normal -0.000000e+000 0.000000e+000 4.486626e-002
    outer loop
      vertex   -5.190042e+001 1.769877e+002 5.000000e+000
      vertex   -4.792905e+001 1.768093e+002 5.000000e+000
      vertex   -4.809958e+001 1.769877e+002 5.000000e+000
    endloop
  endfacet
  facet normal 0.000000e+000 0.000000e+000 6.579452e-001
    outer loop
      vertex   -5.190042e+001 1.769877e+002 5.000000e+000
      vertex   -4.809958e+001 1.769877e+002 5.000000e+000
      vertex   -5.171460e+001 1.771500e+002 5.000000e+000
    endloop
  endfacet
  facet normal -0.000000e+000 0.000000e+000 4.486563e-002
    outer loop
      vertex   -5.171460e+001 1.771500e+002 5.000000e+000
      vertex   -4.809958e+001 1.769877e+002 5.000000e+000
      vertex   -4.828540e+001 1.771500e+002 5.000000e+000
    endloop
  endfacet
  facet normal 0.000000e+000 0.000000e+000 5.877708e-001
    outer loop
      vertex   -5.171460e+001 1.771500e+002 5.000000e+000
      vertex   -4.828540e+001 1.771500e+002 5.000000e+000
      vertex   -5.151497e+001 1.772951e+002 5.000000e+000
    endloop
  endfacet
  facet normal -0.000000e+000 0.000000e+000 4.486330e-002
    outer loop
      vertex   -5.151497e+001 1.772951e+002 5.000000e+000
      vertex   -4.828540e+001 1.771500e+002 5.000000e+000
      vertex   -4.848503e+001 1.772951e+002 5.000000e+000
    endloop
  endfacet
  facet normal 0.000000e+000 0.000000e+000 5.128875e-001
    outer loop
      vertex   -5.151497e+001 1.772951e+002 5.000000e+000
      vertex   -4.848503e+001 1.772951e+002 5.000000e+000
      vertex   -5.130314e+001 1.774216e+002 5.000000e+000
    endloop
  endfacet
  facet normal -0.000000e+000 0.000000e+000 4.486313e-002
    outer loop
      vertex   -5.130314e+001 1.774216e+002 5.000000e+000
      vertex   -4.848503e+001 1.772951e+002 5.000000e+000
      vertex   -4.869686e+001 1.774216e+002 5.000000e+000
    endloop
  endfacet
  facet normal 0.000000e+000 0.000000e+000 4.339067e-001
    outer loop
      vertex   -5.130314e+001 1.774216e+002 5.000000e+000
      vertex   -4.869686e+001 1.774216e+002 5.000000e+000
      vertex   -5.108082e+001 1.775287e+002 5.000000e+000
    endloop
  endfacet
  facet normal -0.000000e+000 0.000000e+000 4.486788e-002
    outer loop
      vertex   -5.108082e+001 1.775287e+002 5.000000e+000
      vertex   -4.869686e+001 1.774216e+002 5.000000e+000
      vertex   -4.891918e+001 1.775287e+002 5.000000e+000
    endloop
  endfacet
  facet normal 0.000000e+000 0.000000e+000 3.513623e-001
    outer loop
      vertex   -5.108082e+001 1.775287e+002 5.000000e+000
      vertex   -4.891918e+001 1.775287e+002 5.000000e+000
      vertex   -5.084980e+001 1.776154e+002 5.000000e+000
    endloop
  endfacet
  facet normal -0.000000e+000 0.000000e+000 4.486299e-002
    outer loop
      vertex   -5.084980e+001 1.776154e+002 5.000000e+000
      vertex   -4.891918e+001 1.775287e+002 5.000000e+000
      vertex   -4.915020e+001 1.776154e+002 5.000000e+000
    endloop
  endfacet
  facet normal 0.000000e+000 0.000000e+000 2.660241e-001
    outer loop
      vertex   -5.084980e+001 1.776154e+002 5.000000e+000
      vertex   -4.915020e+001 1.776154e+002 5.000000e+000
      vertex   -5.061193e+001 1.776810e+002 5.000000e+000
    endloop
  endfacet
  facet normal -0.000000e+000 0.000000e+000 4.486283e-002
    outer loop
      vertex   -5.061193e+001 1.776810e+002 5.000000e+000
      vertex   -4.915020e+001 1.776154e+002 5.000000e+000
      vertex   -4.938807e+001 1.776810e+002 5.000000e+000
    endloop
  endfacet
  facet normal 0.000000e+000 0.000000e+000 1.785861e-001
    outer loop
      vertex   -5.061193e+001 1.776810e+002 5.000000e+000
      vertex   -4.938807e+001 1.776810e+002 5.000000e+000
      vertex   -5.036914e+001 1.777251e+002 5.000000e+000
    endloop
  endfacet
  facet normal -0.000000e+000 0.000000e+000 4.487236e-002
    outer loop
      vertex   -5.036914e+001 1.777251e+002 5.000000e+000
      vertex   -4.938807e+001 1.776810e+002 5.000000e+000
      vertex   -4.963086e+001 1.777251e+002 5.000000e+000
    endloop
  endfacet
  facet normal 0.000000e+000 0.000000e+000 8.966453e-002
    outer loop
      vertex   -5.036914e+001 1.777251e+002 5.000000e+000
      vertex   -4.963086e+001 1.777251e+002 5.000000e+000
      vertex   -5.012338e+001 1.777472e+002 5.000000e+000
    endloop
  endfacet
  facet normal -0.000000e+000 0.000000e+000 4.487733e-002
    outer loop
      vertex   -5.012338e+001 1.777472e+002 5.000000e+000
      vertex   -4.963086e+001 1.777251e+002 5.000000e+000
      vertex   -4.987662e+001 1.777472e+002 5.000000e+000
    endloop
  endfacet
  facet normal 0.000000e+000 0.000000e+000 9.909496e-001
    outer loop
      vertex   -4.726107e+001 1.747535e+002 5.000000e+000
      vertex   -5.273893e+001 1.747535e+002 5.000000e+000
      vertex   -4.729419e+001 1.745090e+002 5.000000e+000
    endloop
  endfacet
  facet normal 0.000000e+000 0.000000e+000 4.486459e-002
    outer loop
      vertex   -4.729419e+001 1.745090e+002 5.000000e+000
      vertex   -5.273893e+001 1.747535e+002 5.000000e+000
      vertex   -5.270581e+001 1.745090e+002 5.000000e+000
    endloop
  endfacet
  facet normal 0.000000e+000 0.000000e+000 9.749277e-001
    outer loop
      vertex   -4.729419e+001 1.745090e+002 5.000000e+000
      vertex   -5.270581e+001 1.745090e+002 5.000000e+000
      vertex   -4.734910e+001 1.742684e+002 5.000000e+000
    endloop
  endfacet
  facet normal 0.000000e+000 0.000000e+000 4.486486e-002
    outer loop
      vertex   -4.734910e+001 1.742684e+002 5.000000e+000
      vertex   -5.270581e+001 1.745090e+002 5.000000e+000
      vertex   -5.265090e+001 1.742684e+002 5.000000e+000
    endloop
  endfacet
  facet normal 0.000000e+000 0.000000e+000 9.510568e-001
    outer loop
      vertex   -4.734910e+001 1.742684e+002 5.000000e+000
      vertex   -5.265090e+001 1.742684e+002 5.000000e+000
      vertex   -4.742535e+001 1.740337e+002 5.000000e+000
    endloop
  endfacet
  facet normal 0.000000e+000 0.000000e+000 4.486497e-002
    outer loop
      vertex   -4.742535e+001 1.740337e+002 5.000000e+000
      vertex   -5.265090e+001 1.742684e+002 5.000000e+000
      vertex   -5.257465e+001 1.740337e+002 5.000000e+000
    endloop
  endfacet
  facet normal 0.000000e+000 0.000000e+000 9.195276e-001
    outer loop
      vertex   -4.742535e+001 1.740337e+002 5.000000e+000
      vertex   -5.257465e+001 1.740337e+002 5.000000e+000
      vertex   -4.752234e+001 1.738068e+002 5.000000e+000
    endloop
  endfacet
  facet normal 0.000000e+000 0.000000e+000 4.486457e-002
    outer loop
      vertex   -4.752234e+001 1.738068e+002 5.000000e+000
      vertex   -5.257465e+001 1.740337e+002 5.000000e+000
      vertex   -5.247766e+001 1.738068e+002 5.000000e+000
    endloop
  endfacet
  facet normal 0.000000e+000 0.000000e+000 8.805996e-001
    outer loop
      vertex   -4.752234e+001 1.738068e+002 5.000000e+000
      vertex   -5.247766e+001 1.738068e+002 5.000000e+000
      vertex   -4.763927e+001 1.735895e+002 5.000000e+000
    endloop
  endfacet
  facet normal 0.000000e+000 0.000000e+000 4.486642e-002
    outer loop
      vertex   -4.763927e+001 1.735895e+002 5.000000e+000
      vertex   -5.247766e+001 1.738068e+002 5.000000e+000
      vertex   -5.236073e+001 1.735895e+002 5.000000e+000
    endloop
  endfacet
  facet normal 0.000000e+000 0.000000e+000 8.345699e-001
    outer loop
      vertex   -4.763927e+001 1.735895e+002 5.000000e+000
      vertex   -5.236073e+001 1.735895e+002 5.000000e+000
      vertex   -4.777520e+001 1.733836e+002 5.000000e+000
    endloop
  endfacet
  facet normal 0.000000e+000 0.000000e+000 4.486402e-002
    outer loop
      vertex   -4.777520e+001 1.733836e+002 5.000000e+000
      vertex   -5.236073e+001 1.735895e+002 5.000000e+000
      vertex   -5.222480e+001 1.733836e+002 5.000000e+000
    endloop
  endfacet
  facet normal 0.000000e+000 0.000000e+000 7.818226e-001
    outer loop
      vertex   -4.777520e+001 1.733836e+002 5.000000e+000
      vertex   -5.222480e+001 1.733836e+002 5.000000e+000
      vertex   -4.792905e+001 1.731907e+002 5.000000e+000
    endloop
  endfacet
  facet normal 0.000000e+000 0.000000e+000 4.486364e-002
    outer loop
      vertex   -4.792905e+001 1.731907e+002 5.000000e+000
      vertex   -5.222480e+001 1.733836e+002 5.000000e+000
      vertex   -5.207095e+001 1.731907e+002 5.000000e+000
    endloop
  endfacet
  facet normal 0.000000e+000 0.000000e+000 7.228050e-001
    outer loop
      vertex   -4.792905e+001 1.731907e+002 5.000000e+000
      vertex   -5.207095e+001 1.731907e+002 5.000000e+000
      vertex   -4.809958e+001 1.730123e+002 5.000000e+000
    endloop
  endfacet
  facet normal 0.000000e+000 0.000000e+000 4.486626e-002
    outer loop
      vertex   -4.809958e+001 1.730123e+002 5.000000e+000
      vertex   -5.207095e+001 1.731907e+002 5.000000e+000
      vertex   -5.190042e+001 1.730123e+002 5.000000e+000
    endloop
  endfacet
  facet normal 0.000000e+000 0.000000e+000 6.579452e-001
    outer loop
      vertex   -4.809958e+001 1.730123e+002 5.000000e+000
      vertex   -5.190042e+001 1.730123e+002 5.000000e+000
      vertex   -4.828540e+001 1.728500e+002 5.000000e+000
    endloop
  endfacet
  facet normal 0.000000e+000 0.000000e+000 4.486563e-002
    outer loop
      vertex   -4.828540e+001 1.728500e+002 5.000000e+000
      vertex   -5.190042e+001 1.730123e+002 5.000000e+000
      vertex   -5.171460e+001 1.728500e+002 5.000000e+000
    endloop
  endfacet
  facet normal 0.000000e+000 0.000000e+000 5.877708e-001
    outer loop
      vertex   -4.828540e+001 1.728500e+002 5.000000e+000
      vertex   -5.171460e+001 1.728500e+002 5.000000e+000
      vertex   -4.848503e+001 1.727049e+002 5.000000e+000
    endloop
  endfacet
  facet normal 0.000000e+000 0.000000e+000 4.486330e-002
    outer loop
      vertex   -4.848503e+001 1.727049e+002 5.000000e+000
      vertex   -5.171460e+001 1.728500e+002 5.000000e+000
      vertex   -5.151497e+001 1.727049e+002 5.000000e+000
    endloop
  endfacet
  facet normal 0.000000e+000 0.000000e+000 5.128875e-001
    outer loop
      vertex   -4.848503e+001 1.727049e+002 5.000000e+000
      vertex   -5.151497e+001 1.727049e+002 5.000000e+000
      vertex   -4.869686e+001 1.725784e+002 5.000000e+000
    endloop
  endfacet
  facet normal 0.000000e+000 0.000000e+000 4.486313e-002
    outer loop
      vertex   -4.869686e+001 1.725784e+002 5.000000e+000
      vertex   -5.151497e+001 1.727049e+002 5.000000e+000
      vertex   -5.130314e+001 1.725784e+002 5.000000e+000
    endloop
  endfacet
  facet normal 0.000000e+000 0.000000e+000 4.339067e-001
    outer loop
      vertex   -4.869686e+001 1.725784e+002 5.000000e+000
      vertex   -5.130314e+001 1.725784e+002 5.000000e+000
      vertex   -4.891918e+001 1.724713e+002 5.000000e+000
    endloop
  endfacet
  facet normal 0.000000e+000 0.000000e+000 4.486788e-002
    outer loop
      vertex   -4.891918e+001 1.724713e+002 5.000000e+000
      vertex   -5.130314e+001 1.725784e+002 5.000000e+000
      vertex   -5.108082e+001 1.724713e+002 5.000000e+000
    endloop
  endfacet
  facet normal 0.000000e+000 0.000000e+000 3.513623e-001
    outer loop
      vertex   -4.891918e+001 1.724713e+002 5.000000e+000
      vertex   -5.108082e+001 1.724713e+002 5.000000e+000
      vertex   -4.915020e+001 1.723846e+002 5.000000e+000
    endloop
  endfacet
  facet normal 0.000000e+000 0.000000e+000 4.486299e-002
    outer loop
      vertex   -4.915020e+001 1.723846e+002 5.000000e+000
      vertex   -5.108082e+001 1.724713e+002 5.000000e+000
      vertex   -5.084980e+001 1.723846e+002 5.000000e+000
    endloop
  endfacet
  facet normal 0.000000e+000 0.000000e+000 2.660241e-001
    outer loop
      vertex   -4.915020e+001 1.723846e+002 5.000000e+000
      vertex   -5.084980e+001 1.723846e+002 5.000000e+000
      vertex   -4.938807e+001 1.723190e+002 5.000000e+000
    endloop
  endfacet
  facet normal 0.000000e+000 0.000000e+000 4.486283e-002
    outer loop
      vertex   -4.938807e+001 1.723190e+002 5.000000e+000
      vertex   -5.084980e+001 1.723846e+002 5.000000e+000
      vertex   -5.061193e+001 1.723190e+002 5.000000e+000
    endloop
  endfacet
  facet normal 0.000000e+000 0.000000e+000 1.785861e-001
    outer loop
      vertex   -4.938807e+001 1.723190e+002 5.000000e+000
      vertex   -5.061193e+001 1.723190e+002 5.000000e+000
      vertex   -4.963086e+001 1.722749e+002 5.000000e+000
    endloop
  endfacet
  facet normal 0.000000e+000 0.000000e+000 4.487236e-002
    outer loop
      vertex   -4.963086e+001 1.722749e+002 5.000000e+000
      vertex   -5.061193e+001 1.723190e+002 5.000000e+000
      vertex   -5.036914e+001 1.722749e+002 5.000000e+000
    endloop
  endfacet
  facet normal 0.000000e+000 0.000000e+000 8.966453e-002
    outer loop
      vertex   -4.963086e+001 1.722749e+002 5.000000e+000
      vertex   -5.036914e+001 1.722749e+002 5.000000e+000
      vertex   -4.987662e+001 1.722528e+002 5.000000e+000
    endloop
  endfacet
  facet normal 0.000000e+000 0.000000e+000 4.487733e-002
    outer loop
      vertex   -4.987662e+001 1.722528e+002 5.000000e+000
      vertex   -5.036914e+001 1.722749e+002 5.000000e+000
      vertex   -5.012338e+001 1.722528e+002 5.000000e+000
    endloop
  endfacet
  facet normal 0.000000e+000 -0.000000e+000 -9.989931e-001
    outer loop
      vertex   -5.273893e+001 1.752465e+002 0.000000e+000
      vertex   -4.726107e+001 1.752465e+002 0.000000e+000
      vertex   -5.275000e+001 1.750000e+002 0.000000e+000
    endloop
  endfacet
  facet normal 0.000000e+000 0.000000e+000 -4.486440e-002
    outer loop
      vertex   -5.275000e+001 1.750000e+002 0.000000e+000
      vertex   -4.726107e+001 1.752465e+002 0.000000e+000
      vertex   -4.725000e+001 1.750000e+002 0.000000e+000
    endloop
  endfacet
  facet normal 0.000000e+000 0.000000e+000 -9.989931e-001
    outer loop
      vertex   -5.275000e+001 1.750000e+002 0.000000e+000
      vertex   -4.725000e+001 1.750000e+002 0.000000e+000
      vertex   -5.273893e+001 1.747535e+002 0.000000e+000
    endloop
  endfacet
  facet normal 0.000000e+000 0.000000e+000 -4.486440e-002
    outer loop
      vertex   -5.273893e+001 1.747535e+002 0.000000e+000
      vertex   -4.725000e+001 1.750000e+002 0.000000e+000
      vertex   -4.726107e+001 1.747535e+002 0.000000e+000
    endloop
  endfacet
  facet normal 0.000000e+000 0.000000e+000 -9.909496e-001
    outer loop
      vertex   -5.273893e+001 1.747535e+002 0.000000e+000
      vertex   -4.726107e+001 1.747535e+002 0.000000e+000
      vertex   -5.270581e+001 1.745090e+002 0.000000e+000
    endloop
  endfacet
  facet normal 0.000000e+000 0.000000e+000 -4.486459e-002
    outer loop
      vertex   -5.270581e+001 1.745090e+002 0.000000e+000
      vertex   -4.726107e+001 1.747535e+002 0.000000e+000
      vertex   -4.729419e+001 1.745090e+002 0.000000e+000
    endloop
  endfacet
  facet normal 0.000000e+000 0.000000e+000 -9.749277e-001
    outer loop
      vertex   -5.270581e+001 1.745090e+002 0.000000e+000
      vertex   -4.729419e+001 1.745090e+002 0.000000e+000
      vertex   -5.265090e+001 1.742684e+002 0.000000e+000
    endloop
  endfacet
  facet normal 0.000000e+000 0.000000e+000 -4.486486e-002
    outer loop
      vertex   -5.265090e+001 1.742684e+002 0.000000e+000
      vertex   -4.729419e+001 1.745090e+002 0.000000e+000
      vertex   -4.734910e+001 1.742684e+002 0.000000e+000
    endloop
  endfacet
  facet normal 0.000000e+000 0.000000e+000 -9.510568e-001
    outer loop
      vertex   -5.265090e+001 1.742684e+002 0.000000e+000
      vertex   -4.734910e+001 1.742684e+002 0.000000e+000
      vertex   -5.257465e+001 1.740337e+002 0.000000e+000
    endloop
  endfacet
  facet normal 0.000000e+000 0.000000e+000 -4.486497e-002
    outer loop
      vertex   -5.257465e+001 1.740337e+002 0.000000e+000
      vertex   -4.734910e+001 1.742684e+002 0.000000e+000
      vertex   -4.742535e+001 1.740337e+002 0.000000e+000
    endloop
  endfacet
  facet normal 0.000000e+000 0.000000e+000 -9.195276e-001
    outer loop
      vertex   -5.257465e+001 1.740337e+002 0.000000e+000
      vertex   -4.742535e+001 1.740337e+002 0.000000e+000
      vertex   -5.247766e+001 1.738068e+002 0.000000e+000
    endloop
  endfacet
  facet normal 0.000000e+000 0.000000e+000 -4.486457e-002
    outer loop
      vertex   -5.247766e+001 1.738068e+002 0.000000e+000
      vertex   -4.742535e+001 1.740337e+002 0.000000e+000
      vertex   -4.752234e+001 1.738068e+002 0.000000e+000
    endloop
  endfacet
  facet normal 0.000000e+000 0.000000e+000 -8.805996e-001
    outer loop
      vertex   -5.247766e+001 1.738068e+002 0.000000e+000
      vertex   -4.752234e+001 1.738068e+002 0.000000e+000
      vertex   -5.236073e+001 1.735895e+002 0.000000e+000
    endloop
  endfacet
  facet normal 0.000000e+000 0.000000e+000 -4.486642e-002
    outer loop
      vertex   -5.236073e+001 1.735895e+002 0.000000e+000
      vertex   -4.752234e+001 1.738068e+002 0.000000e+000
      vertex   -4.763927e+001 1.735895e+002 0.000000e+000
    endloop
  endfacet
  facet normal 0.000000e+000 0.000000e+000 -8.345699e-001
    outer loop
      vertex   -5.236073e+001 1.735895e+002 0.000000e+000
      vertex   -4.763927e+001 1.735895e+002 0.000000e+000
      vertex   -5.222480e+001 1.733836e+002 0.000000e+000
    endloop
  endfacet
  facet normal 0.000000e+000 0.000000e+000 -4.486402e-002
    outer loop
      vertex   -5.222480e+001 1.733836e+002 0.000000e+000
      vertex   -4.763927e+001 1.735895e+002 0.000000e+000
      vertex   -4.777520e+001 1.733836e+002 0.000000e+000
    endloop
  endfacet
  facet normal 0.000000e+000 0.000000e+000 -7.818226e-001
    outer loop
      vertex   -5.222480e+001 1.733836e+002 0.000000e+000
      vertex   -4.777520e+001 1.733836e+002 0.000000e+000
      vertex   -5.207095e+001 1.731907e+002 0.000000e+000
    endloop
  endfacet
  facet normal 0.000000e+000 0.000000e+000 -4.486364e-002
    outer loop
      vertex   -5.207095e+001 1.731907e+002 0.000000e+000
      vertex   -4.777520e+001 1.733836e+002 0.000000e+000
      vertex   -4.792905e+001 1.731907e+002 0.000000e+000
    endloop
  endfacet
  facet normal 0.000000e+000 0.000000e+000 -7.228050e-001
    outer loop
      vertex   -5.207095e+001 1.731907e+002 0.000000e+000
      vertex   -4.792905e+001 1.731907e+002 0.000000e+000
      vertex   -5.190042e+001 1.730123e+002 0.000000e+000
    endloop
  endfacet
  facet normal 0.000000e+000 0.000000e+000 -4.486626e-002
    outer loop
      vertex   -5.190042e+001 1.730123e+002 0.000000e+000
      vertex   -4.792905e+001 1.731907e+002 0.000000e+000
      vertex   -4.809958e+001 1.730123e+002 0.000000e+000
    endloop
  endfacet
  facet normal 0.000000e+000 0.000000e+000 -6.579452e-001
    outer loop
      vertex   -5.190042e+001 1.730123e+002 0.000000e+000
      vertex   -4.809958e+001 1.730123e+002 0.000000e+000
      vertex   -5.171460e+001 1.728500e+002 0.000000e+000
    endloop
  endfacet
  facet normal 0.000000e+000 0.000000e+000 -4.486563e-002
    outer loop
      vertex   -5.171460e+001 1.728500e+002 0.000000e+000
      vertex   -4.809958e+001 1.730123e+002 0.000000e+000
      vertex   -4.828540e+001 1.728500e+002 0.000000e+000
    endloop
  endfacet
  facet normal 0.000000e+000 0.000000e+000 -5.877708e-001
    outer loop
      vertex   -5.171460e+001 1.728500e+002 0.000000e+000
      vertex   -4.828540e+001 1.728500e+002 0.000000e+000
      vertex   -5.151497e+001 1.727049e+002 0.000000e+000
    endloop
  endfacet
  facet normal 0.000000e+000 0.000000e+000 -4.486330e-002
    outer loop
      vertex   -5.151497e+001 1.727049e+002 0.000000e+000
      vertex   -4.828540e+001 1.728500e+002 0.000000e+000
      vertex   -4.848503e+001 1.727049e+002 0.000000e+000
    endloop
  endfacet
  facet normal 0.000000e+000 0.000000e+000 -5.128875e-001
    outer loop
      vertex   -5.151497e+001 1.727049e+002 0.000000e+000
      vertex   -4.848503e+001 1.727049e+002 0.000000e+000
      vertex   -5.130314e+001 1.725784e+002 0.000000e+000
    endloop
  endfacet
  facet normal 0.000000e+000 0.000000e+000 -4.486313e-002
    outer loop
      vertex   -5.130314e+001 1.725784e+002 0.000000e+000
      vertex   -4.848503e+001 1.727049e+002 0.000000e+000
      vertex   -4.869686e+001 1.725784e+002 0.000000e+000
    endloop
  endfacet
  facet normal 0.000000e+000 0.000000e+000 -4.339067e-001
    outer loop
      vertex   -5.130314e+001 1.725784e+002 0.000000e+000
      vertex   -4.869686e+001 1.725784e+002 0.000000e+000
      vertex   -5.108082e+001 1.724713e+002 0.000000e+000
    endloop
  endfacet
  facet normal 0.000000e+000 0.000000e+000 -4.486788e-002
    outer loop
      vertex   -5.108082e+001 1.724713e+002 0.000000e+000
      vertex   -4.869686e+001 1.725784e+002 0.000000e+000
      vertex   -4.891918e+001 1.724713e+002 0.000000e+000
    endloop
  endfacet
  facet normal 0.000000e+000 0.000000e+000 -3.513623e-001
    outer loop
      vertex   -5.108082e+001 1.724713e+002 0.000000e+000
      vertex   -4.891918e+001 1.724713e+002 0.000000e+000
      vertex   -5.084980e+001 1.723846e+002 0.000000e+000
    endloop
  endfacet
  facet normal 0.000000e+000 0.000000e+000 -4.486299e-002
    outer loop
      vertex   -5.084980e+001 1.723846e+002 0.000000e+000
      vertex   -4.891918e+001 1.724713e+002 0.000000e+000
      vertex   -4.915020e+001 1.723846e+002 0.000000e+000
    endloop
  endfacet
  facet normal 0.000000e+000 0.000000e+000 -2.660241e-001
    outer loop
      vertex   -5.084980e+001 1.723846e+002 0.000000e+000
      vertex   -4.915020e+001 1.723846e+002 0.000000e+000
      vertex   -5.061193e+001 1.723190e+002 0.000000e+000
    endloop
  endfacet
  facet normal 0.000000e+000 0.000000e+000 -4.486283e-002
    outer loop
      vertex   -5.061193e+001 1.723190e+002 0.000000e+000
      vertex   -4.915020e+001 1.723846e+002 0.000000e+000
      vertex   -4.938807e+001 1.723190e+002 0.000000e+000
    endloop
  endfacet
  facet normal 0.000000e+000 0.000000e+000 -1.785861e-001
    outer loop
      vertex   -5.061193e+001 1.723190e+002 0.000000e+000
      vertex   -4.938807e+001 1.723190e+002 0.000000e+000
      vertex   -5.036914e+001 1.722749e+002 0.000000e+000
    endloop
  endfacet
  facet normal 0.000000e+000 0.000000e+000 -4.487236e-002
    outer loop
      vertex   -5.036914e+001 1.722749e+002 0.000000e+000
      vertex   -4.938807e+001 1.723190e+002 0.000000e+000
      vertex   -4.963086e+001 1.722749e+002 0.000000e+000
    endloop
  endfacet
  facet normal 0.000000e+000 0.000000e+000 -8.966453e-002
    outer loop
      vertex   -5.036914e+001 1.722749e+002 0.000000e+000
      vertex   -4.963086e+001 1.722749e+002 0.000000e+000
      vertex   -5.012338e+001 1.722528e+002 0.000000e+000
    endloop
  endfacet
  facet normal 0.000000e+000 0.000000e+000 -4.487733e-002
    outer loop
      vertex   -5.012338e+001 1.722528e+002 0.000000e+000
      vertex   -4.963086e+001 1.722749e+002 0.000000e+000
      vertex   -4.987662e+001 1.722528e+002 0.000000e+000
    endloop
  endfacet
  facet normal 0.000000e+000 0.000000e+000 -9.909496e-001
    outer loop
      vertex   -4.726107e+001 1.752465e+002 0.000000e+000
      vertex   -5.273893e+001 1.752465e+002 0.000000e+000
      vertex   -4.729419e+001 1.754910e+002 0.000000e+000
    endloop
  endfacet
  facet normal -0.000000e+000 0.000000e+000 -4.486459e-002
    outer loop
      vertex   -4.729419e+001 1.754910e+002 0.000000e+000
      vertex   -5.273893e+001 1.752465e+002 0.000000e+000
      vertex   -5.270581e+001 1.754910e+002 0.000000e+000
    endloop
  endfacet
  facet normal 0.000000e+000 0.000000e+000 -9.749277e-001
    outer loop
      vertex   -4.729419e+001 1.754910e+002 0.000000e+000
      vertex   -5.270581e+001 1.754910e+002 0.000000e+000
      vertex   -4.734910e+001 1.757316e+002 0.000000e+000
    endloop
  endfacet
  facet normal -0.000000e+000 0.000000e+000 -4.486486e-002
    outer loop
      vertex   -4.734910e+001 1.757316e+002 0.000000e+000
      vertex   -5.270581e+001 1.754910e+002 0.000000e+000
      vertex   -5.265090e+001 1.757316e+002 0.000000e+000
    endloop
  endfacet
  facet normal 0.000000e+000 0.000000e+000 -9.510568e-001
    outer loop
      vertex   -4.734910e+001 1.757316e+002 0.000000e+000
      vertex   -5.265090e+001 1.757316e+002 0.000000e+000
      vertex   -4.742535e+001 1.759663e+002 0.000000e+000
    endloop
  endfacet
  facet normal -0.000000e+000 0.000000e+000 -4.486497e-002
    outer loop
      vertex   -4.742535e+001 1.759663e+002 0.000000e+000
      vertex   -5.265090e+001 1.757316e+002 0.000000e+000
      vertex   -5.257465e+001 1.759663e+002 0.000000e+000
    endloop
  endfacet
  facet normal 0.000000e+000 0.000000e+000 -9.195276e-001
    outer loop
      vertex   -4.742535e+001 1.759663e+002 0.000000e+000
      vertex   -5.257465e+001 1.759663e+002 0.000000e+000
      vertex   -4.752234e+001 1.761932e+002 0.000000e+000
    endloop
  endfacet
  facet normal -0.000000e+000 0.000000e+000 -4.486457e-002
    outer loop
      vertex   -4.752234e+001 1.761932e+002 0.000000e+000
      vertex   -5.257465e+001 1.759663e+002 0.000000e+000
      vertex   -5.247766e+001 1.761932e+002 0.000000e+000
    endloop
  endfacet
  facet normal 0.000000e+000 0.000000e+000 -8.805996e-001
    outer loop
      vertex   -4.752234e+001 1.761932e+002 0.000000e+000
      vertex   -5.247766e+001 1.761932e+002 0.000000e+000
      vertex   -4.763927e+001 1.764105e+002 0.000000e+000
    endloop
  endfacet
  facet normal -0.000000e+000 0.000000e+000 -4.486642e-002
    outer loop
      vertex   -4.763927e+001 1.764105e+002 0.000000e+000
      vertex   -5.247766e+001 1.761932e+002 0.000000e+000
      vertex   -5.236073e+001 1.764105e+002 0.000000e+000
    endloop
  endfacet
  facet normal 0.000000e+000 0.000000e+000 -8.345699e-001
    outer loop
      vertex   -4.763927e+001 1.764105e+002 0.000000e+000
      vertex   -5.236073e+001 1.764105e+002 0.000000e+000
      vertex   -4.777520e+001 1.766164e+002 0.000000e+000
    endloop
  endfacet
  facet normal -0.000000e+000 0.000000e+000 -4.486402e-002
    outer loop
      vertex   -4.777520e+001 1.766164e+002 0.000000e+000
      vertex   -5.236073e+001 1.764105e+002 0.000000e+000
      vertex   -5.222480e+001 1.766164e+002 0.000000e+000
    endloop
  endfacet
  facet normal 0.000000e+000 0.000000e+000 -7.818226e-001
    outer loop
      vertex   -4.777520e+001 1.766164e+002 0.000000e+000
      vertex   -5.222480e+001 1.766164e+002 0.000000e+000
      vertex   -4.792905e+001 1.768093e+002 0.000000e+000
    endloop
  endfacet
  facet normal -0.000000e+000 0.000000e+000 -4.486364e-002
    outer loop
      vertex   -4.792905e+001 1.768093e+002 0.000000e+000
      vertex   -5.222480e+001 1.766164e+002 0.000000e+000
      vertex   -5.207095e+001 1.768093e+002 0.000000e+000
    endloop
  endfacet
  facet normal 0.000000e+000 0.000000e+000 -7.228050e-001
    outer loop
      vertex   -4.792905e+001 1.768093e+002 0.000000e+000
      vertex   -5.207095e+001 1.768093e+002 0.000000e+000
      vertex   -4.809958e+001 1.769877e+002 0.000000e+000
    endloop
  endfacet
  facet normal -0.000000e+000 0.000000e+000 -4.486626e-002
    outer loop
      vertex   -4.809958e+001 1.769877e+002 0.000000e+000
      vertex   -5.207095e+001 1.768093e+002 0.000000e+000
      vertex   -5.190042e+001 1.769877e+002 0.000000e+000
    endloop
  endfacet
  facet normal 0.000000e+000 0.000000e+000 -6.579452e-001
    outer loop
      vertex   -4.809958e+001 1.769877e+002 0.000000e+000
      vertex   -5.190042e+001 1.769877e+002 0.000000e+000
      vertex   -4.828540e+001 1.771500e+002 0.000000e+000
    endloop
  endfacet
  facet normal -0.000000e+000 0.000000e+000 -4.486563e-002
    outer loop
      vertex   -4.828540e+001 1.771500e+002 0.000000e+000
      vertex   -5.190042e+001 1.769877e+002 0.000000e+000
      vertex   -5.171460e+001 1.771500e+002 0.000000e+000
    endloop
  endfacet
  facet normal 0.000000e+000 0.000000e+000 -5.877708e-001
    outer loop
      vertex   -4.828540e+001 1.771500e+002 0.000000e+000
      vertex   -5.171460e+001 1.771500e+002 0.000000e+000
      vertex   -4.848503e+001 1.772951e+002 0.000000e+000
    endloop
  endfacet
  facet normal -0.000000e+000 0.000000e+000 -4.486330e-002
    outer loop
      vertex   -4.848503e+001 1.772951e+002 0.000000e+000
      vertex   -5.171460e+001 1.771500e+002 0.000000e+000
      vertex   -5.151497e+001 1.772951e+002 0.000000e+000
    endloop
  endfacet
  facet normal 0.000000e+000 0.000000e+000 -5.128875e-001
    outer loop
      vertex   -4.848503e+001 1.772951e+002 0.000000e+000
      vertex   -5.151497e+001 1.772951e+002 0.000000e+000
      vertex   -4.869686e+001 1.774216e+002 0.000000e+000
    endloop
  endfacet
  facet normal -0.000000e+000 0.000000e+000 -4.486313e-002
    outer loop
      vertex   -4.869686e+001 1.774216e+002 0.000000e+000
      vertex   -5.151497e+001 1.772951e+002 0.000000e+000
      vertex   -5.130314e+001 1.774216e+002 0.000000e+000
    endloop
  endfacet
  facet normal 0.000000e+000 0.000000e+000 -4.339067e-001
    outer loop
      vertex   -4.869686e+001 1.774216e+002 0.000000e+000
      vertex   -5.130314e+001 1.774216e+002 0.000000e+000
      vertex   -4.891918e+001 1.775287e+002 0.000000e+000
    endloop
  endfacet
  facet normal -0.000000e+000 0.000000e+000 -4.486788e-002
    outer loop
      vertex   -4.891918e+001 1.775287e+002 0.000000e+000
      vertex   -5.130314e+001 1.774216e+002 0.000000e+000
      vertex   -5.108082e+001 1.775287e+002 0.000000e+000
    endloop
  endfacet
  facet normal 0.000000e+000 0.000000e+000 -3.513623e-001
    outer loop
      vertex   -4.891918e+001 1.775287e+002 0.000000e+000
      vertex   -5.108082e+001 1.775287e+002 0.000000e+000
      vertex   -4.915020e+001 1.776154e+002 0.000000e+000
    endloop
  endfacet
  facet normal -0.000000e+000 0.000000e+000 -4.486299e-002
    outer loop
      vertex   -4.915020e+001 1.776154e+002 0.000000e+000
      vertex   -5.108082e+001 1.775287e+002 0.000000e+000
      vertex   -5.084980e+001 1.776154e+002 0.000000e+000
    endloop
  endfacet
  facet normal 0.000000e+000 0.000000e+000 -2.660241e-001
    outer loop
      vertex   -4.915020e+001 1.776154e+002 0.000000e+000
      vertex   -5.084980e+001 1.776154e+002 0.000000e+000
      vertex   -4.938807e+001 1.776810e+002 0.000000e+000
    endloop
  endfacet
  facet normal -0.000000e+000 0.000000e+000 -4.486283e-002
    outer loop
      vertex   -4.938807e+001 1.776810e+002 0.000000e+000
      vertex   -5.084980e+001 1.776154e+002 0.000000e+000
      vertex   -5.061193e+001 1.776810e+002 0.000000e+000
    endloop
  endfacet
  facet normal 0.000000e+000 0.000000e+000 -1.785861e-001
    outer loop
      vertex   -4.938807e+001 1.776810e+002 0.000000e+000
      vertex   -5.061193e+001 1.776810e+002 0.000000e+000
      vertex   -4.963086e+001 1.777251e+002 0.000000e+000
    endloop
  endfacet
  facet normal -0.000000e+000 0.000000e+000 -4.487236e-002
    outer loop
      vertex   -4.963086e+001 1.777251e+002 0.000000e+000
      vertex   -5.061193e+001 1.776810e+002 0.000000e+000
      vertex   -5.036914e+001 1.777251e+002 0.000000e+000
    endloop
  endfacet
  facet normal 0.000000e+000 0.000000e+000 -8.966453e-002
    outer loop
      vertex   -4.963086e+001 1.777251e+002 0.000000e+000
      vertex   -5.036914e+001 1.777251e+002 0.000000e+000
      vertex   -4.987662e+001 1.777472e+002 0.000000e+000
    endloop
  endfacet
  facet normal -0.000000e+000 0.000000e+000 -4.487733e-002
    outer loop
      vertex   -4.987662e+001 1.777472e+002 0.000000e+000
      vertex   -5.036914e+001 1.777251e+002 0.000000e+000
      vertex   -5.012338e+001 1.777472e+002 0.000000e+000
    endloop
  endfacet
endsolid
