solid ascii
  facet normal -7.092942e-003 9.999748e-001 0.000000e+000
    outer loop
      vertex   -7.234976e+001 7.999043e+001 0.000000e+000
      vertex   -7.505061e+001 7.997127e+001 0.000000e+000
      vertex   -7.234976e+001 7.999043e+001 1.000000e+000
    endloop
  endfacet
  facet normal -2.462749e-003 3.472025e-001 0.000000e+000
    outer loop
      vertex   -7.234976e+001 7.999043e+001 1.000000e+000
      vertex   -7.505061e+001 7.997127e+001 0.000000e+000
      vertex   -7.505061e+001 7.997127e+001 1.000000e+000
    endloop
  endfacet
  facet normal -0.000000e+000 0.000000e+000 9.989753e-001
    outer loop
      vertex   -7.575704e+001 7.997127e+001 1.000000e+000
      vertex   -7.574249e+001 7.964996e+001 1.000000e+000
      vertex   -7.505061e+001 7.997127e+001 1.000000e+000
    endloop
  endfacet
  facet normal 0.000000e+000 0.000000e+000 3.324304e-001
    outer loop
      vertex   -7.505061e+001 7.997127e+001 1.000000e+000
      vertex   -7.574249e+001 7.964996e+001 1.000000e+000
      vertex   -7.570682e+001 7.933030e+001 1.000000e+000
    endloop
  endfacet
  facet normal 0.000000e+000 0.000000e+000 2.354978e-001
    outer loop
      vertex   -7.505061e+001 7.997127e+001 1.000000e+000
      vertex   -7.570682e+001 7.933030e+001 1.000000e+000
      vertex   -7.565018e+001 7.901369e+001 1.000000e+000
    endloop
  endfacet
  facet normal -0.000000e+000 0.000000e+000 7.189226e-001
    outer loop
      vertex   -7.565018e+001 7.901369e+001 1.000000e+000
      vertex   -7.557285e+001 7.870148e+001 1.000000e+000
      vertex   -7.505061e+001 7.997127e+001 1.000000e+000
    endloop
  endfacet
  facet normal 0.000000e+000 0.000000e+000 1.267624e-001
    outer loop
      vertex   -7.505061e+001 7.997127e+001 1.000000e+000
      vertex   -7.557285e+001 7.870148e+001 1.000000e+000
      vertex   -7.547514e+001 7.839504e+001 1.000000e+000
    endloop
  endfacet
  facet normal 0.000000e+000 0.000000e+000 1.007496e-001
    outer loop
      vertex   -7.505061e+001 7.997127e+001 1.000000e+000
      vertex   -7.547514e+001 7.839504e+001 1.000000e+000
      vertex   -7.535746e+001 7.809570e+001 1.000000e+000
    endloop
  endfacet
  facet normal -0.000000e+000 0.000000e+000 5.667463e-001
    outer loop
      vertex   -7.535746e+001 7.809570e+001 1.000000e+000
      vertex   -7.522035e+001 7.780476e+001 1.000000e+000
      vertex   -7.505061e+001 7.997127e+001 1.000000e+000
    endloop
  endfacet
  facet normal 0.000000e+000 0.000000e+000 7.249469e-002
    outer loop
      vertex   -7.505061e+001 7.997127e+001 1.000000e+000
      vertex   -7.522035e+001 7.780476e+001 1.000000e+000
      vertex   -7.506439e+001 7.752345e+001 1.000000e+000
    endloop
  endfacet
  facet normal 0.000000e+000 0.000000e+000 6.450822e-002
    outer loop
      vertex   -7.505061e+001 7.997127e+001 1.000000e+000
      vertex   -7.506439e+001 7.752345e+001 1.000000e+000
      vertex   -7.489026e+001 7.725303e+001 1.000000e+000
    endloop
  endfacet
  facet normal -0.000000e+000 0.000000e+000 9.986572e-001
    outer loop
      vertex   -7.505061e+001 7.997127e+001 1.000000e+000
      vertex   -7.489026e+001 7.725303e+001 1.000000e+000
      vertex   -7.234976e+001 7.999043e+001 1.000000e+000
    endloop
  endfacet
  facet normal 0.000000e+000 0.000000e+000 8.305121e-002
    outer loop
      vertex   -7.234976e+001 7.999043e+001 1.000000e+000
      vertex   -7.489026e+001 7.725303e+001 1.000000e+000
      vertex   -7.469871e+001 7.699465e+001 1.000000e+000
    endloop
  endfacet
  facet normal 0.000000e+000 0.000000e+000 8.112270e-002
    outer loop
      vertex   -7.234976e+001 7.999043e+001 1.000000e+000
      vertex   -7.469871e+001 7.699465e+001 1.000000e+000
      vertex   -7.449057e+001 7.674944e+001 1.000000e+000
    endloop
  endfacet
  facet normal -0.000000e+000 0.000000e+000 9.764619e-001
    outer loop
      vertex   -7.449057e+001 7.674944e+001 1.000000e+000
      vertex   -7.426675e+001 7.651845e+001 1.000000e+000
      vertex   -7.234976e+001 7.999043e+001 1.000000e+000
    endloop
  endfacet
  facet normal 0.000000e+000 0.000000e+000 7.727680e-002
    outer loop
      vertex   -7.234976e+001 7.999043e+001 1.000000e+000
      vertex   -7.426675e+001 7.651845e+001 1.000000e+000
      vertex   -7.402821e+001 7.630269e+001 1.000000e+000
    endloop
  endfacet
  facet normal 0.000000e+000 0.000000e+000 7.540814e-002
    outer loop
      vertex   -7.234976e+001 7.999043e+001 1.000000e+000
      vertex   -7.402821e+001 7.630269e+001 1.000000e+000
      vertex   -7.377599e+001 7.610310e+001 1.000000e+000
    endloop
  endfacet
  facet normal -0.000000e+000 0.000000e+000 9.684261e-001
    outer loop
      vertex   -7.377599e+001 7.610310e+001 1.000000e+000
      vertex   -7.351119e+001 7.592053e+001 1.000000e+000
      vertex   -7.234976e+001 7.999043e+001 1.000000e+000
    endloop
  endfacet
  facet normal 0.000000e+000 0.000000e+000 7.185344e-002
    outer loop
      vertex   -7.234976e+001 7.999043e+001 1.000000e+000
      vertex   -7.351119e+001 7.592053e+001 1.000000e+000
      vertex   -7.323495e+001 7.575578e+001 1.000000e+000
    endloop
  endfacet
  facet normal 0.000000e+000 0.000000e+000 7.018916e-002
    outer loop
      vertex   -7.234976e+001 7.999043e+001 1.000000e+000
      vertex   -7.323495e+001 7.575578e+001 1.000000e+000
      vertex   -7.294846e+001 7.560957e+001 1.000000e+000
    endloop
  endfacet
  facet normal -0.000000e+000 0.000000e+000 9.637136e-001
    outer loop
      vertex   -7.294846e+001 7.560957e+001 1.000000e+000
      vertex   -7.265297e+001 7.548254e+001 1.000000e+000
      vertex   -7.234976e+001 7.999043e+001 1.000000e+000
    endloop
  endfacet
  facet normal 0.000000e+000 0.000000e+000 6.710988e-002
    outer loop
      vertex   -7.234976e+001 7.999043e+001 1.000000e+000
      vertex   -7.265297e+001 7.548254e+001 1.000000e+000
      vertex   -7.234976e+001 7.537521e+001 1.000000e+000
    endloop
  endfacet
  facet normal 1.260747e-003 3.948178e-003 0.000000e+000
    outer loop
      vertex   -7.234976e+001 7.537521e+001 8.000000e+000
      vertex   -7.234976e+001 7.537521e+001 1.000000e+000
      vertex   -7.236555e+001 7.538026e+001 4.000000e+000
    endloop
  endfacet
  facet normal 3.559014e-002 1.005490e-001 1.833261e-005
    outer loop
      vertex   -7.236555e+001 7.538026e+001 4.000000e+000
      vertex   -7.234976e+001 7.537521e+001 1.000000e+000
      vertex   -7.265297e+001 7.548254e+001 1.000000e+000
    endloop
  endfacet
  facet normal 3.359364e-001 9.364356e-001 -2.582288e-004
    outer loop
      vertex   -7.236555e+001 7.538026e+001 4.000000e+000
      vertex   -7.265297e+001 7.548254e+001 1.000000e+000
      vertex   -7.267616e+001 7.549168e+001 4.000000e+000
    endloop
  endfacet
  facet normal 4.213861e-002 9.801385e-002 2.691342e-005
    outer loop
      vertex   -7.267616e+001 7.549168e+001 4.000000e+000
      vertex   -7.265297e+001 7.548254e+001 1.000000e+000
      vertex   -7.294846e+001 7.560957e+001 1.000000e+000
    endloop
  endfacet
  facet normal 3.984972e-001 9.118730e-001 -3.359584e-004
    outer loop
      vertex   -7.267616e+001 7.549168e+001 4.000000e+000
      vertex   -7.294846e+001 7.560957e+001 1.000000e+000
      vertex   -7.297854e+001 7.562383e+001 4.000000e+000
    endloop
  endfacet
  facet normal 4.850998e-002 9.505313e-002 3.488056e-005
    outer loop
      vertex   -7.297854e+001 7.562383e+001 4.000000e+000
      vertex   -7.294846e+001 7.560957e+001 1.000000e+000
      vertex   -7.323495e+001 7.575578e+001 1.000000e+000
    endloop
  endfacet
  facet normal 4.592730e-001 8.831269e-001 -4.086355e-004
    outer loop
      vertex   -7.297854e+001 7.562383e+001 4.000000e+000
      vertex   -7.323495e+001 7.575578e+001 1.000000e+000
      vertex   -7.327130e+001 7.577608e+001 4.000000e+000
    endloop
  endfacet
  facet normal 5.467343e-002 9.167434e-002 4.238171e-005
    outer loop
      vertex   -7.327130e+001 7.577608e+001 4.000000e+000
      vertex   -7.323495e+001 7.575578e+001 1.000000e+000
      vertex   -7.351119e+001 7.592053e+001 1.000000e+000
    endloop
  endfacet
  facet normal 5.179821e-001 8.503276e-001 -4.750751e-004
    outer loop
      vertex   -7.327130e+001 7.577608e+001 4.000000e+000
      vertex   -7.351119e+001 7.592053e+001 1.000000e+000
      vertex   -7.355312e+001 7.594775e+001 4.000000e+000
    endloop
  endfacet
  facet normal 6.059818e-002 8.789509e-002 4.950259e-005
    outer loop
      vertex   -7.355312e+001 7.594775e+001 4.000000e+000
      vertex   -7.351119e+001 7.592053e+001 1.000000e+000
      vertex   -7.377599e+001 7.610310e+001 1.000000e+000
    endloop
  endfacet
  facet normal 5.743583e-001 8.136205e-001 -5.386041e-004
    outer loop
      vertex   -7.355312e+001 7.594775e+001 4.000000e+000
      vertex   -7.377599e+001 7.610310e+001 1.000000e+000
      vertex   -7.382270e+001 7.613805e+001 4.000000e+000
    endloop
  endfacet
  facet normal 6.626351e-002 8.373554e-002 5.592087e-005
    outer loop
      vertex   -7.382270e+001 7.613805e+001 4.000000e+000
      vertex   -7.377599e+001 7.610310e+001 1.000000e+000
      vertex   -7.402821e+001 7.630269e+001 1.000000e+000
    endloop
  endfacet
  facet normal 6.281158e-001 7.731914e-001 -5.972757e-004
    outer loop
      vertex   -7.382270e+001 7.613805e+001 4.000000e+000
      vertex   -7.402821e+001 7.630269e+001 1.000000e+000
      vertex   -7.407883e+001 7.634612e+001 4.000000e+000
    endloop
  endfacet
  facet normal 7.164370e-002 7.920582e-002 6.196502e-005
    outer loop
      vertex   -7.407883e+001 7.634612e+001 4.000000e+000
      vertex   -7.402821e+001 7.630269e+001 1.000000e+000
      vertex   -7.426675e+001 7.651845e+001 1.000000e+000
    endloop
  endfacet
  facet normal 6.790558e-001 7.291856e-001 -6.503009e-004
    outer loop
      vertex   -7.407883e+001 7.634612e+001 4.000000e+000
      vertex   -7.426675e+001 7.651845e+001 1.000000e+000
      vertex   -7.432031e+001 7.657101e+001 4.000000e+000
    endloop
  endfacet
  facet normal 7.671298e-002 7.433376e-002 6.743523e-005
    outer loop
      vertex   -7.432031e+001 7.657101e+001 4.000000e+000
      vertex   -7.426675e+001 7.651845e+001 1.000000e+000
      vertex   -7.449057e+001 7.674944e+001 1.000000e+000
    endloop
  endfacet
  facet normal 7.268932e-001 6.818455e-001 -6.994350e-004
    outer loop
      vertex   -7.432031e+001 7.657101e+001 4.000000e+000
      vertex   -7.449057e+001 7.674944e+001 1.000000e+000
      vertex   -7.454607e+001 7.681168e+001 4.000000e+000
    endloop
  endfacet
  facet normal 8.145072e-002 6.913466e-002 7.243932e-005
    outer loop
      vertex   -7.454607e+001 7.681168e+001 4.000000e+000
      vertex   -7.449057e+001 7.674944e+001 1.000000e+000
      vertex   -7.469871e+001 7.699465e+001 1.000000e+000
    endloop
  endfacet
  facet normal 7.714413e-001 6.313553e-001 -7.433398e-004
    outer loop
      vertex   -7.454607e+001 7.681168e+001 4.000000e+000
      vertex   -7.469871e+001 7.699465e+001 1.000000e+000
      vertex   -7.475507e+001 7.706705e+001 4.000000e+000
    endloop
  endfacet
  facet normal 8.583372e-002 6.363395e-002 7.688186e-005
    outer loop
      vertex   -7.475507e+001 7.706705e+001 4.000000e+000
      vertex   -7.469871e+001 7.699465e+001 1.000000e+000
      vertex   -7.489026e+001 7.725303e+001 1.000000e+000
    endloop
  endfacet
  facet normal 8.124755e-001 5.779653e-001 -7.833013e-004
    outer loop
      vertex   -7.475507e+001 7.706705e+001 4.000000e+000
      vertex   -7.489026e+001 7.725303e+001 1.000000e+000
      vertex   -7.494635e+001 7.733595e+001 4.000000e+000
    endloop
  endfacet
  facet normal 8.984644e-002 5.785457e-002 8.084001e-005
    outer loop
      vertex   -7.494635e+001 7.733595e+001 4.000000e+000
      vertex   -7.489026e+001 7.725303e+001 1.000000e+000
      vertex   -7.506439e+001 7.752345e+001 1.000000e+000
    endloop
  endfacet
  facet normal 8.498204e-001 5.219005e-001 -8.180592e-004
    outer loop
      vertex   -7.494635e+001 7.733595e+001 4.000000e+000
      vertex   -7.506439e+001 7.752345e+001 1.000000e+000
      vertex   -7.511904e+001 7.761714e+001 4.000000e+000
    endloop
  endfacet
  facet normal 9.347080e-002 5.182203e-002 8.432211e-005
    outer loop
      vertex   -7.511904e+001 7.761714e+001 4.000000e+000
      vertex   -7.506439e+001 7.752345e+001 1.000000e+000
      vertex   -7.522035e+001 7.780476e+001 1.000000e+000
    endloop
  endfacet
  facet normal 8.832887e-001 4.634383e-001 -8.463025e-004
    outer loop
      vertex   -7.511904e+001 7.761714e+001 4.000000e+000
      vertex   -7.522035e+001 7.780476e+001 1.000000e+000
      vertex   -7.527235e+001 7.790935e+001 4.000000e+000
    endloop
  endfacet
  facet normal 9.668371e-002 4.556190e-002 8.745351e-005
    outer loop
      vertex   -7.527235e+001 7.790935e+001 4.000000e+000
      vertex   -7.522035e+001 7.780476e+001 1.000000e+000
      vertex   -7.535746e+001 7.809570e+001 1.000000e+000
    endloop
  endfacet
  facet normal 9.127437e-001 4.028113e-001 -8.712441e-004
    outer loop
      vertex   -7.527235e+001 7.790935e+001 4.000000e+000
      vertex   -7.535746e+001 7.809570e+001 1.000000e+000
      vertex   -7.540559e+001 7.821124e+001 4.000000e+000
    endloop
  endfacet
  facet normal 9.947983e-002 3.910735e-002 8.971418e-005
    outer loop
      vertex   -7.540559e+001 7.821124e+001 4.000000e+000
      vertex   -7.535746e+001 7.809570e+001 1.000000e+000
      vertex   -7.547514e+001 7.839504e+001 1.000000e+000
    endloop
  endfacet
  facet normal 9.380285e-001 3.403378e-001 -8.951537e-004
    outer loop
      vertex   -7.540559e+001 7.821124e+001 4.000000e+000
      vertex   -7.547514e+001 7.839504e+001 1.000000e+000
      vertex   -7.551814e+001 7.852145e+001 4.000000e+000
    endloop
  endfacet
  facet normal 1.018463e-001 3.247386e-002 9.149835e-005
    outer loop
      vertex   -7.551814e+001 7.852145e+001 4.000000e+000
      vertex   -7.547514e+001 7.839504e+001 1.000000e+000
      vertex   -7.557285e+001 7.870148e+001 1.000000e+000
    endloop
  endfacet
  facet normal 9.590297e-001 2.763028e-001 -9.079182e-004
    outer loop
      vertex   -7.551814e+001 7.852145e+001 4.000000e+000
      vertex   -7.557285e+001 7.870148e+001 1.000000e+000
      vertex   -7.560949e+001 7.883853e+001 4.000000e+000
    endloop
  endfacet
  facet normal 1.037651e-001 2.570481e-002 9.320104e-005
    outer loop
      vertex   -7.560949e+001 7.883853e+001 4.000000e+000
      vertex   -7.557285e+001 7.870148e+001 1.000000e+000
      vertex   -7.565018e+001 7.901369e+001 1.000000e+000
    endloop
  endfacet
  facet normal 9.756619e-001 2.109595e-001 -9.179980e-004
    outer loop
      vertex   -7.560949e+001 7.883853e+001 4.000000e+000
      vertex   -7.565018e+001 7.901369e+001 1.000000e+000
      vertex   -7.567923e+001 7.916107e+001 4.000000e+000
    endloop
  endfacet
  facet normal 1.052336e-001 1.882333e-002 9.408417e-005
    outer loop
      vertex   -7.567923e+001 7.916107e+001 4.000000e+000
      vertex   -7.565018e+001 7.901369e+001 1.000000e+000
      vertex   -7.570682e+001 7.933030e+001 1.000000e+000
    endloop
  endfacet
  facet normal 9.878413e-001 1.446156e-001 -9.265008e-004
    outer loop
      vertex   -7.567923e+001 7.916107e+001 4.000000e+000
      vertex   -7.570682e+001 7.933030e+001 1.000000e+000
      vertex   -7.572703e+001 7.948757e+001 4.000000e+000
    endloop
  endfacet
  facet normal 1.062467e-001 1.185506e-002 9.426696e-005
    outer loop
      vertex   -7.572703e+001 7.948757e+001 4.000000e+000
      vertex   -7.570682e+001 7.933030e+001 1.000000e+000
      vertex   -7.574249e+001 7.964996e+001 1.000000e+000
    endloop
  endfacet
  facet normal 9.955023e-001 7.763726e-002 -9.268597e-004
    outer loop
      vertex   -7.572703e+001 7.948757e+001 4.000000e+000
      vertex   -7.574249e+001 7.964996e+001 1.000000e+000
      vertex   -7.575269e+001 7.981657e+001 4.000000e+000
    endloop
  endfacet
  facet normal 1.067966e-001 4.838367e-003 9.441817e-005
    outer loop
      vertex   -7.575269e+001 7.981657e+001 4.000000e+000
      vertex   -7.574249e+001 7.964996e+001 1.000000e+000
      vertex   -7.575704e+001 7.997127e+001 1.000000e+000
    endloop
  endfacet
  facet normal 9.005517e-002 2.535952e-003 0.000000e+000
    outer loop
      vertex   -7.575269e+001 7.981657e+001 4.000000e+000
      vertex   -7.575704e+001 7.997127e+001 1.000000e+000
      vertex   -7.575704e+001 7.997127e+001 8.000000e+000
    endloop
  endfacet
  facet normal 9.982284e-001 4.522426e-002 -6.618957e-004
    outer loop
      vertex   -7.575704e+001 7.997127e+001 8.000000e+000
      vertex   -7.574249e+001 7.964996e+001 8.000000e+000
      vertex   -7.575269e+001 7.981657e+001 4.000000e+000
    endloop
  endfacet
  facet normal 9.961058e-001 7.768433e-002 6.955662e-004
    outer loop
      vertex   -7.575269e+001 7.981657e+001 4.000000e+000
      vertex   -7.574249e+001 7.964996e+001 8.000000e+000
      vertex   -7.572703e+001 7.948757e+001 4.000000e+000
    endloop
  endfacet
  facet normal 9.930071e-001 1.108002e-001 -6.607815e-004
    outer loop
      vertex   -7.574249e+001 7.964996e+001 8.000000e+000
      vertex   -7.570682e+001 7.933030e+001 8.000000e+000
      vertex   -7.572703e+001 7.948757e+001 4.000000e+000
    endloop
  endfacet
  facet normal 9.886768e-001 1.447379e-001 6.954633e-004
    outer loop
      vertex   -7.572703e+001 7.948757e+001 4.000000e+000
      vertex   -7.570682e+001 7.933030e+001 8.000000e+000
      vertex   -7.567923e+001 7.916107e+001 4.000000e+000
    endloop
  endfacet
  facet normal 9.834732e-001 1.759156e-001 -6.594561e-004
    outer loop
      vertex   -7.570682e+001 7.933030e+001 8.000000e+000
      vertex   -7.565018e+001 7.901369e+001 8.000000e+000
      vertex   -7.567923e+001 7.916107e+001 4.000000e+000
    endloop
  endfacet
  facet normal 9.767245e-001 2.111893e-001 6.892483e-004
    outer loop
      vertex   -7.567923e+001 7.916107e+001 4.000000e+000
      vertex   -7.565018e+001 7.901369e+001 8.000000e+000
      vertex   -7.560949e+001 7.883853e+001 4.000000e+000
    endloop
  endfacet
  facet normal 9.696814e-001 2.402107e-001 -6.532206e-004
    outer loop
      vertex   -7.565018e+001 7.901369e+001 8.000000e+000
      vertex   -7.557285e+001 7.870148e+001 8.000000e+000
      vertex   -7.560949e+001 7.883853e+001 4.000000e+000
    endloop
  endfacet
  facet normal 9.603106e-001 2.766719e-001 6.818481e-004
    outer loop
      vertex   -7.560949e+001 7.883853e+001 4.000000e+000
      vertex   -7.557285e+001 7.870148e+001 8.000000e+000
      vertex   -7.551814e+001 7.852145e+001 4.000000e+000
    endloop
  endfacet
  facet normal 9.516888e-001 3.034476e-001 -6.412455e-004
    outer loop
      vertex   -7.557285e+001 7.870148e+001 8.000000e+000
      vertex   -7.547514e+001 7.839504e+001 8.000000e+000
      vertex   -7.551814e+001 7.852145e+001 4.000000e+000
    endloop
  endfacet
  facet normal 9.395157e-001 3.408774e-001 6.724297e-004
    outer loop
      vertex   -7.551814e+001 7.852145e+001 4.000000e+000
      vertex   -7.547514e+001 7.839504e+001 8.000000e+000
      vertex   -7.540559e+001 7.821124e+001 4.000000e+000
    endloop
  endfacet
  facet normal 9.295475e-001 3.654222e-001 -6.287224e-004
    outer loop
      vertex   -7.547514e+001 7.839504e+001 8.000000e+000
      vertex   -7.535746e+001 7.809570e+001 8.000000e+000
      vertex   -7.540559e+001 7.821124e+001 4.000000e+000
    endloop
  endfacet
  facet normal 9.144220e-001 4.035520e-001 6.546346e-004
    outer loop
      vertex   -7.540559e+001 7.821124e+001 4.000000e+000
      vertex   -7.535746e+001 7.809570e+001 8.000000e+000
      vertex   -7.527235e+001 7.790935e+001 4.000000e+000
    endloop
  endfacet
  facet normal 9.034049e-001 4.257267e-001 -6.128689e-004
    outer loop
      vertex   -7.535746e+001 7.809570e+001 8.000000e+000
      vertex   -7.522035e+001 7.780476e+001 8.000000e+000
      vertex   -7.527235e+001 7.790935e+001 4.000000e+000
    endloop
  endfacet
  facet normal 8.851395e-001 4.644094e-001 6.360569e-004
    outer loop
      vertex   -7.527235e+001 7.790935e+001 4.000000e+000
      vertex   -7.522035e+001 7.780476e+001 8.000000e+000
      vertex   -7.511904e+001 7.761714e+001 4.000000e+000
    endloop
  endfacet
  facet normal 8.733389e-001 4.841961e-001 -5.908940e-004
    outer loop
      vertex   -7.522035e+001 7.780476e+001 8.000000e+000
      vertex   -7.506439e+001 7.752345e+001 8.000000e+000
      vertex   -7.511904e+001 7.761714e+001 4.000000e+000
    endloop
  endfacet
  facet normal 8.518220e-001 5.231296e-001 6.149894e-004
    outer loop
      vertex   -7.511904e+001 7.761714e+001 4.000000e+000
      vertex   -7.506439e+001 7.752345e+001 8.000000e+000
      vertex   -7.494635e+001 7.733595e+001 4.000000e+000
    endloop
  endfacet
  facet normal 8.394821e-001 5.405654e-001 -5.664977e-004
    outer loop
      vertex   -7.506439e+001 7.752345e+001 8.000000e+000
      vertex   -7.489026e+001 7.725303e+001 8.000000e+000
      vertex   -7.494635e+001 7.733595e+001 4.000000e+000
    endloop
  endfacet
  facet normal 8.146032e-001 5.794788e-001 5.890144e-004
    outer loop
      vertex   -7.494635e+001 7.733595e+001 4.000000e+000
      vertex   -7.489026e+001 7.725303e+001 8.000000e+000
      vertex   -7.475507e+001 7.706705e+001 4.000000e+000
    endloop
  endfacet
  facet normal 8.019941e-001 5.945688e-001 -5.387638e-004
    outer loop
      vertex   -7.489026e+001 7.725303e+001 8.000000e+000
      vertex   -7.469871e+001 7.699465e+001 8.000000e+000
      vertex   -7.475507e+001 7.706705e+001 4.000000e+000
    endloop
  endfacet
  facet normal 7.736673e-001 6.331770e-001 5.591135e-004
    outer loop
      vertex   -7.475507e+001 7.706705e+001 4.000000e+000
      vertex   -7.469871e+001 7.699465e+001 8.000000e+000
      vertex   -7.454607e+001 7.681168e+001 4.000000e+000
    endloop
  endfacet
  facet normal 7.610448e-001 6.459682e-001 -5.076343e-004
    outer loop
      vertex   -7.469871e+001 7.699465e+001 8.000000e+000
      vertex   -7.449057e+001 7.674944e+001 8.000000e+000
      vertex   -7.454607e+001 7.681168e+001 4.000000e+000
    endloop
  endfacet
  facet normal 7.291869e-001 6.839970e-001 5.262315e-004
    outer loop
      vertex   -7.454607e+001 7.681168e+001 4.000000e+000
      vertex   -7.449057e+001 7.674944e+001 8.000000e+000
      vertex   -7.432031e+001 7.657101e+001 4.000000e+000
    endloop
  endfacet
  facet normal 7.167946e-001 6.945634e-001 -4.725785e-004
    outer loop
      vertex   -7.449057e+001 7.674944e+001 8.000000e+000
      vertex   -7.426675e+001 7.651845e+001 8.000000e+000
      vertex   -7.432031e+001 7.657101e+001 4.000000e+000
    endloop
  endfacet
  facet normal 6.813840e-001 7.316857e-001 4.893978e-004
    outer loop
      vertex   -7.432031e+001 7.657101e+001 4.000000e+000
      vertex   -7.426675e+001 7.651845e+001 8.000000e+000
      vertex   -7.407883e+001 7.634612e+001 4.000000e+000
    endloop
  endfacet
  facet normal 6.694584e-001 7.401208e-001 -4.342636e-004
    outer loop
      vertex   -7.426675e+001 7.651845e+001 8.000000e+000
      vertex   -7.402821e+001 7.630269e+001 8.000000e+000
      vertex   -7.407883e+001 7.634612e+001 4.000000e+000
    endloop
  endfacet
  facet normal 6.304432e-001 7.760563e-001 4.496166e-004
    outer loop
      vertex   -7.407883e+001 7.634612e+001 4.000000e+000
      vertex   -7.402821e+001 7.630269e+001 8.000000e+000
      vertex   -7.382270e+001 7.613805e+001 4.000000e+000
    endloop
  endfacet
  facet normal 6.192065e-001 7.824757e-001 -3.919189e-004
    outer loop
      vertex   -7.402821e+001 7.630269e+001 8.000000e+000
      vertex   -7.377599e+001 7.610310e+001 8.000000e+000
      vertex   -7.382270e+001 7.613805e+001 4.000000e+000
    endloop
  endfacet
  facet normal 5.766473e-001 8.168631e-001 4.055630e-004
    outer loop
      vertex   -7.382270e+001 7.613805e+001 4.000000e+000
      vertex   -7.377599e+001 7.610310e+001 8.000000e+000
      vertex   -7.355312e+001 7.594775e+001 4.000000e+000
    endloop
  endfacet
  facet normal 5.663069e-001 8.214041e-001 -3.469616e-004
    outer loop
      vertex   -7.377599e+001 7.610310e+001 8.000000e+000
      vertex   -7.351119e+001 7.592053e+001 8.000000e+000
      vertex   -7.355312e+001 7.594775e+001 4.000000e+000
    endloop
  endfacet
  facet normal 5.201931e-001 8.539573e-001 3.578272e-004
    outer loop
      vertex   -7.355312e+001 7.594775e+001 4.000000e+000
      vertex   -7.351119e+001 7.592053e+001 8.000000e+000
      vertex   -7.327130e+001 7.577608e+001 4.000000e+000
    endloop
  endfacet
  facet normal 5.109621e-001 8.567618e-001 -2.970654e-004
    outer loop
      vertex   -7.351119e+001 7.592053e+001 8.000000e+000
      vertex   -7.323495e+001 7.575578e+001 8.000000e+000
      vertex   -7.327130e+001 7.577608e+001 4.000000e+000
    endloop
  endfacet
  facet normal 4.613649e-001 8.871495e-001 3.078726e-004
    outer loop
      vertex   -7.327130e+001 7.577608e+001 4.000000e+000
      vertex   -7.323495e+001 7.575578e+001 8.000000e+000
      vertex   -7.297854e+001 7.562383e+001 4.000000e+000
    endloop
  endfacet
  facet normal 4.533939e-001 8.884050e-001 -2.445059e-004
    outer loop
      vertex   -7.323495e+001 7.575578e+001 8.000000e+000
      vertex   -7.294846e+001 7.560957e+001 8.000000e+000
      vertex   -7.297854e+001 7.562383e+001 4.000000e+000
    endloop
  endfacet
  facet normal 4.004277e-001 9.162906e-001 2.531895e-004
    outer loop
      vertex   -7.297854e+001 7.562383e+001 4.000000e+000
      vertex   -7.294846e+001 7.560957e+001 8.000000e+000
      vertex   -7.267616e+001 7.549168e+001 4.000000e+000
    endloop
  endfacet
  facet normal 3.938875e-001 9.161769e-001 -1.886784e-004
    outer loop
      vertex   -7.294846e+001 7.560957e+001 8.000000e+000
      vertex   -7.265297e+001 7.548254e+001 8.000000e+000
      vertex   -7.267616e+001 7.549168e+001 4.000000e+000
    endloop
  endfacet
  facet normal 3.376623e-001 9.412467e-001 1.946666e-004
    outer loop
      vertex   -7.267616e+001 7.549168e+001 4.000000e+000
      vertex   -7.265297e+001 7.548254e+001 8.000000e+000
      vertex   -7.236555e+001 7.538026e+001 4.000000e+000
    endloop
  endfacet
  facet normal 3.327062e-001 9.399593e-001 -1.285336e-004
    outer loop
      vertex   -7.265297e+001 7.548254e+001 8.000000e+000
      vertex   -7.234976e+001 7.537521e+001 8.000000e+000
      vertex   -7.236555e+001 7.538026e+001 4.000000e+000
    endloop
  endfacet
  facet normal 0.000000e+000 0.000000e+000 -9.426891e-001
    outer loop
      vertex   -7.234976e+001 7.537521e+001 8.000000e+000
      vertex   -7.265297e+001 7.548254e+001 8.000000e+000
      vertex   -7.234976e+001 7.999043e+001 8.000000e+000
    endloop
  endfacet
  facet normal 0.000000e+000 0.000000e+000 -6.860586e-002
    outer loop
      vertex   -7.234976e+001 7.999043e+001 8.000000e+000
      vertex   -7.265297e+001 7.548254e+001 8.000000e+000
      vertex   -7.294846e+001 7.560957e+001 8.000000e+000
    endloop
  endfacet
  facet normal 0.000000e+000 0.000000e+000 -7.018916e-002
    outer loop
      vertex   -7.234976e+001 7.999043e+001 8.000000e+000
      vertex   -7.294846e+001 7.560957e+001 8.000000e+000
      vertex   -7.323495e+001 7.575578e+001 8.000000e+000
    endloop
  endfacet
  facet normal 0.000000e+000 0.000000e+000 -9.454927e-001
    outer loop
      vertex   -7.323495e+001 7.575578e+001 8.000000e+000
      vertex   -7.351119e+001 7.592053e+001 8.000000e+000
      vertex   -7.234976e+001 7.999043e+001 8.000000e+000
    endloop
  endfacet
  facet normal 0.000000e+000 0.000000e+000 -7.359467e-002
    outer loop
      vertex   -7.234976e+001 7.999043e+001 8.000000e+000
      vertex   -7.351119e+001 7.592053e+001 8.000000e+000
      vertex   -7.377599e+001 7.610310e+001 8.000000e+000
    endloop
  endfacet
  facet normal 0.000000e+000 0.000000e+000 -7.540814e-002
    outer loop
      vertex   -7.234976e+001 7.999043e+001 8.000000e+000
      vertex   -7.377599e+001 7.610310e+001 8.000000e+000
      vertex   -7.402821e+001 7.630269e+001 8.000000e+000
    endloop
  endfacet
  facet normal 0.000000e+000 0.000000e+000 -9.528853e-001
    outer loop
      vertex   -7.402821e+001 7.630269e+001 8.000000e+000
      vertex   -7.426675e+001 7.651845e+001 8.000000e+000
      vertex   -7.234976e+001 7.999043e+001 8.000000e+000
    endloop
  endfacet
  facet normal 0.000000e+000 0.000000e+000 -7.918964e-002
    outer loop
      vertex   -7.234976e+001 7.999043e+001 8.000000e+000
      vertex   -7.426675e+001 7.651845e+001 8.000000e+000
      vertex   -7.449057e+001 7.674944e+001 8.000000e+000
    endloop
  endfacet
  facet normal 0.000000e+000 0.000000e+000 -8.112270e-002
    outer loop
      vertex   -7.234976e+001 7.999043e+001 8.000000e+000
      vertex   -7.449057e+001 7.674944e+001 8.000000e+000
      vertex   -7.469871e+001 7.699465e+001 8.000000e+000
    endloop
  endfacet
  facet normal 0.000000e+000 0.000000e+000 -9.643332e-001
    outer loop
      vertex   -7.469871e+001 7.699465e+001 8.000000e+000
      vertex   -7.489026e+001 7.725303e+001 8.000000e+000
      vertex   -7.234976e+001 7.999043e+001 8.000000e+000
    endloop
  endfacet
  facet normal 0.000000e+000 0.000000e+000 -7.281331e-001
    outer loop
      vertex   -7.234976e+001 7.999043e+001 8.000000e+000
      vertex   -7.489026e+001 7.725303e+001 8.000000e+000
      vertex   -7.505061e+001 7.997127e+001 8.000000e+000
    endloop
  endfacet
  facet normal 0.000000e+000 -0.000000e+000 -6.450822e-002
    outer loop
      vertex   -7.505061e+001 7.997127e+001 8.000000e+000
      vertex   -7.489026e+001 7.725303e+001 8.000000e+000
      vertex   -7.506439e+001 7.752345e+001 8.000000e+000
    endloop
  endfacet
  facet normal 0.000000e+000 0.000000e+000 -7.249469e-002
    outer loop
      vertex   -7.505061e+001 7.997127e+001 8.000000e+000
      vertex   -7.506439e+001 7.752345e+001 8.000000e+000
      vertex   -7.522035e+001 7.780476e+001 8.000000e+000
    endloop
  endfacet
  facet normal 0.000000e+000 0.000000e+000 -4.956404e-001
    outer loop
      vertex   -7.522035e+001 7.780476e+001 8.000000e+000
      vertex   -7.535746e+001 7.809570e+001 8.000000e+000
      vertex   -7.505061e+001 7.997127e+001 8.000000e+000
    endloop
  endfacet
  facet normal 0.000000e+000 0.000000e+000 -1.007496e-001
    outer loop
      vertex   -7.505061e+001 7.997127e+001 8.000000e+000
      vertex   -7.535746e+001 7.809570e+001 8.000000e+000
      vertex   -7.547514e+001 7.839504e+001 8.000000e+000
    endloop
  endfacet
  facet normal 0.000000e+000 0.000000e+000 -1.267624e-001
    outer loop
      vertex   -7.505061e+001 7.997127e+001 8.000000e+000
      vertex   -7.547514e+001 7.839504e+001 8.000000e+000
      vertex   -7.557285e+001 7.870148e+001 8.000000e+000
    endloop
  endfacet
  facet normal 0.000000e+000 0.000000e+000 -5.915884e-001
    outer loop
      vertex   -7.557285e+001 7.870148e+001 8.000000e+000
      vertex   -7.565018e+001 7.901369e+001 8.000000e+000
      vertex   -7.505061e+001 7.997127e+001 8.000000e+000
    endloop
  endfacet
  facet normal 0.000000e+000 0.000000e+000 -2.354978e-001
    outer loop
      vertex   -7.505061e+001 7.997127e+001 8.000000e+000
      vertex   -7.565018e+001 7.901369e+001 8.000000e+000
      vertex   -7.570682e+001 7.933030e+001 8.000000e+000
    endloop
  endfacet
  facet normal 0.000000e+000 0.000000e+000 -3.324304e-001
    outer loop
      vertex   -7.505061e+001 7.997127e+001 8.000000e+000
      vertex   -7.570682e+001 7.933030e+001 8.000000e+000
      vertex   -7.574249e+001 7.964996e+001 8.000000e+000
    endloop
  endfacet
  facet normal 0.000000e+000 0.000000e+000 -9.251012e-001
    outer loop
      vertex   -7.574249e+001 7.964996e+001 8.000000e+000
      vertex   -7.575704e+001 7.997127e+001 8.000000e+000
      vertex   -7.505061e+001 7.997127e+001 8.000000e+000
    endloop
  endfacet
  facet normal -1.075914e-015 0.000000e+000 -9.600919e-001
    outer loop
      vertex   -7.234976e+001 7.433491e+001 0.000000e+000
      vertex   -7.268533e+001 7.443266e+001 3.760534e-016
      vertex   -7.234976e+001 7.999043e+001 0.000000e+000
    endloop
  endfacet
  facet normal -6.416554e-017 -2.697021e-019 -6.124410e-002
    outer loop
      vertex   -7.234976e+001 7.999043e+001 0.000000e+000
      vertex   -7.268533e+001 7.443266e+001 3.760534e-016
      vertex   -7.301451e+001 7.455017e+001 7.204161e-016
    endloop
  endfacet
  facet normal -6.064576e-017 -8.340007e-019 -6.225762e-002
    outer loop
      vertex   -7.234976e+001 7.999043e+001 0.000000e+000
      vertex   -7.301451e+001 7.455017e+001 7.204161e-016
      vertex   -7.333613e+001 7.468701e+001 1.031873e-015
    endloop
  endfacet
  facet normal -8.656396e-016 -2.611106e-017 -9.616639e-001
    outer loop
      vertex   -7.333613e+001 7.468701e+001 1.031873e-015
      vertex   -7.364906e+001 7.484270e+001 1.309327e-015
      vertex   -7.234976e+001 7.999043e+001 0.000000e+000
    endloop
  endfacet
  facet normal -5.320232e-017 -2.950909e-018 -6.439636e-002
    outer loop
      vertex   -7.234976e+001 7.999043e+001 0.000000e+000
      vertex   -7.364906e+001 7.484270e+001 1.309327e-015
      vertex   -7.395219e+001 7.501670e+001 1.551798e-015
    endloop
  endfacet
  facet normal -4.930295e-017 -4.554712e-018 -6.551016e-002
    outer loop
      vertex   -7.234976e+001 7.999043e+001 0.000000e+000
      vertex   -7.395219e+001 7.501670e+001 1.551798e-015
      vertex   -7.424446e+001 7.520838e+001 1.758431e-015
    endloop
  endfacet
  facet normal -6.564735e-016 -9.500496e-017 -9.657120e-001
    outer loop
      vertex   -7.424446e+001 7.520838e+001 1.758431e-015
      vertex   -7.452484e+001 7.541708e+001 1.928497e-015
      vertex   -7.234976e+001 7.999043e+001 0.000000e+000
    endloop
  endfacet
  facet normal -4.124165e-017 -8.979235e-018 -6.780878e-002
    outer loop
      vertex   -7.234976e+001 7.999043e+001 0.000000e+000
      vertex   -7.452484e+001 7.541708e+001 1.928497e-015
      vertex   -7.479234e+001 7.564205e+001 2.061397e-015
    endloop
  endfacet
  facet normal -3.712852e-017 -1.184185e-017 -6.897359e-002
    outer loop
      vertex   -7.234976e+001 7.999043e+001 0.000000e+000
      vertex   -7.479234e+001 7.564205e+001 2.061397e-015
      vertex   -7.504600e+001 7.588250e+001 2.156662e-015
    endloop
  endfacet
  facet normal 3.113130e-018 -4.388943e-016 -8.320966e-001
    outer loop
      vertex   -7.234976e+001 7.999043e+001 0.000000e+000
      vertex   -7.504600e+001 7.588250e+001 2.156662e-015
      vertex   -7.505061e+001 7.997127e+001 0.000000e+000
    endloop
  endfacet
  facet normal -4.994820e-017 -3.283100e-017 -6.213685e-002
    outer loop
      vertex   -7.505061e+001 7.997127e+001 0.000000e+000
      vertex   -7.504600e+001 7.588250e+001 2.156662e-015
      vertex   -7.528494e+001 7.613759e+001 2.213956e-015
    endloop
  endfacet
  facet normal -4.842362e-017 -3.550130e-017 -6.659935e-002
    outer loop
      vertex   -7.505061e+001 7.997127e+001 0.000000e+000
      vertex   -7.528494e+001 7.613759e+001 2.213956e-015
      vertex   -7.550832e+001 7.640641e+001 2.233076e-015
    endloop
  endfacet
  facet normal -4.463317e-016 -3.749877e-016 -6.901116e-001
    outer loop
      vertex   -7.550832e+001 7.640641e+001 2.233076e-015
      vertex   -7.571535e+001 7.668802e+001 2.213956e-015
      vertex   -7.505061e+001 7.997127e+001 0.000000e+000
    endloop
  endfacet
  facet normal -4.430092e-017 -4.402587e-017 -7.859095e-002
    outer loop
      vertex   -7.505061e+001 7.997127e+001 0.000000e+000
      vertex   -7.571535e+001 7.668802e+001 2.213956e-015
      vertex   -7.590530e+001 7.698142e+001 2.156662e-015
    endloop
  endfacet
  facet normal -4.151016e-017 -5.064142e-017 -8.665630e-002
    outer loop
      vertex   -7.505061e+001 7.997127e+001 0.000000e+000
      vertex   -7.590530e+001 7.698142e+001 2.156662e-015
      vertex   -7.607749e+001 7.728558e+001 2.061397e-015
    endloop
  endfacet
  facet normal -2.886010e-016 -4.513422e-016 -7.317963e-001
    outer loop
      vertex   -7.607749e+001 7.728558e+001 2.061397e-015
      vertex   -7.623133e+001 7.759943e+001 1.928497e-015
      vertex   -7.505061e+001 7.997127e+001 0.000000e+000
    endloop
  endfacet
  facet normal -3.384964e-017 -7.144657e-017 -1.085957e-001
    outer loop
      vertex   -7.505061e+001 7.997127e+001 0.000000e+000
      vertex   -7.623133e+001 7.759943e+001 1.928497e-015
      vertex   -7.636626e+001 7.792185e+001 1.758431e-015
    endloop
  endfacet
  facet normal -2.873834e-017 -8.718985e-017 -1.231199e-001
    outer loop
      vertex   -7.505061e+001 7.997127e+001 0.000000e+000
      vertex   -7.636626e+001 7.792185e+001 1.758431e-015
      vertex   -7.648181e+001 7.825172e+001 1.551798e-015
    endloop
  endfacet
  facet normal -1.338790e-016 -6.338511e-016 -8.258440e-001
    outer loop
      vertex   -7.648181e+001 7.825172e+001 1.551798e-015
      vertex   -7.657758e+001 7.858787e+001 1.309327e-015
      vertex   -7.505061e+001 7.997127e+001 0.000000e+000
    endloop
  endfacet
  facet normal -1.598297e-017 -1.327039e-016 -1.588512e-001
    outer loop
      vertex   -7.505061e+001 7.997127e+001 0.000000e+000
      vertex   -7.657758e+001 7.858787e+001 1.309327e-015
      vertex   -7.665323e+001 7.892910e+001 1.031873e-015
    endloop
  endfacet
  facet normal -9.171702e-018 -1.617663e-016 -1.776249e-001
    outer loop
      vertex   -7.505061e+001 7.997127e+001 0.000000e+000
      vertex   -7.665323e+001 7.892910e+001 1.031873e-015
      vertex   -7.670848e+001 7.927422e+001 7.204161e-016
    endloop
  endfacet
  facet normal -1.674431e-017 -9.479530e-016 -9.557327e-001
    outer loop
      vertex   -7.670848e+001 7.927422e+001 7.204161e-016
      vertex   -7.674315e+001 7.962202e+001 3.760534e-016
      vertex   -7.505061e+001 7.997127e+001 0.000000e+000
    endloop
  endfacet
  facet normal -0.000000e+000 -2.175984e-016 -2.020850e-001
    outer loop
      vertex   -7.505061e+001 7.997127e+001 0.000000e+000
      vertex   -7.674315e+001 7.962202e+001 3.760534e-016
      vertex   -7.675711e+001 7.997127e+001 0.000000e+000
    endloop
  endfacet
  facet normal 1.289525e-001 0.000000e+000 0.000000e+000
    outer loop
      vertex   -7.234976e+001 7.537521e+001 8.000000e+000
      vertex   -7.234976e+001 7.433491e+001 0.000000e+000
      vertex   -7.234976e+001 7.537521e+001 1.000000e+000
    endloop
  endfacet
  facet normal 8.299523e-001 0.000000e+000 0.000000e+000
    outer loop
      vertex   -7.234976e+001 7.537521e+001 1.000000e+000
      vertex   -7.234976e+001 7.433491e+001 0.000000e+000
      vertex   -7.234976e+001 7.999043e+001 0.000000e+000
    endloop
  endfacet
  facet normal 2.117609e-001 -0.000000e+000 0.000000e+000
    outer loop
      vertex   -7.234976e+001 7.537521e+001 1.000000e+000
      vertex   -7.234976e+001 7.999043e+001 0.000000e+000
      vertex   -7.234976e+001 7.999043e+001 1.000000e+000
    endloop
  endfacet
  facet normal 1.000000e+000 0.000000e+000 -0.000000e+000
    outer loop
      vertex   -7.234976e+001 7.999043e+001 8.000000e+000
      vertex   -7.234976e+001 7.999043e+001 9.000000e+000
      vertex   -7.234976e+001 7.537521e+001 8.000000e+000
    endloop
  endfacet
  facet normal 8.299523e-001 0.000000e+000 -0.000000e+000
    outer loop
      vertex   -7.234976e+001 7.537521e+001 8.000000e+000
      vertex   -7.234976e+001 7.999043e+001 9.000000e+000
      vertex   -7.234976e+001 7.433491e+001 9.000000e+000
    endloop
  endfacet
  facet normal 8.042802e-001 0.000000e+000 0.000000e+000
    outer loop
      vertex   -7.234976e+001 7.537521e+001 8.000000e+000
      vertex   -7.234976e+001 7.433491e+001 9.000000e+000
      vertex   -7.234976e+001 7.433491e+001 0.000000e+000
    endloop
  endfacet
  facet normal -9.991977e-001 -3.994521e-002 8.856293e-005
    outer loop
      vertex   -7.674315e+001 7.962202e+001 3.760534e-016
      vertex   -7.674223e+001 7.960910e+001 4.500000e+000
      vertex   -7.675711e+001 7.997127e+001 0.000000e+000
    endloop
  endfacet
  facet normal -4.151100e-002 -1.747778e-003 -3.425740e-006
    outer loop
      vertex   -7.675711e+001 7.997127e+001 0.000000e+000
      vertex   -7.674223e+001 7.960910e+001 4.500000e+000
      vertex   -7.674315e+001 7.962202e+001 9.000000e+000
    endloop
  endfacet
  facet normal -3.877557e-002 -1.550142e-003 0.000000e+000
    outer loop
      vertex   -7.675711e+001 7.997127e+001 0.000000e+000
      vertex   -7.674315e+001 7.962202e+001 9.000000e+000
      vertex   -7.675711e+001 7.997127e+001 9.000000e+000
    endloop
  endfacet
  facet normal -9.950648e-001 -9.918561e-002 -8.241890e-005
    outer loop
      vertex   -7.674315e+001 7.962202e+001 3.760534e-016
      vertex   -7.670848e+001 7.927422e+001 7.204161e-016
      vertex   -7.674223e+001 7.960910e+001 4.500000e+000
    endloop
  endfacet
  facet normal -9.919640e-001 -1.021979e-001 1.650046e-004
    outer loop
      vertex   -7.674223e+001 7.960910e+001 4.500000e+000
      vertex   -7.670848e+001 7.927422e+001 7.204161e-016
      vertex   -7.670509e+001 7.924854e+001 4.500000e+000
    endloop
  endfacet
  facet normal -9.919640e-001 -1.021979e-001 -1.650046e-004
    outer loop
      vertex   -7.674223e+001 7.960910e+001 4.500000e+000
      vertex   -7.670509e+001 7.924854e+001 4.500000e+000
      vertex   -7.670848e+001 7.927422e+001 9.000000e+000
    endloop
  endfacet
  facet normal -9.874098e-001 -1.580781e-001 1.574227e-004
    outer loop
      vertex   -7.670848e+001 7.927422e+001 9.000000e+000
      vertex   -7.670509e+001 7.924854e+001 4.500000e+000
      vertex   -7.665323e+001 7.892910e+001 9.000000e+000
    endloop
  endfacet
  facet normal -7.925674e-002 -1.313562e-002 -1.910244e-005
    outer loop
      vertex   -7.665323e+001 7.892910e+001 9.000000e+000
      vertex   -7.670509e+001 7.924854e+001 4.500000e+000
      vertex   -7.664582e+001 7.889095e+001 4.500000e+000
    endloop
  endfacet
  facet normal -9.762620e-001 -2.164208e-001 2.278139e-004
    outer loop
      vertex   -7.665323e+001 7.892910e+001 9.000000e+000
      vertex   -7.664582e+001 7.889095e+001 4.500000e+000
      vertex   -7.657758e+001 7.858787e+001 9.000000e+000
    endloop
  endfacet
  facet normal -7.831147e-002 -1.799525e-002 -2.448782e-005
    outer loop
      vertex   -7.657758e+001 7.858787e+001 9.000000e+000
      vertex   -7.664582e+001 7.889095e+001 4.500000e+000
      vertex   -7.656464e+001 7.853768e+001 4.500000e+000
    endloop
  endfacet
  facet normal -9.616634e-001 -2.739908e-001 2.904771e-004
    outer loop
      vertex   -7.657758e+001 7.858787e+001 9.000000e+000
      vertex   -7.656464e+001 7.853768e+001 4.500000e+000
      vertex   -7.648181e+001 7.825172e+001 9.000000e+000
    endloop
  endfacet
  facet normal -7.706860e-002 -2.278345e-002 -2.918306e-005
    outer loop
      vertex   -7.648181e+001 7.825172e+001 9.000000e+000
      vertex   -7.656464e+001 7.853768e+001 4.500000e+000
      vertex   -7.646188e+001 7.819008e+001 4.500000e+000
    endloop
  endfacet
  facet normal -9.436717e-001 -3.305699e-001 3.494847e-004
    outer loop
      vertex   -7.648181e+001 7.825172e+001 9.000000e+000
      vertex   -7.646188e+001 7.819008e+001 4.500000e+000
      vertex   -7.636626e+001 7.792185e+001 9.000000e+000
    endloop
  endfacet
  facet normal -7.552801e-002 -2.748980e-002 -3.355378e-005
    outer loop
      vertex   -7.636626e+001 7.792185e+001 9.000000e+000
      vertex   -7.646188e+001 7.819008e+001 4.500000e+000
      vertex   -7.633791e+001 7.784947e+001 4.500000e+000
    endloop
  endfacet
  facet normal -9.223441e-001 -3.859833e-001 3.989588e-004
    outer loop
      vertex   -7.636626e+001 7.792185e+001 9.000000e+000
      vertex   -7.633791e+001 7.784947e+001 4.500000e+000
      vertex   -7.623133e+001 7.759943e+001 9.000000e+000
    endloop
  endfacet
  facet normal -7.370322e-002 -3.209034e-002 -3.740569e-005
    outer loop
      vertex   -7.623133e+001 7.759943e+001 9.000000e+000
      vertex   -7.633791e+001 7.784947e+001 4.500000e+000
      vertex   -7.619321e+001 7.751714e+001 4.500000e+000
    endloop
  endfacet
  facet normal -8.977487e-001 -4.400468e-001 4.435768e-004
    outer loop
      vertex   -7.623133e+001 7.759943e+001 9.000000e+000
      vertex   -7.619321e+001 7.751714e+001 4.500000e+000
      vertex   -7.607749e+001 7.728558e+001 9.000000e+000
    endloop
  endfacet
  facet normal -7.159588e-002 -3.657126e-002 -4.064185e-005
    outer loop
      vertex   -7.607749e+001 7.728558e+001 9.000000e+000
      vertex   -7.619321e+001 7.751714e+001 4.500000e+000
      vertex   -7.602833e+001 7.719434e+001 4.500000e+000
    endloop
  endfacet
  facet normal -8.699908e-001 -4.925300e-001 4.822417e-004
    outer loop
      vertex   -7.607749e+001 7.728558e+001 9.000000e+000
      vertex   -7.602833e+001 7.719434e+001 4.500000e+000
      vertex   -7.590530e+001 7.698142e+001 9.000000e+000
    endloop
  endfacet
  facet normal -6.921449e-002 -4.091370e-002 -4.344656e-005
    outer loop
      vertex   -7.590530e+001 7.698142e+001 9.000000e+000
      vertex   -7.602833e+001 7.719434e+001 4.500000e+000
      vertex   -7.584388e+001 7.688230e+001 4.500000e+000
    endloop
  endfacet
  facet normal -8.391684e-001 -5.432544e-001 5.131298e-004
    outer loop
      vertex   -7.590530e+001 7.698142e+001 9.000000e+000
      vertex   -7.584388e+001 7.688230e+001 4.500000e+000
      vertex   -7.571535e+001 7.668802e+001 9.000000e+000
    endloop
  endfacet
  facet normal -6.656924e-002 -4.509879e-002 -4.580207e-005
    outer loop
      vertex   -7.571535e+001 7.668802e+001 9.000000e+000
      vertex   -7.584388e+001 7.688230e+001 4.500000e+000
      vertex   -7.564058e+001 7.658221e+001 4.500000e+000
    endloop
  endfacet
  facet normal -8.053635e-001 -5.920822e-001 5.385123e-004
    outer loop
      vertex   -7.571535e+001 7.668802e+001 9.000000e+000
      vertex   -7.564058e+001 7.658221e+001 4.500000e+000
      vertex   -7.550832e+001 7.640641e+001 9.000000e+000
    endloop
  endfacet
  facet normal -6.367034e-002 -4.911610e-002 -4.756849e-005
    outer loop
      vertex   -7.550832e+001 7.640641e+001 9.000000e+000
      vertex   -7.564058e+001 7.658221e+001 4.500000e+000
      vertex   -7.541918e+001 7.629521e+001 4.500000e+000
    endloop
  endfacet
  facet normal -7.687315e-001 -6.387878e-001 5.569016e-004
    outer loop
      vertex   -7.550832e+001 7.640641e+001 9.000000e+000
      vertex   -7.541918e+001 7.629521e+001 4.500000e+000
      vertex   -7.528494e+001 7.613759e+001 9.000000e+000
    endloop
  endfacet
  facet normal -6.052807e-002 -5.294345e-002 -4.886226e-005
    outer loop
      vertex   -7.528494e+001 7.613759e+001 9.000000e+000
      vertex   -7.541918e+001 7.629521e+001 4.500000e+000
      vertex   -7.518054e+001 7.602238e+001 4.500000e+000
    endloop
  endfacet
  facet normal -7.293885e-001 -6.832277e-001 5.692989e-004
    outer loop
      vertex   -7.528494e+001 7.613759e+001 9.000000e+000
      vertex   -7.518054e+001 7.602238e+001 4.500000e+000
      vertex   -7.504600e+001 7.588250e+001 9.000000e+000
    endloop
  endfacet
  facet normal -5.715609e-002 -5.657043e-002 -4.962696e-005
    outer loop
      vertex   -7.504600e+001 7.588250e+001 9.000000e+000
      vertex   -7.518054e+001 7.602238e+001 4.500000e+000
      vertex   -7.492556e+001 7.576476e+001 4.500000e+000
    endloop
  endfacet
  facet normal -6.874691e-001 -7.252498e-001 5.758797e-004
    outer loop
      vertex   -7.504600e+001 7.588250e+001 9.000000e+000
      vertex   -7.492556e+001 7.576476e+001 4.500000e+000
      vertex   -7.479234e+001 7.564205e+001 9.000000e+000
    endloop
  endfacet
  facet normal -5.356469e-002 -5.998332e-002 -4.988773e-005
    outer loop
      vertex   -7.479234e+001 7.564205e+001 9.000000e+000
      vertex   -7.492556e+001 7.576476e+001 4.500000e+000
      vertex   -7.465520e+001 7.552333e+001 4.500000e+000
    endloop
  endfacet
  facet normal -6.431401e-001 -7.646886e-001 5.745354e-004
    outer loop
      vertex   -7.479234e+001 7.564205e+001 9.000000e+000
      vertex   -7.465520e+001 7.552333e+001 4.500000e+000
      vertex   -7.452484e+001 7.541708e+001 9.000000e+000
    endloop
  endfacet
  facet normal -4.977099e-002 -6.316502e-002 -4.969618e-005
    outer loop
      vertex   -7.452484e+001 7.541708e+001 9.000000e+000
      vertex   -7.465520e+001 7.552333e+001 4.500000e+000
      vertex   -7.437049e+001 7.529900e+001 4.500000e+000
    endloop
  endfacet
  facet normal -5.965273e-001 -8.014323e-001 5.686839e-004
    outer loop
      vertex   -7.452484e+001 7.541708e+001 9.000000e+000
      vertex   -7.437049e+001 7.529900e+001 4.500000e+000
      vertex   -7.424446e+001 7.520838e+001 9.000000e+000
    endloop
  endfacet
  facet normal -4.578702e-002 -6.610860e-002 -4.885528e-005
    outer loop
      vertex   -7.424446e+001 7.520838e+001 9.000000e+000
      vertex   -7.437049e+001 7.529900e+001 4.500000e+000
      vertex   -7.407251e+001 7.509261e+001 4.500000e+000
    endloop
  endfacet
  facet normal -5.478371e-001 -8.353186e-001 5.560495e-004
    outer loop
      vertex   -7.424446e+001 7.520838e+001 9.000000e+000
      vertex   -7.407251e+001 7.509261e+001 4.500000e+000
      vertex   -7.395219e+001 7.501670e+001 9.000000e+000
    endloop
  endfacet
  facet normal -4.162823e-002 -6.879871e-002 -4.759044e-005
    outer loop
      vertex   -7.395219e+001 7.501670e+001 9.000000e+000
      vertex   -7.407251e+001 7.509261e+001 4.500000e+000
      vertex   -7.376239e+001 7.490497e+001 4.500000e+000
    endloop
  endfacet
  facet normal -4.972118e-001 -8.662509e-001 5.367843e-004
    outer loop
      vertex   -7.395219e+001 7.501670e+001 9.000000e+000
      vertex   -7.376239e+001 7.490497e+001 4.500000e+000
      vertex   -7.364906e+001 7.484270e+001 9.000000e+000
    endloop
  endfacet
  facet normal -3.731176e-002 -7.122678e-002 -4.580264e-005
    outer loop
      vertex   -7.364906e+001 7.484270e+001 9.000000e+000
      vertex   -7.376239e+001 7.490497e+001 4.500000e+000
      vertex   -7.344131e+001 7.473677e+001 4.500000e+000
    endloop
  endfacet
  facet normal -4.448521e-001 -8.941076e-001 5.109343e-004
    outer loop
      vertex   -7.364906e+001 7.484270e+001 9.000000e+000
      vertex   -7.344131e+001 7.473677e+001 4.500000e+000
      vertex   -7.333613e+001 7.468701e+001 9.000000e+000
    endloop
  endfacet
  facet normal -3.285310e-002 -7.338258e-002 -4.355262e-005
    outer loop
      vertex   -7.333613e+001 7.468701e+001 9.000000e+000
      vertex   -7.344131e+001 7.473677e+001 4.500000e+000
      vertex   -7.311048e+001 7.458866e+001 4.500000e+000
    endloop
  endfacet
  facet normal -3.909283e-001 -9.187992e-001 4.783547e-004
    outer loop
      vertex   -7.333613e+001 7.468701e+001 9.000000e+000
      vertex   -7.311048e+001 7.458866e+001 4.500000e+000
      vertex   -7.301451e+001 7.455017e+001 9.000000e+000
    endloop
  endfacet
  facet normal -2.827279e-002 -7.525930e-002 -4.075746e-005
    outer loop
      vertex   -7.301451e+001 7.455017e+001 9.000000e+000
      vertex   -7.311048e+001 7.458866e+001 4.500000e+000
      vertex   -7.277116e+001 7.446119e+001 4.500000e+000
    endloop
  endfacet
  facet normal -3.356394e-001 -9.402350e-001 4.414962e-004
    outer loop
      vertex   -7.301451e+001 7.455017e+001 9.000000e+000
      vertex   -7.277116e+001 7.446119e+001 4.500000e+000
      vertex   -7.268533e+001 7.443266e+001 9.000000e+000
    endloop
  endfacet
  facet normal -2.358126e-002 -7.685015e-002 -3.739015e-005
    outer loop
      vertex   -7.268533e+001 7.443266e+001 9.000000e+000
      vertex   -7.277116e+001 7.446119e+001 4.500000e+000
      vertex   -7.242464e+001 7.435486e+001 4.500000e+000
    endloop
  endfacet
  facet normal -2.791751e-001 -9.583420e-001 3.963212e-004
    outer loop
      vertex   -7.268533e+001 7.443266e+001 9.000000e+000
      vertex   -7.242464e+001 7.435486e+001 4.500000e+000
      vertex   -7.234976e+001 7.433491e+001 9.000000e+000
    endloop
  endfacet
  facet normal -4.432869e-003 -1.663640e-002 -0.000000e+000
    outer loop
      vertex   -7.234976e+001 7.433491e+001 9.000000e+000
      vertex   -7.242464e+001 7.435486e+001 4.500000e+000
      vertex   -7.234976e+001 7.433491e+001 0.000000e+000
    endloop
  endfacet
  facet normal -2.796434e-001 -9.599496e-001 -3.969860e-004
    outer loop
      vertex   -7.234976e+001 7.433491e+001 0.000000e+000
      vertex   -7.242464e+001 7.435486e+001 4.500000e+000
      vertex   -7.268533e+001 7.443266e+001 3.760534e-016
    endloop
  endfacet
  facet normal -2.358126e-002 -7.685015e-002 3.739015e-005
    outer loop
      vertex   -7.268533e+001 7.443266e+001 3.760534e-016
      vertex   -7.242464e+001 7.435486e+001 4.500000e+000
      vertex   -7.277116e+001 7.446119e+001 4.500000e+000
    endloop
  endfacet
  facet normal -3.361275e-001 -9.416021e-001 -4.421382e-004
    outer loop
      vertex   -7.268533e+001 7.443266e+001 3.760534e-016
      vertex   -7.277116e+001 7.446119e+001 4.500000e+000
      vertex   -7.301451e+001 7.455017e+001 7.204161e-016
    endloop
  endfacet
  facet normal -2.827279e-002 -7.525930e-002 4.075746e-005
    outer loop
      vertex   -7.301451e+001 7.455017e+001 7.204161e-016
      vertex   -7.277116e+001 7.446119e+001 4.500000e+000
      vertex   -7.311048e+001 7.458866e+001 4.500000e+000
    endloop
  endfacet
  facet normal -3.914094e-001 -9.199299e-001 -4.789434e-004
    outer loop
      vertex   -7.301451e+001 7.455017e+001 7.204161e-016
      vertex   -7.311048e+001 7.458866e+001 4.500000e+000
      vertex   -7.333613e+001 7.468701e+001 1.031873e-015
    endloop
  endfacet
  facet normal -3.285310e-002 -7.338258e-002 4.355262e-005
    outer loop
      vertex   -7.333613e+001 7.468701e+001 1.031873e-015
      vertex   -7.311048e+001 7.458866e+001 4.500000e+000
      vertex   -7.344131e+001 7.473677e+001 4.500000e+000
    endloop
  endfacet
  facet normal -4.453002e-001 -8.950081e-001 -5.114489e-004
    outer loop
      vertex   -7.333613e+001 7.468701e+001 1.031873e-015
      vertex   -7.344131e+001 7.473677e+001 4.500000e+000
      vertex   -7.364906e+001 7.484270e+001 1.309327e-015
    endloop
  endfacet
  facet normal -3.731176e-002 -7.122678e-002 4.580264e-005
    outer loop
      vertex   -7.364906e+001 7.484270e+001 1.309327e-015
      vertex   -7.344131e+001 7.473677e+001 4.500000e+000
      vertex   -7.376239e+001 7.490497e+001 4.500000e+000
    endloop
  endfacet
  facet normal -4.976016e-001 -8.669299e-001 -5.372051e-004
    outer loop
      vertex   -7.364906e+001 7.484270e+001 1.309327e-015
      vertex   -7.376239e+001 7.490497e+001 4.500000e+000
      vertex   -7.395219e+001 7.501670e+001 1.551798e-015
    endloop
  endfacet
  facet normal -4.162823e-002 -6.879871e-002 4.759044e-005
    outer loop
      vertex   -7.395219e+001 7.501670e+001 1.551798e-015
      vertex   -7.376239e+001 7.490497e+001 4.500000e+000
      vertex   -7.407251e+001 7.509261e+001 4.500000e+000
    endloop
  endfacet
  facet normal -5.481442e-001 -8.357868e-001 -5.563612e-004
    outer loop
      vertex   -7.395219e+001 7.501670e+001 1.551798e-015
      vertex   -7.407251e+001 7.509261e+001 4.500000e+000
      vertex   -7.424446e+001 7.520838e+001 1.758431e-015
    endloop
  endfacet
  facet normal -4.578702e-002 -6.610860e-002 4.885528e-005
    outer loop
      vertex   -7.424446e+001 7.520838e+001 1.758431e-015
      vertex   -7.407251e+001 7.509261e+001 4.500000e+000
      vertex   -7.437049e+001 7.529900e+001 4.500000e+000
    endloop
  endfacet
  facet normal -5.967284e-001 -8.017024e-001 -5.688756e-004
    outer loop
      vertex   -7.424446e+001 7.520838e+001 1.758431e-015
      vertex   -7.437049e+001 7.529900e+001 4.500000e+000
      vertex   -7.452484e+001 7.541708e+001 1.928497e-015
    endloop
  endfacet
  facet normal -4.977099e-002 -6.316502e-002 4.969618e-005
    outer loop
      vertex   -7.452484e+001 7.541708e+001 1.928497e-015
      vertex   -7.437049e+001 7.529900e+001 4.500000e+000
      vertex   -7.465520e+001 7.552333e+001 4.500000e+000
    endloop
  endfacet
  facet normal -6.432134e-001 -7.647756e-001 -5.746008e-004
    outer loop
      vertex   -7.452484e+001 7.541708e+001 1.928497e-015
      vertex   -7.465520e+001 7.552333e+001 4.500000e+000
      vertex   -7.479234e+001 7.564205e+001 2.061397e-015
    endloop
  endfacet
  facet normal -5.356469e-002 -5.998332e-002 4.988773e-005
    outer loop
      vertex   -7.479234e+001 7.564205e+001 2.061397e-015
      vertex   -7.465520e+001 7.552333e+001 4.500000e+000
      vertex   -7.492556e+001 7.576476e+001 4.500000e+000
    endloop
  endfacet
  facet normal -6.873939e-001 -7.251704e-001 -5.758167e-004
    outer loop
      vertex   -7.479234e+001 7.564205e+001 2.061397e-015
      vertex   -7.492556e+001 7.576476e+001 4.500000e+000
      vertex   -7.504600e+001 7.588250e+001 2.156662e-015
    endloop
  endfacet
  facet normal -5.715609e-002 -5.657043e-002 4.962696e-005
    outer loop
      vertex   -7.504600e+001 7.588250e+001 2.156662e-015
      vertex   -7.492556e+001 7.576476e+001 4.500000e+000
      vertex   -7.518054e+001 7.602238e+001 4.500000e+000
    endloop
  endfacet
  facet normal -7.291458e-001 -6.830004e-001 -5.691095e-004
    outer loop
      vertex   -7.504600e+001 7.588250e+001 2.156662e-015
      vertex   -7.518054e+001 7.602238e+001 4.500000e+000
      vertex   -7.528494e+001 7.613759e+001 2.213956e-015
    endloop
  endfacet
  facet normal -6.052807e-002 -5.294345e-002 4.886226e-005
    outer loop
      vertex   -7.528494e+001 7.613759e+001 2.213956e-015
      vertex   -7.518054e+001 7.602238e+001 4.500000e+000
      vertex   -7.541918e+001 7.629521e+001 4.500000e+000
    endloop
  endfacet
  facet normal -7.683042e-001 -6.384327e-001 -5.565921e-004
    outer loop
      vertex   -7.528494e+001 7.613759e+001 2.213956e-015
      vertex   -7.541918e+001 7.629521e+001 4.500000e+000
      vertex   -7.550832e+001 7.640641e+001 2.233076e-015
    endloop
  endfacet
  facet normal -6.367034e-002 -4.911610e-002 4.756849e-005
    outer loop
      vertex   -7.550832e+001 7.640641e+001 2.233076e-015
      vertex   -7.541918e+001 7.629521e+001 4.500000e+000
      vertex   -7.564058e+001 7.658221e+001 4.500000e+000
    endloop
  endfacet
  facet normal -8.047362e-001 -5.916209e-001 -5.380928e-004
    outer loop
      vertex   -7.550832e+001 7.640641e+001 2.233076e-015
      vertex   -7.564058e+001 7.658221e+001 4.500000e+000
      vertex   -7.571535e+001 7.668802e+001 2.213956e-015
    endloop
  endfacet
  facet normal -6.656924e-002 -4.509879e-002 4.580207e-005
    outer loop
      vertex   -7.571535e+001 7.668802e+001 2.213956e-015
      vertex   -7.564058e+001 7.658221e+001 4.500000e+000
      vertex   -7.584388e+001 7.688230e+001 4.500000e+000
    endloop
  endfacet
  facet normal -8.383276e-001 -5.427101e-001 -5.126156e-004
    outer loop
      vertex   -7.571535e+001 7.668802e+001 2.213956e-015
      vertex   -7.584388e+001 7.688230e+001 4.500000e+000
      vertex   -7.590530e+001 7.698142e+001 2.156662e-015
    endloop
  endfacet
  facet normal -6.921449e-002 -4.091370e-002 4.344656e-005
    outer loop
      vertex   -7.590530e+001 7.698142e+001 2.156662e-015
      vertex   -7.584388e+001 7.688230e+001 4.500000e+000
      vertex   -7.602833e+001 7.719434e+001 4.500000e+000
    endloop
  endfacet
  facet normal -8.689252e-001 -4.919267e-001 -4.816510e-004
    outer loop
      vertex   -7.590530e+001 7.698142e+001 2.156662e-015
      vertex   -7.602833e+001 7.719434e+001 4.500000e+000
      vertex   -7.607749e+001 7.728558e+001 2.061397e-015
    endloop
  endfacet
  facet normal -7.159588e-002 -3.657126e-002 4.064185e-005
    outer loop
      vertex   -7.607749e+001 7.728558e+001 2.061397e-015
      vertex   -7.602833e+001 7.719434e+001 4.500000e+000
      vertex   -7.619321e+001 7.751714e+001 4.500000e+000
    endloop
  endfacet
  facet normal -8.964491e-001 -4.394098e-001 -4.429346e-004
    outer loop
      vertex   -7.607749e+001 7.728558e+001 2.061397e-015
      vertex   -7.619321e+001 7.751714e+001 4.500000e+000
      vertex   -7.623133e+001 7.759943e+001 1.928497e-015
    endloop
  endfacet
  facet normal -7.370322e-002 -3.209034e-002 3.740569e-005
    outer loop
      vertex   -7.623133e+001 7.759943e+001 1.928497e-015
      vertex   -7.619321e+001 7.751714e+001 4.500000e+000
      vertex   -7.633791e+001 7.784947e+001 4.500000e+000
    endloop
  endfacet
  facet normal -9.208035e-001 -3.853386e-001 -3.982924e-004
    outer loop
      vertex   -7.623133e+001 7.759943e+001 1.928497e-015
      vertex   -7.633791e+001 7.784947e+001 4.500000e+000
      vertex   -7.636626e+001 7.792185e+001 1.758431e-015
    endloop
  endfacet
  facet normal -7.552801e-002 -2.748980e-002 3.355378e-005
    outer loop
      vertex   -7.636626e+001 7.792185e+001 1.758431e-015
      vertex   -7.633791e+001 7.784947e+001 4.500000e+000
      vertex   -7.646188e+001 7.819008e+001 4.500000e+000
    endloop
  endfacet
  facet normal -9.418855e-001 -3.299442e-001 -3.488232e-004
    outer loop
      vertex   -7.636626e+001 7.792185e+001 1.758431e-015
      vertex   -7.646188e+001 7.819008e+001 4.500000e+000
      vertex   -7.648181e+001 7.825172e+001 1.551798e-015
    endloop
  endfacet
  facet normal -7.706860e-002 -2.278345e-002 2.918306e-005
    outer loop
      vertex   -7.648181e+001 7.825172e+001 1.551798e-015
      vertex   -7.646188e+001 7.819008e+001 4.500000e+000
      vertex   -7.656464e+001 7.853768e+001 4.500000e+000
    endloop
  endfacet
  facet normal -9.596293e-001 -2.734113e-001 -2.898627e-004
    outer loop
      vertex   -7.648181e+001 7.825172e+001 1.551798e-015
      vertex   -7.656464e+001 7.853768e+001 4.500000e+000
      vertex   -7.657758e+001 7.858787e+001 1.309327e-015
    endloop
  endfacet
  facet normal -7.831147e-002 -1.799525e-002 2.448782e-005
    outer loop
      vertex   -7.657758e+001 7.858787e+001 1.309327e-015
      vertex   -7.656464e+001 7.853768e+001 4.500000e+000
      vertex   -7.664582e+001 7.889095e+001 4.500000e+000
    endloop
  endfacet
  facet normal -9.739801e-001 -2.159150e-001 -2.272815e-004
    outer loop
      vertex   -7.657758e+001 7.858787e+001 1.309327e-015
      vertex   -7.664582e+001 7.889095e+001 4.500000e+000
      vertex   -7.665323e+001 7.892910e+001 1.031873e-015
    endloop
  endfacet
  facet normal -7.925674e-002 -1.313562e-002 1.910244e-005
    outer loop
      vertex   -7.665323e+001 7.892910e+001 1.031873e-015
      vertex   -7.664582e+001 7.889095e+001 4.500000e+000
      vertex   -7.670509e+001 7.924854e+001 4.500000e+000
    endloop
  endfacet
  facet normal -9.848827e-001 -1.576735e-001 -1.570198e-004
    outer loop
      vertex   -7.665323e+001 7.892910e+001 1.031873e-015
      vertex   -7.670509e+001 7.924854e+001 4.500000e+000
      vertex   -7.670848e+001 7.927422e+001 7.204161e-016
    endloop
  endfacet
  facet normal -9.922972e-001 -9.890975e-002 8.218968e-005
    outer loop
      vertex   -7.670848e+001 7.927422e+001 9.000000e+000
      vertex   -7.674315e+001 7.962202e+001 9.000000e+000
      vertex   -7.674223e+001 7.960910e+001 4.500000e+000
    endloop
  endfacet
  facet normal 0.000000e+000 7.071310e-001 -0.000000e+000
    outer loop
      vertex   -7.575704e+001 7.997127e+001 1.000000e+000
      vertex   -7.675711e+001 7.997127e+001 0.000000e+000
      vertex   -7.575704e+001 7.997127e+001 8.000000e+000
    endloop
  endfacet
  facet normal 0.000000e+000 7.893785e-001 0.000000e+000
    outer loop
      vertex   -7.575704e+001 7.997127e+001 8.000000e+000
      vertex   -7.675711e+001 7.997127e+001 0.000000e+000
      vertex   -7.675711e+001 7.997127e+001 9.000000e+000
    endloop
  endfacet
  facet normal 0.000000e+000 9.855286e-001 -0.000000e+000
    outer loop
      vertex   -7.575704e+001 7.997127e+001 8.000000e+000
      vertex   -7.675711e+001 7.997127e+001 9.000000e+000
      vertex   -7.505061e+001 7.997127e+001 9.000000e+000
    endloop
  endfacet
  facet normal 0.000000e+000 1.000000e+000 0.000000e+000
    outer loop
      vertex   -7.505061e+001 7.997127e+001 1.000000e+000
      vertex   -7.505061e+001 7.997127e+001 0.000000e+000
      vertex   -7.575704e+001 7.997127e+001 1.000000e+000
    endloop
  endfacet
  facet normal 0.000000e+000 9.855286e-001 0.000000e+000
    outer loop
      vertex   -7.575704e+001 7.997127e+001 1.000000e+000
      vertex   -7.505061e+001 7.997127e+001 0.000000e+000
      vertex   -7.675711e+001 7.997127e+001 0.000000e+000
    endloop
  endfacet
  facet normal 0.000000e+000 5.769851e-001 0.000000e+000
    outer loop
      vertex   -7.505061e+001 7.997127e+001 9.000000e+000
      vertex   -7.505061e+001 7.997127e+001 8.000000e+000
      vertex   -7.575704e+001 7.997127e+001 8.000000e+000
    endloop
  endfacet
  facet normal -7.092942e-003 9.999748e-001 0.000000e+000
    outer loop
      vertex   -7.234976e+001 7.999043e+001 8.000000e+000
      vertex   -7.505061e+001 7.997127e+001 8.000000e+000
      vertex   -7.234976e+001 7.999043e+001 9.000000e+000
    endloop
  endfacet
  facet normal -2.462749e-003 3.472025e-001 0.000000e+000
    outer loop
      vertex   -7.234976e+001 7.999043e+001 9.000000e+000
      vertex   -7.505061e+001 7.997127e+001 8.000000e+000
      vertex   -7.505061e+001 7.997127e+001 9.000000e+000
    endloop
  endfacet
  facet normal 0.000000e+000 -0.000000e+000 9.600919e-001
    outer loop
      vertex   -7.234976e+001 7.433491e+001 9.000000e+000
      vertex   -7.234976e+001 7.999043e+001 9.000000e+000
      vertex   -7.268533e+001 7.443266e+001 9.000000e+000
    endloop
  endfacet
  facet normal 0.000000e+000 -0.000000e+000 9.603425e-001
    outer loop
      vertex   -7.268533e+001 7.443266e+001 9.000000e+000
      vertex   -7.234976e+001 7.999043e+001 9.000000e+000
      vertex   -7.301451e+001 7.455017e+001 9.000000e+000
    endloop
  endfacet
  facet normal 0.000000e+000 -0.000000e+000 9.608654e-001
    outer loop
      vertex   -7.301451e+001 7.455017e+001 9.000000e+000
      vertex   -7.234976e+001 7.999043e+001 9.000000e+000
      vertex   -7.333613e+001 7.468701e+001 9.000000e+000
    endloop
  endfacet
  facet normal 0.000000e+000 -0.000000e+000 9.616639e-001
    outer loop
      vertex   -7.333613e+001 7.468701e+001 9.000000e+000
      vertex   -7.234976e+001 7.999043e+001 9.000000e+000
      vertex   -7.364906e+001 7.484270e+001 9.000000e+000
    endloop
  endfacet
  facet normal 0.000000e+000 -0.000000e+000 9.627421e-001
    outer loop
      vertex   -7.364906e+001 7.484270e+001 9.000000e+000
      vertex   -7.234976e+001 7.999043e+001 9.000000e+000
      vertex   -7.395219e+001 7.501670e+001 9.000000e+000
    endloop
  endfacet
  facet normal 0.000000e+000 -0.000000e+000 9.640923e-001
    outer loop
      vertex   -7.395219e+001 7.501670e+001 9.000000e+000
      vertex   -7.234976e+001 7.999043e+001 9.000000e+000
      vertex   -7.424446e+001 7.520838e+001 9.000000e+000
    endloop
  endfacet
  facet normal 0.000000e+000 -0.000000e+000 9.657120e-001
    outer loop
      vertex   -7.424446e+001 7.520838e+001 9.000000e+000
      vertex   -7.234976e+001 7.999043e+001 9.000000e+000
      vertex   -7.452484e+001 7.541708e+001 9.000000e+000
    endloop
  endfacet
  facet normal 0.000000e+000 -0.000000e+000 9.675781e-001
    outer loop
      vertex   -7.452484e+001 7.541708e+001 9.000000e+000
      vertex   -7.234976e+001 7.999043e+001 9.000000e+000
      vertex   -7.479234e+001 7.564205e+001 9.000000e+000
    endloop
  endfacet
  facet normal 0.000000e+000 -0.000000e+000 9.696836e-001
    outer loop
      vertex   -7.479234e+001 7.564205e+001 9.000000e+000
      vertex   -7.234976e+001 7.999043e+001 9.000000e+000
      vertex   -7.504600e+001 7.588250e+001 9.000000e+000
    endloop
  endfacet
  facet normal 0.000000e+000 -0.000000e+000 5.496566e-001
    outer loop
      vertex   -7.504600e+001 7.588250e+001 9.000000e+000
      vertex   -7.234976e+001 7.999043e+001 9.000000e+000
      vertex   -7.505061e+001 7.997127e+001 9.000000e+000
    endloop
  endfacet
  facet normal 0.000000e+000 0.000000e+000 6.828124e-001
    outer loop
      vertex   -7.504600e+001 7.588250e+001 9.000000e+000
      vertex   -7.505061e+001 7.997127e+001 9.000000e+000
      vertex   -7.528494e+001 7.613759e+001 9.000000e+000
    endloop
  endfacet
  facet normal 0.000000e+000 -0.000000e+000 6.848428e-001
    outer loop
      vertex   -7.528494e+001 7.613759e+001 9.000000e+000
      vertex   -7.505061e+001 7.997127e+001 9.000000e+000
      vertex   -7.550832e+001 7.640641e+001 9.000000e+000
    endloop
  endfacet
  facet normal 0.000000e+000 -0.000000e+000 6.901116e-001
    outer loop
      vertex   -7.550832e+001 7.640641e+001 9.000000e+000
      vertex   -7.505061e+001 7.997127e+001 9.000000e+000
      vertex   -7.571535e+001 7.668802e+001 9.000000e+000
    endloop
  endfacet
  facet normal 0.000000e+000 -0.000000e+000 6.992103e-001
    outer loop
      vertex   -7.571535e+001 7.668802e+001 9.000000e+000
      vertex   -7.505061e+001 7.997127e+001 9.000000e+000
      vertex   -7.590530e+001 7.698142e+001 9.000000e+000
    endloop
  endfacet
  facet normal 0.000000e+000 -0.000000e+000 7.128706e-001
    outer loop
      vertex   -7.590530e+001 7.698142e+001 9.000000e+000
      vertex   -7.505061e+001 7.997127e+001 9.000000e+000
      vertex   -7.607749e+001 7.728558e+001 9.000000e+000
    endloop
  endfacet
  facet normal 0.000000e+000 -0.000000e+000 7.317963e-001
    outer loop
      vertex   -7.607749e+001 7.728558e+001 9.000000e+000
      vertex   -7.505061e+001 7.997127e+001 9.000000e+000
      vertex   -7.623133e+001 7.759943e+001 9.000000e+000
    endloop
  endfacet
  facet normal 0.000000e+000 -0.000000e+000 7.566871e-001
    outer loop
      vertex   -7.623133e+001 7.759943e+001 9.000000e+000
      vertex   -7.505061e+001 7.997127e+001 9.000000e+000
      vertex   -7.636626e+001 7.792185e+001 9.000000e+000
    endloop
  endfacet
  facet normal 0.000000e+000 -0.000000e+000 7.880586e-001
    outer loop
      vertex   -7.636626e+001 7.792185e+001 9.000000e+000
      vertex   -7.505061e+001 7.997127e+001 9.000000e+000
      vertex   -7.648181e+001 7.825172e+001 9.000000e+000
    endloop
  endfacet
  facet normal 0.000000e+000 -0.000000e+000 8.258440e-001
    outer loop
      vertex   -7.648181e+001 7.825172e+001 9.000000e+000
      vertex   -7.505061e+001 7.997127e+001 9.000000e+000
      vertex   -7.657758e+001 7.858787e+001 9.000000e+000
    endloop
  endfacet
  facet normal 0.000000e+000 -0.000000e+000 8.688360e-001
    outer loop
      vertex   -7.657758e+001 7.858787e+001 9.000000e+000
      vertex   -7.505061e+001 7.997127e+001 9.000000e+000
      vertex   -7.665323e+001 7.892910e+001 9.000000e+000
    endloop
  endfacet
  facet normal 0.000000e+000 -0.000000e+000 9.139710e-001
    outer loop
      vertex   -7.665323e+001 7.892910e+001 9.000000e+000
      vertex   -7.505061e+001 7.997127e+001 9.000000e+000
      vertex   -7.670848e+001 7.927422e+001 9.000000e+000
    endloop
  endfacet
  facet normal 0.000000e+000 -0.000000e+000 9.557327e-001
    outer loop
      vertex   -7.670848e+001 7.927422e+001 9.000000e+000
      vertex   -7.505061e+001 7.997127e+001 9.000000e+000
      vertex   -7.674315e+001 7.962202e+001 9.000000e+000
    endloop
  endfacet
  facet normal 0.000000e+000 -0.000000e+000 9.866587e-001
    outer loop
      vertex   -7.674315e+001 7.962202e+001 9.000000e+000
      vertex   -7.505061e+001 7.997127e+001 9.000000e+000
      vertex   -7.675711e+001 7.997127e+001 9.000000e+000
    endloop
  endfacet
endsolid
