solid ascii
  facet normal -2.275635e-002 6.464526e-003 0.000000e+000
    outer loop
      vertex   -1.269087e+002 1.025975e+002 9.000000e+000
      vertex   -1.269087e+002 1.025975e+002 0.000000e+000
      vertex   -1.269378e+002 1.024951e+002 4.500000e+000
    endloop
  endfacet
  facet normal -4.477752e-002 1.149727e-002 -2.783721e-005
    outer loop
      vertex   -1.269378e+002 1.024951e+002 4.500000e+000
      vertex   -1.269087e+002 1.025975e+002 0.000000e+000
      vertex   -1.269604e+002 1.023959e+002 0.000000e+000
    endloop
  endfacet
  facet normal -9.804252e-001 1.955906e-001 6.279179e-004
    outer loop
      vertex   -1.269378e+002 1.024951e+002 4.500000e+000
      vertex   -1.269604e+002 1.023959e+002 0.000000e+000
      vertex   -1.269794e+002 1.022863e+002 4.500000e+000
    endloop
  endfacet
  facet normal -4.573143e-002 6.781428e-003 -2.774486e-005
    outer loop
      vertex   -1.269794e+002 1.022863e+002 4.500000e+000
      vertex   -1.269604e+002 1.023959e+002 0.000000e+000
      vertex   -1.269910e+002 1.021900e+002 0.000000e+000
    endloop
  endfacet
  facet normal -9.956857e-001 9.025305e-002 6.242606e-004
    outer loop
      vertex   -1.269794e+002 1.022863e+002 4.500000e+000
      vertex   -1.269910e+002 1.021900e+002 0.000000e+000
      vertex   -1.269986e+002 1.020743e+002 4.500000e+000
    endloop
  endfacet
  facet normal -4.618705e-002 1.991040e-003 -2.749952e-005
    outer loop
      vertex   -1.269986e+002 1.020743e+002 4.500000e+000
      vertex   -1.269910e+002 1.021900e+002 0.000000e+000
      vertex   -1.269999e+002 1.019821e+002 0.000000e+000
    endloop
  endfacet
  facet normal -9.996605e-001 -1.608773e-002 6.178842e-004
    outer loop
      vertex   -1.269986e+002 1.020743e+002 4.500000e+000
      vertex   -1.269999e+002 1.019821e+002 0.000000e+000
      vertex   -1.269952e+002 1.018614e+002 4.500000e+000
    endloop
  endfacet
  facet normal -4.614438e-002 -2.819633e-003 -2.715221e-005
    outer loop
      vertex   -1.269952e+002 1.018614e+002 4.500000e+000
      vertex   -1.269999e+002 1.019821e+002 0.000000e+000
      vertex   -1.269872e+002 1.017743e+002 0.000000e+000
    endloop
  endfacet
  facet normal -9.923081e-001 -1.222559e-001 6.094108e-004
    outer loop
      vertex   -1.269952e+002 1.018614e+002 4.500000e+000
      vertex   -1.269872e+002 1.017743e+002 0.000000e+000
      vertex   -1.269692e+002 1.016502e+002 4.500000e+000
    endloop
  endfacet
  facet normal -4.560005e-002 -7.599725e-003 -2.666460e-005
    outer loop
      vertex   -1.269692e+002 1.016502e+002 4.500000e+000
      vertex   -1.269872e+002 1.017743e+002 0.000000e+000
      vertex   -1.269530e+002 1.015690e+002 0.000000e+000
    endloop
  endfacet
  facet normal -9.737149e-001 -2.270270e-001 5.985033e-004
    outer loop
      vertex   -1.269692e+002 1.016502e+002 4.500000e+000
      vertex   -1.269530e+002 1.015690e+002 0.000000e+000
      vertex   -1.269208e+002 1.014428e+002 4.500000e+000
    endloop
  endfacet
  facet normal -4.456422e-002 -1.229837e-002 -2.609923e-005
    outer loop
      vertex   -1.269208e+002 1.014428e+002 4.500000e+000
      vertex   -1.269530e+002 1.015690e+002 0.000000e+000
      vertex   -1.268976e+002 1.013683e+002 0.000000e+000
    endloop
  endfacet
  facet normal -9.440824e-001 -3.292536e-001 5.846174e-004
    outer loop
      vertex   -1.269208e+002 1.014428e+002 4.500000e+000
      vertex   -1.268976e+002 1.013683e+002 0.000000e+000
      vertex   -1.268507e+002 1.012418e+002 4.500000e+000
    endloop
  endfacet
  facet normal -4.304203e-002 -1.686301e-002 -2.541569e-005
    outer loop
      vertex   -1.268507e+002 1.012418e+002 4.500000e+000
      vertex   -1.268976e+002 1.013683e+002 0.000000e+000
      vertex   -1.268217e+002 1.011745e+002 0.000000e+000
    endloop
  endfacet
  facet normal -9.037538e-001 -4.277431e-001 5.677339e-004
    outer loop
      vertex   -1.268507e+002 1.012418e+002 4.500000e+000
      vertex   -1.268217e+002 1.011745e+002 0.000000e+000
      vertex   -1.267596e+002 1.010494e+002 4.500000e+000
    endloop
  endfacet
  facet normal -4.105721e-002 -2.124449e-002 -2.460745e-005
    outer loop
      vertex   -1.267596e+002 1.010494e+002 4.500000e+000
      vertex   -1.268217e+002 1.011745e+002 0.000000e+000
      vertex   -1.267260e+002 1.009897e+002 0.000000e+000
    endloop
  endfacet
  facet normal -8.531758e-001 -5.214012e-001 5.495570e-004
    outer loop
      vertex   -1.267596e+002 1.010494e+002 4.500000e+000
      vertex   -1.267260e+002 1.009897e+002 0.000000e+000
      vertex   -1.266486e+002 1.008677e+002 4.500000e+000
    endloop
  endfacet
  facet normal -3.862505e-002 -2.539704e-002 -2.368007e-005
    outer loop
      vertex   -1.266486e+002 1.008677e+002 4.500000e+000
      vertex   -1.267260e+002 1.009897e+002 0.000000e+000
      vertex   -1.266117e+002 1.008157e+002 0.000000e+000
    endloop
  endfacet
  facet normal -7.929345e-001 -6.091420e-001 5.277923e-004
    outer loop
      vertex   -1.266486e+002 1.008677e+002 4.500000e+000
      vertex   -1.266117e+002 1.008157e+002 0.000000e+000
      vertex   -1.265189e+002 1.006989e+002 4.500000e+000
    endloop
  endfacet
  facet normal -3.577608e-002 -2.927319e-002 -2.265044e-005
    outer loop
      vertex   -1.265189e+002 1.006989e+002 4.500000e+000
      vertex   -1.266117e+002 1.008157e+002 0.000000e+000
      vertex   -1.264799e+002 1.006546e+002 0.000000e+000
    endloop
  endfacet
  facet normal -7.236878e-001 -6.900029e-001 5.042611e-004
    outer loop
      vertex   -1.265189e+002 1.006989e+002 4.500000e+000
      vertex   -1.264799e+002 1.006546e+002 0.000000e+000
      vertex   -1.263720e+002 1.005448e+002 4.500000e+000
    endloop
  endfacet
  facet normal -3.253916e-002 -3.283228e-002 -2.144155e-005
    outer loop
      vertex   -1.263720e+002 1.005448e+002 4.500000e+000
      vertex   -1.264799e+002 1.006546e+002 0.000000e+000
      vertex   -1.263320e+002 1.005081e+002 0.000000e+000
    endloop
  endfacet
  facet normal -6.462855e-001 -7.630003e-001 4.786507e-004
    outer loop
      vertex   -1.263720e+002 1.005448e+002 4.500000e+000
      vertex   -1.263320e+002 1.005081e+002 0.000000e+000
      vertex   -1.262096e+002 1.004072e+002 4.500000e+000
    endloop
  endfacet
  facet normal -2.894992e-002 -3.603533e-002 -2.019935e-005
    outer loop
      vertex   -1.262096e+002 1.004072e+002 4.500000e+000
      vertex   -1.263320e+002 1.005081e+002 0.000000e+000
      vertex   -1.261698e+002 1.003778e+002 0.000000e+000
    endloop
  endfacet
  facet normal -5.615033e-001 -8.274012e-001 4.496319e-004
    outer loop
      vertex   -1.262096e+002 1.004072e+002 4.500000e+000
      vertex   -1.261698e+002 1.003778e+002 0.000000e+000
      vertex   -1.260334e+002 1.002877e+002 4.500000e+000
    endloop
  endfacet
  facet normal -2.504736e-002 -3.884847e-002 -1.877493e-005
    outer loop
      vertex   -1.260334e+002 1.002877e+002 4.500000e+000
      vertex   -1.261698e+002 1.003778e+002 0.000000e+000
      vertex   -1.259948e+002 1.002650e+002 0.000000e+000
    endloop
  endfacet
  facet normal -4.704031e-001 -8.823955e-001 4.188771e-004
    outer loop
      vertex   -1.260334e+002 1.002877e+002 4.500000e+000
      vertex   -1.259948e+002 1.002650e+002 0.000000e+000
      vertex   -1.258456e+002 1.001875e+002 4.500000e+000
    endloop
  endfacet
  facet normal -2.087389e-002 -4.123953e-002 -1.726627e-005
    outer loop
      vertex   -1.258456e+002 1.001875e+002 4.500000e+000
      vertex   -1.259948e+002 1.002650e+002 0.000000e+000
      vertex   -1.258091e+002 1.001710e+002 0.000000e+000
    endloop
  endfacet
  facet normal -3.739510e-001 -9.274058e-001 3.852221e-004
    outer loop
      vertex   -1.258456e+002 1.001875e+002 4.500000e+000
      vertex   -1.258091e+002 1.001710e+002 0.000000e+000
      vertex   -1.256481e+002 1.001079e+002 4.500000e+000
    endloop
  endfacet
  facet normal -1.647361e-002 -4.318479e-002 -1.567020e-005
    outer loop
      vertex   -1.256481e+002 1.001079e+002 4.500000e+000
      vertex   -1.258091e+002 1.001710e+002 0.000000e+000
      vertex   -1.256146e+002 1.000968e+002 0.000000e+000
    endloop
  endfacet
  facet normal -2.732167e-001 -9.619205e-001 3.486997e-004
    outer loop
      vertex   -1.256481e+002 1.001079e+002 4.500000e+000
      vertex   -1.256146e+002 1.000968e+002 0.000000e+000
      vertex   -1.254433e+002 1.000498e+002 4.500000e+000
    endloop
  endfacet
  facet normal -1.189571e-002 -4.466227e-002 -1.387366e-005
    outer loop
      vertex   -1.254433e+002 1.000498e+002 4.500000e+000
      vertex   -1.256146e+002 1.000968e+002 0.000000e+000
      vertex   -1.254135e+002 1.000432e+002 0.000000e+000
    endloop
  endfacet
  facet normal -1.694722e-001 -9.855116e-001 3.109570e-004
    outer loop
      vertex   -1.254433e+002 1.000498e+002 4.500000e+000
      vertex   -1.254135e+002 1.000432e+002 0.000000e+000
      vertex   -1.252335e+002 1.000137e+002 4.500000e+000
    endloop
  endfacet
  facet normal -7.187653e-003 -4.565337e-002 -1.211102e-005
    outer loop
      vertex   -1.252335e+002 1.000137e+002 4.500000e+000
      vertex   -1.254135e+002 1.000432e+002 0.000000e+000
      vertex   -1.252079e+002 1.000108e+002 0.000000e+000
    endloop
  endfacet
  facet normal -6.371809e-002 -9.979514e-001 2.677951e-004
    outer loop
      vertex   -1.252335e+002 1.000137e+002 4.500000e+000
      vertex   -1.252079e+002 1.000108e+002 0.000000e+000
      vertex   -1.250211e+002 1.000001e+002 4.500000e+000
    endloop
  endfacet
  facet normal -2.405393e-003 -4.615306e-002 -1.009013e-005
    outer loop
      vertex   -1.250211e+002 1.000001e+002 4.500000e+000
      vertex   -1.252079e+002 1.000108e+002 0.000000e+000
      vertex   -1.250000e+002 1.000000e+002 0.000000e+000
    endloop
  endfacet
  facet normal -5.086152e-005 -9.365301e-003 0.000000e+000
    outer loop
      vertex   -1.250211e+002 1.000001e+002 4.500000e+000
      vertex   -1.250000e+002 1.000000e+002 0.000000e+000
      vertex   -1.250000e+002 1.000000e+002 9.000000e+000
    endloop
  endfacet
  facet normal -5.204653e-002 -9.986337e-001 2.183245e-004
    outer loop
      vertex   -1.250000e+002 1.000000e+002 9.000000e+000
      vertex   -1.252079e+002 1.000108e+002 9.000000e+000
      vertex   -1.250211e+002 1.000001e+002 4.500000e+000
    endloop
  endfacet
  facet normal -6.366413e-002 -9.971063e-001 -2.675683e-004
    outer loop
      vertex   -1.250211e+002 1.000001e+002 4.500000e+000
      vertex   -1.252079e+002 1.000108e+002 9.000000e+000
      vertex   -1.252335e+002 1.000137e+002 4.500000e+000
    endloop
  endfacet
  facet normal -1.555214e-001 -9.878159e-001 2.620498e-004
    outer loop
      vertex   -1.252079e+002 1.000108e+002 9.000000e+000
      vertex   -1.254135e+002 1.000432e+002 9.000000e+000
      vertex   -1.252335e+002 1.000137e+002 4.500000e+000
    endloop
  endfacet
  facet normal -1.693371e-001 -9.847261e-001 -3.107091e-004
    outer loop
      vertex   -1.252335e+002 1.000137e+002 4.500000e+000
      vertex   -1.254135e+002 1.000432e+002 9.000000e+000
      vertex   -1.254433e+002 1.000498e+002 4.500000e+000
    endloop
  endfacet
  facet normal -2.573693e-001 -9.662893e-001 3.001632e-004
    outer loop
      vertex   -1.254135e+002 1.000432e+002 9.000000e+000
      vertex   -1.256146e+002 1.000968e+002 9.000000e+000
      vertex   -1.254433e+002 1.000498e+002 4.500000e+000
    endloop
  endfacet
  facet normal -2.730125e-001 -9.612016e-001 -3.484391e-004
    outer loop
      vertex   -1.254433e+002 1.000498e+002 4.500000e+000
      vertex   -1.256146e+002 1.000968e+002 9.000000e+000
      vertex   -1.256481e+002 1.001079e+002 4.500000e+000
    endloop
  endfacet
  facet normal -3.564050e-001 -9.342986e-001 3.390233e-004
    outer loop
      vertex   -1.256146e+002 1.000968e+002 9.000000e+000
      vertex   -1.258091e+002 1.001710e+002 9.000000e+000
      vertex   -1.256481e+002 1.001079e+002 4.500000e+000
    endloop
  endfacet
  facet normal -3.736902e-001 -9.267588e-001 -3.849534e-004
    outer loop
      vertex   -1.256481e+002 1.001079e+002 4.500000e+000
      vertex   -1.258091e+002 1.001710e+002 9.000000e+000
      vertex   -1.258456e+002 1.001875e+002 4.500000e+000
    endloop
  endfacet
  facet normal -4.515887e-001 -8.921818e-001 3.735411e-004
    outer loop
      vertex   -1.258091e+002 1.001710e+002 9.000000e+000
      vertex   -1.259948e+002 1.002650e+002 9.000000e+000
      vertex   -1.258456e+002 1.001875e+002 4.500000e+000
    endloop
  endfacet
  facet normal -4.700983e-001 -8.818238e-001 -4.186057e-004
    outer loop
      vertex   -1.258456e+002 1.001875e+002 4.500000e+000
      vertex   -1.259948e+002 1.002650e+002 9.000000e+000
      vertex   -1.260334e+002 1.002877e+002 4.500000e+000
    endloop
  endfacet
  facet normal -5.418529e-001 -8.404144e-001 4.061607e-004
    outer loop
      vertex   -1.259948e+002 1.002650e+002 9.000000e+000
      vertex   -1.261698e+002 1.003778e+002 9.000000e+000
      vertex   -1.260334e+002 1.002877e+002 4.500000e+000
    endloop
  endfacet
  facet normal -5.611675e-001 -8.269064e-001 -4.493630e-004
    outer loop
      vertex   -1.260334e+002 1.002877e+002 4.500000e+000
      vertex   -1.261698e+002 1.003778e+002 9.000000e+000
      vertex   -1.262096e+002 1.004072e+002 4.500000e+000
    endloop
  endfacet
  facet normal -6.262605e-001 -7.795361e-001 4.369635e-004
    outer loop
      vertex   -1.261698e+002 1.003778e+002 9.000000e+000
      vertex   -1.263320e+002 1.005081e+002 9.000000e+000
      vertex   -1.262096e+002 1.004072e+002 4.500000e+000
    endloop
  endfacet
  facet normal -6.459312e-001 -7.625821e-001 -4.783883e-004
    outer loop
      vertex   -1.262096e+002 1.004072e+002 4.500000e+000
      vertex   -1.263320e+002 1.005081e+002 9.000000e+000
      vertex   -1.263720e+002 1.005448e+002 4.500000e+000
    endloop
  endfacet
  facet normal -7.038779e-001 -7.102185e-001 4.638176e-004
    outer loop
      vertex   -1.263320e+002 1.005081e+002 9.000000e+000
      vertex   -1.264799e+002 1.006546e+002 9.000000e+000
      vertex   -1.263720e+002 1.005448e+002 4.500000e+000
    endloop
  endfacet
  facet normal -7.233270e-001 -6.896589e-001 -5.040097e-004
    outer loop
      vertex   -1.263720e+002 1.005448e+002 4.500000e+000
      vertex   -1.264799e+002 1.006546e+002 9.000000e+000
      vertex   -1.265189e+002 1.006989e+002 4.500000e+000
    endloop
  endfacet
  facet normal -7.738711e-001 -6.332073e-001 4.899509e-004
    outer loop
      vertex   -1.264799e+002 1.006546e+002 9.000000e+000
      vertex   -1.266117e+002 1.008157e+002 9.000000e+000
      vertex   -1.265189e+002 1.006989e+002 4.500000e+000
    endloop
  endfacet
  facet normal -7.925788e-001 -6.088687e-001 -5.275555e-004
    outer loop
      vertex   -1.265189e+002 1.006989e+002 4.500000e+000
      vertex   -1.266117e+002 1.008157e+002 9.000000e+000
      vertex   -1.266486e+002 1.008677e+002 4.500000e+000
    endloop
  endfacet
  facet normal -8.354740e-001 -5.493472e-001 5.122087e-004
    outer loop
      vertex   -1.266117e+002 1.008157e+002 9.000000e+000
      vertex   -1.267260e+002 1.009897e+002 9.000000e+000
      vertex   -1.266486e+002 1.008677e+002 4.500000e+000
    endloop
  endfacet
  facet normal -8.528356e-001 -5.211932e-001 -5.493378e-004
    outer loop
      vertex   -1.266486e+002 1.008677e+002 4.500000e+000
      vertex   -1.267260e+002 1.009897e+002 9.000000e+000
      vertex   -1.267596e+002 1.010494e+002 4.500000e+000
    endloop
  endfacet
  facet normal -8.880440e-001 -4.595062e-001 5.322451e-004
    outer loop
      vertex   -1.267260e+002 1.009897e+002 9.000000e+000
      vertex   -1.268217e+002 1.011745e+002 9.000000e+000
      vertex   -1.267596e+002 1.010494e+002 4.500000e+000
    endloop
  endfacet
  facet normal -9.034384e-001 -4.275938e-001 -5.675358e-004
    outer loop
      vertex   -1.267596e+002 1.010494e+002 4.500000e+000
      vertex   -1.268217e+002 1.011745e+002 9.000000e+000
      vertex   -1.268507e+002 1.012418e+002 4.500000e+000
    endloop
  endfacet
  facet normal -9.309690e-001 -3.647352e-001 5.497235e-004
    outer loop
      vertex   -1.268217e+002 1.011745e+002 9.000000e+000
      vertex   -1.268976e+002 1.013683e+002 9.000000e+000
      vertex   -1.268507e+002 1.012418e+002 4.500000e+000
    endloop
  endfacet
  facet normal -9.438000e-001 -3.291551e-001 -5.844426e-004
    outer loop
      vertex   -1.268507e+002 1.012418e+002 4.500000e+000
      vertex   -1.268976e+002 1.013683e+002 9.000000e+000
      vertex   -1.269208e+002 1.014428e+002 4.500000e+000
    endloop
  endfacet
  facet normal -9.638212e-001 -2.659853e-001 5.644661e-004
    outer loop
      vertex   -1.268976e+002 1.013683e+002 9.000000e+000
      vertex   -1.269530e+002 1.015690e+002 9.000000e+000
      vertex   -1.269208e+002 1.014428e+002 4.500000e+000
    endloop
  endfacet
  facet normal -9.734722e-001 -2.269704e-001 -5.983541e-004
    outer loop
      vertex   -1.269208e+002 1.014428e+002 4.500000e+000
      vertex   -1.269530e+002 1.015690e+002 9.000000e+000
      vertex   -1.269692e+002 1.016502e+002 4.500000e+000
    endloop
  endfacet
  facet normal -9.862281e-001 -1.643652e-001 5.766963e-004
    outer loop
      vertex   -1.269530e+002 1.015690e+002 9.000000e+000
      vertex   -1.269872e+002 1.017743e+002 9.000000e+000
      vertex   -1.269692e+002 1.016502e+002 4.500000e+000
    endloop
  endfacet
  facet normal -9.921103e-001 -1.222315e-001 -6.092893e-004
    outer loop
      vertex   -1.269692e+002 1.016502e+002 4.500000e+000
      vertex   -1.269872e+002 1.017743e+002 9.000000e+000
      vertex   -1.269952e+002 1.018614e+002 4.500000e+000
    endloop
  endfacet
  facet normal -9.979497e-001 -6.097930e-002 5.872122e-004
    outer loop
      vertex   -1.269872e+002 1.017743e+002 9.000000e+000
      vertex   -1.269999e+002 1.019821e+002 9.000000e+000
      vertex   -1.269952e+002 1.018614e+002 4.500000e+000
    endloop
  endfacet
  facet normal -9.995110e-001 -1.608532e-002 -6.177917e-004
    outer loop
      vertex   -1.269952e+002 1.018614e+002 4.500000e+000
      vertex   -1.269999e+002 1.019821e+002 9.000000e+000
      vertex   -1.269986e+002 1.020743e+002 4.500000e+000
    endloop
  endfacet
  facet normal -9.988623e-001 4.305915e-002 5.947172e-004
    outer loop
      vertex   -1.269999e+002 1.019821e+002 9.000000e+000
      vertex   -1.269910e+002 1.021900e+002 9.000000e+000
      vertex   -1.269986e+002 1.020743e+002 4.500000e+000
    endloop
  endfacet
  facet normal -9.955864e-001 9.024405e-002 -6.241984e-004
    outer loop
      vertex   -1.269986e+002 1.020743e+002 4.500000e+000
      vertex   -1.269910e+002 1.021900e+002 9.000000e+000
      vertex   -1.269794e+002 1.022863e+002 4.500000e+000
    endloop
  endfacet
  facet normal -9.889536e-001 1.466501e-001 5.999895e-004
    outer loop
      vertex   -1.269910e+002 1.021900e+002 9.000000e+000
      vertex   -1.269604e+002 1.023959e+002 9.000000e+000
      vertex   -1.269794e+002 1.022863e+002 4.500000e+000
    endloop
  endfacet
  facet normal -9.803762e-001 1.955808e-001 -6.278866e-004
    outer loop
      vertex   -1.269794e+002 1.022863e+002 4.500000e+000
      vertex   -1.269604e+002 1.023959e+002 9.000000e+000
      vertex   -1.269378e+002 1.024951e+002 4.500000e+000
    endloop
  endfacet
  facet normal -9.683338e-001 2.486337e-001 6.019922e-004
    outer loop
      vertex   -1.269604e+002 1.023959e+002 9.000000e+000
      vertex   -1.269087e+002 1.025975e+002 9.000000e+000
      vertex   -1.269378e+002 1.024951e+002 4.500000e+000
    endloop
  endfacet
  facet normal -9.543276e-001 2.987623e-001 0.000000e+000
    outer loop
      vertex   -1.262417e+002 1.047278e+002 0.000000e+000
      vertex   -1.269087e+002 1.025975e+002 0.000000e+000
      vertex   -1.262417e+002 1.047278e+002 9.000000e+000
    endloop
  endfacet
  facet normal -9.262617e-001 2.899759e-001 -1.387779e-017
    outer loop
      vertex   -1.262417e+002 1.047278e+002 9.000000e+000
      vertex   -1.269087e+002 1.025975e+002 0.000000e+000
      vertex   -1.269087e+002 1.025975e+002 9.000000e+000
    endloop
  endfacet
  facet normal -2.668793e-002 -5.130144e-003 -0.000000e+000
    outer loop
      vertex   -1.262247e+002 1.062176e+002 9.000000e+000
      vertex   -1.262247e+002 1.062176e+002 0.000000e+000
      vertex   -1.262016e+002 1.060975e+002 4.500000e+000
    endloop
  endfacet
  facet normal -5.475872e-002 -9.470074e-003 2.819378e-005
    outer loop
      vertex   -1.262016e+002 1.060975e+002 4.500000e+000
      vertex   -1.262247e+002 1.062176e+002 0.000000e+000
      vertex   -1.261820e+002 1.059710e+002 0.000000e+000
    endloop
  endfacet
  facet normal -9.909278e-001 -1.313551e-001 -6.144305e-004
    outer loop
      vertex   -1.262016e+002 1.060975e+002 4.500000e+000
      vertex   -1.261820e+002 1.059710e+002 0.000000e+000
      vertex   -1.261653e+002 1.058241e+002 4.500000e+000
    endloop
  endfacet
  facet normal -5.530114e-002 -5.444732e-003 2.730664e-005
    outer loop
      vertex   -1.261653e+002 1.058241e+002 4.500000e+000
      vertex   -1.261820e+002 1.059710e+002 0.000000e+000
      vertex   -1.261575e+002 1.057220e+002 0.000000e+000
    endloop
  endfacet
  facet normal -9.984288e-001 -5.121141e-002 -5.751387e-004
    outer loop
      vertex   -1.261653e+002 1.058241e+002 4.500000e+000
      vertex   -1.261575e+002 1.057220e+002 0.000000e+000
      vertex   -1.261512e+002 1.055486e+002 4.500000e+000
    endloop
  endfacet
  facet normal -5.554688e-002 -1.394092e-003 2.406953e-005
    outer loop
      vertex   -1.261512e+002 1.055486e+002 4.500000e+000
      vertex   -1.261575e+002 1.057220e+002 0.000000e+000
      vertex   -1.261512e+002 1.054718e+002 0.000000e+000
    endloop
  endfacet
  facet normal -9.994246e-001 2.931432e-002 -4.950986e-004
    outer loop
      vertex   -1.261512e+002 1.055486e+002 4.500000e+000
      vertex   -1.261512e+002 1.054718e+002 0.000000e+000
      vertex   -1.261593e+002 1.052729e+002 4.500000e+000
    endloop
  endfacet
  facet normal -5.549259e-002 2.665812e-003 1.840445e-005
    outer loop
      vertex   -1.261593e+002 1.052729e+002 4.500000e+000
      vertex   -1.261512e+002 1.054718e+002 0.000000e+000
      vertex   -1.261632e+002 1.052218e+002 0.000000e+000
    endloop
  endfacet
  facet normal -9.939041e-001 1.096594e-001 -3.726077e-004
    outer loop
      vertex   -1.261593e+002 1.052729e+002 4.500000e+000
      vertex   -1.261632e+002 1.052218e+002 0.000000e+000
      vertex   -1.261895e+002 1.049987e+002 4.500000e+000
    endloop
  endfacet
  facet normal -5.513672e-002 6.708792e-003 1.034313e-005
    outer loop
      vertex   -1.261895e+002 1.049987e+002 4.500000e+000
      vertex   -1.261632e+002 1.052218e+002 0.000000e+000
      vertex   -1.261935e+002 1.049734e+002 0.000000e+000
    endloop
  endfacet
  facet normal -6.568342e-002 1.244965e-002 -1.273141e-005
    outer loop
      vertex   -1.261895e+002 1.049987e+002 4.500000e+000
      vertex   -1.261935e+002 1.049734e+002 0.000000e+000
      vertex   -1.262417e+002 1.047278e+002 9.000000e+000
    endloop
  endfacet
  facet normal -2.727302e-002 5.363087e-003 0.000000e+000
    outer loop
      vertex   -1.262417e+002 1.047278e+002 9.000000e+000
      vertex   -1.261935e+002 1.049734e+002 0.000000e+000
      vertex   -1.262417e+002 1.047278e+002 0.000000e+000
    endloop
  endfacet
  facet normal -9.793707e-001 1.925877e-001 2.289359e-004
    outer loop
      vertex   -1.262417e+002 1.047278e+002 9.000000e+000
      vertex   -1.261935e+002 1.049734e+002 9.000000e+000
      vertex   -1.261895e+002 1.049987e+002 4.500000e+000
    endloop
  endfacet
  facet normal -5.513672e-002 6.708792e-003 -1.034313e-005
    outer loop
      vertex   -1.261895e+002 1.049987e+002 4.500000e+000
      vertex   -1.261935e+002 1.049734e+002 9.000000e+000
      vertex   -1.261632e+002 1.052218e+002 9.000000e+000
    endloop
  endfacet
  facet normal -9.927318e-001 1.095301e-001 3.721682e-004
    outer loop
      vertex   -1.261895e+002 1.049987e+002 4.500000e+000
      vertex   -1.261632e+002 1.052218e+002 9.000000e+000
      vertex   -1.261593e+002 1.052729e+002 4.500000e+000
    endloop
  endfacet
  facet normal -5.549259e-002 2.665812e-003 -1.840445e-005
    outer loop
      vertex   -1.261593e+002 1.052729e+002 4.500000e+000
      vertex   -1.261632e+002 1.052218e+002 9.000000e+000
      vertex   -1.261512e+002 1.054718e+002 9.000000e+000
    endloop
  endfacet
  facet normal -9.985932e-001 2.928993e-002 4.946867e-004
    outer loop
      vertex   -1.261593e+002 1.052729e+002 4.500000e+000
      vertex   -1.261512e+002 1.054718e+002 9.000000e+000
      vertex   -1.261512e+002 1.055486e+002 4.500000e+000
    endloop
  endfacet
  facet normal -5.554688e-002 -1.394092e-003 -2.406953e-005
    outer loop
      vertex   -1.261512e+002 1.055486e+002 4.500000e+000
      vertex   -1.261512e+002 1.054718e+002 9.000000e+000
      vertex   -1.261575e+002 1.057220e+002 9.000000e+000
    endloop
  endfacet
  facet normal -9.979455e-001 -5.118662e-002 5.748603e-004
    outer loop
      vertex   -1.261512e+002 1.055486e+002 4.500000e+000
      vertex   -1.261575e+002 1.057220e+002 9.000000e+000
      vertex   -1.261653e+002 1.058241e+002 4.500000e+000
    endloop
  endfacet
  facet normal -5.530114e-002 -5.444732e-003 -2.730664e-005
    outer loop
      vertex   -1.261653e+002 1.058241e+002 4.500000e+000
      vertex   -1.261575e+002 1.057220e+002 9.000000e+000
      vertex   -1.261820e+002 1.059710e+002 9.000000e+000
    endloop
  endfacet
  facet normal -9.907932e-001 -1.313373e-001 6.143471e-004
    outer loop
      vertex   -1.261653e+002 1.058241e+002 4.500000e+000
      vertex   -1.261820e+002 1.059710e+002 9.000000e+000
      vertex   -1.262016e+002 1.060975e+002 4.500000e+000
    endloop
  endfacet
  facet normal -5.475872e-002 -9.470074e-003 -2.819378e-005
    outer loop
      vertex   -1.262016e+002 1.060975e+002 4.500000e+000
      vertex   -1.261820e+002 1.059710e+002 9.000000e+000
      vertex   -1.262247e+002 1.062176e+002 9.000000e+000
    endloop
  endfacet
  facet normal -9.543270e-001 -2.987639e-001 0.000000e+000
    outer loop
      vertex   -1.269087e+002 1.084025e+002 0.000000e+000
      vertex   -1.262247e+002 1.062176e+002 0.000000e+000
      vertex   -1.269087e+002 1.084025e+002 9.000000e+000
    endloop
  endfacet
  facet normal -9.248727e-001 -2.895429e-001 0.000000e+000
    outer loop
      vertex   -1.269087e+002 1.084025e+002 9.000000e+000
      vertex   -1.262247e+002 1.062176e+002 0.000000e+000
      vertex   -1.262247e+002 1.062176e+002 9.000000e+000
    endloop
  endfacet
  facet normal -5.204707e-002 9.986441e-001 5.551957e-005
    outer loop
      vertex   -1.252079e+002 1.109892e+002 0.000000e+000
      vertex   -1.252126e+002 1.109887e+002 4.500000e+000
      vertex   -1.250000e+002 1.110000e+002 0.000000e+000
    endloop
  endfacet
  facet normal -1.312132e-003 2.411107e-002 -1.282284e-006
    outer loop
      vertex   -1.250000e+002 1.110000e+002 0.000000e+000
      vertex   -1.252126e+002 1.109887e+002 4.500000e+000
      vertex   -1.252079e+002 1.109892e+002 9.000000e+000
    endloop
  endfacet
  facet normal -1.203427e-003 2.309055e-002 0.000000e+000
    outer loop
      vertex   -1.250000e+002 1.110000e+002 0.000000e+000
      vertex   -1.252079e+002 1.109892e+002 9.000000e+000
      vertex   -1.250000e+002 1.110000e+002 9.000000e+000
    endloop
  endfacet
  facet normal -1.555239e-001 9.878316e-001 -5.409194e-005
    outer loop
      vertex   -1.252079e+002 1.109892e+002 0.000000e+000
      vertex   -1.254135e+002 1.109568e+002 0.000000e+000
      vertex   -1.252126e+002 1.109887e+002 4.500000e+000
    endloop
  endfacet
  facet normal -1.589169e-001 9.862587e-001 1.085267e-004
    outer loop
      vertex   -1.252126e+002 1.109887e+002 4.500000e+000
      vertex   -1.254135e+002 1.109568e+002 0.000000e+000
      vertex   -1.254228e+002 1.109548e+002 4.500000e+000
    endloop
  endfacet
  facet normal -1.589169e-001 9.862587e-001 -1.085267e-004
    outer loop
      vertex   -1.252126e+002 1.109887e+002 4.500000e+000
      vertex   -1.254228e+002 1.109548e+002 4.500000e+000
      vertex   -1.254135e+002 1.109568e+002 9.000000e+000
    endloop
  endfacet
  facet normal -2.573746e-001 9.663094e-001 1.034515e-004
    outer loop
      vertex   -1.254135e+002 1.109568e+002 9.000000e+000
      vertex   -1.254228e+002 1.109548e+002 4.500000e+000
      vertex   -1.256146e+002 1.109032e+002 9.000000e+000
    endloop
  endfacet
  facet normal -1.243391e-002 4.559609e-002 -7.460543e-006
    outer loop
      vertex   -1.256146e+002 1.109032e+002 9.000000e+000
      vertex   -1.254228e+002 1.109548e+002 4.500000e+000
      vertex   -1.256282e+002 1.108988e+002 4.500000e+000
    endloop
  endfacet
  facet normal -3.564142e-001 9.343227e-001 1.526136e-004
    outer loop
      vertex   -1.256146e+002 1.109032e+002 9.000000e+000
      vertex   -1.256282e+002 1.108988e+002 4.500000e+000
      vertex   -1.258091e+002 1.108290e+002 9.000000e+000
    endloop
  endfacet
  facet normal -1.721274e-002 4.401935e-002 -9.729653e-006
    outer loop
      vertex   -1.258091e+002 1.108290e+002 9.000000e+000
      vertex   -1.256282e+002 1.108988e+002 4.500000e+000
      vertex   -1.258264e+002 1.108213e+002 4.500000e+000
    endloop
  endfacet
  facet normal -4.516026e-001 8.922092e-001 1.981419e-004
    outer loop
      vertex   -1.258091e+002 1.108290e+002 9.000000e+000
      vertex   -1.258264e+002 1.108213e+002 4.500000e+000
      vertex   -1.259948e+002 1.107350e+002 9.000000e+000
    endloop
  endfacet
  facet normal -2.179373e-002 4.194268e-002 -1.178839e-005
    outer loop
      vertex   -1.259948e+002 1.107350e+002 9.000000e+000
      vertex   -1.258264e+002 1.108213e+002 4.500000e+000
      vertex   -1.260153e+002 1.107231e+002 4.500000e+000
    endloop
  endfacet
  facet normal -5.418722e-001 8.404444e-001 2.432587e-004
    outer loop
      vertex   -1.259948e+002 1.107350e+002 9.000000e+000
      vertex   -1.260153e+002 1.107231e+002 4.500000e+000
      vertex   -1.261698e+002 1.106222e+002 9.000000e+000
    endloop
  endfacet
  facet normal -2.612940e-002 3.938807e-002 -1.379337e-005
    outer loop
      vertex   -1.261698e+002 1.106222e+002 9.000000e+000
      vertex   -1.260153e+002 1.107231e+002 4.500000e+000
      vertex   -1.261927e+002 1.106054e+002 4.500000e+000
    endloop
  endfacet
  facet normal -6.262859e-001 7.795678e-001 2.841177e-004
    outer loop
      vertex   -1.261698e+002 1.106222e+002 9.000000e+000
      vertex   -1.261927e+002 1.106054e+002 4.500000e+000
      vertex   -1.263320e+002 1.104919e+002 9.000000e+000
    endloop
  endfacet
  facet normal -3.016888e-002 3.638934e-002 -1.566722e-005
    outer loop
      vertex   -1.263320e+002 1.104919e+002 9.000000e+000
      vertex   -1.261927e+002 1.106054e+002 4.500000e+000
      vertex   -1.263566e+002 1.104696e+002 4.500000e+000
    endloop
  endfacet
  facet normal -7.039100e-001 7.102509e-001 3.229911e-004
    outer loop
      vertex   -1.263320e+002 1.104919e+002 9.000000e+000
      vertex   -1.263566e+002 1.104696e+002 4.500000e+000
      vertex   -1.264799e+002 1.103454e+002 9.000000e+000
    endloop
  endfacet
  facet normal -3.386806e-002 3.297867e-002 -1.742686e-005
    outer loop
      vertex   -1.264799e+002 1.103454e+002 9.000000e+000
      vertex   -1.263566e+002 1.104696e+002 4.500000e+000
      vertex   -1.265051e+002 1.103170e+002 4.500000e+000
    endloop
  endfacet
  facet normal -7.739102e-001 6.332392e-001 3.593840e-004
    outer loop
      vertex   -1.264799e+002 1.103454e+002 9.000000e+000
      vertex   -1.265051e+002 1.103170e+002 4.500000e+000
      vertex   -1.266117e+002 1.101843e+002 9.000000e+000
    endloop
  endfacet
  facet normal -3.718283e-002 2.919160e-002 -1.910047e-005
    outer loop
      vertex   -1.266117e+002 1.101843e+002 9.000000e+000
      vertex   -1.265051e+002 1.103170e+002 4.500000e+000
      vertex   -1.266366e+002 1.101496e+002 4.500000e+000
    endloop
  endfacet
  facet normal -8.355203e-001 5.493777e-001 3.922159e-004
    outer loop
      vertex   -1.266117e+002 1.101843e+002 9.000000e+000
      vertex   -1.266366e+002 1.101496e+002 4.500000e+000
      vertex   -1.267260e+002 1.100103e+002 9.000000e+000
    endloop
  endfacet
  facet normal -4.007586e-002 2.507558e-002 -2.065024e-005
    outer loop
      vertex   -1.267260e+002 1.100103e+002 9.000000e+000
      vertex   -1.266366e+002 1.101496e+002 4.500000e+000
      vertex   -1.267495e+002 1.099691e+002 4.500000e+000
    endloop
  endfacet
  facet normal -8.880976e-001 4.595340e-001 4.234878e-004
    outer loop
      vertex   -1.267260e+002 1.100103e+002 9.000000e+000
      vertex   -1.267495e+002 1.099691e+002 4.500000e+000
      vertex   -1.268217e+002 1.098255e+002 9.000000e+000
    endloop
  endfacet
  facet normal -4.251492e-002 2.067295e-002 -2.204412e-005
    outer loop
      vertex   -1.268217e+002 1.098255e+002 9.000000e+000
      vertex   -1.267495e+002 1.099691e+002 4.500000e+000
      vertex   -1.268426e+002 1.097776e+002 4.500000e+000
    endloop
  endfacet
  facet normal -9.310297e-001 3.647590e-001 4.519554e-004
    outer loop
      vertex   -1.268217e+002 1.098255e+002 9.000000e+000
      vertex   -1.268426e+002 1.097776e+002 4.500000e+000
      vertex   -1.268976e+002 1.096317e+002 9.000000e+000
    endloop
  endfacet
  facet normal -4.447283e-002 1.603794e-002 -2.336157e-005
    outer loop
      vertex   -1.268976e+002 1.096317e+002 9.000000e+000
      vertex   -1.268426e+002 1.097776e+002 4.500000e+000
      vertex   -1.269148e+002 1.095774e+002 4.500000e+000
    endloop
  endfacet
  facet normal -9.638889e-001 2.660040e-001 4.779642e-004
    outer loop
      vertex   -1.268976e+002 1.096317e+002 9.000000e+000
      vertex   -1.269148e+002 1.095774e+002 4.500000e+000
      vertex   -1.269530e+002 1.094310e+002 9.000000e+000
    endloop
  endfacet
  facet normal -4.592752e-002 1.122138e-002 -2.449420e-005
    outer loop
      vertex   -1.269530e+002 1.094310e+002 9.000000e+000
      vertex   -1.269148e+002 1.095774e+002 4.500000e+000
      vertex   -1.269654e+002 1.093706e+002 4.500000e+000
    endloop
  endfacet
  facet normal -9.863023e-001 1.643776e-001 5.028561e-004
    outer loop
      vertex   -1.269530e+002 1.094310e+002 9.000000e+000
      vertex   -1.269654e+002 1.093706e+002 4.500000e+000
      vertex   -1.269872e+002 1.092257e+002 9.000000e+000
    endloop
  endfacet
  facet normal -4.686032e-002 6.274135e-003 -2.554728e-005
    outer loop
      vertex   -1.269872e+002 1.092257e+002 9.000000e+000
      vertex   -1.269654e+002 1.093706e+002 4.500000e+000
      vertex   -1.269936e+002 1.091596e+002 4.500000e+000
    endloop
  endfacet
  facet normal -9.980295e-001 6.098418e-002 5.234374e-004
    outer loop
      vertex   -1.269872e+002 1.092257e+002 9.000000e+000
      vertex   -1.269936e+002 1.091596e+002 4.500000e+000
      vertex   -1.269999e+002 1.090179e+002 9.000000e+000
    endloop
  endfacet
  facet normal -4.726101e-002 1.258916e-003 -2.648218e-005
    outer loop
      vertex   -1.269999e+002 1.090179e+002 9.000000e+000
      vertex   -1.269936e+002 1.091596e+002 4.500000e+000
      vertex   -1.269993e+002 1.089468e+002 4.500000e+000
    endloop
  endfacet
  facet normal -9.989472e-001 -4.306281e-002 5.422283e-004
    outer loop
      vertex   -1.269999e+002 1.090179e+002 9.000000e+000
      vertex   -1.269993e+002 1.089468e+002 4.500000e+000
      vertex   -1.269910e+002 1.088100e+002 9.000000e+000
    endloop
  endfacet
  facet normal -4.712958e-002 -3.771722e-003 -2.730780e-005
    outer loop
      vertex   -1.269910e+002 1.088100e+002 9.000000e+000
      vertex   -1.269993e+002 1.089468e+002 4.500000e+000
      vertex   -1.269823e+002 1.087346e+002 4.500000e+000
    endloop
  endfacet
  facet normal -9.890426e-001 -1.466633e-001 5.585981e-004
    outer loop
      vertex   -1.269910e+002 1.088100e+002 9.000000e+000
      vertex   -1.269823e+002 1.087346e+002 4.500000e+000
      vertex   -1.269604e+002 1.086041e+002 9.000000e+000
    endloop
  endfacet
  facet normal -4.646260e-002 -8.760134e-003 -2.798438e-005
    outer loop
      vertex   -1.269604e+002 1.086041e+002 9.000000e+000
      vertex   -1.269823e+002 1.087346e+002 4.500000e+000
      vertex   -1.269429e+002 1.085253e+002 4.500000e+000
    endloop
  endfacet
  facet normal -9.684257e-001 -2.486573e-001 5.727056e-004
    outer loop
      vertex   -1.269604e+002 1.086041e+002 9.000000e+000
      vertex   -1.269429e+002 1.085253e+002 4.500000e+000
      vertex   -1.269087e+002 1.084025e+002 9.000000e+000
    endloop
  endfacet
  facet normal -2.729379e-002 -7.599216e-003 -0.000000e+000
    outer loop
      vertex   -1.269087e+002 1.084025e+002 9.000000e+000
      vertex   -1.269429e+002 1.085253e+002 4.500000e+000
      vertex   -1.269087e+002 1.084025e+002 0.000000e+000
    endloop
  endfacet
  facet normal -9.681925e-001 -2.485974e-001 -5.725676e-004
    outer loop
      vertex   -1.269087e+002 1.084025e+002 0.000000e+000
      vertex   -1.269429e+002 1.085253e+002 4.500000e+000
      vertex   -1.269604e+002 1.086041e+002 0.000000e+000
    endloop
  endfacet
  facet normal -4.646260e-002 -8.760134e-003 2.798438e-005
    outer loop
      vertex   -1.269604e+002 1.086041e+002 0.000000e+000
      vertex   -1.269429e+002 1.085253e+002 4.500000e+000
      vertex   -1.269823e+002 1.087346e+002 4.500000e+000
    endloop
  endfacet
  facet normal -9.887562e-001 -1.466208e-001 -5.584363e-004
    outer loop
      vertex   -1.269604e+002 1.086041e+002 0.000000e+000
      vertex   -1.269823e+002 1.087346e+002 4.500000e+000
      vertex   -1.269910e+002 1.088100e+002 0.000000e+000
    endloop
  endfacet
  facet normal -4.712958e-002 -3.771722e-003 2.730780e-005
    outer loop
      vertex   -1.269910e+002 1.088100e+002 0.000000e+000
      vertex   -1.269823e+002 1.087346e+002 4.500000e+000
      vertex   -1.269993e+002 1.089468e+002 4.500000e+000
    endloop
  endfacet
  facet normal -9.986092e-001 -4.304824e-002 -5.420449e-004
    outer loop
      vertex   -1.269910e+002 1.088100e+002 0.000000e+000
      vertex   -1.269993e+002 1.089468e+002 4.500000e+000
      vertex   -1.269999e+002 1.090179e+002 0.000000e+000
    endloop
  endfacet
  facet normal -4.726101e-002 1.258916e-003 2.648218e-005
    outer loop
      vertex   -1.269999e+002 1.090179e+002 0.000000e+000
      vertex   -1.269993e+002 1.089468e+002 4.500000e+000
      vertex   -1.269936e+002 1.091596e+002 4.500000e+000
    endloop
  endfacet
  facet normal -9.976434e-001 6.096058e-002 -5.232348e-004
    outer loop
      vertex   -1.269999e+002 1.090179e+002 0.000000e+000
      vertex   -1.269936e+002 1.091596e+002 4.500000e+000
      vertex   -1.269872e+002 1.092257e+002 0.000000e+000
    endloop
  endfacet
  facet normal -4.686032e-002 6.274135e-003 2.554728e-005
    outer loop
      vertex   -1.269872e+002 1.092257e+002 0.000000e+000
      vertex   -1.269936e+002 1.091596e+002 4.500000e+000
      vertex   -1.269654e+002 1.093706e+002 4.500000e+000
    endloop
  endfacet
  facet normal -9.858725e-001 1.643060e-001 -5.026370e-004
    outer loop
      vertex   -1.269872e+002 1.092257e+002 0.000000e+000
      vertex   -1.269654e+002 1.093706e+002 4.500000e+000
      vertex   -1.269530e+002 1.094310e+002 0.000000e+000
    endloop
  endfacet
  facet normal -4.592752e-002 1.122138e-002 2.449420e-005
    outer loop
      vertex   -1.269530e+002 1.094310e+002 0.000000e+000
      vertex   -1.269654e+002 1.093706e+002 4.500000e+000
      vertex   -1.269148e+002 1.095774e+002 4.500000e+000
    endloop
  endfacet
  facet normal -9.634219e-001 2.658751e-001 -4.777327e-004
    outer loop
      vertex   -1.269530e+002 1.094310e+002 0.000000e+000
      vertex   -1.269148e+002 1.095774e+002 4.500000e+000
      vertex   -1.268976e+002 1.096317e+002 0.000000e+000
    endloop
  endfacet
  facet normal -4.447283e-002 1.603794e-002 2.336157e-005
    outer loop
      vertex   -1.268976e+002 1.096317e+002 0.000000e+000
      vertex   -1.269148e+002 1.095774e+002 4.500000e+000
      vertex   -1.268426e+002 1.097776e+002 4.500000e+000
    endloop
  endfacet
  facet normal -9.305333e-001 3.645645e-001 -4.517145e-004
    outer loop
      vertex   -1.268976e+002 1.096317e+002 0.000000e+000
      vertex   -1.268426e+002 1.097776e+002 4.500000e+000
      vertex   -1.268217e+002 1.098255e+002 0.000000e+000
    endloop
  endfacet
  facet normal -4.251492e-002 2.067295e-002 2.204412e-005
    outer loop
      vertex   -1.268217e+002 1.098255e+002 0.000000e+000
      vertex   -1.268426e+002 1.097776e+002 4.500000e+000
      vertex   -1.267495e+002 1.099691e+002 4.500000e+000
    endloop
  endfacet
  facet normal -8.875809e-001 4.592666e-001 -4.232414e-004
    outer loop
      vertex   -1.268217e+002 1.098255e+002 0.000000e+000
      vertex   -1.267495e+002 1.099691e+002 4.500000e+000
      vertex   -1.267260e+002 1.100103e+002 0.000000e+000
    endloop
  endfacet
  facet normal -4.007586e-002 2.507558e-002 2.065024e-005
    outer loop
      vertex   -1.267260e+002 1.100103e+002 0.000000e+000
      vertex   -1.267495e+002 1.099691e+002 4.500000e+000
      vertex   -1.266366e+002 1.101496e+002 4.500000e+000
    endloop
  endfacet
  facet normal -8.349935e-001 5.490313e-001 -3.919686e-004
    outer loop
      vertex   -1.267260e+002 1.100103e+002 0.000000e+000
      vertex   -1.266366e+002 1.101496e+002 4.500000e+000
      vertex   -1.266117e+002 1.101843e+002 0.000000e+000
    endloop
  endfacet
  facet normal -3.718283e-002 2.919160e-002 1.910047e-005
    outer loop
      vertex   -1.266117e+002 1.101843e+002 0.000000e+000
      vertex   -1.266366e+002 1.101496e+002 4.500000e+000
      vertex   -1.265051e+002 1.103170e+002 4.500000e+000
    endloop
  endfacet
  facet normal -7.733845e-001 6.328091e-001 -3.591399e-004
    outer loop
      vertex   -1.266117e+002 1.101843e+002 0.000000e+000
      vertex   -1.265051e+002 1.103170e+002 4.500000e+000
      vertex   -1.264799e+002 1.103454e+002 0.000000e+000
    endloop
  endfacet
  facet normal -3.386806e-002 3.297867e-002 1.742686e-005
    outer loop
      vertex   -1.264799e+002 1.103454e+002 0.000000e+000
      vertex   -1.265051e+002 1.103170e+002 4.500000e+000
      vertex   -1.263566e+002 1.104696e+002 4.500000e+000
    endloop
  endfacet
  facet normal -7.033976e-001 7.097338e-001 -3.227560e-004
    outer loop
      vertex   -1.264799e+002 1.103454e+002 0.000000e+000
      vertex   -1.263566e+002 1.104696e+002 4.500000e+000
      vertex   -1.263320e+002 1.104919e+002 0.000000e+000
    endloop
  endfacet
  facet normal -3.016888e-002 3.638934e-002 1.566722e-005
    outer loop
      vertex   -1.263320e+002 1.104919e+002 0.000000e+000
      vertex   -1.263566e+002 1.104696e+002 4.500000e+000
      vertex   -1.261927e+002 1.106054e+002 4.500000e+000
    endloop
  endfacet
  facet normal -6.257996e-001 7.789624e-001 -2.838971e-004
    outer loop
      vertex   -1.263320e+002 1.104919e+002 0.000000e+000
      vertex   -1.261927e+002 1.106054e+002 4.500000e+000
      vertex   -1.261698e+002 1.106222e+002 0.000000e+000
    endloop
  endfacet
  facet normal -2.612940e-002 3.938807e-002 1.379337e-005
    outer loop
      vertex   -1.261698e+002 1.106222e+002 0.000000e+000
      vertex   -1.261927e+002 1.106054e+002 4.500000e+000
      vertex   -1.260153e+002 1.107231e+002 4.500000e+000
    endloop
  endfacet
  facet normal -5.414251e-001 8.397509e-001 -2.430579e-004
    outer loop
      vertex   -1.261698e+002 1.106222e+002 0.000000e+000
      vertex   -1.260153e+002 1.107231e+002 4.500000e+000
      vertex   -1.259948e+002 1.107350e+002 0.000000e+000
    endloop
  endfacet
  facet normal -2.179373e-002 4.194268e-002 1.178839e-005
    outer loop
      vertex   -1.259948e+002 1.107350e+002 0.000000e+000
      vertex   -1.260153e+002 1.107231e+002 4.500000e+000
      vertex   -1.258264e+002 1.108213e+002 4.500000e+000
    endloop
  endfacet
  facet normal -4.512080e-001 8.914297e-001 -1.979688e-004
    outer loop
      vertex   -1.259948e+002 1.107350e+002 0.000000e+000
      vertex   -1.258264e+002 1.108213e+002 4.500000e+000
      vertex   -1.258091e+002 1.108290e+002 0.000000e+000
    endloop
  endfacet
  facet normal -1.721274e-002 4.401935e-002 9.729653e-006
    outer loop
      vertex   -1.258091e+002 1.108290e+002 0.000000e+000
      vertex   -1.258264e+002 1.108213e+002 4.500000e+000
      vertex   -1.256282e+002 1.108988e+002 4.500000e+000
    endloop
  endfacet
  facet normal -3.560854e-001 9.334609e-001 -1.524729e-004
    outer loop
      vertex   -1.258091e+002 1.108290e+002 0.000000e+000
      vertex   -1.256282e+002 1.108988e+002 4.500000e+000
      vertex   -1.256146e+002 1.109032e+002 0.000000e+000
    endloop
  endfacet
  facet normal -1.243391e-002 4.559609e-002 7.460543e-006
    outer loop
      vertex   -1.256146e+002 1.109032e+002 0.000000e+000
      vertex   -1.256282e+002 1.108988e+002 4.500000e+000
      vertex   -1.254228e+002 1.109548e+002 4.500000e+000
    endloop
  endfacet
  facet normal -2.571247e-001 9.653712e-001 -1.033510e-004
    outer loop
      vertex   -1.256146e+002 1.109032e+002 0.000000e+000
      vertex   -1.254228e+002 1.109548e+002 4.500000e+000
      vertex   -1.254135e+002 1.109568e+002 0.000000e+000
    endloop
  endfacet
  facet normal -1.553653e-001 9.868245e-001 5.403679e-005
    outer loop
      vertex   -1.254135e+002 1.109568e+002 9.000000e+000
      vertex   -1.252079e+002 1.109892e+002 9.000000e+000
      vertex   -1.252126e+002 1.109887e+002 4.500000e+000
    endloop
  endfacet
  facet normal 1.000000e+000 0.000000e+000 0.000000e+000
    outer loop
      vertex   -1.250000e+002 1.000000e+002 0.000000e+000
      vertex   -1.250000e+002 1.110000e+002 0.000000e+000
      vertex   -1.250000e+002 1.000000e+002 9.000000e+000
    endloop
  endfacet
  facet normal 6.332378e-001 -0.000000e+000 0.000000e+000
    outer loop
      vertex   -1.250000e+002 1.000000e+002 9.000000e+000
      vertex   -1.250000e+002 1.110000e+002 0.000000e+000
      vertex   -1.250000e+002 1.110000e+002 9.000000e+000
    endloop
  endfacet
  facet normal -0.000000e+000 -0.000000e+000 9.752105e-001
    outer loop
      vertex   -1.252079e+002 1.000108e+002 9.000000e+000
      vertex   -1.250000e+002 1.000000e+002 9.000000e+000
      vertex   -1.261512e+002 1.054718e+002 9.000000e+000
    endloop
  endfacet
  facet normal -0.000000e+000 0.000000e+000 4.010621e-001
    outer loop
      vertex   -1.261512e+002 1.054718e+002 9.000000e+000
      vertex   -1.250000e+002 1.000000e+002 9.000000e+000
      vertex   -1.250000e+002 1.110000e+002 9.000000e+000
    endloop
  endfacet
  facet normal 0.000000e+000 0.000000e+000 3.596219e-002
    outer loop
      vertex   -1.261512e+002 1.054718e+002 9.000000e+000
      vertex   -1.250000e+002 1.110000e+002 9.000000e+000
      vertex   -1.252079e+002 1.109892e+002 9.000000e+000
    endloop
  endfacet
  facet normal 0.000000e+000 -0.000000e+000 1.932092e-001
    outer loop
      vertex   -1.261512e+002 1.054718e+002 9.000000e+000
      vertex   -1.252079e+002 1.109892e+002 9.000000e+000
      vertex   -1.261575e+002 1.057220e+002 9.000000e+000
    endloop
  endfacet
  facet normal 0.000000e+000 0.000000e+000 3.718372e-002
    outer loop
      vertex   -1.261575e+002 1.057220e+002 9.000000e+000
      vertex   -1.252079e+002 1.109892e+002 9.000000e+000
      vertex   -1.254135e+002 1.109568e+002 9.000000e+000
    endloop
  endfacet
  facet normal 0.000000e+000 0.000000e+000 3.677851e-002
    outer loop
      vertex   -1.261575e+002 1.057220e+002 9.000000e+000
      vertex   -1.254135e+002 1.109568e+002 9.000000e+000
      vertex   -1.256146e+002 1.109032e+002 9.000000e+000
    endloop
  endfacet
  facet normal 0.000000e+000 -0.000000e+000 2.011530e-001
    outer loop
      vertex   -1.261575e+002 1.057220e+002 9.000000e+000
      vertex   -1.256146e+002 1.109032e+002 9.000000e+000
      vertex   -1.261820e+002 1.059710e+002 9.000000e+000
    endloop
  endfacet
  facet normal 0.000000e+000 0.000000e+000 3.791399e-002
    outer loop
      vertex   -1.261820e+002 1.059710e+002 9.000000e+000
      vertex   -1.256146e+002 1.109032e+002 9.000000e+000
      vertex   -1.258091e+002 1.108290e+002 9.000000e+000
    endloop
  endfacet
  facet normal 0.000000e+000 -0.000000e+000 2.453296e-001
    outer loop
      vertex   -1.261820e+002 1.059710e+002 9.000000e+000
      vertex   -1.258091e+002 1.108290e+002 9.000000e+000
      vertex   -1.262247e+002 1.062176e+002 9.000000e+000
    endloop
  endfacet
  facet normal 0.000000e+000 0.000000e+000 3.902699e-002
    outer loop
      vertex   -1.262247e+002 1.062176e+002 9.000000e+000
      vertex   -1.258091e+002 1.108290e+002 9.000000e+000
      vertex   -1.259948e+002 1.107350e+002 9.000000e+000
    endloop
  endfacet
  facet normal 0.000000e+000 0.000000e+000 3.836248e-002
    outer loop
      vertex   -1.262247e+002 1.062176e+002 9.000000e+000
      vertex   -1.259948e+002 1.107350e+002 9.000000e+000
      vertex   -1.261698e+002 1.106222e+002 9.000000e+000
    endloop
  endfacet
  facet normal 0.000000e+000 0.000000e+000 7.717170e-001
    outer loop
      vertex   -1.261698e+002 1.106222e+002 9.000000e+000
      vertex   -1.263320e+002 1.104919e+002 9.000000e+000
      vertex   -1.262247e+002 1.062176e+002 9.000000e+000
    endloop
  endfacet
  facet normal 0.000000e+000 0.000000e+000 3.662717e-002
    outer loop
      vertex   -1.262247e+002 1.062176e+002 9.000000e+000
      vertex   -1.263320e+002 1.104919e+002 9.000000e+000
      vertex   -1.264799e+002 1.103454e+002 9.000000e+000
    endloop
  endfacet
  facet normal 0.000000e+000 0.000000e+000 3.550486e-002
    outer loop
      vertex   -1.262247e+002 1.062176e+002 9.000000e+000
      vertex   -1.264799e+002 1.103454e+002 9.000000e+000
      vertex   -1.266117e+002 1.101843e+002 9.000000e+000
    endloop
  endfacet
  facet normal 0.000000e+000 0.000000e+000 2.046781e-001
    outer loop
      vertex   -1.262247e+002 1.062176e+002 9.000000e+000
      vertex   -1.266117e+002 1.101843e+002 9.000000e+000
      vertex   -1.269087e+002 1.084025e+002 9.000000e+000
    endloop
  endfacet
  facet normal 0.000000e+000 0.000000e+000 5.203839e-002
    outer loop
      vertex   -1.269087e+002 1.084025e+002 9.000000e+000
      vertex   -1.266117e+002 1.101843e+002 9.000000e+000
      vertex   -1.267260e+002 1.100103e+002 9.000000e+000
    endloop
  endfacet
  facet normal 0.000000e+000 0.000000e+000 5.203553e-002
    outer loop
      vertex   -1.269087e+002 1.084025e+002 9.000000e+000
      vertex   -1.267260e+002 1.100103e+002 9.000000e+000
      vertex   -1.268217e+002 1.098255e+002 9.000000e+000
    endloop
  endfacet
  facet normal 0.000000e+000 0.000000e+000 3.073159e-001
    outer loop
      vertex   -1.268217e+002 1.098255e+002 9.000000e+000
      vertex   -1.268976e+002 1.096317e+002 9.000000e+000
      vertex   -1.269087e+002 1.084025e+002 9.000000e+000
    endloop
  endfacet
  facet normal 0.000000e+000 -0.000000e+000 5.203740e-002
    outer loop
      vertex   -1.269087e+002 1.084025e+002 9.000000e+000
      vertex   -1.268976e+002 1.096317e+002 9.000000e+000
      vertex   -1.269530e+002 1.094310e+002 9.000000e+000
    endloop
  endfacet
  facet normal 0.000000e+000 0.000000e+000 2.067409e-001
    outer loop
      vertex   -1.269087e+002 1.084025e+002 9.000000e+000
      vertex   -1.269530e+002 1.094310e+002 9.000000e+000
      vertex   -1.269604e+002 1.086041e+002 9.000000e+000
    endloop
  endfacet
  facet normal 0.000000e+000 -0.000000e+000 5.203381e-002
    outer loop
      vertex   -1.269604e+002 1.086041e+002 9.000000e+000
      vertex   -1.269530e+002 1.094310e+002 9.000000e+000
      vertex   -1.269872e+002 1.092257e+002 9.000000e+000
    endloop
  endfacet
  facet normal 0.000000e+000 0.000000e+000 1.039375e-001
    outer loop
      vertex   -1.269604e+002 1.086041e+002 9.000000e+000
      vertex   -1.269872e+002 1.092257e+002 9.000000e+000
      vertex   -1.269910e+002 1.088100e+002 9.000000e+000
    endloop
  endfacet
  facet normal 0.000000e+000 -0.000000e+000 5.203206e-002
    outer loop
      vertex   -1.269910e+002 1.088100e+002 9.000000e+000
      vertex   -1.269872e+002 1.092257e+002 9.000000e+000
      vertex   -1.269999e+002 1.090179e+002 9.000000e+000
    endloop
  endfacet
  facet normal 0.000000e+000 0.000000e+000 9.469418e-001
    outer loop
      vertex   -1.252079e+002 1.000108e+002 9.000000e+000
      vertex   -1.261512e+002 1.054718e+002 9.000000e+000
      vertex   -1.254135e+002 1.000432e+002 9.000000e+000
    endloop
  endfacet
  facet normal 0.000000e+000 0.000000e+000 8.707169e-003
    outer loop
      vertex   -1.254135e+002 1.000432e+002 9.000000e+000
      vertex   -1.261512e+002 1.054718e+002 9.000000e+000
      vertex   -1.261632e+002 1.052218e+002 9.000000e+000
    endloop
  endfacet
  facet normal 0.000000e+000 0.000000e+000 9.194636e-001
    outer loop
      vertex   -1.254135e+002 1.000432e+002 9.000000e+000
      vertex   -1.261632e+002 1.052218e+002 9.000000e+000
      vertex   -1.256146e+002 1.000968e+002 9.000000e+000
    endloop
  endfacet
  facet normal 0.000000e+000 0.000000e+000 1.150463e-002
    outer loop
      vertex   -1.256146e+002 1.000968e+002 9.000000e+000
      vertex   -1.261632e+002 1.052218e+002 9.000000e+000
      vertex   -1.261935e+002 1.049734e+002 9.000000e+000
    endloop
  endfacet
  facet normal 0.000000e+000 0.000000e+000 8.858048e-001
    outer loop
      vertex   -1.256146e+002 1.000968e+002 9.000000e+000
      vertex   -1.261935e+002 1.049734e+002 9.000000e+000
      vertex   -1.258091e+002 1.001710e+002 9.000000e+000
    endloop
  endfacet
  facet normal 0.000000e+000 0.000000e+000 1.479496e-002
    outer loop
      vertex   -1.258091e+002 1.001710e+002 9.000000e+000
      vertex   -1.261935e+002 1.049734e+002 9.000000e+000
      vertex   -1.262417e+002 1.047278e+002 9.000000e+000
    endloop
  endfacet
  facet normal 0.000000e+000 0.000000e+000 8.455392e-001
    outer loop
      vertex   -1.258091e+002 1.001710e+002 9.000000e+000
      vertex   -1.262417e+002 1.047278e+002 9.000000e+000
      vertex   -1.259948e+002 1.002650e+002 9.000000e+000
    endloop
  endfacet
  facet normal 0.000000e+000 0.000000e+000 8.092378e-001
    outer loop
      vertex   -1.259948e+002 1.002650e+002 9.000000e+000
      vertex   -1.262417e+002 1.047278e+002 9.000000e+000
      vertex   -1.261698e+002 1.003778e+002 9.000000e+000
    endloop
  endfacet
  facet normal 0.000000e+000 0.000000e+000 7.691155e-001
    outer loop
      vertex   -1.261698e+002 1.003778e+002 9.000000e+000
      vertex   -1.262417e+002 1.047278e+002 9.000000e+000
      vertex   -1.263320e+002 1.005081e+002 9.000000e+000
    endloop
  endfacet
  facet normal 0.000000e+000 -0.000000e+000 7.251670e-001
    outer loop
      vertex   -1.263320e+002 1.005081e+002 9.000000e+000
      vertex   -1.262417e+002 1.047278e+002 9.000000e+000
      vertex   -1.264799e+002 1.006546e+002 9.000000e+000
    endloop
  endfacet
  facet normal 0.000000e+000 -0.000000e+000 6.773528e-001
    outer loop
      vertex   -1.264799e+002 1.006546e+002 9.000000e+000
      vertex   -1.262417e+002 1.047278e+002 9.000000e+000
      vertex   -1.266117e+002 1.008157e+002 9.000000e+000
    endloop
  endfacet
  facet normal 0.000000e+000 -0.000000e+000 2.565347e-001
    outer loop
      vertex   -1.266117e+002 1.008157e+002 9.000000e+000
      vertex   -1.262417e+002 1.047278e+002 9.000000e+000
      vertex   -1.269087e+002 1.025975e+002 9.000000e+000
    endloop
  endfacet
  facet normal 0.000000e+000 0.000000e+000 4.045610e-001
    outer loop
      vertex   -1.266117e+002 1.008157e+002 9.000000e+000
      vertex   -1.269087e+002 1.025975e+002 9.000000e+000
      vertex   -1.267260e+002 1.009897e+002 9.000000e+000
    endloop
  endfacet
  facet normal 0.000000e+000 0.000000e+000 3.563991e-001
    outer loop
      vertex   -1.267260e+002 1.009897e+002 9.000000e+000
      vertex   -1.269087e+002 1.025975e+002 9.000000e+000
      vertex   -1.268217e+002 1.011745e+002 9.000000e+000
    endloop
  endfacet
  facet normal 0.000000e+000 0.000000e+000 3.073159e-001
    outer loop
      vertex   -1.268217e+002 1.011745e+002 9.000000e+000
      vertex   -1.269087e+002 1.025975e+002 9.000000e+000
      vertex   -1.268976e+002 1.013683e+002 9.000000e+000
    endloop
  endfacet
  facet normal 0.000000e+000 0.000000e+000 2.573693e-001
    outer loop
      vertex   -1.268976e+002 1.013683e+002 9.000000e+000
      vertex   -1.269087e+002 1.025975e+002 9.000000e+000
      vertex   -1.269530e+002 1.015690e+002 9.000000e+000
    endloop
  endfacet
  facet normal 0.000000e+000 -0.000000e+000 5.203632e-002
    outer loop
      vertex   -1.269530e+002 1.015690e+002 9.000000e+000
      vertex   -1.269087e+002 1.025975e+002 9.000000e+000
      vertex   -1.269604e+002 1.023959e+002 9.000000e+000
    endloop
  endfacet
  facet normal 0.000000e+000 0.000000e+000 1.555410e-001
    outer loop
      vertex   -1.269530e+002 1.015690e+002 9.000000e+000
      vertex   -1.269604e+002 1.023959e+002 9.000000e+000
      vertex   -1.269872e+002 1.017743e+002 9.000000e+000
    endloop
  endfacet
  facet normal 0.000000e+000 -0.000000e+000 5.204030e-002
    outer loop
      vertex   -1.269872e+002 1.017743e+002 9.000000e+000
      vertex   -1.269604e+002 1.023959e+002 9.000000e+000
      vertex   -1.269910e+002 1.021900e+002 9.000000e+000
    endloop
  endfacet
  facet normal 0.000000e+000 0.000000e+000 5.203115e-002
    outer loop
      vertex   -1.269872e+002 1.017743e+002 9.000000e+000
      vertex   -1.269910e+002 1.021900e+002 9.000000e+000
      vertex   -1.269999e+002 1.019821e+002 9.000000e+000
    endloop
  endfacet
  facet normal 0.000000e+000 -0.000000e+000 -9.755887e-001
    outer loop
      vertex   -1.252079e+002 1.109892e+002 0.000000e+000
      vertex   -1.250000e+002 1.110000e+002 0.000000e+000
      vertex   -1.261512e+002 1.054718e+002 0.000000e+000
    endloop
  endfacet
  facet normal 0.000000e+000 0.000000e+000 -4.010621e-001
    outer loop
      vertex   -1.261512e+002 1.054718e+002 0.000000e+000
      vertex   -1.250000e+002 1.110000e+002 0.000000e+000
      vertex   -1.250000e+002 1.000000e+002 0.000000e+000
    endloop
  endfacet
  facet normal 0.000000e+000 0.000000e+000 -3.630323e-002
    outer loop
      vertex   -1.261512e+002 1.054718e+002 0.000000e+000
      vertex   -1.250000e+002 1.000000e+002 0.000000e+000
      vertex   -1.252079e+002 1.000108e+002 0.000000e+000
    endloop
  endfacet
  facet normal 0.000000e+000 0.000000e+000 -9.469418e-001
    outer loop
      vertex   -1.252079e+002 1.000108e+002 0.000000e+000
      vertex   -1.254135e+002 1.000432e+002 0.000000e+000
      vertex   -1.261512e+002 1.054718e+002 0.000000e+000
    endloop
  endfacet
  facet normal 0.000000e+000 -0.000000e+000 -1.820514e-001
    outer loop
      vertex   -1.261512e+002 1.054718e+002 0.000000e+000
      vertex   -1.254135e+002 1.000432e+002 0.000000e+000
      vertex   -1.261632e+002 1.052218e+002 0.000000e+000
    endloop
  endfacet
  facet normal 0.000000e+000 0.000000e+000 -3.713194e-002
    outer loop
      vertex   -1.261632e+002 1.052218e+002 0.000000e+000
      vertex   -1.254135e+002 1.000432e+002 0.000000e+000
      vertex   -1.256146e+002 1.000968e+002 0.000000e+000
    endloop
  endfacet
  facet normal 0.000000e+000 -0.000000e+000 -2.257543e-001
    outer loop
      vertex   -1.261632e+002 1.052218e+002 0.000000e+000
      vertex   -1.256146e+002 1.000968e+002 0.000000e+000
      vertex   -1.261935e+002 1.049734e+002 0.000000e+000
    endloop
  endfacet
  facet normal 0.000000e+000 0.000000e+000 -3.827095e-002
    outer loop
      vertex   -1.261935e+002 1.049734e+002 0.000000e+000
      vertex   -1.256146e+002 1.000968e+002 0.000000e+000
      vertex   -1.258091e+002 1.001710e+002 0.000000e+000
    endloop
  endfacet
  facet normal 0.000000e+000 -0.000000e+000 -2.706118e-001
    outer loop
      vertex   -1.261935e+002 1.049734e+002 0.000000e+000
      vertex   -1.258091e+002 1.001710e+002 0.000000e+000
      vertex   -1.262417e+002 1.047278e+002 0.000000e+000
    endloop
  endfacet
  facet normal 0.000000e+000 0.000000e+000 -3.937601e-002
    outer loop
      vertex   -1.262417e+002 1.047278e+002 0.000000e+000
      vertex   -1.258091e+002 1.001710e+002 0.000000e+000
      vertex   -1.259948e+002 1.002650e+002 0.000000e+000
    endloop
  endfacet
  facet normal 0.000000e+000 0.000000e+000 -3.871677e-002
    outer loop
      vertex   -1.262417e+002 1.047278e+002 0.000000e+000
      vertex   -1.259948e+002 1.002650e+002 0.000000e+000
      vertex   -1.261698e+002 1.003778e+002 0.000000e+000
    endloop
  endfacet
  facet normal 0.000000e+000 0.000000e+000 -7.691155e-001
    outer loop
      vertex   -1.261698e+002 1.003778e+002 0.000000e+000
      vertex   -1.263320e+002 1.005081e+002 0.000000e+000
      vertex   -1.262417e+002 1.047278e+002 0.000000e+000
    endloop
  endfacet
  facet normal 0.000000e+000 0.000000e+000 -3.699457e-002
    outer loop
      vertex   -1.262417e+002 1.047278e+002 0.000000e+000
      vertex   -1.263320e+002 1.005081e+002 0.000000e+000
      vertex   -1.264799e+002 1.006546e+002 0.000000e+000
    endloop
  endfacet
  facet normal 0.000000e+000 0.000000e+000 -3.587960e-002
    outer loop
      vertex   -1.262417e+002 1.047278e+002 0.000000e+000
      vertex   -1.264799e+002 1.006546e+002 0.000000e+000
      vertex   -1.266117e+002 1.008157e+002 0.000000e+000
    endloop
  endfacet
  facet normal 0.000000e+000 0.000000e+000 -2.075896e-001
    outer loop
      vertex   -1.262417e+002 1.047278e+002 0.000000e+000
      vertex   -1.266117e+002 1.008157e+002 0.000000e+000
      vertex   -1.269087e+002 1.025975e+002 0.000000e+000
    endloop
  endfacet
  facet normal 0.000000e+000 0.000000e+000 -5.203839e-002
    outer loop
      vertex   -1.269087e+002 1.025975e+002 0.000000e+000
      vertex   -1.266117e+002 1.008157e+002 0.000000e+000
      vertex   -1.267260e+002 1.009897e+002 0.000000e+000
    endloop
  endfacet
  facet normal 0.000000e+000 0.000000e+000 -5.203553e-002
    outer loop
      vertex   -1.269087e+002 1.025975e+002 0.000000e+000
      vertex   -1.267260e+002 1.009897e+002 0.000000e+000
      vertex   -1.268217e+002 1.011745e+002 0.000000e+000
    endloop
  endfacet
  facet normal 0.000000e+000 0.000000e+000 -3.073159e-001
    outer loop
      vertex   -1.268217e+002 1.011745e+002 0.000000e+000
      vertex   -1.268976e+002 1.013683e+002 0.000000e+000
      vertex   -1.269087e+002 1.025975e+002 0.000000e+000
    endloop
  endfacet
  facet normal 0.000000e+000 -0.000000e+000 -5.203740e-002
    outer loop
      vertex   -1.269087e+002 1.025975e+002 0.000000e+000
      vertex   -1.268976e+002 1.013683e+002 0.000000e+000
      vertex   -1.269530e+002 1.015690e+002 0.000000e+000
    endloop
  endfacet
  facet normal 0.000000e+000 0.000000e+000 -2.067409e-001
    outer loop
      vertex   -1.269087e+002 1.025975e+002 0.000000e+000
      vertex   -1.269530e+002 1.015690e+002 0.000000e+000
      vertex   -1.269604e+002 1.023959e+002 0.000000e+000
    endloop
  endfacet
  facet normal 0.000000e+000 -0.000000e+000 -5.203381e-002
    outer loop
      vertex   -1.269604e+002 1.023959e+002 0.000000e+000
      vertex   -1.269530e+002 1.015690e+002 0.000000e+000
      vertex   -1.269872e+002 1.017743e+002 0.000000e+000
    endloop
  endfacet
  facet normal 0.000000e+000 0.000000e+000 -1.039375e-001
    outer loop
      vertex   -1.269604e+002 1.023959e+002 0.000000e+000
      vertex   -1.269872e+002 1.017743e+002 0.000000e+000
      vertex   -1.269910e+002 1.021900e+002 0.000000e+000
    endloop
  endfacet
  facet normal 0.000000e+000 -0.000000e+000 -5.203206e-002
    outer loop
      vertex   -1.269910e+002 1.021900e+002 0.000000e+000
      vertex   -1.269872e+002 1.017743e+002 0.000000e+000
      vertex   -1.269999e+002 1.019821e+002 0.000000e+000
    endloop
  endfacet
  facet normal 0.000000e+000 0.000000e+000 -1.932092e-001
    outer loop
      vertex   -1.261512e+002 1.054718e+002 0.000000e+000
      vertex   -1.261575e+002 1.057220e+002 0.000000e+000
      vertex   -1.252079e+002 1.109892e+002 0.000000e+000
    endloop
  endfacet
  facet normal 0.000000e+000 0.000000e+000 -9.445640e-001
    outer loop
      vertex   -1.252079e+002 1.109892e+002 0.000000e+000
      vertex   -1.261575e+002 1.057220e+002 0.000000e+000
      vertex   -1.254135e+002 1.109568e+002 0.000000e+000
    endloop
  endfacet
  facet normal 0.000000e+000 0.000000e+000 -9.204810e-001
    outer loop
      vertex   -1.254135e+002 1.109568e+002 0.000000e+000
      vertex   -1.261575e+002 1.057220e+002 0.000000e+000
      vertex   -1.256146e+002 1.109032e+002 0.000000e+000
    endloop
  endfacet
  facet normal 0.000000e+000 0.000000e+000 -1.013958e-002
    outer loop
      vertex   -1.256146e+002 1.109032e+002 0.000000e+000
      vertex   -1.261575e+002 1.057220e+002 0.000000e+000
      vertex   -1.261820e+002 1.059710e+002 0.000000e+000
    endloop
  endfacet
  facet normal 0.000000e+000 0.000000e+000 -8.874729e-001
    outer loop
      vertex   -1.256146e+002 1.109032e+002 0.000000e+000
      vertex   -1.261820e+002 1.059710e+002 0.000000e+000
      vertex   -1.258091e+002 1.108290e+002 0.000000e+000
    endloop
  endfacet
  facet normal 0.000000e+000 0.000000e+000 -1.326057e-002
    outer loop
      vertex   -1.258091e+002 1.108290e+002 0.000000e+000
      vertex   -1.261820e+002 1.059710e+002 0.000000e+000
      vertex   -1.262247e+002 1.062176e+002 0.000000e+000
    endloop
  endfacet
  facet normal 0.000000e+000 0.000000e+000 -8.480839e-001
    outer loop
      vertex   -1.258091e+002 1.108290e+002 0.000000e+000
      vertex   -1.262247e+002 1.062176e+002 0.000000e+000
      vertex   -1.259948e+002 1.107350e+002 0.000000e+000
    endloop
  endfacet
  facet normal 0.000000e+000 0.000000e+000 -8.118353e-001
    outer loop
      vertex   -1.259948e+002 1.107350e+002 0.000000e+000
      vertex   -1.262247e+002 1.062176e+002 0.000000e+000
      vertex   -1.261698e+002 1.106222e+002 0.000000e+000
    endloop
  endfacet
  facet normal 0.000000e+000 0.000000e+000 -7.717170e-001
    outer loop
      vertex   -1.261698e+002 1.106222e+002 0.000000e+000
      vertex   -1.262247e+002 1.062176e+002 0.000000e+000
      vertex   -1.263320e+002 1.104919e+002 0.000000e+000
    endloop
  endfacet
  facet normal 0.000000e+000 -0.000000e+000 -7.277232e-001
    outer loop
      vertex   -1.263320e+002 1.104919e+002 0.000000e+000
      vertex   -1.262247e+002 1.062176e+002 0.000000e+000
      vertex   -1.264799e+002 1.103454e+002 0.000000e+000
    endloop
  endfacet
  facet normal 0.000000e+000 -0.000000e+000 -6.798151e-001
    outer loop
      vertex   -1.264799e+002 1.103454e+002 0.000000e+000
      vertex   -1.262247e+002 1.062176e+002 0.000000e+000
      vertex   -1.266117e+002 1.101843e+002 0.000000e+000
    endloop
  endfacet
  facet normal 0.000000e+000 -0.000000e+000 -2.594111e-001
    outer loop
      vertex   -1.266117e+002 1.101843e+002 0.000000e+000
      vertex   -1.262247e+002 1.062176e+002 0.000000e+000
      vertex   -1.269087e+002 1.084025e+002 0.000000e+000
    endloop
  endfacet
  facet normal 0.000000e+000 0.000000e+000 -4.045610e-001
    outer loop
      vertex   -1.266117e+002 1.101843e+002 0.000000e+000
      vertex   -1.269087e+002 1.084025e+002 0.000000e+000
      vertex   -1.267260e+002 1.100103e+002 0.000000e+000
    endloop
  endfacet
  facet normal 0.000000e+000 0.000000e+000 -3.563991e-001
    outer loop
      vertex   -1.267260e+002 1.100103e+002 0.000000e+000
      vertex   -1.269087e+002 1.084025e+002 0.000000e+000
      vertex   -1.268217e+002 1.098255e+002 0.000000e+000
    endloop
  endfacet
  facet normal 0.000000e+000 0.000000e+000 -3.073159e-001
    outer loop
      vertex   -1.268217e+002 1.098255e+002 0.000000e+000
      vertex   -1.269087e+002 1.084025e+002 0.000000e+000
      vertex   -1.268976e+002 1.096317e+002 0.000000e+000
    endloop
  endfacet
  facet normal 0.000000e+000 0.000000e+000 -2.573693e-001
    outer loop
      vertex   -1.268976e+002 1.096317e+002 0.000000e+000
      vertex   -1.269087e+002 1.084025e+002 0.000000e+000
      vertex   -1.269530e+002 1.094310e+002 0.000000e+000
    endloop
  endfacet
  facet normal 0.000000e+000 -0.000000e+000 -5.203632e-002
    outer loop
      vertex   -1.269530e+002 1.094310e+002 0.000000e+000
      vertex   -1.269087e+002 1.084025e+002 0.000000e+000
      vertex   -1.269604e+002 1.086041e+002 0.000000e+000
    endloop
  endfacet
  facet normal 0.000000e+000 0.000000e+000 -1.555410e-001
    outer loop
      vertex   -1.269530e+002 1.094310e+002 0.000000e+000
      vertex   -1.269604e+002 1.086041e+002 0.000000e+000
      vertex   -1.269872e+002 1.092257e+002 0.000000e+000
    endloop
  endfacet
  facet normal 0.000000e+000 -0.000000e+000 -5.204030e-002
    outer loop
      vertex   -1.269872e+002 1.092257e+002 0.000000e+000
      vertex   -1.269604e+002 1.086041e+002 0.000000e+000
      vertex   -1.269910e+002 1.088100e+002 0.000000e+000
    endloop
  endfacet
  facet normal 0.000000e+000 0.000000e+000 -5.203115e-002
    outer loop
      vertex   -1.269872e+002 1.092257e+002 0.000000e+000
      vertex   -1.269910e+002 1.088100e+002 0.000000e+000
      vertex   -1.269999e+002 1.090179e+002 0.000000e+000
    endloop
  endfacet
endsolid
