solid ascii
  facet normal 1.000000e+000 0.000000e+000 0.000000e+000
    outer loop
      vertex   -1.250000e+002 1.750000e+002 0.000000e+000
      vertex   -1.250000e+002 1.850000e+002 0.000000e+000
      vertex   -1.250000e+002 1.750000e+002 3.500000e+000
    endloop
  endfacet
  facet normal 3.303504e-001 -0.000000e+000 0.000000e+000
    outer loop
      vertex   -1.250000e+002 1.750000e+002 3.500000e+000
      vertex   -1.250000e+002 1.850000e+002 0.000000e+000
      vertex   -1.250000e+002 1.850000e+002 3.500000e+000
    endloop
  endfacet
  facet normal -0.000000e+000 0.000000e+000 1.000000e+000
    outer loop
      vertex   -1.280000e+002 1.793677e+002 3.500000e+000
      vertex   -1.280000e+002 1.750000e+002 3.500000e+000
      vertex   -1.274522e+002 1.793677e+002 3.500000e+000
    endloop
  endfacet
  facet normal 0.000000e+000 0.000000e+000 5.942610e-001
    outer loop
      vertex   -1.274522e+002 1.793677e+002 3.500000e+000
      vertex   -1.280000e+002 1.750000e+002 3.500000e+000
      vertex   -1.250000e+002 1.750000e+002 3.500000e+000
    endloop
  endfacet
  facet normal -0.000000e+000 0.000000e+000 4.895605e-001
    outer loop
      vertex   -1.274522e+002 1.793677e+002 3.500000e+000
      vertex   -1.250000e+002 1.750000e+002 3.500000e+000
      vertex   -1.274522e+002 1.805935e+002 3.500000e+000
    endloop
  endfacet
  facet normal -0.000000e+000 0.000000e+000 7.962041e-001
    outer loop
      vertex   -1.274522e+002 1.805935e+002 3.500000e+000
      vertex   -1.250000e+002 1.750000e+002 3.500000e+000
      vertex   -1.250000e+002 1.850000e+002 3.500000e+000
    endloop
  endfacet
  facet normal 0.000000e+000 -0.000000e+000 5.903559e-001
    outer loop
      vertex   -1.274522e+002 1.805935e+002 3.500000e+000
      vertex   -1.250000e+002 1.850000e+002 3.500000e+000
      vertex   -1.280000e+002 1.850000e+002 3.500000e+000
    endloop
  endfacet
  facet normal 0.000000e+000 0.000000e+000 1.233601e-001
    outer loop
      vertex   -1.280000e+002 1.850000e+002 3.500000e+000
      vertex   -1.280000e+002 1.805935e+002 3.500000e+000
      vertex   -1.274522e+002 1.805935e+002 3.500000e+000
    endloop
  endfacet
  facet normal 0.000000e+000 -1.000000e+000 0.000000e+000
    outer loop
      vertex   -1.280000e+002 1.793677e+002 3.500000e+000
      vertex   -1.274522e+002 1.793677e+002 3.500000e+000
      vertex   -1.280000e+002 1.793677e+002 3.800000e+000
    endloop
  endfacet
  facet normal 0.000000e+000 -4.803540e-001 0.000000e+000
    outer loop
      vertex   -1.280000e+002 1.793677e+002 3.800000e+000
      vertex   -1.274522e+002 1.793677e+002 3.500000e+000
      vertex   -1.274522e+002 1.793677e+002 3.800000e+000
    endloop
  endfacet
  facet normal 0.000000e+000 1.000000e+000 -0.000000e+000
    outer loop
      vertex   -1.274522e+002 1.805935e+002 3.500000e+000
      vertex   -1.280000e+002 1.805935e+002 3.500000e+000
      vertex   -1.274522e+002 1.805935e+002 3.800000e+000
    endloop
  endfacet
  facet normal 0.000000e+000 4.803540e-001 0.000000e+000
    outer loop
      vertex   -1.274522e+002 1.805935e+002 3.800000e+000
      vertex   -1.280000e+002 1.805935e+002 3.500000e+000
      vertex   -1.280000e+002 1.805935e+002 3.800000e+000
    endloop
  endfacet
  facet normal 1.000000e+000 0.000000e+000 0.000000e+000
    outer loop
      vertex   -1.274522e+002 1.793677e+002 3.500000e+000
      vertex   -1.274522e+002 1.805935e+002 3.500000e+000
      vertex   -1.274522e+002 1.793677e+002 3.800000e+000
    endloop
  endfacet
  facet normal 2.377251e-001 -0.000000e+000 0.000000e+000
    outer loop
      vertex   -1.274522e+002 1.793677e+002 3.800000e+000
      vertex   -1.274522e+002 1.805935e+002 3.500000e+000
      vertex   -1.274522e+002 1.805935e+002 3.800000e+000
    endloop
  endfacet
  facet normal 0.000000e+000 0.000000e+000 1.000000e+000
    outer loop
      vertex   -1.274522e+002 1.805935e+002 3.800000e+000
      vertex   -1.280000e+002 1.805935e+002 3.800000e+000
      vertex   -1.274522e+002 1.793677e+002 3.800000e+000
    endloop
  endfacet
  facet normal 0.000000e+000 0.000000e+000 9.129874e-001
    outer loop
      vertex   -1.274522e+002 1.793677e+002 3.800000e+000
      vertex   -1.280000e+002 1.805935e+002 3.800000e+000
      vertex   -1.280000e+002 1.793677e+002 3.800000e+000
    endloop
  endfacet
  facet normal 1.000000e+000 0.000000e+000 0.000000e+000
    outer loop
      vertex   -1.280000e+002 1.805935e+002 3.500000e+000
      vertex   -1.280000e+002 1.850000e+002 3.500000e+000
      vertex   -1.280000e+002 1.805935e+002 3.800000e+000
    endloop
  endfacet
  facet normal 1.130908e-001 -0.000000e+000 0.000000e+000
    outer loop
      vertex   -1.280000e+002 1.805935e+002 3.800000e+000
      vertex   -1.280000e+002 1.850000e+002 3.500000e+000
      vertex   -1.280000e+002 1.850000e+002 4.000000e+000
    endloop
  endfacet
  facet normal 8.100817e-002 0.000000e+000 -0.000000e+000
    outer loop
      vertex   -1.280000e+002 1.805935e+002 3.800000e+000
      vertex   -1.280000e+002 1.850000e+002 4.000000e+000
      vertex   -1.280000e+002 1.750000e+002 4.000000e+000
    endloop
  endfacet
  facet normal 3.573283e-002 0.000000e+000 0.000000e+000
    outer loop
      vertex   -1.280000e+002 1.805935e+002 3.800000e+000
      vertex   -1.280000e+002 1.750000e+002 4.000000e+000
      vertex   -1.280000e+002 1.793677e+002 3.800000e+000
    endloop
  endfacet
  facet normal 1.140871e-001 0.000000e+000 0.000000e+000
    outer loop
      vertex   -1.280000e+002 1.793677e+002 3.800000e+000
      vertex   -1.280000e+002 1.750000e+002 4.000000e+000
      vertex   -1.280000e+002 1.750000e+002 3.500000e+000
    endloop
  endfacet
  facet normal 9.976495e-001 0.000000e+000 0.000000e+000
    outer loop
      vertex   -1.280000e+002 1.793677e+002 3.800000e+000
      vertex   -1.280000e+002 1.750000e+002 3.500000e+000
      vertex   -1.280000e+002 1.793677e+002 3.500000e+000
    endloop
  endfacet
  facet normal 0.000000e+000 -8.944272e-001 0.000000e+000
    outer loop
      vertex   -1.290000e+002 1.750000e+002 4.000000e+000
      vertex   -1.290000e+002 1.750000e+002 0.000000e+000
      vertex   -1.280000e+002 1.750000e+002 3.500000e+000
    endloop
  endfacet
  facet normal 0.000000e+000 -8.343353e-001 -0.000000e+000
    outer loop
      vertex   -1.280000e+002 1.750000e+002 3.500000e+000
      vertex   -1.290000e+002 1.750000e+002 0.000000e+000
      vertex   -1.250000e+002 1.750000e+002 0.000000e+000
    endloop
  endfacet
  facet normal 0.000000e+000 -7.592566e-001 0.000000e+000
    outer loop
      vertex   -1.280000e+002 1.750000e+002 3.500000e+000
      vertex   -1.250000e+002 1.750000e+002 0.000000e+000
      vertex   -1.250000e+002 1.750000e+002 3.500000e+000
    endloop
  endfacet
  facet normal 0.000000e+000 -8.944272e-001 0.000000e+000
    outer loop
      vertex   -1.280000e+002 1.750000e+002 3.500000e+000
      vertex   -1.280000e+002 1.750000e+002 4.000000e+000
      vertex   -1.290000e+002 1.750000e+002 4.000000e+000
    endloop
  endfacet
  facet normal -1.000000e+000 0.000000e+000 0.000000e+000
    outer loop
      vertex   -1.290000e+002 1.850000e+002 0.000000e+000
      vertex   -1.290000e+002 1.750000e+002 0.000000e+000
      vertex   -1.290000e+002 1.850000e+002 4.000000e+000
    endloop
  endfacet
  facet normal -3.713907e-001 -0.000000e+000 0.000000e+000
    outer loop
      vertex   -1.290000e+002 1.850000e+002 4.000000e+000
      vertex   -1.290000e+002 1.750000e+002 0.000000e+000
      vertex   -1.290000e+002 1.750000e+002 4.000000e+000
    endloop
  endfacet
  facet normal 0.000000e+000 1.000000e+000 0.000000e+000
    outer loop
      vertex   -1.250000e+002 1.850000e+002 3.500000e+000
      vertex   -1.250000e+002 1.850000e+002 0.000000e+000
      vertex   -1.280000e+002 1.850000e+002 3.500000e+000
    endloop
  endfacet
  facet normal 0.000000e+000 8.343353e-001 0.000000e+000
    outer loop
      vertex   -1.280000e+002 1.850000e+002 3.500000e+000
      vertex   -1.250000e+002 1.850000e+002 0.000000e+000
      vertex   -1.290000e+002 1.850000e+002 0.000000e+000
    endloop
  endfacet
  facet normal 0.000000e+000 9.828722e-001 0.000000e+000
    outer loop
      vertex   -1.280000e+002 1.850000e+002 3.500000e+000
      vertex   -1.290000e+002 1.850000e+002 0.000000e+000
      vertex   -1.290000e+002 1.850000e+002 4.000000e+000
    endloop
  endfacet
  facet normal -0.000000e+000 4.472136e-001 0.000000e+000
    outer loop
      vertex   -1.290000e+002 1.850000e+002 4.000000e+000
      vertex   -1.280000e+002 1.850000e+002 4.000000e+000
      vertex   -1.280000e+002 1.850000e+002 3.500000e+000
    endloop
  endfacet
  facet normal 0.000000e+000 0.000000e+000 1.000000e+000
    outer loop
      vertex   -1.280000e+002 1.850000e+002 4.000000e+000
      vertex   -1.290000e+002 1.850000e+002 4.000000e+000
      vertex   -1.280000e+002 1.750000e+002 4.000000e+000
    endloop
  endfacet
  facet normal 0.000000e+000 0.000000e+000 9.950372e-001
    outer loop
      vertex   -1.280000e+002 1.750000e+002 4.000000e+000
      vertex   -1.290000e+002 1.850000e+002 4.000000e+000
      vertex   -1.290000e+002 1.750000e+002 4.000000e+000
    endloop
  endfacet
  facet normal 0.000000e+000 0.000000e+000 -1.000000e+000
    outer loop
      vertex   -1.250000e+002 1.750000e+002 0.000000e+000
      vertex   -1.290000e+002 1.750000e+002 0.000000e+000
      vertex   -1.250000e+002 1.850000e+002 0.000000e+000
    endloop
  endfacet
  facet normal -0.000000e+000 0.000000e+000 -9.284767e-001
    outer loop
      vertex   -1.250000e+002 1.850000e+002 0.000000e+000
      vertex   -1.290000e+002 1.750000e+002 0.000000e+000
      vertex   -1.290000e+002 1.850000e+002 0.000000e+000
    endloop
  endfacet
endsolid
