solid ascii
  facet normal 9.993773e-001 3.528585e-002 -0.000000e+000
    outer loop
      vertex   -9.551121e+001 2.531742e+001 -5.000000e+000
      vertex   -9.551121e+001 2.531742e+001 0.000000e+000
      vertex   -9.550000e+001 2.500000e+001 -5.000000e+000
    endloop
  endfacet
  facet normal 6.335725e-002 2.237007e-003 -0.000000e+000
    outer loop
      vertex   -9.550000e+001 2.500000e+001 -5.000000e+000
      vertex   -9.551121e+001 2.531742e+001 0.000000e+000
      vertex   -9.550000e+001 2.500000e+001 0.000000e+000
    endloop
  endfacet
  facet normal 9.993773e-001 -3.528585e-002 0.000000e+000
    outer loop
      vertex   -9.550000e+001 2.500000e+001 -5.000000e+000
      vertex   -9.550000e+001 2.500000e+001 0.000000e+000
      vertex   -9.551121e+001 2.468258e+001 -5.000000e+000
    endloop
  endfacet
  facet normal 6.335725e-002 -2.237007e-003 0.000000e+000
    outer loop
      vertex   -9.551121e+001 2.468258e+001 -5.000000e+000
      vertex   -9.550000e+001 2.500000e+001 0.000000e+000
      vertex   -9.551121e+001 2.468258e+001 0.000000e+000
    endloop
  endfacet
  facet normal 9.943967e-001 -1.057132e-001 0.000000e+000
    outer loop
      vertex   -9.551121e+001 2.468258e+001 -5.000000e+000
      vertex   -9.551121e+001 2.468258e+001 0.000000e+000
      vertex   -9.554478e+001 2.436673e+001 -5.000000e+000
    endloop
  endfacet
  facet normal 6.304164e-002 -6.701884e-003 0.000000e+000
    outer loop
      vertex   -9.554478e+001 2.436673e+001 -5.000000e+000
      vertex   -9.551121e+001 2.468258e+001 0.000000e+000
      vertex   -9.554478e+001 2.436673e+001 0.000000e+000
    endloop
  endfacet
  facet normal 9.844681e-001 -1.755637e-001 0.000000e+000
    outer loop
      vertex   -9.554478e+001 2.436673e+001 -5.000000e+000
      vertex   -9.554478e+001 2.436673e+001 0.000000e+000
      vertex   -9.560055e+001 2.405404e+001 -5.000000e+000
    endloop
  endfacet
  facet normal 6.241234e-002 -1.113021e-002 0.000000e+000
    outer loop
      vertex   -9.560055e+001 2.405404e+001 -5.000000e+000
      vertex   -9.554478e+001 2.436673e+001 0.000000e+000
      vertex   -9.560055e+001 2.405404e+001 0.000000e+000
    endloop
  endfacet
  facet normal 9.696246e-001 -2.445980e-001 0.000000e+000
    outer loop
      vertex   -9.560055e+001 2.405404e+001 -5.000000e+000
      vertex   -9.560055e+001 2.405404e+001 0.000000e+000
      vertex   -9.567824e+001 2.374607e+001 -5.000000e+000
    endloop
  endfacet
  facet normal 6.147125e-002 -1.550677e-002 0.000000e+000
    outer loop
      vertex   -9.567824e+001 2.374607e+001 -5.000000e+000
      vertex   -9.560055e+001 2.405404e+001 0.000000e+000
      vertex   -9.567824e+001 2.374607e+001 0.000000e+000
    endloop
  endfacet
  facet normal 9.499635e-001 -3.123609e-001 0.000000e+000
    outer loop
      vertex   -9.567824e+001 2.374607e+001 -5.000000e+000
      vertex   -9.567824e+001 2.374607e+001 0.000000e+000
      vertex   -9.577745e+001 2.344434e+001 -5.000000e+000
    endloop
  endfacet
  facet normal 6.022445e-002 -1.980262e-002 0.000000e+000
    outer loop
      vertex   -9.577745e+001 2.344434e+001 -5.000000e+000
      vertex   -9.567824e+001 2.374607e+001 0.000000e+000
      vertex   -9.577745e+001 2.344434e+001 0.000000e+000
    endloop
  endfacet
  facet normal 9.255579e-001 -3.786062e-001 0.000000e+000
    outer loop
      vertex   -9.577745e+001 2.344434e+001 -5.000000e+000
      vertex   -9.577745e+001 2.344434e+001 0.000000e+000
      vertex   -9.589771e+001 2.315036e+001 -5.000000e+000
    endloop
  endfacet
  facet normal 5.867765e-002 -2.400252e-002 0.000000e+000
    outer loop
      vertex   -9.589771e+001 2.315036e+001 -5.000000e+000
      vertex   -9.577745e+001 2.344434e+001 0.000000e+000
      vertex   -9.589771e+001 2.315036e+001 0.000000e+000
    endloop
  endfacet
  facet normal 8.965428e-001 -4.429570e-001 0.000000e+000
    outer loop
      vertex   -9.589771e+001 2.315036e+001 -5.000000e+000
      vertex   -9.589771e+001 2.315036e+001 0.000000e+000
      vertex   -9.603840e+001 2.286559e+001 -5.000000e+000
    endloop
  endfacet
  facet normal 5.683810e-002 -2.808213e-002 0.000000e+000
    outer loop
      vertex   -9.603840e+001 2.286559e+001 -5.000000e+000
      vertex   -9.589771e+001 2.315036e+001 0.000000e+000
      vertex   -9.603840e+001 2.286559e+001 0.000000e+000
    endloop
  endfacet
  facet normal 8.630735e-001 -5.050784e-001 0.000000e+000
    outer loop
      vertex   -9.603840e+001 2.286559e+001 -5.000000e+000
      vertex   -9.603840e+001 2.286559e+001 0.000000e+000
      vertex   -9.619882e+001 2.259146e+001 -5.000000e+000
    endloop
  endfacet
  facet normal 5.471569e-002 -3.202011e-002 0.000000e+000
    outer loop
      vertex   -9.619882e+001 2.259146e+001 -5.000000e+000
      vertex   -9.603840e+001 2.286559e+001 0.000000e+000
      vertex   -9.619882e+001 2.259146e+001 0.000000e+000
    endloop
  endfacet
  facet normal 8.252879e-001 -5.647121e-001 0.000000e+000
    outer loop
      vertex   -9.619882e+001 2.259146e+001 -5.000000e+000
      vertex   -9.619882e+001 2.259146e+001 0.000000e+000
      vertex   -9.637819e+001 2.232933e+001 -5.000000e+000
    endloop
  endfacet
  facet normal 5.232107e-002 -3.580125e-002 0.000000e+000
    outer loop
      vertex   -9.637819e+001 2.232933e+001 -5.000000e+000
      vertex   -9.619882e+001 2.259146e+001 0.000000e+000
      vertex   -9.637819e+001 2.232933e+001 0.000000e+000
    endloop
  endfacet
  facet normal 7.834073e-001 -6.215086e-001 0.000000e+000
    outer loop
      vertex   -9.637819e+001 2.232933e+001 -5.000000e+000
      vertex   -9.637819e+001 2.232933e+001 0.000000e+000
      vertex   -9.657559e+001 2.208051e+001 -5.000000e+000
    endloop
  endfacet
  facet normal 4.966491e-002 -3.940117e-002 0.000000e+000
    outer loop
      vertex   -9.657559e+001 2.208051e+001 -5.000000e+000
      vertex   -9.637819e+001 2.232933e+001 0.000000e+000
      vertex   -9.657559e+001 2.208051e+001 0.000000e+000
    endloop
  endfacet
  facet normal 7.376059e-001 -6.752315e-001 0.000000e+000
    outer loop
      vertex   -9.657559e+001 2.208051e+001 -5.000000e+000
      vertex   -9.657559e+001 2.208051e+001 0.000000e+000
      vertex   -9.679006e+001 2.184622e+001 -5.000000e+000
    endloop
  endfacet
  facet normal 4.676205e-002 -4.280769e-002 0.000000e+000
    outer loop
      vertex   -9.679006e+001 2.184622e+001 -5.000000e+000
      vertex   -9.657559e+001 2.208051e+001 0.000000e+000
      vertex   -9.679006e+001 2.184622e+001 0.000000e+000
    endloop
  endfacet
  facet normal 6.881413e-001 -7.255767e-001 0.000000e+000
    outer loop
      vertex   -9.679006e+001 2.184622e+001 -5.000000e+000
      vertex   -9.679006e+001 2.184622e+001 0.000000e+000
      vertex   -9.702052e+001 2.162765e+001 -5.000000e+000
    endloop
  endfacet
  facet normal 4.362620e-002 -4.599950e-002 0.000000e+000
    outer loop
      vertex   -9.702052e+001 2.162765e+001 -5.000000e+000
      vertex   -9.679006e+001 2.184622e+001 0.000000e+000
      vertex   -9.702052e+001 2.162765e+001 0.000000e+000
    endloop
  endfacet
  facet normal 6.352392e-001 -7.723154e-001 0.000000e+000
    outer loop
      vertex   -9.702052e+001 2.162765e+001 -5.000000e+000
      vertex   -9.702052e+001 2.162765e+001 0.000000e+000
      vertex   -9.726583e+001 2.142588e+001 -5.000000e+000
    endloop
  endfacet
  facet normal 4.027260e-002 -4.896289e-002 0.000000e+000
    outer loop
      vertex   -9.726583e+001 2.142588e+001 -5.000000e+000
      vertex   -9.702052e+001 2.162765e+001 0.000000e+000
      vertex   -9.726583e+001 2.142588e+001 0.000000e+000
    endloop
  endfacet
  facet normal 5.791931e-001 -8.151904e-001 0.000000e+000
    outer loop
      vertex   -9.726583e+001 2.142588e+001 -5.000000e+000
      vertex   -9.726583e+001 2.142588e+001 0.000000e+000
      vertex   -9.752475e+001 2.124192e+001 -5.000000e+000
    endloop
  endfacet
  facet normal 3.671836e-002 -5.167959e-002 0.000000e+000
    outer loop
      vertex   -9.752475e+001 2.124192e+001 -5.000000e+000
      vertex   -9.726583e+001 2.142588e+001 0.000000e+000
      vertex   -9.752475e+001 2.124192e+001 0.000000e+000
    endloop
  endfacet
  facet normal 5.202330e-001 -8.540244e-001 0.000000e+000
    outer loop
      vertex   -9.752475e+001 2.124192e+001 -5.000000e+000
      vertex   -9.752475e+001 2.124192e+001 0.000000e+000
      vertex   -9.779601e+001 2.107668e+001 -5.000000e+000
    endloop
  endfacet
  facet normal 3.298176e-002 -5.414348e-002 0.000000e+000
    outer loop
      vertex   -9.779601e+001 2.107668e+001 -5.000000e+000
      vertex   -9.752475e+001 2.124192e+001 0.000000e+000
      vertex   -9.779601e+001 2.107668e+001 0.000000e+000
    endloop
  endfacet
  facet normal 4.587015e-001 -8.885904e-001 0.000000e+000
    outer loop
      vertex   -9.779601e+001 2.107668e+001 -5.000000e+000
      vertex   -9.779601e+001 2.107668e+001 0.000000e+000
      vertex   -9.807825e+001 2.093099e+001 -5.000000e+000
    endloop
  endfacet
  facet normal 2.907995e-002 -5.633329e-002 0.000000e+000
    outer loop
      vertex   -9.807825e+001 2.093099e+001 -5.000000e+000
      vertex   -9.779601e+001 2.107668e+001 0.000000e+000
      vertex   -9.807825e+001 2.093099e+001 0.000000e+000
    endloop
  endfacet
  facet normal 3.948830e-001 -9.187314e-001 0.000000e+000
    outer loop
      vertex   -9.807825e+001 2.093099e+001 -5.000000e+000
      vertex   -9.807825e+001 2.093099e+001 0.000000e+000
      vertex   -9.837006e+001 2.080556e+001 -5.000000e+000
    endloop
  endfacet
  facet normal 2.503423e-002 -5.824442e-002 0.000000e+000
    outer loop
      vertex   -9.837006e+001 2.080556e+001 -5.000000e+000
      vertex   -9.807825e+001 2.093099e+001 0.000000e+000
      vertex   -9.837006e+001 2.080556e+001 0.000000e+000
    endloop
  endfacet
  facet normal 3.290865e-001 -9.442998e-001 0.000000e+000
    outer loop
      vertex   -9.837006e+001 2.080556e+001 -5.000000e+000
      vertex   -9.837006e+001 2.080556e+001 0.000000e+000
      vertex   -9.866999e+001 2.070104e+001 -5.000000e+000
    endloop
  endfacet
  facet normal 2.086325e-002 -5.986620e-002 0.000000e+000
    outer loop
      vertex   -9.866999e+001 2.070104e+001 -5.000000e+000
      vertex   -9.837006e+001 2.080556e+001 0.000000e+000
      vertex   -9.866999e+001 2.070104e+001 0.000000e+000
    endloop
  endfacet
  facet normal 2.616593e-001 -9.651603e-001 0.000000e+000
    outer loop
      vertex   -9.866999e+001 2.070104e+001 -5.000000e+000
      vertex   -9.866999e+001 2.070104e+001 0.000000e+000
      vertex   -9.897655e+001 2.061793e+001 -5.000000e+000
    endloop
  endfacet
  facet normal 1.658834e-002 -6.118800e-002 0.000000e+000
    outer loop
      vertex   -9.897655e+001 2.061793e+001 -5.000000e+000
      vertex   -9.866999e+001 2.070104e+001 0.000000e+000
      vertex   -9.897655e+001 2.061793e+001 0.000000e+000
    endloop
  endfacet
  facet normal 1.929266e-001 -9.812132e-001 0.000000e+000
    outer loop
      vertex   -9.897655e+001 2.061793e+001 -5.000000e+000
      vertex   -9.897655e+001 2.061793e+001 0.000000e+000
      vertex   -9.928820e+001 2.055665e+001 -5.000000e+000
    endloop
  endfacet
  facet normal 1.223083e-002 -6.220524e-002 0.000000e+000
    outer loop
      vertex   -9.928820e+001 2.055665e+001 -5.000000e+000
      vertex   -9.897655e+001 2.061793e+001 0.000000e+000
      vertex   -9.928820e+001 2.055665e+001 0.000000e+000
    endloop
  endfacet
  facet normal 1.232306e-001 -9.923781e-001 0.000000e+000
    outer loop
      vertex   -9.928820e+001 2.055665e+001 -5.000000e+000
      vertex   -9.928820e+001 2.055665e+001 0.000000e+000
      vertex   -9.960340e+001 2.051751e+001 -5.000000e+000
    endloop
  endfacet
  facet normal 7.812393e-003 -6.291335e-002 0.000000e+000
    outer loop
      vertex   -9.960340e+001 2.051751e+001 -5.000000e+000
      vertex   -9.928820e+001 2.055665e+001 0.000000e+000
      vertex   -9.960340e+001 2.051751e+001 0.000000e+000
    endloop
  endfacet
  facet normal 5.292759e-002 -9.985983e-001 0.000000e+000
    outer loop
      vertex   -9.960340e+001 2.051751e+001 -5.000000e+000
      vertex   -9.960340e+001 2.051751e+001 0.000000e+000
      vertex   -9.992059e+001 2.050070e+001 -5.000000e+000
    endloop
  endfacet
  facet normal 3.355510e-003 -6.330927e-002 0.000000e+000
    outer loop
      vertex   -9.992059e+001 2.050070e+001 -5.000000e+000
      vertex   -9.960340e+001 2.051751e+001 0.000000e+000
      vertex   -9.992059e+001 2.050070e+001 0.000000e+000
    endloop
  endfacet
  facet normal -1.764890e-002 -9.998443e-001 0.000000e+000
    outer loop
      vertex   -9.992059e+001 2.050070e+001 -5.000000e+000
      vertex   -9.992059e+001 2.050070e+001 0.000000e+000
      vertex   -1.002382e+002 2.050631e+001 -5.000000e+000
    endloop
  endfacet
  facet normal -1.118884e-003 -6.338694e-002 0.000000e+000
    outer loop
      vertex   -1.002382e+002 2.050631e+001 -5.000000e+000
      vertex   -9.992059e+001 2.050070e+001 0.000000e+000
      vertex   -1.002382e+002 2.050631e+001 0.000000e+000
    endloop
  endfacet
  facet normal -8.813742e-002 -9.961084e-001 0.000000e+000
    outer loop
      vertex   -1.002382e+002 2.050631e+001 -5.000000e+000
      vertex   -1.002382e+002 2.050631e+001 0.000000e+000
      vertex   -1.005545e+002 2.053430e+001 -5.000000e+000
    endloop
  endfacet
  facet normal -5.587569e-003 -6.314939e-002 0.000000e+000
    outer loop
      vertex   -1.005545e+002 2.053430e+001 -5.000000e+000
      vertex   -1.002382e+002 2.050631e+001 0.000000e+000
      vertex   -1.005545e+002 2.053430e+001 0.000000e+000
    endloop
  endfacet
  facet normal -1.581751e-001 -9.874111e-001 0.000000e+000
    outer loop
      vertex   -1.005545e+002 2.053430e+001 -5.000000e+000
      vertex   -1.005545e+002 2.053430e+001 0.000000e+000
      vertex   -1.008682e+002 2.058454e+001 -5.000000e+000
    endloop
  endfacet
  facet normal -1.002770e-002 -6.259813e-002 0.000000e+000
    outer loop
      vertex   -1.008682e+002 2.058454e+001 -5.000000e+000
      vertex   -1.005545e+002 2.053430e+001 0.000000e+000
      vertex   -1.008682e+002 2.058454e+001 0.000000e+000
    endloop
  endfacet
  facet normal -2.274331e-001 -9.737937e-001 0.000000e+000
    outer loop
      vertex   -1.008682e+002 2.058454e+001 -5.000000e+000
      vertex   -1.008682e+002 2.058454e+001 0.000000e+000
      vertex   -1.011775e+002 2.065678e+001 -5.000000e+000
    endloop
  endfacet
  facet normal -1.441872e-002 -6.173621e-002 0.000000e+000
    outer loop
      vertex   -1.011775e+002 2.065678e+001 -5.000000e+000
      vertex   -1.008682e+002 2.058454e+001 0.000000e+000
      vertex   -1.011775e+002 2.065678e+001 0.000000e+000
    endloop
  endfacet
  facet normal -2.955548e-001 -9.553258e-001 0.000000e+000
    outer loop
      vertex   -1.011775e+002 2.065678e+001 -5.000000e+000
      vertex   -1.011775e+002 2.065678e+001 0.000000e+000
      vertex   -1.014809e+002 2.075065e+001 -5.000000e+000
    endloop
  endfacet
  facet normal -1.873741e-002 -6.056517e-002 0.000000e+000
    outer loop
      vertex   -1.014809e+002 2.075065e+001 -5.000000e+000
      vertex   -1.011775e+002 2.065678e+001 0.000000e+000
      vertex   -1.014809e+002 2.075065e+001 0.000000e+000
    endloop
  endfacet
  facet normal -3.622179e-001 -9.320934e-001 0.000000e+000
    outer loop
      vertex   -1.014809e+002 2.075065e+001 -5.000000e+000
      vertex   -1.014809e+002 2.075065e+001 0.000000e+000
      vertex   -1.017770e+002 2.086570e+001 -5.000000e+000
    endloop
  endfacet
  facet normal -2.296321e-002 -5.909110e-002 0.000000e+000
    outer loop
      vertex   -1.017770e+002 2.086570e+001 -5.000000e+000
      vertex   -1.014809e+002 2.075065e+001 0.000000e+000
      vertex   -1.017770e+002 2.086570e+001 0.000000e+000
    endloop
  endfacet
  facet normal -4.270587e-001 -9.042239e-001 0.000000e+000
    outer loop
      vertex   -1.017770e+002 2.086570e+001 -5.000000e+000
      vertex   -1.017770e+002 2.086570e+001 0.000000e+000
      vertex   -1.020642e+002 2.100134e+001 -5.000000e+000
    endloop
  endfacet
  facet normal -2.707403e-002 -5.732464e-002 0.000000e+000
    outer loop
      vertex   -1.020642e+002 2.100134e+001 -5.000000e+000
      vertex   -1.017770e+002 2.086570e+001 0.000000e+000
      vertex   -1.020642e+002 2.100134e+001 0.000000e+000
    endloop
  endfacet
  facet normal -4.897674e-001 -8.718532e-001 0.000000e+000
    outer loop
      vertex   -1.020642e+002 2.100134e+001 -5.000000e+000
      vertex   -1.020642e+002 2.100134e+001 0.000000e+000
      vertex   -1.023411e+002 2.115691e+001 -5.000000e+000
    endloop
  endfacet
  facet normal -3.105008e-002 -5.527341e-002 0.000000e+000
    outer loop
      vertex   -1.023411e+002 2.115691e+001 -5.000000e+000
      vertex   -1.020642e+002 2.100134e+001 0.000000e+000
      vertex   -1.023411e+002 2.115691e+001 0.000000e+000
    endloop
  endfacet
  facet normal -5.500602e-001 -8.351250e-001 0.000000e+000
    outer loop
      vertex   -1.023411e+002 2.115691e+001 -5.000000e+000
      vertex   -1.023411e+002 2.115691e+001 0.000000e+000
      vertex   -1.026063e+002 2.133162e+001 -5.000000e+000
    endloop
  endfacet
  facet normal -3.487158e-002 -5.294352e-002 0.000000e+000
    outer loop
      vertex   -1.026063e+002 2.133162e+001 -5.000000e+000
      vertex   -1.023411e+002 2.115691e+001 0.000000e+000
      vertex   -1.026063e+002 2.133162e+001 0.000000e+000
    endloop
  endfacet
  facet normal -6.075938e-001 -7.942479e-001 0.000000e+000
    outer loop
      vertex   -1.026063e+002 2.133162e+001 -5.000000e+000
      vertex   -1.026063e+002 2.133162e+001 0.000000e+000
      vertex   -1.028586e+002 2.152460e+001 -5.000000e+000
    endloop
  endfacet
  facet normal -3.851984e-002 -5.035321e-002 0.000000e+000
    outer loop
      vertex   -1.028586e+002 2.152460e+001 -5.000000e+000
      vertex   -1.026063e+002 2.133162e+001 0.000000e+000
      vertex   -1.028586e+002 2.152460e+001 0.000000e+000
    endloop
  endfacet
  facet normal -6.621073e-001 -7.494090e-001 0.000000e+000
    outer loop
      vertex   -1.028586e+002 2.152460e+001 -5.000000e+000
      vertex   -1.028586e+002 2.152460e+001 0.000000e+000
      vertex   -1.030966e+002 2.173491e+001 -5.000000e+000
    endloop
  endfacet
  facet normal -4.197548e-002 -4.751013e-002 0.000000e+000
    outer loop
      vertex   -1.030966e+002 2.173491e+001 -5.000000e+000
      vertex   -1.028586e+002 2.152460e+001 0.000000e+000
      vertex   -1.030966e+002 2.173491e+001 0.000000e+000
    endloop
  endfacet
  facet normal -7.133185e-001 -7.008400e-001 0.000000e+000
    outer loop
      vertex   -1.030966e+002 2.173491e+001 -5.000000e+000
      vertex   -1.030966e+002 2.173491e+001 0.000000e+000
      vertex   -1.033192e+002 2.196147e+001 -5.000000e+000
    endloop
  endfacet
  facet normal -4.522211e-002 -4.443101e-002 0.000000e+000
    outer loop
      vertex   -1.033192e+002 2.196147e+001 -5.000000e+000
      vertex   -1.030966e+002 2.173491e+001 0.000000e+000
      vertex   -1.033192e+002 2.196147e+001 0.000000e+000
    endloop
  endfacet
  facet normal -7.609715e-001 -6.487852e-001 0.000000e+000
    outer loop
      vertex   -1.033192e+002 2.196147e+001 -5.000000e+000
      vertex   -1.033192e+002 2.196147e+001 0.000000e+000
      vertex   -1.035253e+002 2.220317e+001 -5.000000e+000
    endloop
  endfacet
  facet normal -4.824336e-002 -4.113108e-002 0.000000e+000
    outer loop
      vertex   -1.035253e+002 2.220317e+001 -5.000000e+000
      vertex   -1.033192e+002 2.196147e+001 0.000000e+000
      vertex   -1.035253e+002 2.220317e+001 0.000000e+000
    endloop
  endfacet
  facet normal -8.048536e-001 -5.934735e-001 0.000000e+000
    outer loop
      vertex   -1.035253e+002 2.220317e+001 -5.000000e+000
      vertex   -1.035253e+002 2.220317e+001 0.000000e+000
      vertex   -1.037138e+002 2.245881e+001 -5.000000e+000
    endloop
  endfacet
  facet normal -5.102478e-002 -3.762405e-002 0.000000e+000
    outer loop
      vertex   -1.037138e+002 2.245881e+001 -5.000000e+000
      vertex   -1.035253e+002 2.220317e+001 0.000000e+000
      vertex   -1.037138e+002 2.245881e+001 0.000000e+000
    endloop
  endfacet
  facet normal -8.447009e-001 -5.352386e-001 0.000000e+000
    outer loop
      vertex   -1.037138e+002 2.245881e+001 -5.000000e+000
      vertex   -1.037138e+002 2.245881e+001 0.000000e+000
      vertex   -1.038838e+002 2.272711e+001 -5.000000e+000
    endloop
  endfacet
  facet normal -5.355188e-002 -3.393276e-002 0.000000e+000
    outer loop
      vertex   -1.038838e+002 2.272711e+001 -5.000000e+000
      vertex   -1.037138e+002 2.245881e+001 0.000000e+000
      vertex   -1.038838e+002 2.272711e+001 0.000000e+000
    endloop
  endfacet
  facet normal -8.803596e-001 -4.743068e-001 0.000000e+000
    outer loop
      vertex   -1.038838e+002 2.272711e+001 -5.000000e+000
      vertex   -1.038838e+002 2.272711e+001 0.000000e+000
      vertex   -1.040345e+002 2.300673e+001 -5.000000e+000
    endloop
  endfacet
  facet normal -5.581173e-002 -3.006940e-002 0.000000e+000
    outer loop
      vertex   -1.040345e+002 2.300673e+001 -5.000000e+000
      vertex   -1.038838e+002 2.272711e+001 0.000000e+000
      vertex   -1.040345e+002 2.300673e+001 0.000000e+000
    endloop
  endfacet
  facet normal -9.116203e-001 -4.110335e-001 0.000000e+000
    outer loop
      vertex   -1.040345e+002 2.300673e+001 -5.000000e+000
      vertex   -1.040345e+002 2.300673e+001 0.000000e+000
      vertex   -1.041650e+002 2.329629e+001 -5.000000e+000
    endloop
  endfacet
  facet normal -5.779405e-002 -2.605831e-002 0.000000e+000
    outer loop
      vertex   -1.041650e+002 2.329629e+001 -5.000000e+000
      vertex   -1.040345e+002 2.300673e+001 0.000000e+000
      vertex   -1.041650e+002 2.329629e+001 0.000000e+000
    endloop
  endfacet
  facet normal -9.383453e-001 -3.456995e-001 0.000000e+000
    outer loop
      vertex   -1.041650e+002 2.329629e+001 -5.000000e+000
      vertex   -1.041650e+002 2.329629e+001 0.000000e+000
      vertex   -1.042748e+002 2.359433e+001 -5.000000e+000
    endloop
  endfacet
  facet normal -5.948817e-002 -2.191627e-002 0.000000e+000
    outer loop
      vertex   -1.042748e+002 2.359433e+001 -5.000000e+000
      vertex   -1.041650e+002 2.329629e+001 0.000000e+000
      vertex   -1.042748e+002 2.359433e+001 0.000000e+000
    endloop
  endfacet
  facet normal -9.603901e-001 -2.786590e-001 0.000000e+000
    outer loop
      vertex   -1.042748e+002 2.359433e+001 -5.000000e+000
      vertex   -1.042748e+002 2.359433e+001 0.000000e+000
      vertex   -1.043633e+002 2.389937e+001 -5.000000e+000
    endloop
  endfacet
  facet normal -6.088573e-002 -1.766611e-002 0.000000e+000
    outer loop
      vertex   -1.043633e+002 2.389937e+001 -5.000000e+000
      vertex   -1.042748e+002 2.359433e+001 0.000000e+000
      vertex   -1.043633e+002 2.389937e+001 0.000000e+000
    endloop
  endfacet
  facet normal -9.776580e-001 -2.102020e-001 0.000000e+000
    outer loop
      vertex   -1.043633e+002 2.389937e+001 -5.000000e+000
      vertex   -1.043633e+002 2.389937e+001 0.000000e+000
      vertex   -1.044301e+002 2.420989e+001 -5.000000e+000
    endloop
  endfacet
  facet normal -6.198025e-002 -1.332611e-002 0.000000e+000
    outer loop
      vertex   -1.044301e+002 2.420989e+001 -5.000000e+000
      vertex   -1.043633e+002 2.389937e+001 0.000000e+000
      vertex   -1.044301e+002 2.420989e+001 0.000000e+000
    endloop
  endfacet
  facet normal -9.900474e-001 -1.407345e-001 0.000000e+000
    outer loop
      vertex   -1.044301e+002 2.420989e+001 -5.000000e+000
      vertex   -1.044301e+002 2.420989e+001 0.000000e+000
      vertex   -1.044748e+002 2.452436e+001 -5.000000e+000
    endloop
  endfacet
  facet normal -6.276602e-002 -8.922140e-003 0.000000e+000
    outer loop
      vertex   -1.044748e+002 2.452436e+001 -5.000000e+000
      vertex   -1.044301e+002 2.420989e+001 0.000000e+000
      vertex   -1.044748e+002 2.452436e+001 0.000000e+000
    endloop
  endfacet
  facet normal -9.975084e-001 -7.054758e-002 0.000000e+000
    outer loop
      vertex   -1.044748e+002 2.452436e+001 -5.000000e+000
      vertex   -1.044748e+002 2.452436e+001 0.000000e+000
      vertex   -1.044972e+002 2.484119e+001 -5.000000e+000
    endloop
  endfacet
  facet normal -6.323885e-002 -4.472491e-003 0.000000e+000
    outer loop
      vertex   -1.044972e+002 2.484119e+001 -5.000000e+000
      vertex   -1.044748e+002 2.452436e+001 0.000000e+000
      vertex   -1.044972e+002 2.484119e+001 0.000000e+000
    endloop
  endfacet
  facet normal -1.000000e+000 0.000000e+000 0.000000e+000
    outer loop
      vertex   -1.044972e+002 2.484119e+001 -5.000000e+000
      vertex   -1.044972e+002 2.484119e+001 0.000000e+000
      vertex   -1.044972e+002 2.515881e+001 -5.000000e+000
    endloop
  endfacet
  facet normal -6.339684e-002 0.000000e+000 0.000000e+000
    outer loop
      vertex   -1.044972e+002 2.515881e+001 -5.000000e+000
      vertex   -1.044972e+002 2.484119e+001 0.000000e+000
      vertex   -1.044972e+002 2.515881e+001 0.000000e+000
    endloop
  endfacet
  facet normal -9.975084e-001 7.054758e-002 0.000000e+000
    outer loop
      vertex   -1.044972e+002 2.515881e+001 -5.000000e+000
      vertex   -1.044972e+002 2.515881e+001 0.000000e+000
      vertex   -1.044748e+002 2.547564e+001 -5.000000e+000
    endloop
  endfacet
  facet normal -6.323885e-002 4.472491e-003 0.000000e+000
    outer loop
      vertex   -1.044748e+002 2.547564e+001 -5.000000e+000
      vertex   -1.044972e+002 2.515881e+001 0.000000e+000
      vertex   -1.044748e+002 2.547564e+001 0.000000e+000
    endloop
  endfacet
  facet normal -9.900474e-001 1.407345e-001 0.000000e+000
    outer loop
      vertex   -1.044748e+002 2.547564e+001 -5.000000e+000
      vertex   -1.044748e+002 2.547564e+001 0.000000e+000
      vertex   -1.044301e+002 2.579011e+001 -5.000000e+000
    endloop
  endfacet
  facet normal -6.276602e-002 8.922140e-003 0.000000e+000
    outer loop
      vertex   -1.044301e+002 2.579011e+001 -5.000000e+000
      vertex   -1.044748e+002 2.547564e+001 0.000000e+000
      vertex   -1.044301e+002 2.579011e+001 0.000000e+000
    endloop
  endfacet
  facet normal -9.776580e-001 2.102020e-001 0.000000e+000
    outer loop
      vertex   -1.044301e+002 2.579011e+001 -5.000000e+000
      vertex   -1.044301e+002 2.579011e+001 0.000000e+000
      vertex   -1.043633e+002 2.610063e+001 -5.000000e+000
    endloop
  endfacet
  facet normal -6.198025e-002 1.332611e-002 0.000000e+000
    outer loop
      vertex   -1.043633e+002 2.610063e+001 -5.000000e+000
      vertex   -1.044301e+002 2.579011e+001 0.000000e+000
      vertex   -1.043633e+002 2.610063e+001 0.000000e+000
    endloop
  endfacet
  facet normal -9.603901e-001 2.786590e-001 0.000000e+000
    outer loop
      vertex   -1.043633e+002 2.610063e+001 -5.000000e+000
      vertex   -1.043633e+002 2.610063e+001 0.000000e+000
      vertex   -1.042748e+002 2.640567e+001 -5.000000e+000
    endloop
  endfacet
  facet normal -6.088573e-002 1.766611e-002 0.000000e+000
    outer loop
      vertex   -1.042748e+002 2.640567e+001 -5.000000e+000
      vertex   -1.043633e+002 2.610063e+001 0.000000e+000
      vertex   -1.042748e+002 2.640567e+001 0.000000e+000
    endloop
  endfacet
  facet normal -9.383453e-001 3.456995e-001 0.000000e+000
    outer loop
      vertex   -1.042748e+002 2.640567e+001 -5.000000e+000
      vertex   -1.042748e+002 2.640567e+001 0.000000e+000
      vertex   -1.041650e+002 2.670371e+001 -5.000000e+000
    endloop
  endfacet
  facet normal -5.948817e-002 2.191627e-002 0.000000e+000
    outer loop
      vertex   -1.041650e+002 2.670371e+001 -5.000000e+000
      vertex   -1.042748e+002 2.640567e+001 0.000000e+000
      vertex   -1.041650e+002 2.670371e+001 0.000000e+000
    endloop
  endfacet
  facet normal -9.116203e-001 4.110335e-001 0.000000e+000
    outer loop
      vertex   -1.041650e+002 2.670371e+001 -5.000000e+000
      vertex   -1.041650e+002 2.670371e+001 0.000000e+000
      vertex   -1.040345e+002 2.699327e+001 -5.000000e+000
    endloop
  endfacet
  facet normal -5.779405e-002 2.605831e-002 0.000000e+000
    outer loop
      vertex   -1.040345e+002 2.699327e+001 -5.000000e+000
      vertex   -1.041650e+002 2.670371e+001 0.000000e+000
      vertex   -1.040345e+002 2.699327e+001 0.000000e+000
    endloop
  endfacet
  facet normal -8.803596e-001 4.743068e-001 0.000000e+000
    outer loop
      vertex   -1.040345e+002 2.699327e+001 -5.000000e+000
      vertex   -1.040345e+002 2.699327e+001 0.000000e+000
      vertex   -1.038838e+002 2.727289e+001 -5.000000e+000
    endloop
  endfacet
  facet normal -5.581173e-002 3.006940e-002 0.000000e+000
    outer loop
      vertex   -1.038838e+002 2.727289e+001 -5.000000e+000
      vertex   -1.040345e+002 2.699327e+001 0.000000e+000
      vertex   -1.038838e+002 2.727289e+001 0.000000e+000
    endloop
  endfacet
  facet normal -8.447009e-001 5.352386e-001 0.000000e+000
    outer loop
      vertex   -1.038838e+002 2.727289e+001 -5.000000e+000
      vertex   -1.038838e+002 2.727289e+001 0.000000e+000
      vertex   -1.037138e+002 2.754119e+001 -5.000000e+000
    endloop
  endfacet
  facet normal -5.355188e-002 3.393276e-002 0.000000e+000
    outer loop
      vertex   -1.037138e+002 2.754119e+001 -5.000000e+000
      vertex   -1.038838e+002 2.727289e+001 0.000000e+000
      vertex   -1.037138e+002 2.754119e+001 0.000000e+000
    endloop
  endfacet
  facet normal -8.048536e-001 5.934735e-001 0.000000e+000
    outer loop
      vertex   -1.037138e+002 2.754119e+001 -5.000000e+000
      vertex   -1.037138e+002 2.754119e+001 0.000000e+000
      vertex   -1.035253e+002 2.779683e+001 -5.000000e+000
    endloop
  endfacet
  facet normal -5.102478e-002 3.762405e-002 0.000000e+000
    outer loop
      vertex   -1.035253e+002 2.779683e+001 -5.000000e+000
      vertex   -1.037138e+002 2.754119e+001 0.000000e+000
      vertex   -1.035253e+002 2.779683e+001 0.000000e+000
    endloop
  endfacet
  facet normal -7.609715e-001 6.487852e-001 0.000000e+000
    outer loop
      vertex   -1.035253e+002 2.779683e+001 -5.000000e+000
      vertex   -1.035253e+002 2.779683e+001 0.000000e+000
      vertex   -1.033192e+002 2.803853e+001 -5.000000e+000
    endloop
  endfacet
  facet normal -4.824336e-002 4.113108e-002 0.000000e+000
    outer loop
      vertex   -1.033192e+002 2.803853e+001 -5.000000e+000
      vertex   -1.035253e+002 2.779683e+001 0.000000e+000
      vertex   -1.033192e+002 2.803853e+001 0.000000e+000
    endloop
  endfacet
  facet normal -7.133185e-001 7.008400e-001 0.000000e+000
    outer loop
      vertex   -1.033192e+002 2.803853e+001 -5.000000e+000
      vertex   -1.033192e+002 2.803853e+001 0.000000e+000
      vertex   -1.030966e+002 2.826509e+001 -5.000000e+000
    endloop
  endfacet
  facet normal -4.522211e-002 4.443101e-002 0.000000e+000
    outer loop
      vertex   -1.030966e+002 2.826509e+001 -5.000000e+000
      vertex   -1.033192e+002 2.803853e+001 0.000000e+000
      vertex   -1.030966e+002 2.826509e+001 0.000000e+000
    endloop
  endfacet
  facet normal -6.621073e-001 7.494090e-001 0.000000e+000
    outer loop
      vertex   -1.030966e+002 2.826509e+001 -5.000000e+000
      vertex   -1.030966e+002 2.826509e+001 0.000000e+000
      vertex   -1.028586e+002 2.847540e+001 -5.000000e+000
    endloop
  endfacet
  facet normal -4.197548e-002 4.751013e-002 0.000000e+000
    outer loop
      vertex   -1.028586e+002 2.847540e+001 -5.000000e+000
      vertex   -1.030966e+002 2.826509e+001 0.000000e+000
      vertex   -1.028586e+002 2.847540e+001 0.000000e+000
    endloop
  endfacet
  facet normal -6.075938e-001 7.942479e-001 0.000000e+000
    outer loop
      vertex   -1.028586e+002 2.847540e+001 -5.000000e+000
      vertex   -1.028586e+002 2.847540e+001 0.000000e+000
      vertex   -1.026063e+002 2.866838e+001 -5.000000e+000
    endloop
  endfacet
  facet normal -3.851984e-002 5.035321e-002 0.000000e+000
    outer loop
      vertex   -1.026063e+002 2.866838e+001 -5.000000e+000
      vertex   -1.028586e+002 2.847540e+001 0.000000e+000
      vertex   -1.026063e+002 2.866838e+001 0.000000e+000
    endloop
  endfacet
  facet normal -5.500602e-001 8.351250e-001 0.000000e+000
    outer loop
      vertex   -1.026063e+002 2.866838e+001 -5.000000e+000
      vertex   -1.026063e+002 2.866838e+001 0.000000e+000
      vertex   -1.023411e+002 2.884309e+001 -5.000000e+000
    endloop
  endfacet
  facet normal -3.487158e-002 5.294352e-002 0.000000e+000
    outer loop
      vertex   -1.023411e+002 2.884309e+001 -5.000000e+000
      vertex   -1.026063e+002 2.866838e+001 0.000000e+000
      vertex   -1.023411e+002 2.884309e+001 0.000000e+000
    endloop
  endfacet
  facet normal -4.897674e-001 8.718532e-001 0.000000e+000
    outer loop
      vertex   -1.023411e+002 2.884309e+001 -5.000000e+000
      vertex   -1.023411e+002 2.884309e+001 0.000000e+000
      vertex   -1.020642e+002 2.899866e+001 -5.000000e+000
    endloop
  endfacet
  facet normal -3.105008e-002 5.527341e-002 0.000000e+000
    outer loop
      vertex   -1.020642e+002 2.899866e+001 -5.000000e+000
      vertex   -1.023411e+002 2.884309e+001 0.000000e+000
      vertex   -1.020642e+002 2.899866e+001 0.000000e+000
    endloop
  endfacet
  facet normal -4.270587e-001 9.042239e-001 0.000000e+000
    outer loop
      vertex   -1.020642e+002 2.899866e+001 -5.000000e+000
      vertex   -1.020642e+002 2.899866e+001 0.000000e+000
      vertex   -1.017770e+002 2.913430e+001 -5.000000e+000
    endloop
  endfacet
  facet normal -2.707403e-002 5.732464e-002 0.000000e+000
    outer loop
      vertex   -1.017770e+002 2.913430e+001 -5.000000e+000
      vertex   -1.020642e+002 2.899866e+001 0.000000e+000
      vertex   -1.017770e+002 2.913430e+001 0.000000e+000
    endloop
  endfacet
  facet normal -3.622179e-001 9.320934e-001 0.000000e+000
    outer loop
      vertex   -1.017770e+002 2.913430e+001 -5.000000e+000
      vertex   -1.017770e+002 2.913430e+001 0.000000e+000
      vertex   -1.014809e+002 2.924935e+001 -5.000000e+000
    endloop
  endfacet
  facet normal -2.296321e-002 5.909110e-002 0.000000e+000
    outer loop
      vertex   -1.014809e+002 2.924935e+001 -5.000000e+000
      vertex   -1.017770e+002 2.913430e+001 0.000000e+000
      vertex   -1.014809e+002 2.924935e+001 0.000000e+000
    endloop
  endfacet
  facet normal -2.955548e-001 9.553258e-001 0.000000e+000
    outer loop
      vertex   -1.014809e+002 2.924935e+001 -5.000000e+000
      vertex   -1.014809e+002 2.924935e+001 0.000000e+000
      vertex   -1.011775e+002 2.934322e+001 -5.000000e+000
    endloop
  endfacet
  facet normal -1.873741e-002 6.056517e-002 0.000000e+000
    outer loop
      vertex   -1.011775e+002 2.934322e+001 -5.000000e+000
      vertex   -1.014809e+002 2.924935e+001 0.000000e+000
      vertex   -1.011775e+002 2.934322e+001 0.000000e+000
    endloop
  endfacet
  facet normal -2.274331e-001 9.737937e-001 0.000000e+000
    outer loop
      vertex   -1.011775e+002 2.934322e+001 -5.000000e+000
      vertex   -1.011775e+002 2.934322e+001 0.000000e+000
      vertex   -1.008682e+002 2.941546e+001 -5.000000e+000
    endloop
  endfacet
  facet normal -1.441872e-002 6.173621e-002 0.000000e+000
    outer loop
      vertex   -1.008682e+002 2.941546e+001 -5.000000e+000
      vertex   -1.011775e+002 2.934322e+001 0.000000e+000
      vertex   -1.008682e+002 2.941546e+001 0.000000e+000
    endloop
  endfacet
  facet normal -1.581751e-001 9.874111e-001 0.000000e+000
    outer loop
      vertex   -1.008682e+002 2.941546e+001 -5.000000e+000
      vertex   -1.008682e+002 2.941546e+001 0.000000e+000
      vertex   -1.005545e+002 2.946570e+001 -5.000000e+000
    endloop
  endfacet
  facet normal -1.002770e-002 6.259813e-002 0.000000e+000
    outer loop
      vertex   -1.005545e+002 2.946570e+001 -5.000000e+000
      vertex   -1.008682e+002 2.941546e+001 0.000000e+000
      vertex   -1.005545e+002 2.946570e+001 0.000000e+000
    endloop
  endfacet
  facet normal -8.813742e-002 9.961084e-001 0.000000e+000
    outer loop
      vertex   -1.005545e+002 2.946570e+001 -5.000000e+000
      vertex   -1.005545e+002 2.946570e+001 0.000000e+000
      vertex   -1.002382e+002 2.949369e+001 -5.000000e+000
    endloop
  endfacet
  facet normal -5.587569e-003 6.314939e-002 0.000000e+000
    outer loop
      vertex   -1.002382e+002 2.949369e+001 -5.000000e+000
      vertex   -1.005545e+002 2.946570e+001 0.000000e+000
      vertex   -1.002382e+002 2.949369e+001 0.000000e+000
    endloop
  endfacet
  facet normal -1.764890e-002 9.998443e-001 0.000000e+000
    outer loop
      vertex   -1.002382e+002 2.949369e+001 -5.000000e+000
      vertex   -1.002382e+002 2.949369e+001 0.000000e+000
      vertex   -9.992059e+001 2.949930e+001 -5.000000e+000
    endloop
  endfacet
  facet normal -1.118884e-003 6.338694e-002 0.000000e+000
    outer loop
      vertex   -9.992059e+001 2.949930e+001 -5.000000e+000
      vertex   -1.002382e+002 2.949369e+001 0.000000e+000
      vertex   -9.992059e+001 2.949930e+001 0.000000e+000
    endloop
  endfacet
  facet normal 5.292759e-002 9.985983e-001 -0.000000e+000
    outer loop
      vertex   -9.992059e+001 2.949930e+001 -5.000000e+000
      vertex   -9.992059e+001 2.949930e+001 0.000000e+000
      vertex   -9.960340e+001 2.948249e+001 -5.000000e+000
    endloop
  endfacet
  facet normal 3.355510e-003 6.330927e-002 -0.000000e+000
    outer loop
      vertex   -9.960340e+001 2.948249e+001 -5.000000e+000
      vertex   -9.992059e+001 2.949930e+001 0.000000e+000
      vertex   -9.960340e+001 2.948249e+001 0.000000e+000
    endloop
  endfacet
  facet normal 1.232306e-001 9.923781e-001 -0.000000e+000
    outer loop
      vertex   -9.960340e+001 2.948249e+001 -5.000000e+000
      vertex   -9.960340e+001 2.948249e+001 0.000000e+000
      vertex   -9.928820e+001 2.944335e+001 -5.000000e+000
    endloop
  endfacet
  facet normal 7.812393e-003 6.291335e-002 -0.000000e+000
    outer loop
      vertex   -9.928820e+001 2.944335e+001 -5.000000e+000
      vertex   -9.960340e+001 2.948249e+001 0.000000e+000
      vertex   -9.928820e+001 2.944335e+001 0.000000e+000
    endloop
  endfacet
  facet normal 1.929266e-001 9.812132e-001 -0.000000e+000
    outer loop
      vertex   -9.928820e+001 2.944335e+001 -5.000000e+000
      vertex   -9.928820e+001 2.944335e+001 0.000000e+000
      vertex   -9.897655e+001 2.938207e+001 -5.000000e+000
    endloop
  endfacet
  facet normal 1.223083e-002 6.220524e-002 -0.000000e+000
    outer loop
      vertex   -9.897655e+001 2.938207e+001 -5.000000e+000
      vertex   -9.928820e+001 2.944335e+001 0.000000e+000
      vertex   -9.897655e+001 2.938207e+001 0.000000e+000
    endloop
  endfacet
  facet normal 2.616593e-001 9.651603e-001 -0.000000e+000
    outer loop
      vertex   -9.897655e+001 2.938207e+001 -5.000000e+000
      vertex   -9.897655e+001 2.938207e+001 0.000000e+000
      vertex   -9.866999e+001 2.929896e+001 -5.000000e+000
    endloop
  endfacet
  facet normal 1.658834e-002 6.118800e-002 -0.000000e+000
    outer loop
      vertex   -9.866999e+001 2.929896e+001 -5.000000e+000
      vertex   -9.897655e+001 2.938207e+001 0.000000e+000
      vertex   -9.866999e+001 2.929896e+001 0.000000e+000
    endloop
  endfacet
  facet normal 3.290865e-001 9.442998e-001 -0.000000e+000
    outer loop
      vertex   -9.866999e+001 2.929896e+001 -5.000000e+000
      vertex   -9.866999e+001 2.929896e+001 0.000000e+000
      vertex   -9.837006e+001 2.919444e+001 -5.000000e+000
    endloop
  endfacet
  facet normal 2.086325e-002 5.986620e-002 -0.000000e+000
    outer loop
      vertex   -9.837006e+001 2.919444e+001 -5.000000e+000
      vertex   -9.866999e+001 2.929896e+001 0.000000e+000
      vertex   -9.837006e+001 2.919444e+001 0.000000e+000
    endloop
  endfacet
  facet normal 3.948830e-001 9.187314e-001 -0.000000e+000
    outer loop
      vertex   -9.837006e+001 2.919444e+001 -5.000000e+000
      vertex   -9.837006e+001 2.919444e+001 0.000000e+000
      vertex   -9.807825e+001 2.906901e+001 -5.000000e+000
    endloop
  endfacet
  facet normal 2.503423e-002 5.824442e-002 -0.000000e+000
    outer loop
      vertex   -9.807825e+001 2.906901e+001 -5.000000e+000
      vertex   -9.837006e+001 2.919444e+001 0.000000e+000
      vertex   -9.807825e+001 2.906901e+001 0.000000e+000
    endloop
  endfacet
  facet normal 4.587015e-001 8.885904e-001 -0.000000e+000
    outer loop
      vertex   -9.807825e+001 2.906901e+001 -5.000000e+000
      vertex   -9.807825e+001 2.906901e+001 0.000000e+000
      vertex   -9.779601e+001 2.892332e+001 -5.000000e+000
    endloop
  endfacet
  facet normal 2.907995e-002 5.633329e-002 -0.000000e+000
    outer loop
      vertex   -9.779601e+001 2.892332e+001 -5.000000e+000
      vertex   -9.807825e+001 2.906901e+001 0.000000e+000
      vertex   -9.779601e+001 2.892332e+001 0.000000e+000
    endloop
  endfacet
  facet normal 5.202330e-001 8.540244e-001 -0.000000e+000
    outer loop
      vertex   -9.779601e+001 2.892332e+001 -5.000000e+000
      vertex   -9.779601e+001 2.892332e+001 0.000000e+000
      vertex   -9.752475e+001 2.875808e+001 -5.000000e+000
    endloop
  endfacet
  facet normal 3.298176e-002 5.414348e-002 -0.000000e+000
    outer loop
      vertex   -9.752475e+001 2.875808e+001 -5.000000e+000
      vertex   -9.779601e+001 2.892332e+001 0.000000e+000
      vertex   -9.752475e+001 2.875808e+001 0.000000e+000
    endloop
  endfacet
  facet normal 5.791931e-001 8.151904e-001 -0.000000e+000
    outer loop
      vertex   -9.752475e+001 2.875808e+001 -5.000000e+000
      vertex   -9.752475e+001 2.875808e+001 0.000000e+000
      vertex   -9.726583e+001 2.857412e+001 -5.000000e+000
    endloop
  endfacet
  facet normal 3.671836e-002 5.167959e-002 -0.000000e+000
    outer loop
      vertex   -9.726583e+001 2.857412e+001 -5.000000e+000
      vertex   -9.752475e+001 2.875808e+001 0.000000e+000
      vertex   -9.726583e+001 2.857412e+001 0.000000e+000
    endloop
  endfacet
  facet normal 6.352392e-001 7.723154e-001 -0.000000e+000
    outer loop
      vertex   -9.726583e+001 2.857412e+001 -5.000000e+000
      vertex   -9.726583e+001 2.857412e+001 0.000000e+000
      vertex   -9.702052e+001 2.837235e+001 -5.000000e+000
    endloop
  endfacet
  facet normal 4.027260e-002 4.896289e-002 -0.000000e+000
    outer loop
      vertex   -9.702052e+001 2.837235e+001 -5.000000e+000
      vertex   -9.726583e+001 2.857412e+001 0.000000e+000
      vertex   -9.702052e+001 2.837235e+001 0.000000e+000
    endloop
  endfacet
  facet normal 6.881413e-001 7.255767e-001 -0.000000e+000
    outer loop
      vertex   -9.702052e+001 2.837235e+001 -5.000000e+000
      vertex   -9.702052e+001 2.837235e+001 0.000000e+000
      vertex   -9.679006e+001 2.815378e+001 -5.000000e+000
    endloop
  endfacet
  facet normal 4.362620e-002 4.599950e-002 -0.000000e+000
    outer loop
      vertex   -9.679006e+001 2.815378e+001 -5.000000e+000
      vertex   -9.702052e+001 2.837235e+001 0.000000e+000
      vertex   -9.679006e+001 2.815378e+001 0.000000e+000
    endloop
  endfacet
  facet normal 7.376059e-001 6.752315e-001 -0.000000e+000
    outer loop
      vertex   -9.679006e+001 2.815378e+001 -5.000000e+000
      vertex   -9.679006e+001 2.815378e+001 0.000000e+000
      vertex   -9.657559e+001 2.791949e+001 -5.000000e+000
    endloop
  endfacet
  facet normal 4.676205e-002 4.280769e-002 -0.000000e+000
    outer loop
      vertex   -9.657559e+001 2.791949e+001 -5.000000e+000
      vertex   -9.679006e+001 2.815378e+001 0.000000e+000
      vertex   -9.657559e+001 2.791949e+001 0.000000e+000
    endloop
  endfacet
  facet normal 7.834073e-001 6.215086e-001 -0.000000e+000
    outer loop
      vertex   -9.657559e+001 2.791949e+001 -5.000000e+000
      vertex   -9.657559e+001 2.791949e+001 0.000000e+000
      vertex   -9.637819e+001 2.767067e+001 -5.000000e+000
    endloop
  endfacet
  facet normal 4.966491e-002 3.940117e-002 -0.000000e+000
    outer loop
      vertex   -9.637819e+001 2.767067e+001 -5.000000e+000
      vertex   -9.657559e+001 2.791949e+001 0.000000e+000
      vertex   -9.637819e+001 2.767067e+001 0.000000e+000
    endloop
  endfacet
  facet normal 8.252879e-001 5.647121e-001 -0.000000e+000
    outer loop
      vertex   -9.637819e+001 2.767067e+001 -5.000000e+000
      vertex   -9.637819e+001 2.767067e+001 0.000000e+000
      vertex   -9.619882e+001 2.740854e+001 -5.000000e+000
    endloop
  endfacet
  facet normal 5.232107e-002 3.580125e-002 -0.000000e+000
    outer loop
      vertex   -9.619882e+001 2.740854e+001 -5.000000e+000
      vertex   -9.637819e+001 2.767067e+001 0.000000e+000
      vertex   -9.619882e+001 2.740854e+001 0.000000e+000
    endloop
  endfacet
  facet normal 8.630735e-001 5.050784e-001 -0.000000e+000
    outer loop
      vertex   -9.619882e+001 2.740854e+001 -5.000000e+000
      vertex   -9.619882e+001 2.740854e+001 0.000000e+000
      vertex   -9.603840e+001 2.713441e+001 -5.000000e+000
    endloop
  endfacet
  facet normal 5.471569e-002 3.202011e-002 -0.000000e+000
    outer loop
      vertex   -9.603840e+001 2.713441e+001 -5.000000e+000
      vertex   -9.619882e+001 2.740854e+001 0.000000e+000
      vertex   -9.603840e+001 2.713441e+001 0.000000e+000
    endloop
  endfacet
  facet normal 8.965428e-001 4.429570e-001 -0.000000e+000
    outer loop
      vertex   -9.603840e+001 2.713441e+001 -5.000000e+000
      vertex   -9.603840e+001 2.713441e+001 0.000000e+000
      vertex   -9.589771e+001 2.684964e+001 -5.000000e+000
    endloop
  endfacet
  facet normal 5.683810e-002 2.808213e-002 -0.000000e+000
    outer loop
      vertex   -9.589771e+001 2.684964e+001 -5.000000e+000
      vertex   -9.603840e+001 2.713441e+001 0.000000e+000
      vertex   -9.589771e+001 2.684964e+001 0.000000e+000
    endloop
  endfacet
  facet normal 9.255579e-001 3.786062e-001 -0.000000e+000
    outer loop
      vertex   -9.589771e+001 2.684964e+001 -5.000000e+000
      vertex   -9.589771e+001 2.684964e+001 0.000000e+000
      vertex   -9.577745e+001 2.655566e+001 -5.000000e+000
    endloop
  endfacet
  facet normal 5.867765e-002 2.400252e-002 -0.000000e+000
    outer loop
      vertex   -9.577745e+001 2.655566e+001 -5.000000e+000
      vertex   -9.589771e+001 2.684964e+001 0.000000e+000
      vertex   -9.577745e+001 2.655566e+001 0.000000e+000
    endloop
  endfacet
  facet normal 9.499635e-001 3.123609e-001 -0.000000e+000
    outer loop
      vertex   -9.577745e+001 2.655566e+001 -5.000000e+000
      vertex   -9.577745e+001 2.655566e+001 0.000000e+000
      vertex   -9.567824e+001 2.625393e+001 -5.000000e+000
    endloop
  endfacet
  facet normal 6.022445e-002 1.980262e-002 -0.000000e+000
    outer loop
      vertex   -9.567824e+001 2.625393e+001 -5.000000e+000
      vertex   -9.577745e+001 2.655566e+001 0.000000e+000
      vertex   -9.567824e+001 2.625393e+001 0.000000e+000
    endloop
  endfacet
  facet normal 9.696246e-001 2.445980e-001 -0.000000e+000
    outer loop
      vertex   -9.567824e+001 2.625393e+001 -5.000000e+000
      vertex   -9.567824e+001 2.625393e+001 0.000000e+000
      vertex   -9.560055e+001 2.594596e+001 -5.000000e+000
    endloop
  endfacet
  facet normal 6.147125e-002 1.550677e-002 -0.000000e+000
    outer loop
      vertex   -9.560055e+001 2.594596e+001 -5.000000e+000
      vertex   -9.567824e+001 2.625393e+001 0.000000e+000
      vertex   -9.560055e+001 2.594596e+001 0.000000e+000
    endloop
  endfacet
  facet normal 9.844681e-001 1.755637e-001 -0.000000e+000
    outer loop
      vertex   -9.560055e+001 2.594596e+001 -5.000000e+000
      vertex   -9.560055e+001 2.594596e+001 0.000000e+000
      vertex   -9.554478e+001 2.563327e+001 -5.000000e+000
    endloop
  endfacet
  facet normal 6.241234e-002 1.113021e-002 -0.000000e+000
    outer loop
      vertex   -9.554478e+001 2.563327e+001 -5.000000e+000
      vertex   -9.560055e+001 2.594596e+001 0.000000e+000
      vertex   -9.554478e+001 2.563327e+001 0.000000e+000
    endloop
  endfacet
  facet normal 9.943967e-001 1.057132e-001 -0.000000e+000
    outer loop
      vertex   -9.554478e+001 2.563327e+001 -5.000000e+000
      vertex   -9.554478e+001 2.563327e+001 0.000000e+000
      vertex   -9.551121e+001 2.531742e+001 -5.000000e+000
    endloop
  endfacet
  facet normal 6.304164e-002 6.701884e-003 -0.000000e+000
    outer loop
      vertex   -9.551121e+001 2.531742e+001 -5.000000e+000
      vertex   -9.554478e+001 2.563327e+001 0.000000e+000
      vertex   -9.551121e+001 2.531742e+001 0.000000e+000
    endloop
  endfacet
  facet normal 0.000000e+000 0.000000e+000 -9.998444e-001
    outer loop
      vertex   -9.551121e+001 2.468258e+001 -5.000000e+000
      vertex   -1.044972e+002 2.484119e+001 -5.000000e+000
      vertex   -9.550000e+001 2.500000e+001 -5.000000e+000
    endloop
  endfacet
  facet normal -0.000000e+000 0.000000e+000 -3.529145e-002
    outer loop
      vertex   -9.550000e+001 2.500000e+001 -5.000000e+000
      vertex   -1.044972e+002 2.484119e+001 -5.000000e+000
      vertex   -1.044972e+002 2.515881e+001 -5.000000e+000
    endloop
  endfacet
  facet normal 0.000000e+000 0.000000e+000 -9.985989e-001
    outer loop
      vertex   -9.550000e+001 2.500000e+001 -5.000000e+000
      vertex   -1.044972e+002 2.515881e+001 -5.000000e+000
      vertex   -9.551121e+001 2.531742e+001 -5.000000e+000
    endloop
  endfacet
  facet normal -0.000000e+000 0.000000e+000 -3.529141e-002
    outer loop
      vertex   -9.551121e+001 2.531742e+001 -5.000000e+000
      vertex   -1.044972e+002 2.515881e+001 -5.000000e+000
      vertex   -1.044748e+002 2.547564e+001 -5.000000e+000
    endloop
  endfacet
  facet normal 0.000000e+000 0.000000e+000 -9.923761e-001
    outer loop
      vertex   -9.551121e+001 2.531742e+001 -5.000000e+000
      vertex   -1.044748e+002 2.547564e+001 -5.000000e+000
      vertex   -9.554478e+001 2.563327e+001 -5.000000e+000
    endloop
  endfacet
  facet normal -0.000000e+000 0.000000e+000 -3.529152e-002
    outer loop
      vertex   -9.554478e+001 2.563327e+001 -5.000000e+000
      vertex   -1.044748e+002 2.547564e+001 -5.000000e+000
      vertex   -1.044301e+002 2.579011e+001 -5.000000e+000
    endloop
  endfacet
  facet normal 0.000000e+000 0.000000e+000 -9.812163e-001
    outer loop
      vertex   -9.554478e+001 2.563327e+001 -5.000000e+000
      vertex   -1.044301e+002 2.579011e+001 -5.000000e+000
      vertex   -9.560055e+001 2.594596e+001 -5.000000e+000
    endloop
  endfacet
  facet normal -0.000000e+000 0.000000e+000 -3.529143e-002
    outer loop
      vertex   -9.560055e+001 2.594596e+001 -5.000000e+000
      vertex   -1.044301e+002 2.579011e+001 -5.000000e+000
      vertex   -1.043633e+002 2.610063e+001 -5.000000e+000
    endloop
  endfacet
  facet normal 0.000000e+000 0.000000e+000 -9.651568e-001
    outer loop
      vertex   -9.560055e+001 2.594596e+001 -5.000000e+000
      vertex   -1.043633e+002 2.610063e+001 -5.000000e+000
      vertex   -9.567824e+001 2.625393e+001 -5.000000e+000
    endloop
  endfacet
  facet normal -0.000000e+000 0.000000e+000 -3.529141e-002
    outer loop
      vertex   -9.567824e+001 2.625393e+001 -5.000000e+000
      vertex   -1.043633e+002 2.610063e+001 -5.000000e+000
      vertex   -1.042748e+002 2.640567e+001 -5.000000e+000
    endloop
  endfacet
  facet normal 0.000000e+000 0.000000e+000 -9.443029e-001
    outer loop
      vertex   -9.567824e+001 2.625393e+001 -5.000000e+000
      vertex   -1.042748e+002 2.640567e+001 -5.000000e+000
      vertex   -9.577745e+001 2.655566e+001 -5.000000e+000
    endloop
  endfacet
  facet normal -0.000000e+000 0.000000e+000 -3.529153e-002
    outer loop
      vertex   -9.577745e+001 2.655566e+001 -5.000000e+000
      vertex   -1.042748e+002 2.640567e+001 -5.000000e+000
      vertex   -1.041650e+002 2.670371e+001 -5.000000e+000
    endloop
  endfacet
  facet normal 0.000000e+000 0.000000e+000 -9.187319e-001
    outer loop
      vertex   -9.577745e+001 2.655566e+001 -5.000000e+000
      vertex   -1.041650e+002 2.670371e+001 -5.000000e+000
      vertex   -9.589771e+001 2.684964e+001 -5.000000e+000
    endloop
  endfacet
  facet normal -0.000000e+000 0.000000e+000 -3.529155e-002
    outer loop
      vertex   -9.589771e+001 2.684964e+001 -5.000000e+000
      vertex   -1.041650e+002 2.670371e+001 -5.000000e+000
      vertex   -1.040345e+002 2.699327e+001 -5.000000e+000
    endloop
  endfacet
  facet normal 0.000000e+000 0.000000e+000 -8.885857e-001
    outer loop
      vertex   -9.589771e+001 2.684964e+001 -5.000000e+000
      vertex   -1.040345e+002 2.699327e+001 -5.000000e+000
      vertex   -9.603840e+001 2.713441e+001 -5.000000e+000
    endloop
  endfacet
  facet normal -0.000000e+000 0.000000e+000 -3.529141e-002
    outer loop
      vertex   -9.603840e+001 2.713441e+001 -5.000000e+000
      vertex   -1.040345e+002 2.699327e+001 -5.000000e+000
      vertex   -1.038838e+002 2.727289e+001 -5.000000e+000
    endloop
  endfacet
  facet normal 0.000000e+000 0.000000e+000 -8.540252e-001
    outer loop
      vertex   -9.603840e+001 2.713441e+001 -5.000000e+000
      vertex   -1.038838e+002 2.727289e+001 -5.000000e+000
      vertex   -9.619882e+001 2.740854e+001 -5.000000e+000
    endloop
  endfacet
  facet normal -0.000000e+000 0.000000e+000 -3.529158e-002
    outer loop
      vertex   -9.619882e+001 2.740854e+001 -5.000000e+000
      vertex   -1.038838e+002 2.727289e+001 -5.000000e+000
      vertex   -1.037138e+002 2.754119e+001 -5.000000e+000
    endloop
  endfacet
  facet normal 0.000000e+000 0.000000e+000 -8.151930e-001
    outer loop
      vertex   -9.619882e+001 2.740854e+001 -5.000000e+000
      vertex   -1.037138e+002 2.754119e+001 -5.000000e+000
      vertex   -9.637819e+001 2.767067e+001 -5.000000e+000
    endloop
  endfacet
  facet normal -0.000000e+000 0.000000e+000 -3.529147e-002
    outer loop
      vertex   -9.637819e+001 2.767067e+001 -5.000000e+000
      vertex   -1.037138e+002 2.754119e+001 -5.000000e+000
      vertex   -1.035253e+002 2.779683e+001 -5.000000e+000
    endloop
  endfacet
  facet normal 0.000000e+000 0.000000e+000 -7.723166e-001
    outer loop
      vertex   -9.637819e+001 2.767067e+001 -5.000000e+000
      vertex   -1.035253e+002 2.779683e+001 -5.000000e+000
      vertex   -9.657559e+001 2.791949e+001 -5.000000e+000
    endloop
  endfacet
  facet normal -0.000000e+000 0.000000e+000 -3.529124e-002
    outer loop
      vertex   -9.657559e+001 2.791949e+001 -5.000000e+000
      vertex   -1.035253e+002 2.779683e+001 -5.000000e+000
      vertex   -1.033192e+002 2.803853e+001 -5.000000e+000
    endloop
  endfacet
  facet normal 0.000000e+000 0.000000e+000 -7.255742e-001
    outer loop
      vertex   -9.657559e+001 2.791949e+001 -5.000000e+000
      vertex   -1.033192e+002 2.803853e+001 -5.000000e+000
      vertex   -9.679006e+001 2.815378e+001 -5.000000e+000
    endloop
  endfacet
  facet normal -0.000000e+000 0.000000e+000 -3.529140e-002
    outer loop
      vertex   -9.679006e+001 2.815378e+001 -5.000000e+000
      vertex   -1.033192e+002 2.803853e+001 -5.000000e+000
      vertex   -1.030966e+002 2.826509e+001 -5.000000e+000
    endloop
  endfacet
  facet normal 0.000000e+000 0.000000e+000 -6.752288e-001
    outer loop
      vertex   -9.679006e+001 2.815378e+001 -5.000000e+000
      vertex   -1.030966e+002 2.826509e+001 -5.000000e+000
      vertex   -9.702052e+001 2.837235e+001 -5.000000e+000
    endloop
  endfacet
  facet normal -0.000000e+000 0.000000e+000 -3.529151e-002
    outer loop
      vertex   -9.702052e+001 2.837235e+001 -5.000000e+000
      vertex   -1.030966e+002 2.826509e+001 -5.000000e+000
      vertex   -1.028586e+002 2.847540e+001 -5.000000e+000
    endloop
  endfacet
  facet normal 0.000000e+000 0.000000e+000 -6.215102e-001
    outer loop
      vertex   -9.702052e+001 2.837235e+001 -5.000000e+000
      vertex   -1.028586e+002 2.847540e+001 -5.000000e+000
      vertex   -9.726583e+001 2.857412e+001 -5.000000e+000
    endloop
  endfacet
  facet normal -0.000000e+000 0.000000e+000 -3.529178e-002
    outer loop
      vertex   -9.726583e+001 2.857412e+001 -5.000000e+000
      vertex   -1.028586e+002 2.847540e+001 -5.000000e+000
      vertex   -1.026063e+002 2.866838e+001 -5.000000e+000
    endloop
  endfacet
  facet normal 0.000000e+000 0.000000e+000 -5.647159e-001
    outer loop
      vertex   -9.726583e+001 2.857412e+001 -5.000000e+000
      vertex   -1.026063e+002 2.866838e+001 -5.000000e+000
      vertex   -9.752475e+001 2.875808e+001 -5.000000e+000
    endloop
  endfacet
  facet normal -0.000000e+000 0.000000e+000 -3.529127e-002
    outer loop
      vertex   -9.752475e+001 2.875808e+001 -5.000000e+000
      vertex   -1.026063e+002 2.866838e+001 -5.000000e+000
      vertex   -1.023411e+002 2.884309e+001 -5.000000e+000
    endloop
  endfacet
  facet normal 0.000000e+000 0.000000e+000 -5.050797e-001
    outer loop
      vertex   -9.752475e+001 2.875808e+001 -5.000000e+000
      vertex   -1.023411e+002 2.884309e+001 -5.000000e+000
      vertex   -9.779601e+001 2.892332e+001 -5.000000e+000
    endloop
  endfacet
  facet normal -0.000000e+000 0.000000e+000 -3.529130e-002
    outer loop
      vertex   -9.779601e+001 2.892332e+001 -5.000000e+000
      vertex   -1.023411e+002 2.884309e+001 -5.000000e+000
      vertex   -1.020642e+002 2.899866e+001 -5.000000e+000
    endloop
  endfacet
  facet normal 0.000000e+000 0.000000e+000 -4.429481e-001
    outer loop
      vertex   -9.779601e+001 2.892332e+001 -5.000000e+000
      vertex   -1.020642e+002 2.899866e+001 -5.000000e+000
      vertex   -9.807825e+001 2.906901e+001 -5.000000e+000
    endloop
  endfacet
  facet normal -0.000000e+000 0.000000e+000 -3.529148e-002
    outer loop
      vertex   -9.807825e+001 2.906901e+001 -5.000000e+000
      vertex   -1.020642e+002 2.899866e+001 -5.000000e+000
      vertex   -1.017770e+002 2.913430e+001 -5.000000e+000
    endloop
  endfacet
  facet normal 0.000000e+000 0.000000e+000 -3.786073e-001
    outer loop
      vertex   -9.807825e+001 2.906901e+001 -5.000000e+000
      vertex   -1.017770e+002 2.913430e+001 -5.000000e+000
      vertex   -9.837006e+001 2.919444e+001 -5.000000e+000
    endloop
  endfacet
  facet normal -0.000000e+000 0.000000e+000 -3.529183e-002
    outer loop
      vertex   -9.837006e+001 2.919444e+001 -5.000000e+000
      vertex   -1.017770e+002 2.913430e+001 -5.000000e+000
      vertex   -1.014809e+002 2.924935e+001 -5.000000e+000
    endloop
  endfacet
  facet normal 0.000000e+000 0.000000e+000 -3.123697e-001
    outer loop
      vertex   -9.837006e+001 2.919444e+001 -5.000000e+000
      vertex   -1.014809e+002 2.924935e+001 -5.000000e+000
      vertex   -9.866999e+001 2.929896e+001 -5.000000e+000
    endloop
  endfacet
  facet normal -0.000000e+000 0.000000e+000 -3.529138e-002
    outer loop
      vertex   -9.866999e+001 2.929896e+001 -5.000000e+000
      vertex   -1.014809e+002 2.924935e+001 -5.000000e+000
      vertex   -1.011775e+002 2.934322e+001 -5.000000e+000
    endloop
  endfacet
  facet normal 0.000000e+000 0.000000e+000 -2.445849e-001
    outer loop
      vertex   -9.866999e+001 2.929896e+001 -5.000000e+000
      vertex   -1.011775e+002 2.934322e+001 -5.000000e+000
      vertex   -9.897655e+001 2.938207e+001 -5.000000e+000
    endloop
  endfacet
  facet normal -0.000000e+000 0.000000e+000 -3.529179e-002
    outer loop
      vertex   -9.897655e+001 2.938207e+001 -5.000000e+000
      vertex   -1.011775e+002 2.934322e+001 -5.000000e+000
      vertex   -1.008682e+002 2.941546e+001 -5.000000e+000
    endloop
  endfacet
  facet normal 0.000000e+000 0.000000e+000 -1.755793e-001
    outer loop
      vertex   -9.897655e+001 2.938207e+001 -5.000000e+000
      vertex   -1.008682e+002 2.941546e+001 -5.000000e+000
      vertex   -9.928820e+001 2.944335e+001 -5.000000e+000
    endloop
  endfacet
  facet normal -0.000000e+000 0.000000e+000 -3.529064e-002
    outer loop
      vertex   -9.928820e+001 2.944335e+001 -5.000000e+000
      vertex   -1.008682e+002 2.941546e+001 -5.000000e+000
      vertex   -1.005545e+002 2.946570e+001 -5.000000e+000
    endloop
  endfacet
  facet normal 0.000000e+000 0.000000e+000 -1.056976e-001
    outer loop
      vertex   -9.928820e+001 2.944335e+001 -5.000000e+000
      vertex   -1.005545e+002 2.946570e+001 -5.000000e+000
      vertex   -9.960340e+001 2.948249e+001 -5.000000e+000
    endloop
  endfacet
  facet normal -0.000000e+000 0.000000e+000 -3.529334e-002
    outer loop
      vertex   -9.960340e+001 2.948249e+001 -5.000000e+000
      vertex   -1.005545e+002 2.946570e+001 -5.000000e+000
      vertex   -1.002382e+002 2.949369e+001 -5.000000e+000
    endloop
  endfacet
  facet normal 0.000000e+000 0.000000e+000 -3.529337e-002
    outer loop
      vertex   -9.960340e+001 2.948249e+001 -5.000000e+000
      vertex   -1.002382e+002 2.949369e+001 -5.000000e+000
      vertex   -9.992059e+001 2.949930e+001 -5.000000e+000
    endloop
  endfacet
  facet normal 0.000000e+000 0.000000e+000 -9.961080e-001
    outer loop
      vertex   -1.044972e+002 2.484119e+001 -5.000000e+000
      vertex   -9.551121e+001 2.468258e+001 -5.000000e+000
      vertex   -1.044748e+002 2.452436e+001 -5.000000e+000
    endloop
  endfacet
  facet normal 0.000000e+000 0.000000e+000 -3.529143e-002
    outer loop
      vertex   -1.044748e+002 2.452436e+001 -5.000000e+000
      vertex   -9.551121e+001 2.468258e+001 -5.000000e+000
      vertex   -9.554478e+001 2.436673e+001 -5.000000e+000
    endloop
  endfacet
  facet normal 0.000000e+000 0.000000e+000 -9.874094e-001
    outer loop
      vertex   -1.044748e+002 2.452436e+001 -5.000000e+000
      vertex   -9.554478e+001 2.436673e+001 -5.000000e+000
      vertex   -1.044301e+002 2.420989e+001 -5.000000e+000
    endloop
  endfacet
  facet normal 0.000000e+000 0.000000e+000 -3.529167e-002
    outer loop
      vertex   -1.044301e+002 2.420989e+001 -5.000000e+000
      vertex   -9.554478e+001 2.436673e+001 -5.000000e+000
      vertex   -9.560055e+001 2.405404e+001 -5.000000e+000
    endloop
  endfacet
  facet normal 0.000000e+000 0.000000e+000 -9.737960e-001
    outer loop
      vertex   -1.044301e+002 2.420989e+001 -5.000000e+000
      vertex   -9.560055e+001 2.405404e+001 -5.000000e+000
      vertex   -1.043633e+002 2.389937e+001 -5.000000e+000
    endloop
  endfacet
  facet normal 0.000000e+000 0.000000e+000 -3.529140e-002
    outer loop
      vertex   -1.043633e+002 2.389937e+001 -5.000000e+000
      vertex   -9.560055e+001 2.405404e+001 -5.000000e+000
      vertex   -9.567824e+001 2.374607e+001 -5.000000e+000
    endloop
  endfacet
  facet normal 0.000000e+000 0.000000e+000 -9.553226e-001
    outer loop
      vertex   -1.043633e+002 2.389937e+001 -5.000000e+000
      vertex   -9.567824e+001 2.374607e+001 -5.000000e+000
      vertex   -1.042748e+002 2.359433e+001 -5.000000e+000
    endloop
  endfacet
  facet normal 0.000000e+000 0.000000e+000 -3.529146e-002
    outer loop
      vertex   -1.042748e+002 2.359433e+001 -5.000000e+000
      vertex   -9.567824e+001 2.374607e+001 -5.000000e+000
      vertex   -9.577745e+001 2.344434e+001 -5.000000e+000
    endloop
  endfacet
  facet normal 0.000000e+000 0.000000e+000 -9.320980e-001
    outer loop
      vertex   -1.042748e+002 2.359433e+001 -5.000000e+000
      vertex   -9.577745e+001 2.344434e+001 -5.000000e+000
      vertex   -1.041650e+002 2.329629e+001 -5.000000e+000
    endloop
  endfacet
  facet normal 0.000000e+000 0.000000e+000 -3.529154e-002
    outer loop
      vertex   -1.041650e+002 2.329629e+001 -5.000000e+000
      vertex   -9.577745e+001 2.344434e+001 -5.000000e+000
      vertex   -9.589771e+001 2.315036e+001 -5.000000e+000
    endloop
  endfacet
  facet normal 0.000000e+000 0.000000e+000 -9.042241e-001
    outer loop
      vertex   -1.041650e+002 2.329629e+001 -5.000000e+000
      vertex   -9.589771e+001 2.315036e+001 -5.000000e+000
      vertex   -1.040345e+002 2.300673e+001 -5.000000e+000
    endloop
  endfacet
  facet normal 0.000000e+000 0.000000e+000 -3.529137e-002
    outer loop
      vertex   -1.040345e+002 2.300673e+001 -5.000000e+000
      vertex   -9.589771e+001 2.315036e+001 -5.000000e+000
      vertex   -9.603840e+001 2.286559e+001 -5.000000e+000
    endloop
  endfacet
  facet normal 0.000000e+000 0.000000e+000 -8.718517e-001
    outer loop
      vertex   -1.040345e+002 2.300673e+001 -5.000000e+000
      vertex   -9.603840e+001 2.286559e+001 -5.000000e+000
      vertex   -1.038838e+002 2.272711e+001 -5.000000e+000
    endloop
  endfacet
  facet normal 0.000000e+000 0.000000e+000 -3.529136e-002
    outer loop
      vertex   -1.038838e+002 2.272711e+001 -5.000000e+000
      vertex   -9.603840e+001 2.286559e+001 -5.000000e+000
      vertex   -9.619882e+001 2.259146e+001 -5.000000e+000
    endloop
  endfacet
  facet normal 0.000000e+000 0.000000e+000 -8.351232e-001
    outer loop
      vertex   -1.038838e+002 2.272711e+001 -5.000000e+000
      vertex   -9.619882e+001 2.259146e+001 -5.000000e+000
      vertex   -1.037138e+002 2.245881e+001 -5.000000e+000
    endloop
  endfacet
  facet normal 0.000000e+000 0.000000e+000 -3.529163e-002
    outer loop
      vertex   -1.037138e+002 2.245881e+001 -5.000000e+000
      vertex   -9.619882e+001 2.259146e+001 -5.000000e+000
      vertex   -9.637819e+001 2.232933e+001 -5.000000e+000
    endloop
  endfacet
  facet normal 0.000000e+000 0.000000e+000 -7.942543e-001
    outer loop
      vertex   -1.037138e+002 2.245881e+001 -5.000000e+000
      vertex   -9.637819e+001 2.232933e+001 -5.000000e+000
      vertex   -1.035253e+002 2.220317e+001 -5.000000e+000
    endloop
  endfacet
  facet normal 0.000000e+000 0.000000e+000 -3.529127e-002
    outer loop
      vertex   -1.035253e+002 2.220317e+001 -5.000000e+000
      vertex   -9.637819e+001 2.232933e+001 -5.000000e+000
      vertex   -9.657559e+001 2.208051e+001 -5.000000e+000
    endloop
  endfacet
  facet normal 0.000000e+000 0.000000e+000 -7.494031e-001
    outer loop
      vertex   -1.035253e+002 2.220317e+001 -5.000000e+000
      vertex   -9.657559e+001 2.208051e+001 -5.000000e+000
      vertex   -1.033192e+002 2.196147e+001 -5.000000e+000
    endloop
  endfacet
  facet normal 0.000000e+000 0.000000e+000 -3.529146e-002
    outer loop
      vertex   -1.033192e+002 2.196147e+001 -5.000000e+000
      vertex   -9.657559e+001 2.208051e+001 -5.000000e+000
      vertex   -9.679006e+001 2.184622e+001 -5.000000e+000
    endloop
  endfacet
  facet normal 0.000000e+000 0.000000e+000 -7.008387e-001
    outer loop
      vertex   -1.033192e+002 2.196147e+001 -5.000000e+000
      vertex   -9.679006e+001 2.184622e+001 -5.000000e+000
      vertex   -1.030966e+002 2.173491e+001 -5.000000e+000
    endloop
  endfacet
  facet normal 0.000000e+000 0.000000e+000 -3.529165e-002
    outer loop
      vertex   -1.030966e+002 2.173491e+001 -5.000000e+000
      vertex   -9.679006e+001 2.184622e+001 -5.000000e+000
      vertex   -9.702052e+001 2.162765e+001 -5.000000e+000
    endloop
  endfacet
  facet normal 0.000000e+000 0.000000e+000 -6.487781e-001
    outer loop
      vertex   -1.030966e+002 2.173491e+001 -5.000000e+000
      vertex   -9.702052e+001 2.162765e+001 -5.000000e+000
      vertex   -1.028586e+002 2.152460e+001 -5.000000e+000
    endloop
  endfacet
  facet normal 0.000000e+000 0.000000e+000 -3.529151e-002
    outer loop
      vertex   -1.028586e+002 2.152460e+001 -5.000000e+000
      vertex   -9.702052e+001 2.162765e+001 -5.000000e+000
      vertex   -9.726583e+001 2.142588e+001 -5.000000e+000
    endloop
  endfacet
  facet normal 0.000000e+000 0.000000e+000 -5.934818e-001
    outer loop
      vertex   -1.028586e+002 2.152460e+001 -5.000000e+000
      vertex   -9.726583e+001 2.142588e+001 -5.000000e+000
      vertex   -1.026063e+002 2.133162e+001 -5.000000e+000
    endloop
  endfacet
  facet normal 0.000000e+000 0.000000e+000 -3.529133e-002
    outer loop
      vertex   -1.026063e+002 2.133162e+001 -5.000000e+000
      vertex   -9.726583e+001 2.142588e+001 -5.000000e+000
      vertex   -9.752475e+001 2.124192e+001 -5.000000e+000
    endloop
  endfacet
  facet normal 0.000000e+000 0.000000e+000 -5.352361e-001
    outer loop
      vertex   -1.026063e+002 2.133162e+001 -5.000000e+000
      vertex   -9.752475e+001 2.124192e+001 -5.000000e+000
      vertex   -1.023411e+002 2.115691e+001 -5.000000e+000
    endloop
  endfacet
  facet normal 0.000000e+000 0.000000e+000 -3.529170e-002
    outer loop
      vertex   -1.023411e+002 2.115691e+001 -5.000000e+000
      vertex   -9.752475e+001 2.124192e+001 -5.000000e+000
      vertex   -9.779601e+001 2.107668e+001 -5.000000e+000
    endloop
  endfacet
  facet normal 0.000000e+000 0.000000e+000 -4.743040e-001
    outer loop
      vertex   -1.023411e+002 2.115691e+001 -5.000000e+000
      vertex   -9.779601e+001 2.107668e+001 -5.000000e+000
      vertex   -1.020642e+002 2.100134e+001 -5.000000e+000
    endloop
  endfacet
  facet normal 0.000000e+000 0.000000e+000 -3.529116e-002
    outer loop
      vertex   -1.020642e+002 2.100134e+001 -5.000000e+000
      vertex   -9.779601e+001 2.107668e+001 -5.000000e+000
      vertex   -9.807825e+001 2.093099e+001 -5.000000e+000
    endloop
  endfacet
  facet normal 0.000000e+000 0.000000e+000 -4.110340e-001
    outer loop
      vertex   -1.020642e+002 2.100134e+001 -5.000000e+000
      vertex   -9.807825e+001 2.093099e+001 -5.000000e+000
      vertex   -1.017770e+002 2.086570e+001 -5.000000e+000
    endloop
  endfacet
  facet normal 0.000000e+000 0.000000e+000 -3.529169e-002
    outer loop
      vertex   -1.017770e+002 2.086570e+001 -5.000000e+000
      vertex   -9.807825e+001 2.093099e+001 -5.000000e+000
      vertex   -9.837006e+001 2.080556e+001 -5.000000e+000
    endloop
  endfacet
  facet normal 0.000000e+000 0.000000e+000 -3.457112e-001
    outer loop
      vertex   -1.017770e+002 2.086570e+001 -5.000000e+000
      vertex   -9.837006e+001 2.080556e+001 -5.000000e+000
      vertex   -1.014809e+002 2.075065e+001 -5.000000e+000
    endloop
  endfacet
  facet normal 0.000000e+000 0.000000e+000 -3.529151e-002
    outer loop
      vertex   -1.014809e+002 2.075065e+001 -5.000000e+000
      vertex   -9.837006e+001 2.080556e+001 -5.000000e+000
      vertex   -9.866999e+001 2.070104e+001 -5.000000e+000
    endloop
  endfacet
  facet normal 0.000000e+000 0.000000e+000 -2.786488e-001
    outer loop
      vertex   -1.014809e+002 2.075065e+001 -5.000000e+000
      vertex   -9.866999e+001 2.070104e+001 -5.000000e+000
      vertex   -1.011775e+002 2.065678e+001 -5.000000e+000
    endloop
  endfacet
  facet normal 0.000000e+000 0.000000e+000 -3.529142e-002
    outer loop
      vertex   -1.011775e+002 2.065678e+001 -5.000000e+000
      vertex   -9.866999e+001 2.070104e+001 -5.000000e+000
      vertex   -9.897655e+001 2.061793e+001 -5.000000e+000
    endloop
  endfacet
  facet normal 0.000000e+000 0.000000e+000 -2.102117e-001
    outer loop
      vertex   -1.011775e+002 2.065678e+001 -5.000000e+000
      vertex   -9.897655e+001 2.061793e+001 -5.000000e+000
      vertex   -1.008682e+002 2.058454e+001 -5.000000e+000
    endloop
  endfacet
  facet normal 0.000000e+000 0.000000e+000 -3.529122e-002
    outer loop
      vertex   -1.008682e+002 2.058454e+001 -5.000000e+000
      vertex   -9.897655e+001 2.061793e+001 -5.000000e+000
      vertex   -9.928820e+001 2.055665e+001 -5.000000e+000
    endloop
  endfacet
  facet normal 0.000000e+000 0.000000e+000 -1.407247e-001
    outer loop
      vertex   -1.008682e+002 2.058454e+001 -5.000000e+000
      vertex   -9.928820e+001 2.055665e+001 -5.000000e+000
      vertex   -1.005545e+002 2.053430e+001 -5.000000e+000
    endloop
  endfacet
  facet normal 0.000000e+000 0.000000e+000 -3.529090e-002
    outer loop
      vertex   -1.005545e+002 2.053430e+001 -5.000000e+000
      vertex   -9.928820e+001 2.055665e+001 -5.000000e+000
      vertex   -9.960340e+001 2.051751e+001 -5.000000e+000
    endloop
  endfacet
  facet normal 0.000000e+000 0.000000e+000 -7.054424e-002
    outer loop
      vertex   -1.005545e+002 2.053430e+001 -5.000000e+000
      vertex   -9.960340e+001 2.051751e+001 -5.000000e+000
      vertex   -1.002382e+002 2.050631e+001 -5.000000e+000
    endloop
  endfacet
  facet normal 0.000000e+000 0.000000e+000 -3.529411e-002
    outer loop
      vertex   -1.002382e+002 2.050631e+001 -5.000000e+000
      vertex   -9.960340e+001 2.051751e+001 -5.000000e+000
      vertex   -9.992059e+001 2.050070e+001 -5.000000e+000
    endloop
  endfacet
  facet normal 0.000000e+000 0.000000e+000 9.998444e-001
    outer loop
      vertex   -9.551121e+001 2.531742e+001 0.000000e+000
      vertex   -1.044972e+002 2.515881e+001 0.000000e+000
      vertex   -9.550000e+001 2.500000e+001 0.000000e+000
    endloop
  endfacet
  facet normal 0.000000e+000 0.000000e+000 3.529145e-002
    outer loop
      vertex   -9.550000e+001 2.500000e+001 0.000000e+000
      vertex   -1.044972e+002 2.515881e+001 0.000000e+000
      vertex   -1.044972e+002 2.484119e+001 0.000000e+000
    endloop
  endfacet
  facet normal 0.000000e+000 0.000000e+000 9.985989e-001
    outer loop
      vertex   -9.550000e+001 2.500000e+001 0.000000e+000
      vertex   -1.044972e+002 2.484119e+001 0.000000e+000
      vertex   -9.551121e+001 2.468258e+001 0.000000e+000
    endloop
  endfacet
  facet normal 0.000000e+000 0.000000e+000 3.529141e-002
    outer loop
      vertex   -9.551121e+001 2.468258e+001 0.000000e+000
      vertex   -1.044972e+002 2.484119e+001 0.000000e+000
      vertex   -1.044748e+002 2.452436e+001 0.000000e+000
    endloop
  endfacet
  facet normal 0.000000e+000 0.000000e+000 9.923761e-001
    outer loop
      vertex   -9.551121e+001 2.468258e+001 0.000000e+000
      vertex   -1.044748e+002 2.452436e+001 0.000000e+000
      vertex   -9.554478e+001 2.436673e+001 0.000000e+000
    endloop
  endfacet
  facet normal 0.000000e+000 0.000000e+000 3.529152e-002
    outer loop
      vertex   -9.554478e+001 2.436673e+001 0.000000e+000
      vertex   -1.044748e+002 2.452436e+001 0.000000e+000
      vertex   -1.044301e+002 2.420989e+001 0.000000e+000
    endloop
  endfacet
  facet normal 0.000000e+000 0.000000e+000 9.812163e-001
    outer loop
      vertex   -9.554478e+001 2.436673e+001 0.000000e+000
      vertex   -1.044301e+002 2.420989e+001 0.000000e+000
      vertex   -9.560055e+001 2.405404e+001 0.000000e+000
    endloop
  endfacet
  facet normal 0.000000e+000 0.000000e+000 3.529143e-002
    outer loop
      vertex   -9.560055e+001 2.405404e+001 0.000000e+000
      vertex   -1.044301e+002 2.420989e+001 0.000000e+000
      vertex   -1.043633e+002 2.389937e+001 0.000000e+000
    endloop
  endfacet
  facet normal 0.000000e+000 0.000000e+000 9.651568e-001
    outer loop
      vertex   -9.560055e+001 2.405404e+001 0.000000e+000
      vertex   -1.043633e+002 2.389937e+001 0.000000e+000
      vertex   -9.567824e+001 2.374607e+001 0.000000e+000
    endloop
  endfacet
  facet normal 0.000000e+000 0.000000e+000 3.529141e-002
    outer loop
      vertex   -9.567824e+001 2.374607e+001 0.000000e+000
      vertex   -1.043633e+002 2.389937e+001 0.000000e+000
      vertex   -1.042748e+002 2.359433e+001 0.000000e+000
    endloop
  endfacet
  facet normal 0.000000e+000 0.000000e+000 9.443029e-001
    outer loop
      vertex   -9.567824e+001 2.374607e+001 0.000000e+000
      vertex   -1.042748e+002 2.359433e+001 0.000000e+000
      vertex   -9.577745e+001 2.344434e+001 0.000000e+000
    endloop
  endfacet
  facet normal 0.000000e+000 0.000000e+000 3.529153e-002
    outer loop
      vertex   -9.577745e+001 2.344434e+001 0.000000e+000
      vertex   -1.042748e+002 2.359433e+001 0.000000e+000
      vertex   -1.041650e+002 2.329629e+001 0.000000e+000
    endloop
  endfacet
  facet normal 0.000000e+000 0.000000e+000 9.187319e-001
    outer loop
      vertex   -9.577745e+001 2.344434e+001 0.000000e+000
      vertex   -1.041650e+002 2.329629e+001 0.000000e+000
      vertex   -9.589771e+001 2.315036e+001 0.000000e+000
    endloop
  endfacet
  facet normal 0.000000e+000 0.000000e+000 3.529155e-002
    outer loop
      vertex   -9.589771e+001 2.315036e+001 0.000000e+000
      vertex   -1.041650e+002 2.329629e+001 0.000000e+000
      vertex   -1.040345e+002 2.300673e+001 0.000000e+000
    endloop
  endfacet
  facet normal 0.000000e+000 0.000000e+000 8.885857e-001
    outer loop
      vertex   -9.589771e+001 2.315036e+001 0.000000e+000
      vertex   -1.040345e+002 2.300673e+001 0.000000e+000
      vertex   -9.603840e+001 2.286559e+001 0.000000e+000
    endloop
  endfacet
  facet normal 0.000000e+000 0.000000e+000 3.529141e-002
    outer loop
      vertex   -9.603840e+001 2.286559e+001 0.000000e+000
      vertex   -1.040345e+002 2.300673e+001 0.000000e+000
      vertex   -1.038838e+002 2.272711e+001 0.000000e+000
    endloop
  endfacet
  facet normal 0.000000e+000 0.000000e+000 8.540252e-001
    outer loop
      vertex   -9.603840e+001 2.286559e+001 0.000000e+000
      vertex   -1.038838e+002 2.272711e+001 0.000000e+000
      vertex   -9.619882e+001 2.259146e+001 0.000000e+000
    endloop
  endfacet
  facet normal 0.000000e+000 0.000000e+000 3.529158e-002
    outer loop
      vertex   -9.619882e+001 2.259146e+001 0.000000e+000
      vertex   -1.038838e+002 2.272711e+001 0.000000e+000
      vertex   -1.037138e+002 2.245881e+001 0.000000e+000
    endloop
  endfacet
  facet normal 0.000000e+000 0.000000e+000 8.151930e-001
    outer loop
      vertex   -9.619882e+001 2.259146e+001 0.000000e+000
      vertex   -1.037138e+002 2.245881e+001 0.000000e+000
      vertex   -9.637819e+001 2.232933e+001 0.000000e+000
    endloop
  endfacet
  facet normal 0.000000e+000 0.000000e+000 3.529147e-002
    outer loop
      vertex   -9.637819e+001 2.232933e+001 0.000000e+000
      vertex   -1.037138e+002 2.245881e+001 0.000000e+000
      vertex   -1.035253e+002 2.220317e+001 0.000000e+000
    endloop
  endfacet
  facet normal 0.000000e+000 0.000000e+000 7.723166e-001
    outer loop
      vertex   -9.637819e+001 2.232933e+001 0.000000e+000
      vertex   -1.035253e+002 2.220317e+001 0.000000e+000
      vertex   -9.657559e+001 2.208051e+001 0.000000e+000
    endloop
  endfacet
  facet normal 0.000000e+000 0.000000e+000 3.529124e-002
    outer loop
      vertex   -9.657559e+001 2.208051e+001 0.000000e+000
      vertex   -1.035253e+002 2.220317e+001 0.000000e+000
      vertex   -1.033192e+002 2.196147e+001 0.000000e+000
    endloop
  endfacet
  facet normal 0.000000e+000 0.000000e+000 7.255742e-001
    outer loop
      vertex   -9.657559e+001 2.208051e+001 0.000000e+000
      vertex   -1.033192e+002 2.196147e+001 0.000000e+000
      vertex   -9.679006e+001 2.184622e+001 0.000000e+000
    endloop
  endfacet
  facet normal 0.000000e+000 0.000000e+000 3.529140e-002
    outer loop
      vertex   -9.679006e+001 2.184622e+001 0.000000e+000
      vertex   -1.033192e+002 2.196147e+001 0.000000e+000
      vertex   -1.030966e+002 2.173491e+001 0.000000e+000
    endloop
  endfacet
  facet normal 0.000000e+000 0.000000e+000 6.752288e-001
    outer loop
      vertex   -9.679006e+001 2.184622e+001 0.000000e+000
      vertex   -1.030966e+002 2.173491e+001 0.000000e+000
      vertex   -9.702052e+001 2.162765e+001 0.000000e+000
    endloop
  endfacet
  facet normal 0.000000e+000 0.000000e+000 3.529151e-002
    outer loop
      vertex   -9.702052e+001 2.162765e+001 0.000000e+000
      vertex   -1.030966e+002 2.173491e+001 0.000000e+000
      vertex   -1.028586e+002 2.152460e+001 0.000000e+000
    endloop
  endfacet
  facet normal 0.000000e+000 0.000000e+000 6.215102e-001
    outer loop
      vertex   -9.702052e+001 2.162765e+001 0.000000e+000
      vertex   -1.028586e+002 2.152460e+001 0.000000e+000
      vertex   -9.726583e+001 2.142588e+001 0.000000e+000
    endloop
  endfacet
  facet normal 0.000000e+000 0.000000e+000 3.529178e-002
    outer loop
      vertex   -9.726583e+001 2.142588e+001 0.000000e+000
      vertex   -1.028586e+002 2.152460e+001 0.000000e+000
      vertex   -1.026063e+002 2.133162e+001 0.000000e+000
    endloop
  endfacet
  facet normal 0.000000e+000 0.000000e+000 5.647159e-001
    outer loop
      vertex   -9.726583e+001 2.142588e+001 0.000000e+000
      vertex   -1.026063e+002 2.133162e+001 0.000000e+000
      vertex   -9.752475e+001 2.124192e+001 0.000000e+000
    endloop
  endfacet
  facet normal 0.000000e+000 0.000000e+000 3.529127e-002
    outer loop
      vertex   -9.752475e+001 2.124192e+001 0.000000e+000
      vertex   -1.026063e+002 2.133162e+001 0.000000e+000
      vertex   -1.023411e+002 2.115691e+001 0.000000e+000
    endloop
  endfacet
  facet normal 0.000000e+000 0.000000e+000 5.050797e-001
    outer loop
      vertex   -9.752475e+001 2.124192e+001 0.000000e+000
      vertex   -1.023411e+002 2.115691e+001 0.000000e+000
      vertex   -9.779601e+001 2.107668e+001 0.000000e+000
    endloop
  endfacet
  facet normal 0.000000e+000 0.000000e+000 3.529130e-002
    outer loop
      vertex   -9.779601e+001 2.107668e+001 0.000000e+000
      vertex   -1.023411e+002 2.115691e+001 0.000000e+000
      vertex   -1.020642e+002 2.100134e+001 0.000000e+000
    endloop
  endfacet
  facet normal 0.000000e+000 0.000000e+000 4.429481e-001
    outer loop
      vertex   -9.779601e+001 2.107668e+001 0.000000e+000
      vertex   -1.020642e+002 2.100134e+001 0.000000e+000
      vertex   -9.807825e+001 2.093099e+001 0.000000e+000
    endloop
  endfacet
  facet normal 0.000000e+000 0.000000e+000 3.529148e-002
    outer loop
      vertex   -9.807825e+001 2.093099e+001 0.000000e+000
      vertex   -1.020642e+002 2.100134e+001 0.000000e+000
      vertex   -1.017770e+002 2.086570e+001 0.000000e+000
    endloop
  endfacet
  facet normal 0.000000e+000 0.000000e+000 3.786073e-001
    outer loop
      vertex   -9.807825e+001 2.093099e+001 0.000000e+000
      vertex   -1.017770e+002 2.086570e+001 0.000000e+000
      vertex   -9.837006e+001 2.080556e+001 0.000000e+000
    endloop
  endfacet
  facet normal 0.000000e+000 0.000000e+000 3.529183e-002
    outer loop
      vertex   -9.837006e+001 2.080556e+001 0.000000e+000
      vertex   -1.017770e+002 2.086570e+001 0.000000e+000
      vertex   -1.014809e+002 2.075065e+001 0.000000e+000
    endloop
  endfacet
  facet normal 0.000000e+000 0.000000e+000 3.123697e-001
    outer loop
      vertex   -9.837006e+001 2.080556e+001 0.000000e+000
      vertex   -1.014809e+002 2.075065e+001 0.000000e+000
      vertex   -9.866999e+001 2.070104e+001 0.000000e+000
    endloop
  endfacet
  facet normal 0.000000e+000 0.000000e+000 3.529138e-002
    outer loop
      vertex   -9.866999e+001 2.070104e+001 0.000000e+000
      vertex   -1.014809e+002 2.075065e+001 0.000000e+000
      vertex   -1.011775e+002 2.065678e+001 0.000000e+000
    endloop
  endfacet
  facet normal 0.000000e+000 0.000000e+000 2.445849e-001
    outer loop
      vertex   -9.866999e+001 2.070104e+001 0.000000e+000
      vertex   -1.011775e+002 2.065678e+001 0.000000e+000
      vertex   -9.897655e+001 2.061793e+001 0.000000e+000
    endloop
  endfacet
  facet normal 0.000000e+000 0.000000e+000 3.529179e-002
    outer loop
      vertex   -9.897655e+001 2.061793e+001 0.000000e+000
      vertex   -1.011775e+002 2.065678e+001 0.000000e+000
      vertex   -1.008682e+002 2.058454e+001 0.000000e+000
    endloop
  endfacet
  facet normal 0.000000e+000 0.000000e+000 1.755793e-001
    outer loop
      vertex   -9.897655e+001 2.061793e+001 0.000000e+000
      vertex   -1.008682e+002 2.058454e+001 0.000000e+000
      vertex   -9.928820e+001 2.055665e+001 0.000000e+000
    endloop
  endfacet
  facet normal 0.000000e+000 0.000000e+000 3.529064e-002
    outer loop
      vertex   -9.928820e+001 2.055665e+001 0.000000e+000
      vertex   -1.008682e+002 2.058454e+001 0.000000e+000
      vertex   -1.005545e+002 2.053430e+001 0.000000e+000
    endloop
  endfacet
  facet normal 0.000000e+000 0.000000e+000 1.056976e-001
    outer loop
      vertex   -9.928820e+001 2.055665e+001 0.000000e+000
      vertex   -1.005545e+002 2.053430e+001 0.000000e+000
      vertex   -9.960340e+001 2.051751e+001 0.000000e+000
    endloop
  endfacet
  facet normal 0.000000e+000 0.000000e+000 3.529334e-002
    outer loop
      vertex   -9.960340e+001 2.051751e+001 0.000000e+000
      vertex   -1.005545e+002 2.053430e+001 0.000000e+000
      vertex   -1.002382e+002 2.050631e+001 0.000000e+000
    endloop
  endfacet
  facet normal 0.000000e+000 0.000000e+000 3.529337e-002
    outer loop
      vertex   -9.960340e+001 2.051751e+001 0.000000e+000
      vertex   -1.002382e+002 2.050631e+001 0.000000e+000
      vertex   -9.992059e+001 2.050070e+001 0.000000e+000
    endloop
  endfacet
  facet normal 0.000000e+000 0.000000e+000 9.961080e-001
    outer loop
      vertex   -1.044972e+002 2.515881e+001 0.000000e+000
      vertex   -9.551121e+001 2.531742e+001 0.000000e+000
      vertex   -1.044748e+002 2.547564e+001 0.000000e+000
    endloop
  endfacet
  facet normal -0.000000e+000 0.000000e+000 3.529143e-002
    outer loop
      vertex   -1.044748e+002 2.547564e+001 0.000000e+000
      vertex   -9.551121e+001 2.531742e+001 0.000000e+000
      vertex   -9.554478e+001 2.563327e+001 0.000000e+000
    endloop
  endfacet
  facet normal 0.000000e+000 0.000000e+000 9.874094e-001
    outer loop
      vertex   -1.044748e+002 2.547564e+001 0.000000e+000
      vertex   -9.554478e+001 2.563327e+001 0.000000e+000
      vertex   -1.044301e+002 2.579011e+001 0.000000e+000
    endloop
  endfacet
  facet normal -0.000000e+000 0.000000e+000 3.529167e-002
    outer loop
      vertex   -1.044301e+002 2.579011e+001 0.000000e+000
      vertex   -9.554478e+001 2.563327e+001 0.000000e+000
      vertex   -9.560055e+001 2.594596e+001 0.000000e+000
    endloop
  endfacet
  facet normal 0.000000e+000 0.000000e+000 9.737960e-001
    outer loop
      vertex   -1.044301e+002 2.579011e+001 0.000000e+000
      vertex   -9.560055e+001 2.594596e+001 0.000000e+000
      vertex   -1.043633e+002 2.610063e+001 0.000000e+000
    endloop
  endfacet
  facet normal -0.000000e+000 0.000000e+000 3.529140e-002
    outer loop
      vertex   -1.043633e+002 2.610063e+001 0.000000e+000
      vertex   -9.560055e+001 2.594596e+001 0.000000e+000
      vertex   -9.567824e+001 2.625393e+001 0.000000e+000
    endloop
  endfacet
  facet normal 0.000000e+000 0.000000e+000 9.553226e-001
    outer loop
      vertex   -1.043633e+002 2.610063e+001 0.000000e+000
      vertex   -9.567824e+001 2.625393e+001 0.000000e+000
      vertex   -1.042748e+002 2.640567e+001 0.000000e+000
    endloop
  endfacet
  facet normal -0.000000e+000 0.000000e+000 3.529146e-002
    outer loop
      vertex   -1.042748e+002 2.640567e+001 0.000000e+000
      vertex   -9.567824e+001 2.625393e+001 0.000000e+000
      vertex   -9.577745e+001 2.655566e+001 0.000000e+000
    endloop
  endfacet
  facet normal 0.000000e+000 0.000000e+000 9.320980e-001
    outer loop
      vertex   -1.042748e+002 2.640567e+001 0.000000e+000
      vertex   -9.577745e+001 2.655566e+001 0.000000e+000
      vertex   -1.041650e+002 2.670371e+001 0.000000e+000
    endloop
  endfacet
  facet normal -0.000000e+000 0.000000e+000 3.529154e-002
    outer loop
      vertex   -1.041650e+002 2.670371e+001 0.000000e+000
      vertex   -9.577745e+001 2.655566e+001 0.000000e+000
      vertex   -9.589771e+001 2.684964e+001 0.000000e+000
    endloop
  endfacet
  facet normal 0.000000e+000 0.000000e+000 9.042241e-001
    outer loop
      vertex   -1.041650e+002 2.670371e+001 0.000000e+000
      vertex   -9.589771e+001 2.684964e+001 0.000000e+000
      vertex   -1.040345e+002 2.699327e+001 0.000000e+000
    endloop
  endfacet
  facet normal -0.000000e+000 0.000000e+000 3.529137e-002
    outer loop
      vertex   -1.040345e+002 2.699327e+001 0.000000e+000
      vertex   -9.589771e+001 2.684964e+001 0.000000e+000
      vertex   -9.603840e+001 2.713441e+001 0.000000e+000
    endloop
  endfacet
  facet normal 0.000000e+000 0.000000e+000 8.718517e-001
    outer loop
      vertex   -1.040345e+002 2.699327e+001 0.000000e+000
      vertex   -9.603840e+001 2.713441e+001 0.000000e+000
      vertex   -1.038838e+002 2.727289e+001 0.000000e+000
    endloop
  endfacet
  facet normal -0.000000e+000 0.000000e+000 3.529136e-002
    outer loop
      vertex   -1.038838e+002 2.727289e+001 0.000000e+000
      vertex   -9.603840e+001 2.713441e+001 0.000000e+000
      vertex   -9.619882e+001 2.740854e+001 0.000000e+000
    endloop
  endfacet
  facet normal 0.000000e+000 0.000000e+000 8.351232e-001
    outer loop
      vertex   -1.038838e+002 2.727289e+001 0.000000e+000
      vertex   -9.619882e+001 2.740854e+001 0.000000e+000
      vertex   -1.037138e+002 2.754119e+001 0.000000e+000
    endloop
  endfacet
  facet normal -0.000000e+000 0.000000e+000 3.529163e-002
    outer loop
      vertex   -1.037138e+002 2.754119e+001 0.000000e+000
      vertex   -9.619882e+001 2.740854e+001 0.000000e+000
      vertex   -9.637819e+001 2.767067e+001 0.000000e+000
    endloop
  endfacet
  facet normal 0.000000e+000 0.000000e+000 7.942543e-001
    outer loop
      vertex   -1.037138e+002 2.754119e+001 0.000000e+000
      vertex   -9.637819e+001 2.767067e+001 0.000000e+000
      vertex   -1.035253e+002 2.779683e+001 0.000000e+000
    endloop
  endfacet
  facet normal -0.000000e+000 0.000000e+000 3.529127e-002
    outer loop
      vertex   -1.035253e+002 2.779683e+001 0.000000e+000
      vertex   -9.637819e+001 2.767067e+001 0.000000e+000
      vertex   -9.657559e+001 2.791949e+001 0.000000e+000
    endloop
  endfacet
  facet normal 0.000000e+000 0.000000e+000 7.494031e-001
    outer loop
      vertex   -1.035253e+002 2.779683e+001 0.000000e+000
      vertex   -9.657559e+001 2.791949e+001 0.000000e+000
      vertex   -1.033192e+002 2.803853e+001 0.000000e+000
    endloop
  endfacet
  facet normal -0.000000e+000 0.000000e+000 3.529146e-002
    outer loop
      vertex   -1.033192e+002 2.803853e+001 0.000000e+000
      vertex   -9.657559e+001 2.791949e+001 0.000000e+000
      vertex   -9.679006e+001 2.815378e+001 0.000000e+000
    endloop
  endfacet
  facet normal 0.000000e+000 0.000000e+000 7.008387e-001
    outer loop
      vertex   -1.033192e+002 2.803853e+001 0.000000e+000
      vertex   -9.679006e+001 2.815378e+001 0.000000e+000
      vertex   -1.030966e+002 2.826509e+001 0.000000e+000
    endloop
  endfacet
  facet normal -0.000000e+000 0.000000e+000 3.529165e-002
    outer loop
      vertex   -1.030966e+002 2.826509e+001 0.000000e+000
      vertex   -9.679006e+001 2.815378e+001 0.000000e+000
      vertex   -9.702052e+001 2.837235e+001 0.000000e+000
    endloop
  endfacet
  facet normal 0.000000e+000 0.000000e+000 6.487781e-001
    outer loop
      vertex   -1.030966e+002 2.826509e+001 0.000000e+000
      vertex   -9.702052e+001 2.837235e+001 0.000000e+000
      vertex   -1.028586e+002 2.847540e+001 0.000000e+000
    endloop
  endfacet
  facet normal -0.000000e+000 0.000000e+000 3.529151e-002
    outer loop
      vertex   -1.028586e+002 2.847540e+001 0.000000e+000
      vertex   -9.702052e+001 2.837235e+001 0.000000e+000
      vertex   -9.726583e+001 2.857412e+001 0.000000e+000
    endloop
  endfacet
  facet normal 0.000000e+000 0.000000e+000 5.934818e-001
    outer loop
      vertex   -1.028586e+002 2.847540e+001 0.000000e+000
      vertex   -9.726583e+001 2.857412e+001 0.000000e+000
      vertex   -1.026063e+002 2.866838e+001 0.000000e+000
    endloop
  endfacet
  facet normal -0.000000e+000 0.000000e+000 3.529133e-002
    outer loop
      vertex   -1.026063e+002 2.866838e+001 0.000000e+000
      vertex   -9.726583e+001 2.857412e+001 0.000000e+000
      vertex   -9.752475e+001 2.875808e+001 0.000000e+000
    endloop
  endfacet
  facet normal 0.000000e+000 0.000000e+000 5.352361e-001
    outer loop
      vertex   -1.026063e+002 2.866838e+001 0.000000e+000
      vertex   -9.752475e+001 2.875808e+001 0.000000e+000
      vertex   -1.023411e+002 2.884309e+001 0.000000e+000
    endloop
  endfacet
  facet normal -0.000000e+000 0.000000e+000 3.529170e-002
    outer loop
      vertex   -1.023411e+002 2.884309e+001 0.000000e+000
      vertex   -9.752475e+001 2.875808e+001 0.000000e+000
      vertex   -9.779601e+001 2.892332e+001 0.000000e+000
    endloop
  endfacet
  facet normal 0.000000e+000 0.000000e+000 4.743040e-001
    outer loop
      vertex   -1.023411e+002 2.884309e+001 0.000000e+000
      vertex   -9.779601e+001 2.892332e+001 0.000000e+000
      vertex   -1.020642e+002 2.899866e+001 0.000000e+000
    endloop
  endfacet
  facet normal -0.000000e+000 0.000000e+000 3.529116e-002
    outer loop
      vertex   -1.020642e+002 2.899866e+001 0.000000e+000
      vertex   -9.779601e+001 2.892332e+001 0.000000e+000
      vertex   -9.807825e+001 2.906901e+001 0.000000e+000
    endloop
  endfacet
  facet normal 0.000000e+000 0.000000e+000 4.110340e-001
    outer loop
      vertex   -1.020642e+002 2.899866e+001 0.000000e+000
      vertex   -9.807825e+001 2.906901e+001 0.000000e+000
      vertex   -1.017770e+002 2.913430e+001 0.000000e+000
    endloop
  endfacet
  facet normal -0.000000e+000 0.000000e+000 3.529169e-002
    outer loop
      vertex   -1.017770e+002 2.913430e+001 0.000000e+000
      vertex   -9.807825e+001 2.906901e+001 0.000000e+000
      vertex   -9.837006e+001 2.919444e+001 0.000000e+000
    endloop
  endfacet
  facet normal 0.000000e+000 0.000000e+000 3.457112e-001
    outer loop
      vertex   -1.017770e+002 2.913430e+001 0.000000e+000
      vertex   -9.837006e+001 2.919444e+001 0.000000e+000
      vertex   -1.014809e+002 2.924935e+001 0.000000e+000
    endloop
  endfacet
  facet normal -0.000000e+000 0.000000e+000 3.529151e-002
    outer loop
      vertex   -1.014809e+002 2.924935e+001 0.000000e+000
      vertex   -9.837006e+001 2.919444e+001 0.000000e+000
      vertex   -9.866999e+001 2.929896e+001 0.000000e+000
    endloop
  endfacet
  facet normal 0.000000e+000 0.000000e+000 2.786488e-001
    outer loop
      vertex   -1.014809e+002 2.924935e+001 0.000000e+000
      vertex   -9.866999e+001 2.929896e+001 0.000000e+000
      vertex   -1.011775e+002 2.934322e+001 0.000000e+000
    endloop
  endfacet
  facet normal -0.000000e+000 0.000000e+000 3.529142e-002
    outer loop
      vertex   -1.011775e+002 2.934322e+001 0.000000e+000
      vertex   -9.866999e+001 2.929896e+001 0.000000e+000
      vertex   -9.897655e+001 2.938207e+001 0.000000e+000
    endloop
  endfacet
  facet normal 0.000000e+000 0.000000e+000 2.102117e-001
    outer loop
      vertex   -1.011775e+002 2.934322e+001 0.000000e+000
      vertex   -9.897655e+001 2.938207e+001 0.000000e+000
      vertex   -1.008682e+002 2.941546e+001 0.000000e+000
    endloop
  endfacet
  facet normal -0.000000e+000 0.000000e+000 3.529122e-002
    outer loop
      vertex   -1.008682e+002 2.941546e+001 0.000000e+000
      vertex   -9.897655e+001 2.938207e+001 0.000000e+000
      vertex   -9.928820e+001 2.944335e+001 0.000000e+000
    endloop
  endfacet
  facet normal 0.000000e+000 0.000000e+000 1.407247e-001
    outer loop
      vertex   -1.008682e+002 2.941546e+001 0.000000e+000
      vertex   -9.928820e+001 2.944335e+001 0.000000e+000
      vertex   -1.005545e+002 2.946570e+001 0.000000e+000
    endloop
  endfacet
  facet normal -0.000000e+000 0.000000e+000 3.529090e-002
    outer loop
      vertex   -1.005545e+002 2.946570e+001 0.000000e+000
      vertex   -9.928820e+001 2.944335e+001 0.000000e+000
      vertex   -9.960340e+001 2.948249e+001 0.000000e+000
    endloop
  endfacet
  facet normal 0.000000e+000 0.000000e+000 7.054424e-002
    outer loop
      vertex   -1.005545e+002 2.946570e+001 0.000000e+000
      vertex   -9.960340e+001 2.948249e+001 0.000000e+000
      vertex   -1.002382e+002 2.949369e+001 0.000000e+000
    endloop
  endfacet
  facet normal -0.000000e+000 0.000000e+000 3.529411e-002
    outer loop
      vertex   -1.002382e+002 2.949369e+001 0.000000e+000
      vertex   -9.960340e+001 2.948249e+001 0.000000e+000
      vertex   -9.992059e+001 2.949930e+001 0.000000e+000
    endloop
  endfacet
endsolid
