solid ascii
  facet normal 0.000000e+000 -3.591027e-002 9.993550e-001
    outer loop
      vertex   -6.500000e+001 2.250000e+002 4.761210e-001
      vertex   -6.500000e+001 2.251839e+002 4.827308e-001
      vertex   -6.817391e+001 2.250000e+002 4.761210e-001
    endloop
  endfacet
  facet normal 0.000000e+000 -3.585004e-002 9.976788e-001
    outer loop
      vertex   -6.817391e+001 2.250000e+002 4.761210e-001
      vertex   -6.500000e+001 2.251839e+002 4.827308e-001
      vertex   -6.817391e+001 2.251839e+002 4.827308e-001
    endloop
  endfacet
  facet normal 0.000000e+000 -9.150182e-003 5.717165e-002
    outer loop
      vertex   -6.817391e+001 2.251839e+002 4.827308e-001
      vertex   -6.500000e+001 2.251839e+002 4.827308e-001
      vertex   -6.500000e+001 2.253657e+002 5.118214e-001
    endloop
  endfacet
  facet normal 0.000000e+000 -1.577712e-001 9.857768e-001
    outer loop
      vertex   -6.817391e+001 2.251839e+002 4.827308e-001
      vertex   -6.500000e+001 2.253657e+002 5.118214e-001
      vertex   -6.817391e+001 2.253657e+002 5.118214e-001
    endloop
  endfacet
  facet normal 0.000000e+000 -1.608358e-002 5.561662e-002
    outer loop
      vertex   -6.817391e+001 2.253657e+002 5.118214e-001
      vertex   -6.500000e+001 2.253657e+002 5.118214e-001
      vertex   -6.500000e+001 2.255425e+002 5.629551e-001
    endloop
  endfacet
  facet normal 1.734723e-018 -2.773376e-001 9.590266e-001
    outer loop
      vertex   -6.817391e+001 2.253657e+002 5.118214e-001
      vertex   -6.500000e+001 2.255425e+002 5.629551e-001
      vertex   -6.817391e+001 2.255425e+002 5.629551e-001
    endloop
  endfacet
  facet normal 0.000000e+000 -2.277474e-002 5.323126e-002
    outer loop
      vertex   -6.817391e+001 2.255425e+002 5.629551e-001
      vertex   -6.500000e+001 2.255425e+002 5.629551e-001
      vertex   -6.500000e+001 2.257118e+002 6.353616e-001
    endloop
  endfacet
  facet normal -3.469447e-018 -3.926952e-001 9.178443e-001
    outer loop
      vertex   -6.817391e+001 2.255425e+002 5.629551e-001
      vertex   -6.500000e+001 2.257118e+002 6.353616e-001
      vertex   -6.817391e+001 2.257118e+002 6.353616e-001
    endloop
  endfacet
  facet normal 0.000000e+000 -2.912296e-002 5.003959e-002
    outer loop
      vertex   -6.817391e+001 2.257118e+002 6.353616e-001
      vertex   -6.500000e+001 2.257118e+002 6.353616e-001
      vertex   -6.500000e+001 2.258708e+002 7.279506e-001
    endloop
  endfacet
  facet normal 0.000000e+000 -5.021661e-001 8.628309e-001
    outer loop
      vertex   -6.817391e+001 2.257118e+002 6.353616e-001
      vertex   -6.500000e+001 2.258708e+002 7.279506e-001
      vertex   -6.817391e+001 2.258708e+002 7.279506e-001
    endloop
  endfacet
  facet normal 0.000000e+000 -3.503263e-002 4.609441e-002
    outer loop
      vertex   -6.817391e+001 2.258708e+002 7.279506e-001
      vertex   -6.500000e+001 2.258708e+002 7.279506e-001
      vertex   -6.500000e+001 2.260174e+002 8.393279e-001
    endloop
  endfacet
  facet normal 6.938894e-018 -6.040779e-001 7.948194e-001
    outer loop
      vertex   -6.817391e+001 2.258708e+002 7.279506e-001
      vertex   -6.500000e+001 2.260174e+002 8.393279e-001
      vertex   -6.817391e+001 2.260174e+002 8.393279e-001
    endloop
  endfacet
  facet normal 0.000000e+000 -4.041476e-002 4.145809e-002
    outer loop
      vertex   -6.817391e+001 2.260174e+002 8.393279e-001
      vertex   -6.500000e+001 2.260174e+002 8.393279e-001
      vertex   -6.500000e+001 2.261492e+002 9.678163e-001
    endloop
  endfacet
  facet normal -3.469447e-018 -6.968683e-001 7.148584e-001
    outer loop
      vertex   -6.817391e+001 2.260174e+002 8.393279e-001
      vertex   -6.500000e+001 2.261492e+002 9.678163e-001
      vertex   -6.817391e+001 2.261492e+002 9.678163e-001
    endloop
  endfacet
  facet normal 0.000000e+000 -4.518829e-002 3.619783e-002
    outer loop
      vertex   -6.817391e+001 2.261492e+002 9.678163e-001
      vertex   -6.500000e+001 2.261492e+002 9.678163e-001
      vertex   -6.500000e+001 2.262643e+002 1.111481e+000
    endloop
  endfacet
  facet normal 0.000000e+000 -7.791617e-001 6.241432e-001
    outer loop
      vertex   -6.817391e+001 2.261492e+002 9.678163e-001
      vertex   -6.500000e+001 2.262643e+002 1.111481e+000
      vertex   -6.817391e+001 2.262643e+002 1.111481e+000
    endloop
  endfacet
  facet normal 0.000000e+000 -4.928139e-002 3.038564e-002
    outer loop
      vertex   -6.817391e+001 2.262643e+002 1.111481e+000
      vertex   -6.500000e+001 2.262643e+002 1.111481e+000
      vertex   -6.500000e+001 2.263609e+002 1.268159e+000
    endloop
  endfacet
  facet normal 3.469447e-018 -8.497782e-001 5.239514e-001
    outer loop
      vertex   -6.817391e+001 2.262643e+002 1.111481e+000
      vertex   -6.500000e+001 2.263609e+002 1.268159e+000
      vertex   -6.817391e+001 2.263609e+002 1.268159e+000
    endloop
  endfacet
  facet normal 0.000000e+000 -5.263237e-002 2.412709e-002
    outer loop
      vertex   -6.817391e+001 2.263609e+002 1.268159e+000
      vertex   -6.500000e+001 2.263609e+002 1.268159e+000
      vertex   -6.500000e+001 2.264376e+002 1.435490e+000
    endloop
  endfacet
  facet normal 0.000000e+000 -9.075142e-001 4.160116e-001
    outer loop
      vertex   -6.817391e+001 2.263609e+002 1.268159e+000
      vertex   -6.500000e+001 2.264376e+002 1.435490e+000
      vertex   -6.817391e+001 2.264376e+002 1.435490e+000
    endloop
  endfacet
  facet normal 0.000000e+000 -5.519073e-002 1.749418e-002
    outer loop
      vertex   -6.817391e+001 2.264376e+002 1.435490e+000
      vertex   -6.500000e+001 2.264376e+002 1.435490e+000
      vertex   -6.500000e+001 2.264932e+002 1.610955e+000
    endloop
  endfacet
  facet normal -3.469447e-018 -9.516581e-001 3.016535e-001
    outer loop
      vertex   -6.817391e+001 2.264376e+002 1.435490e+000
      vertex   -6.500000e+001 2.264932e+002 1.610955e+000
      vertex   -6.817391e+001 2.264932e+002 1.610955e+000
    endloop
  endfacet
  facet normal 0.000000e+000 -5.691807e-002 1.060210e-002
    outer loop
      vertex   -6.817391e+001 2.264932e+002 1.610955e+000
      vertex   -6.500000e+001 2.264932e+002 1.610955e+000
      vertex   -6.500000e+001 2.265269e+002 1.791911e+000
    endloop
  endfacet
  facet normal 0.000000e+000 -9.814416e-001 1.828126e-001
    outer loop
      vertex   -6.817391e+001 2.264932e+002 1.610955e+000
      vertex   -6.500000e+001 2.265269e+002 1.791911e+000
      vertex   -6.817391e+001 2.265269e+002 1.791911e+000
    endloop
  endfacet
  facet normal 0.000000e+000 -5.778828e-002 3.551631e-003
    outer loop
      vertex   -6.817391e+001 2.265269e+002 1.791911e+000
      vertex   -6.500000e+001 2.265269e+002 1.791911e+000
      vertex   -6.500000e+001 2.265382e+002 1.975634e+000
    endloop
  endfacet
  facet normal 0.000000e+000 -9.964424e-001 6.124071e-002
    outer loop
      vertex   -6.817391e+001 2.265269e+002 1.791911e+000
      vertex   -6.500000e+001 2.265382e+002 1.975634e+000
      vertex   -6.817391e+001 2.265382e+002 1.975634e+000
    endloop
  endfacet
  facet normal 0.000000e+000 -5.778828e-002 -3.551631e-003
    outer loop
      vertex   -6.817391e+001 2.265382e+002 1.975634e+000
      vertex   -6.500000e+001 2.265382e+002 1.975634e+000
      vertex   -6.500000e+001 2.265269e+002 2.159357e+000
    endloop
  endfacet
  facet normal 0.000000e+000 -9.964424e-001 -6.124071e-002
    outer loop
      vertex   -6.817391e+001 2.265382e+002 1.975634e+000
      vertex   -6.500000e+001 2.265269e+002 2.159357e+000
      vertex   -6.817391e+001 2.265269e+002 2.159357e+000
    endloop
  endfacet
  facet normal 0.000000e+000 -5.691803e-002 -1.060210e-002
    outer loop
      vertex   -6.817391e+001 2.265269e+002 2.159357e+000
      vertex   -6.500000e+001 2.265269e+002 2.159357e+000
      vertex   -6.500000e+001 2.264932e+002 2.340314e+000
    endloop
  endfacet
  facet normal 0.000000e+000 -9.814415e-001 -1.828127e-001
    outer loop
      vertex   -6.817391e+001 2.265269e+002 2.159357e+000
      vertex   -6.500000e+001 2.264932e+002 2.340314e+000
      vertex   -6.817391e+001 2.264932e+002 2.340314e+000
    endloop
  endfacet
  facet normal 0.000000e+000 -5.519073e-002 -1.749418e-002
    outer loop
      vertex   -6.817391e+001 2.264932e+002 2.340314e+000
      vertex   -6.500000e+001 2.264932e+002 2.340314e+000
      vertex   -6.500000e+001 2.264376e+002 2.515779e+000
    endloop
  endfacet
  facet normal 3.469447e-018 -9.516581e-001 -3.016535e-001
    outer loop
      vertex   -6.817391e+001 2.264932e+002 2.340314e+000
      vertex   -6.500000e+001 2.264376e+002 2.515779e+000
      vertex   -6.817391e+001 2.264376e+002 2.515779e+000
    endloop
  endfacet
  facet normal 0.000000e+000 -5.263237e-002 -2.412709e-002
    outer loop
      vertex   -6.817391e+001 2.264376e+002 2.515779e+000
      vertex   -6.500000e+001 2.264376e+002 2.515779e+000
      vertex   -6.500000e+001 2.263609e+002 2.683110e+000
    endloop
  endfacet
  facet normal 0.000000e+000 -9.075142e-001 -4.160116e-001
    outer loop
      vertex   -6.817391e+001 2.264376e+002 2.515779e+000
      vertex   -6.500000e+001 2.263609e+002 2.683110e+000
      vertex   -6.817391e+001 2.263609e+002 2.683110e+000
    endloop
  endfacet
  facet normal 0.000000e+000 -4.928135e-002 -3.038564e-002
    outer loop
      vertex   -6.817391e+001 2.263609e+002 2.683110e+000
      vertex   -6.500000e+001 2.263609e+002 2.683110e+000
      vertex   -6.500000e+001 2.262643e+002 2.839787e+000
    endloop
  endfacet
  facet normal -3.469447e-018 -8.497780e-001 -5.239517e-001
    outer loop
      vertex   -6.817391e+001 2.263609e+002 2.683110e+000
      vertex   -6.500000e+001 2.262643e+002 2.839787e+000
      vertex   -6.817391e+001 2.262643e+002 2.839787e+000
    endloop
  endfacet
  facet normal 0.000000e+000 -4.518835e-002 -3.619783e-002
    outer loop
      vertex   -6.817391e+001 2.262643e+002 2.839787e+000
      vertex   -6.500000e+001 2.262643e+002 2.839787e+000
      vertex   -6.500000e+001 2.261492e+002 2.983452e+000
    endloop
  endfacet
  facet normal 3.469447e-018 -7.791621e-001 -6.241428e-001
    outer loop
      vertex   -6.817391e+001 2.262643e+002 2.839787e+000
      vertex   -6.500000e+001 2.261492e+002 2.983452e+000
      vertex   -6.817391e+001 2.261492e+002 2.983452e+000
    endloop
  endfacet
  facet normal 0.000000e+000 -4.041472e-002 -4.145809e-002
    outer loop
      vertex   -6.817391e+001 2.261492e+002 2.983452e+000
      vertex   -6.500000e+001 2.261492e+002 2.983452e+000
      vertex   -6.500000e+001 2.260174e+002 3.111940e+000
    endloop
  endfacet
  facet normal 0.000000e+000 -6.968680e-001 -7.148587e-001
    outer loop
      vertex   -6.817391e+001 2.261492e+002 2.983452e+000
      vertex   -6.500000e+001 2.260174e+002 3.111940e+000
      vertex   -6.817391e+001 2.260174e+002 3.111940e+000
    endloop
  endfacet
  facet normal 0.000000e+000 -3.503268e-002 -4.609441e-002
    outer loop
      vertex   -6.817391e+001 2.260174e+002 3.111940e+000
      vertex   -6.500000e+001 2.260174e+002 3.111940e+000
      vertex   -6.500000e+001 2.258708e+002 3.223318e+000
    endloop
  endfacet
  facet normal 0.000000e+000 -6.040785e-001 -7.948189e-001
    outer loop
      vertex   -6.817391e+001 2.260174e+002 3.111940e+000
      vertex   -6.500000e+001 2.258708e+002 3.223318e+000
      vertex   -6.817391e+001 2.258708e+002 3.223318e+000
    endloop
  endfacet
  facet normal 0.000000e+000 -2.912292e-002 -5.003959e-002
    outer loop
      vertex   -6.817391e+001 2.258708e+002 3.223318e+000
      vertex   -6.500000e+001 2.258708e+002 3.223318e+000
      vertex   -6.500000e+001 2.257118e+002 3.315907e+000
    endloop
  endfacet
  facet normal 3.469447e-018 -5.021656e-001 -8.628312e-001
    outer loop
      vertex   -6.817391e+001 2.258708e+002 3.223318e+000
      vertex   -6.500000e+001 2.257118e+002 3.315907e+000
      vertex   -6.817391e+001 2.257118e+002 3.315907e+000
    endloop
  endfacet
  facet normal 0.000000e+000 -2.277475e-002 -5.323126e-002
    outer loop
      vertex   -6.817391e+001 2.257118e+002 3.315907e+000
      vertex   -6.500000e+001 2.257118e+002 3.315907e+000
      vertex   -6.500000e+001 2.255425e+002 3.388313e+000
    endloop
  endfacet
  facet normal 3.469447e-018 -3.926955e-001 -9.178442e-001
    outer loop
      vertex   -6.817391e+001 2.257118e+002 3.315907e+000
      vertex   -6.500000e+001 2.255425e+002 3.388313e+000
      vertex   -6.817391e+001 2.255425e+002 3.388313e+000
    endloop
  endfacet
  facet normal 0.000000e+000 -1.608358e-002 -5.561662e-002
    outer loop
      vertex   -6.817391e+001 2.255425e+002 3.388313e+000
      vertex   -6.500000e+001 2.255425e+002 3.388313e+000
      vertex   -6.500000e+001 2.253657e+002 3.439447e+000
    endloop
  endfacet
  facet normal -1.734723e-018 -2.773376e-001 -9.590266e-001
    outer loop
      vertex   -6.817391e+001 2.255425e+002 3.388313e+000
      vertex   -6.500000e+001 2.253657e+002 3.439447e+000
      vertex   -6.817391e+001 2.253657e+002 3.439447e+000
    endloop
  endfacet
  facet normal 0.000000e+000 -9.150172e-003 -5.717165e-002
    outer loop
      vertex   -6.817391e+001 2.253657e+002 3.439447e+000
      vertex   -6.500000e+001 2.253657e+002 3.439447e+000
      vertex   -6.500000e+001 2.251839e+002 3.468538e+000
    endloop
  endfacet
  facet normal 3.469447e-018 -1.577710e-001 -9.857768e-001
    outer loop
      vertex   -6.817391e+001 2.253657e+002 3.439447e+000
      vertex   -6.500000e+001 2.251839e+002 3.468538e+000
      vertex   -6.817391e+001 2.251839e+002 3.468538e+000
    endloop
  endfacet
  facet normal 0.000000e+000 -2.079009e-003 -5.785799e-002
    outer loop
      vertex   -6.817391e+001 2.251839e+002 3.468538e+000
      vertex   -6.500000e+001 2.251839e+002 3.468538e+000
      vertex   -6.500000e+001 2.250000e+002 3.475147e+000
    endloop
  endfacet
  facet normal -4.336809e-019 -3.584956e-002 -9.976788e-001
    outer loop
      vertex   -6.817391e+001 2.251839e+002 3.468538e+000
      vertex   -6.500000e+001 2.250000e+002 3.475147e+000
      vertex   -6.817391e+001 2.250000e+002 3.475147e+000
    endloop
  endfacet
  facet normal -9.993550e-001 0.000000e+000 0.000000e+000
    outer loop
      vertex   -6.817391e+001 2.250000e+002 4.761210e-001
      vertex   -6.817391e+001 2.251839e+002 4.827308e-001
      vertex   -6.817391e+001 2.250000e+002 -5.000000e-001
    endloop
  endfacet
  facet normal -1.610842e-001 0.000000e+000 0.000000e+000
    outer loop
      vertex   -6.817391e+001 2.250000e+002 -5.000000e-001
      vertex   -6.817391e+001 2.251839e+002 4.827308e-001
      vertex   -6.817391e+001 2.253657e+002 5.118214e-001
    endloop
  endfacet
  facet normal -1.247773e-001 0.000000e+000 0.000000e+000
    outer loop
      vertex   -6.817391e+001 2.250000e+002 -5.000000e-001
      vertex   -6.817391e+001 2.253657e+002 5.118214e-001
      vertex   -6.817391e+001 2.255425e+002 5.629551e-001
    endloop
  endfacet
  facet normal -6.400704e-001 0.000000e+000 -0.000000e+000
    outer loop
      vertex   -6.817391e+001 2.255425e+002 5.629551e-001
      vertex   -6.817391e+001 2.257118e+002 6.353616e-001
      vertex   -6.817391e+001 2.250000e+002 -5.000000e-001
    endloop
  endfacet
  facet normal -5.686956e-002 0.000000e+000 0.000000e+000
    outer loop
      vertex   -6.817391e+001 2.250000e+002 -5.000000e-001
      vertex   -6.817391e+001 2.257118e+002 6.353616e-001
      vertex   -6.817391e+001 2.258708e+002 7.279506e-001
    endloop
  endfacet
  facet normal -8.156949e-001 0.000000e+000 0.000000e+000
    outer loop
      vertex   -6.817391e+001 2.250000e+002 -5.000000e-001
      vertex   -6.817391e+001 2.258708e+002 7.279506e-001
      vertex   -6.817391e+001 2.280000e+002 -5.000000e-001
    endloop
  endfacet
  facet normal -7.092510e-002 0.000000e+000 0.000000e+000
    outer loop
      vertex   -6.817391e+001 2.280000e+002 -5.000000e-001
      vertex   -6.817391e+001 2.258708e+002 7.279506e-001
      vertex   -6.817391e+001 2.260174e+002 8.393279e-001
    endloop
  endfacet
  facet normal -7.630754e-002 0.000000e+000 0.000000e+000
    outer loop
      vertex   -6.817391e+001 2.280000e+002 -5.000000e-001
      vertex   -6.817391e+001 2.260174e+002 8.393279e-001
      vertex   -6.817391e+001 2.261492e+002 9.678163e-001
    endloop
  endfacet
  facet normal -9.999881e-001 0.000000e+000 0.000000e+000
    outer loop
      vertex   -6.817391e+001 2.261492e+002 9.678163e-001
      vertex   -6.817391e+001 2.262643e+002 1.111481e+000
      vertex   -6.817391e+001 2.280000e+002 -5.000000e-001
    endloop
  endfacet
  facet normal -7.488452e-002 0.000000e+000 0.000000e+000
    outer loop
      vertex   -6.817391e+001 2.280000e+002 -5.000000e-001
      vertex   -6.817391e+001 2.262643e+002 1.111481e+000
      vertex   -6.817391e+001 2.263609e+002 1.268159e+000
    endloop
  endfacet
  facet normal -6.834861e-002 0.000000e+000 0.000000e+000
    outer loop
      vertex   -6.817391e+001 2.280000e+002 -5.000000e-001
      vertex   -6.817391e+001 2.263609e+002 1.268159e+000
      vertex   -6.817391e+001 2.264376e+002 1.435490e+000
    endloop
  endfacet
  facet normal -8.338794e-001 0.000000e+000 0.000000e+000
    outer loop
      vertex   -6.817391e+001 2.264376e+002 1.435490e+000
      vertex   -6.817391e+001 2.264932e+002 1.610955e+000
      vertex   -6.817391e+001 2.280000e+002 -5.000000e-001
    endloop
  endfacet
  facet normal -4.865706e-002 0.000000e+000 0.000000e+000
    outer loop
      vertex   -6.817391e+001 2.280000e+002 -5.000000e-001
      vertex   -6.817391e+001 2.264932e+002 1.610955e+000
      vertex   -6.817391e+001 2.265269e+002 1.791911e+000
    endloop
  endfacet
  facet normal -3.785556e-002 0.000000e+000 0.000000e+000
    outer loop
      vertex   -6.817391e+001 2.280000e+002 -5.000000e-001
      vertex   -6.817391e+001 2.265269e+002 1.791911e+000
      vertex   -6.817391e+001 2.265382e+002 1.975634e+000
    endloop
  endfacet
  facet normal -5.084502e-001 0.000000e+000 0.000000e+000
    outer loop
      vertex   -6.817391e+001 2.280000e+002 -5.000000e-001
      vertex   -6.817391e+001 2.265382e+002 1.975634e+000
      vertex   -6.817391e+001 2.280000e+002 4.500000e+000
    endloop
  endfacet
  facet normal -3.682315e-002 0.000000e+000 0.000000e+000
    outer loop
      vertex   -6.817391e+001 2.280000e+002 4.500000e+000
      vertex   -6.817391e+001 2.265382e+002 1.975634e+000
      vertex   -6.817391e+001 2.265269e+002 2.159357e+000
    endloop
  endfacet
  facet normal -4.743441e-002 0.000000e+000 0.000000e+000
    outer loop
      vertex   -6.817391e+001 2.280000e+002 4.500000e+000
      vertex   -6.817391e+001 2.265269e+002 2.159357e+000
      vertex   -6.817391e+001 2.264932e+002 2.340314e+000
    endloop
  endfacet
  facet normal -7.932522e-001 0.000000e+000 0.000000e+000
    outer loop
      vertex   -6.817391e+001 2.264932e+002 2.340314e+000
      vertex   -6.817391e+001 2.264376e+002 2.515779e+000
      vertex   -6.817391e+001 2.280000e+002 4.500000e+000
    endloop
  endfacet
  facet normal -6.693292e-002 0.000000e+000 0.000000e+000
    outer loop
      vertex   -6.817391e+001 2.280000e+002 4.500000e+000
      vertex   -6.817391e+001 2.264376e+002 2.515779e+000
      vertex   -6.817391e+001 2.263609e+002 2.683110e+000
    endloop
  endfacet
  facet normal -7.355822e-002 0.000000e+000 0.000000e+000
    outer loop
      vertex   -6.817391e+001 2.280000e+002 4.500000e+000
      vertex   -6.817391e+001 2.263609e+002 2.683110e+000
      vertex   -6.817391e+001 2.262643e+002 2.839787e+000
    endloop
  endfacet
  facet normal -9.961488e-001 0.000000e+000 0.000000e+000
    outer loop
      vertex   -6.817391e+001 2.262643e+002 2.839787e+000
      vertex   -6.817391e+001 2.261492e+002 2.983452e+000
      vertex   -6.817391e+001 2.280000e+002 4.500000e+000
    endloop
  endfacet
  facet normal -7.558163e-002 0.000000e+000 0.000000e+000
    outer loop
      vertex   -6.817391e+001 2.280000e+002 4.500000e+000
      vertex   -6.817391e+001 2.261492e+002 2.983452e+000
      vertex   -6.817391e+001 2.260174e+002 3.111940e+000
    endloop
  endfacet
  facet normal -7.060672e-002 0.000000e+000 0.000000e+000
    outer loop
      vertex   -6.817391e+001 2.280000e+002 4.500000e+000
      vertex   -6.817391e+001 2.260174e+002 3.111940e+000
      vertex   -6.817391e+001 2.258708e+002 3.223318e+000
    endloop
  endfacet
  facet normal -5.142564e-001 -0.000000e+000 0.000000e+000
    outer loop
      vertex   -6.817391e+001 2.280000e+002 4.500000e+000
      vertex   -6.817391e+001 2.258708e+002 3.223318e+000
      vertex   -6.817391e+001 2.250000e+002 4.500000e+000
    endloop
  endfacet
  facet normal -5.736315e-002 0.000000e+000 0.000000e+000
    outer loop
      vertex   -6.817391e+001 2.250000e+002 4.500000e+000
      vertex   -6.817391e+001 2.258708e+002 3.223318e+000
      vertex   -6.817391e+001 2.257118e+002 3.315907e+000
    endloop
  endfacet
  facet normal -8.710089e-002 0.000000e+000 0.000000e+000
    outer loop
      vertex   -6.817391e+001 2.250000e+002 4.500000e+000
      vertex   -6.817391e+001 2.257118e+002 3.315907e+000
      vertex   -6.817391e+001 2.255425e+002 3.388313e+000
    endloop
  endfacet
  facet normal -7.414784e-001 0.000000e+000 0.000000e+000
    outer loop
      vertex   -6.817391e+001 2.255425e+002 3.388313e+000
      vertex   -6.817391e+001 2.253657e+002 3.439447e+000
      vertex   -6.817391e+001 2.250000e+002 4.500000e+000
    endloop
  endfacet
  facet normal -1.549535e-001 0.000000e+000 0.000000e+000
    outer loop
      vertex   -6.817391e+001 2.250000e+002 4.500000e+000
      vertex   -6.817391e+001 2.253657e+002 3.439447e+000
      vertex   -6.817391e+001 2.251839e+002 3.468538e+000
    endloop
  endfacet
  facet normal -1.755640e-001 0.000000e+000 0.000000e+000
    outer loop
      vertex   -6.817391e+001 2.250000e+002 4.500000e+000
      vertex   -6.817391e+001 2.251839e+002 3.468538e+000
      vertex   -6.817391e+001 2.250000e+002 3.475147e+000
    endloop
  endfacet
  facet normal 0.000000e+000 -1.000000e+000 0.000000e+000
    outer loop
      vertex   -6.817391e+001 2.250000e+002 3.475147e+000
      vertex   -6.500000e+001 2.250000e+002 3.475147e+000
      vertex   -6.817391e+001 2.250000e+002 4.500000e+000
    endloop
  endfacet
  facet normal 0.000000e+000 -3.072771e-001 0.000000e+000
    outer loop
      vertex   -6.817391e+001 2.250000e+002 4.500000e+000
      vertex   -6.500000e+001 2.250000e+002 3.475147e+000
      vertex   -6.500000e+001 2.250000e+002 4.500000e+000
    endloop
  endfacet
  facet normal 7.159448e-001 6.981569e-001 0.000000e+000
    outer loop
      vertex   -7.381404e+001 2.345000e+002 0.000000e+000
      vertex   -6.767391e+001 2.282034e+002 0.000000e+000
      vertex   -7.381404e+001 2.345000e+002 -5.000000e-001
    endloop
  endfacet
  facet normal 4.063725e-002 3.962760e-002 -5.551115e-017
    outer loop
      vertex   -7.381404e+001 2.345000e+002 -5.000000e-001
      vertex   -6.767391e+001 2.282034e+002 0.000000e+000
      vertex   -6.767391e+001 2.282034e+002 -5.000000e-001
    endloop
  endfacet
  facet normal -0.000000e+000 -1.000000e+000 -0.000000e+000
    outer loop
      vertex   -7.023986e+001 2.345000e+002 0.000000e+000
      vertex   -7.381404e+001 2.345000e+002 0.000000e+000
      vertex   -7.023986e+001 2.345000e+002 -5.000000e-001
    endloop
  endfacet
  facet normal 0.000000e+000 -1.385431e-001 0.000000e+000
    outer loop
      vertex   -7.023986e+001 2.345000e+002 -5.000000e-001
      vertex   -7.381404e+001 2.345000e+002 0.000000e+000
      vertex   -7.381404e+001 2.345000e+002 -5.000000e-001
    endloop
  endfacet
  facet normal -7.799541e-001 -6.258367e-001 -0.000000e+000
    outer loop
      vertex   -6.550000e+001 2.285929e+002 0.000000e+000
      vertex   -7.023986e+001 2.345000e+002 0.000000e+000
      vertex   -6.550000e+001 2.285929e+002 -5.000000e-001
    endloop
  endfacet
  facet normal -5.137954e-002 -4.122704e-002 5.551115e-017
    outer loop
      vertex   -6.550000e+001 2.285929e+002 -5.000000e-001
      vertex   -7.023986e+001 2.345000e+002 0.000000e+000
      vertex   -7.023986e+001 2.345000e+002 -5.000000e-001
    endloop
  endfacet
  facet normal -1.000000e+000 0.000000e+000 0.000000e+000
    outer loop
      vertex   -6.550000e+001 2.255000e+002 0.000000e+000
      vertex   -6.550000e+001 2.285929e+002 0.000000e+000
      vertex   -6.550000e+001 2.255000e+002 -5.000000e-001
    endloop
  endfacet
  facet normal -1.595881e-001 0.000000e+000 0.000000e+000
    outer loop
      vertex   -6.550000e+001 2.255000e+002 -5.000000e-001
      vertex   -6.550000e+001 2.285929e+002 0.000000e+000
      vertex   -6.550000e+001 2.285929e+002 -5.000000e-001
    endloop
  endfacet
  facet normal -0.000000e+000 1.000000e+000 0.000000e+000
    outer loop
      vertex   -6.767391e+001 2.255000e+002 0.000000e+000
      vertex   -6.550000e+001 2.255000e+002 0.000000e+000
      vertex   -6.767391e+001 2.255000e+002 -5.000000e-001
    endloop
  endfacet
  facet normal 0.000000e+000 2.241478e-001 0.000000e+000
    outer loop
      vertex   -6.767391e+001 2.255000e+002 -5.000000e-001
      vertex   -6.550000e+001 2.255000e+002 0.000000e+000
      vertex   -6.550000e+001 2.255000e+002 -5.000000e-001
    endloop
  endfacet
  facet normal 1.000000e+000 0.000000e+000 0.000000e+000
    outer loop
      vertex   -6.767391e+001 2.282034e+002 0.000000e+000
      vertex   -6.767391e+001 2.255000e+002 0.000000e+000
      vertex   -6.767391e+001 2.282034e+002 -5.000000e-001
    endloop
  endfacet
  facet normal 1.818659e-001 0.000000e+000 0.000000e+000
    outer loop
      vertex   -6.767391e+001 2.282034e+002 -5.000000e-001
      vertex   -6.767391e+001 2.255000e+002 0.000000e+000
      vertex   -6.767391e+001 2.255000e+002 -5.000000e-001
    endloop
  endfacet
  facet normal 0.000000e+000 -0.000000e+000 -1.512069e-001
    outer loop
      vertex   -6.500000e+001 2.287687e+002 -5.000000e-001
      vertex   -6.500000e+001 2.250000e+002 -5.000000e-001
      vertex   -6.550000e+001 2.255000e+002 -5.000000e-001
    endloop
  endfacet
  facet normal 0.000000e+000 -0.000000e+000 -8.250300e-001
    outer loop
      vertex   -6.550000e+001 2.255000e+002 -5.000000e-001
      vertex   -6.500000e+001 2.250000e+002 -5.000000e-001
      vertex   -6.817391e+001 2.250000e+002 -5.000000e-001
    endloop
  endfacet
  facet normal -0.000000e+000 0.000000e+000 -1.838061e-001
    outer loop
      vertex   -6.550000e+001 2.255000e+002 -5.000000e-001
      vertex   -6.817391e+001 2.250000e+002 -5.000000e-001
      vertex   -6.767391e+001 2.255000e+002 -5.000000e-001
    endloop
  endfacet
  facet normal -0.000000e+000 0.000000e+000 -8.320503e-001
    outer loop
      vertex   -6.767391e+001 2.255000e+002 -5.000000e-001
      vertex   -6.817391e+001 2.250000e+002 -5.000000e-001
      vertex   -6.817391e+001 2.280000e+002 -5.000000e-001
    endloop
  endfacet
  facet normal 0.000000e+000 0.000000e+000 -1.961161e-001
    outer loop
      vertex   -6.767391e+001 2.255000e+002 -5.000000e-001
      vertex   -6.817391e+001 2.280000e+002 -5.000000e-001
      vertex   -6.767391e+001 2.282034e+002 -5.000000e-001
    endloop
  endfacet
  facet normal -0.000000e+000 0.000000e+000 -9.262667e-001
    outer loop
      vertex   -6.767391e+001 2.282034e+002 -5.000000e-001
      vertex   -6.817391e+001 2.280000e+002 -5.000000e-001
      vertex   -7.381404e+001 2.345000e+002 -5.000000e-001
    endloop
  endfacet
  facet normal -0.000000e+000 -0.000000e+000 -4.413672e-001
    outer loop
      vertex   -7.381404e+001 2.345000e+002 -5.000000e-001
      vertex   -6.817391e+001 2.280000e+002 -5.000000e-001
      vertex   -7.500000e+001 2.350000e+002 -5.000000e-001
    endloop
  endfacet
  facet normal 0.000000e+000 0.000000e+000 -5.049623e-001
    outer loop
      vertex   -7.381404e+001 2.345000e+002 -5.000000e-001
      vertex   -7.500000e+001 2.350000e+002 -5.000000e-001
      vertex   -7.000000e+001 2.350000e+002 -5.000000e-001
    endloop
  endfacet
  facet normal 0.000000e+000 0.000000e+000 -1.299824e-001
    outer loop
      vertex   -7.381404e+001 2.345000e+002 -5.000000e-001
      vertex   -7.000000e+001 2.350000e+002 -5.000000e-001
      vertex   -7.023986e+001 2.345000e+002 -5.000000e-001
    endloop
  endfacet
  facet normal 0.000000e+000 0.000000e+000 -9.275970e-001
    outer loop
      vertex   -7.023986e+001 2.345000e+002 -5.000000e-001
      vertex   -7.000000e+001 2.350000e+002 -5.000000e-001
      vertex   -6.500000e+001 2.287687e+002 -5.000000e-001
    endloop
  endfacet
  facet normal 0.000000e+000 0.000000e+000 -6.438650e-002
    outer loop
      vertex   -7.023986e+001 2.345000e+002 -5.000000e-001
      vertex   -6.500000e+001 2.287687e+002 -5.000000e-001
      vertex   -6.550000e+001 2.285929e+002 -5.000000e-001
    endloop
  endfacet
  facet normal 0.000000e+000 0.000000e+000 -9.433888e-001
    outer loop
      vertex   -6.550000e+001 2.285929e+002 -5.000000e-001
      vertex   -6.500000e+001 2.287687e+002 -5.000000e-001
      vertex   -6.550000e+001 2.255000e+002 -5.000000e-001
    endloop
  endfacet
  facet normal -7.799541e-001 -6.258367e-001 0.000000e+000
    outer loop
      vertex   -7.023986e+001 2.345000e+002 4.000000e+000
      vertex   -6.550000e+001 2.285929e+002 4.000000e+000
      vertex   -7.023986e+001 2.345000e+002 4.500000e+000
    endloop
  endfacet
  facet normal -5.137954e-002 -4.122704e-002 5.551115e-017
    outer loop
      vertex   -7.023986e+001 2.345000e+002 4.500000e+000
      vertex   -6.550000e+001 2.285929e+002 4.000000e+000
      vertex   -6.550000e+001 2.285929e+002 4.500000e+000
    endloop
  endfacet
  facet normal -1.000000e+000 0.000000e+000 0.000000e+000
    outer loop
      vertex   -6.550000e+001 2.285929e+002 4.000000e+000
      vertex   -6.550000e+001 2.255000e+002 4.000000e+000
      vertex   -6.550000e+001 2.285929e+002 4.500000e+000
    endloop
  endfacet
  facet normal -1.595881e-001 -0.000000e+000 0.000000e+000
    outer loop
      vertex   -6.550000e+001 2.285929e+002 4.500000e+000
      vertex   -6.550000e+001 2.255000e+002 4.000000e+000
      vertex   -6.550000e+001 2.255000e+002 4.500000e+000
    endloop
  endfacet
  facet normal 0.000000e+000 1.000000e+000 -0.000000e+000
    outer loop
      vertex   -6.550000e+001 2.255000e+002 4.000000e+000
      vertex   -6.767391e+001 2.255000e+002 4.000000e+000
      vertex   -6.550000e+001 2.255000e+002 4.500000e+000
    endloop
  endfacet
  facet normal 0.000000e+000 2.241478e-001 0.000000e+000
    outer loop
      vertex   -6.550000e+001 2.255000e+002 4.500000e+000
      vertex   -6.767391e+001 2.255000e+002 4.000000e+000
      vertex   -6.767391e+001 2.255000e+002 4.500000e+000
    endloop
  endfacet
  facet normal 0.000000e+000 -1.000000e+000 0.000000e+000
    outer loop
      vertex   -7.381404e+001 2.345000e+002 4.000000e+000
      vertex   -7.023986e+001 2.345000e+002 4.000000e+000
      vertex   -7.381404e+001 2.345000e+002 4.500000e+000
    endloop
  endfacet
  facet normal 0.000000e+000 -1.385431e-001 0.000000e+000
    outer loop
      vertex   -7.381404e+001 2.345000e+002 4.500000e+000
      vertex   -7.023986e+001 2.345000e+002 4.000000e+000
      vertex   -7.023986e+001 2.345000e+002 4.500000e+000
    endloop
  endfacet
  facet normal 7.159448e-001 6.981569e-001 -0.000000e+000
    outer loop
      vertex   -6.767391e+001 2.282034e+002 4.000000e+000
      vertex   -7.381404e+001 2.345000e+002 4.000000e+000
      vertex   -6.767391e+001 2.282034e+002 4.500000e+000
    endloop
  endfacet
  facet normal 4.063725e-002 3.962760e-002 -5.551115e-017
    outer loop
      vertex   -6.767391e+001 2.282034e+002 4.500000e+000
      vertex   -7.381404e+001 2.345000e+002 4.000000e+000
      vertex   -7.381404e+001 2.345000e+002 4.500000e+000
    endloop
  endfacet
  facet normal 1.000000e+000 0.000000e+000 0.000000e+000
    outer loop
      vertex   -6.767391e+001 2.255000e+002 4.000000e+000
      vertex   -6.767391e+001 2.282034e+002 4.000000e+000
      vertex   -6.767391e+001 2.255000e+002 4.500000e+000
    endloop
  endfacet
  facet normal 1.818659e-001 -0.000000e+000 0.000000e+000
    outer loop
      vertex   -6.767391e+001 2.255000e+002 4.500000e+000
      vertex   -6.767391e+001 2.282034e+002 4.000000e+000
      vertex   -6.767391e+001 2.282034e+002 4.500000e+000
    endloop
  endfacet
  facet normal 0.000000e+000 0.000000e+000 1.961161e-001
    outer loop
      vertex   -6.817391e+001 2.280000e+002 4.500000e+000
      vertex   -6.817391e+001 2.250000e+002 4.500000e+000
      vertex   -6.767391e+001 2.255000e+002 4.500000e+000
    endloop
  endfacet
  facet normal 0.000000e+000 0.000000e+000 8.250300e-001
    outer loop
      vertex   -6.767391e+001 2.255000e+002 4.500000e+000
      vertex   -6.817391e+001 2.250000e+002 4.500000e+000
      vertex   -6.500000e+001 2.250000e+002 4.500000e+000
    endloop
  endfacet
  facet normal -0.000000e+000 0.000000e+000 1.838061e-001
    outer loop
      vertex   -6.767391e+001 2.255000e+002 4.500000e+000
      vertex   -6.500000e+001 2.250000e+002 4.500000e+000
      vertex   -6.550000e+001 2.255000e+002 4.500000e+000
    endloop
  endfacet
  facet normal -0.000000e+000 0.000000e+000 8.058960e-001
    outer loop
      vertex   -6.550000e+001 2.255000e+002 4.500000e+000
      vertex   -6.500000e+001 2.250000e+002 4.500000e+000
      vertex   -6.500000e+001 2.287687e+002 4.500000e+000
    endloop
  endfacet
  facet normal 0.000000e+000 0.000000e+000 1.512069e-001
    outer loop
      vertex   -6.550000e+001 2.255000e+002 4.500000e+000
      vertex   -6.500000e+001 2.287687e+002 4.500000e+000
      vertex   -6.550000e+001 2.285929e+002 4.500000e+000
    endloop
  endfacet
  facet normal 0.000000e+000 -0.000000e+000 9.433831e-001
    outer loop
      vertex   -6.550000e+001 2.285929e+002 4.500000e+000
      vertex   -6.500000e+001 2.287687e+002 4.500000e+000
      vertex   -7.023986e+001 2.345000e+002 4.500000e+000
    endloop
  endfacet
  facet normal -0.000000e+000 0.000000e+000 9.275970e-001
    outer loop
      vertex   -7.023986e+001 2.345000e+002 4.500000e+000
      vertex   -6.500000e+001 2.287687e+002 4.500000e+000
      vertex   -7.000000e+001 2.350000e+002 4.500000e+000
    endloop
  endfacet
  facet normal 0.000000e+000 -0.000000e+000 9.016212e-001
    outer loop
      vertex   -7.023986e+001 2.345000e+002 4.500000e+000
      vertex   -7.000000e+001 2.350000e+002 4.500000e+000
      vertex   -7.381404e+001 2.345000e+002 4.500000e+000
    endloop
  endfacet
  facet normal 0.000000e+000 -0.000000e+000 5.049623e-001
    outer loop
      vertex   -7.381404e+001 2.345000e+002 4.500000e+000
      vertex   -7.000000e+001 2.350000e+002 4.500000e+000
      vertex   -7.500000e+001 2.350000e+002 4.500000e+000
    endloop
  endfacet
  facet normal 0.000000e+000 0.000000e+000 4.413672e-001
    outer loop
      vertex   -7.381404e+001 2.345000e+002 4.500000e+000
      vertex   -7.500000e+001 2.350000e+002 4.500000e+000
      vertex   -6.817391e+001 2.280000e+002 4.500000e+000
    endloop
  endfacet
  facet normal 0.000000e+000 -0.000000e+000 1.961161e-001
    outer loop
      vertex   -6.767391e+001 2.255000e+002 4.500000e+000
      vertex   -6.767391e+001 2.282034e+002 4.500000e+000
      vertex   -6.817391e+001 2.280000e+002 4.500000e+000
    endloop
  endfacet
  facet normal 0.000000e+000 -0.000000e+000 9.465980e-001
    outer loop
      vertex   -6.817391e+001 2.280000e+002 4.500000e+000
      vertex   -6.767391e+001 2.282034e+002 4.500000e+000
      vertex   -7.381404e+001 2.345000e+002 4.500000e+000
    endloop
  endfacet
  facet normal -7.159445e-001 -6.981572e-001 -0.000000e+000
    outer loop
      vertex   -6.817391e+001 2.280000e+002 4.500000e+000
      vertex   -7.500000e+001 2.350000e+002 4.500000e+000
      vertex   -6.817391e+001 2.280000e+002 -5.000000e-001
    endloop
  endfacet
  facet normal -3.259747e-001 -3.178760e-001 0.000000e+000
    outer loop
      vertex   -6.817391e+001 2.280000e+002 -5.000000e-001
      vertex   -7.500000e+001 2.350000e+002 4.500000e+000
      vertex   -7.500000e+001 2.350000e+002 -5.000000e-001
    endloop
  endfacet
  facet normal -0.000000e+000 1.000000e+000 0.000000e+000
    outer loop
      vertex   -7.500000e+001 2.350000e+002 4.500000e+000
      vertex   -7.000000e+001 2.350000e+002 4.500000e+000
      vertex   -7.500000e+001 2.350000e+002 -5.000000e-001
    endloop
  endfacet
  facet normal 0.000000e+000 7.071068e-001 0.000000e+000
    outer loop
      vertex   -7.500000e+001 2.350000e+002 -5.000000e-001
      vertex   -7.000000e+001 2.350000e+002 4.500000e+000
      vertex   -7.000000e+001 2.350000e+002 -5.000000e-001
    endloop
  endfacet
  facet normal 7.799542e-001 6.258366e-001 0.000000e+000
    outer loop
      vertex   -7.000000e+001 2.350000e+002 4.500000e+000
      vertex   -6.500000e+001 2.287687e+002 4.500000e+000
      vertex   -7.000000e+001 2.350000e+002 -5.000000e-001
    endloop
  endfacet
  facet normal 4.137726e-001 3.320118e-001 -5.551115e-017
    outer loop
      vertex   -7.000000e+001 2.350000e+002 -5.000000e-001
      vertex   -6.500000e+001 2.287687e+002 4.500000e+000
      vertex   -6.500000e+001 2.287687e+002 -5.000000e-001
    endloop
  endfacet
  facet normal 9.993550e-001 -0.000000e+000 0.000000e+000
    outer loop
      vertex   -6.500000e+001 2.250000e+002 3.475147e+000
      vertex   -6.500000e+001 2.251839e+002 3.468538e+000
      vertex   -6.500000e+001 2.250000e+002 4.500000e+000
    endloop
  endfacet
  facet normal 1.549535e-001 0.000000e+000 0.000000e+000
    outer loop
      vertex   -6.500000e+001 2.250000e+002 4.500000e+000
      vertex   -6.500000e+001 2.251839e+002 3.468538e+000
      vertex   -6.500000e+001 2.253657e+002 3.439447e+000
    endloop
  endfacet
  facet normal 1.216573e-001 0.000000e+000 0.000000e+000
    outer loop
      vertex   -6.500000e+001 2.250000e+002 4.500000e+000
      vertex   -6.500000e+001 2.253657e+002 3.439447e+000
      vertex   -6.500000e+001 2.255425e+002 3.388313e+000
    endloop
  endfacet
  facet normal 6.537273e-001 -0.000000e+000 -0.000000e+000
    outer loop
      vertex   -6.500000e+001 2.255425e+002 3.388313e+000
      vertex   -6.500000e+001 2.257118e+002 3.315907e+000
      vertex   -6.500000e+001 2.250000e+002 4.500000e+000
    endloop
  endfacet
  facet normal 5.736315e-002 0.000000e+000 0.000000e+000
    outer loop
      vertex   -6.500000e+001 2.250000e+002 4.500000e+000
      vertex   -6.500000e+001 2.257118e+002 3.315907e+000
      vertex   -6.500000e+001 2.258708e+002 3.223318e+000
    endloop
  endfacet
  facet normal 8.261115e-001 -0.000000e+000 0.000000e+000
    outer loop
      vertex   -6.500000e+001 2.250000e+002 4.500000e+000
      vertex   -6.500000e+001 2.258708e+002 3.223318e+000
      vertex   -6.500000e+001 2.287687e+002 4.500000e+000
    endloop
  endfacet
  facet normal 5.224735e-002 0.000000e+000 0.000000e+000
    outer loop
      vertex   -6.500000e+001 2.287687e+002 4.500000e+000
      vertex   -6.500000e+001 2.258708e+002 3.223318e+000
      vertex   -6.500000e+001 2.260174e+002 3.111940e+000
    endloop
  endfacet
  facet normal 5.751387e-002 0.000000e+000 0.000000e+000
    outer loop
      vertex   -6.500000e+001 2.287687e+002 4.500000e+000
      vertex   -6.500000e+001 2.260174e+002 3.111940e+000
      vertex   -6.500000e+001 2.261492e+002 2.983452e+000
    endloop
  endfacet
  facet normal 9.886837e-001 -0.000000e+000 0.000000e+000
    outer loop
      vertex   -6.500000e+001 2.261492e+002 2.983452e+000
      vertex   -6.500000e+001 2.262643e+002 2.839787e+000
      vertex   -6.500000e+001 2.287687e+002 4.500000e+000
    endloop
  endfacet
  facet normal 6.098846e-002 0.000000e+000 0.000000e+000
    outer loop
      vertex   -6.500000e+001 2.287687e+002 4.500000e+000
      vertex   -6.500000e+001 2.262643e+002 2.839787e+000
      vertex   -6.500000e+001 2.263609e+002 2.683110e+000
    endloop
  endfacet
  facet normal 5.872562e-002 0.000000e+000 0.000000e+000
    outer loop
      vertex   -6.500000e+001 2.287687e+002 4.500000e+000
      vertex   -6.500000e+001 2.263609e+002 2.683110e+000
      vertex   -6.500000e+001 2.264376e+002 2.515779e+000
    endloop
  endfacet
  facet normal 9.217503e-001 -0.000000e+000 0.000000e+000
    outer loop
      vertex   -6.500000e+001 2.264376e+002 2.515779e+000
      vertex   -6.500000e+001 2.264932e+002 2.340314e+000
      vertex   -6.500000e+001 2.287687e+002 4.500000e+000
    endloop
  endfacet
  facet normal 4.765650e-002 0.000000e+000 0.000000e+000
    outer loop
      vertex   -6.500000e+001 2.287687e+002 4.500000e+000
      vertex   -6.500000e+001 2.264932e+002 2.340314e+000
      vertex   -6.500000e+001 2.265269e+002 2.159357e+000
    endloop
  endfacet
  facet normal 4.014548e-002 0.000000e+000 0.000000e+000
    outer loop
      vertex   -6.500000e+001 2.287687e+002 4.500000e+000
      vertex   -6.500000e+001 2.265269e+002 2.159357e+000
      vertex   -6.500000e+001 2.265382e+002 1.975634e+000
    endloop
  endfacet
  facet normal 6.621419e-001 0.000000e+000 0.000000e+000
    outer loop
      vertex   -6.500000e+001 2.287687e+002 4.500000e+000
      vertex   -6.500000e+001 2.265382e+002 1.975634e+000
      vertex   -6.500000e+001 2.287687e+002 -5.000000e-001
    endloop
  endfacet
  facet normal 4.097525e-002 0.000000e+000 0.000000e+000
    outer loop
      vertex   -6.500000e+001 2.287687e+002 -5.000000e-001
      vertex   -6.500000e+001 2.265382e+002 1.975634e+000
      vertex   -6.500000e+001 2.265269e+002 1.791911e+000
    endloop
  endfacet
  facet normal 4.852952e-002 0.000000e+000 0.000000e+000
    outer loop
      vertex   -6.500000e+001 2.287687e+002 -5.000000e-001
      vertex   -6.500000e+001 2.265269e+002 1.791911e+000
      vertex   -6.500000e+001 2.264932e+002 1.610955e+000
    endloop
  endfacet
  facet normal 9.043483e-001 0.000000e+000 0.000000e+000
    outer loop
      vertex   -6.500000e+001 2.264932e+002 1.610955e+000
      vertex   -6.500000e+001 2.264376e+002 1.435490e+000
      vertex   -6.500000e+001 2.287687e+002 -5.000000e-001
    endloop
  endfacet
  facet normal 5.949841e-002 0.000000e+000 0.000000e+000
    outer loop
      vertex   -6.500000e+001 2.287687e+002 -5.000000e-001
      vertex   -6.500000e+001 2.264376e+002 1.435490e+000
      vertex   -6.500000e+001 2.263609e+002 1.268159e+000
    endloop
  endfacet
  facet normal 6.160448e-002 0.000000e+000 0.000000e+000
    outer loop
      vertex   -6.500000e+001 2.287687e+002 -5.000000e-001
      vertex   -6.500000e+001 2.263609e+002 1.268159e+000
      vertex   -6.500000e+001 2.262643e+002 1.111481e+000
    endloop
  endfacet
  facet normal 9.946364e-001 0.000000e+000 0.000000e+000
    outer loop
      vertex   -6.500000e+001 2.262643e+002 1.111481e+000
      vertex   -6.500000e+001 2.261492e+002 9.678163e-001
      vertex   -6.500000e+001 2.287687e+002 -5.000000e-001
    endloop
  endfacet
  facet normal 5.768690e-002 0.000000e+000 0.000000e+000
    outer loop
      vertex   -6.500000e+001 2.287687e+002 -5.000000e-001
      vertex   -6.500000e+001 2.261492e+002 9.678163e-001
      vertex   -6.500000e+001 2.260174e+002 8.393279e-001
    endloop
  endfacet
  facet normal 5.219844e-002 0.000000e+000 0.000000e+000
    outer loop
      vertex   -6.500000e+001 2.287687e+002 -5.000000e-001
      vertex   -6.500000e+001 2.260174e+002 8.393279e-001
      vertex   -6.500000e+001 2.258708e+002 7.279506e-001
    endloop
  endfacet
  facet normal 3.901611e-001 0.000000e+000 0.000000e+000
    outer loop
      vertex   -6.500000e+001 2.287687e+002 -5.000000e-001
      vertex   -6.500000e+001 2.258708e+002 7.279506e-001
      vertex   -6.500000e+001 2.250000e+002 -5.000000e-001
    endloop
  endfacet
  facet normal 5.686956e-002 0.000000e+000 0.000000e+000
    outer loop
      vertex   -6.500000e+001 2.250000e+002 -5.000000e-001
      vertex   -6.500000e+001 2.258708e+002 7.279506e-001
      vertex   -6.500000e+001 2.257118e+002 6.353616e-001
    endloop
  endfacet
  facet normal 8.792443e-002 0.000000e+000 0.000000e+000
    outer loop
      vertex   -6.500000e+001 2.250000e+002 -5.000000e-001
      vertex   -6.500000e+001 2.257118e+002 6.353616e-001
      vertex   -6.500000e+001 2.255425e+002 5.629551e-001
    endloop
  endfacet
  facet normal 7.293429e-001 0.000000e+000 0.000000e+000
    outer loop
      vertex   -6.500000e+001 2.255425e+002 5.629551e-001
      vertex   -6.500000e+001 2.253657e+002 5.118214e-001
      vertex   -6.500000e+001 2.250000e+002 -5.000000e-001
    endloop
  endfacet
  facet normal 1.610842e-001 0.000000e+000 0.000000e+000
    outer loop
      vertex   -6.500000e+001 2.250000e+002 -5.000000e-001
      vertex   -6.500000e+001 2.253657e+002 5.118214e-001
      vertex   -6.500000e+001 2.251839e+002 4.827308e-001
    endloop
  endfacet
  facet normal 1.839819e-001 0.000000e+000 0.000000e+000
    outer loop
      vertex   -6.500000e+001 2.250000e+002 -5.000000e-001
      vertex   -6.500000e+001 2.251839e+002 4.827308e-001
      vertex   -6.500000e+001 2.250000e+002 4.761210e-001
    endloop
  endfacet
  facet normal -0.000000e+000 -1.000000e+000 -0.000000e+000
    outer loop
      vertex   -6.500000e+001 2.250000e+002 4.761210e-001
      vertex   -6.817391e+001 2.250000e+002 4.761210e-001
      vertex   -6.500000e+001 2.250000e+002 -5.000000e-001
    endloop
  endfacet
  facet normal 0.000000e+000 -2.939573e-001 0.000000e+000
    outer loop
      vertex   -6.500000e+001 2.250000e+002 -5.000000e-001
      vertex   -6.817391e+001 2.250000e+002 4.761210e-001
      vertex   -6.817391e+001 2.250000e+002 -5.000000e-001
    endloop
  endfacet
  facet normal 0.000000e+000 0.000000e+000 1.000000e+000
    outer loop
      vertex   -6.767391e+001 2.255000e+002 4.000000e+000
      vertex   -6.550000e+001 2.255000e+002 4.000000e+000
      vertex   -6.767391e+001 2.282034e+002 4.000000e+000
    endloop
  endfacet
  facet normal -0.000000e+000 0.000000e+000 8.775948e-001
    outer loop
      vertex   -6.767391e+001 2.282034e+002 4.000000e+000
      vertex   -6.550000e+001 2.255000e+002 4.000000e+000
      vertex   -6.550000e+001 2.285929e+002 4.000000e+000
    endloop
  endfacet
  facet normal 0.000000e+000 -0.000000e+000 9.780959e-001
    outer loop
      vertex   -6.767391e+001 2.282034e+002 4.000000e+000
      vertex   -6.550000e+001 2.285929e+002 4.000000e+000
      vertex   -7.023986e+001 2.345000e+002 4.000000e+000
    endloop
  endfacet
  facet normal 0.000000e+000 0.000000e+000 9.260575e-001
    outer loop
      vertex   -7.023986e+001 2.345000e+002 4.000000e+000
      vertex   -7.381404e+001 2.345000e+002 4.000000e+000
      vertex   -6.767391e+001 2.282034e+002 4.000000e+000
    endloop
  endfacet
  facet normal 0.000000e+000 0.000000e+000 -7.159448e-001
    outer loop
      vertex   -7.381404e+001 2.345000e+002 0.000000e+000
      vertex   -7.023986e+001 2.345000e+002 0.000000e+000
      vertex   -6.767391e+001 2.282034e+002 0.000000e+000
    endloop
  endfacet
  facet normal 0.000000e+000 0.000000e+000 -9.780959e-001
    outer loop
      vertex   -6.767391e+001 2.282034e+002 0.000000e+000
      vertex   -7.023986e+001 2.345000e+002 0.000000e+000
      vertex   -6.550000e+001 2.285929e+002 0.000000e+000
    endloop
  endfacet
  facet normal 0.000000e+000 0.000000e+000 -8.775948e-001
    outer loop
      vertex   -6.767391e+001 2.282034e+002 0.000000e+000
      vertex   -6.550000e+001 2.285929e+002 0.000000e+000
      vertex   -6.550000e+001 2.255000e+002 0.000000e+000
    endloop
  endfacet
  facet normal 0.000000e+000 0.000000e+000 -7.792960e-001
    outer loop
      vertex   -6.550000e+001 2.255000e+002 0.000000e+000
      vertex   -6.767391e+001 2.255000e+002 0.000000e+000
      vertex   -6.767391e+001 2.282034e+002 0.000000e+000
    endloop
  endfacet
endsolid
