solid ascii
  facet normal 7.071068e-001 0.000000e+000 7.071068e-001
    outer loop
      vertex   -6.400000e+001 2.610000e+002 6.000000e+000
      vertex   -6.500000e+001 2.610000e+002 7.000000e+000
      vertex   -6.400000e+001 2.600000e+002 6.000000e+000
    endloop
  endfacet
  facet normal 4.082483e-001 0.000000e+000 4.082483e-001
    outer loop
      vertex   -6.400000e+001 2.600000e+002 6.000000e+000
      vertex   -6.500000e+001 2.610000e+002 7.000000e+000
      vertex   -6.500000e+001 2.600000e+002 7.000000e+000
    endloop
  endfacet
  facet normal 0.000000e+000 7.071068e-001 0.000000e+000
    outer loop
      vertex   -6.500000e+001 2.610000e+002 7.000000e+000
      vertex   -6.400000e+001 2.610000e+002 6.000000e+000
      vertex   -6.500000e+001 2.610000e+002 0.000000e+000
    endloop
  endfacet
  facet normal 0.000000e+000 9.863939e-001 0.000000e+000
    outer loop
      vertex   -6.500000e+001 2.610000e+002 0.000000e+000
      vertex   -6.400000e+001 2.610000e+002 6.000000e+000
      vertex   -6.400000e+001 2.610000e+002 0.000000e+000
    endloop
  endfacet
  facet normal 7.071068e-001 0.000000e+000 7.071068e-001
    outer loop
      vertex   -6.400000e+001 2.550000e+002 6.000000e+000
      vertex   -6.500000e+001 2.550000e+002 7.000000e+000
      vertex   -6.400000e+001 2.540000e+002 6.000000e+000
    endloop
  endfacet
  facet normal 4.082483e-001 0.000000e+000 4.082483e-001
    outer loop
      vertex   -6.400000e+001 2.540000e+002 6.000000e+000
      vertex   -6.500000e+001 2.550000e+002 7.000000e+000
      vertex   -6.500000e+001 2.540000e+002 7.000000e+000
    endloop
  endfacet
  facet normal 0.000000e+000 7.071068e-001 0.000000e+000
    outer loop
      vertex   -6.500000e+001 2.550000e+002 7.000000e+000
      vertex   -6.400000e+001 2.550000e+002 6.000000e+000
      vertex   -6.500000e+001 2.550000e+002 0.000000e+000
    endloop
  endfacet
  facet normal 0.000000e+000 9.863939e-001 0.000000e+000
    outer loop
      vertex   -6.500000e+001 2.550000e+002 0.000000e+000
      vertex   -6.400000e+001 2.550000e+002 6.000000e+000
      vertex   -6.400000e+001 2.550000e+002 0.000000e+000
    endloop
  endfacet
  facet normal 1.000000e+000 0.000000e+000 0.000000e+000
    outer loop
      vertex   -6.400000e+001 2.610000e+002 6.000000e+000
      vertex   -6.400000e+001 2.600000e+002 6.000000e+000
      vertex   -6.400000e+001 2.610000e+002 0.000000e+000
    endloop
  endfacet
  facet normal 9.863939e-001 0.000000e+000 0.000000e+000
    outer loop
      vertex   -6.400000e+001 2.610000e+002 0.000000e+000
      vertex   -6.400000e+001 2.600000e+002 6.000000e+000
      vertex   -6.400000e+001 2.600000e+002 0.000000e+000
    endloop
  endfacet
  facet normal 0.000000e+000 -7.071068e-001 0.000000e+000
    outer loop
      vertex   -6.500000e+001 2.600000e+002 7.000000e+000
      vertex   -6.500000e+001 2.600000e+002 0.000000e+000
      vertex   -6.400000e+001 2.600000e+002 6.000000e+000
    endloop
  endfacet
  facet normal 0.000000e+000 -1.643990e-001 -0.000000e+000
    outer loop
      vertex   -6.400000e+001 2.600000e+002 6.000000e+000
      vertex   -6.500000e+001 2.600000e+002 0.000000e+000
      vertex   -6.400000e+001 2.600000e+002 0.000000e+000
    endloop
  endfacet
  facet normal 1.000000e+000 0.000000e+000 0.000000e+000
    outer loop
      vertex   -6.400000e+001 2.550000e+002 6.000000e+000
      vertex   -6.400000e+001 2.540000e+002 6.000000e+000
      vertex   -6.400000e+001 2.550000e+002 0.000000e+000
    endloop
  endfacet
  facet normal 9.863939e-001 0.000000e+000 0.000000e+000
    outer loop
      vertex   -6.400000e+001 2.550000e+002 0.000000e+000
      vertex   -6.400000e+001 2.540000e+002 6.000000e+000
      vertex   -6.400000e+001 2.540000e+002 0.000000e+000
    endloop
  endfacet
  facet normal 0.000000e+000 -7.071068e-001 0.000000e+000
    outer loop
      vertex   -6.500000e+001 2.540000e+002 7.000000e+000
      vertex   -6.500000e+001 2.540000e+002 0.000000e+000
      vertex   -6.400000e+001 2.540000e+002 6.000000e+000
    endloop
  endfacet
  facet normal 0.000000e+000 -1.643990e-001 -0.000000e+000
    outer loop
      vertex   -6.400000e+001 2.540000e+002 6.000000e+000
      vertex   -6.500000e+001 2.540000e+002 0.000000e+000
      vertex   -6.400000e+001 2.540000e+002 0.000000e+000
    endloop
  endfacet
  facet normal 1.000000e+000 0.000000e+000 0.000000e+000
    outer loop
      vertex   -6.500000e+001 2.550000e+002 0.000000e+000
      vertex   -6.500000e+001 2.600000e+002 0.000000e+000
      vertex   -6.500000e+001 2.550000e+002 7.000000e+000
    endloop
  endfacet
  facet normal 8.137335e-001 -0.000000e+000 0.000000e+000
    outer loop
      vertex   -6.500000e+001 2.550000e+002 7.000000e+000
      vertex   -6.500000e+001 2.600000e+002 0.000000e+000
      vertex   -6.500000e+001 2.600000e+002 7.000000e+000
    endloop
  endfacet
  facet normal 1.961161e-001 0.000000e+000 -0.000000e+000
    outer loop
      vertex   -6.500000e+001 2.550000e+002 7.000000e+000
      vertex   -6.500000e+001 2.600000e+002 7.000000e+000
      vertex   -6.500000e+001 2.500000e+002 8.000000e+000
    endloop
  endfacet
  facet normal 9.950372e-002 -0.000000e+000 0.000000e+000
    outer loop
      vertex   -6.500000e+001 2.500000e+002 8.000000e+000
      vertex   -6.500000e+001 2.600000e+002 7.000000e+000
      vertex   -6.500000e+001 2.650000e+002 8.000000e+000
    endloop
  endfacet
  facet normal 4.756515e-002 0.000000e+000 0.000000e+000
    outer loop
      vertex   -6.500000e+001 2.650000e+002 8.000000e+000
      vertex   -6.500000e+001 2.600000e+002 7.000000e+000
      vertex   -6.500000e+001 2.610000e+002 7.000000e+000
    endloop
  endfacet
  facet normal 9.701425e-001 0.000000e+000 0.000000e+000
    outer loop
      vertex   -6.500000e+001 2.650000e+002 8.000000e+000
      vertex   -6.500000e+001 2.610000e+002 7.000000e+000
      vertex   -6.500000e+001 2.650000e+002 0.000000e+000
    endloop
  endfacet
  facet normal 8.682432e-001 0.000000e+000 0.000000e+000
    outer loop
      vertex   -6.500000e+001 2.650000e+002 0.000000e+000
      vertex   -6.500000e+001 2.610000e+002 7.000000e+000
      vertex   -6.500000e+001 2.610000e+002 0.000000e+000
    endloop
  endfacet
  facet normal 1.961161e-001 0.000000e+000 0.000000e+000
    outer loop
      vertex   -6.500000e+001 2.550000e+002 7.000000e+000
      vertex   -6.500000e+001 2.500000e+002 8.000000e+000
      vertex   -6.500000e+001 2.540000e+002 7.000000e+000
    endloop
  endfacet
  facet normal 9.626510e-001 0.000000e+000 0.000000e+000
    outer loop
      vertex   -6.500000e+001 2.540000e+002 7.000000e+000
      vertex   -6.500000e+001 2.500000e+002 8.000000e+000
      vertex   -6.500000e+001 2.500000e+002 0.000000e+000
    endloop
  endfacet
  facet normal 4.961389e-001 0.000000e+000 0.000000e+000
    outer loop
      vertex   -6.500000e+001 2.540000e+002 7.000000e+000
      vertex   -6.500000e+001 2.500000e+002 0.000000e+000
      vertex   -6.500000e+001 2.540000e+002 0.000000e+000
    endloop
  endfacet
  facet normal -0.000000e+000 -0.000000e+000 -1.000000e+000
    outer loop
      vertex   -6.500000e+001 2.650000e+002 0.000000e+000
      vertex   -6.500000e+001 2.610000e+002 0.000000e+000
      vertex   -7.500000e+001 2.650000e+002 0.000000e+000
    endloop
  endfacet
  facet normal 0.000000e+000 0.000000e+000 -8.304548e-002
    outer loop
      vertex   -7.500000e+001 2.650000e+002 0.000000e+000
      vertex   -6.500000e+001 2.610000e+002 0.000000e+000
      vertex   -6.500000e+001 2.600000e+002 0.000000e+000
    endloop
  endfacet
  facet normal 0.000000e+000 0.000000e+000 -8.944272e-001
    outer loop
      vertex   -7.500000e+001 2.650000e+002 0.000000e+000
      vertex   -6.500000e+001 2.600000e+002 0.000000e+000
      vertex   -7.500000e+001 2.500000e+002 0.000000e+000
    endloop
  endfacet
  facet normal 0.000000e+000 0.000000e+000 -3.162278e-001
    outer loop
      vertex   -7.500000e+001 2.500000e+002 0.000000e+000
      vertex   -6.500000e+001 2.600000e+002 0.000000e+000
      vertex   -6.500000e+001 2.550000e+002 0.000000e+000
    endloop
  endfacet
  facet normal 0.000000e+000 0.000000e+000 -8.304548e-002
    outer loop
      vertex   -7.500000e+001 2.500000e+002 0.000000e+000
      vertex   -6.500000e+001 2.550000e+002 0.000000e+000
      vertex   -6.500000e+001 2.540000e+002 0.000000e+000
    endloop
  endfacet
  facet normal 0.000000e+000 0.000000e+000 -7.071068e-001
    outer loop
      vertex   -6.500000e+001 2.540000e+002 0.000000e+000
      vertex   -6.500000e+001 2.550000e+002 0.000000e+000
      vertex   -6.400000e+001 2.550000e+002 0.000000e+000
    endloop
  endfacet
  facet normal 0.000000e+000 0.000000e+000 -7.071068e-001
    outer loop
      vertex   -6.500000e+001 2.540000e+002 0.000000e+000
      vertex   -6.400000e+001 2.550000e+002 0.000000e+000
      vertex   -6.400000e+001 2.540000e+002 0.000000e+000
    endloop
  endfacet
  facet normal 0.000000e+000 0.000000e+000 -1.000000e+000
    outer loop
      vertex   -6.500000e+001 2.610000e+002 0.000000e+000
      vertex   -6.400000e+001 2.610000e+002 0.000000e+000
      vertex   -6.500000e+001 2.600000e+002 0.000000e+000
    endloop
  endfacet
  facet normal 0.000000e+000 0.000000e+000 -7.071068e-001
    outer loop
      vertex   -6.500000e+001 2.600000e+002 0.000000e+000
      vertex   -6.400000e+001 2.610000e+002 0.000000e+000
      vertex   -6.400000e+001 2.600000e+002 0.000000e+000
    endloop
  endfacet
  facet normal 0.000000e+000 -0.000000e+000 -9.284767e-001
    outer loop
      vertex   -6.500000e+001 2.540000e+002 0.000000e+000
      vertex   -6.500000e+001 2.500000e+002 0.000000e+000
      vertex   -7.500000e+001 2.500000e+002 0.000000e+000
    endloop
  endfacet
  facet normal 1.000000e+000 0.000000e+000 0.000000e+000
    outer loop
      vertex   -6.450000e+001 2.495000e+002 8.000000e+000
      vertex   -6.450000e+001 2.655000e+002 8.000000e+000
      vertex   -6.450000e+001 2.495000e+002 9.000000e+000
    endloop
  endfacet
  facet normal 6.237829e-002 -0.000000e+000 0.000000e+000
    outer loop
      vertex   -6.450000e+001 2.495000e+002 9.000000e+000
      vertex   -6.450000e+001 2.655000e+002 8.000000e+000
      vertex   -6.450000e+001 2.655000e+002 9.000000e+000
    endloop
  endfacet
  facet normal 0.000000e+000 0.000000e+000 -3.224129e-002
    outer loop
      vertex   -6.500000e+001 2.650000e+002 8.000000e+000
      vertex   -6.450000e+001 2.495000e+002 8.000000e+000
      vertex   -6.500000e+001 2.500000e+002 8.000000e+000
    endloop
  endfacet
  facet normal 0.000000e+000 -0.000000e+000 -7.399400e-001
    outer loop
      vertex   -6.500000e+001 2.500000e+002 8.000000e+000
      vertex   -6.450000e+001 2.495000e+002 8.000000e+000
      vertex   -7.550000e+001 2.495000e+002 8.000000e+000
    endloop
  endfacet
  facet normal -0.000000e+000 0.000000e+000 -4.756515e-002
    outer loop
      vertex   -6.500000e+001 2.500000e+002 8.000000e+000
      vertex   -7.550000e+001 2.495000e+002 8.000000e+000
      vertex   -7.500000e+001 2.500000e+002 8.000000e+000
    endloop
  endfacet
  facet normal -0.000000e+000 0.000000e+000 -7.071068e-001
    outer loop
      vertex   -7.500000e+001 2.500000e+002 8.000000e+000
      vertex   -7.550000e+001 2.495000e+002 8.000000e+000
      vertex   -7.500000e+001 2.650000e+002 8.000000e+000
    endloop
  endfacet
  facet normal -0.000000e+000 0.000000e+000 -7.295372e-001
    outer loop
      vertex   -7.500000e+001 2.650000e+002 8.000000e+000
      vertex   -7.550000e+001 2.495000e+002 8.000000e+000
      vertex   -7.550000e+001 2.655000e+002 8.000000e+000
    endloop
  endfacet
  facet normal 0.000000e+000 0.000000e+000 -7.399400e-001
    outer loop
      vertex   -7.500000e+001 2.650000e+002 8.000000e+000
      vertex   -7.550000e+001 2.655000e+002 8.000000e+000
      vertex   -6.450000e+001 2.655000e+002 8.000000e+000
    endloop
  endfacet
  facet normal 0.000000e+000 0.000000e+000 -3.224129e-002
    outer loop
      vertex   -6.450000e+001 2.495000e+002 8.000000e+000
      vertex   -6.500000e+001 2.650000e+002 8.000000e+000
      vertex   -6.450000e+001 2.655000e+002 8.000000e+000
    endloop
  endfacet
  facet normal 0.000000e+000 0.000000e+000 -6.726728e-001
    outer loop
      vertex   -6.450000e+001 2.655000e+002 8.000000e+000
      vertex   -6.500000e+001 2.650000e+002 8.000000e+000
      vertex   -7.500000e+001 2.650000e+002 8.000000e+000
    endloop
  endfacet
  facet normal 0.000000e+000 1.000000e+000 -0.000000e+000
    outer loop
      vertex   -6.500000e+001 2.650000e+002 0.000000e+000
      vertex   -7.500000e+001 2.650000e+002 0.000000e+000
      vertex   -6.500000e+001 2.650000e+002 8.000000e+000
    endloop
  endfacet
  facet normal 0.000000e+000 6.246951e-001 0.000000e+000
    outer loop
      vertex   -6.500000e+001 2.650000e+002 8.000000e+000
      vertex   -7.500000e+001 2.650000e+002 0.000000e+000
      vertex   -7.500000e+001 2.650000e+002 8.000000e+000
    endloop
  endfacet
  facet normal -1.000000e+000 0.000000e+000 0.000000e+000
    outer loop
      vertex   -7.500000e+001 2.650000e+002 0.000000e+000
      vertex   -7.500000e+001 2.500000e+002 0.000000e+000
      vertex   -7.500000e+001 2.650000e+002 8.000000e+000
    endloop
  endfacet
  facet normal -4.705882e-001 -0.000000e+000 0.000000e+000
    outer loop
      vertex   -7.500000e+001 2.650000e+002 8.000000e+000
      vertex   -7.500000e+001 2.500000e+002 0.000000e+000
      vertex   -7.500000e+001 2.500000e+002 8.000000e+000
    endloop
  endfacet
  facet normal 0.000000e+000 -1.000000e+000 0.000000e+000
    outer loop
      vertex   -7.500000e+001 2.500000e+002 0.000000e+000
      vertex   -6.500000e+001 2.500000e+002 0.000000e+000
      vertex   -7.500000e+001 2.500000e+002 8.000000e+000
    endloop
  endfacet
  facet normal 0.000000e+000 -6.246951e-001 0.000000e+000
    outer loop
      vertex   -7.500000e+001 2.500000e+002 8.000000e+000
      vertex   -6.500000e+001 2.500000e+002 0.000000e+000
      vertex   -6.500000e+001 2.500000e+002 8.000000e+000
    endloop
  endfacet
  facet normal 0.000000e+000 -1.000000e+000 0.000000e+000
    outer loop
      vertex   -7.550000e+001 2.495000e+002 8.000000e+000
      vertex   -6.450000e+001 2.495000e+002 8.000000e+000
      vertex   -7.550000e+001 2.495000e+002 9.000000e+000
    endloop
  endfacet
  facet normal 0.000000e+000 -9.053575e-002 0.000000e+000
    outer loop
      vertex   -7.550000e+001 2.495000e+002 9.000000e+000
      vertex   -6.450000e+001 2.495000e+002 8.000000e+000
      vertex   -6.450000e+001 2.495000e+002 9.000000e+000
    endloop
  endfacet
  facet normal -1.000000e+000 0.000000e+000 0.000000e+000
    outer loop
      vertex   -7.550000e+001 2.655000e+002 8.000000e+000
      vertex   -7.550000e+001 2.495000e+002 8.000000e+000
      vertex   -7.550000e+001 2.655000e+002 9.000000e+000
    endloop
  endfacet
  facet normal -6.237829e-002 -0.000000e+000 0.000000e+000
    outer loop
      vertex   -7.550000e+001 2.655000e+002 9.000000e+000
      vertex   -7.550000e+001 2.495000e+002 8.000000e+000
      vertex   -7.550000e+001 2.495000e+002 9.000000e+000
    endloop
  endfacet
  facet normal 0.000000e+000 1.000000e+000 -0.000000e+000
    outer loop
      vertex   -6.450000e+001 2.655000e+002 8.000000e+000
      vertex   -7.550000e+001 2.655000e+002 8.000000e+000
      vertex   -6.450000e+001 2.655000e+002 9.000000e+000
    endloop
  endfacet
  facet normal 0.000000e+000 9.053575e-002 0.000000e+000
    outer loop
      vertex   -6.450000e+001 2.655000e+002 9.000000e+000
      vertex   -7.550000e+001 2.655000e+002 8.000000e+000
      vertex   -7.550000e+001 2.655000e+002 9.000000e+000
    endloop
  endfacet
  facet normal 0.000000e+000 0.000000e+000 1.000000e+000
    outer loop
      vertex   -6.450000e+001 2.655000e+002 9.000000e+000
      vertex   -7.550000e+001 2.655000e+002 9.000000e+000
      vertex   -6.450000e+001 2.495000e+002 9.000000e+000
    endloop
  endfacet
  facet normal 0.000000e+000 0.000000e+000 8.240419e-001
    outer loop
      vertex   -6.450000e+001 2.495000e+002 9.000000e+000
      vertex   -7.550000e+001 2.655000e+002 9.000000e+000
      vertex   -7.550000e+001 2.495000e+002 9.000000e+000
    endloop
  endfacet
endsolid
