solid ascii
  facet normal 1.000000e+000 0.000000e+000 0.000000e+000
    outer loop
      vertex   -1.522143e+002 2.600000e+002 0.000000e+000
      vertex   -1.522143e+002 2.300000e+002 0.000000e+000
      vertex   -1.522143e+002 2.600000e+002 -2.000000e-001
    endloop
  endfacet
  facet normal 6.666519e-003 0.000000e+000 0.000000e+000
    outer loop
      vertex   -1.522143e+002 2.600000e+002 -2.000000e-001
      vertex   -1.522143e+002 2.300000e+002 0.000000e+000
      vertex   -1.522143e+002 2.300000e+002 -2.000000e-001
    endloop
  endfacet
  facet normal 9.999778e-001 0.000000e+000 -0.000000e+000
    outer loop
      vertex   -1.522143e+002 2.300000e+002 -2.000000e-001
      vertex   -1.522143e+002 2.300000e+002 0.000000e+000
      vertex   -1.522143e+002 2.000000e+002 0.000000e+000
    endloop
  endfacet
  facet normal 6.666519e-003 0.000000e+000 0.000000e+000
    outer loop
      vertex   -1.522143e+002 2.300000e+002 -2.000000e-001
      vertex   -1.522143e+002 2.000000e+002 0.000000e+000
      vertex   -1.522143e+002 2.000000e+002 -2.000000e-001
    endloop
  endfacet
  facet normal -1.000000e+000 0.000000e+000 0.000000e+000
    outer loop
      vertex   -1.516429e+002 2.000000e+002 0.000000e+000
      vertex   -1.516429e+002 2.300000e+002 0.000000e+000
      vertex   -1.516429e+002 2.000000e+002 -2.000000e-001
    endloop
  endfacet
  facet normal -6.666519e-003 0.000000e+000 0.000000e+000
    outer loop
      vertex   -1.516429e+002 2.000000e+002 -2.000000e-001
      vertex   -1.516429e+002 2.300000e+002 0.000000e+000
      vertex   -1.516429e+002 2.300000e+002 -2.000000e-001
    endloop
  endfacet
  facet normal -9.999778e-001 0.000000e+000 0.000000e+000
    outer loop
      vertex   -1.516429e+002 2.300000e+002 -2.000000e-001
      vertex   -1.516429e+002 2.300000e+002 0.000000e+000
      vertex   -1.516429e+002 2.600000e+002 0.000000e+000
    endloop
  endfacet
  facet normal -6.666519e-003 0.000000e+000 0.000000e+000
    outer loop
      vertex   -1.516429e+002 2.300000e+002 -2.000000e-001
      vertex   -1.516429e+002 2.600000e+002 0.000000e+000
      vertex   -1.516429e+002 2.600000e+002 -2.000000e-001
    endloop
  endfacet
  facet normal 0.000000e+000 -0.000000e+000 1.000000e+000
    outer loop
      vertex   -1.516429e+002 2.000000e+002 -2.000000e-001
      vertex   -1.516429e+002 2.300000e+002 -2.000000e-001
      vertex   -1.522143e+002 2.000000e+002 -2.000000e-001
    endloop
  endfacet
  facet normal 0.000000e+000 0.000000e+000 1.904409e-002
    outer loop
      vertex   -1.522143e+002 2.000000e+002 -2.000000e-001
      vertex   -1.516429e+002 2.300000e+002 -2.000000e-001
      vertex   -1.522143e+002 2.300000e+002 -2.000000e-001
    endloop
  endfacet
  facet normal 0.000000e+000 0.000000e+000 9.998186e-001
    outer loop
      vertex   -1.522143e+002 2.300000e+002 -2.000000e-001
      vertex   -1.516429e+002 2.300000e+002 -2.000000e-001
      vertex   -1.516429e+002 2.600000e+002 -2.000000e-001
    endloop
  endfacet
  facet normal 0.000000e+000 0.000000e+000 1.904409e-002
    outer loop
      vertex   -1.522143e+002 2.300000e+002 -2.000000e-001
      vertex   -1.516429e+002 2.600000e+002 -2.000000e-001
      vertex   -1.522143e+002 2.600000e+002 -2.000000e-001
    endloop
  endfacet
  facet normal 1.000000e+000 0.000000e+000 0.000000e+000
    outer loop
      vertex   -1.533571e+002 2.600000e+002 0.000000e+000
      vertex   -1.533571e+002 2.300000e+002 0.000000e+000
      vertex   -1.533571e+002 2.600000e+002 -2.000000e-001
    endloop
  endfacet
  facet normal 6.666519e-003 0.000000e+000 0.000000e+000
    outer loop
      vertex   -1.533571e+002 2.600000e+002 -2.000000e-001
      vertex   -1.533571e+002 2.300000e+002 0.000000e+000
      vertex   -1.533571e+002 2.300000e+002 -2.000000e-001
    endloop
  endfacet
  facet normal 9.999778e-001 0.000000e+000 -0.000000e+000
    outer loop
      vertex   -1.533571e+002 2.300000e+002 -2.000000e-001
      vertex   -1.533571e+002 2.300000e+002 0.000000e+000
      vertex   -1.533571e+002 2.000000e+002 0.000000e+000
    endloop
  endfacet
  facet normal 6.666519e-003 0.000000e+000 0.000000e+000
    outer loop
      vertex   -1.533571e+002 2.300000e+002 -2.000000e-001
      vertex   -1.533571e+002 2.000000e+002 0.000000e+000
      vertex   -1.533571e+002 2.000000e+002 -2.000000e-001
    endloop
  endfacet
  facet normal -1.000000e+000 0.000000e+000 0.000000e+000
    outer loop
      vertex   -1.527857e+002 2.000000e+002 0.000000e+000
      vertex   -1.527857e+002 2.300000e+002 0.000000e+000
      vertex   -1.527857e+002 2.000000e+002 -2.000000e-001
    endloop
  endfacet
  facet normal -6.666519e-003 0.000000e+000 0.000000e+000
    outer loop
      vertex   -1.527857e+002 2.000000e+002 -2.000000e-001
      vertex   -1.527857e+002 2.300000e+002 0.000000e+000
      vertex   -1.527857e+002 2.300000e+002 -2.000000e-001
    endloop
  endfacet
  facet normal -9.999778e-001 0.000000e+000 0.000000e+000
    outer loop
      vertex   -1.527857e+002 2.300000e+002 -2.000000e-001
      vertex   -1.527857e+002 2.300000e+002 0.000000e+000
      vertex   -1.527857e+002 2.600000e+002 0.000000e+000
    endloop
  endfacet
  facet normal -6.666519e-003 0.000000e+000 0.000000e+000
    outer loop
      vertex   -1.527857e+002 2.300000e+002 -2.000000e-001
      vertex   -1.527857e+002 2.600000e+002 0.000000e+000
      vertex   -1.527857e+002 2.600000e+002 -2.000000e-001
    endloop
  endfacet
  facet normal 0.000000e+000 -0.000000e+000 1.000000e+000
    outer loop
      vertex   -1.527857e+002 2.000000e+002 -2.000000e-001
      vertex   -1.527857e+002 2.300000e+002 -2.000000e-001
      vertex   -1.533571e+002 2.000000e+002 -2.000000e-001
    endloop
  endfacet
  facet normal 0.000000e+000 0.000000e+000 1.904409e-002
    outer loop
      vertex   -1.533571e+002 2.000000e+002 -2.000000e-001
      vertex   -1.527857e+002 2.300000e+002 -2.000000e-001
      vertex   -1.533571e+002 2.300000e+002 -2.000000e-001
    endloop
  endfacet
  facet normal 0.000000e+000 0.000000e+000 9.998186e-001
    outer loop
      vertex   -1.533571e+002 2.300000e+002 -2.000000e-001
      vertex   -1.527857e+002 2.300000e+002 -2.000000e-001
      vertex   -1.527857e+002 2.600000e+002 -2.000000e-001
    endloop
  endfacet
  facet normal 0.000000e+000 0.000000e+000 1.904409e-002
    outer loop
      vertex   -1.533571e+002 2.300000e+002 -2.000000e-001
      vertex   -1.527857e+002 2.600000e+002 -2.000000e-001
      vertex   -1.533571e+002 2.600000e+002 -2.000000e-001
    endloop
  endfacet
  facet normal 1.000000e+000 0.000000e+000 0.000000e+000
    outer loop
      vertex   -1.510714e+002 2.600000e+002 0.000000e+000
      vertex   -1.510714e+002 2.300000e+002 0.000000e+000
      vertex   -1.510714e+002 2.600000e+002 -2.000000e-001
    endloop
  endfacet
  facet normal 6.666519e-003 0.000000e+000 0.000000e+000
    outer loop
      vertex   -1.510714e+002 2.600000e+002 -2.000000e-001
      vertex   -1.510714e+002 2.300000e+002 0.000000e+000
      vertex   -1.510714e+002 2.300000e+002 -2.000000e-001
    endloop
  endfacet
  facet normal 9.999778e-001 0.000000e+000 -0.000000e+000
    outer loop
      vertex   -1.510714e+002 2.300000e+002 -2.000000e-001
      vertex   -1.510714e+002 2.300000e+002 0.000000e+000
      vertex   -1.510714e+002 2.000000e+002 0.000000e+000
    endloop
  endfacet
  facet normal 6.666519e-003 0.000000e+000 0.000000e+000
    outer loop
      vertex   -1.510714e+002 2.300000e+002 -2.000000e-001
      vertex   -1.510714e+002 2.000000e+002 0.000000e+000
      vertex   -1.510714e+002 2.000000e+002 -2.000000e-001
    endloop
  endfacet
  facet normal -1.000000e+000 0.000000e+000 0.000000e+000
    outer loop
      vertex   -1.505000e+002 2.000000e+002 0.000000e+000
      vertex   -1.505000e+002 2.300000e+002 0.000000e+000
      vertex   -1.505000e+002 2.000000e+002 -2.000000e-001
    endloop
  endfacet
  facet normal -6.666519e-003 0.000000e+000 0.000000e+000
    outer loop
      vertex   -1.505000e+002 2.000000e+002 -2.000000e-001
      vertex   -1.505000e+002 2.300000e+002 0.000000e+000
      vertex   -1.505000e+002 2.300000e+002 -2.000000e-001
    endloop
  endfacet
  facet normal -9.999778e-001 0.000000e+000 0.000000e+000
    outer loop
      vertex   -1.505000e+002 2.300000e+002 -2.000000e-001
      vertex   -1.505000e+002 2.300000e+002 0.000000e+000
      vertex   -1.505000e+002 2.600000e+002 0.000000e+000
    endloop
  endfacet
  facet normal -6.666519e-003 0.000000e+000 0.000000e+000
    outer loop
      vertex   -1.505000e+002 2.300000e+002 -2.000000e-001
      vertex   -1.505000e+002 2.600000e+002 0.000000e+000
      vertex   -1.505000e+002 2.600000e+002 -2.000000e-001
    endloop
  endfacet
  facet normal -0.000000e+000 0.000000e+000 1.000000e+000
    outer loop
      vertex   -1.510714e+002 2.600000e+002 -2.000000e-001
      vertex   -1.510714e+002 2.300000e+002 -2.000000e-001
      vertex   -1.505000e+002 2.600000e+002 -2.000000e-001
    endloop
  endfacet
  facet normal 0.000000e+000 0.000000e+000 1.904409e-002
    outer loop
      vertex   -1.505000e+002 2.600000e+002 -2.000000e-001
      vertex   -1.510714e+002 2.300000e+002 -2.000000e-001
      vertex   -1.505000e+002 2.300000e+002 -2.000000e-001
    endloop
  endfacet
  facet normal 0.000000e+000 0.000000e+000 9.998186e-001
    outer loop
      vertex   -1.505000e+002 2.300000e+002 -2.000000e-001
      vertex   -1.510714e+002 2.300000e+002 -2.000000e-001
      vertex   -1.510714e+002 2.000000e+002 -2.000000e-001
    endloop
  endfacet
  facet normal 0.000000e+000 0.000000e+000 1.904409e-002
    outer loop
      vertex   -1.505000e+002 2.300000e+002 -2.000000e-001
      vertex   -1.510714e+002 2.000000e+002 -2.000000e-001
      vertex   -1.505000e+002 2.000000e+002 -2.000000e-001
    endloop
  endfacet
  facet normal 1.000000e+000 0.000000e+000 0.000000e+000
    outer loop
      vertex   -1.545000e+002 2.600000e+002 0.000000e+000
      vertex   -1.545000e+002 2.300000e+002 0.000000e+000
      vertex   -1.545000e+002 2.600000e+002 -2.000000e-001
    endloop
  endfacet
  facet normal 6.666519e-003 0.000000e+000 0.000000e+000
    outer loop
      vertex   -1.545000e+002 2.600000e+002 -2.000000e-001
      vertex   -1.545000e+002 2.300000e+002 0.000000e+000
      vertex   -1.545000e+002 2.300000e+002 -2.000000e-001
    endloop
  endfacet
  facet normal 9.999778e-001 0.000000e+000 -0.000000e+000
    outer loop
      vertex   -1.545000e+002 2.300000e+002 -2.000000e-001
      vertex   -1.545000e+002 2.300000e+002 0.000000e+000
      vertex   -1.545000e+002 2.000000e+002 0.000000e+000
    endloop
  endfacet
  facet normal 6.666519e-003 0.000000e+000 0.000000e+000
    outer loop
      vertex   -1.545000e+002 2.300000e+002 -2.000000e-001
      vertex   -1.545000e+002 2.000000e+002 0.000000e+000
      vertex   -1.545000e+002 2.000000e+002 -2.000000e-001
    endloop
  endfacet
  facet normal -1.000000e+000 0.000000e+000 0.000000e+000
    outer loop
      vertex   -1.539286e+002 2.000000e+002 0.000000e+000
      vertex   -1.539286e+002 2.300000e+002 0.000000e+000
      vertex   -1.539286e+002 2.000000e+002 -2.000000e-001
    endloop
  endfacet
  facet normal -6.666519e-003 0.000000e+000 0.000000e+000
    outer loop
      vertex   -1.539286e+002 2.000000e+002 -2.000000e-001
      vertex   -1.539286e+002 2.300000e+002 0.000000e+000
      vertex   -1.539286e+002 2.300000e+002 -2.000000e-001
    endloop
  endfacet
  facet normal -9.999778e-001 0.000000e+000 0.000000e+000
    outer loop
      vertex   -1.539286e+002 2.300000e+002 -2.000000e-001
      vertex   -1.539286e+002 2.300000e+002 0.000000e+000
      vertex   -1.539286e+002 2.600000e+002 0.000000e+000
    endloop
  endfacet
  facet normal -6.666519e-003 0.000000e+000 0.000000e+000
    outer loop
      vertex   -1.539286e+002 2.300000e+002 -2.000000e-001
      vertex   -1.539286e+002 2.600000e+002 0.000000e+000
      vertex   -1.539286e+002 2.600000e+002 -2.000000e-001
    endloop
  endfacet
  facet normal 0.000000e+000 -0.000000e+000 1.000000e+000
    outer loop
      vertex   -1.539286e+002 2.000000e+002 -2.000000e-001
      vertex   -1.539286e+002 2.300000e+002 -2.000000e-001
      vertex   -1.545000e+002 2.000000e+002 -2.000000e-001
    endloop
  endfacet
  facet normal 0.000000e+000 0.000000e+000 1.904409e-002
    outer loop
      vertex   -1.545000e+002 2.000000e+002 -2.000000e-001
      vertex   -1.539286e+002 2.300000e+002 -2.000000e-001
      vertex   -1.545000e+002 2.300000e+002 -2.000000e-001
    endloop
  endfacet
  facet normal 0.000000e+000 0.000000e+000 9.998186e-001
    outer loop
      vertex   -1.545000e+002 2.300000e+002 -2.000000e-001
      vertex   -1.539286e+002 2.300000e+002 -2.000000e-001
      vertex   -1.539286e+002 2.600000e+002 -2.000000e-001
    endloop
  endfacet
  facet normal 0.000000e+000 0.000000e+000 1.904409e-002
    outer loop
      vertex   -1.545000e+002 2.300000e+002 -2.000000e-001
      vertex   -1.539286e+002 2.600000e+002 -2.000000e-001
      vertex   -1.545000e+002 2.600000e+002 -2.000000e-001
    endloop
  endfacet
  facet normal 0.000000e+000 -0.000000e+000 1.000000e+000
    outer loop
      vertex   -1.545000e+002 2.000000e+002 0.000000e+000
      vertex   -1.545000e+002 2.300000e+002 0.000000e+000
      vertex   -1.550000e+002 2.000000e+002 0.000000e+000
    endloop
  endfacet
  facet normal -2.312644e-018 3.854406e-020 1.666435e-002
    outer loop
      vertex   -1.550000e+002 2.000000e+002 0.000000e+000
      vertex   -1.545000e+002 2.300000e+002 0.000000e+000
      vertex   -1.550000e+002 2.300000e+002 -6.938894e-017
    endloop
  endfacet
  facet normal -1.387586e-016 0.000000e+000 9.998611e-001
    outer loop
      vertex   -1.550000e+002 2.300000e+002 -6.938894e-017
      vertex   -1.545000e+002 2.300000e+002 0.000000e+000
      vertex   -1.545000e+002 2.600000e+002 0.000000e+000
    endloop
  endfacet
  facet normal 0.000000e+000 -3.854406e-020 1.666435e-002
    outer loop
      vertex   -1.550000e+002 2.300000e+002 -6.938894e-017
      vertex   -1.545000e+002 2.600000e+002 0.000000e+000
      vertex   -1.550000e+002 2.600000e+002 0.000000e+000
    endloop
  endfacet
  facet normal -0.000000e+000 0.000000e+000 1.000000e+000
    outer loop
      vertex   -1.505000e+002 2.600000e+002 0.000000e+000
      vertex   -1.505000e+002 2.300000e+002 0.000000e+000
      vertex   -1.500000e+002 2.600000e+002 0.000000e+000
    endloop
  endfacet
  facet normal 0.000000e+000 0.000000e+000 1.666435e-002
    outer loop
      vertex   -1.500000e+002 2.600000e+002 0.000000e+000
      vertex   -1.505000e+002 2.300000e+002 0.000000e+000
      vertex   -1.500000e+002 2.300000e+002 0.000000e+000
    endloop
  endfacet
  facet normal 0.000000e+000 0.000000e+000 9.998611e-001
    outer loop
      vertex   -1.500000e+002 2.300000e+002 0.000000e+000
      vertex   -1.505000e+002 2.300000e+002 0.000000e+000
      vertex   -1.505000e+002 2.000000e+002 0.000000e+000
    endloop
  endfacet
  facet normal 0.000000e+000 0.000000e+000 1.666435e-002
    outer loop
      vertex   -1.500000e+002 2.300000e+002 0.000000e+000
      vertex   -1.505000e+002 2.000000e+002 0.000000e+000
      vertex   -1.500000e+002 2.000000e+002 0.000000e+000
    endloop
  endfacet
  facet normal 0.000000e+000 -0.000000e+000 1.000000e+000
    outer loop
      vertex   -1.533571e+002 2.000000e+002 0.000000e+000
      vertex   -1.533571e+002 2.300000e+002 0.000000e+000
      vertex   -1.539286e+002 2.000000e+002 0.000000e+000
    endloop
  endfacet
  facet normal 0.000000e+000 0.000000e+000 1.904409e-002
    outer loop
      vertex   -1.539286e+002 2.000000e+002 0.000000e+000
      vertex   -1.533571e+002 2.300000e+002 0.000000e+000
      vertex   -1.539286e+002 2.300000e+002 0.000000e+000
    endloop
  endfacet
  facet normal 0.000000e+000 0.000000e+000 9.998186e-001
    outer loop
      vertex   -1.539286e+002 2.300000e+002 0.000000e+000
      vertex   -1.533571e+002 2.300000e+002 0.000000e+000
      vertex   -1.533571e+002 2.600000e+002 0.000000e+000
    endloop
  endfacet
  facet normal 0.000000e+000 0.000000e+000 1.904409e-002
    outer loop
      vertex   -1.539286e+002 2.300000e+002 0.000000e+000
      vertex   -1.533571e+002 2.600000e+002 0.000000e+000
      vertex   -1.539286e+002 2.600000e+002 0.000000e+000
    endloop
  endfacet
  facet normal 0.000000e+000 -0.000000e+000 1.000000e+000
    outer loop
      vertex   -1.522143e+002 2.000000e+002 0.000000e+000
      vertex   -1.522143e+002 2.300000e+002 0.000000e+000
      vertex   -1.527857e+002 2.000000e+002 0.000000e+000
    endloop
  endfacet
  facet normal 0.000000e+000 0.000000e+000 1.904460e-002
    outer loop
      vertex   -1.527857e+002 2.000000e+002 0.000000e+000
      vertex   -1.522143e+002 2.300000e+002 0.000000e+000
      vertex   -1.527857e+002 2.300000e+002 0.000000e+000
    endloop
  endfacet
  facet normal 0.000000e+000 0.000000e+000 9.998186e-001
    outer loop
      vertex   -1.527857e+002 2.300000e+002 0.000000e+000
      vertex   -1.522143e+002 2.300000e+002 0.000000e+000
      vertex   -1.522143e+002 2.600000e+002 0.000000e+000
    endloop
  endfacet
  facet normal 0.000000e+000 0.000000e+000 1.904460e-002
    outer loop
      vertex   -1.527857e+002 2.300000e+002 0.000000e+000
      vertex   -1.522143e+002 2.600000e+002 0.000000e+000
      vertex   -1.527857e+002 2.600000e+002 0.000000e+000
    endloop
  endfacet
  facet normal -0.000000e+000 0.000000e+000 1.000000e+000
    outer loop
      vertex   -1.516429e+002 2.600000e+002 0.000000e+000
      vertex   -1.516429e+002 2.300000e+002 0.000000e+000
      vertex   -1.510714e+002 2.600000e+002 0.000000e+000
    endloop
  endfacet
  facet normal 0.000000e+000 0.000000e+000 1.904409e-002
    outer loop
      vertex   -1.510714e+002 2.600000e+002 0.000000e+000
      vertex   -1.516429e+002 2.300000e+002 0.000000e+000
      vertex   -1.510714e+002 2.300000e+002 0.000000e+000
    endloop
  endfacet
  facet normal 0.000000e+000 0.000000e+000 9.998186e-001
    outer loop
      vertex   -1.510714e+002 2.300000e+002 0.000000e+000
      vertex   -1.516429e+002 2.300000e+002 0.000000e+000
      vertex   -1.516429e+002 2.000000e+002 0.000000e+000
    endloop
  endfacet
  facet normal 0.000000e+000 0.000000e+000 1.904409e-002
    outer loop
      vertex   -1.510714e+002 2.300000e+002 0.000000e+000
      vertex   -1.516429e+002 2.000000e+002 0.000000e+000
      vertex   -1.510714e+002 2.000000e+002 0.000000e+000
    endloop
  endfacet
  facet normal -0.000000e+000 -1.000000e+000 -0.000000e+000
    outer loop
      vertex   -1.510714e+002 2.000000e+002 0.000000e+000
      vertex   -1.516429e+002 2.000000e+002 0.000000e+000
      vertex   -1.510714e+002 2.000000e+002 -2.000000e-001
    endloop
  endfacet
  facet normal 0.000000e+000 -3.303516e-001 0.000000e+000
    outer loop
      vertex   -1.510714e+002 2.000000e+002 -2.000000e-001
      vertex   -1.516429e+002 2.000000e+002 0.000000e+000
      vertex   -1.516429e+002 2.000000e+002 -2.000000e-001
    endloop
  endfacet
  facet normal -0.000000e+000 -9.759817e-001 -0.000000e+000
    outer loop
      vertex   -1.510714e+002 2.000000e+002 -2.000000e-001
      vertex   -1.516429e+002 2.000000e+002 -2.000000e-001
      vertex   -1.500000e+002 2.000000e+002 -5.000000e+000
    endloop
  endfacet
  facet normal 0.000000e+000 -9.461188e-001 0.000000e+000
    outer loop
      vertex   -1.500000e+002 2.000000e+002 -5.000000e+000
      vertex   -1.516429e+002 2.000000e+002 -2.000000e-001
      vertex   -1.530000e+002 2.000000e+002 -5.000000e+000
    endloop
  endfacet
  facet normal 0.000000e+000 -1.130517e-001 0.000000e+000
    outer loop
      vertex   -1.530000e+002 2.000000e+002 -5.000000e+000
      vertex   -1.516429e+002 2.000000e+002 -2.000000e-001
      vertex   -1.522143e+002 2.000000e+002 -2.000000e-001
    endloop
  endfacet
  facet normal 0.000000e+000 -1.173698e-001 0.000000e+000
    outer loop
      vertex   -1.530000e+002 2.000000e+002 -5.000000e+000
      vertex   -1.522143e+002 2.000000e+002 -2.000000e-001
      vertex   -1.527857e+002 2.000000e+002 -2.000000e-001
    endloop
  endfacet
  facet normal 0.000000e+000 -1.000000e+000 0.000000e+000
    outer loop
      vertex   -1.527857e+002 2.000000e+002 -2.000000e-001
      vertex   -1.522143e+002 2.000000e+002 -2.000000e-001
      vertex   -1.527857e+002 2.000000e+002 0.000000e+000
    endloop
  endfacet
  facet normal 0.000000e+000 -3.303437e-001 0.000000e+000
    outer loop
      vertex   -1.527857e+002 2.000000e+002 0.000000e+000
      vertex   -1.522143e+002 2.000000e+002 -2.000000e-001
      vertex   -1.522143e+002 2.000000e+002 0.000000e+000
    endloop
  endfacet
  facet normal -0.000000e+000 -9.990051e-001 0.000000e+000
    outer loop
      vertex   -1.527857e+002 2.000000e+002 -2.000000e-001
      vertex   -1.533571e+002 2.000000e+002 -2.000000e-001
      vertex   -1.530000e+002 2.000000e+002 -5.000000e+000
    endloop
  endfacet
  facet normal 0.000000e+000 -1.165580e-001 0.000000e+000
    outer loop
      vertex   -1.530000e+002 2.000000e+002 -5.000000e+000
      vertex   -1.533571e+002 2.000000e+002 -2.000000e-001
      vertex   -1.539286e+002 2.000000e+002 -2.000000e-001
    endloop
  endfacet
  facet normal 0.000000e+000 -1.115598e-001 0.000000e+000
    outer loop
      vertex   -1.530000e+002 2.000000e+002 -5.000000e+000
      vertex   -1.539286e+002 2.000000e+002 -2.000000e-001
      vertex   -1.545000e+002 2.000000e+002 -2.000000e-001
    endloop
  endfacet
  facet normal -0.000000e+000 -1.000000e+000 -0.000000e+000
    outer loop
      vertex   -1.533571e+002 2.000000e+002 0.000000e+000
      vertex   -1.539286e+002 2.000000e+002 0.000000e+000
      vertex   -1.533571e+002 2.000000e+002 -2.000000e-001
    endloop
  endfacet
  facet normal 0.000000e+000 -3.303516e-001 0.000000e+000
    outer loop
      vertex   -1.533571e+002 2.000000e+002 -2.000000e-001
      vertex   -1.539286e+002 2.000000e+002 0.000000e+000
      vertex   -1.539286e+002 2.000000e+002 -2.000000e-001
    endloop
  endfacet
  facet normal -0.000000e+000 -1.000000e+000 -0.000000e+000
    outer loop
      vertex   -1.545000e+002 2.000000e+002 0.000000e+000
      vertex   -1.550000e+002 2.000000e+002 0.000000e+000
      vertex   -1.545000e+002 2.000000e+002 -2.000000e-001
    endloop
  endfacet
  facet normal -0.000000e+000 -7.754359e-001 -0.000000e+000
    outer loop
      vertex   -1.545000e+002 2.000000e+002 -2.000000e-001
      vertex   -1.550000e+002 2.000000e+002 0.000000e+000
      vertex   -1.530000e+002 2.000000e+002 -5.000000e+000
    endloop
  endfacet
  facet normal 0.000000e+000 -9.759817e-001 0.000000e+000
    outer loop
      vertex   -1.510714e+002 2.000000e+002 -2.000000e-001
      vertex   -1.500000e+002 2.000000e+002 -5.000000e+000
      vertex   -1.505000e+002 2.000000e+002 -2.000000e-001
    endloop
  endfacet
  facet normal 0.000000e+000 -9.619583e-001 0.000000e+000
    outer loop
      vertex   -1.505000e+002 2.000000e+002 -2.000000e-001
      vertex   -1.500000e+002 2.000000e+002 -5.000000e+000
      vertex   -1.500000e+002 2.000000e+002 0.000000e+000
    endloop
  endfacet
  facet normal 0.000000e+000 -9.284767e-001 0.000000e+000
    outer loop
      vertex   -1.505000e+002 2.000000e+002 -2.000000e-001
      vertex   -1.500000e+002 2.000000e+002 0.000000e+000
      vertex   -1.505000e+002 2.000000e+002 0.000000e+000
    endloop
  endfacet
  facet normal -9.284767e-001 -8.590135e-019 -3.713907e-001
    outer loop
      vertex   -1.550000e+002 2.000000e+002 0.000000e+000
      vertex   -1.550000e+002 2.300000e+002 -6.938894e-017
      vertex   -1.530000e+002 2.000000e+002 -5.000000e+000
    endloop
  endfacet
  facet normal -1.640447e-001 0.000000e+000 -6.561787e-002
    outer loop
      vertex   -1.530000e+002 2.000000e+002 -5.000000e+000
      vertex   -1.550000e+002 2.300000e+002 -6.938894e-017
      vertex   -1.530000e+002 2.300000e+002 -5.000000e+000
    endloop
  endfacet
  facet normal -9.138700e-001 0.000000e+000 -3.655480e-001
    outer loop
      vertex   -1.530000e+002 2.300000e+002 -5.000000e+000
      vertex   -1.550000e+002 2.300000e+002 -6.938894e-017
      vertex   -1.550000e+002 2.600000e+002 0.000000e+000
    endloop
  endfacet
  facet normal -1.640447e-001 0.000000e+000 -6.561787e-002
    outer loop
      vertex   -1.530000e+002 2.300000e+002 -5.000000e+000
      vertex   -1.550000e+002 2.600000e+002 0.000000e+000
      vertex   -1.530000e+002 2.600000e+002 -5.000000e+000
    endloop
  endfacet
  facet normal 1.000000e+000 0.000000e+000 0.000000e+000
    outer loop
      vertex   -1.500000e+002 2.600000e+002 0.000000e+000
      vertex   -1.500000e+002 2.300000e+002 0.000000e+000
      vertex   -1.500000e+002 2.600000e+002 -5.000000e+000
    endloop
  endfacet
  facet normal 1.643990e-001 0.000000e+000 0.000000e+000
    outer loop
      vertex   -1.500000e+002 2.600000e+002 -5.000000e+000
      vertex   -1.500000e+002 2.300000e+002 0.000000e+000
      vertex   -1.500000e+002 2.300000e+002 -5.000000e+000
    endloop
  endfacet
  facet normal 9.863939e-001 0.000000e+000 -0.000000e+000
    outer loop
      vertex   -1.500000e+002 2.300000e+002 -5.000000e+000
      vertex   -1.500000e+002 2.300000e+002 0.000000e+000
      vertex   -1.500000e+002 2.000000e+002 0.000000e+000
    endloop
  endfacet
  facet normal 1.643990e-001 0.000000e+000 0.000000e+000
    outer loop
      vertex   -1.500000e+002 2.300000e+002 -5.000000e+000
      vertex   -1.500000e+002 2.000000e+002 0.000000e+000
      vertex   -1.500000e+002 2.000000e+002 -5.000000e+000
    endloop
  endfacet
  facet normal -0.000000e+000 1.000000e+000 0.000000e+000
    outer loop
      vertex   -1.516429e+002 2.600000e+002 0.000000e+000
      vertex   -1.510714e+002 2.600000e+002 0.000000e+000
      vertex   -1.516429e+002 2.600000e+002 -2.000000e-001
    endloop
  endfacet
  facet normal 0.000000e+000 3.303516e-001 0.000000e+000
    outer loop
      vertex   -1.516429e+002 2.600000e+002 -2.000000e-001
      vertex   -1.510714e+002 2.600000e+002 0.000000e+000
      vertex   -1.510714e+002 2.600000e+002 -2.000000e-001
    endloop
  endfacet
  facet normal -0.000000e+000 9.461188e-001 0.000000e+000
    outer loop
      vertex   -1.516429e+002 2.600000e+002 -2.000000e-001
      vertex   -1.510714e+002 2.600000e+002 -2.000000e-001
      vertex   -1.500000e+002 2.600000e+002 -5.000000e+000
    endloop
  endfacet
  facet normal 0.000000e+000 1.155626e-001 0.000000e+000
    outer loop
      vertex   -1.500000e+002 2.600000e+002 -5.000000e+000
      vertex   -1.510714e+002 2.600000e+002 -2.000000e-001
      vertex   -1.505000e+002 2.600000e+002 -2.000000e-001
    endloop
  endfacet
  facet normal 0.000000e+000 1.036061e-001 -0.000000e+000
    outer loop
      vertex   -1.500000e+002 2.600000e+002 -5.000000e+000
      vertex   -1.505000e+002 2.600000e+002 -2.000000e-001
      vertex   -1.500000e+002 2.600000e+002 0.000000e+000
    endloop
  endfacet
  facet normal 0.000000e+000 3.713907e-001 0.000000e+000
    outer loop
      vertex   -1.500000e+002 2.600000e+002 0.000000e+000
      vertex   -1.505000e+002 2.600000e+002 -2.000000e-001
      vertex   -1.505000e+002 2.600000e+002 0.000000e+000
    endloop
  endfacet
  facet normal 0.000000e+000 9.461188e-001 0.000000e+000
    outer loop
      vertex   -1.500000e+002 2.600000e+002 -5.000000e+000
      vertex   -1.530000e+002 2.600000e+002 -5.000000e+000
      vertex   -1.516429e+002 2.600000e+002 -2.000000e-001
    endloop
  endfacet
  facet normal 0.000000e+000 9.622766e-001 0.000000e+000
    outer loop
      vertex   -1.516429e+002 2.600000e+002 -2.000000e-001
      vertex   -1.530000e+002 2.600000e+002 -5.000000e+000
      vertex   -1.522143e+002 2.600000e+002 -2.000000e-001
    endloop
  endfacet
  facet normal 0.000000e+000 9.868659e-001 0.000000e+000
    outer loop
      vertex   -1.522143e+002 2.600000e+002 -2.000000e-001
      vertex   -1.530000e+002 2.600000e+002 -5.000000e+000
      vertex   -1.527857e+002 2.600000e+002 -2.000000e-001
    endloop
  endfacet
  facet normal 0.000000e+000 1.000000e+000 -0.000000e+000
    outer loop
      vertex   -1.522143e+002 2.600000e+002 -2.000000e-001
      vertex   -1.527857e+002 2.600000e+002 -2.000000e-001
      vertex   -1.522143e+002 2.600000e+002 0.000000e+000
    endloop
  endfacet
  facet normal 0.000000e+000 3.303437e-001 0.000000e+000
    outer loop
      vertex   -1.522143e+002 2.600000e+002 0.000000e+000
      vertex   -1.527857e+002 2.600000e+002 -2.000000e-001
      vertex   -1.527857e+002 2.600000e+002 0.000000e+000
    endloop
  endfacet
  facet normal 0.000000e+000 7.241379e-001 0.000000e+000
    outer loop
      vertex   -1.550000e+002 2.600000e+002 0.000000e+000
      vertex   -1.545000e+002 2.600000e+002 -2.000000e-001
      vertex   -1.530000e+002 2.600000e+002 -5.000000e+000
    endloop
  endfacet
  facet normal 0.000000e+000 1.115598e-001 0.000000e+000
    outer loop
      vertex   -1.530000e+002 2.600000e+002 -5.000000e+000
      vertex   -1.545000e+002 2.600000e+002 -2.000000e-001
      vertex   -1.539286e+002 2.600000e+002 -2.000000e-001
    endloop
  endfacet
  facet normal 0.000000e+000 1.165580e-001 0.000000e+000
    outer loop
      vertex   -1.530000e+002 2.600000e+002 -5.000000e+000
      vertex   -1.539286e+002 2.600000e+002 -2.000000e-001
      vertex   -1.533571e+002 2.600000e+002 -2.000000e-001
    endloop
  endfacet
  facet normal 0.000000e+000 1.000000e+000 -0.000000e+000
    outer loop
      vertex   -1.533571e+002 2.600000e+002 -2.000000e-001
      vertex   -1.539286e+002 2.600000e+002 -2.000000e-001
      vertex   -1.533571e+002 2.600000e+002 0.000000e+000
    endloop
  endfacet
  facet normal 0.000000e+000 3.303516e-001 0.000000e+000
    outer loop
      vertex   -1.533571e+002 2.600000e+002 0.000000e+000
      vertex   -1.539286e+002 2.600000e+002 -2.000000e-001
      vertex   -1.539286e+002 2.600000e+002 0.000000e+000
    endloop
  endfacet
  facet normal -0.000000e+000 3.713907e-001 0.000000e+000
    outer loop
      vertex   -1.550000e+002 2.600000e+002 0.000000e+000
      vertex   -1.545000e+002 2.600000e+002 0.000000e+000
      vertex   -1.545000e+002 2.600000e+002 -2.000000e-001
    endloop
  endfacet
  facet normal -0.000000e+000 9.972433e-001 0.000000e+000
    outer loop
      vertex   -1.533571e+002 2.600000e+002 -2.000000e-001
      vertex   -1.527857e+002 2.600000e+002 -2.000000e-001
      vertex   -1.530000e+002 2.600000e+002 -5.000000e+000
    endloop
  endfacet
  facet normal 0.000000e+000 0.000000e+000 -1.000000e+000
    outer loop
      vertex   -1.530000e+002 2.600000e+002 -5.000000e+000
      vertex   -1.500000e+002 2.600000e+002 -5.000000e+000
      vertex   -1.530000e+002 2.300000e+002 -5.000000e+000
    endloop
  endfacet
  facet normal 0.000000e+000 0.000000e+000 -9.950372e-001
    outer loop
      vertex   -1.530000e+002 2.300000e+002 -5.000000e+000
      vertex   -1.500000e+002 2.600000e+002 -5.000000e+000
      vertex   -1.500000e+002 2.300000e+002 -5.000000e+000
    endloop
  endfacet
  facet normal 0.000000e+000 0.000000e+000 -1.000000e+000
    outer loop
      vertex   -1.530000e+002 2.300000e+002 -5.000000e+000
      vertex   -1.500000e+002 2.300000e+002 -5.000000e+000
      vertex   -1.530000e+002 2.000000e+002 -5.000000e+000
    endloop
  endfacet
  facet normal 0.000000e+000 0.000000e+000 -9.950372e-001
    outer loop
      vertex   -1.530000e+002 2.000000e+002 -5.000000e+000
      vertex   -1.500000e+002 2.300000e+002 -5.000000e+000
      vertex   -1.500000e+002 2.000000e+002 -5.000000e+000
    endloop
  endfacet
endsolid
