solid ascii
  facet normal 1.000000e+000 0.000000e+000 0.000000e+000
    outer loop
      vertex   -1.745000e+002 7.788118e+001 4.500000e+000
      vertex   -1.745000e+002 8.000000e+001 4.500000e+000
      vertex   -1.745000e+002 7.788118e+001 4.800000e+000
    endloop
  endfacet
  facet normal 2.326160e-001 -0.000000e+000 0.000000e+000
    outer loop
      vertex   -1.745000e+002 7.788118e+001 4.800000e+000
      vertex   -1.745000e+002 8.000000e+001 4.500000e+000
      vertex   -1.745000e+002 8.000000e+001 5.000000e+000
    endloop
  endfacet
  facet normal 9.397434e-002 0.000000e+000 -0.000000e+000
    outer loop
      vertex   -1.745000e+002 7.788118e+001 4.800000e+000
      vertex   -1.745000e+002 8.000000e+001 5.000000e+000
      vertex   -1.745000e+002 7.715395e+001 4.800000e+000
    endloop
  endfacet
  facet normal 1.620270e-001 0.000000e+000 -0.000000e+000
    outer loop
      vertex   -1.745000e+002 7.715395e+001 4.800000e+000
      vertex   -1.745000e+002 8.000000e+001 5.000000e+000
      vertex   -1.745000e+002 7.500000e+001 5.000000e+000
    endloop
  endfacet
  facet normal 2.289273e-001 0.000000e+000 0.000000e+000
    outer loop
      vertex   -1.745000e+002 7.715395e+001 4.800000e+000
      vertex   -1.745000e+002 7.500000e+001 5.000000e+000
      vertex   -1.745000e+002 7.500000e+001 4.500000e+000
    endloop
  endfacet
  facet normal 1.379473e-001 0.000000e+000 0.000000e+000
    outer loop
      vertex   -1.745000e+002 7.500000e+001 4.500000e+000
      vertex   -1.745000e+002 7.715395e+001 4.500000e+000
      vertex   -1.745000e+002 7.715395e+001 4.800000e+000
    endloop
  endfacet
  facet normal -1.000000e+000 0.000000e+000 0.000000e+000
    outer loop
      vertex   -1.750000e+002 8.000000e+001 0.000000e+000
      vertex   -1.750000e+002 7.500000e+001 0.000000e+000
      vertex   -1.750000e+002 8.000000e+001 5.000000e+000
    endloop
  endfacet
  facet normal -7.071068e-001 -0.000000e+000 0.000000e+000
    outer loop
      vertex   -1.750000e+002 8.000000e+001 5.000000e+000
      vertex   -1.750000e+002 7.500000e+001 0.000000e+000
      vertex   -1.750000e+002 7.500000e+001 5.000000e+000
    endloop
  endfacet
  facet normal 0.000000e+000 0.000000e+000 1.000000e+000
    outer loop
      vertex   -1.750000e+002 7.500000e+001 5.000000e+000
      vertex   -1.745000e+002 7.500000e+001 5.000000e+000
      vertex   -1.750000e+002 8.000000e+001 5.000000e+000
    endloop
  endfacet
  facet normal -0.000000e+000 0.000000e+000 9.950372e-001
    outer loop
      vertex   -1.750000e+002 8.000000e+001 5.000000e+000
      vertex   -1.745000e+002 7.500000e+001 5.000000e+000
      vertex   -1.745000e+002 8.000000e+001 5.000000e+000
    endloop
  endfacet
  facet normal 0.000000e+000 -1.000000e+000 0.000000e+000
    outer loop
      vertex   -1.745000e+002 7.715395e+001 4.500000e+000
      vertex   -1.738454e+002 7.715395e+001 4.500000e+000
      vertex   -1.745000e+002 7.715395e+001 4.800000e+000
    endloop
  endfacet
  facet normal 0.000000e+000 -4.166011e-001 0.000000e+000
    outer loop
      vertex   -1.745000e+002 7.715395e+001 4.800000e+000
      vertex   -1.738454e+002 7.715395e+001 4.500000e+000
      vertex   -1.738454e+002 7.715395e+001 4.800000e+000
    endloop
  endfacet
  facet normal 0.000000e+000 1.000000e+000 -0.000000e+000
    outer loop
      vertex   -1.738454e+002 7.788118e+001 4.500000e+000
      vertex   -1.745000e+002 7.788118e+001 4.500000e+000
      vertex   -1.738454e+002 7.788118e+001 4.800000e+000
    endloop
  endfacet
  facet normal 0.000000e+000 4.166011e-001 0.000000e+000
    outer loop
      vertex   -1.738454e+002 7.788118e+001 4.800000e+000
      vertex   -1.745000e+002 7.788118e+001 4.500000e+000
      vertex   -1.745000e+002 7.788118e+001 4.800000e+000
    endloop
  endfacet
  facet normal 1.000000e+000 0.000000e+000 0.000000e+000
    outer loop
      vertex   -1.738454e+002 7.715395e+001 4.500000e+000
      vertex   -1.738454e+002 7.788118e+001 4.500000e+000
      vertex   -1.738454e+002 7.715395e+001 4.800000e+000
    endloop
  endfacet
  facet normal 3.813519e-001 -0.000000e+000 0.000000e+000
    outer loop
      vertex   -1.738454e+002 7.715395e+001 4.800000e+000
      vertex   -1.738454e+002 7.788118e+001 4.500000e+000
      vertex   -1.738454e+002 7.788118e+001 4.800000e+000
    endloop
  endfacet
  facet normal 0.000000e+000 0.000000e+000 1.000000e+000
    outer loop
      vertex   -1.745000e+002 7.715395e+001 4.800000e+000
      vertex   -1.738454e+002 7.715395e+001 4.800000e+000
      vertex   -1.745000e+002 7.788118e+001 4.800000e+000
    endloop
  endfacet
  facet normal -0.000000e+000 0.000000e+000 7.432209e-001
    outer loop
      vertex   -1.745000e+002 7.788118e+001 4.800000e+000
      vertex   -1.738454e+002 7.715395e+001 4.800000e+000
      vertex   -1.738454e+002 7.788118e+001 4.800000e+000
    endloop
  endfacet
  facet normal 0.000000e+000 1.000000e+000 0.000000e+000
    outer loop
      vertex   -1.725000e+002 8.000000e+001 4.500000e+000
      vertex   -1.725000e+002 8.000000e+001 0.000000e+000
      vertex   -1.745000e+002 8.000000e+001 4.500000e+000
    endloop
  endfacet
  facet normal 0.000000e+000 5.045680e-001 0.000000e+000
    outer loop
      vertex   -1.745000e+002 8.000000e+001 4.500000e+000
      vertex   -1.725000e+002 8.000000e+001 0.000000e+000
      vertex   -1.750000e+002 8.000000e+001 0.000000e+000
    endloop
  endfacet
  facet normal 0.000000e+000 7.808688e-001 0.000000e+000
    outer loop
      vertex   -1.745000e+002 8.000000e+001 4.500000e+000
      vertex   -1.750000e+002 8.000000e+001 0.000000e+000
      vertex   -1.750000e+002 8.000000e+001 5.000000e+000
    endloop
  endfacet
  facet normal -0.000000e+000 7.071068e-001 0.000000e+000
    outer loop
      vertex   -1.750000e+002 8.000000e+001 5.000000e+000
      vertex   -1.745000e+002 8.000000e+001 5.000000e+000
      vertex   -1.745000e+002 8.000000e+001 4.500000e+000
    endloop
  endfacet
  facet normal 1.000000e+000 0.000000e+000 0.000000e+000
    outer loop
      vertex   -1.725000e+002 7.500000e+001 0.000000e+000
      vertex   -1.725000e+002 8.000000e+001 0.000000e+000
      vertex   -1.725000e+002 7.500000e+001 4.500000e+000
    endloop
  endfacet
  facet normal 6.689647e-001 -0.000000e+000 0.000000e+000
    outer loop
      vertex   -1.725000e+002 7.500000e+001 4.500000e+000
      vertex   -1.725000e+002 8.000000e+001 0.000000e+000
      vertex   -1.725000e+002 8.000000e+001 4.500000e+000
    endloop
  endfacet
  facet normal 0.000000e+000 -7.071068e-001 0.000000e+000
    outer loop
      vertex   -1.750000e+002 7.500000e+001 5.000000e+000
      vertex   -1.750000e+002 7.500000e+001 0.000000e+000
      vertex   -1.745000e+002 7.500000e+001 4.500000e+000
    endloop
  endfacet
  facet normal 0.000000e+000 -5.045680e-001 -0.000000e+000
    outer loop
      vertex   -1.745000e+002 7.500000e+001 4.500000e+000
      vertex   -1.750000e+002 7.500000e+001 0.000000e+000
      vertex   -1.725000e+002 7.500000e+001 0.000000e+000
    endloop
  endfacet
  facet normal 0.000000e+000 -9.138116e-001 0.000000e+000
    outer loop
      vertex   -1.745000e+002 7.500000e+001 4.500000e+000
      vertex   -1.725000e+002 7.500000e+001 0.000000e+000
      vertex   -1.725000e+002 7.500000e+001 4.500000e+000
    endloop
  endfacet
  facet normal 0.000000e+000 -7.071068e-001 0.000000e+000
    outer loop
      vertex   -1.745000e+002 7.500000e+001 4.500000e+000
      vertex   -1.745000e+002 7.500000e+001 5.000000e+000
      vertex   -1.750000e+002 7.500000e+001 5.000000e+000
    endloop
  endfacet
  facet normal 0.000000e+000 0.000000e+000 1.000000e+000
    outer loop
      vertex   -1.745000e+002 7.788118e+001 4.500000e+000
      vertex   -1.738454e+002 7.788118e+001 4.500000e+000
      vertex   -1.745000e+002 8.000000e+001 4.500000e+000
    endloop
  endfacet
  facet normal -0.000000e+000 0.000000e+000 9.554358e-001
    outer loop
      vertex   -1.745000e+002 8.000000e+001 4.500000e+000
      vertex   -1.738454e+002 7.788118e+001 4.500000e+000
      vertex   -1.725000e+002 8.000000e+001 4.500000e+000
    endloop
  endfacet
  facet normal 0.000000e+000 0.000000e+000 1.238286e-001
    outer loop
      vertex   -1.725000e+002 8.000000e+001 4.500000e+000
      vertex   -1.738454e+002 7.788118e+001 4.500000e+000
      vertex   -1.738454e+002 7.715395e+001 4.500000e+000
    endloop
  endfacet
  facet normal 0.000000e+000 0.000000e+000 4.273662e-001
    outer loop
      vertex   -1.725000e+002 8.000000e+001 4.500000e+000
      vertex   -1.738454e+002 7.715395e+001 4.500000e+000
      vertex   -1.725000e+002 7.500000e+001 4.500000e+000
    endloop
  endfacet
  facet normal 0.000000e+000 0.000000e+000 8.481520e-001
    outer loop
      vertex   -1.725000e+002 7.500000e+001 4.500000e+000
      vertex   -1.738454e+002 7.715395e+001 4.500000e+000
      vertex   -1.745000e+002 7.500000e+001 4.500000e+000
    endloop
  endfacet
  facet normal 0.000000e+000 0.000000e+000 2.907944e-001
    outer loop
      vertex   -1.745000e+002 7.500000e+001 4.500000e+000
      vertex   -1.738454e+002 7.715395e+001 4.500000e+000
      vertex   -1.745000e+002 7.715395e+001 4.500000e+000
    endloop
  endfacet
  facet normal 0.000000e+000 0.000000e+000 -1.000000e+000
    outer loop
      vertex   -1.750000e+002 8.000000e+001 0.000000e+000
      vertex   -1.725000e+002 8.000000e+001 0.000000e+000
      vertex   -1.750000e+002 7.500000e+001 0.000000e+000
    endloop
  endfacet
  facet normal 0.000000e+000 0.000000e+000 -8.944272e-001
    outer loop
      vertex   -1.750000e+002 7.500000e+001 0.000000e+000
      vertex   -1.725000e+002 8.000000e+001 0.000000e+000
      vertex   -1.725000e+002 7.500000e+001 0.000000e+000
    endloop
  endfacet
endsolid
