solid ascii
  facet normal -1.000000e+000 0.000000e+000 0.000000e+000
    outer loop
      vertex   -1.218882e+002 9.141393e+001 1.500000e+000
      vertex   -1.218882e+002 9.281393e+001 1.500000e+000
      vertex   -1.218882e+002 9.141393e+001 1.200000e+000
    endloop
  endfacet
  facet normal -2.095288e-001 0.000000e+000 0.000000e+000
    outer loop
      vertex   -1.218882e+002 9.141393e+001 1.200000e+000
      vertex   -1.218882e+002 9.281393e+001 1.500000e+000
      vertex   -1.218882e+002 9.281393e+001 1.200000e+000
    endloop
  endfacet
  facet normal 0.000000e+000 0.000000e+000 -1.000000e+000
    outer loop
      vertex   -1.218882e+002 9.281393e+001 1.200000e+000
      vertex   -1.213882e+002 9.281393e+001 1.200000e+000
      vertex   -1.218882e+002 9.141393e+001 1.200000e+000
    endloop
  endfacet
  facet normal 0.000000e+000 0.000000e+000 -9.417420e-001
    outer loop
      vertex   -1.218882e+002 9.141393e+001 1.200000e+000
      vertex   -1.213882e+002 9.281393e+001 1.200000e+000
      vertex   -1.213882e+002 9.141393e+001 1.200000e+000
    endloop
  endfacet
  facet normal -1.000000e+000 0.000000e+000 0.000000e+000
    outer loop
      vertex   -1.218882e+002 8.736393e+001 1.500000e+000
      vertex   -1.218882e+002 8.876393e+001 1.500000e+000
      vertex   -1.218882e+002 8.736393e+001 1.200000e+000
    endloop
  endfacet
  facet normal -2.095288e-001 0.000000e+000 0.000000e+000
    outer loop
      vertex   -1.218882e+002 8.736393e+001 1.200000e+000
      vertex   -1.218882e+002 8.876393e+001 1.500000e+000
      vertex   -1.218882e+002 8.876393e+001 1.200000e+000
    endloop
  endfacet
  facet normal 0.000000e+000 0.000000e+000 -1.000000e+000
    outer loop
      vertex   -1.218882e+002 8.876393e+001 1.200000e+000
      vertex   -1.213882e+002 8.876393e+001 1.200000e+000
      vertex   -1.218882e+002 8.736393e+001 1.200000e+000
    endloop
  endfacet
  facet normal 0.000000e+000 0.000000e+000 -9.417420e-001
    outer loop
      vertex   -1.218882e+002 8.736393e+001 1.200000e+000
      vertex   -1.213882e+002 8.876393e+001 1.200000e+000
      vertex   -1.213882e+002 8.736393e+001 1.200000e+000
    endloop
  endfacet
  facet normal -1.000000e+000 0.000000e+000 0.000000e+000
    outer loop
      vertex   -1.218882e+002 8.381393e+001 1.500000e+000
      vertex   -1.218882e+002 8.521393e+001 1.500000e+000
      vertex   -1.218882e+002 8.381393e+001 1.200000e+000
    endloop
  endfacet
  facet normal -2.095299e-001 0.000000e+000 0.000000e+000
    outer loop
      vertex   -1.218882e+002 8.381393e+001 1.200000e+000
      vertex   -1.218882e+002 8.521393e+001 1.500000e+000
      vertex   -1.218882e+002 8.521393e+001 1.200000e+000
    endloop
  endfacet
  facet normal 0.000000e+000 0.000000e+000 -1.000000e+000
    outer loop
      vertex   -1.218882e+002 8.521393e+001 1.200000e+000
      vertex   -1.213882e+002 8.521393e+001 1.200000e+000
      vertex   -1.218882e+002 8.381393e+001 1.200000e+000
    endloop
  endfacet
  facet normal 0.000000e+000 0.000000e+000 -9.417415e-001
    outer loop
      vertex   -1.218882e+002 8.381393e+001 1.200000e+000
      vertex   -1.213882e+002 8.521393e+001 1.200000e+000
      vertex   -1.213882e+002 8.381393e+001 1.200000e+000
    endloop
  endfacet
  facet normal -0.000000e+000 -1.000000e+000 -0.000000e+000
    outer loop
      vertex   -1.230046e+002 8.803740e+001 1.500000e+000
      vertex   -1.237852e+002 8.803740e+001 1.500000e+000
      vertex   -1.230046e+002 8.803740e+001 1.300000e+000
    endloop
  endfacet
  facet normal 0.000000e+000 -2.482140e-001 0.000000e+000
    outer loop
      vertex   -1.230046e+002 8.803740e+001 1.300000e+000
      vertex   -1.237852e+002 8.803740e+001 1.500000e+000
      vertex   -1.237852e+002 8.803740e+001 1.300000e+000
    endloop
  endfacet
  facet normal 1.000000e+000 0.000000e+000 0.000000e+000
    outer loop
      vertex   -1.230046e+002 8.861369e+001 1.500000e+000
      vertex   -1.230046e+002 8.803740e+001 1.500000e+000
      vertex   -1.230046e+002 8.861369e+001 1.300000e+000
    endloop
  endfacet
  facet normal 3.278623e-001 0.000000e+000 0.000000e+000
    outer loop
      vertex   -1.230046e+002 8.861369e+001 1.300000e+000
      vertex   -1.230046e+002 8.803740e+001 1.500000e+000
      vertex   -1.230046e+002 8.803740e+001 1.300000e+000
    endloop
  endfacet
  facet normal 0.000000e+000 1.000000e+000 0.000000e+000
    outer loop
      vertex   -1.237852e+002 8.861369e+001 1.500000e+000
      vertex   -1.230046e+002 8.861369e+001 1.500000e+000
      vertex   -1.237852e+002 8.861369e+001 1.300000e+000
    endloop
  endfacet
  facet normal 0.000000e+000 2.482139e-001 0.000000e+000
    outer loop
      vertex   -1.237852e+002 8.861369e+001 1.300000e+000
      vertex   -1.230046e+002 8.861369e+001 1.500000e+000
      vertex   -1.230046e+002 8.861369e+001 1.300000e+000
    endloop
  endfacet
  facet normal 0.000000e+000 0.000000e+000 -1.000000e+000
    outer loop
      vertex   -1.237852e+002 8.861369e+001 1.300000e+000
      vertex   -1.230046e+002 8.861369e+001 1.300000e+000
      vertex   -1.237852e+002 8.803740e+001 1.300000e+000
    endloop
  endfacet
  facet normal 0.000000e+000 0.000000e+000 -5.939729e-001
    outer loop
      vertex   -1.237852e+002 8.803740e+001 1.300000e+000
      vertex   -1.230046e+002 8.861369e+001 1.300000e+000
      vertex   -1.230046e+002 8.803740e+001 1.300000e+000
    endloop
  endfacet
  facet normal 1.000000e+000 0.000000e+000 0.000000e+000
    outer loop
      vertex   -1.241110e+002 8.381393e+001 1.500000e+000
      vertex   -1.241110e+002 9.281393e+001 1.500000e+000
      vertex   -1.241110e+002 8.381393e+001 1.700000e+000
    endloop
  endfacet
  facet normal 2.221673e-002 -0.000000e+000 0.000000e+000
    outer loop
      vertex   -1.241110e+002 8.381393e+001 1.700000e+000
      vertex   -1.241110e+002 9.281393e+001 1.500000e+000
      vertex   -1.241110e+002 9.281393e+001 1.700000e+000
    endloop
  endfacet
  facet normal -1.000000e+000 0.000000e+000 0.000000e+000
    outer loop
      vertex   -1.237852e+002 8.381393e+001 1.500000e+000
      vertex   -1.237852e+002 8.381393e+001 1.700000e+000
      vertex   -1.237852e+002 8.803740e+001 1.500000e+000
    endloop
  endfacet
  facet normal -8.904791e-002 0.000000e+000 0.000000e+000
    outer loop
      vertex   -1.237852e+002 8.803740e+001 1.500000e+000
      vertex   -1.237852e+002 8.381393e+001 1.700000e+000
      vertex   -1.237852e+002 9.281393e+001 1.700000e+000
    endloop
  endfacet
  facet normal -4.183469e-002 0.000000e+000 0.000000e+000
    outer loop
      vertex   -1.237852e+002 8.803740e+001 1.500000e+000
      vertex   -1.237852e+002 9.281393e+001 1.700000e+000
      vertex   -1.237852e+002 8.861369e+001 1.500000e+000
    endloop
  endfacet
  facet normal -4.756241e-002 0.000000e+000 0.000000e+000
    outer loop
      vertex   -1.237852e+002 8.861369e+001 1.500000e+000
      vertex   -1.237852e+002 9.281393e+001 1.700000e+000
      vertex   -1.237852e+002 9.281393e+001 1.500000e+000
    endloop
  endfacet
  facet normal -1.000000e+000 0.000000e+000 0.000000e+000
    outer loop
      vertex   -1.237852e+002 8.861369e+001 1.300000e+000
      vertex   -1.237852e+002 8.803740e+001 1.300000e+000
      vertex   -1.237852e+002 8.861369e+001 1.500000e+000
    endloop
  endfacet
  facet normal -3.278624e-001 -0.000000e+000 0.000000e+000
    outer loop
      vertex   -1.237852e+002 8.861369e+001 1.500000e+000
      vertex   -1.237852e+002 8.803740e+001 1.300000e+000
      vertex   -1.237852e+002 8.803740e+001 1.500000e+000
    endloop
  endfacet
  facet normal -0.000000e+000 -0.000000e+000 -1.000000e+000
    outer loop
      vertex   -1.237852e+002 9.281393e+001 1.700000e+000
      vertex   -1.237852e+002 8.381393e+001 1.700000e+000
      vertex   -1.241110e+002 9.281393e+001 1.700000e+000
    endloop
  endfacet
  facet normal 0.000000e+000 0.000000e+000 -3.618370e-002
    outer loop
      vertex   -1.241110e+002 9.281393e+001 1.700000e+000
      vertex   -1.237852e+002 8.381393e+001 1.700000e+000
      vertex   -1.241110e+002 8.381393e+001 1.700000e+000
    endloop
  endfacet
  facet normal 0.000000e+000 0.000000e+000 -1.000000e+000
    outer loop
      vertex   -1.241110e+002 8.381393e+001 1.500000e+000
      vertex   -1.258882e+002 8.381393e+001 1.500000e+000
      vertex   -1.241110e+002 9.281393e+001 1.500000e+000
    endloop
  endfacet
  facet normal -0.000000e+000 0.000000e+000 -9.810570e-001
    outer loop
      vertex   -1.241110e+002 9.281393e+001 1.500000e+000
      vertex   -1.258882e+002 8.381393e+001 1.500000e+000
      vertex   -1.258882e+002 9.281393e+001 1.500000e+000
    endloop
  endfacet
  facet normal -6.178335e-008 1.642247e-008 -9.831679e-001
    outer loop
      vertex   -1.237852e+002 9.281393e+001 1.500000e+000
      vertex   -1.218882e+002 9.281393e+001 1.500000e+000
      vertex   -1.230046e+002 8.861369e+001 1.500000e+000
    endloop
  endfacet
  facet normal 0.000000e+000 0.000000e+000 -1.193003e-001
    outer loop
      vertex   -1.230046e+002 8.861369e+001 1.500000e+000
      vertex   -1.218882e+002 9.281393e+001 1.500000e+000
      vertex   -1.218882e+002 9.141393e+001 1.500000e+000
    endloop
  endfacet
  facet normal 0.000000e+000 0.000000e+000 -8.712031e-001
    outer loop
      vertex   -1.230046e+002 8.861369e+001 1.500000e+000
      vertex   -1.218882e+002 9.141393e+001 1.500000e+000
      vertex   -1.218882e+002 8.876393e+001 1.500000e+000
    endloop
  endfacet
  facet normal 0.000000e+000 0.000000e+000 -9.910670e-001
    outer loop
      vertex   -1.230046e+002 8.861369e+001 1.500000e+000
      vertex   -1.218882e+002 8.876393e+001 1.500000e+000
      vertex   -1.230046e+002 8.803740e+001 1.500000e+000
    endloop
  endfacet
  facet normal 0.000000e+000 0.000000e+000 -8.999637e-001
    outer loop
      vertex   -1.230046e+002 8.803740e+001 1.500000e+000
      vertex   -1.218882e+002 8.876393e+001 1.500000e+000
      vertex   -1.218882e+002 8.736393e+001 1.500000e+000
    endloop
  endfacet
  facet normal 0.000000e+000 0.000000e+000 -6.063482e-001
    outer loop
      vertex   -1.230046e+002 8.803740e+001 1.500000e+000
      vertex   -1.218882e+002 8.736393e+001 1.500000e+000
      vertex   -1.218882e+002 8.521393e+001 1.500000e+000
    endloop
  endfacet
  facet normal -0.000000e+000 -0.000000e+000 -3.677156e-001
    outer loop
      vertex   -1.218882e+002 8.521393e+001 1.500000e+000
      vertex   -1.218882e+002 8.381393e+001 1.500000e+000
      vertex   -1.230046e+002 8.803740e+001 1.500000e+000
    endloop
  endfacet
  facet normal -2.683374e-008 -7.093385e-009 -4.270093e-001
    outer loop
      vertex   -1.230046e+002 8.803740e+001 1.500000e+000
      vertex   -1.218882e+002 8.381393e+001 1.500000e+000
      vertex   -1.237852e+002 8.381393e+001 1.500000e+000
    endloop
  endfacet
  facet normal -1.501834e-007 3.308722e-024 -9.833479e-001
    outer loop
      vertex   -1.230046e+002 8.803740e+001 1.500000e+000
      vertex   -1.237852e+002 8.381393e+001 1.500000e+000
      vertex   -1.237852e+002 8.803740e+001 1.500000e+000
    endloop
  endfacet
  facet normal -1.501559e-007 0.000000e+000 -9.831679e-001
    outer loop
      vertex   -1.230046e+002 8.861369e+001 1.500000e+000
      vertex   -1.237852e+002 8.861369e+001 1.500000e+000
      vertex   -1.237852e+002 9.281393e+001 1.500000e+000
    endloop
  endfacet
  facet normal -0.000000e+000 1.000000e+000 0.000000e+000
    outer loop
      vertex   -1.237852e+002 9.281393e+001 1.500000e+000
      vertex   -1.237852e+002 9.281393e+001 1.700000e+000
      vertex   -1.218882e+002 9.281393e+001 1.500000e+000
    endloop
  endfacet
  facet normal 0.000000e+000 7.773486e-001 -0.000000e+000
    outer loop
      vertex   -1.218882e+002 9.281393e+001 1.500000e+000
      vertex   -1.237852e+002 9.281393e+001 1.700000e+000
      vertex   -1.213882e+002 9.281393e+001 2.000000e+000
    endloop
  endfacet
  facet normal -0.000000e+000 9.701425e-001 0.000000e+000
    outer loop
      vertex   -1.218882e+002 9.281393e+001 1.500000e+000
      vertex   -1.213882e+002 9.281393e+001 2.000000e+000
      vertex   -1.213882e+002 9.281393e+001 1.200000e+000
    endloop
  endfacet
  facet normal 0.000000e+000 1.241878e-001 0.000000e+000
    outer loop
      vertex   -1.213882e+002 9.281393e+001 2.000000e+000
      vertex   -1.237852e+002 9.281393e+001 1.700000e+000
      vertex   -1.258882e+002 9.281393e+001 2.000000e+000
    endloop
  endfacet
  facet normal 0.000000e+000 2.553430e-002 0.000000e+000
    outer loop
      vertex   -1.258882e+002 9.281393e+001 2.000000e+000
      vertex   -1.237852e+002 9.281393e+001 1.700000e+000
      vertex   -1.241110e+002 9.281393e+001 1.700000e+000
    endloop
  endfacet
  facet normal 0.000000e+000 9.860489e-001 0.000000e+000
    outer loop
      vertex   -1.258882e+002 9.281393e+001 2.000000e+000
      vertex   -1.241110e+002 9.281393e+001 1.700000e+000
      vertex   -1.258882e+002 9.281393e+001 1.500000e+000
    endloop
  endfacet
  facet normal 0.000000e+000 1.118345e-001 0.000000e+000
    outer loop
      vertex   -1.258882e+002 9.281393e+001 1.500000e+000
      vertex   -1.241110e+002 9.281393e+001 1.700000e+000
      vertex   -1.241110e+002 9.281393e+001 1.500000e+000
    endloop
  endfacet
  facet normal 0.000000e+000 5.144957e-001 0.000000e+000
    outer loop
      vertex   -1.213882e+002 9.281393e+001 1.200000e+000
      vertex   -1.218882e+002 9.281393e+001 1.200000e+000
      vertex   -1.218882e+002 9.281393e+001 1.500000e+000
    endloop
  endfacet
  facet normal -1.000000e+000 0.000000e+000 0.000000e+000
    outer loop
      vertex   -1.258882e+002 9.281393e+001 1.500000e+000
      vertex   -1.258882e+002 8.381393e+001 1.500000e+000
      vertex   -1.258882e+002 9.281393e+001 2.000000e+000
    endloop
  endfacet
  facet normal -5.547002e-002 -0.000000e+000 0.000000e+000
    outer loop
      vertex   -1.258882e+002 9.281393e+001 2.000000e+000
      vertex   -1.258882e+002 8.381393e+001 1.500000e+000
      vertex   -1.258882e+002 8.381393e+001 2.000000e+000
    endloop
  endfacet
  facet normal 0.000000e+000 -1.000000e+000 0.000000e+000
    outer loop
      vertex   -1.237852e+002 8.381393e+001 1.500000e+000
      vertex   -1.218882e+002 8.381393e+001 1.500000e+000
      vertex   -1.237852e+002 8.381393e+001 1.700000e+000
    endloop
  endfacet
  facet normal 0.000000e+000 -2.275404e-001 0.000000e+000
    outer loop
      vertex   -1.237852e+002 8.381393e+001 1.700000e+000
      vertex   -1.218882e+002 8.381393e+001 1.500000e+000
      vertex   -1.213882e+002 8.381393e+001 2.000000e+000
    endloop
  endfacet
  facet normal 0.000000e+000 -2.630733e-001 0.000000e+000
    outer loop
      vertex   -1.237852e+002 8.381393e+001 1.700000e+000
      vertex   -1.213882e+002 8.381393e+001 2.000000e+000
      vertex   -1.258882e+002 8.381393e+001 2.000000e+000
    endloop
  endfacet
  facet normal 0.000000e+000 -1.000000e+000 0.000000e+000
    outer loop
      vertex   -1.218882e+002 8.381393e+001 1.200000e+000
      vertex   -1.213882e+002 8.381393e+001 1.200000e+000
      vertex   -1.218882e+002 8.381393e+001 1.500000e+000
    endloop
  endfacet
  facet normal 0.000000e+000 -9.701425e-001 0.000000e+000
    outer loop
      vertex   -1.218882e+002 8.381393e+001 1.500000e+000
      vertex   -1.213882e+002 8.381393e+001 1.200000e+000
      vertex   -1.213882e+002 8.381393e+001 2.000000e+000
    endloop
  endfacet
  facet normal 0.000000e+000 -1.412234e-001 0.000000e+000
    outer loop
      vertex   -1.237852e+002 8.381393e+001 1.700000e+000
      vertex   -1.258882e+002 8.381393e+001 2.000000e+000
      vertex   -1.241110e+002 8.381393e+001 1.700000e+000
    endloop
  endfacet
  facet normal -0.000000e+000 -2.756858e-001 0.000000e+000
    outer loop
      vertex   -1.241110e+002 8.381393e+001 1.700000e+000
      vertex   -1.258882e+002 8.381393e+001 2.000000e+000
      vertex   -1.258882e+002 8.381393e+001 1.500000e+000
    endloop
  endfacet
  facet normal 0.000000e+000 -9.937268e-001 -0.000000e+000
    outer loop
      vertex   -1.241110e+002 8.381393e+001 1.700000e+000
      vertex   -1.258882e+002 8.381393e+001 1.500000e+000
      vertex   -1.241110e+002 8.381393e+001 1.500000e+000
    endloop
  endfacet
  facet normal 0.000000e+000 0.000000e+000 -7.071068e-001
    outer loop
      vertex   -1.263882e+002 9.331393e+001 2.000000e+000
      vertex   -1.258882e+002 9.281393e+001 2.000000e+000
      vertex   -1.263882e+002 8.331393e+001 2.000000e+000
    endloop
  endfacet
  facet normal 0.000000e+000 0.000000e+000 -6.689647e-001
    outer loop
      vertex   -1.263882e+002 8.331393e+001 2.000000e+000
      vertex   -1.258882e+002 9.281393e+001 2.000000e+000
      vertex   -1.258882e+002 8.381393e+001 2.000000e+000
    endloop
  endfacet
  facet normal -1.685874e-008 1.685874e-008 -7.071068e-001
    outer loop
      vertex   -1.263882e+002 8.331393e+001 2.000000e+000
      vertex   -1.258882e+002 8.381393e+001 2.000000e+000
      vertex   -1.213882e+002 8.331393e+001 2.000000e+000
    endloop
  endfacet
  facet normal -2.632893e-008 0.000000e+000 -9.938837e-001
    outer loop
      vertex   -1.213882e+002 8.331393e+001 2.000000e+000
      vertex   -1.258882e+002 8.381393e+001 2.000000e+000
      vertex   -1.213882e+002 8.381393e+001 2.000000e+000
    endloop
  endfacet
  facet normal -1.685874e-008 -1.685874e-008 -7.071068e-001
    outer loop
      vertex   -1.263882e+002 9.331393e+001 2.000000e+000
      vertex   -1.213882e+002 9.331393e+001 2.000000e+000
      vertex   -1.258882e+002 9.281393e+001 2.000000e+000
    endloop
  endfacet
  facet normal -2.925436e-009 3.308722e-024 -1.104315e-001
    outer loop
      vertex   -1.258882e+002 9.281393e+001 2.000000e+000
      vertex   -1.213882e+002 9.331393e+001 2.000000e+000
      vertex   -1.213882e+002 9.281393e+001 2.000000e+000
    endloop
  endfacet
  facet normal -0.000000e+000 1.000000e+000 0.000000e+000
    outer loop
      vertex   -1.218882e+002 8.876393e+001 2.000000e+000
      vertex   -1.213882e+002 8.876393e+001 2.000000e+000
      vertex   -1.218882e+002 8.876393e+001 1.500000e+000
    endloop
  endfacet
  facet normal -0.000000e+000 9.701425e-001 0.000000e+000
    outer loop
      vertex   -1.218882e+002 8.876393e+001 1.500000e+000
      vertex   -1.213882e+002 8.876393e+001 2.000000e+000
      vertex   -1.213882e+002 8.876393e+001 1.200000e+000
    endloop
  endfacet
  facet normal 0.000000e+000 8.574930e-001 0.000000e+000
    outer loop
      vertex   -1.218882e+002 8.876393e+001 1.500000e+000
      vertex   -1.213882e+002 8.876393e+001 1.200000e+000
      vertex   -1.218882e+002 8.876393e+001 1.200000e+000
    endloop
  endfacet
  facet normal 1.000000e+000 0.000000e+000 0.000000e+000
    outer loop
      vertex   -1.218882e+002 8.876393e+001 1.500000e+000
      vertex   -1.218882e+002 9.141393e+001 1.500000e+000
      vertex   -1.218882e+002 8.876393e+001 2.000000e+000
    endloop
  endfacet
  facet normal 1.854078e-001 -0.000000e+000 0.000000e+000
    outer loop
      vertex   -1.218882e+002 8.876393e+001 2.000000e+000
      vertex   -1.218882e+002 9.141393e+001 1.500000e+000
      vertex   -1.218882e+002 9.141393e+001 2.000000e+000
    endloop
  endfacet
  facet normal 0.000000e+000 -1.000000e+000 0.000000e+000
    outer loop
      vertex   -1.218882e+002 9.141393e+001 1.200000e+000
      vertex   -1.213882e+002 9.141393e+001 1.200000e+000
      vertex   -1.218882e+002 9.141393e+001 1.500000e+000
    endloop
  endfacet
  facet normal 0.000000e+000 -9.701425e-001 0.000000e+000
    outer loop
      vertex   -1.218882e+002 9.141393e+001 1.500000e+000
      vertex   -1.213882e+002 9.141393e+001 1.200000e+000
      vertex   -1.213882e+002 9.141393e+001 2.000000e+000
    endloop
  endfacet
  facet normal 0.000000e+000 -7.071068e-001 0.000000e+000
    outer loop
      vertex   -1.218882e+002 9.141393e+001 1.500000e+000
      vertex   -1.213882e+002 9.141393e+001 2.000000e+000
      vertex   -1.218882e+002 9.141393e+001 2.000000e+000
    endloop
  endfacet
  facet normal 0.000000e+000 0.000000e+000 -1.000000e+000
    outer loop
      vertex   -1.218882e+002 9.141393e+001 2.000000e+000
      vertex   -1.213882e+002 9.141393e+001 2.000000e+000
      vertex   -1.218882e+002 8.876393e+001 2.000000e+000
    endloop
  endfacet
  facet normal 0.000000e+000 0.000000e+000 -9.826617e-001
    outer loop
      vertex   -1.218882e+002 8.876393e+001 2.000000e+000
      vertex   -1.213882e+002 9.141393e+001 2.000000e+000
      vertex   -1.213882e+002 8.876393e+001 2.000000e+000
    endloop
  endfacet
  facet normal -0.000000e+000 1.000000e+000 0.000000e+000
    outer loop
      vertex   -1.218882e+002 8.521393e+001 2.000000e+000
      vertex   -1.213882e+002 8.521393e+001 2.000000e+000
      vertex   -1.218882e+002 8.521393e+001 1.500000e+000
    endloop
  endfacet
  facet normal -0.000000e+000 9.701425e-001 0.000000e+000
    outer loop
      vertex   -1.218882e+002 8.521393e+001 1.500000e+000
      vertex   -1.213882e+002 8.521393e+001 2.000000e+000
      vertex   -1.213882e+002 8.521393e+001 1.200000e+000
    endloop
  endfacet
  facet normal 0.000000e+000 8.574930e-001 0.000000e+000
    outer loop
      vertex   -1.218882e+002 8.521393e+001 1.500000e+000
      vertex   -1.213882e+002 8.521393e+001 1.200000e+000
      vertex   -1.218882e+002 8.521393e+001 1.200000e+000
    endloop
  endfacet
  facet normal 1.000000e+000 0.000000e+000 0.000000e+000
    outer loop
      vertex   -1.218882e+002 8.521393e+001 1.500000e+000
      vertex   -1.218882e+002 8.736393e+001 1.500000e+000
      vertex   -1.218882e+002 8.521393e+001 2.000000e+000
    endloop
  endfacet
  facet normal 2.265133e-001 -0.000000e+000 0.000000e+000
    outer loop
      vertex   -1.218882e+002 8.521393e+001 2.000000e+000
      vertex   -1.218882e+002 8.736393e+001 1.500000e+000
      vertex   -1.218882e+002 8.736393e+001 2.000000e+000
    endloop
  endfacet
  facet normal 0.000000e+000 -1.000000e+000 0.000000e+000
    outer loop
      vertex   -1.218882e+002 8.736393e+001 1.200000e+000
      vertex   -1.213882e+002 8.736393e+001 1.200000e+000
      vertex   -1.218882e+002 8.736393e+001 1.500000e+000
    endloop
  endfacet
  facet normal 0.000000e+000 -9.701425e-001 0.000000e+000
    outer loop
      vertex   -1.218882e+002 8.736393e+001 1.500000e+000
      vertex   -1.213882e+002 8.736393e+001 1.200000e+000
      vertex   -1.213882e+002 8.736393e+001 2.000000e+000
    endloop
  endfacet
  facet normal 0.000000e+000 -7.071068e-001 0.000000e+000
    outer loop
      vertex   -1.218882e+002 8.736393e+001 1.500000e+000
      vertex   -1.213882e+002 8.736393e+001 2.000000e+000
      vertex   -1.218882e+002 8.736393e+001 2.000000e+000
    endloop
  endfacet
  facet normal 0.000000e+000 0.000000e+000 -1.000000e+000
    outer loop
      vertex   -1.218882e+002 8.736393e+001 2.000000e+000
      vertex   -1.213882e+002 8.736393e+001 2.000000e+000
      vertex   -1.218882e+002 8.521393e+001 2.000000e+000
    endloop
  endfacet
  facet normal 0.000000e+000 0.000000e+000 -9.740081e-001
    outer loop
      vertex   -1.218882e+002 8.521393e+001 2.000000e+000
      vertex   -1.213882e+002 8.736393e+001 2.000000e+000
      vertex   -1.213882e+002 8.521393e+001 2.000000e+000
    endloop
  endfacet
  facet normal 0.000000e+000 1.000000e+000 -0.000000e+000
    outer loop
      vertex   -1.213882e+002 9.331393e+001 2.000000e+000
      vertex   -1.263882e+002 9.331393e+001 2.000000e+000
      vertex   -1.213882e+002 9.331393e+001 8.500000e+000
    endloop
  endfacet
  facet normal 0.000000e+000 7.926240e-001 0.000000e+000
    outer loop
      vertex   -1.213882e+002 9.331393e+001 8.500000e+000
      vertex   -1.263882e+002 9.331393e+001 2.000000e+000
      vertex   -1.263882e+002 9.331393e+001 8.500000e+000
    endloop
  endfacet
  facet normal -1.000000e+000 0.000000e+000 0.000000e+000
    outer loop
      vertex   -1.263882e+002 9.331393e+001 2.000000e+000
      vertex   -1.263882e+002 8.331393e+001 2.000000e+000
      vertex   -1.263882e+002 9.331393e+001 8.500000e+000
    endloop
  endfacet
  facet normal -5.449883e-001 -0.000000e+000 0.000000e+000
    outer loop
      vertex   -1.263882e+002 9.331393e+001 8.500000e+000
      vertex   -1.263882e+002 8.331393e+001 2.000000e+000
      vertex   -1.263882e+002 8.331393e+001 8.500000e+000
    endloop
  endfacet
  facet normal 1.000000e+000 0.000000e+000 0.000000e+000
    outer loop
      vertex   -1.213882e+002 9.141393e+001 1.200000e+000
      vertex   -1.213882e+002 9.281393e+001 1.200000e+000
      vertex   -1.213882e+002 9.141393e+001 2.000000e+000
    endloop
  endfacet
  facet normal 4.961385e-001 -0.000000e+000 0.000000e+000
    outer loop
      vertex   -1.213882e+002 9.141393e+001 2.000000e+000
      vertex   -1.213882e+002 9.281393e+001 1.200000e+000
      vertex   -1.213882e+002 9.281393e+001 2.000000e+000
    endloop
  endfacet
  facet normal 9.598344e-001 0.000000e+000 0.000000e+000
    outer loop
      vertex   -1.213882e+002 9.141393e+001 2.000000e+000
      vertex   -1.213882e+002 9.281393e+001 2.000000e+000
      vertex   -1.213882e+002 9.331393e+001 8.500000e+000
    endloop
  endfacet
  facet normal 7.669650e-002 0.000000e+000 0.000000e+000
    outer loop
      vertex   -1.213882e+002 9.331393e+001 8.500000e+000
      vertex   -1.213882e+002 9.281393e+001 2.000000e+000
      vertex   -1.213882e+002 9.331393e+001 2.000000e+000
    endloop
  endfacet
  facet normal 9.598344e-001 0.000000e+000 -0.000000e+000
    outer loop
      vertex   -1.213882e+002 9.141393e+001 2.000000e+000
      vertex   -1.213882e+002 9.331393e+001 8.500000e+000
      vertex   -1.213882e+002 8.876393e+001 2.000000e+000
    endloop
  endfacet
  facet normal 9.657927e-001 0.000000e+000 -0.000000e+000
    outer loop
      vertex   -1.213882e+002 8.876393e+001 2.000000e+000
      vertex   -1.213882e+002 9.331393e+001 8.500000e+000
      vertex   -1.213882e+002 8.331393e+001 8.500000e+000
    endloop
  endfacet
  facet normal 7.662854e-001 0.000000e+000 0.000000e+000
    outer loop
      vertex   -1.213882e+002 8.876393e+001 2.000000e+000
      vertex   -1.213882e+002 8.331393e+001 8.500000e+000
      vertex   -1.213882e+002 8.736393e+001 2.000000e+000
    endloop
  endfacet
  facet normal 8.487313e-001 0.000000e+000 0.000000e+000
    outer loop
      vertex   -1.213882e+002 8.736393e+001 2.000000e+000
      vertex   -1.213882e+002 8.331393e+001 8.500000e+000
      vertex   -1.213882e+002 8.521393e+001 2.000000e+000
    endloop
  endfacet
  facet normal 9.598347e-001 0.000000e+000 0.000000e+000
    outer loop
      vertex   -1.213882e+002 8.521393e+001 2.000000e+000
      vertex   -1.213882e+002 8.331393e+001 8.500000e+000
      vertex   -1.213882e+002 8.381393e+001 2.000000e+000
    endloop
  endfacet
  facet normal 1.000000e+000 0.000000e+000 0.000000e+000
    outer loop
      vertex   -1.213882e+002 8.521393e+001 2.000000e+000
      vertex   -1.213882e+002 8.381393e+001 2.000000e+000
      vertex   -1.213882e+002 8.521393e+001 1.200000e+000
    endloop
  endfacet
  facet normal 4.961405e-001 0.000000e+000 0.000000e+000
    outer loop
      vertex   -1.213882e+002 8.521393e+001 1.200000e+000
      vertex   -1.213882e+002 8.381393e+001 2.000000e+000
      vertex   -1.213882e+002 8.381393e+001 1.200000e+000
    endloop
  endfacet
  facet normal 7.669650e-002 0.000000e+000 0.000000e+000
    outer loop
      vertex   -1.213882e+002 8.331393e+001 8.500000e+000
      vertex   -1.213882e+002 8.331393e+001 2.000000e+000
      vertex   -1.213882e+002 8.381393e+001 2.000000e+000
    endloop
  endfacet
  facet normal 1.000000e+000 0.000000e+000 0.000000e+000
    outer loop
      vertex   -1.213882e+002 8.736393e+001 1.200000e+000
      vertex   -1.213882e+002 8.876393e+001 1.200000e+000
      vertex   -1.213882e+002 8.736393e+001 2.000000e+000
    endloop
  endfacet
  facet normal 4.961385e-001 -0.000000e+000 0.000000e+000
    outer loop
      vertex   -1.213882e+002 8.736393e+001 2.000000e+000
      vertex   -1.213882e+002 8.876393e+001 1.200000e+000
      vertex   -1.213882e+002 8.876393e+001 2.000000e+000
    endloop
  endfacet
  facet normal 0.000000e+000 -1.000000e+000 0.000000e+000
    outer loop
      vertex   -1.263882e+002 8.331393e+001 2.000000e+000
      vertex   -1.213882e+002 8.331393e+001 2.000000e+000
      vertex   -1.263882e+002 8.331393e+001 8.500000e+000
    endloop
  endfacet
  facet normal 0.000000e+000 -7.926240e-001 0.000000e+000
    outer loop
      vertex   -1.263882e+002 8.331393e+001 8.500000e+000
      vertex   -1.213882e+002 8.331393e+001 2.000000e+000
      vertex   -1.213882e+002 8.331393e+001 8.500000e+000
    endloop
  endfacet
  facet normal 0.000000e+000 0.000000e+000 1.000000e+000
    outer loop
      vertex   -1.263882e+002 8.331393e+001 8.500000e+000
      vertex   -1.213882e+002 8.331393e+001 8.500000e+000
      vertex   -1.263882e+002 9.331393e+001 8.500000e+000
    endloop
  endfacet
  facet normal -0.000000e+000 0.000000e+000 8.944272e-001
    outer loop
      vertex   -1.263882e+002 9.331393e+001 8.500000e+000
      vertex   -1.213882e+002 8.331393e+001 8.500000e+000
      vertex   -1.213882e+002 9.331393e+001 8.500000e+000
    endloop
  endfacet
endsolid
