solid ascii
  facet normal 0.000000e+000 -1.000000e+000 0.000000e+000
    outer loop
      vertex   -1.745000e+002 5.446515e+001 7.500000e+000
      vertex   -1.737063e+002 5.446515e+001 7.500000e+000
      vertex   -1.745000e+002 5.446515e+001 7.800000e+000
    endloop
  endfacet
  facet normal 0.000000e+000 -3.535571e-001 0.000000e+000
    outer loop
      vertex   -1.745000e+002 5.446515e+001 7.800000e+000
      vertex   -1.737063e+002 5.446515e+001 7.500000e+000
      vertex   -1.737063e+002 5.446515e+001 7.800000e+000
    endloop
  endfacet
  facet normal 0.000000e+000 1.000000e+000 -0.000000e+000
    outer loop
      vertex   -1.737063e+002 5.552625e+001 7.500000e+000
      vertex   -1.745000e+002 5.552625e+001 7.500000e+000
      vertex   -1.737063e+002 5.552625e+001 7.800000e+000
    endloop
  endfacet
  facet normal 0.000000e+000 3.535571e-001 0.000000e+000
    outer loop
      vertex   -1.737063e+002 5.552625e+001 7.800000e+000
      vertex   -1.745000e+002 5.552625e+001 7.500000e+000
      vertex   -1.745000e+002 5.552625e+001 7.800000e+000
    endloop
  endfacet
  facet normal 1.000000e+000 0.000000e+000 0.000000e+000
    outer loop
      vertex   -1.737063e+002 5.446515e+001 7.500000e+000
      vertex   -1.737063e+002 5.552625e+001 7.500000e+000
      vertex   -1.737063e+002 5.446515e+001 7.800000e+000
    endloop
  endfacet
  facet normal 2.720612e-001 -0.000000e+000 0.000000e+000
    outer loop
      vertex   -1.737063e+002 5.446515e+001 7.800000e+000
      vertex   -1.737063e+002 5.552625e+001 7.500000e+000
      vertex   -1.737063e+002 5.552625e+001 7.800000e+000
    endloop
  endfacet
  facet normal 0.000000e+000 0.000000e+000 1.000000e+000
    outer loop
      vertex   -1.745000e+002 5.446515e+001 7.800000e+000
      vertex   -1.737063e+002 5.446515e+001 7.800000e+000
      vertex   -1.745000e+002 5.552625e+001 7.800000e+000
    endloop
  endfacet
  facet normal -0.000000e+000 0.000000e+000 8.007631e-001
    outer loop
      vertex   -1.745000e+002 5.552625e+001 7.800000e+000
      vertex   -1.737063e+002 5.446515e+001 7.800000e+000
      vertex   -1.737063e+002 5.552625e+001 7.800000e+000
    endloop
  endfacet
  facet normal 1.000000e+000 0.000000e+000 0.000000e+000
    outer loop
      vertex   -1.745000e+002 5.552625e+001 7.500000e+000
      vertex   -1.745000e+002 6.000000e+001 7.500000e+000
      vertex   -1.745000e+002 5.552625e+001 7.800000e+000
    endloop
  endfacet
  facet normal 1.114012e-001 -0.000000e+000 0.000000e+000
    outer loop
      vertex   -1.745000e+002 5.552625e+001 7.800000e+000
      vertex   -1.745000e+002 6.000000e+001 7.500000e+000
      vertex   -1.745000e+002 6.000000e+001 8.000000e+000
    endloop
  endfacet
  facet normal 8.076245e-002 0.000000e+000 -0.000000e+000
    outer loop
      vertex   -1.745000e+002 5.552625e+001 7.800000e+000
      vertex   -1.745000e+002 6.000000e+001 8.000000e+000
      vertex   -1.745000e+002 5.000000e+001 8.000000e+000
    endloop
  endfacet
  facet normal 3.616723e-002 0.000000e+000 0.000000e+000
    outer loop
      vertex   -1.745000e+002 5.552625e+001 7.800000e+000
      vertex   -1.745000e+002 5.000000e+001 8.000000e+000
      vertex   -1.745000e+002 5.446515e+001 7.800000e+000
    endloop
  endfacet
  facet normal 1.116146e-001 0.000000e+000 0.000000e+000
    outer loop
      vertex   -1.745000e+002 5.446515e+001 7.800000e+000
      vertex   -1.745000e+002 5.000000e+001 8.000000e+000
      vertex   -1.745000e+002 5.000000e+001 7.500000e+000
    endloop
  endfacet
  facet normal 9.977506e-001 0.000000e+000 0.000000e+000
    outer loop
      vertex   -1.745000e+002 5.446515e+001 7.800000e+000
      vertex   -1.745000e+002 5.000000e+001 7.500000e+000
      vertex   -1.745000e+002 5.446515e+001 7.500000e+000
    endloop
  endfacet
  facet normal -1.000000e+000 0.000000e+000 0.000000e+000
    outer loop
      vertex   -1.750000e+002 6.000000e+001 0.000000e+000
      vertex   -1.750000e+002 5.000000e+001 0.000000e+000
      vertex   -1.750000e+002 6.000000e+001 8.000000e+000
    endloop
  endfacet
  facet normal -6.246951e-001 -0.000000e+000 0.000000e+000
    outer loop
      vertex   -1.750000e+002 6.000000e+001 8.000000e+000
      vertex   -1.750000e+002 5.000000e+001 0.000000e+000
      vertex   -1.750000e+002 5.000000e+001 8.000000e+000
    endloop
  endfacet
  facet normal 0.000000e+000 0.000000e+000 1.000000e+000
    outer loop
      vertex   -1.750000e+002 5.000000e+001 8.000000e+000
      vertex   -1.745000e+002 5.000000e+001 8.000000e+000
      vertex   -1.750000e+002 6.000000e+001 8.000000e+000
    endloop
  endfacet
  facet normal -0.000000e+000 0.000000e+000 9.987524e-001
    outer loop
      vertex   -1.750000e+002 6.000000e+001 8.000000e+000
      vertex   -1.745000e+002 5.000000e+001 8.000000e+000
      vertex   -1.745000e+002 6.000000e+001 8.000000e+000
    endloop
  endfacet
  facet normal 0.000000e+000 1.000000e+000 0.000000e+000
    outer loop
      vertex   -1.700000e+002 6.000000e+001 7.500000e+000
      vertex   -1.700000e+002 6.000000e+001 0.000000e+000
      vertex   -1.745000e+002 6.000000e+001 7.500000e+000
    endloop
  endfacet
  facet normal 0.000000e+000 5.703958e-001 0.000000e+000
    outer loop
      vertex   -1.745000e+002 6.000000e+001 7.500000e+000
      vertex   -1.700000e+002 6.000000e+001 0.000000e+000
      vertex   -1.750000e+002 6.000000e+001 0.000000e+000
    endloop
  endfacet
  facet normal 0.000000e+000 7.525767e-001 0.000000e+000
    outer loop
      vertex   -1.745000e+002 6.000000e+001 7.500000e+000
      vertex   -1.750000e+002 6.000000e+001 0.000000e+000
      vertex   -1.750000e+002 6.000000e+001 8.000000e+000
    endloop
  endfacet
  facet normal -0.000000e+000 7.071068e-001 0.000000e+000
    outer loop
      vertex   -1.750000e+002 6.000000e+001 8.000000e+000
      vertex   -1.745000e+002 6.000000e+001 8.000000e+000
      vertex   -1.745000e+002 6.000000e+001 7.500000e+000
    endloop
  endfacet
  facet normal 1.000000e+000 0.000000e+000 0.000000e+000
    outer loop
      vertex   -1.700000e+002 5.000000e+001 0.000000e+000
      vertex   -1.700000e+002 6.000000e+001 0.000000e+000
      vertex   -1.700000e+002 5.000000e+001 7.500000e+000
    endloop
  endfacet
  facet normal 6.000000e-001 -0.000000e+000 0.000000e+000
    outer loop
      vertex   -1.700000e+002 5.000000e+001 7.500000e+000
      vertex   -1.700000e+002 6.000000e+001 0.000000e+000
      vertex   -1.700000e+002 6.000000e+001 7.500000e+000
    endloop
  endfacet
  facet normal 0.000000e+000 -7.071068e-001 0.000000e+000
    outer loop
      vertex   -1.750000e+002 5.000000e+001 8.000000e+000
      vertex   -1.750000e+002 5.000000e+001 0.000000e+000
      vertex   -1.745000e+002 5.000000e+001 7.500000e+000
    endloop
  endfacet
  facet normal 0.000000e+000 -5.703958e-001 -0.000000e+000
    outer loop
      vertex   -1.745000e+002 5.000000e+001 7.500000e+000
      vertex   -1.750000e+002 5.000000e+001 0.000000e+000
      vertex   -1.700000e+002 5.000000e+001 0.000000e+000
    endloop
  endfacet
  facet normal 0.000000e+000 -8.574929e-001 0.000000e+000
    outer loop
      vertex   -1.745000e+002 5.000000e+001 7.500000e+000
      vertex   -1.700000e+002 5.000000e+001 0.000000e+000
      vertex   -1.700000e+002 5.000000e+001 7.500000e+000
    endloop
  endfacet
  facet normal 0.000000e+000 -7.071068e-001 0.000000e+000
    outer loop
      vertex   -1.745000e+002 5.000000e+001 7.500000e+000
      vertex   -1.745000e+002 5.000000e+001 8.000000e+000
      vertex   -1.750000e+002 5.000000e+001 8.000000e+000
    endloop
  endfacet
  facet normal 0.000000e+000 0.000000e+000 1.000000e+000
    outer loop
      vertex   -1.745000e+002 5.552625e+001 7.500000e+000
      vertex   -1.737063e+002 5.552625e+001 7.500000e+000
      vertex   -1.745000e+002 6.000000e+001 7.500000e+000
    endloop
  endfacet
  facet normal -0.000000e+000 0.000000e+000 9.846238e-001
    outer loop
      vertex   -1.745000e+002 6.000000e+001 7.500000e+000
      vertex   -1.737063e+002 5.552625e+001 7.500000e+000
      vertex   -1.700000e+002 6.000000e+001 7.500000e+000
    endloop
  endfacet
  facet normal 0.000000e+000 0.000000e+000 6.379626e-001
    outer loop
      vertex   -1.700000e+002 6.000000e+001 7.500000e+000
      vertex   -1.737063e+002 5.552625e+001 7.500000e+000
      vertex   -1.700000e+002 5.000000e+001 7.500000e+000
    endloop
  endfacet
  facet normal 0.000000e+000 0.000000e+000 1.018506e-001
    outer loop
      vertex   -1.700000e+002 5.000000e+001 7.500000e+000
      vertex   -1.737063e+002 5.552625e+001 7.500000e+000
      vertex   -1.737063e+002 5.446515e+001 7.500000e+000
    endloop
  endfacet
  facet normal 0.000000e+000 0.000000e+000 7.694632e-001
    outer loop
      vertex   -1.700000e+002 5.000000e+001 7.500000e+000
      vertex   -1.737063e+002 5.446515e+001 7.500000e+000
      vertex   -1.745000e+002 5.000000e+001 7.500000e+000
    endloop
  endfacet
  facet normal 0.000000e+000 0.000000e+000 1.750147e-001
    outer loop
      vertex   -1.745000e+002 5.000000e+001 7.500000e+000
      vertex   -1.737063e+002 5.446515e+001 7.500000e+000
      vertex   -1.745000e+002 5.446515e+001 7.500000e+000
    endloop
  endfacet
  facet normal 0.000000e+000 0.000000e+000 -1.000000e+000
    outer loop
      vertex   -1.700000e+002 5.000000e+001 0.000000e+000
      vertex   -1.750000e+002 5.000000e+001 0.000000e+000
      vertex   -1.700000e+002 6.000000e+001 0.000000e+000
    endloop
  endfacet
  facet normal -0.000000e+000 0.000000e+000 -8.944272e-001
    outer loop
      vertex   -1.700000e+002 6.000000e+001 0.000000e+000
      vertex   -1.750000e+002 5.000000e+001 0.000000e+000
      vertex   -1.750000e+002 6.000000e+001 0.000000e+000
    endloop
  endfacet
endsolid
