solid ascii
  facet normal 0.000000e+000 -6.037964e-002 9.981755e-001
    outer loop
      vertex   -7.000000e+001 1.751808e+002 5.109367e-001
      vertex   -7.000000e+001 1.750000e+002 5.000000e-001
      vertex   -6.750000e+001 1.751808e+002 5.109367e-001
    endloop
  endfacet
  facet normal 0.000000e+000 -8.703653e-003 1.438858e-001
    outer loop
      vertex   -6.750000e+001 1.751808e+002 5.109367e-001
      vertex   -7.000000e+001 1.750000e+002 5.000000e-001
      vertex   -6.500000e+001 1.750000e+002 5.000000e-001
    endloop
  endfacet
  facet normal 0.000000e+000 -4.363234e-003 7.213148e-002
    outer loop
      vertex   -6.750000e+001 1.751808e+002 5.109367e-001
      vertex   -6.500000e+001 1.750000e+002 5.000000e-001
      vertex   -6.503545e+001 1.751808e+002 5.109367e-001
    endloop
  endfacet
  facet normal 0.000000e+000 -1.769869e-001 9.658315e-001
    outer loop
      vertex   -6.503545e+001 1.751808e+002 5.109367e-001
      vertex   -6.507038e+001 1.753590e+002 5.435873e-001
      vertex   -6.750000e+001 1.751808e+002 5.109367e-001
    endloop
  endfacet
  facet normal -1.734723e-018 -1.797480e-001 9.808989e-001
    outer loop
      vertex   -6.750000e+001 1.751808e+002 5.109367e-001
      vertex   -6.507038e+001 1.753590e+002 5.435873e-001
      vertex   -6.750000e+001 1.753590e+002 5.435873e-001
    endloop
  endfacet
  facet normal -3.469447e-018 -1.797755e-001 9.810495e-001
    outer loop
      vertex   -6.750000e+001 1.751808e+002 5.109367e-001
      vertex   -6.750000e+001 1.753590e+002 5.435873e-001
      vertex   -7.000000e+001 1.753590e+002 5.435873e-001
    endloop
  endfacet
  facet normal 0.000000e+000 -2.975125e-001 9.547179e-001
    outer loop
      vertex   -7.000000e+001 1.753590e+002 5.435873e-001
      vertex   -6.750000e+001 1.753590e+002 5.435873e-001
      vertex   -7.000000e+001 1.755319e+002 5.974756e-001
    endloop
  endfacet
  facet normal 0.000000e+000 -2.149900e-002 6.899031e-002
    outer loop
      vertex   -7.000000e+001 1.755319e+002 5.974756e-001
      vertex   -6.750000e+001 1.753590e+002 5.435873e-001
      vertex   -6.750000e+001 1.755319e+002 5.974756e-001
    endloop
  endfacet
  facet normal 0.000000e+000 -4.104148e-001 9.118990e-001
    outer loop
      vertex   -7.000000e+001 1.755319e+002 5.974756e-001
      vertex   -6.750000e+001 1.755319e+002 5.974756e-001
      vertex   -7.000000e+001 1.756971e+002 6.718159e-001
    endloop
  endfacet
  facet normal 0.000000e+000 -2.965837e-002 6.589781e-002
    outer loop
      vertex   -7.000000e+001 1.756971e+002 6.718159e-001
      vertex   -6.750000e+001 1.755319e+002 5.974756e-001
      vertex   -6.750000e+001 1.756971e+002 6.718159e-001
    endloop
  endfacet
  facet normal 0.000000e+000 -5.173339e-001 8.557836e-001
    outer loop
      vertex   -7.000000e+001 1.756971e+002 6.718159e-001
      vertex   -6.750000e+001 1.756971e+002 6.718159e-001
      vertex   -7.000000e+001 1.758521e+002 7.655242e-001
    endloop
  endfacet
  facet normal 0.000000e+000 -3.738531e-002 6.184350e-002
    outer loop
      vertex   -7.000000e+001 1.758521e+002 7.655242e-001
      vertex   -6.750000e+001 1.756971e+002 6.718159e-001
      vertex   -6.750000e+001 1.758521e+002 7.655242e-001
    endloop
  endfacet
  facet normal 0.000000e+000 -6.167013e-001 7.871972e-001
    outer loop
      vertex   -7.000000e+001 1.758521e+002 7.655242e-001
      vertex   -6.750000e+001 1.758521e+002 7.655242e-001
      vertex   -7.000000e+001 1.759947e+002 8.772339e-001
    endloop
  endfacet
  facet normal 0.000000e+000 -4.456703e-002 5.688822e-002
    outer loop
      vertex   -7.000000e+001 1.759947e+002 8.772339e-001
      vertex   -6.750000e+001 1.758521e+002 7.655242e-001
      vertex   -6.750000e+001 1.759947e+002 8.772339e-001
    endloop
  endfacet
  facet normal 0.000000e+000 -7.071065e-001 7.071071e-001
    outer loop
      vertex   -7.000000e+001 1.759947e+002 8.772339e-001
      vertex   -6.750000e+001 1.759947e+002 8.772339e-001
      vertex   -7.000000e+001 1.761228e+002 1.005316e+000
    endloop
  endfacet
  facet normal 0.000000e+000 -5.109891e-002 5.109896e-002
    outer loop
      vertex   -7.000000e+001 1.761228e+002 1.005316e+000
      vertex   -6.750000e+001 1.759947e+002 8.772339e-001
      vertex   -6.750000e+001 1.761228e+002 1.005316e+000
    endloop
  endfacet
  facet normal 0.000000e+000 -7.871836e-001 6.167187e-001
    outer loop
      vertex   -7.000000e+001 1.761228e+002 1.005316e+000
      vertex   -6.750000e+001 1.761228e+002 1.005316e+000
      vertex   -7.000000e+001 1.762345e+002 1.147903e+000
    endloop
  endfacet
  facet normal 0.000000e+000 -5.688561e-002 4.456701e-002
    outer loop
      vertex   -7.000000e+001 1.762345e+002 1.147903e+000
      vertex   -6.750000e+001 1.761228e+002 1.005316e+000
      vertex   -6.750000e+001 1.762345e+002 1.147903e+000
    endloop
  endfacet
  facet normal 0.000000e+000 -8.557911e-001 5.173216e-001
    outer loop
      vertex   -7.000000e+001 1.762345e+002 1.147903e+000
      vertex   -6.750000e+001 1.762345e+002 1.147903e+000
      vertex   -7.000000e+001 1.763282e+002 1.302915e+000
    endloop
  endfacet
  facet normal 0.000000e+000 -6.184284e-002 3.738369e-002
    outer loop
      vertex   -7.000000e+001 1.763282e+002 1.302915e+000
      vertex   -6.750000e+001 1.762345e+002 1.147903e+000
      vertex   -6.750000e+001 1.763282e+002 1.302915e+000
    endloop
  endfacet
  facet normal 0.000000e+000 -9.118989e-001 4.104150e-001
    outer loop
      vertex   -7.000000e+001 1.763282e+002 1.302915e+000
      vertex   -6.750000e+001 1.763282e+002 1.302915e+000
      vertex   -7.000000e+001 1.764025e+002 1.468093e+000
    endloop
  endfacet
  facet normal 0.000000e+000 -6.589824e-002 2.965858e-002
    outer loop
      vertex   -7.000000e+001 1.764025e+002 1.468093e+000
      vertex   -6.750000e+001 1.763282e+002 1.302915e+000
      vertex   -6.750000e+001 1.764025e+002 1.468093e+000
    endloop
  endfacet
  facet normal 0.000000e+000 -9.547359e-001 2.974549e-001
    outer loop
      vertex   -7.000000e+001 1.764025e+002 1.468093e+000
      vertex   -6.750000e+001 1.764025e+002 1.468093e+000
      vertex   -7.000000e+001 1.764564e+002 1.641026e+000
    endloop
  endfacet
  facet normal 0.000000e+000 -6.899267e-002 2.149517e-002
    outer loop
      vertex   -7.000000e+001 1.764564e+002 1.641026e+000
      vertex   -6.750000e+001 1.764025e+002 1.468093e+000
      vertex   -6.750000e+001 1.764564e+002 1.641026e+000
    endloop
  endfacet
  facet normal 0.000000e+000 -9.836168e-001 1.802722e-001
    outer loop
      vertex   -7.000000e+001 1.764564e+002 1.641026e+000
      vertex   -6.750000e+001 1.764564e+002 1.641026e+000
      vertex   -7.000000e+001 1.764891e+002 1.819195e+000
    endloop
  endfacet
  facet normal 0.000000e+000 -7.108108e-002 1.302737e-002
    outer loop
      vertex   -7.000000e+001 1.764891e+002 1.819195e+000
      vertex   -6.750000e+001 1.764564e+002 1.641026e+000
      vertex   -6.750000e+001 1.764891e+002 1.819195e+000
    endloop
  endfacet
  facet normal 0.000000e+000 -9.981743e-001 6.039976e-002
    outer loop
      vertex   -7.000000e+001 1.764891e+002 1.819195e+000
      vertex   -6.750000e+001 1.764891e+002 1.819195e+000
      vertex   -7.000000e+001 1.765000e+002 2.000000e+000
    endloop
  endfacet
  facet normal 0.000000e+000 -7.213290e-002 4.364779e-003
    outer loop
      vertex   -7.000000e+001 1.765000e+002 2.000000e+000
      vertex   -6.750000e+001 1.764891e+002 1.819195e+000
      vertex   -6.750000e+001 1.765000e+002 2.000000e+000
    endloop
  endfacet
  facet normal 0.000000e+000 -9.981743e-001 -6.039976e-002
    outer loop
      vertex   -7.000000e+001 1.765000e+002 2.000000e+000
      vertex   -6.750000e+001 1.765000e+002 2.000000e+000
      vertex   -7.000000e+001 1.764891e+002 2.180805e+000
    endloop
  endfacet
  facet normal 0.000000e+000 -7.213290e-002 -4.364779e-003
    outer loop
      vertex   -7.000000e+001 1.764891e+002 2.180805e+000
      vertex   -6.750000e+001 1.765000e+002 2.000000e+000
      vertex   -6.750000e+001 1.764891e+002 2.180805e+000
    endloop
  endfacet
  facet normal 0.000000e+000 -9.836168e-001 -1.802722e-001
    outer loop
      vertex   -7.000000e+001 1.764891e+002 2.180805e+000
      vertex   -6.750000e+001 1.764891e+002 2.180805e+000
      vertex   -7.000000e+001 1.764564e+002 2.358974e+000
    endloop
  endfacet
  facet normal 0.000000e+000 -7.108108e-002 -1.302737e-002
    outer loop
      vertex   -7.000000e+001 1.764564e+002 2.358974e+000
      vertex   -6.750000e+001 1.764891e+002 2.180805e+000
      vertex   -6.750000e+001 1.764564e+002 2.358974e+000
    endloop
  endfacet
  facet normal 0.000000e+000 -9.547359e-001 -2.974549e-001
    outer loop
      vertex   -7.000000e+001 1.764564e+002 2.358974e+000
      vertex   -6.750000e+001 1.764564e+002 2.358974e+000
      vertex   -7.000000e+001 1.764025e+002 2.531907e+000
    endloop
  endfacet
  facet normal 0.000000e+000 -6.899267e-002 -2.149517e-002
    outer loop
      vertex   -7.000000e+001 1.764025e+002 2.531907e+000
      vertex   -6.750000e+001 1.764564e+002 2.358974e+000
      vertex   -6.750000e+001 1.764025e+002 2.531907e+000
    endloop
  endfacet
  facet normal 0.000000e+000 -9.118987e-001 -4.104152e-001
    outer loop
      vertex   -7.000000e+001 1.764025e+002 2.531907e+000
      vertex   -6.750000e+001 1.764025e+002 2.531907e+000
      vertex   -7.000000e+001 1.763282e+002 2.697085e+000
    endloop
  endfacet
  facet normal 0.000000e+000 -6.589819e-002 -2.965858e-002
    outer loop
      vertex   -7.000000e+001 1.763282e+002 2.697085e+000
      vertex   -6.750000e+001 1.764025e+002 2.531907e+000
      vertex   -6.750000e+001 1.763282e+002 2.697085e+000
    endloop
  endfacet
  facet normal 0.000000e+000 -8.557911e-001 -5.173216e-001
    outer loop
      vertex   -7.000000e+001 1.763282e+002 2.697085e+000
      vertex   -6.750000e+001 1.763282e+002 2.697085e+000
      vertex   -7.000000e+001 1.762345e+002 2.852097e+000
    endloop
  endfacet
  facet normal 0.000000e+000 -6.184284e-002 -3.738369e-002
    outer loop
      vertex   -7.000000e+001 1.762345e+002 2.852097e+000
      vertex   -6.750000e+001 1.763282e+002 2.697085e+000
      vertex   -6.750000e+001 1.762345e+002 2.852097e+000
    endloop
  endfacet
  facet normal 0.000000e+000 -7.871839e-001 -6.167184e-001
    outer loop
      vertex   -7.000000e+001 1.762345e+002 2.852097e+000
      vertex   -6.750000e+001 1.762345e+002 2.852097e+000
      vertex   -7.000000e+001 1.761228e+002 2.994684e+000
    endloop
  endfacet
  facet normal 0.000000e+000 -5.688566e-002 -4.456701e-002
    outer loop
      vertex   -7.000000e+001 1.761228e+002 2.994684e+000
      vertex   -6.750000e+001 1.762345e+002 2.852097e+000
      vertex   -6.750000e+001 1.761228e+002 2.994684e+000
    endloop
  endfacet
  facet normal 0.000000e+000 -7.071061e-001 -7.071074e-001
    outer loop
      vertex   -7.000000e+001 1.761228e+002 2.994684e+000
      vertex   -6.750000e+001 1.761228e+002 2.994684e+000
      vertex   -7.000000e+001 1.759947e+002 3.122766e+000
    endloop
  endfacet
  facet normal 0.000000e+000 -5.109886e-002 -5.109896e-002
    outer loop
      vertex   -7.000000e+001 1.759947e+002 3.122766e+000
      vertex   -6.750000e+001 1.761228e+002 2.994684e+000
      vertex   -6.750000e+001 1.759947e+002 3.122766e+000
    endloop
  endfacet
  facet normal 0.000000e+000 -6.167020e-001 -7.871968e-001
    outer loop
      vertex   -7.000000e+001 1.759947e+002 3.122766e+000
      vertex   -6.750000e+001 1.759947e+002 3.122766e+000
      vertex   -7.000000e+001 1.758521e+002 3.234476e+000
    endloop
  endfacet
  facet normal 0.000000e+000 -4.456710e-002 -5.688822e-002
    outer loop
      vertex   -7.000000e+001 1.758521e+002 3.234476e+000
      vertex   -6.750000e+001 1.759947e+002 3.122766e+000
      vertex   -6.750000e+001 1.758521e+002 3.234476e+000
    endloop
  endfacet
  facet normal 0.000000e+000 -5.173339e-001 -8.557836e-001
    outer loop
      vertex   -7.000000e+001 1.758521e+002 3.234476e+000
      vertex   -6.750000e+001 1.758521e+002 3.234476e+000
      vertex   -7.000000e+001 1.756971e+002 3.328184e+000
    endloop
  endfacet
  facet normal 0.000000e+000 -3.738531e-002 -6.184350e-002
    outer loop
      vertex   -7.000000e+001 1.756971e+002 3.328184e+000
      vertex   -6.750000e+001 1.758521e+002 3.234476e+000
      vertex   -6.750000e+001 1.756971e+002 3.328184e+000
    endloop
  endfacet
  facet normal 0.000000e+000 -4.104150e-001 -9.118989e-001
    outer loop
      vertex   -7.000000e+001 1.756971e+002 3.328184e+000
      vertex   -6.750000e+001 1.756971e+002 3.328184e+000
      vertex   -7.000000e+001 1.755319e+002 3.402524e+000
    endloop
  endfacet
  facet normal 0.000000e+000 -2.965839e-002 -6.589781e-002
    outer loop
      vertex   -7.000000e+001 1.755319e+002 3.402524e+000
      vertex   -6.750000e+001 1.756971e+002 3.328184e+000
      vertex   -6.750000e+001 1.755319e+002 3.402524e+000
    endloop
  endfacet
  facet normal 0.000000e+000 -2.975122e-001 -9.547180e-001
    outer loop
      vertex   -7.000000e+001 1.755319e+002 3.402524e+000
      vertex   -6.750000e+001 1.755319e+002 3.402524e+000
      vertex   -7.000000e+001 1.753590e+002 3.456413e+000
    endloop
  endfacet
  facet normal 0.000000e+000 -2.149897e-002 -6.899031e-002
    outer loop
      vertex   -7.000000e+001 1.753590e+002 3.456413e+000
      vertex   -6.750000e+001 1.755319e+002 3.402524e+000
      vertex   -6.750000e+001 1.753590e+002 3.456413e+000
    endloop
  endfacet
  facet normal 0.000000e+000 -1.802462e-001 -9.836215e-001
    outer loop
      vertex   -7.000000e+001 1.753590e+002 3.456413e+000
      vertex   -6.750000e+001 1.753590e+002 3.456413e+000
      vertex   -7.000000e+001 1.751808e+002 3.489063e+000
    endloop
  endfacet
  facet normal 0.000000e+000 -1.302604e-002 -7.108440e-002
    outer loop
      vertex   -7.000000e+001 1.751808e+002 3.489063e+000
      vertex   -6.750000e+001 1.753590e+002 3.456413e+000
      vertex   -6.750000e+001 1.751808e+002 3.489063e+000
    endloop
  endfacet
  facet normal 0.000000e+000 -6.037997e-002 -9.981754e-001
    outer loop
      vertex   -7.000000e+001 1.751808e+002 3.489063e+000
      vertex   -6.750000e+001 1.751808e+002 3.489063e+000
      vertex   -7.000000e+001 1.750000e+002 3.500000e+000
    endloop
  endfacet
  facet normal 0.000000e+000 -4.363257e-003 -7.213148e-002
    outer loop
      vertex   -7.000000e+001 1.750000e+002 3.500000e+000
      vertex   -6.750000e+001 1.751808e+002 3.489063e+000
      vertex   -6.500000e+001 1.750000e+002 3.500000e+000
    endloop
  endfacet
  facet normal 8.673617e-019 -5.826248e-002 -9.631701e-001
    outer loop
      vertex   -6.500000e+001 1.750000e+002 3.500000e+000
      vertex   -6.750000e+001 1.751808e+002 3.489063e+000
      vertex   -6.503545e+001 1.751808e+002 3.489063e+000
    endloop
  endfacet
  facet normal -0.000000e+000 -1.769862e-001 -9.658316e-001
    outer loop
      vertex   -6.503545e+001 1.751808e+002 3.489063e+000
      vertex   -6.750000e+001 1.751808e+002 3.489063e+000
      vertex   -6.507038e+001 1.753590e+002 3.456413e+000
    endloop
  endfacet
  facet normal -0.000000e+000 -1.340132e-002 -7.313234e-002
    outer loop
      vertex   -6.507038e+001 1.753590e+002 3.456413e+000
      vertex   -6.750000e+001 1.751808e+002 3.489063e+000
      vertex   -6.750000e+001 1.753590e+002 3.456413e+000
    endloop
  endfacet
  facet normal -0.000000e+000 -2.924308e-001 -9.384119e-001
    outer loop
      vertex   -6.507038e+001 1.753590e+002 3.456413e+000
      vertex   -6.750000e+001 1.753590e+002 3.456413e+000
      vertex   -6.510429e+001 1.755319e+002 3.402524e+000
    endloop
  endfacet
  facet normal -0.000000e+000 -2.242970e-002 -7.197699e-002
    outer loop
      vertex   -6.510429e+001 1.755319e+002 3.402524e+000
      vertex   -6.750000e+001 1.753590e+002 3.456413e+000
      vertex   -6.750000e+001 1.755319e+002 3.402524e+000
    endloop
  endfacet
  facet normal -0.000000e+000 -4.040109e-001 -8.976694e-001
    outer loop
      vertex   -6.510429e+001 1.755319e+002 3.402524e+000
      vertex   -6.750000e+001 1.755319e+002 3.402524e+000
      vertex   -6.513667e+001 1.756971e+002 3.328184e+000
    endloop
  endfacet
  facet normal -0.000000e+000 -3.136382e-002 -6.968708e-002
    outer loop
      vertex   -6.513667e+001 1.756971e+002 3.328184e+000
      vertex   -6.750000e+001 1.755319e+002 3.402524e+000
      vertex   -6.750000e+001 1.756971e+002 3.328184e+000
    endloop
  endfacet
  facet normal -0.000000e+000 -5.102006e-001 -8.439837e-001
    outer loop
      vertex   -6.513667e+001 1.756971e+002 3.328184e+000
      vertex   -6.750000e+001 1.756971e+002 3.328184e+000
      vertex   -6.516707e+001 1.758521e+002 3.234476e+000
    endloop
  endfacet
  facet normal -0.000000e+000 -4.004708e-002 -6.624664e-002
    outer loop
      vertex   -6.516707e+001 1.758521e+002 3.234476e+000
      vertex   -6.750000e+001 1.756971e+002 3.328184e+000
      vertex   -6.750000e+001 1.758521e+002 3.234476e+000
    endloop
  endfacet
  facet normal -0.000000e+000 -6.094871e-001 -7.779872e-001
    outer loop
      vertex   -6.516707e+001 1.758521e+002 3.234476e+000
      vertex   -6.750000e+001 1.758521e+002 3.234476e+000
      vertex   -6.519502e+001 1.759947e+002 3.122766e+000
    endloop
  endfacet
  facet normal -0.000000e+000 -4.831564e-002 -6.167310e-002
    outer loop
      vertex   -6.519502e+001 1.759947e+002 3.122766e+000
      vertex   -6.750000e+001 1.758521e+002 3.234476e+000
      vertex   -6.750000e+001 1.759947e+002 3.122766e+000
    endloop
  endfacet
  facet normal -0.000000e+000 -7.004051e-001 -7.004064e-001
    outer loop
      vertex   -6.519502e+001 1.759947e+002 3.122766e+000
      vertex   -6.750000e+001 1.759947e+002 3.122766e+000
      vertex   -6.522014e+001 1.761228e+002 2.994684e+000
    endloop
  endfacet
  facet normal -0.000000e+000 -5.600327e-002 -5.600337e-002
    outer loop
      vertex   -6.522014e+001 1.761228e+002 2.994684e+000
      vertex   -6.750000e+001 1.759947e+002 3.122766e+000
      vertex   -6.750000e+001 1.761228e+002 2.994684e+000
    endloop
  endfacet
  facet normal -0.000000e+000 -7.814907e-001 -6.122581e-001
    outer loop
      vertex   -6.522014e+001 1.761228e+002 2.994684e+000
      vertex   -6.750000e+001 1.761228e+002 2.994684e+000
      vertex   -6.524204e+001 1.762345e+002 2.852097e+000
    endloop
  endfacet
  facet normal -0.000000e+000 -6.294642e-002 -4.931531e-002
    outer loop
      vertex   -6.524204e+001 1.762345e+002 2.852097e+000
      vertex   -6.750000e+001 1.761228e+002 2.994684e+000
      vertex   -6.750000e+001 1.762345e+002 2.852097e+000
    endloop
  endfacet
  facet normal -0.000000e+000 -8.514230e-001 -5.146810e-001
    outer loop
      vertex   -6.524204e+001 1.762345e+002 2.852097e+000
      vertex   -6.750000e+001 1.762345e+002 2.852097e+000
      vertex   -6.526041e+001 1.763282e+002 2.697085e+000
    endloop
  endfacet
  facet normal -0.000000e+000 -6.898948e-002 -4.170380e-002
    outer loop
      vertex   -6.526041e+001 1.763282e+002 2.697085e+000
      vertex   -6.750000e+001 1.762345e+002 2.852097e+000
      vertex   -6.750000e+001 1.763282e+002 2.697085e+000
    endloop
  endfacet
  facet normal -0.000000e+000 -9.089590e-001 -4.090922e-001
    outer loop
      vertex   -6.526041e+001 1.763282e+002 2.697085e+000
      vertex   -6.750000e+001 1.763282e+002 2.697085e+000
      vertex   -6.527499e+001 1.764025e+002 2.531907e+000
    endloop
  endfacet
  facet normal -0.000000e+000 -7.399202e-002 -3.330134e-002
    outer loop
      vertex   -6.527499e+001 1.764025e+002 2.531907e+000
      vertex   -6.750000e+001 1.763282e+002 2.697085e+000
      vertex   -6.750000e+001 1.764025e+002 2.531907e+000
    endloop
  endfacet
  facet normal -0.000000e+000 -9.531178e-001 -2.969508e-001
    outer loop
      vertex   -6.527499e+001 1.764025e+002 2.531907e+000
      vertex   -6.750000e+001 1.764025e+002 2.531907e+000
      vertex   -6.528555e+001 1.764564e+002 2.358974e+000
    endloop
  endfacet
  facet normal -0.000000e+000 -7.783351e-002 -2.424959e-002
    outer loop
      vertex   -6.528555e+001 1.764564e+002 2.358974e+000
      vertex   -6.750000e+001 1.764025e+002 2.531907e+000
      vertex   -6.750000e+001 1.764564e+002 2.358974e+000
    endloop
  endfacet
  facet normal -0.000000e+000 -9.830017e-001 -1.801595e-001
    outer loop
      vertex   -6.528555e+001 1.764564e+002 2.358974e+000
      vertex   -6.750000e+001 1.764564e+002 2.358974e+000
      vertex   -6.529196e+001 1.764891e+002 2.180805e+000
    endloop
  endfacet
  facet normal -0.000000e+000 -8.042072e-002 -1.473909e-002
    outer loop
      vertex   -6.529196e+001 1.764891e+002 2.180805e+000
      vertex   -6.750000e+001 1.764564e+002 2.358974e+000
      vertex   -6.750000e+001 1.764891e+002 2.180805e+000
    endloop
  endfacet
  facet normal -0.000000e+000 -9.981043e-001 -6.039553e-002
    outer loop
      vertex   -6.529196e+001 1.764891e+002 2.180805e+000
      vertex   -6.750000e+001 1.764891e+002 2.180805e+000
      vertex   -6.529411e+001 1.765000e+002 2.000000e+000
    endloop
  endfacet
  facet normal -0.000000e+000 -8.168952e-002 -4.943053e-003
    outer loop
      vertex   -6.529411e+001 1.765000e+002 2.000000e+000
      vertex   -6.750000e+001 1.764891e+002 2.180805e+000
      vertex   -6.750000e+001 1.765000e+002 2.000000e+000
    endloop
  endfacet
  facet normal 0.000000e+000 -9.981043e-001 6.039553e-002
    outer loop
      vertex   -6.529411e+001 1.765000e+002 2.000000e+000
      vertex   -6.750000e+001 1.765000e+002 2.000000e+000
      vertex   -6.529196e+001 1.764891e+002 1.819195e+000
    endloop
  endfacet
  facet normal 0.000000e+000 -8.161074e-002 4.938285e-003
    outer loop
      vertex   -6.529196e+001 1.764891e+002 1.819195e+000
      vertex   -6.750000e+001 1.765000e+002 2.000000e+000
      vertex   -6.750000e+001 1.764891e+002 1.819195e+000
    endloop
  endfacet
  facet normal 0.000000e+000 -8.042072e-002 1.473909e-002
    outer loop
      vertex   -6.529196e+001 1.764891e+002 1.819195e+000
      vertex   -6.750000e+001 1.764891e+002 1.819195e+000
      vertex   -6.750000e+001 1.764564e+002 1.641026e+000
    endloop
  endfacet
  facet normal 0.000000e+000 -2.924311e-001 9.384118e-001
    outer loop
      vertex   -6.507038e+001 1.753590e+002 5.435873e-001
      vertex   -6.510429e+001 1.755319e+002 5.974756e-001
      vertex   -6.750000e+001 1.753590e+002 5.435873e-001
    endloop
  endfacet
  facet normal 3.469447e-018 -2.966658e-001 9.520009e-001
    outer loop
      vertex   -6.750000e+001 1.753590e+002 5.435873e-001
      vertex   -6.510429e+001 1.755319e+002 5.974756e-001
      vertex   -6.750000e+001 1.755319e+002 5.974756e-001
    endloop
  endfacet
  facet normal 0.000000e+000 -4.040106e-001 8.976696e-001
    outer loop
      vertex   -6.510429e+001 1.755319e+002 5.974756e-001
      vertex   -6.513667e+001 1.756971e+002 6.718159e-001
      vertex   -6.750000e+001 1.755319e+002 5.974756e-001
    endloop
  endfacet
  facet normal 0.000000e+000 -4.092146e-001 9.092323e-001
    outer loop
      vertex   -6.750000e+001 1.755319e+002 5.974756e-001
      vertex   -6.513667e+001 1.756971e+002 6.718159e-001
      vertex   -6.750000e+001 1.756971e+002 6.718159e-001
    endloop
  endfacet
  facet normal 0.000000e+000 -5.102006e-001 8.439837e-001
    outer loop
      vertex   -6.513667e+001 1.756971e+002 6.718159e-001
      vertex   -6.516707e+001 1.758521e+002 7.655242e-001
      vertex   -6.750000e+001 1.756971e+002 6.718159e-001
    endloop
  endfacet
  facet normal 0.000000e+000 -5.157815e-001 8.532157e-001
    outer loop
      vertex   -6.750000e+001 1.756971e+002 6.718159e-001
      vertex   -6.516707e+001 1.758521e+002 7.655242e-001
      vertex   -6.750000e+001 1.758521e+002 7.655242e-001
    endloop
  endfacet
  facet normal 0.000000e+000 -6.094864e-001 7.779877e-001
    outer loop
      vertex   -6.516707e+001 1.758521e+002 7.655242e-001
      vertex   -6.519502e+001 1.759947e+002 8.772339e-001
      vertex   -6.750000e+001 1.758521e+002 7.655242e-001
    endloop
  endfacet
  facet normal 6.938894e-018 -6.148058e-001 7.847776e-001
    outer loop
      vertex   -6.750000e+001 1.758521e+002 7.655242e-001
      vertex   -6.519502e+001 1.759947e+002 8.772339e-001
      vertex   -6.750000e+001 1.759947e+002 8.772339e-001
    endloop
  endfacet
  facet normal 0.000000e+000 -7.004055e-001 7.004061e-001
    outer loop
      vertex   -6.519502e+001 1.759947e+002 8.772339e-001
      vertex   -6.522014e+001 1.761228e+002 1.005316e+000
      vertex   -6.750000e+001 1.759947e+002 8.772339e-001
    endloop
  endfacet
  facet normal 0.000000e+000 -7.048852e-001 7.048858e-001
    outer loop
      vertex   -6.750000e+001 1.759947e+002 8.772339e-001
      vertex   -6.522014e+001 1.761228e+002 1.005316e+000
      vertex   -6.750000e+001 1.761228e+002 1.005316e+000
    endloop
  endfacet
  facet normal 0.000000e+000 -7.814904e-001 6.122584e-001
    outer loop
      vertex   -6.522014e+001 1.761228e+002 1.005316e+000
      vertex   -6.524204e+001 1.762345e+002 1.147903e+000
      vertex   -6.750000e+001 1.761228e+002 1.005316e+000
    endloop
  endfacet
  facet normal 0.000000e+000 -7.846628e-001 6.147438e-001
    outer loop
      vertex   -6.750000e+001 1.761228e+002 1.005316e+000
      vertex   -6.524204e+001 1.762345e+002 1.147903e+000
      vertex   -6.750000e+001 1.762345e+002 1.147903e+000
    endloop
  endfacet
  facet normal 0.000000e+000 -8.514230e-001 5.146810e-001
    outer loop
      vertex   -6.524204e+001 1.762345e+002 1.147903e+000
      vertex   -6.526041e+001 1.763282e+002 1.302915e+000
      vertex   -6.750000e+001 1.762345e+002 1.147903e+000
    endloop
  endfacet
  facet normal 0.000000e+000 -8.530058e-001 5.156379e-001
    outer loop
      vertex   -6.750000e+001 1.762345e+002 1.147903e+000
      vertex   -6.526041e+001 1.763282e+002 1.302915e+000
      vertex   -6.750000e+001 1.763282e+002 1.302915e+000
    endloop
  endfacet
  facet normal 0.000000e+000 -9.089592e-001 4.090919e-001
    outer loop
      vertex   -6.526041e+001 1.763282e+002 1.302915e+000
      vertex   -6.527499e+001 1.764025e+002 1.468093e+000
      vertex   -6.750000e+001 1.763282e+002 1.302915e+000
    endloop
  endfacet
  facet normal 0.000000e+000 -9.088920e-001 4.090617e-001
    outer loop
      vertex   -6.750000e+001 1.763282e+002 1.302915e+000
      vertex   -6.527499e+001 1.764025e+002 1.468093e+000
      vertex   -6.750000e+001 1.764025e+002 1.468093e+000
    endloop
  endfacet
  facet normal 0.000000e+000 -9.531178e-001 2.969508e-001
    outer loop
      vertex   -6.527499e+001 1.764025e+002 1.468093e+000
      vertex   -6.528555e+001 1.764564e+002 1.641026e+000
      vertex   -6.750000e+001 1.764025e+002 1.468093e+000
    endloop
  endfacet
  facet normal -3.469447e-018 -9.515579e-001 2.964648e-001
    outer loop
      vertex   -6.750000e+001 1.764025e+002 1.468093e+000
      vertex   -6.528555e+001 1.764564e+002 1.641026e+000
      vertex   -6.750000e+001 1.764564e+002 1.641026e+000
    endloop
  endfacet
  facet normal 0.000000e+000 -9.830017e-001 1.801595e-001
    outer loop
      vertex   -6.528555e+001 1.764564e+002 1.641026e+000
      vertex   -6.529196e+001 1.764891e+002 1.819195e+000
      vertex   -6.750000e+001 1.764564e+002 1.641026e+000
    endloop
  endfacet
  facet normal -3.469447e-018 -1.797755e-001 9.810495e-001
    outer loop
      vertex   -7.000000e+001 1.753590e+002 5.435873e-001
      vertex   -7.000000e+001 1.751808e+002 5.109367e-001
      vertex   -6.750000e+001 1.751808e+002 5.109367e-001
    endloop
  endfacet
  facet normal -9.981755e-001 0.000000e+000 0.000000e+000
    outer loop
      vertex   -7.000000e+001 1.750000e+002 5.000000e-001
      vertex   -7.000000e+001 1.751808e+002 5.109367e-001
      vertex   -7.000000e+001 1.750000e+002 -5.000000e-001
    endloop
  endfacet
  facet normal -1.537199e-001 0.000000e+000 0.000000e+000
    outer loop
      vertex   -7.000000e+001 1.750000e+002 -5.000000e-001
      vertex   -7.000000e+001 1.751808e+002 5.109367e-001
      vertex   -7.000000e+001 1.753590e+002 5.435873e-001
    endloop
  endfacet
  facet normal -1.197092e-001 0.000000e+000 0.000000e+000
    outer loop
      vertex   -7.000000e+001 1.750000e+002 -5.000000e-001
      vertex   -7.000000e+001 1.753590e+002 5.435873e-001
      vertex   -7.000000e+001 1.755319e+002 5.974756e-001
    endloop
  endfacet
  facet normal -6.416015e-001 0.000000e+000 -0.000000e+000
    outer loop
      vertex   -7.000000e+001 1.755319e+002 5.974756e-001
      vertex   -7.000000e+001 1.756971e+002 6.718159e-001
      vertex   -7.000000e+001 1.750000e+002 -5.000000e-001
    endloop
  endfacet
  facet normal -8.594305e-001 0.000000e+000 0.000000e+000
    outer loop
      vertex   -7.000000e+001 1.750000e+002 -5.000000e-001
      vertex   -7.000000e+001 1.756971e+002 6.718159e-001
      vertex   -7.000000e+001 1.770000e+002 -5.000000e-001
    endloop
  endfacet
  facet normal -1.014492e-001 0.000000e+000 0.000000e+000
    outer loop
      vertex   -7.000000e+001 1.770000e+002 -5.000000e-001
      vertex   -7.000000e+001 1.756971e+002 6.718159e-001
      vertex   -7.000000e+001 1.758521e+002 7.655242e-001
    endloop
  endfacet
  facet normal -1.059572e-001 0.000000e+000 0.000000e+000
    outer loop
      vertex   -7.000000e+001 1.770000e+002 -5.000000e-001
      vertex   -7.000000e+001 1.758521e+002 7.655242e-001
      vertex   -7.000000e+001 1.759947e+002 8.772339e-001
    endloop
  endfacet
  facet normal -9.880341e-001 0.000000e+000 0.000000e+000
    outer loop
      vertex   -7.000000e+001 1.759947e+002 8.772339e-001
      vertex   -7.000000e+001 1.761228e+002 1.005316e+000
      vertex   -7.000000e+001 1.770000e+002 -5.000000e-001
    endloop
  endfacet
  facet normal -9.262846e-002 0.000000e+000 0.000000e+000
    outer loop
      vertex   -7.000000e+001 1.770000e+002 -5.000000e-001
      vertex   -7.000000e+001 1.761228e+002 1.005316e+000
      vertex   -7.000000e+001 1.762345e+002 1.147903e+000
    endloop
  endfacet
  facet normal -7.811227e-002 0.000000e+000 0.000000e+000
    outer loop
      vertex   -7.000000e+001 1.770000e+002 -5.000000e-001
      vertex   -7.000000e+001 1.762345e+002 1.147903e+000
      vertex   -7.000000e+001 1.763282e+002 1.302915e+000
    endloop
  endfacet
  facet normal -7.029930e-001 0.000000e+000 0.000000e+000
    outer loop
      vertex   -7.000000e+001 1.763282e+002 1.302915e+000
      vertex   -7.000000e+001 1.764025e+002 1.468093e+000
      vertex   -7.000000e+001 1.770000e+002 -5.000000e-001
    endloop
  endfacet
  facet normal -4.608094e-002 0.000000e+000 0.000000e+000
    outer loop
      vertex   -7.000000e+001 1.770000e+002 -5.000000e-001
      vertex   -7.000000e+001 1.764025e+002 1.468093e+000
      vertex   -7.000000e+001 1.764564e+002 1.641026e+000
    endloop
  endfacet
  facet normal -3.178969e-002 0.000000e+000 0.000000e+000
    outer loop
      vertex   -7.000000e+001 1.770000e+002 -5.000000e-001
      vertex   -7.000000e+001 1.764564e+002 1.641026e+000
      vertex   -7.000000e+001 1.764891e+002 1.819195e+000
    endloop
  endfacet
  facet normal -2.737425e-001 0.000000e+000 0.000000e+000
    outer loop
      vertex   -7.000000e+001 1.764891e+002 1.819195e+000
      vertex   -7.000000e+001 1.765000e+002 2.000000e+000
      vertex   -7.000000e+001 1.770000e+002 -5.000000e-001
    endloop
  endfacet
  facet normal -1.961161e-001 0.000000e+000 0.000000e+000
    outer loop
      vertex   -7.000000e+001 1.770000e+002 -5.000000e-001
      vertex   -7.000000e+001 1.765000e+002 2.000000e+000
      vertex   -7.000000e+001 1.770000e+002 4.500000e+000
    endloop
  endfacet
  facet normal -1.944865e-002 0.000000e+000 0.000000e+000
    outer loop
      vertex   -7.000000e+001 1.770000e+002 4.500000e+000
      vertex   -7.000000e+001 1.765000e+002 2.000000e+000
      vertex   -7.000000e+001 1.764891e+002 2.180805e+000
    endloop
  endfacet
  facet normal -3.178969e-002 0.000000e+000 0.000000e+000
    outer loop
      vertex   -7.000000e+001 1.770000e+002 4.500000e+000
      vertex   -7.000000e+001 1.764891e+002 2.180805e+000
      vertex   -7.000000e+001 1.764564e+002 2.358974e+000
    endloop
  endfacet
  facet normal -5.232551e-001 0.000000e+000 0.000000e+000
    outer loop
      vertex   -7.000000e+001 1.764564e+002 2.358974e+000
      vertex   -7.000000e+001 1.764025e+002 2.531907e+000
      vertex   -7.000000e+001 1.770000e+002 4.500000e+000
    endloop
  endfacet
  facet normal -6.191077e-002 0.000000e+000 0.000000e+000
    outer loop
      vertex   -7.000000e+001 1.770000e+002 4.500000e+000
      vertex   -7.000000e+001 1.764025e+002 2.531907e+000
      vertex   -7.000000e+001 1.763282e+002 2.697085e+000
    endloop
  endfacet
  facet normal -7.811227e-002 0.000000e+000 0.000000e+000
    outer loop
      vertex   -7.000000e+001 1.770000e+002 4.500000e+000
      vertex   -7.000000e+001 1.763282e+002 2.697085e+000
      vertex   -7.000000e+001 1.762345e+002 2.852097e+000
    endloop
  endfacet
  facet normal -8.909565e-001 0.000000e+000 0.000000e+000
    outer loop
      vertex   -7.000000e+001 1.762345e+002 2.852097e+000
      vertex   -7.000000e+001 1.761228e+002 2.994684e+000
      vertex   -7.000000e+001 1.770000e+002 4.500000e+000
    endloop
  endfacet
  facet normal -1.027212e-001 0.000000e+000 0.000000e+000
    outer loop
      vertex   -7.000000e+001 1.770000e+002 4.500000e+000
      vertex   -7.000000e+001 1.761228e+002 2.994684e+000
      vertex   -7.000000e+001 1.759947e+002 3.122766e+000
    endloop
  endfacet
  facet normal -1.059572e-001 0.000000e+000 0.000000e+000
    outer loop
      vertex   -7.000000e+001 1.770000e+002 4.500000e+000
      vertex   -7.000000e+001 1.759947e+002 3.122766e+000
      vertex   -7.000000e+001 1.758521e+002 3.234476e+000
    endloop
  endfacet
  facet normal -9.814394e-001 0.000000e+000 0.000000e+000
    outer loop
      vertex   -7.000000e+001 1.758521e+002 3.234476e+000
      vertex   -7.000000e+001 1.756971e+002 3.328184e+000
      vertex   -7.000000e+001 1.770000e+002 4.500000e+000
    endloop
  endfacet
  facet normal -6.687093e-001 -0.000000e+000 0.000000e+000
    outer loop
      vertex   -7.000000e+001 1.770000e+002 4.500000e+000
      vertex   -7.000000e+001 1.756971e+002 3.328184e+000
      vertex   -7.000000e+001 1.750000e+002 4.500000e+000
    endloop
  endfacet
  facet normal -8.523498e-002 0.000000e+000 0.000000e+000
    outer loop
      vertex   -7.000000e+001 1.750000e+002 4.500000e+000
      vertex   -7.000000e+001 1.756971e+002 3.328184e+000
      vertex   -7.000000e+001 1.755319e+002 3.402524e+000
    endloop
  endfacet
  facet normal -1.197092e-001 0.000000e+000 0.000000e+000
    outer loop
      vertex   -7.000000e+001 1.750000e+002 4.500000e+000
      vertex   -7.000000e+001 1.755319e+002 3.402524e+000
      vertex   -7.000000e+001 1.753590e+002 3.456413e+000
    endloop
  endfacet
  facet normal -8.715003e-001 0.000000e+000 0.000000e+000
    outer loop
      vertex   -7.000000e+001 1.753590e+002 3.456413e+000
      vertex   -7.000000e+001 1.751808e+002 3.489063e+000
      vertex   -7.000000e+001 1.750000e+002 4.500000e+000
    endloop
  endfacet
  facet normal -1.760520e-001 0.000000e+000 0.000000e+000
    outer loop
      vertex   -7.000000e+001 1.750000e+002 4.500000e+000
      vertex   -7.000000e+001 1.751808e+002 3.489063e+000
      vertex   -7.000000e+001 1.750000e+002 3.500000e+000
    endloop
  endfacet
  facet normal 0.000000e+000 -1.000000e+000 0.000000e+000
    outer loop
      vertex   -7.000000e+001 1.750000e+002 3.500000e+000
      vertex   -6.500000e+001 1.750000e+002 3.500000e+000
      vertex   -7.000000e+001 1.750000e+002 4.500000e+000
    endloop
  endfacet
  facet normal 0.000000e+000 -1.961161e-001 0.000000e+000
    outer loop
      vertex   -7.000000e+001 1.750000e+002 4.500000e+000
      vertex   -6.500000e+001 1.750000e+002 3.500000e+000
      vertex   -6.500000e+001 1.750000e+002 4.500000e+000
    endloop
  endfacet
  facet normal 9.635179e-001 2.676439e-001 0.000000e+000
    outer loop
      vertex   -7.434218e+001 1.945000e+002 0.000000e+000
      vertex   -6.950000e+001 1.770682e+002 0.000000e+000
      vertex   -7.434218e+001 1.945000e+002 -5.000000e-001
    endloop
  endfacet
  facet normal 2.661832e-002 7.393978e-003 0.000000e+000
    outer loop
      vertex   -7.434218e+001 1.945000e+002 -5.000000e-001
      vertex   -6.950000e+001 1.770682e+002 0.000000e+000
      vertex   -6.950000e+001 1.770682e+002 -5.000000e-001
    endloop
  endfacet
  facet normal -0.000000e+000 -1.000000e+000 -0.000000e+000
    outer loop
      vertex   -6.933286e+001 1.945000e+002 0.000000e+000
      vertex   -7.434218e+001 1.945000e+002 0.000000e+000
      vertex   -6.933286e+001 1.945000e+002 -5.000000e-001
    endloop
  endfacet
  facet normal 0.000000e+000 -9.932036e-002 0.000000e+000
    outer loop
      vertex   -6.933286e+001 1.945000e+002 -5.000000e-001
      vertex   -7.434218e+001 1.945000e+002 0.000000e+000
      vertex   -7.434218e+001 1.945000e+002 -5.000000e-001
    endloop
  endfacet
  facet normal -9.813156e-001 -1.924052e-001 -0.000000e+000
    outer loop
      vertex   -6.560755e+001 1.755000e+002 0.000000e+000
      vertex   -6.933286e+001 1.945000e+002 0.000000e+000
      vertex   -6.560755e+001 1.755000e+002 -5.000000e-001
    endloop
  endfacet
  facet normal -2.533314e-002 -4.967033e-003 0.000000e+000
    outer loop
      vertex   -6.560755e+001 1.755000e+002 -5.000000e-001
      vertex   -6.933286e+001 1.945000e+002 0.000000e+000
      vertex   -6.933286e+001 1.945000e+002 -5.000000e-001
    endloop
  endfacet
  facet normal -0.000000e+000 1.000000e+000 0.000000e+000
    outer loop
      vertex   -6.950000e+001 1.755000e+002 0.000000e+000
      vertex   -6.560755e+001 1.755000e+002 0.000000e+000
      vertex   -6.950000e+001 1.755000e+002 -5.000000e-001
    endloop
  endfacet
  facet normal 0.000000e+000 1.274070e-001 0.000000e+000
    outer loop
      vertex   -6.950000e+001 1.755000e+002 -5.000000e-001
      vertex   -6.560755e+001 1.755000e+002 0.000000e+000
      vertex   -6.560755e+001 1.755000e+002 -5.000000e-001
    endloop
  endfacet
  facet normal 1.000000e+000 0.000000e+000 0.000000e+000
    outer loop
      vertex   -6.950000e+001 1.770682e+002 0.000000e+000
      vertex   -6.950000e+001 1.755000e+002 0.000000e+000
      vertex   -6.950000e+001 1.770682e+002 -5.000000e-001
    endloop
  endfacet
  facet normal 3.037772e-001 0.000000e+000 0.000000e+000
    outer loop
      vertex   -6.950000e+001 1.770682e+002 -5.000000e-001
      vertex   -6.950000e+001 1.755000e+002 0.000000e+000
      vertex   -6.950000e+001 1.755000e+002 -5.000000e-001
    endloop
  endfacet
  facet normal 0.000000e+000 0.000000e+000 -2.527847e-002
    outer loop
      vertex   -6.892137e+001 1.950000e+002 -5.000000e-001
      vertex   -6.500000e+001 1.750000e+002 -5.000000e-001
      vertex   -6.560755e+001 1.755000e+002 -5.000000e-001
    endloop
  endfacet
  facet normal 0.000000e+000 -0.000000e+000 -7.187050e-001
    outer loop
      vertex   -6.560755e+001 1.755000e+002 -5.000000e-001
      vertex   -6.500000e+001 1.750000e+002 -5.000000e-001
      vertex   -7.000000e+001 1.750000e+002 -5.000000e-001
    endloop
  endfacet
  facet normal -0.000000e+000 0.000000e+000 -1.131013e-001
    outer loop
      vertex   -6.560755e+001 1.755000e+002 -5.000000e-001
      vertex   -7.000000e+001 1.750000e+002 -5.000000e-001
      vertex   -6.950000e+001 1.755000e+002 -5.000000e-001
    endloop
  endfacet
  facet normal -0.000000e+000 0.000000e+000 -8.944272e-001
    outer loop
      vertex   -6.950000e+001 1.755000e+002 -5.000000e-001
      vertex   -7.000000e+001 1.750000e+002 -5.000000e-001
      vertex   -7.000000e+001 1.770000e+002 -5.000000e-001
    endloop
  endfacet
  facet normal 0.000000e+000 0.000000e+000 -3.162278e-001
    outer loop
      vertex   -6.950000e+001 1.755000e+002 -5.000000e-001
      vertex   -7.000000e+001 1.770000e+002 -5.000000e-001
      vertex   -6.950000e+001 1.770682e+002 -5.000000e-001
    endloop
  endfacet
  facet normal -0.000000e+000 0.000000e+000 -9.908393e-001
    outer loop
      vertex   -6.950000e+001 1.770682e+002 -5.000000e-001
      vertex   -7.000000e+001 1.770000e+002 -5.000000e-001
      vertex   -7.434218e+001 1.945000e+002 -5.000000e-001
    endloop
  endfacet
  facet normal -0.000000e+000 -0.000000e+000 -6.269715e-001
    outer loop
      vertex   -7.434218e+001 1.945000e+002 -5.000000e-001
      vertex   -7.000000e+001 1.770000e+002 -5.000000e-001
      vertex   -7.500000e+001 1.950000e+002 -5.000000e-001
    endloop
  endfacet
  facet normal 0.000000e+000 0.000000e+000 -6.756905e-001
    outer loop
      vertex   -7.434218e+001 1.945000e+002 -5.000000e-001
      vertex   -7.500000e+001 1.950000e+002 -5.000000e-001
      vertex   -6.892137e+001 1.950000e+002 -5.000000e-001
    endloop
  endfacet
  facet normal 0.000000e+000 0.000000e+000 -2.527851e-002
    outer loop
      vertex   -6.560755e+001 1.755000e+002 -5.000000e-001
      vertex   -6.933286e+001 1.945000e+002 -5.000000e-001
      vertex   -6.892137e+001 1.950000e+002 -5.000000e-001
    endloop
  endfacet
  facet normal 0.000000e+000 0.000000e+000 -7.105151e-001
    outer loop
      vertex   -6.892137e+001 1.950000e+002 -5.000000e-001
      vertex   -6.933286e+001 1.945000e+002 -5.000000e-001
      vertex   -7.434218e+001 1.945000e+002 -5.000000e-001
    endloop
  endfacet
  facet normal 0.000000e+000 -1.000000e+000 0.000000e+000
    outer loop
      vertex   -7.434218e+001 1.945000e+002 4.000000e+000
      vertex   -6.933286e+001 1.945000e+002 4.000000e+000
      vertex   -7.434218e+001 1.945000e+002 4.500000e+000
    endloop
  endfacet
  facet normal 0.000000e+000 -9.932036e-002 0.000000e+000
    outer loop
      vertex   -7.434218e+001 1.945000e+002 4.500000e+000
      vertex   -6.933286e+001 1.945000e+002 4.000000e+000
      vertex   -6.933286e+001 1.945000e+002 4.500000e+000
    endloop
  endfacet
  facet normal -9.813156e-001 -1.924052e-001 0.000000e+000
    outer loop
      vertex   -6.933286e+001 1.945000e+002 4.000000e+000
      vertex   -6.560755e+001 1.755000e+002 4.000000e+000
      vertex   -6.933286e+001 1.945000e+002 4.500000e+000
    endloop
  endfacet
  facet normal -2.533314e-002 -4.967033e-003 0.000000e+000
    outer loop
      vertex   -6.933286e+001 1.945000e+002 4.500000e+000
      vertex   -6.560755e+001 1.755000e+002 4.000000e+000
      vertex   -6.560755e+001 1.755000e+002 4.500000e+000
    endloop
  endfacet
  facet normal 0.000000e+000 1.000000e+000 -0.000000e+000
    outer loop
      vertex   -6.560755e+001 1.755000e+002 4.000000e+000
      vertex   -6.950000e+001 1.755000e+002 4.000000e+000
      vertex   -6.560755e+001 1.755000e+002 4.500000e+000
    endloop
  endfacet
  facet normal 0.000000e+000 1.274070e-001 0.000000e+000
    outer loop
      vertex   -6.560755e+001 1.755000e+002 4.500000e+000
      vertex   -6.950000e+001 1.755000e+002 4.000000e+000
      vertex   -6.950000e+001 1.755000e+002 4.500000e+000
    endloop
  endfacet
  facet normal 9.635179e-001 2.676439e-001 -0.000000e+000
    outer loop
      vertex   -6.950000e+001 1.770682e+002 4.000000e+000
      vertex   -7.434218e+001 1.945000e+002 4.000000e+000
      vertex   -6.950000e+001 1.770682e+002 4.500000e+000
    endloop
  endfacet
  facet normal 2.661832e-002 7.393978e-003 0.000000e+000
    outer loop
      vertex   -6.950000e+001 1.770682e+002 4.500000e+000
      vertex   -7.434218e+001 1.945000e+002 4.000000e+000
      vertex   -7.434218e+001 1.945000e+002 4.500000e+000
    endloop
  endfacet
  facet normal 1.000000e+000 0.000000e+000 0.000000e+000
    outer loop
      vertex   -6.950000e+001 1.755000e+002 4.000000e+000
      vertex   -6.950000e+001 1.770682e+002 4.000000e+000
      vertex   -6.950000e+001 1.755000e+002 4.500000e+000
    endloop
  endfacet
  facet normal 3.037772e-001 -0.000000e+000 0.000000e+000
    outer loop
      vertex   -6.950000e+001 1.755000e+002 4.500000e+000
      vertex   -6.950000e+001 1.770682e+002 4.000000e+000
      vertex   -6.950000e+001 1.770682e+002 4.500000e+000
    endloop
  endfacet
  facet normal 0.000000e+000 0.000000e+000 6.354523e-001
    outer loop
      vertex   -6.500000e+001 1.750000e+002 4.500000e+000
      vertex   -6.560755e+001 1.755000e+002 4.500000e+000
      vertex   -7.000000e+001 1.750000e+002 4.500000e+000
    endloop
  endfacet
  facet normal 0.000000e+000 0.000000e+000 6.225949e-001
    outer loop
      vertex   -7.000000e+001 1.750000e+002 4.500000e+000
      vertex   -6.560755e+001 1.755000e+002 4.500000e+000
      vertex   -6.950000e+001 1.755000e+002 4.500000e+000
    endloop
  endfacet
  facet normal 0.000000e+000 0.000000e+000 7.071068e-001
    outer loop
      vertex   -7.000000e+001 1.750000e+002 4.500000e+000
      vertex   -6.950000e+001 1.755000e+002 4.500000e+000
      vertex   -7.000000e+001 1.770000e+002 4.500000e+000
    endloop
  endfacet
  facet normal -0.000000e+000 0.000000e+000 9.827030e-001
    outer loop
      vertex   -7.000000e+001 1.770000e+002 4.500000e+000
      vertex   -6.950000e+001 1.755000e+002 4.500000e+000
      vertex   -6.950000e+001 1.770682e+002 4.500000e+000
    endloop
  endfacet
  facet normal 0.000000e+000 -0.000000e+000 9.942032e-001
    outer loop
      vertex   -7.000000e+001 1.770000e+002 4.500000e+000
      vertex   -6.950000e+001 1.770682e+002 4.500000e+000
      vertex   -7.434218e+001 1.945000e+002 4.500000e+000
    endloop
  endfacet
  facet normal 0.000000e+000 0.000000e+000 6.354488e-001
    outer loop
      vertex   -6.500000e+001 1.750000e+002 4.500000e+000
      vertex   -6.892137e+001 1.950000e+002 4.500000e+000
      vertex   -6.560755e+001 1.755000e+002 4.500000e+000
    endloop
  endfacet
  facet normal 0.000000e+000 0.000000e+000 2.527851e-002
    outer loop
      vertex   -6.560755e+001 1.755000e+002 4.500000e+000
      vertex   -6.892137e+001 1.950000e+002 4.500000e+000
      vertex   -6.933286e+001 1.945000e+002 4.500000e+000
    endloop
  endfacet
  facet normal 0.000000e+000 -0.000000e+000 7.721431e-001
    outer loop
      vertex   -6.933286e+001 1.945000e+002 4.500000e+000
      vertex   -6.892137e+001 1.950000e+002 4.500000e+000
      vertex   -7.434218e+001 1.945000e+002 4.500000e+000
    endloop
  endfacet
  facet normal 0.000000e+000 -0.000000e+000 6.756905e-001
    outer loop
      vertex   -7.434218e+001 1.945000e+002 4.500000e+000
      vertex   -6.892137e+001 1.950000e+002 4.500000e+000
      vertex   -7.500000e+001 1.950000e+002 4.500000e+000
    endloop
  endfacet
  facet normal 0.000000e+000 0.000000e+000 6.269715e-001
    outer loop
      vertex   -7.434218e+001 1.945000e+002 4.500000e+000
      vertex   -7.500000e+001 1.950000e+002 4.500000e+000
      vertex   -7.000000e+001 1.770000e+002 4.500000e+000
    endloop
  endfacet
  facet normal 0.000000e+000 0.000000e+000 1.000000e+000
    outer loop
      vertex   -6.950000e+001 1.755000e+002 4.000000e+000
      vertex   -6.560755e+001 1.755000e+002 4.000000e+000
      vertex   -6.950000e+001 1.770682e+002 4.000000e+000
    endloop
  endfacet
  facet normal -0.000000e+000 0.000000e+000 9.310953e-001
    outer loop
      vertex   -6.950000e+001 1.770682e+002 4.000000e+000
      vertex   -6.560755e+001 1.755000e+002 4.000000e+000
      vertex   -6.933286e+001 1.945000e+002 4.000000e+000
    endloop
  endfacet
  facet normal 0.000000e+000 -0.000000e+000 2.768699e-001
    outer loop
      vertex   -6.950000e+001 1.770682e+002 4.000000e+000
      vertex   -6.933286e+001 1.945000e+002 4.000000e+000
      vertex   -7.434218e+001 1.945000e+002 4.000000e+000
    endloop
  endfacet
  facet normal -9.635179e-001 -2.676439e-001 -0.000000e+000
    outer loop
      vertex   -7.000000e+001 1.770000e+002 4.500000e+000
      vertex   -7.500000e+001 1.950000e+002 4.500000e+000
      vertex   -7.000000e+001 1.770000e+002 -5.000000e-001
    endloop
  endfacet
  facet normal -2.491116e-001 -6.919768e-002 0.000000e+000
    outer loop
      vertex   -7.000000e+001 1.770000e+002 -5.000000e-001
      vertex   -7.500000e+001 1.950000e+002 4.500000e+000
      vertex   -7.500000e+001 1.950000e+002 -5.000000e-001
    endloop
  endfacet
  facet normal -0.000000e+000 1.000000e+000 0.000000e+000
    outer loop
      vertex   -7.500000e+001 1.950000e+002 4.500000e+000
      vertex   -6.892137e+001 1.950000e+002 4.500000e+000
      vertex   -7.500000e+001 1.950000e+002 -5.000000e-001
    endloop
  endfacet
  facet normal 0.000000e+000 6.352583e-001 0.000000e+000
    outer loop
      vertex   -7.500000e+001 1.950000e+002 -5.000000e-001
      vertex   -6.892137e+001 1.950000e+002 4.500000e+000
      vertex   -6.892137e+001 1.950000e+002 -5.000000e-001
    endloop
  endfacet
  facet normal 9.795868e-001 1.920896e-001 -0.000000e+000
    outer loop
      vertex   -6.500000e+001 1.750000e+002 3.500000e+000
      vertex   -6.503545e+001 1.751808e+002 3.489063e+000
      vertex   -6.500000e+001 1.750000e+002 4.500000e+000
    endloop
  endfacet
  facet normal 1.533169e-001 3.005381e-002 -1.874461e-006
    outer loop
      vertex   -6.500000e+001 1.750000e+002 4.500000e+000
      vertex   -6.503545e+001 1.751808e+002 3.489063e+000
      vertex   -6.507038e+001 1.753590e+002 3.456413e+000
    endloop
  endfacet
  facet normal 1.190321e-001 2.334393e-002 2.248598e-006
    outer loop
      vertex   -6.500000e+001 1.750000e+002 4.500000e+000
      vertex   -6.507038e+001 1.753590e+002 3.456413e+000
      vertex   -6.510429e+001 1.755319e+002 3.402524e+000
    endloop
  endfacet
  facet normal 6.292928e-001 1.233504e-001 -1.868711e-005
    outer loop
      vertex   -6.510429e+001 1.755319e+002 3.402524e+000
      vertex   -6.513667e+001 1.756971e+002 3.328184e+000
      vertex   -6.500000e+001 1.750000e+002 4.500000e+000
    endloop
  endfacet
  facet normal 8.391672e-001 1.645343e-001 2.149260e-006
    outer loop
      vertex   -6.500000e+001 1.750000e+002 4.500000e+000
      vertex   -6.513667e+001 1.756971e+002 3.328184e+000
      vertex   -6.892137e+001 1.950000e+002 4.500000e+000
    endloop
  endfacet
  facet normal 5.165979e-003 1.012893e-003 -1.053283e-007
    outer loop
      vertex   -6.892137e+001 1.950000e+002 4.500000e+000
      vertex   -6.513667e+001 1.756971e+002 3.328184e+000
      vertex   -6.516707e+001 1.758521e+002 3.234476e+000
    endloop
  endfacet
  facet normal 6.109450e-003 1.197858e-003 2.010471e-007
    outer loop
      vertex   -6.892137e+001 1.950000e+002 4.500000e+000
      vertex   -6.516707e+001 1.758521e+002 3.234476e+000
      vertex   -6.519502e+001 1.759947e+002 3.122766e+000
    endloop
  endfacet
  facet normal 7.352688e-001 1.441645e-001 -1.619261e-005
    outer loop
      vertex   -6.519502e+001 1.759947e+002 3.122766e+000
      vertex   -6.522014e+001 1.761228e+002 2.994684e+000
      vertex   -6.892137e+001 1.950000e+002 4.500000e+000
    endloop
  endfacet
  facet normal 7.721874e-003 1.514023e-003 -6.321646e-008
    outer loop
      vertex   -6.892137e+001 1.950000e+002 4.500000e+000
      vertex   -6.522014e+001 1.761228e+002 2.994684e+000
      vertex   -6.524204e+001 1.762345e+002 2.852097e+000
    endloop
  endfacet
  facet normal 8.350505e-003 1.637268e-003 4.471436e-008
    outer loop
      vertex   -6.892137e+001 1.950000e+002 4.500000e+000
      vertex   -6.524204e+001 1.762345e+002 2.852097e+000
      vertex   -6.526041e+001 1.763282e+002 2.697085e+000
    endloop
  endfacet
  facet normal 9.265884e-001 1.816770e-001 -2.079853e-005
    outer loop
      vertex   -6.526041e+001 1.763282e+002 2.697085e+000
      vertex   -6.527499e+001 1.764025e+002 2.531907e+000
      vertex   -6.892137e+001 1.950000e+002 4.500000e+000
    endloop
  endfacet
  facet normal 9.168373e-003 1.797602e-003 2.487788e-007
    outer loop
      vertex   -6.892137e+001 1.950000e+002 4.500000e+000
      vertex   -6.527499e+001 1.764025e+002 2.531907e+000
      vertex   -6.528555e+001 1.764564e+002 2.358974e+000
    endloop
  endfacet
  facet normal 9.334399e-003 1.830221e-003 -3.233012e-007
    outer loop
      vertex   -6.892137e+001 1.950000e+002 4.500000e+000
      vertex   -6.528555e+001 1.764564e+002 2.358974e+000
      vertex   -6.529196e+001 1.764891e+002 2.180805e+000
    endloop
  endfacet
  facet normal 9.795055e-001 1.920492e-001 6.646673e-006
    outer loop
      vertex   -6.529196e+001 1.764891e+002 2.180805e+000
      vertex   -6.529411e+001 1.765000e+002 2.000000e+000
      vertex   -6.892137e+001 1.950000e+002 4.500000e+000
    endloop
  endfacet
  facet normal 9.727993e-001 1.907352e-001 0.000000e+000
    outer loop
      vertex   -6.892137e+001 1.950000e+002 4.500000e+000
      vertex   -6.529411e+001 1.765000e+002 2.000000e+000
      vertex   -6.892137e+001 1.950000e+002 -5.000000e-001
    endloop
  endfacet
  facet normal 9.330240e-003 1.829357e-003 -6.331262e-008
    outer loop
      vertex   -6.892137e+001 1.950000e+002 -5.000000e-001
      vertex   -6.529411e+001 1.765000e+002 2.000000e+000
      vertex   -6.529196e+001 1.764891e+002 1.819195e+000
    endloop
  endfacet
  facet normal 9.334399e-003 1.830221e-003 3.233012e-007
    outer loop
      vertex   -6.892137e+001 1.950000e+002 -5.000000e-001
      vertex   -6.529196e+001 1.764891e+002 1.819195e+000
      vertex   -6.528555e+001 1.764564e+002 1.641026e+000
    endloop
  endfacet
  facet normal 9.627942e-001 1.887708e-001 -2.612489e-005
    outer loop
      vertex   -6.528555e+001 1.764564e+002 1.641026e+000
      vertex   -6.527499e+001 1.764025e+002 1.468093e+000
      vertex   -6.892137e+001 1.950000e+002 -5.000000e-001
    endloop
  endfacet
  facet normal 8.837285e-003 1.732734e-003 1.983646e-007
    outer loop
      vertex   -6.892137e+001 1.950000e+002 -5.000000e-001
      vertex   -6.527499e+001 1.764025e+002 1.468093e+000
      vertex   -6.526041e+001 1.763282e+002 1.302915e+000
    endloop
  endfacet
  facet normal 8.350505e-003 1.637268e-003 -4.471436e-008
    outer loop
      vertex   -6.892137e+001 1.950000e+002 -5.000000e-001
      vertex   -6.526041e+001 1.763282e+002 1.302915e+000
      vertex   -6.524204e+001 1.762345e+002 1.147903e+000
    endloop
  endfacet
  facet normal 8.166234e-001 1.601148e-001 6.685434e-006
    outer loop
      vertex   -6.524204e+001 1.762345e+002 1.147903e+000
      vertex   -6.522014e+001 1.761228e+002 1.005316e+000
      vertex   -6.892137e+001 1.950000e+002 -5.000000e-001
    endloop
  endfacet
  facet normal 6.968355e-003 1.366288e-003 1.534620e-007
    outer loop
      vertex   -6.892137e+001 1.950000e+002 -5.000000e-001
      vertex   -6.522014e+001 1.761228e+002 1.005316e+000
      vertex   -6.519502e+001 1.759947e+002 8.772339e-001
    endloop
  endfacet
  facet normal 6.109443e-003 1.197857e-003 -2.010471e-007
    outer loop
      vertex   -6.892137e+001 1.950000e+002 -5.000000e-001
      vertex   -6.519502e+001 1.759947e+002 8.772339e-001
      vertex   -6.516707e+001 1.758521e+002 7.655242e-001
    endloop
  endfacet
  facet normal 5.542417e-001 1.086701e-001 1.130034e-005
    outer loop
      vertex   -6.516707e+001 1.758521e+002 7.655242e-001
      vertex   -6.513667e+001 1.756971e+002 6.718159e-001
      vertex   -6.892137e+001 1.950000e+002 -5.000000e-001
    endloop
  endfacet
  facet normal 5.835587e-002 1.144175e-002 -1.494600e-007
    outer loop
      vertex   -6.892137e+001 1.950000e+002 -5.000000e-001
      vertex   -6.513667e+001 1.756971e+002 6.718159e-001
      vertex   -6.500000e+001 1.750000e+002 -5.000000e-001
    endloop
  endfacet
  facet normal 8.450160e-002 1.656353e-002 2.509309e-006
    outer loop
      vertex   -6.500000e+001 1.750000e+002 -5.000000e-001
      vertex   -6.513667e+001 1.756971e+002 6.718159e-001
      vertex   -6.510429e+001 1.755319e+002 5.974756e-001
    endloop
  endfacet
  facet normal 1.190320e-001 2.334392e-002 -2.248598e-006
    outer loop
      vertex   -6.500000e+001 1.750000e+002 -5.000000e-001
      vertex   -6.510429e+001 1.755319e+002 5.974756e-001
      vertex   -6.507038e+001 1.753590e+002 5.435873e-001
    endloop
  endfacet
  facet normal 8.540030e-001 1.674052e-001 1.044109e-005
    outer loop
      vertex   -6.507038e+001 1.753590e+002 5.435873e-001
      vertex   -6.503545e+001 1.751808e+002 5.109367e-001
      vertex   -6.500000e+001 1.750000e+002 -5.000000e-001
    endloop
  endfacet
  facet normal 1.759472e-001 3.450192e-002 -0.000000e+000
    outer loop
      vertex   -6.500000e+001 1.750000e+002 -5.000000e-001
      vertex   -6.503545e+001 1.751808e+002 5.109367e-001
      vertex   -6.500000e+001 1.750000e+002 5.000000e-001
    endloop
  endfacet
  facet normal -0.000000e+000 -1.000000e+000 -0.000000e+000
    outer loop
      vertex   -6.500000e+001 1.750000e+002 5.000000e-001
      vertex   -7.000000e+001 1.750000e+002 5.000000e-001
      vertex   -6.500000e+001 1.750000e+002 -5.000000e-001
    endloop
  endfacet
  facet normal 0.000000e+000 -1.961161e-001 0.000000e+000
    outer loop
      vertex   -6.500000e+001 1.750000e+002 -5.000000e-001
      vertex   -7.000000e+001 1.750000e+002 5.000000e-001
      vertex   -7.000000e+001 1.750000e+002 -5.000000e-001
    endloop
  endfacet
  facet normal 0.000000e+000 0.000000e+000 -9.635179e-001
    outer loop
      vertex   -7.434218e+001 1.945000e+002 0.000000e+000
      vertex   -6.933286e+001 1.945000e+002 0.000000e+000
      vertex   -6.950000e+001 1.770682e+002 0.000000e+000
    endloop
  endfacet
  facet normal 0.000000e+000 0.000000e+000 -9.310953e-001
    outer loop
      vertex   -6.950000e+001 1.770682e+002 0.000000e+000
      vertex   -6.933286e+001 1.945000e+002 0.000000e+000
      vertex   -6.560755e+001 1.755000e+002 0.000000e+000
    endloop
  endfacet
  facet normal 0.000000e+000 0.000000e+000 -9.275550e-001
    outer loop
      vertex   -6.950000e+001 1.770682e+002 0.000000e+000
      vertex   -6.560755e+001 1.755000e+002 0.000000e+000
      vertex   -6.950000e+001 1.755000e+002 0.000000e+000
    endloop
  endfacet
endsolid
