solid ascii
  facet normal -9.993764e-001 3.530984e-002 0.000000e+000
    outer loop
      vertex   -1.544888e+002 5.031742e+001 5.000000e+000
      vertex   -1.544888e+002 5.031742e+001 0.000000e+000
      vertex   -1.545000e+002 5.000000e+001 5.000000e+000
    endloop
  endfacet
  facet normal -6.335725e-002 2.238530e-003 0.000000e+000
    outer loop
      vertex   -1.545000e+002 5.000000e+001 5.000000e+000
      vertex   -1.544888e+002 5.031742e+001 0.000000e+000
      vertex   -1.545000e+002 5.000000e+001 0.000000e+000
    endloop
  endfacet
  facet normal -9.993764e-001 -3.530984e-002 -0.000000e+000
    outer loop
      vertex   -1.545000e+002 5.000000e+001 5.000000e+000
      vertex   -1.545000e+002 5.000000e+001 0.000000e+000
      vertex   -1.544888e+002 4.968258e+001 5.000000e+000
    endloop
  endfacet
  facet normal -6.335725e-002 -2.238530e-003 -0.000000e+000
    outer loop
      vertex   -1.544888e+002 4.968258e+001 5.000000e+000
      vertex   -1.545000e+002 5.000000e+001 0.000000e+000
      vertex   -1.544888e+002 4.968258e+001 0.000000e+000
    endloop
  endfacet
  facet normal -9.943992e-001 -1.056888e-001 -0.000000e+000
    outer loop
      vertex   -1.544888e+002 4.968258e+001 5.000000e+000
      vertex   -1.544888e+002 4.968258e+001 0.000000e+000
      vertex   -1.544552e+002 4.936673e+001 5.000000e+000
    endloop
  endfacet
  facet normal -6.304202e-002 -6.700362e-003 -0.000000e+000
    outer loop
      vertex   -1.544552e+002 4.936673e+001 5.000000e+000
      vertex   -1.544888e+002 4.968258e+001 0.000000e+000
      vertex   -1.544552e+002 4.936673e+001 0.000000e+000
    endloop
  endfacet
  facet normal -9.844636e-001 -1.755890e-001 -0.000000e+000
    outer loop
      vertex   -1.544552e+002 4.936673e+001 5.000000e+000
      vertex   -1.544552e+002 4.936673e+001 0.000000e+000
      vertex   -1.543994e+002 4.905404e+001 5.000000e+000
    endloop
  endfacet
  facet normal -6.241158e-002 -1.113174e-002 -0.000000e+000
    outer loop
      vertex   -1.543994e+002 4.905404e+001 5.000000e+000
      vertex   -1.544552e+002 4.936673e+001 0.000000e+000
      vertex   -1.543994e+002 4.905404e+001 0.000000e+000
    endloop
  endfacet
  facet normal -9.696303e-001 -2.445754e-001 -0.000000e+000
    outer loop
      vertex   -1.543994e+002 4.905404e+001 5.000000e+000
      vertex   -1.543994e+002 4.905404e+001 0.000000e+000
      vertex   -1.543218e+002 4.874607e+001 5.000000e+000
    endloop
  endfacet
  facet normal -6.147125e-002 -1.550525e-002 -0.000000e+000
    outer loop
      vertex   -1.543218e+002 4.874607e+001 5.000000e+000
      vertex   -1.543994e+002 4.905404e+001 0.000000e+000
      vertex   -1.543218e+002 4.874607e+001 0.000000e+000
    endloop
  endfacet
  facet normal -9.499641e-001 -3.123591e-001 -0.000000e+000
    outer loop
      vertex   -1.543218e+002 4.874607e+001 5.000000e+000
      vertex   -1.543218e+002 4.874607e+001 0.000000e+000
      vertex   -1.542225e+002 4.844434e+001 5.000000e+000
    endloop
  endfacet
  facet normal -6.022483e-002 -1.980261e-002 -0.000000e+000
    outer loop
      vertex   -1.542225e+002 4.844434e+001 5.000000e+000
      vertex   -1.543218e+002 4.874607e+001 0.000000e+000
      vertex   -1.542225e+002 4.844434e+001 0.000000e+000
    endloop
  endfacet
  facet normal -9.255579e-001 -3.786062e-001 -0.000000e+000
    outer loop
      vertex   -1.542225e+002 4.844434e+001 5.000000e+000
      vertex   -1.542225e+002 4.844434e+001 0.000000e+000
      vertex   -1.541023e+002 4.815036e+001 5.000000e+000
    endloop
  endfacet
  facet normal -5.867765e-002 -2.400252e-002 -0.000000e+000
    outer loop
      vertex   -1.541023e+002 4.815036e+001 5.000000e+000
      vertex   -1.542225e+002 4.844434e+001 0.000000e+000
      vertex   -1.541023e+002 4.815036e+001 0.000000e+000
    endloop
  endfacet
  facet normal -8.965524e-001 -4.429376e-001 -0.000000e+000
    outer loop
      vertex   -1.541023e+002 4.815036e+001 5.000000e+000
      vertex   -1.541023e+002 4.815036e+001 0.000000e+000
      vertex   -1.539616e+002 4.786559e+001 5.000000e+000
    endloop
  endfacet
  facet normal -5.683810e-002 -2.808061e-002 -0.000000e+000
    outer loop
      vertex   -1.539616e+002 4.786559e+001 5.000000e+000
      vertex   -1.541023e+002 4.815036e+001 0.000000e+000
      vertex   -1.539616e+002 4.786559e+001 0.000000e+000
    endloop
  endfacet
  facet normal -8.630645e-001 -5.050937e-001 -0.000000e+000
    outer loop
      vertex   -1.539616e+002 4.786559e+001 5.000000e+000
      vertex   -1.539616e+002 4.786559e+001 0.000000e+000
      vertex   -1.538012e+002 4.759146e+001 5.000000e+000
    endloop
  endfacet
  facet normal -5.471607e-002 -3.202163e-002 -0.000000e+000
    outer loop
      vertex   -1.538012e+002 4.759146e+001 5.000000e+000
      vertex   -1.539616e+002 4.786559e+001 0.000000e+000
      vertex   -1.538012e+002 4.759146e+001 0.000000e+000
    endloop
  endfacet
  facet normal -8.252860e-001 -5.647149e-001 -0.000000e+000
    outer loop
      vertex   -1.538012e+002 4.759146e+001 5.000000e+000
      vertex   -1.538012e+002 4.759146e+001 0.000000e+000
      vertex   -1.536218e+002 4.732933e+001 5.000000e+000
    endloop
  endfacet
  facet normal -5.232069e-002 -3.580125e-002 -0.000000e+000
    outer loop
      vertex   -1.536218e+002 4.732933e+001 5.000000e+000
      vertex   -1.538012e+002 4.759146e+001 0.000000e+000
      vertex   -1.536218e+002 4.732933e+001 0.000000e+000
    endloop
  endfacet
  facet normal -7.834073e-001 -6.215086e-001 -0.000000e+000
    outer loop
      vertex   -1.536218e+002 4.732933e+001 5.000000e+000
      vertex   -1.536218e+002 4.732933e+001 0.000000e+000
      vertex   -1.534244e+002 4.708051e+001 5.000000e+000
    endloop
  endfacet
  facet normal -4.966491e-002 -3.940117e-002 -0.000000e+000
    outer loop
      vertex   -1.534244e+002 4.708051e+001 5.000000e+000
      vertex   -1.536218e+002 4.732933e+001 0.000000e+000
      vertex   -1.534244e+002 4.708051e+001 0.000000e+000
    endloop
  endfacet
  facet normal -7.375967e-001 -6.752415e-001 -0.000000e+000
    outer loop
      vertex   -1.534244e+002 4.708051e+001 5.000000e+000
      vertex   -1.534244e+002 4.708051e+001 0.000000e+000
      vertex   -1.532099e+002 4.684622e+001 5.000000e+000
    endloop
  endfacet
  facet normal -4.676243e-002 -4.280921e-002 -0.000000e+000
    outer loop
      vertex   -1.532099e+002 4.684622e+001 5.000000e+000
      vertex   -1.534244e+002 4.708051e+001 0.000000e+000
      vertex   -1.532099e+002 4.684622e+001 0.000000e+000
    endloop
  endfacet
  facet normal -6.881469e-001 -7.255713e-001 -0.000000e+000
    outer loop
      vertex   -1.532099e+002 4.684622e+001 5.000000e+000
      vertex   -1.532099e+002 4.684622e+001 0.000000e+000
      vertex   -1.529795e+002 4.662766e+001 5.000000e+000
    endloop
  endfacet
  facet normal -4.362545e-002 -4.599798e-002 -0.000000e+000
    outer loop
      vertex   -1.529795e+002 4.662766e+001 5.000000e+000
      vertex   -1.532099e+002 4.684622e+001 0.000000e+000
      vertex   -1.529795e+002 4.662766e+001 0.000000e+000
    endloop
  endfacet
  facet normal -6.352546e-001 -7.723028e-001 -0.000000e+000
    outer loop
      vertex   -1.529795e+002 4.662766e+001 5.000000e+000
      vertex   -1.529795e+002 4.662766e+001 0.000000e+000
      vertex   -1.527342e+002 4.642588e+001 5.000000e+000
    endloop
  endfacet
  facet normal -4.027298e-002 -4.896137e-002 -0.000000e+000
    outer loop
      vertex   -1.527342e+002 4.642588e+001 5.000000e+000
      vertex   -1.529795e+002 4.662766e+001 0.000000e+000
      vertex   -1.527342e+002 4.642588e+001 0.000000e+000
    endloop
  endfacet
  facet normal -5.791857e-001 -8.151956e-001 -0.000000e+000
    outer loop
      vertex   -1.527342e+002 4.642588e+001 5.000000e+000
      vertex   -1.527342e+002 4.642588e+001 0.000000e+000
      vertex   -1.524753e+002 4.624192e+001 5.000000e+000
    endloop
  endfacet
  facet normal -3.671874e-002 -5.168111e-002 -0.000000e+000
    outer loop
      vertex   -1.524753e+002 4.624192e+001 5.000000e+000
      vertex   -1.527342e+002 4.642588e+001 0.000000e+000
      vertex   -1.524753e+002 4.624192e+001 0.000000e+000
    endloop
  endfacet
  facet normal -5.202349e-001 -8.540232e-001 -0.000000e+000
    outer loop
      vertex   -1.524753e+002 4.624192e+001 5.000000e+000
      vertex   -1.524753e+002 4.624192e+001 0.000000e+000
      vertex   -1.522040e+002 4.607668e+001 5.000000e+000
    endloop
  endfacet
  facet normal -3.298101e-002 -5.414197e-002 -0.000000e+000
    outer loop
      vertex   -1.522040e+002 4.607668e+001 5.000000e+000
      vertex   -1.524753e+002 4.624192e+001 0.000000e+000
      vertex   -1.522040e+002 4.607668e+001 0.000000e+000
    endloop
  endfacet
  facet normal -4.586965e-001 -8.885930e-001 -0.000000e+000
    outer loop
      vertex   -1.522040e+002 4.607668e+001 5.000000e+000
      vertex   -1.522040e+002 4.607668e+001 0.000000e+000
      vertex   -1.519218e+002 4.593099e+001 5.000000e+000
    endloop
  endfacet
  facet normal -2.908033e-002 -5.633481e-002 -0.000000e+000
    outer loop
      vertex   -1.519218e+002 4.593099e+001 5.000000e+000
      vertex   -1.522040e+002 4.607668e+001 0.000000e+000
      vertex   -1.519218e+002 4.593099e+001 0.000000e+000
    endloop
  endfacet
  facet normal -3.948830e-001 -9.187314e-001 -0.000000e+000
    outer loop
      vertex   -1.519218e+002 4.593099e+001 5.000000e+000
      vertex   -1.519218e+002 4.593099e+001 0.000000e+000
      vertex   -1.516299e+002 4.580556e+001 5.000000e+000
    endloop
  endfacet
  facet normal -2.503423e-002 -5.824442e-002 -0.000000e+000
    outer loop
      vertex   -1.516299e+002 4.580556e+001 5.000000e+000
      vertex   -1.519218e+002 4.593099e+001 0.000000e+000
      vertex   -1.516299e+002 4.580556e+001 0.000000e+000
    endloop
  endfacet
  facet normal -3.290940e-001 -9.442972e-001 -0.000000e+000
    outer loop
      vertex   -1.516299e+002 4.580556e+001 5.000000e+000
      vertex   -1.516299e+002 4.580556e+001 0.000000e+000
      vertex   -1.513300e+002 4.570104e+001 5.000000e+000
    endloop
  endfacet
  facet normal -2.086325e-002 -5.986469e-002 -0.000000e+000
    outer loop
      vertex   -1.513300e+002 4.570104e+001 5.000000e+000
      vertex   -1.516299e+002 4.580556e+001 0.000000e+000
      vertex   -1.513300e+002 4.570104e+001 0.000000e+000
    endloop
  endfacet
  facet normal -2.616476e-001 -9.651635e-001 -0.000000e+000
    outer loop
      vertex   -1.513300e+002 4.570104e+001 5.000000e+000
      vertex   -1.513300e+002 4.570104e+001 0.000000e+000
      vertex   -1.510235e+002 4.561793e+001 5.000000e+000
    endloop
  endfacet
  facet normal -1.658796e-002 -6.118952e-002 -0.000000e+000
    outer loop
      vertex   -1.510235e+002 4.561793e+001 5.000000e+000
      vertex   -1.513300e+002 4.570104e+001 0.000000e+000
      vertex   -1.510235e+002 4.561793e+001 0.000000e+000
    endloop
  endfacet
  facet normal -1.929278e-001 -9.812130e-001 -0.000000e+000
    outer loop
      vertex   -1.510235e+002 4.561793e+001 5.000000e+000
      vertex   -1.510235e+002 4.561793e+001 0.000000e+000
      vertex   -1.507118e+002 4.555665e+001 5.000000e+000
    endloop
  endfacet
  facet normal -1.223120e-002 -6.220676e-002 -0.000000e+000
    outer loop
      vertex   -1.507118e+002 4.555665e+001 5.000000e+000
      vertex   -1.510235e+002 4.561793e+001 0.000000e+000
      vertex   -1.507118e+002 4.555665e+001 0.000000e+000
    endloop
  endfacet
  facet normal -1.232365e-001 -9.923773e-001 -0.000000e+000
    outer loop
      vertex   -1.507118e+002 4.555665e+001 5.000000e+000
      vertex   -1.507118e+002 4.555665e+001 0.000000e+000
      vertex   -1.503966e+002 4.551751e+001 5.000000e+000
    endloop
  endfacet
  facet normal -7.812774e-003 -6.291335e-002 -0.000000e+000
    outer loop
      vertex   -1.503966e+002 4.551751e+001 5.000000e+000
      vertex   -1.507118e+002 4.555665e+001 0.000000e+000
      vertex   -1.503966e+002 4.551751e+001 0.000000e+000
    endloop
  endfacet
  facet normal -5.291815e-002 -9.985989e-001 -0.000000e+000
    outer loop
      vertex   -1.503966e+002 4.551751e+001 5.000000e+000
      vertex   -1.503966e+002 4.551751e+001 0.000000e+000
      vertex   -1.500794e+002 4.550070e+001 5.000000e+000
    endloop
  endfacet
  facet normal -3.354750e-003 -6.330624e-002 -0.000000e+000
    outer loop
      vertex   -1.500794e+002 4.550070e+001 5.000000e+000
      vertex   -1.503966e+002 4.551751e+001 0.000000e+000
      vertex   -1.500794e+002 4.550070e+001 0.000000e+000
    endloop
  endfacet
  facet normal 1.764248e-002 -9.998444e-001 0.000000e+000
    outer loop
      vertex   -1.500794e+002 4.550070e+001 5.000000e+000
      vertex   -1.500794e+002 4.550070e+001 0.000000e+000
      vertex   -1.497618e+002 4.550631e+001 5.000000e+000
    endloop
  endfacet
  facet normal 1.118503e-003 -6.338846e-002 0.000000e+000
    outer loop
      vertex   -1.497618e+002 4.550631e+001 5.000000e+000
      vertex   -1.500794e+002 4.550070e+001 0.000000e+000
      vertex   -1.497618e+002 4.550631e+001 0.000000e+000
    endloop
  endfacet
  facet normal 8.812935e-002 -9.961091e-001 0.000000e+000
    outer loop
      vertex   -1.497618e+002 4.550631e+001 5.000000e+000
      vertex   -1.497618e+002 4.550631e+001 0.000000e+000
      vertex   -1.494454e+002 4.553430e+001 5.000000e+000
    endloop
  endfacet
  facet normal 5.587188e-003 -6.315091e-002 0.000000e+000
    outer loop
      vertex   -1.494454e+002 4.553430e+001 5.000000e+000
      vertex   -1.497618e+002 4.550631e+001 0.000000e+000
      vertex   -1.494454e+002 4.553430e+001 0.000000e+000
    endloop
  endfacet
  facet normal 1.581905e-001 -9.874086e-001 0.000000e+000
    outer loop
      vertex   -1.494454e+002 4.553430e+001 5.000000e+000
      vertex   -1.494454e+002 4.553430e+001 0.000000e+000
      vertex   -1.491318e+002 4.558454e+001 5.000000e+000
    endloop
  endfacet
  facet normal 1.002846e-002 -6.259661e-002 0.000000e+000
    outer loop
      vertex   -1.491318e+002 4.558454e+001 5.000000e+000
      vertex   -1.494454e+002 4.553430e+001 0.000000e+000
      vertex   -1.491318e+002 4.558454e+001 0.000000e+000
    endloop
  endfacet
  facet normal 2.274384e-001 -9.737924e-001 0.000000e+000
    outer loop
      vertex   -1.491318e+002 4.558454e+001 5.000000e+000
      vertex   -1.491318e+002 4.558454e+001 0.000000e+000
      vertex   -1.488225e+002 4.565678e+001 5.000000e+000
    endloop
  endfacet
  facet normal 1.441872e-002 -6.173470e-002 0.000000e+000
    outer loop
      vertex   -1.488225e+002 4.565678e+001 5.000000e+000
      vertex   -1.491318e+002 4.558454e+001 0.000000e+000
      vertex   -1.488225e+002 4.565678e+001 0.000000e+000
    endloop
  endfacet
  facet normal 2.955548e-001 -9.553258e-001 0.000000e+000
    outer loop
      vertex   -1.488225e+002 4.565678e+001 5.000000e+000
      vertex   -1.488225e+002 4.565678e+001 0.000000e+000
      vertex   -1.485191e+002 4.575066e+001 5.000000e+000
    endloop
  endfacet
  facet normal 1.873741e-002 -6.056517e-002 0.000000e+000
    outer loop
      vertex   -1.485191e+002 4.575066e+001 5.000000e+000
      vertex   -1.488225e+002 4.565678e+001 0.000000e+000
      vertex   -1.485191e+002 4.575066e+001 0.000000e+000
    endloop
  endfacet
  facet normal 3.621912e-001 -9.321038e-001 0.000000e+000
    outer loop
      vertex   -1.485191e+002 4.575066e+001 5.000000e+000
      vertex   -1.485191e+002 4.575066e+001 0.000000e+000
      vertex   -1.482230e+002 4.586570e+001 5.000000e+000
    endloop
  endfacet
  facet normal 2.296244e-002 -5.909413e-002 0.000000e+000
    outer loop
      vertex   -1.482230e+002 4.586570e+001 5.000000e+000
      vertex   -1.485191e+002 4.575066e+001 0.000000e+000
      vertex   -1.482230e+002 4.586570e+001 0.000000e+000
    endloop
  endfacet
  facet normal 4.270587e-001 -9.042239e-001 0.000000e+000
    outer loop
      vertex   -1.482230e+002 4.586570e+001 5.000000e+000
      vertex   -1.482230e+002 4.586570e+001 0.000000e+000
      vertex   -1.479358e+002 4.600134e+001 5.000000e+000
    endloop
  endfacet
  facet normal 2.707403e-002 -5.732464e-002 0.000000e+000
    outer loop
      vertex   -1.479358e+002 4.600134e+001 5.000000e+000
      vertex   -1.482230e+002 4.586570e+001 0.000000e+000
      vertex   -1.479358e+002 4.600134e+001 0.000000e+000
    endloop
  endfacet
  facet normal 4.897776e-001 -8.718474e-001 0.000000e+000
    outer loop
      vertex   -1.479358e+002 4.600134e+001 5.000000e+000
      vertex   -1.479358e+002 4.600134e+001 0.000000e+000
      vertex   -1.476589e+002 4.615691e+001 5.000000e+000
    endloop
  endfacet
  facet normal 3.105009e-002 -5.527189e-002 0.000000e+000
    outer loop
      vertex   -1.476589e+002 4.615691e+001 5.000000e+000
      vertex   -1.479358e+002 4.600134e+001 0.000000e+000
      vertex   -1.476589e+002 4.615691e+001 0.000000e+000
    endloop
  endfacet
  facet normal 5.500576e-001 -8.351268e-001 0.000000e+000
    outer loop
      vertex   -1.476589e+002 4.615691e+001 5.000000e+000
      vertex   -1.476589e+002 4.615691e+001 0.000000e+000
      vertex   -1.473937e+002 4.633162e+001 5.000000e+000
    endloop
  endfacet
  facet normal 3.487233e-002 -5.294504e-002 0.000000e+000
    outer loop
      vertex   -1.473937e+002 4.633162e+001 5.000000e+000
      vertex   -1.476589e+002 4.615691e+001 0.000000e+000
      vertex   -1.473937e+002 4.633162e+001 0.000000e+000
    endloop
  endfacet
  facet normal 6.075901e-001 -7.942508e-001 0.000000e+000
    outer loop
      vertex   -1.473937e+002 4.633162e+001 5.000000e+000
      vertex   -1.473937e+002 4.633162e+001 0.000000e+000
      vertex   -1.471414e+002 4.652460e+001 5.000000e+000
    endloop
  endfacet
  facet normal 3.851946e-002 -5.035322e-002 0.000000e+000
    outer loop
      vertex   -1.471414e+002 4.652460e+001 5.000000e+000
      vertex   -1.473937e+002 4.633162e+001 0.000000e+000
      vertex   -1.471414e+002 4.652460e+001 0.000000e+000
    endloop
  endfacet
  facet normal 6.621192e-001 -7.493985e-001 0.000000e+000
    outer loop
      vertex   -1.471414e+002 4.652460e+001 5.000000e+000
      vertex   -1.471414e+002 4.652460e+001 0.000000e+000
      vertex   -1.469034e+002 4.673491e+001 5.000000e+000
    endloop
  endfacet
  facet normal 4.197548e-002 -4.750861e-002 0.000000e+000
    outer loop
      vertex   -1.469034e+002 4.673491e+001 5.000000e+000
      vertex   -1.471414e+002 4.652460e+001 0.000000e+000
      vertex   -1.469034e+002 4.673491e+001 0.000000e+000
    endloop
  endfacet
  facet normal 7.133065e-001 -7.008522e-001 0.000000e+000
    outer loop
      vertex   -1.469034e+002 4.673491e+001 5.000000e+000
      vertex   -1.469034e+002 4.673491e+001 0.000000e+000
      vertex   -1.466808e+002 4.696147e+001 5.000000e+000
    endloop
  endfacet
  facet normal 4.522211e-002 -4.443253e-002 0.000000e+000
    outer loop
      vertex   -1.466808e+002 4.696147e+001 5.000000e+000
      vertex   -1.469034e+002 4.673491e+001 0.000000e+000
      vertex   -1.466808e+002 4.696147e+001 0.000000e+000
    endloop
  endfacet
  facet normal 7.609953e-001 -6.487575e-001 0.000000e+000
    outer loop
      vertex   -1.466808e+002 4.696147e+001 5.000000e+000
      vertex   -1.466808e+002 4.696147e+001 0.000000e+000
      vertex   -1.464747e+002 4.720317e+001 5.000000e+000
    endloop
  endfacet
  facet normal 4.824337e-002 -4.112804e-002 0.000000e+000
    outer loop
      vertex   -1.464747e+002 4.720317e+001 5.000000e+000
      vertex   -1.466808e+002 4.696147e+001 0.000000e+000
      vertex   -1.464747e+002 4.720317e+001 0.000000e+000
    endloop
  endfacet
  facet normal 8.048421e-001 -5.934891e-001 0.000000e+000
    outer loop
      vertex   -1.464747e+002 4.720317e+001 5.000000e+000
      vertex   -1.464747e+002 4.720317e+001 0.000000e+000
      vertex   -1.462862e+002 4.745881e+001 5.000000e+000
    endloop
  endfacet
  facet normal 5.102478e-002 -3.762557e-002 0.000000e+000
    outer loop
      vertex   -1.462862e+002 4.745881e+001 5.000000e+000
      vertex   -1.464747e+002 4.720317e+001 0.000000e+000
      vertex   -1.462862e+002 4.745881e+001 0.000000e+000
    endloop
  endfacet
  facet normal 8.447117e-001 -5.352215e-001 0.000000e+000
    outer loop
      vertex   -1.462862e+002 4.745881e+001 5.000000e+000
      vertex   -1.462862e+002 4.745881e+001 0.000000e+000
      vertex   -1.461162e+002 4.772711e+001 5.000000e+000
    endloop
  endfacet
  facet normal 5.355188e-002 -3.393124e-002 0.000000e+000
    outer loop
      vertex   -1.461162e+002 4.772711e+001 5.000000e+000
      vertex   -1.462862e+002 4.745881e+001 0.000000e+000
      vertex   -1.461162e+002 4.772711e+001 0.000000e+000
    endloop
  endfacet
  facet normal 8.803396e-001 -4.743440e-001 0.000000e+000
    outer loop
      vertex   -1.461162e+002 4.772711e+001 5.000000e+000
      vertex   -1.461162e+002 4.772711e+001 0.000000e+000
      vertex   -1.459655e+002 4.800673e+001 5.000000e+000
    endloop
  endfacet
  facet normal 5.581172e-002 -3.007244e-002 0.000000e+000
    outer loop
      vertex   -1.459655e+002 4.800673e+001 5.000000e+000
      vertex   -1.461162e+002 4.772711e+001 0.000000e+000
      vertex   -1.459655e+002 4.800673e+001 0.000000e+000
    endloop
  endfacet
  facet normal 9.116372e-001 -4.109958e-001 0.000000e+000
    outer loop
      vertex   -1.459655e+002 4.800673e+001 5.000000e+000
      vertex   -1.459655e+002 4.800673e+001 0.000000e+000
      vertex   -1.458350e+002 4.829628e+001 5.000000e+000
    endloop
  endfacet
  facet normal 5.779367e-002 -2.605527e-002 0.000000e+000
    outer loop
      vertex   -1.458350e+002 4.829628e+001 5.000000e+000
      vertex   -1.459655e+002 4.800673e+001 0.000000e+000
      vertex   -1.458350e+002 4.829628e+001 0.000000e+000
    endloop
  endfacet
  facet normal 9.383304e-001 -3.457399e-001 0.000000e+000
    outer loop
      vertex   -1.458350e+002 4.829628e+001 5.000000e+000
      vertex   -1.458350e+002 4.829628e+001 0.000000e+000
      vertex   -1.457252e+002 4.859433e+001 5.000000e+000
    endloop
  endfacet
  facet normal 5.948855e-002 -2.191932e-002 0.000000e+000
    outer loop
      vertex   -1.457252e+002 4.859433e+001 5.000000e+000
      vertex   -1.458350e+002 4.829628e+001 0.000000e+000
      vertex   -1.457252e+002 4.859433e+001 0.000000e+000
    endloop
  endfacet
  facet normal 9.603965e-001 -2.786369e-001 0.000000e+000
    outer loop
      vertex   -1.457252e+002 4.859433e+001 5.000000e+000
      vertex   -1.457252e+002 4.859433e+001 0.000000e+000
      vertex   -1.456367e+002 4.889937e+001 5.000000e+000
    endloop
  endfacet
  facet normal 6.088573e-002 -1.766459e-002 0.000000e+000
    outer loop
      vertex   -1.456367e+002 4.889937e+001 5.000000e+000
      vertex   -1.457252e+002 4.859433e+001 0.000000e+000
      vertex   -1.456367e+002 4.889937e+001 0.000000e+000
    endloop
  endfacet
  facet normal 9.776528e-001 -2.102262e-001 0.000000e+000
    outer loop
      vertex   -1.456367e+002 4.889937e+001 5.000000e+000
      vertex   -1.456367e+002 4.889937e+001 0.000000e+000
      vertex   -1.455699e+002 4.920989e+001 5.000000e+000
    endloop
  endfacet
  facet normal 6.197987e-002 -1.332763e-002 0.000000e+000
    outer loop
      vertex   -1.455699e+002 4.920989e+001 5.000000e+000
      vertex   -1.456367e+002 4.889937e+001 0.000000e+000
      vertex   -1.455699e+002 4.920989e+001 0.000000e+000
    endloop
  endfacet
  facet normal 9.900509e-001 -1.407101e-001 0.000000e+000
    outer loop
      vertex   -1.455699e+002 4.920989e+001 5.000000e+000
      vertex   -1.455699e+002 4.920989e+001 0.000000e+000
      vertex   -1.455252e+002 4.952436e+001 5.000000e+000
    endloop
  endfacet
  facet normal 6.276640e-002 -8.920617e-003 0.000000e+000
    outer loop
      vertex   -1.455252e+002 4.952436e+001 5.000000e+000
      vertex   -1.455699e+002 4.920989e+001 0.000000e+000
      vertex   -1.455252e+002 4.952436e+001 0.000000e+000
    endloop
  endfacet
  facet normal 9.975101e-001 -7.052410e-002 0.000000e+000
    outer loop
      vertex   -1.455252e+002 4.952436e+001 5.000000e+000
      vertex   -1.455252e+002 4.952436e+001 0.000000e+000
      vertex   -1.455028e+002 4.984119e+001 5.000000e+000
    endloop
  endfacet
  facet normal 6.323847e-002 -4.470969e-003 0.000000e+000
    outer loop
      vertex   -1.455028e+002 4.984119e+001 5.000000e+000
      vertex   -1.455252e+002 4.952436e+001 0.000000e+000
      vertex   -1.455028e+002 4.984119e+001 0.000000e+000
    endloop
  endfacet
  facet normal 1.000000e+000 -0.000000e+000 0.000000e+000
    outer loop
      vertex   -1.455028e+002 4.984119e+001 5.000000e+000
      vertex   -1.455028e+002 4.984119e+001 0.000000e+000
      vertex   -1.455028e+002 5.015881e+001 5.000000e+000
    endloop
  endfacet
  facet normal 6.339760e-002 0.000000e+000 0.000000e+000
    outer loop
      vertex   -1.455028e+002 5.015881e+001 5.000000e+000
      vertex   -1.455028e+002 4.984119e+001 0.000000e+000
      vertex   -1.455028e+002 5.015881e+001 0.000000e+000
    endloop
  endfacet
  facet normal 9.975101e-001 7.052410e-002 0.000000e+000
    outer loop
      vertex   -1.455028e+002 5.015881e+001 5.000000e+000
      vertex   -1.455028e+002 5.015881e+001 0.000000e+000
      vertex   -1.455252e+002 5.047564e+001 5.000000e+000
    endloop
  endfacet
  facet normal 6.323847e-002 4.470969e-003 0.000000e+000
    outer loop
      vertex   -1.455252e+002 5.047564e+001 5.000000e+000
      vertex   -1.455028e+002 5.015881e+001 0.000000e+000
      vertex   -1.455252e+002 5.047564e+001 0.000000e+000
    endloop
  endfacet
  facet normal 9.900509e-001 1.407101e-001 0.000000e+000
    outer loop
      vertex   -1.455252e+002 5.047564e+001 5.000000e+000
      vertex   -1.455252e+002 5.047564e+001 0.000000e+000
      vertex   -1.455699e+002 5.079011e+001 5.000000e+000
    endloop
  endfacet
  facet normal 6.276640e-002 8.920617e-003 0.000000e+000
    outer loop
      vertex   -1.455699e+002 5.079011e+001 5.000000e+000
      vertex   -1.455252e+002 5.047564e+001 0.000000e+000
      vertex   -1.455699e+002 5.079011e+001 0.000000e+000
    endloop
  endfacet
  facet normal 9.776528e-001 2.102262e-001 0.000000e+000
    outer loop
      vertex   -1.455699e+002 5.079011e+001 5.000000e+000
      vertex   -1.455699e+002 5.079011e+001 0.000000e+000
      vertex   -1.456367e+002 5.110063e+001 5.000000e+000
    endloop
  endfacet
  facet normal 6.197987e-002 1.332763e-002 0.000000e+000
    outer loop
      vertex   -1.456367e+002 5.110063e+001 5.000000e+000
      vertex   -1.455699e+002 5.079011e+001 0.000000e+000
      vertex   -1.456367e+002 5.110063e+001 0.000000e+000
    endloop
  endfacet
  facet normal 9.603965e-001 2.786369e-001 0.000000e+000
    outer loop
      vertex   -1.456367e+002 5.110063e+001 5.000000e+000
      vertex   -1.456367e+002 5.110063e+001 0.000000e+000
      vertex   -1.457252e+002 5.140567e+001 5.000000e+000
    endloop
  endfacet
  facet normal 6.088573e-002 1.766459e-002 0.000000e+000
    outer loop
      vertex   -1.457252e+002 5.140567e+001 5.000000e+000
      vertex   -1.456367e+002 5.110063e+001 0.000000e+000
      vertex   -1.457252e+002 5.140567e+001 0.000000e+000
    endloop
  endfacet
  facet normal 9.383304e-001 3.457399e-001 0.000000e+000
    outer loop
      vertex   -1.457252e+002 5.140567e+001 5.000000e+000
      vertex   -1.457252e+002 5.140567e+001 0.000000e+000
      vertex   -1.458350e+002 5.170372e+001 5.000000e+000
    endloop
  endfacet
  facet normal 5.948855e-002 2.191932e-002 0.000000e+000
    outer loop
      vertex   -1.458350e+002 5.170372e+001 5.000000e+000
      vertex   -1.457252e+002 5.140567e+001 0.000000e+000
      vertex   -1.458350e+002 5.170372e+001 0.000000e+000
    endloop
  endfacet
  facet normal 9.116372e-001 4.109958e-001 0.000000e+000
    outer loop
      vertex   -1.458350e+002 5.170372e+001 5.000000e+000
      vertex   -1.458350e+002 5.170372e+001 0.000000e+000
      vertex   -1.459655e+002 5.199327e+001 5.000000e+000
    endloop
  endfacet
  facet normal 5.779367e-002 2.605527e-002 0.000000e+000
    outer loop
      vertex   -1.459655e+002 5.199327e+001 5.000000e+000
      vertex   -1.458350e+002 5.170372e+001 0.000000e+000
      vertex   -1.459655e+002 5.199327e+001 0.000000e+000
    endloop
  endfacet
  facet normal 8.803396e-001 4.743440e-001 0.000000e+000
    outer loop
      vertex   -1.459655e+002 5.199327e+001 5.000000e+000
      vertex   -1.459655e+002 5.199327e+001 0.000000e+000
      vertex   -1.461162e+002 5.227289e+001 5.000000e+000
    endloop
  endfacet
  facet normal 5.581172e-002 3.007244e-002 0.000000e+000
    outer loop
      vertex   -1.461162e+002 5.227289e+001 5.000000e+000
      vertex   -1.459655e+002 5.199327e+001 0.000000e+000
      vertex   -1.461162e+002 5.227289e+001 0.000000e+000
    endloop
  endfacet
  facet normal 8.447117e-001 5.352215e-001 0.000000e+000
    outer loop
      vertex   -1.461162e+002 5.227289e+001 5.000000e+000
      vertex   -1.461162e+002 5.227289e+001 0.000000e+000
      vertex   -1.462862e+002 5.254119e+001 5.000000e+000
    endloop
  endfacet
  facet normal 5.355188e-002 3.393124e-002 0.000000e+000
    outer loop
      vertex   -1.462862e+002 5.254119e+001 5.000000e+000
      vertex   -1.461162e+002 5.227289e+001 0.000000e+000
      vertex   -1.462862e+002 5.254119e+001 0.000000e+000
    endloop
  endfacet
  facet normal 8.048421e-001 5.934891e-001 0.000000e+000
    outer loop
      vertex   -1.462862e+002 5.254119e+001 5.000000e+000
      vertex   -1.462862e+002 5.254119e+001 0.000000e+000
      vertex   -1.464747e+002 5.279683e+001 5.000000e+000
    endloop
  endfacet
  facet normal 5.102478e-002 3.762557e-002 0.000000e+000
    outer loop
      vertex   -1.464747e+002 5.279683e+001 5.000000e+000
      vertex   -1.462862e+002 5.254119e+001 0.000000e+000
      vertex   -1.464747e+002 5.279683e+001 0.000000e+000
    endloop
  endfacet
  facet normal 7.609953e-001 6.487575e-001 0.000000e+000
    outer loop
      vertex   -1.464747e+002 5.279683e+001 5.000000e+000
      vertex   -1.464747e+002 5.279683e+001 0.000000e+000
      vertex   -1.466808e+002 5.303853e+001 5.000000e+000
    endloop
  endfacet
  facet normal 4.824337e-002 4.112804e-002 0.000000e+000
    outer loop
      vertex   -1.466808e+002 5.303853e+001 5.000000e+000
      vertex   -1.464747e+002 5.279683e+001 0.000000e+000
      vertex   -1.466808e+002 5.303853e+001 0.000000e+000
    endloop
  endfacet
  facet normal 7.133065e-001 7.008522e-001 0.000000e+000
    outer loop
      vertex   -1.466808e+002 5.303853e+001 5.000000e+000
      vertex   -1.466808e+002 5.303853e+001 0.000000e+000
      vertex   -1.469034e+002 5.326509e+001 5.000000e+000
    endloop
  endfacet
  facet normal 4.522211e-002 4.443253e-002 0.000000e+000
    outer loop
      vertex   -1.469034e+002 5.326509e+001 5.000000e+000
      vertex   -1.466808e+002 5.303853e+001 0.000000e+000
      vertex   -1.469034e+002 5.326509e+001 0.000000e+000
    endloop
  endfacet
  facet normal 6.621192e-001 7.493985e-001 0.000000e+000
    outer loop
      vertex   -1.469034e+002 5.326509e+001 5.000000e+000
      vertex   -1.469034e+002 5.326509e+001 0.000000e+000
      vertex   -1.471414e+002 5.347540e+001 5.000000e+000
    endloop
  endfacet
  facet normal 4.197548e-002 4.750861e-002 0.000000e+000
    outer loop
      vertex   -1.471414e+002 5.347540e+001 5.000000e+000
      vertex   -1.469034e+002 5.326509e+001 0.000000e+000
      vertex   -1.471414e+002 5.347540e+001 0.000000e+000
    endloop
  endfacet
  facet normal 6.075901e-001 7.942508e-001 0.000000e+000
    outer loop
      vertex   -1.471414e+002 5.347540e+001 5.000000e+000
      vertex   -1.471414e+002 5.347540e+001 0.000000e+000
      vertex   -1.473937e+002 5.366838e+001 5.000000e+000
    endloop
  endfacet
  facet normal 3.851946e-002 5.035322e-002 0.000000e+000
    outer loop
      vertex   -1.473937e+002 5.366838e+001 5.000000e+000
      vertex   -1.471414e+002 5.347540e+001 0.000000e+000
      vertex   -1.473937e+002 5.366838e+001 0.000000e+000
    endloop
  endfacet
  facet normal 5.500576e-001 8.351268e-001 0.000000e+000
    outer loop
      vertex   -1.473937e+002 5.366838e+001 5.000000e+000
      vertex   -1.473937e+002 5.366838e+001 0.000000e+000
      vertex   -1.476589e+002 5.384309e+001 5.000000e+000
    endloop
  endfacet
  facet normal 3.487233e-002 5.294504e-002 0.000000e+000
    outer loop
      vertex   -1.476589e+002 5.384309e+001 5.000000e+000
      vertex   -1.473937e+002 5.366838e+001 0.000000e+000
      vertex   -1.476589e+002 5.384309e+001 0.000000e+000
    endloop
  endfacet
  facet normal 4.897776e-001 8.718474e-001 0.000000e+000
    outer loop
      vertex   -1.476589e+002 5.384309e+001 5.000000e+000
      vertex   -1.476589e+002 5.384309e+001 0.000000e+000
      vertex   -1.479358e+002 5.399866e+001 5.000000e+000
    endloop
  endfacet
  facet normal 3.105009e-002 5.527189e-002 0.000000e+000
    outer loop
      vertex   -1.479358e+002 5.399866e+001 5.000000e+000
      vertex   -1.476589e+002 5.384309e+001 0.000000e+000
      vertex   -1.479358e+002 5.399866e+001 0.000000e+000
    endloop
  endfacet
  facet normal 4.270587e-001 9.042239e-001 0.000000e+000
    outer loop
      vertex   -1.479358e+002 5.399866e+001 5.000000e+000
      vertex   -1.479358e+002 5.399866e+001 0.000000e+000
      vertex   -1.482230e+002 5.413430e+001 5.000000e+000
    endloop
  endfacet
  facet normal 2.707403e-002 5.732464e-002 0.000000e+000
    outer loop
      vertex   -1.482230e+002 5.413430e+001 5.000000e+000
      vertex   -1.479358e+002 5.399866e+001 0.000000e+000
      vertex   -1.482230e+002 5.413430e+001 0.000000e+000
    endloop
  endfacet
  facet normal 3.621912e-001 9.321038e-001 0.000000e+000
    outer loop
      vertex   -1.482230e+002 5.413430e+001 5.000000e+000
      vertex   -1.482230e+002 5.413430e+001 0.000000e+000
      vertex   -1.485191e+002 5.424934e+001 5.000000e+000
    endloop
  endfacet
  facet normal 2.296244e-002 5.909413e-002 0.000000e+000
    outer loop
      vertex   -1.485191e+002 5.424934e+001 5.000000e+000
      vertex   -1.482230e+002 5.413430e+001 0.000000e+000
      vertex   -1.485191e+002 5.424934e+001 0.000000e+000
    endloop
  endfacet
  facet normal 2.955548e-001 9.553258e-001 0.000000e+000
    outer loop
      vertex   -1.485191e+002 5.424934e+001 5.000000e+000
      vertex   -1.485191e+002 5.424934e+001 0.000000e+000
      vertex   -1.488225e+002 5.434322e+001 5.000000e+000
    endloop
  endfacet
  facet normal 1.873741e-002 6.056517e-002 0.000000e+000
    outer loop
      vertex   -1.488225e+002 5.434322e+001 5.000000e+000
      vertex   -1.485191e+002 5.424934e+001 0.000000e+000
      vertex   -1.488225e+002 5.434322e+001 0.000000e+000
    endloop
  endfacet
  facet normal 2.274384e-001 9.737924e-001 0.000000e+000
    outer loop
      vertex   -1.488225e+002 5.434322e+001 5.000000e+000
      vertex   -1.488225e+002 5.434322e+001 0.000000e+000
      vertex   -1.491318e+002 5.441546e+001 5.000000e+000
    endloop
  endfacet
  facet normal 1.441872e-002 6.173470e-002 0.000000e+000
    outer loop
      vertex   -1.491318e+002 5.441546e+001 5.000000e+000
      vertex   -1.488225e+002 5.434322e+001 0.000000e+000
      vertex   -1.491318e+002 5.441546e+001 0.000000e+000
    endloop
  endfacet
  facet normal 1.581905e-001 9.874086e-001 0.000000e+000
    outer loop
      vertex   -1.491318e+002 5.441546e+001 5.000000e+000
      vertex   -1.491318e+002 5.441546e+001 0.000000e+000
      vertex   -1.494454e+002 5.446570e+001 5.000000e+000
    endloop
  endfacet
  facet normal 1.002846e-002 6.259661e-002 0.000000e+000
    outer loop
      vertex   -1.494454e+002 5.446570e+001 5.000000e+000
      vertex   -1.491318e+002 5.441546e+001 0.000000e+000
      vertex   -1.494454e+002 5.446570e+001 0.000000e+000
    endloop
  endfacet
  facet normal 8.812935e-002 9.961091e-001 0.000000e+000
    outer loop
      vertex   -1.494454e+002 5.446570e+001 5.000000e+000
      vertex   -1.494454e+002 5.446570e+001 0.000000e+000
      vertex   -1.497618e+002 5.449369e+001 5.000000e+000
    endloop
  endfacet
  facet normal 5.587188e-003 6.315091e-002 0.000000e+000
    outer loop
      vertex   -1.497618e+002 5.449369e+001 5.000000e+000
      vertex   -1.494454e+002 5.446570e+001 0.000000e+000
      vertex   -1.497618e+002 5.449369e+001 0.000000e+000
    endloop
  endfacet
  facet normal 1.764248e-002 9.998444e-001 0.000000e+000
    outer loop
      vertex   -1.497618e+002 5.449369e+001 5.000000e+000
      vertex   -1.497618e+002 5.449369e+001 0.000000e+000
      vertex   -1.500794e+002 5.449930e+001 5.000000e+000
    endloop
  endfacet
  facet normal 1.118503e-003 6.338846e-002 0.000000e+000
    outer loop
      vertex   -1.500794e+002 5.449930e+001 5.000000e+000
      vertex   -1.497618e+002 5.449369e+001 0.000000e+000
      vertex   -1.500794e+002 5.449930e+001 0.000000e+000
    endloop
  endfacet
  facet normal -5.291815e-002 9.985989e-001 0.000000e+000
    outer loop
      vertex   -1.500794e+002 5.449930e+001 5.000000e+000
      vertex   -1.500794e+002 5.449930e+001 0.000000e+000
      vertex   -1.503966e+002 5.448249e+001 5.000000e+000
    endloop
  endfacet
  facet normal -3.354750e-003 6.330624e-002 0.000000e+000
    outer loop
      vertex   -1.503966e+002 5.448249e+001 5.000000e+000
      vertex   -1.500794e+002 5.449930e+001 0.000000e+000
      vertex   -1.503966e+002 5.448249e+001 0.000000e+000
    endloop
  endfacet
  facet normal -1.232365e-001 9.923773e-001 0.000000e+000
    outer loop
      vertex   -1.503966e+002 5.448249e+001 5.000000e+000
      vertex   -1.503966e+002 5.448249e+001 0.000000e+000
      vertex   -1.507118e+002 5.444335e+001 5.000000e+000
    endloop
  endfacet
  facet normal -7.812774e-003 6.291335e-002 0.000000e+000
    outer loop
      vertex   -1.507118e+002 5.444335e+001 5.000000e+000
      vertex   -1.503966e+002 5.448249e+001 0.000000e+000
      vertex   -1.507118e+002 5.444335e+001 0.000000e+000
    endloop
  endfacet
  facet normal -1.929278e-001 9.812130e-001 0.000000e+000
    outer loop
      vertex   -1.507118e+002 5.444335e+001 5.000000e+000
      vertex   -1.507118e+002 5.444335e+001 0.000000e+000
      vertex   -1.510235e+002 5.438207e+001 5.000000e+000
    endloop
  endfacet
  facet normal -1.223120e-002 6.220676e-002 0.000000e+000
    outer loop
      vertex   -1.510235e+002 5.438207e+001 5.000000e+000
      vertex   -1.507118e+002 5.444335e+001 0.000000e+000
      vertex   -1.510235e+002 5.438207e+001 0.000000e+000
    endloop
  endfacet
  facet normal -2.616476e-001 9.651635e-001 0.000000e+000
    outer loop
      vertex   -1.510235e+002 5.438207e+001 5.000000e+000
      vertex   -1.510235e+002 5.438207e+001 0.000000e+000
      vertex   -1.513300e+002 5.429896e+001 5.000000e+000
    endloop
  endfacet
  facet normal -1.658796e-002 6.118952e-002 0.000000e+000
    outer loop
      vertex   -1.513300e+002 5.429896e+001 5.000000e+000
      vertex   -1.510235e+002 5.438207e+001 0.000000e+000
      vertex   -1.513300e+002 5.429896e+001 0.000000e+000
    endloop
  endfacet
  facet normal -3.290940e-001 9.442972e-001 0.000000e+000
    outer loop
      vertex   -1.513300e+002 5.429896e+001 5.000000e+000
      vertex   -1.513300e+002 5.429896e+001 0.000000e+000
      vertex   -1.516299e+002 5.419444e+001 5.000000e+000
    endloop
  endfacet
  facet normal -2.086325e-002 5.986469e-002 0.000000e+000
    outer loop
      vertex   -1.516299e+002 5.419444e+001 5.000000e+000
      vertex   -1.513300e+002 5.429896e+001 0.000000e+000
      vertex   -1.516299e+002 5.419444e+001 0.000000e+000
    endloop
  endfacet
  facet normal -3.948830e-001 9.187314e-001 0.000000e+000
    outer loop
      vertex   -1.516299e+002 5.419444e+001 5.000000e+000
      vertex   -1.516299e+002 5.419444e+001 0.000000e+000
      vertex   -1.519218e+002 5.406901e+001 5.000000e+000
    endloop
  endfacet
  facet normal -2.503423e-002 5.824442e-002 0.000000e+000
    outer loop
      vertex   -1.519218e+002 5.406901e+001 5.000000e+000
      vertex   -1.516299e+002 5.419444e+001 0.000000e+000
      vertex   -1.519218e+002 5.406901e+001 0.000000e+000
    endloop
  endfacet
  facet normal -4.586965e-001 8.885930e-001 0.000000e+000
    outer loop
      vertex   -1.519218e+002 5.406901e+001 5.000000e+000
      vertex   -1.519218e+002 5.406901e+001 0.000000e+000
      vertex   -1.522040e+002 5.392332e+001 5.000000e+000
    endloop
  endfacet
  facet normal -2.908033e-002 5.633481e-002 0.000000e+000
    outer loop
      vertex   -1.522040e+002 5.392332e+001 5.000000e+000
      vertex   -1.519218e+002 5.406901e+001 0.000000e+000
      vertex   -1.522040e+002 5.392332e+001 0.000000e+000
    endloop
  endfacet
  facet normal -5.202349e-001 8.540232e-001 0.000000e+000
    outer loop
      vertex   -1.522040e+002 5.392332e+001 5.000000e+000
      vertex   -1.522040e+002 5.392332e+001 0.000000e+000
      vertex   -1.524753e+002 5.375808e+001 5.000000e+000
    endloop
  endfacet
  facet normal -3.298101e-002 5.414197e-002 0.000000e+000
    outer loop
      vertex   -1.524753e+002 5.375808e+001 5.000000e+000
      vertex   -1.522040e+002 5.392332e+001 0.000000e+000
      vertex   -1.524753e+002 5.375808e+001 0.000000e+000
    endloop
  endfacet
  facet normal -5.791857e-001 8.151956e-001 0.000000e+000
    outer loop
      vertex   -1.524753e+002 5.375808e+001 5.000000e+000
      vertex   -1.524753e+002 5.375808e+001 0.000000e+000
      vertex   -1.527342e+002 5.357412e+001 5.000000e+000
    endloop
  endfacet
  facet normal -3.671874e-002 5.168111e-002 0.000000e+000
    outer loop
      vertex   -1.527342e+002 5.357412e+001 5.000000e+000
      vertex   -1.524753e+002 5.375808e+001 0.000000e+000
      vertex   -1.527342e+002 5.357412e+001 0.000000e+000
    endloop
  endfacet
  facet normal -6.352546e-001 7.723028e-001 0.000000e+000
    outer loop
      vertex   -1.527342e+002 5.357412e+001 5.000000e+000
      vertex   -1.527342e+002 5.357412e+001 0.000000e+000
      vertex   -1.529795e+002 5.337234e+001 5.000000e+000
    endloop
  endfacet
  facet normal -4.027298e-002 4.896137e-002 0.000000e+000
    outer loop
      vertex   -1.529795e+002 5.337234e+001 5.000000e+000
      vertex   -1.527342e+002 5.357412e+001 0.000000e+000
      vertex   -1.529795e+002 5.337234e+001 0.000000e+000
    endloop
  endfacet
  facet normal -6.881469e-001 7.255713e-001 0.000000e+000
    outer loop
      vertex   -1.529795e+002 5.337234e+001 5.000000e+000
      vertex   -1.529795e+002 5.337234e+001 0.000000e+000
      vertex   -1.532099e+002 5.315378e+001 5.000000e+000
    endloop
  endfacet
  facet normal -4.362545e-002 4.599798e-002 0.000000e+000
    outer loop
      vertex   -1.532099e+002 5.315378e+001 5.000000e+000
      vertex   -1.529795e+002 5.337234e+001 0.000000e+000
      vertex   -1.532099e+002 5.315378e+001 0.000000e+000
    endloop
  endfacet
  facet normal -7.375967e-001 6.752415e-001 0.000000e+000
    outer loop
      vertex   -1.532099e+002 5.315378e+001 5.000000e+000
      vertex   -1.532099e+002 5.315378e+001 0.000000e+000
      vertex   -1.534244e+002 5.291949e+001 5.000000e+000
    endloop
  endfacet
  facet normal -4.676243e-002 4.280921e-002 0.000000e+000
    outer loop
      vertex   -1.534244e+002 5.291949e+001 5.000000e+000
      vertex   -1.532099e+002 5.315378e+001 0.000000e+000
      vertex   -1.534244e+002 5.291949e+001 0.000000e+000
    endloop
  endfacet
  facet normal -7.834073e-001 6.215086e-001 0.000000e+000
    outer loop
      vertex   -1.534244e+002 5.291949e+001 5.000000e+000
      vertex   -1.534244e+002 5.291949e+001 0.000000e+000
      vertex   -1.536218e+002 5.267067e+001 5.000000e+000
    endloop
  endfacet
  facet normal -4.966491e-002 3.940117e-002 0.000000e+000
    outer loop
      vertex   -1.536218e+002 5.267067e+001 5.000000e+000
      vertex   -1.534244e+002 5.291949e+001 0.000000e+000
      vertex   -1.536218e+002 5.267067e+001 0.000000e+000
    endloop
  endfacet
  facet normal -8.252860e-001 5.647149e-001 0.000000e+000
    outer loop
      vertex   -1.536218e+002 5.267067e+001 5.000000e+000
      vertex   -1.536218e+002 5.267067e+001 0.000000e+000
      vertex   -1.538012e+002 5.240854e+001 5.000000e+000
    endloop
  endfacet
  facet normal -5.232069e-002 3.580125e-002 0.000000e+000
    outer loop
      vertex   -1.538012e+002 5.240854e+001 5.000000e+000
      vertex   -1.536218e+002 5.267067e+001 0.000000e+000
      vertex   -1.538012e+002 5.240854e+001 0.000000e+000
    endloop
  endfacet
  facet normal -8.630645e-001 5.050937e-001 0.000000e+000
    outer loop
      vertex   -1.538012e+002 5.240854e+001 5.000000e+000
      vertex   -1.538012e+002 5.240854e+001 0.000000e+000
      vertex   -1.539616e+002 5.213441e+001 5.000000e+000
    endloop
  endfacet
  facet normal -5.471607e-002 3.202163e-002 0.000000e+000
    outer loop
      vertex   -1.539616e+002 5.213441e+001 5.000000e+000
      vertex   -1.538012e+002 5.240854e+001 0.000000e+000
      vertex   -1.539616e+002 5.213441e+001 0.000000e+000
    endloop
  endfacet
  facet normal -8.965524e-001 4.429376e-001 0.000000e+000
    outer loop
      vertex   -1.539616e+002 5.213441e+001 5.000000e+000
      vertex   -1.539616e+002 5.213441e+001 0.000000e+000
      vertex   -1.541023e+002 5.184964e+001 5.000000e+000
    endloop
  endfacet
  facet normal -5.683810e-002 2.808061e-002 0.000000e+000
    outer loop
      vertex   -1.541023e+002 5.184964e+001 5.000000e+000
      vertex   -1.539616e+002 5.213441e+001 0.000000e+000
      vertex   -1.541023e+002 5.184964e+001 0.000000e+000
    endloop
  endfacet
  facet normal -9.255579e-001 3.786062e-001 0.000000e+000
    outer loop
      vertex   -1.541023e+002 5.184964e+001 5.000000e+000
      vertex   -1.541023e+002 5.184964e+001 0.000000e+000
      vertex   -1.542225e+002 5.155566e+001 5.000000e+000
    endloop
  endfacet
  facet normal -5.867765e-002 2.400252e-002 0.000000e+000
    outer loop
      vertex   -1.542225e+002 5.155566e+001 5.000000e+000
      vertex   -1.541023e+002 5.184964e+001 0.000000e+000
      vertex   -1.542225e+002 5.155566e+001 0.000000e+000
    endloop
  endfacet
  facet normal -9.499641e-001 3.123591e-001 0.000000e+000
    outer loop
      vertex   -1.542225e+002 5.155566e+001 5.000000e+000
      vertex   -1.542225e+002 5.155566e+001 0.000000e+000
      vertex   -1.543218e+002 5.125393e+001 5.000000e+000
    endloop
  endfacet
  facet normal -6.022483e-002 1.980261e-002 0.000000e+000
    outer loop
      vertex   -1.543218e+002 5.125393e+001 5.000000e+000
      vertex   -1.542225e+002 5.155566e+001 0.000000e+000
      vertex   -1.543218e+002 5.125393e+001 0.000000e+000
    endloop
  endfacet
  facet normal -9.696303e-001 2.445754e-001 0.000000e+000
    outer loop
      vertex   -1.543218e+002 5.125393e+001 5.000000e+000
      vertex   -1.543218e+002 5.125393e+001 0.000000e+000
      vertex   -1.543994e+002 5.094596e+001 5.000000e+000
    endloop
  endfacet
  facet normal -6.147125e-002 1.550525e-002 0.000000e+000
    outer loop
      vertex   -1.543994e+002 5.094596e+001 5.000000e+000
      vertex   -1.543218e+002 5.125393e+001 0.000000e+000
      vertex   -1.543994e+002 5.094596e+001 0.000000e+000
    endloop
  endfacet
  facet normal -9.844636e-001 1.755890e-001 0.000000e+000
    outer loop
      vertex   -1.543994e+002 5.094596e+001 5.000000e+000
      vertex   -1.543994e+002 5.094596e+001 0.000000e+000
      vertex   -1.544552e+002 5.063327e+001 5.000000e+000
    endloop
  endfacet
  facet normal -6.241158e-002 1.113174e-002 0.000000e+000
    outer loop
      vertex   -1.544552e+002 5.063327e+001 5.000000e+000
      vertex   -1.543994e+002 5.094596e+001 0.000000e+000
      vertex   -1.544552e+002 5.063327e+001 0.000000e+000
    endloop
  endfacet
  facet normal -9.943992e-001 1.056888e-001 0.000000e+000
    outer loop
      vertex   -1.544552e+002 5.063327e+001 5.000000e+000
      vertex   -1.544552e+002 5.063327e+001 0.000000e+000
      vertex   -1.544888e+002 5.031742e+001 5.000000e+000
    endloop
  endfacet
  facet normal -6.304202e-002 6.700362e-003 0.000000e+000
    outer loop
      vertex   -1.544888e+002 5.031742e+001 5.000000e+000
      vertex   -1.544552e+002 5.063327e+001 0.000000e+000
      vertex   -1.544888e+002 5.031742e+001 0.000000e+000
    endloop
  endfacet
  facet normal 0.000000e+000 -0.000000e+000 9.998439e-001
    outer loop
      vertex   -1.544888e+002 4.968258e+001 5.000000e+000
      vertex   -1.455028e+002 4.984119e+001 5.000000e+000
      vertex   -1.545000e+002 5.000000e+001 5.000000e+000
    endloop
  endfacet
  facet normal -0.000000e+000 0.000000e+000 3.529190e-002
    outer loop
      vertex   -1.545000e+002 5.000000e+001 5.000000e+000
      vertex   -1.455028e+002 4.984119e+001 5.000000e+000
      vertex   -1.455028e+002 5.015881e+001 5.000000e+000
    endloop
  endfacet
  facet normal 0.000000e+000 0.000000e+000 9.985976e-001
    outer loop
      vertex   -1.545000e+002 5.000000e+001 5.000000e+000
      vertex   -1.455028e+002 5.015881e+001 5.000000e+000
      vertex   -1.544888e+002 5.031742e+001 5.000000e+000
    endloop
  endfacet
  facet normal -0.000000e+000 0.000000e+000 3.529124e-002
    outer loop
      vertex   -1.544888e+002 5.031742e+001 5.000000e+000
      vertex   -1.455028e+002 5.015881e+001 5.000000e+000
      vertex   -1.455252e+002 5.047564e+001 5.000000e+000
    endloop
  endfacet
  facet normal 0.000000e+000 0.000000e+000 9.923791e-001
    outer loop
      vertex   -1.544888e+002 5.031742e+001 5.000000e+000
      vertex   -1.455252e+002 5.047564e+001 5.000000e+000
      vertex   -1.544552e+002 5.063327e+001 5.000000e+000
    endloop
  endfacet
  facet normal -0.000000e+000 0.000000e+000 3.529171e-002
    outer loop
      vertex   -1.544552e+002 5.063327e+001 5.000000e+000
      vertex   -1.455252e+002 5.047564e+001 5.000000e+000
      vertex   -1.455699e+002 5.079011e+001 5.000000e+000
    endloop
  endfacet
  facet normal 0.000000e+000 0.000000e+000 9.812113e-001
    outer loop
      vertex   -1.544552e+002 5.063327e+001 5.000000e+000
      vertex   -1.455699e+002 5.079011e+001 5.000000e+000
      vertex   -1.543994e+002 5.094596e+001 5.000000e+000
    endloop
  endfacet
  facet normal -0.000000e+000 0.000000e+000 3.529124e-002
    outer loop
      vertex   -1.543994e+002 5.094596e+001 5.000000e+000
      vertex   -1.455699e+002 5.079011e+001 5.000000e+000
      vertex   -1.456367e+002 5.110063e+001 5.000000e+000
    endloop
  endfacet
  facet normal 0.000000e+000 0.000000e+000 9.651629e-001
    outer loop
      vertex   -1.543994e+002 5.094596e+001 5.000000e+000
      vertex   -1.456367e+002 5.110063e+001 5.000000e+000
      vertex   -1.543218e+002 5.125393e+001 5.000000e+000
    endloop
  endfacet
  facet normal -0.000000e+000 0.000000e+000 3.529140e-002
    outer loop
      vertex   -1.543218e+002 5.125393e+001 5.000000e+000
      vertex   -1.456367e+002 5.110063e+001 5.000000e+000
      vertex   -1.457252e+002 5.140567e+001 5.000000e+000
    endloop
  endfacet
  facet normal 0.000000e+000 0.000000e+000 9.443035e-001
    outer loop
      vertex   -1.543218e+002 5.125393e+001 5.000000e+000
      vertex   -1.457252e+002 5.140567e+001 5.000000e+000
      vertex   -1.542225e+002 5.155566e+001 5.000000e+000
    endloop
  endfacet
  facet normal -0.000000e+000 0.000000e+000 3.529175e-002
    outer loop
      vertex   -1.542225e+002 5.155566e+001 5.000000e+000
      vertex   -1.457252e+002 5.140567e+001 5.000000e+000
      vertex   -1.458350e+002 5.170372e+001 5.000000e+000
    endloop
  endfacet
  facet normal 0.000000e+000 0.000000e+000 9.187318e-001
    outer loop
      vertex   -1.542225e+002 5.155566e+001 5.000000e+000
      vertex   -1.458350e+002 5.170372e+001 5.000000e+000
      vertex   -1.541023e+002 5.184964e+001 5.000000e+000
    endloop
  endfacet
  facet normal -0.000000e+000 0.000000e+000 3.529132e-002
    outer loop
      vertex   -1.541023e+002 5.184964e+001 5.000000e+000
      vertex   -1.458350e+002 5.170372e+001 5.000000e+000
      vertex   -1.459655e+002 5.199327e+001 5.000000e+000
    endloop
  endfacet
  facet normal 0.000000e+000 0.000000e+000 8.885956e-001
    outer loop
      vertex   -1.541023e+002 5.184964e+001 5.000000e+000
      vertex   -1.459655e+002 5.199327e+001 5.000000e+000
      vertex   -1.539616e+002 5.213441e+001 5.000000e+000
    endloop
  endfacet
  facet normal -0.000000e+000 0.000000e+000 3.529138e-002
    outer loop
      vertex   -1.539616e+002 5.213441e+001 5.000000e+000
      vertex   -1.459655e+002 5.199327e+001 5.000000e+000
      vertex   -1.461162e+002 5.227289e+001 5.000000e+000
    endloop
  endfacet
  facet normal 0.000000e+000 0.000000e+000 8.540159e-001
    outer loop
      vertex   -1.539616e+002 5.213441e+001 5.000000e+000
      vertex   -1.461162e+002 5.227289e+001 5.000000e+000
      vertex   -1.538012e+002 5.240854e+001 5.000000e+000
    endloop
  endfacet
  facet normal -0.000000e+000 0.000000e+000 3.529159e-002
    outer loop
      vertex   -1.538012e+002 5.240854e+001 5.000000e+000
      vertex   -1.461162e+002 5.227289e+001 5.000000e+000
      vertex   -1.462862e+002 5.254119e+001 5.000000e+000
    endloop
  endfacet
  facet normal 0.000000e+000 0.000000e+000 8.151911e-001
    outer loop
      vertex   -1.538012e+002 5.240854e+001 5.000000e+000
      vertex   -1.462862e+002 5.254119e+001 5.000000e+000
      vertex   -1.536218e+002 5.267067e+001 5.000000e+000
    endloop
  endfacet
  facet normal -0.000000e+000 0.000000e+000 3.529149e-002
    outer loop
      vertex   -1.536218e+002 5.267067e+001 5.000000e+000
      vertex   -1.462862e+002 5.254119e+001 5.000000e+000
      vertex   -1.464747e+002 5.279683e+001 5.000000e+000
    endloop
  endfacet
  facet normal 0.000000e+000 0.000000e+000 7.723166e-001
    outer loop
      vertex   -1.536218e+002 5.267067e+001 5.000000e+000
      vertex   -1.464747e+002 5.279683e+001 5.000000e+000
      vertex   -1.534244e+002 5.291949e+001 5.000000e+000
    endloop
  endfacet
  facet normal -0.000000e+000 0.000000e+000 3.529124e-002
    outer loop
      vertex   -1.534244e+002 5.291949e+001 5.000000e+000
      vertex   -1.464747e+002 5.279683e+001 5.000000e+000
      vertex   -1.466808e+002 5.303853e+001 5.000000e+000
    endloop
  endfacet
  facet normal 0.000000e+000 0.000000e+000 7.255648e-001
    outer loop
      vertex   -1.534244e+002 5.291949e+001 5.000000e+000
      vertex   -1.466808e+002 5.303853e+001 5.000000e+000
      vertex   -1.532099e+002 5.315378e+001 5.000000e+000
    endloop
  endfacet
  facet normal -0.000000e+000 0.000000e+000 3.529141e-002
    outer loop
      vertex   -1.532099e+002 5.315378e+001 5.000000e+000
      vertex   -1.466808e+002 5.303853e+001 5.000000e+000
      vertex   -1.469034e+002 5.326509e+001 5.000000e+000
    endloop
  endfacet
  facet normal 0.000000e+000 0.000000e+000 6.752348e-001
    outer loop
      vertex   -1.532099e+002 5.315378e+001 5.000000e+000
      vertex   -1.469034e+002 5.326509e+001 5.000000e+000
      vertex   -1.529795e+002 5.337234e+001 5.000000e+000
    endloop
  endfacet
  facet normal -0.000000e+000 0.000000e+000 3.529150e-002
    outer loop
      vertex   -1.529795e+002 5.337234e+001 5.000000e+000
      vertex   -1.469034e+002 5.326509e+001 5.000000e+000
      vertex   -1.471414e+002 5.347540e+001 5.000000e+000
    endloop
  endfacet
  facet normal 0.000000e+000 0.000000e+000 6.215256e-001
    outer loop
      vertex   -1.529795e+002 5.337234e+001 5.000000e+000
      vertex   -1.471414e+002 5.347540e+001 5.000000e+000
      vertex   -1.527342e+002 5.357412e+001 5.000000e+000
    endloop
  endfacet
  facet normal -0.000000e+000 0.000000e+000 3.529132e-002
    outer loop
      vertex   -1.527342e+002 5.357412e+001 5.000000e+000
      vertex   -1.471414e+002 5.347540e+001 5.000000e+000
      vertex   -1.473937e+002 5.366838e+001 5.000000e+000
    endloop
  endfacet
  facet normal 0.000000e+000 0.000000e+000 5.647088e-001
    outer loop
      vertex   -1.527342e+002 5.357412e+001 5.000000e+000
      vertex   -1.473937e+002 5.366838e+001 5.000000e+000
      vertex   -1.524753e+002 5.375808e+001 5.000000e+000
    endloop
  endfacet
  facet normal -0.000000e+000 0.000000e+000 3.529200e-002
    outer loop
      vertex   -1.524753e+002 5.375808e+001 5.000000e+000
      vertex   -1.473937e+002 5.366838e+001 5.000000e+000
      vertex   -1.476589e+002 5.384309e+001 5.000000e+000
    endloop
  endfacet
  facet normal 0.000000e+000 0.000000e+000 5.050817e-001
    outer loop
      vertex   -1.524753e+002 5.375808e+001 5.000000e+000
      vertex   -1.476589e+002 5.384309e+001 5.000000e+000
      vertex   -1.522040e+002 5.392332e+001 5.000000e+000
    endloop
  endfacet
  facet normal -0.000000e+000 0.000000e+000 3.529127e-002
    outer loop
      vertex   -1.522040e+002 5.392332e+001 5.000000e+000
      vertex   -1.476589e+002 5.384309e+001 5.000000e+000
      vertex   -1.479358e+002 5.399866e+001 5.000000e+000
    endloop
  endfacet
  facet normal 0.000000e+000 0.000000e+000 4.429423e-001
    outer loop
      vertex   -1.522040e+002 5.392332e+001 5.000000e+000
      vertex   -1.479358e+002 5.399866e+001 5.000000e+000
      vertex   -1.519218e+002 5.406901e+001 5.000000e+000
    endloop
  endfacet
  facet normal -0.000000e+000 0.000000e+000 3.529145e-002
    outer loop
      vertex   -1.519218e+002 5.406901e+001 5.000000e+000
      vertex   -1.479358e+002 5.399866e+001 5.000000e+000
      vertex   -1.482230e+002 5.413430e+001 5.000000e+000
    endloop
  endfacet
  facet normal 0.000000e+000 0.000000e+000 3.786069e-001
    outer loop
      vertex   -1.519218e+002 5.406901e+001 5.000000e+000
      vertex   -1.482230e+002 5.413430e+001 5.000000e+000
      vertex   -1.516299e+002 5.419444e+001 5.000000e+000
    endloop
  endfacet
  facet normal -0.000000e+000 0.000000e+000 3.529067e-002
    outer loop
      vertex   -1.516299e+002 5.419444e+001 5.000000e+000
      vertex   -1.482230e+002 5.413430e+001 5.000000e+000
      vertex   -1.485191e+002 5.424934e+001 5.000000e+000
    endloop
  endfacet
  facet normal 0.000000e+000 0.000000e+000 3.123778e-001
    outer loop
      vertex   -1.516299e+002 5.419444e+001 5.000000e+000
      vertex   -1.485191e+002 5.424934e+001 5.000000e+000
      vertex   -1.513300e+002 5.429896e+001 5.000000e+000
    endloop
  endfacet
  facet normal -0.000000e+000 0.000000e+000 3.529130e-002
    outer loop
      vertex   -1.513300e+002 5.429896e+001 5.000000e+000
      vertex   -1.485191e+002 5.424934e+001 5.000000e+000
      vertex   -1.488225e+002 5.434322e+001 5.000000e+000
    endloop
  endfacet
  facet normal 0.000000e+000 0.000000e+000 2.445740e-001
    outer loop
      vertex   -1.513300e+002 5.429896e+001 5.000000e+000
      vertex   -1.488225e+002 5.434322e+001 5.000000e+000
      vertex   -1.510235e+002 5.438207e+001 5.000000e+000
    endloop
  endfacet
  facet normal -0.000000e+000 0.000000e+000 3.529185e-002
    outer loop
      vertex   -1.510235e+002 5.438207e+001 5.000000e+000
      vertex   -1.488225e+002 5.434322e+001 5.000000e+000
      vertex   -1.491318e+002 5.441546e+001 5.000000e+000
    endloop
  endfacet
  facet normal 0.000000e+000 0.000000e+000 1.755805e-001
    outer loop
      vertex   -1.510235e+002 5.438207e+001 5.000000e+000
      vertex   -1.491318e+002 5.441546e+001 5.000000e+000
      vertex   -1.507118e+002 5.444335e+001 5.000000e+000
    endloop
  endfacet
  facet normal -0.000000e+000 0.000000e+000 3.529343e-002
    outer loop
      vertex   -1.507118e+002 5.444335e+001 5.000000e+000
      vertex   -1.491318e+002 5.441546e+001 5.000000e+000
      vertex   -1.494454e+002 5.446570e+001 5.000000e+000
    endloop
  endfacet
  facet normal 0.000000e+000 0.000000e+000 1.057021e-001
    outer loop
      vertex   -1.507118e+002 5.444335e+001 5.000000e+000
      vertex   -1.494454e+002 5.446570e+001 5.000000e+000
      vertex   -1.503966e+002 5.448249e+001 5.000000e+000
    endloop
  endfacet
  facet normal -0.000000e+000 0.000000e+000 3.529055e-002
    outer loop
      vertex   -1.503966e+002 5.448249e+001 5.000000e+000
      vertex   -1.494454e+002 5.446570e+001 5.000000e+000
      vertex   -1.497618e+002 5.449369e+001 5.000000e+000
    endloop
  endfacet
  facet normal 0.000000e+000 0.000000e+000 3.528672e-002
    outer loop
      vertex   -1.503966e+002 5.448249e+001 5.000000e+000
      vertex   -1.497618e+002 5.449369e+001 5.000000e+000
      vertex   -1.500794e+002 5.449930e+001 5.000000e+000
    endloop
  endfacet
  facet normal 0.000000e+000 0.000000e+000 9.961101e-001
    outer loop
      vertex   -1.455028e+002 4.984119e+001 5.000000e+000
      vertex   -1.544888e+002 4.968258e+001 5.000000e+000
      vertex   -1.455252e+002 4.952436e+001 5.000000e+000
    endloop
  endfacet
  facet normal 0.000000e+000 0.000000e+000 3.529165e-002
    outer loop
      vertex   -1.455252e+002 4.952436e+001 5.000000e+000
      vertex   -1.544888e+002 4.968258e+001 5.000000e+000
      vertex   -1.544552e+002 4.936673e+001 5.000000e+000
    endloop
  endfacet
  facet normal 0.000000e+000 0.000000e+000 9.874133e-001
    outer loop
      vertex   -1.455252e+002 4.952436e+001 5.000000e+000
      vertex   -1.544552e+002 4.936673e+001 5.000000e+000
      vertex   -1.455699e+002 4.920989e+001 5.000000e+000
    endloop
  endfacet
  facet normal 0.000000e+000 0.000000e+000 3.529122e-002
    outer loop
      vertex   -1.455699e+002 4.920989e+001 5.000000e+000
      vertex   -1.544552e+002 4.936673e+001 5.000000e+000
      vertex   -1.543994e+002 4.905404e+001 5.000000e+000
    endloop
  endfacet
  facet normal 0.000000e+000 0.000000e+000 9.737904e-001
    outer loop
      vertex   -1.455699e+002 4.920989e+001 5.000000e+000
      vertex   -1.543994e+002 4.905404e+001 5.000000e+000
      vertex   -1.456367e+002 4.889937e+001 5.000000e+000
    endloop
  endfacet
  facet normal 0.000000e+000 0.000000e+000 3.529141e-002
    outer loop
      vertex   -1.456367e+002 4.889937e+001 5.000000e+000
      vertex   -1.543994e+002 4.905404e+001 5.000000e+000
      vertex   -1.543218e+002 4.874607e+001 5.000000e+000
    endloop
  endfacet
  facet normal 0.000000e+000 0.000000e+000 9.553295e-001
    outer loop
      vertex   -1.456367e+002 4.889937e+001 5.000000e+000
      vertex   -1.543218e+002 4.874607e+001 5.000000e+000
      vertex   -1.457252e+002 4.859433e+001 5.000000e+000
    endloop
  endfacet
  facet normal 0.000000e+000 0.000000e+000 3.529165e-002
    outer loop
      vertex   -1.457252e+002 4.859433e+001 5.000000e+000
      vertex   -1.543218e+002 4.874607e+001 5.000000e+000
      vertex   -1.542225e+002 4.844434e+001 5.000000e+000
    endloop
  endfacet
  facet normal 0.000000e+000 0.000000e+000 9.320824e-001
    outer loop
      vertex   -1.457252e+002 4.859433e+001 5.000000e+000
      vertex   -1.542225e+002 4.844434e+001 5.000000e+000
      vertex   -1.458350e+002 4.829628e+001 5.000000e+000
    endloop
  endfacet
  facet normal 0.000000e+000 0.000000e+000 3.529156e-002
    outer loop
      vertex   -1.458350e+002 4.829628e+001 5.000000e+000
      vertex   -1.542225e+002 4.844434e+001 5.000000e+000
      vertex   -1.541023e+002 4.815036e+001 5.000000e+000
    endloop
  endfacet
  facet normal 0.000000e+000 0.000000e+000 9.042418e-001
    outer loop
      vertex   -1.458350e+002 4.829628e+001 5.000000e+000
      vertex   -1.541023e+002 4.815036e+001 5.000000e+000
      vertex   -1.459655e+002 4.800673e+001 5.000000e+000
    endloop
  endfacet
  facet normal 0.000000e+000 0.000000e+000 3.529132e-002
    outer loop
      vertex   -1.459655e+002 4.800673e+001 5.000000e+000
      vertex   -1.541023e+002 4.815036e+001 5.000000e+000
      vertex   -1.539616e+002 4.786559e+001 5.000000e+000
    endloop
  endfacet
  facet normal 0.000000e+000 0.000000e+000 8.718311e-001
    outer loop
      vertex   -1.459655e+002 4.800673e+001 5.000000e+000
      vertex   -1.539616e+002 4.786559e+001 5.000000e+000
      vertex   -1.461162e+002 4.772711e+001 5.000000e+000
    endloop
  endfacet
  facet normal 0.000000e+000 0.000000e+000 3.529162e-002
    outer loop
      vertex   -1.461162e+002 4.772711e+001 5.000000e+000
      vertex   -1.539616e+002 4.786559e+001 5.000000e+000
      vertex   -1.538012e+002 4.759146e+001 5.000000e+000
    endloop
  endfacet
  facet normal 0.000000e+000 0.000000e+000 8.351343e-001
    outer loop
      vertex   -1.461162e+002 4.772711e+001 5.000000e+000
      vertex   -1.538012e+002 4.759146e+001 5.000000e+000
      vertex   -1.462862e+002 4.745881e+001 5.000000e+000
    endloop
  endfacet
  facet normal 0.000000e+000 0.000000e+000 3.529138e-002
    outer loop
      vertex   -1.462862e+002 4.745881e+001 5.000000e+000
      vertex   -1.538012e+002 4.759146e+001 5.000000e+000
      vertex   -1.536218e+002 4.732933e+001 5.000000e+000
    endloop
  endfacet
  facet normal 0.000000e+000 0.000000e+000 7.942426e-001
    outer loop
      vertex   -1.462862e+002 4.745881e+001 5.000000e+000
      vertex   -1.536218e+002 4.732933e+001 5.000000e+000
      vertex   -1.464747e+002 4.720317e+001 5.000000e+000
    endloop
  endfacet
  facet normal 0.000000e+000 0.000000e+000 3.529131e-002
    outer loop
      vertex   -1.464747e+002 4.720317e+001 5.000000e+000
      vertex   -1.536218e+002 4.732933e+001 5.000000e+000
      vertex   -1.534244e+002 4.708051e+001 5.000000e+000
    endloop
  endfacet
  facet normal 0.000000e+000 0.000000e+000 7.494273e-001
    outer loop
      vertex   -1.464747e+002 4.720317e+001 5.000000e+000
      vertex   -1.534244e+002 4.708051e+001 5.000000e+000
      vertex   -1.466808e+002 4.696147e+001 5.000000e+000
    endloop
  endfacet
  facet normal 0.000000e+000 0.000000e+000 3.529173e-002
    outer loop
      vertex   -1.466808e+002 4.696147e+001 5.000000e+000
      vertex   -1.534244e+002 4.708051e+001 5.000000e+000
      vertex   -1.532099e+002 4.684622e+001 5.000000e+000
    endloop
  endfacet
  facet normal 0.000000e+000 0.000000e+000 7.008263e-001
    outer loop
      vertex   -1.466808e+002 4.696147e+001 5.000000e+000
      vertex   -1.532099e+002 4.684622e+001 5.000000e+000
      vertex   -1.469034e+002 4.673491e+001 5.000000e+000
    endloop
  endfacet
  facet normal 0.000000e+000 0.000000e+000 3.529106e-002
    outer loop
      vertex   -1.469034e+002 4.673491e+001 5.000000e+000
      vertex   -1.532099e+002 4.684622e+001 5.000000e+000
      vertex   -1.529795e+002 4.662766e+001 5.000000e+000
    endloop
  endfacet
  facet normal 0.000000e+000 0.000000e+000 6.487904e-001
    outer loop
      vertex   -1.469034e+002 4.673491e+001 5.000000e+000
      vertex   -1.529795e+002 4.662766e+001 5.000000e+000
      vertex   -1.471414e+002 4.652460e+001 5.000000e+000
    endloop
  endfacet
  facet normal 0.000000e+000 0.000000e+000 3.529177e-002
    outer loop
      vertex   -1.471414e+002 4.652460e+001 5.000000e+000
      vertex   -1.529795e+002 4.662766e+001 5.000000e+000
      vertex   -1.527342e+002 4.642588e+001 5.000000e+000
    endloop
  endfacet
  facet normal 0.000000e+000 0.000000e+000 5.934780e-001
    outer loop
      vertex   -1.471414e+002 4.652460e+001 5.000000e+000
      vertex   -1.527342e+002 4.642588e+001 5.000000e+000
      vertex   -1.473937e+002 4.633162e+001 5.000000e+000
    endloop
  endfacet
  facet normal 0.000000e+000 0.000000e+000 3.529164e-002
    outer loop
      vertex   -1.473937e+002 4.633162e+001 5.000000e+000
      vertex   -1.527342e+002 4.642588e+001 5.000000e+000
      vertex   -1.524753e+002 4.624192e+001 5.000000e+000
    endloop
  endfacet
  facet normal 0.000000e+000 0.000000e+000 5.352328e-001
    outer loop
      vertex   -1.473937e+002 4.633162e+001 5.000000e+000
      vertex   -1.524753e+002 4.624192e+001 5.000000e+000
      vertex   -1.476589e+002 4.615691e+001 5.000000e+000
    endloop
  endfacet
  facet normal 0.000000e+000 0.000000e+000 3.529083e-002
    outer loop
      vertex   -1.476589e+002 4.615691e+001 5.000000e+000
      vertex   -1.524753e+002 4.624192e+001 5.000000e+000
      vertex   -1.522040e+002 4.607668e+001 5.000000e+000
    endloop
  endfacet
  facet normal 0.000000e+000 0.000000e+000 4.743151e-001
    outer loop
      vertex   -1.476589e+002 4.615691e+001 5.000000e+000
      vertex   -1.522040e+002 4.607668e+001 5.000000e+000
      vertex   -1.479358e+002 4.600134e+001 5.000000e+000
    endloop
  endfacet
  facet normal 0.000000e+000 0.000000e+000 3.529147e-002
    outer loop
      vertex   -1.479358e+002 4.600134e+001 5.000000e+000
      vertex   -1.522040e+002 4.607668e+001 5.000000e+000
      vertex   -1.519218e+002 4.593099e+001 5.000000e+000
    endloop
  endfacet
  facet normal 0.000000e+000 0.000000e+000 4.110344e-001
    outer loop
      vertex   -1.479358e+002 4.600134e+001 5.000000e+000
      vertex   -1.519218e+002 4.593099e+001 5.000000e+000
      vertex   -1.482230e+002 4.586570e+001 5.000000e+000
    endloop
  endfacet
  facet normal 0.000000e+000 0.000000e+000 3.529156e-002
    outer loop
      vertex   -1.482230e+002 4.586570e+001 5.000000e+000
      vertex   -1.519218e+002 4.593099e+001 5.000000e+000
      vertex   -1.516299e+002 4.580556e+001 5.000000e+000
    endloop
  endfacet
  facet normal 0.000000e+000 0.000000e+000 3.456849e-001
    outer loop
      vertex   -1.482230e+002 4.586570e+001 5.000000e+000
      vertex   -1.516299e+002 4.580556e+001 5.000000e+000
      vertex   -1.485191e+002 4.575066e+001 5.000000e+000
    endloop
  endfacet
  facet normal 0.000000e+000 0.000000e+000 3.529162e-002
    outer loop
      vertex   -1.485191e+002 4.575066e+001 5.000000e+000
      vertex   -1.516299e+002 4.580556e+001 5.000000e+000
      vertex   -1.513300e+002 4.570104e+001 5.000000e+000
    endloop
  endfacet
  facet normal 0.000000e+000 0.000000e+000 2.786482e-001
    outer loop
      vertex   -1.485191e+002 4.575066e+001 5.000000e+000
      vertex   -1.513300e+002 4.570104e+001 5.000000e+000
      vertex   -1.488225e+002 4.565678e+001 5.000000e+000
    endloop
  endfacet
  facet normal 0.000000e+000 0.000000e+000 3.529073e-002
    outer loop
      vertex   -1.488225e+002 4.565678e+001 5.000000e+000
      vertex   -1.513300e+002 4.570104e+001 5.000000e+000
      vertex   -1.510235e+002 4.561793e+001 5.000000e+000
    endloop
  endfacet
  facet normal 0.000000e+000 0.000000e+000 2.102170e-001
    outer loop
      vertex   -1.488225e+002 4.565678e+001 5.000000e+000
      vertex   -1.510235e+002 4.561793e+001 5.000000e+000
      vertex   -1.491318e+002 4.558454e+001 5.000000e+000
    endloop
  endfacet
  facet normal 0.000000e+000 0.000000e+000 3.529251e-002
    outer loop
      vertex   -1.491318e+002 4.558454e+001 5.000000e+000
      vertex   -1.510235e+002 4.561793e+001 5.000000e+000
      vertex   -1.507118e+002 4.555665e+001 5.000000e+000
    endloop
  endfacet
  facet normal 0.000000e+000 0.000000e+000 1.407389e-001
    outer loop
      vertex   -1.491318e+002 4.558454e+001 5.000000e+000
      vertex   -1.507118e+002 4.555665e+001 5.000000e+000
      vertex   -1.494454e+002 4.553430e+001 5.000000e+000
    endloop
  endfacet
  facet normal 0.000000e+000 0.000000e+000 3.529240e-002
    outer loop
      vertex   -1.494454e+002 4.553430e+001 5.000000e+000
      vertex   -1.507118e+002 4.555665e+001 5.000000e+000
      vertex   -1.503966e+002 4.551751e+001 5.000000e+000
    endloop
  endfacet
  facet normal 0.000000e+000 0.000000e+000 7.053616e-002
    outer loop
      vertex   -1.494454e+002 4.553430e+001 5.000000e+000
      vertex   -1.503966e+002 4.551751e+001 5.000000e+000
      vertex   -1.497618e+002 4.550631e+001 5.000000e+000
    endloop
  endfacet
  facet normal 0.000000e+000 0.000000e+000 3.528490e-002
    outer loop
      vertex   -1.497618e+002 4.550631e+001 5.000000e+000
      vertex   -1.503966e+002 4.551751e+001 5.000000e+000
      vertex   -1.500794e+002 4.550070e+001 5.000000e+000
    endloop
  endfacet
  facet normal 0.000000e+000 -0.000000e+000 -9.998439e-001
    outer loop
      vertex   -1.544888e+002 5.031742e+001 0.000000e+000
      vertex   -1.455028e+002 5.015881e+001 0.000000e+000
      vertex   -1.545000e+002 5.000000e+001 0.000000e+000
    endloop
  endfacet
  facet normal 0.000000e+000 0.000000e+000 -3.529190e-002
    outer loop
      vertex   -1.545000e+002 5.000000e+001 0.000000e+000
      vertex   -1.455028e+002 5.015881e+001 0.000000e+000
      vertex   -1.455028e+002 4.984119e+001 0.000000e+000
    endloop
  endfacet
  facet normal 0.000000e+000 0.000000e+000 -9.985976e-001
    outer loop
      vertex   -1.545000e+002 5.000000e+001 0.000000e+000
      vertex   -1.455028e+002 4.984119e+001 0.000000e+000
      vertex   -1.544888e+002 4.968258e+001 0.000000e+000
    endloop
  endfacet
  facet normal 0.000000e+000 0.000000e+000 -3.529124e-002
    outer loop
      vertex   -1.544888e+002 4.968258e+001 0.000000e+000
      vertex   -1.455028e+002 4.984119e+001 0.000000e+000
      vertex   -1.455252e+002 4.952436e+001 0.000000e+000
    endloop
  endfacet
  facet normal 0.000000e+000 0.000000e+000 -9.923791e-001
    outer loop
      vertex   -1.544888e+002 4.968258e+001 0.000000e+000
      vertex   -1.455252e+002 4.952436e+001 0.000000e+000
      vertex   -1.544552e+002 4.936673e+001 0.000000e+000
    endloop
  endfacet
  facet normal 0.000000e+000 0.000000e+000 -3.529171e-002
    outer loop
      vertex   -1.544552e+002 4.936673e+001 0.000000e+000
      vertex   -1.455252e+002 4.952436e+001 0.000000e+000
      vertex   -1.455699e+002 4.920989e+001 0.000000e+000
    endloop
  endfacet
  facet normal 0.000000e+000 0.000000e+000 -9.812113e-001
    outer loop
      vertex   -1.544552e+002 4.936673e+001 0.000000e+000
      vertex   -1.455699e+002 4.920989e+001 0.000000e+000
      vertex   -1.543994e+002 4.905404e+001 0.000000e+000
    endloop
  endfacet
  facet normal 0.000000e+000 0.000000e+000 -3.529124e-002
    outer loop
      vertex   -1.543994e+002 4.905404e+001 0.000000e+000
      vertex   -1.455699e+002 4.920989e+001 0.000000e+000
      vertex   -1.456367e+002 4.889937e+001 0.000000e+000
    endloop
  endfacet
  facet normal 0.000000e+000 0.000000e+000 -9.651629e-001
    outer loop
      vertex   -1.543994e+002 4.905404e+001 0.000000e+000
      vertex   -1.456367e+002 4.889937e+001 0.000000e+000
      vertex   -1.543218e+002 4.874607e+001 0.000000e+000
    endloop
  endfacet
  facet normal 0.000000e+000 0.000000e+000 -3.529140e-002
    outer loop
      vertex   -1.543218e+002 4.874607e+001 0.000000e+000
      vertex   -1.456367e+002 4.889937e+001 0.000000e+000
      vertex   -1.457252e+002 4.859433e+001 0.000000e+000
    endloop
  endfacet
  facet normal 0.000000e+000 0.000000e+000 -9.443035e-001
    outer loop
      vertex   -1.543218e+002 4.874607e+001 0.000000e+000
      vertex   -1.457252e+002 4.859433e+001 0.000000e+000
      vertex   -1.542225e+002 4.844434e+001 0.000000e+000
    endloop
  endfacet
  facet normal 0.000000e+000 0.000000e+000 -3.529175e-002
    outer loop
      vertex   -1.542225e+002 4.844434e+001 0.000000e+000
      vertex   -1.457252e+002 4.859433e+001 0.000000e+000
      vertex   -1.458350e+002 4.829628e+001 0.000000e+000
    endloop
  endfacet
  facet normal 0.000000e+000 0.000000e+000 -9.187318e-001
    outer loop
      vertex   -1.542225e+002 4.844434e+001 0.000000e+000
      vertex   -1.458350e+002 4.829628e+001 0.000000e+000
      vertex   -1.541023e+002 4.815036e+001 0.000000e+000
    endloop
  endfacet
  facet normal 0.000000e+000 0.000000e+000 -3.529132e-002
    outer loop
      vertex   -1.541023e+002 4.815036e+001 0.000000e+000
      vertex   -1.458350e+002 4.829628e+001 0.000000e+000
      vertex   -1.459655e+002 4.800673e+001 0.000000e+000
    endloop
  endfacet
  facet normal 0.000000e+000 0.000000e+000 -8.885956e-001
    outer loop
      vertex   -1.541023e+002 4.815036e+001 0.000000e+000
      vertex   -1.459655e+002 4.800673e+001 0.000000e+000
      vertex   -1.539616e+002 4.786559e+001 0.000000e+000
    endloop
  endfacet
  facet normal 0.000000e+000 0.000000e+000 -3.529138e-002
    outer loop
      vertex   -1.539616e+002 4.786559e+001 0.000000e+000
      vertex   -1.459655e+002 4.800673e+001 0.000000e+000
      vertex   -1.461162e+002 4.772711e+001 0.000000e+000
    endloop
  endfacet
  facet normal 0.000000e+000 0.000000e+000 -8.540159e-001
    outer loop
      vertex   -1.539616e+002 4.786559e+001 0.000000e+000
      vertex   -1.461162e+002 4.772711e+001 0.000000e+000
      vertex   -1.538012e+002 4.759146e+001 0.000000e+000
    endloop
  endfacet
  facet normal 0.000000e+000 0.000000e+000 -3.529159e-002
    outer loop
      vertex   -1.538012e+002 4.759146e+001 0.000000e+000
      vertex   -1.461162e+002 4.772711e+001 0.000000e+000
      vertex   -1.462862e+002 4.745881e+001 0.000000e+000
    endloop
  endfacet
  facet normal 0.000000e+000 0.000000e+000 -8.151911e-001
    outer loop
      vertex   -1.538012e+002 4.759146e+001 0.000000e+000
      vertex   -1.462862e+002 4.745881e+001 0.000000e+000
      vertex   -1.536218e+002 4.732933e+001 0.000000e+000
    endloop
  endfacet
  facet normal 0.000000e+000 0.000000e+000 -3.529149e-002
    outer loop
      vertex   -1.536218e+002 4.732933e+001 0.000000e+000
      vertex   -1.462862e+002 4.745881e+001 0.000000e+000
      vertex   -1.464747e+002 4.720317e+001 0.000000e+000
    endloop
  endfacet
  facet normal 0.000000e+000 0.000000e+000 -7.723166e-001
    outer loop
      vertex   -1.536218e+002 4.732933e+001 0.000000e+000
      vertex   -1.464747e+002 4.720317e+001 0.000000e+000
      vertex   -1.534244e+002 4.708051e+001 0.000000e+000
    endloop
  endfacet
  facet normal 0.000000e+000 0.000000e+000 -3.529124e-002
    outer loop
      vertex   -1.534244e+002 4.708051e+001 0.000000e+000
      vertex   -1.464747e+002 4.720317e+001 0.000000e+000
      vertex   -1.466808e+002 4.696147e+001 0.000000e+000
    endloop
  endfacet
  facet normal 0.000000e+000 0.000000e+000 -7.255648e-001
    outer loop
      vertex   -1.534244e+002 4.708051e+001 0.000000e+000
      vertex   -1.466808e+002 4.696147e+001 0.000000e+000
      vertex   -1.532099e+002 4.684622e+001 0.000000e+000
    endloop
  endfacet
  facet normal 0.000000e+000 0.000000e+000 -3.529141e-002
    outer loop
      vertex   -1.532099e+002 4.684622e+001 0.000000e+000
      vertex   -1.466808e+002 4.696147e+001 0.000000e+000
      vertex   -1.469034e+002 4.673491e+001 0.000000e+000
    endloop
  endfacet
  facet normal 0.000000e+000 0.000000e+000 -6.752348e-001
    outer loop
      vertex   -1.532099e+002 4.684622e+001 0.000000e+000
      vertex   -1.469034e+002 4.673491e+001 0.000000e+000
      vertex   -1.529795e+002 4.662766e+001 0.000000e+000
    endloop
  endfacet
  facet normal 0.000000e+000 0.000000e+000 -3.529150e-002
    outer loop
      vertex   -1.529795e+002 4.662766e+001 0.000000e+000
      vertex   -1.469034e+002 4.673491e+001 0.000000e+000
      vertex   -1.471414e+002 4.652460e+001 0.000000e+000
    endloop
  endfacet
  facet normal 0.000000e+000 0.000000e+000 -6.215256e-001
    outer loop
      vertex   -1.529795e+002 4.662766e+001 0.000000e+000
      vertex   -1.471414e+002 4.652460e+001 0.000000e+000
      vertex   -1.527342e+002 4.642588e+001 0.000000e+000
    endloop
  endfacet
  facet normal 0.000000e+000 0.000000e+000 -3.529132e-002
    outer loop
      vertex   -1.527342e+002 4.642588e+001 0.000000e+000
      vertex   -1.471414e+002 4.652460e+001 0.000000e+000
      vertex   -1.473937e+002 4.633162e+001 0.000000e+000
    endloop
  endfacet
  facet normal 0.000000e+000 0.000000e+000 -5.647088e-001
    outer loop
      vertex   -1.527342e+002 4.642588e+001 0.000000e+000
      vertex   -1.473937e+002 4.633162e+001 0.000000e+000
      vertex   -1.524753e+002 4.624192e+001 0.000000e+000
    endloop
  endfacet
  facet normal 0.000000e+000 0.000000e+000 -3.529200e-002
    outer loop
      vertex   -1.524753e+002 4.624192e+001 0.000000e+000
      vertex   -1.473937e+002 4.633162e+001 0.000000e+000
      vertex   -1.476589e+002 4.615691e+001 0.000000e+000
    endloop
  endfacet
  facet normal 0.000000e+000 0.000000e+000 -5.050817e-001
    outer loop
      vertex   -1.524753e+002 4.624192e+001 0.000000e+000
      vertex   -1.476589e+002 4.615691e+001 0.000000e+000
      vertex   -1.522040e+002 4.607668e+001 0.000000e+000
    endloop
  endfacet
  facet normal 0.000000e+000 0.000000e+000 -3.529127e-002
    outer loop
      vertex   -1.522040e+002 4.607668e+001 0.000000e+000
      vertex   -1.476589e+002 4.615691e+001 0.000000e+000
      vertex   -1.479358e+002 4.600134e+001 0.000000e+000
    endloop
  endfacet
  facet normal 0.000000e+000 0.000000e+000 -4.429423e-001
    outer loop
      vertex   -1.522040e+002 4.607668e+001 0.000000e+000
      vertex   -1.479358e+002 4.600134e+001 0.000000e+000
      vertex   -1.519218e+002 4.593099e+001 0.000000e+000
    endloop
  endfacet
  facet normal 0.000000e+000 0.000000e+000 -3.529145e-002
    outer loop
      vertex   -1.519218e+002 4.593099e+001 0.000000e+000
      vertex   -1.479358e+002 4.600134e+001 0.000000e+000
      vertex   -1.482230e+002 4.586570e+001 0.000000e+000
    endloop
  endfacet
  facet normal 0.000000e+000 0.000000e+000 -3.786069e-001
    outer loop
      vertex   -1.519218e+002 4.593099e+001 0.000000e+000
      vertex   -1.482230e+002 4.586570e+001 0.000000e+000
      vertex   -1.516299e+002 4.580556e+001 0.000000e+000
    endloop
  endfacet
  facet normal 0.000000e+000 0.000000e+000 -3.529067e-002
    outer loop
      vertex   -1.516299e+002 4.580556e+001 0.000000e+000
      vertex   -1.482230e+002 4.586570e+001 0.000000e+000
      vertex   -1.485191e+002 4.575066e+001 0.000000e+000
    endloop
  endfacet
  facet normal 0.000000e+000 0.000000e+000 -3.123778e-001
    outer loop
      vertex   -1.516299e+002 4.580556e+001 0.000000e+000
      vertex   -1.485191e+002 4.575066e+001 0.000000e+000
      vertex   -1.513300e+002 4.570104e+001 0.000000e+000
    endloop
  endfacet
  facet normal 0.000000e+000 0.000000e+000 -3.529130e-002
    outer loop
      vertex   -1.513300e+002 4.570104e+001 0.000000e+000
      vertex   -1.485191e+002 4.575066e+001 0.000000e+000
      vertex   -1.488225e+002 4.565678e+001 0.000000e+000
    endloop
  endfacet
  facet normal 0.000000e+000 0.000000e+000 -2.445740e-001
    outer loop
      vertex   -1.513300e+002 4.570104e+001 0.000000e+000
      vertex   -1.488225e+002 4.565678e+001 0.000000e+000
      vertex   -1.510235e+002 4.561793e+001 0.000000e+000
    endloop
  endfacet
  facet normal 0.000000e+000 0.000000e+000 -3.529185e-002
    outer loop
      vertex   -1.510235e+002 4.561793e+001 0.000000e+000
      vertex   -1.488225e+002 4.565678e+001 0.000000e+000
      vertex   -1.491318e+002 4.558454e+001 0.000000e+000
    endloop
  endfacet
  facet normal 0.000000e+000 0.000000e+000 -1.755805e-001
    outer loop
      vertex   -1.510235e+002 4.561793e+001 0.000000e+000
      vertex   -1.491318e+002 4.558454e+001 0.000000e+000
      vertex   -1.507118e+002 4.555665e+001 0.000000e+000
    endloop
  endfacet
  facet normal 0.000000e+000 0.000000e+000 -3.529343e-002
    outer loop
      vertex   -1.507118e+002 4.555665e+001 0.000000e+000
      vertex   -1.491318e+002 4.558454e+001 0.000000e+000
      vertex   -1.494454e+002 4.553430e+001 0.000000e+000
    endloop
  endfacet
  facet normal 0.000000e+000 0.000000e+000 -1.057021e-001
    outer loop
      vertex   -1.507118e+002 4.555665e+001 0.000000e+000
      vertex   -1.494454e+002 4.553430e+001 0.000000e+000
      vertex   -1.503966e+002 4.551751e+001 0.000000e+000
    endloop
  endfacet
  facet normal 0.000000e+000 0.000000e+000 -3.529055e-002
    outer loop
      vertex   -1.503966e+002 4.551751e+001 0.000000e+000
      vertex   -1.494454e+002 4.553430e+001 0.000000e+000
      vertex   -1.497618e+002 4.550631e+001 0.000000e+000
    endloop
  endfacet
  facet normal 0.000000e+000 0.000000e+000 -3.528672e-002
    outer loop
      vertex   -1.503966e+002 4.551751e+001 0.000000e+000
      vertex   -1.497618e+002 4.550631e+001 0.000000e+000
      vertex   -1.500794e+002 4.550070e+001 0.000000e+000
    endloop
  endfacet
  facet normal 0.000000e+000 0.000000e+000 -9.961101e-001
    outer loop
      vertex   -1.455028e+002 5.015881e+001 0.000000e+000
      vertex   -1.544888e+002 5.031742e+001 0.000000e+000
      vertex   -1.455252e+002 5.047564e+001 0.000000e+000
    endloop
  endfacet
  facet normal -0.000000e+000 0.000000e+000 -3.529165e-002
    outer loop
      vertex   -1.455252e+002 5.047564e+001 0.000000e+000
      vertex   -1.544888e+002 5.031742e+001 0.000000e+000
      vertex   -1.544552e+002 5.063327e+001 0.000000e+000
    endloop
  endfacet
  facet normal 0.000000e+000 0.000000e+000 -9.874133e-001
    outer loop
      vertex   -1.455252e+002 5.047564e+001 0.000000e+000
      vertex   -1.544552e+002 5.063327e+001 0.000000e+000
      vertex   -1.455699e+002 5.079011e+001 0.000000e+000
    endloop
  endfacet
  facet normal -0.000000e+000 0.000000e+000 -3.529122e-002
    outer loop
      vertex   -1.455699e+002 5.079011e+001 0.000000e+000
      vertex   -1.544552e+002 5.063327e+001 0.000000e+000
      vertex   -1.543994e+002 5.094596e+001 0.000000e+000
    endloop
  endfacet
  facet normal 0.000000e+000 0.000000e+000 -9.737904e-001
    outer loop
      vertex   -1.455699e+002 5.079011e+001 0.000000e+000
      vertex   -1.543994e+002 5.094596e+001 0.000000e+000
      vertex   -1.456367e+002 5.110063e+001 0.000000e+000
    endloop
  endfacet
  facet normal -0.000000e+000 0.000000e+000 -3.529141e-002
    outer loop
      vertex   -1.456367e+002 5.110063e+001 0.000000e+000
      vertex   -1.543994e+002 5.094596e+001 0.000000e+000
      vertex   -1.543218e+002 5.125393e+001 0.000000e+000
    endloop
  endfacet
  facet normal 0.000000e+000 0.000000e+000 -9.553295e-001
    outer loop
      vertex   -1.456367e+002 5.110063e+001 0.000000e+000
      vertex   -1.543218e+002 5.125393e+001 0.000000e+000
      vertex   -1.457252e+002 5.140567e+001 0.000000e+000
    endloop
  endfacet
  facet normal -0.000000e+000 0.000000e+000 -3.529165e-002
    outer loop
      vertex   -1.457252e+002 5.140567e+001 0.000000e+000
      vertex   -1.543218e+002 5.125393e+001 0.000000e+000
      vertex   -1.542225e+002 5.155566e+001 0.000000e+000
    endloop
  endfacet
  facet normal 0.000000e+000 0.000000e+000 -9.320824e-001
    outer loop
      vertex   -1.457252e+002 5.140567e+001 0.000000e+000
      vertex   -1.542225e+002 5.155566e+001 0.000000e+000
      vertex   -1.458350e+002 5.170372e+001 0.000000e+000
    endloop
  endfacet
  facet normal -0.000000e+000 0.000000e+000 -3.529156e-002
    outer loop
      vertex   -1.458350e+002 5.170372e+001 0.000000e+000
      vertex   -1.542225e+002 5.155566e+001 0.000000e+000
      vertex   -1.541023e+002 5.184964e+001 0.000000e+000
    endloop
  endfacet
  facet normal 0.000000e+000 0.000000e+000 -9.042418e-001
    outer loop
      vertex   -1.458350e+002 5.170372e+001 0.000000e+000
      vertex   -1.541023e+002 5.184964e+001 0.000000e+000
      vertex   -1.459655e+002 5.199327e+001 0.000000e+000
    endloop
  endfacet
  facet normal -0.000000e+000 0.000000e+000 -3.529132e-002
    outer loop
      vertex   -1.459655e+002 5.199327e+001 0.000000e+000
      vertex   -1.541023e+002 5.184964e+001 0.000000e+000
      vertex   -1.539616e+002 5.213441e+001 0.000000e+000
    endloop
  endfacet
  facet normal 0.000000e+000 0.000000e+000 -8.718311e-001
    outer loop
      vertex   -1.459655e+002 5.199327e+001 0.000000e+000
      vertex   -1.539616e+002 5.213441e+001 0.000000e+000
      vertex   -1.461162e+002 5.227289e+001 0.000000e+000
    endloop
  endfacet
  facet normal -0.000000e+000 0.000000e+000 -3.529162e-002
    outer loop
      vertex   -1.461162e+002 5.227289e+001 0.000000e+000
      vertex   -1.539616e+002 5.213441e+001 0.000000e+000
      vertex   -1.538012e+002 5.240854e+001 0.000000e+000
    endloop
  endfacet
  facet normal 0.000000e+000 0.000000e+000 -8.351343e-001
    outer loop
      vertex   -1.461162e+002 5.227289e+001 0.000000e+000
      vertex   -1.538012e+002 5.240854e+001 0.000000e+000
      vertex   -1.462862e+002 5.254119e+001 0.000000e+000
    endloop
  endfacet
  facet normal -0.000000e+000 0.000000e+000 -3.529138e-002
    outer loop
      vertex   -1.462862e+002 5.254119e+001 0.000000e+000
      vertex   -1.538012e+002 5.240854e+001 0.000000e+000
      vertex   -1.536218e+002 5.267067e+001 0.000000e+000
    endloop
  endfacet
  facet normal 0.000000e+000 0.000000e+000 -7.942426e-001
    outer loop
      vertex   -1.462862e+002 5.254119e+001 0.000000e+000
      vertex   -1.536218e+002 5.267067e+001 0.000000e+000
      vertex   -1.464747e+002 5.279683e+001 0.000000e+000
    endloop
  endfacet
  facet normal -0.000000e+000 0.000000e+000 -3.529131e-002
    outer loop
      vertex   -1.464747e+002 5.279683e+001 0.000000e+000
      vertex   -1.536218e+002 5.267067e+001 0.000000e+000
      vertex   -1.534244e+002 5.291949e+001 0.000000e+000
    endloop
  endfacet
  facet normal 0.000000e+000 0.000000e+000 -7.494273e-001
    outer loop
      vertex   -1.464747e+002 5.279683e+001 0.000000e+000
      vertex   -1.534244e+002 5.291949e+001 0.000000e+000
      vertex   -1.466808e+002 5.303853e+001 0.000000e+000
    endloop
  endfacet
  facet normal -0.000000e+000 0.000000e+000 -3.529173e-002
    outer loop
      vertex   -1.466808e+002 5.303853e+001 0.000000e+000
      vertex   -1.534244e+002 5.291949e+001 0.000000e+000
      vertex   -1.532099e+002 5.315378e+001 0.000000e+000
    endloop
  endfacet
  facet normal 0.000000e+000 0.000000e+000 -7.008263e-001
    outer loop
      vertex   -1.466808e+002 5.303853e+001 0.000000e+000
      vertex   -1.532099e+002 5.315378e+001 0.000000e+000
      vertex   -1.469034e+002 5.326509e+001 0.000000e+000
    endloop
  endfacet
  facet normal -0.000000e+000 0.000000e+000 -3.529106e-002
    outer loop
      vertex   -1.469034e+002 5.326509e+001 0.000000e+000
      vertex   -1.532099e+002 5.315378e+001 0.000000e+000
      vertex   -1.529795e+002 5.337234e+001 0.000000e+000
    endloop
  endfacet
  facet normal 0.000000e+000 0.000000e+000 -6.487904e-001
    outer loop
      vertex   -1.469034e+002 5.326509e+001 0.000000e+000
      vertex   -1.529795e+002 5.337234e+001 0.000000e+000
      vertex   -1.471414e+002 5.347540e+001 0.000000e+000
    endloop
  endfacet
  facet normal -0.000000e+000 0.000000e+000 -3.529177e-002
    outer loop
      vertex   -1.471414e+002 5.347540e+001 0.000000e+000
      vertex   -1.529795e+002 5.337234e+001 0.000000e+000
      vertex   -1.527342e+002 5.357412e+001 0.000000e+000
    endloop
  endfacet
  facet normal 0.000000e+000 0.000000e+000 -5.934780e-001
    outer loop
      vertex   -1.471414e+002 5.347540e+001 0.000000e+000
      vertex   -1.527342e+002 5.357412e+001 0.000000e+000
      vertex   -1.473937e+002 5.366838e+001 0.000000e+000
    endloop
  endfacet
  facet normal -0.000000e+000 0.000000e+000 -3.529164e-002
    outer loop
      vertex   -1.473937e+002 5.366838e+001 0.000000e+000
      vertex   -1.527342e+002 5.357412e+001 0.000000e+000
      vertex   -1.524753e+002 5.375808e+001 0.000000e+000
    endloop
  endfacet
  facet normal 0.000000e+000 0.000000e+000 -5.352328e-001
    outer loop
      vertex   -1.473937e+002 5.366838e+001 0.000000e+000
      vertex   -1.524753e+002 5.375808e+001 0.000000e+000
      vertex   -1.476589e+002 5.384309e+001 0.000000e+000
    endloop
  endfacet
  facet normal -0.000000e+000 0.000000e+000 -3.529083e-002
    outer loop
      vertex   -1.476589e+002 5.384309e+001 0.000000e+000
      vertex   -1.524753e+002 5.375808e+001 0.000000e+000
      vertex   -1.522040e+002 5.392332e+001 0.000000e+000
    endloop
  endfacet
  facet normal 0.000000e+000 0.000000e+000 -4.743151e-001
    outer loop
      vertex   -1.476589e+002 5.384309e+001 0.000000e+000
      vertex   -1.522040e+002 5.392332e+001 0.000000e+000
      vertex   -1.479358e+002 5.399866e+001 0.000000e+000
    endloop
  endfacet
  facet normal -0.000000e+000 0.000000e+000 -3.529147e-002
    outer loop
      vertex   -1.479358e+002 5.399866e+001 0.000000e+000
      vertex   -1.522040e+002 5.392332e+001 0.000000e+000
      vertex   -1.519218e+002 5.406901e+001 0.000000e+000
    endloop
  endfacet
  facet normal 0.000000e+000 0.000000e+000 -4.110344e-001
    outer loop
      vertex   -1.479358e+002 5.399866e+001 0.000000e+000
      vertex   -1.519218e+002 5.406901e+001 0.000000e+000
      vertex   -1.482230e+002 5.413430e+001 0.000000e+000
    endloop
  endfacet
  facet normal -0.000000e+000 0.000000e+000 -3.529156e-002
    outer loop
      vertex   -1.482230e+002 5.413430e+001 0.000000e+000
      vertex   -1.519218e+002 5.406901e+001 0.000000e+000
      vertex   -1.516299e+002 5.419444e+001 0.000000e+000
    endloop
  endfacet
  facet normal 0.000000e+000 0.000000e+000 -3.456849e-001
    outer loop
      vertex   -1.482230e+002 5.413430e+001 0.000000e+000
      vertex   -1.516299e+002 5.419444e+001 0.000000e+000
      vertex   -1.485191e+002 5.424934e+001 0.000000e+000
    endloop
  endfacet
  facet normal -0.000000e+000 0.000000e+000 -3.529162e-002
    outer loop
      vertex   -1.485191e+002 5.424934e+001 0.000000e+000
      vertex   -1.516299e+002 5.419444e+001 0.000000e+000
      vertex   -1.513300e+002 5.429896e+001 0.000000e+000
    endloop
  endfacet
  facet normal 0.000000e+000 0.000000e+000 -2.786482e-001
    outer loop
      vertex   -1.485191e+002 5.424934e+001 0.000000e+000
      vertex   -1.513300e+002 5.429896e+001 0.000000e+000
      vertex   -1.488225e+002 5.434322e+001 0.000000e+000
    endloop
  endfacet
  facet normal -0.000000e+000 0.000000e+000 -3.529073e-002
    outer loop
      vertex   -1.488225e+002 5.434322e+001 0.000000e+000
      vertex   -1.513300e+002 5.429896e+001 0.000000e+000
      vertex   -1.510235e+002 5.438207e+001 0.000000e+000
    endloop
  endfacet
  facet normal 0.000000e+000 0.000000e+000 -2.102170e-001
    outer loop
      vertex   -1.488225e+002 5.434322e+001 0.000000e+000
      vertex   -1.510235e+002 5.438207e+001 0.000000e+000
      vertex   -1.491318e+002 5.441546e+001 0.000000e+000
    endloop
  endfacet
  facet normal -0.000000e+000 0.000000e+000 -3.529251e-002
    outer loop
      vertex   -1.491318e+002 5.441546e+001 0.000000e+000
      vertex   -1.510235e+002 5.438207e+001 0.000000e+000
      vertex   -1.507118e+002 5.444335e+001 0.000000e+000
    endloop
  endfacet
  facet normal 0.000000e+000 0.000000e+000 -1.407389e-001
    outer loop
      vertex   -1.491318e+002 5.441546e+001 0.000000e+000
      vertex   -1.507118e+002 5.444335e+001 0.000000e+000
      vertex   -1.494454e+002 5.446570e+001 0.000000e+000
    endloop
  endfacet
  facet normal -0.000000e+000 0.000000e+000 -3.529240e-002
    outer loop
      vertex   -1.494454e+002 5.446570e+001 0.000000e+000
      vertex   -1.507118e+002 5.444335e+001 0.000000e+000
      vertex   -1.503966e+002 5.448249e+001 0.000000e+000
    endloop
  endfacet
  facet normal 0.000000e+000 0.000000e+000 -7.053616e-002
    outer loop
      vertex   -1.494454e+002 5.446570e+001 0.000000e+000
      vertex   -1.503966e+002 5.448249e+001 0.000000e+000
      vertex   -1.497618e+002 5.449369e+001 0.000000e+000
    endloop
  endfacet
  facet normal -0.000000e+000 0.000000e+000 -3.528490e-002
    outer loop
      vertex   -1.497618e+002 5.449369e+001 0.000000e+000
      vertex   -1.503966e+002 5.448249e+001 0.000000e+000
      vertex   -1.500794e+002 5.449930e+001 0.000000e+000
    endloop
  endfacet
endsolid
