solid ascii
  facet normal -1.000000e+000 0.000000e+000 0.000000e+000
    outer loop
      vertex   -2.698650e+001 1.470000e+002 2.400000e+001
      vertex   -2.698650e+001 1.369513e+002 2.400000e+001
      vertex   -2.698650e+001 1.470000e+002 2.450000e+001
    endloop
  endfacet
  facet normal -4.969617e-002 -0.000000e+000 0.000000e+000
    outer loop
      vertex   -2.698650e+001 1.470000e+002 2.450000e+001
      vertex   -2.698650e+001 1.369513e+002 2.400000e+001
      vertex   -2.698650e+001 1.369513e+002 2.450000e+001
    endloop
  endfacet
  facet normal 0.000000e+000 -1.000000e+000 0.000000e+000
    outer loop
      vertex   -3.000000e+001 1.470000e+002 2.400000e+001
      vertex   -2.698650e+001 1.470000e+002 2.400000e+001
      vertex   -3.000000e+001 1.470000e+002 2.450000e+001
    endloop
  endfacet
  facet normal 0.000000e+000 -1.636823e-001 0.000000e+000
    outer loop
      vertex   -3.000000e+001 1.470000e+002 2.450000e+001
      vertex   -2.698650e+001 1.470000e+002 2.400000e+001
      vertex   -2.698650e+001 1.470000e+002 2.450000e+001
    endloop
  endfacet
  facet normal 1.000000e+000 0.000000e+000 0.000000e+000
    outer loop
      vertex   -3.000000e+001 1.369513e+002 2.400000e+001
      vertex   -3.000000e+001 1.470000e+002 2.400000e+001
      vertex   -3.000000e+001 1.369513e+002 2.450000e+001
    endloop
  endfacet
  facet normal 4.969617e-002 -0.000000e+000 0.000000e+000
    outer loop
      vertex   -3.000000e+001 1.369513e+002 2.450000e+001
      vertex   -3.000000e+001 1.470000e+002 2.400000e+001
      vertex   -3.000000e+001 1.470000e+002 2.450000e+001
    endloop
  endfacet
  facet normal 0.000000e+000 1.000000e+000 -0.000000e+000
    outer loop
      vertex   -2.698650e+001 1.369513e+002 2.400000e+001
      vertex   -3.000000e+001 1.369513e+002 2.400000e+001
      vertex   -2.698650e+001 1.369513e+002 2.450000e+001
    endloop
  endfacet
  facet normal 0.000000e+000 1.636823e-001 0.000000e+000
    outer loop
      vertex   -2.698650e+001 1.369513e+002 2.450000e+001
      vertex   -3.000000e+001 1.369513e+002 2.400000e+001
      vertex   -3.000000e+001 1.369513e+002 2.450000e+001
    endloop
  endfacet
  facet normal 0.000000e+000 -1.000000e+000 0.000000e+000
    outer loop
      vertex   -3.000000e+001 1.362360e+002 2.400000e+001
      vertex   -2.698650e+001 1.362360e+002 2.400000e+001
      vertex   -3.000000e+001 1.362360e+002 2.450000e+001
    endloop
  endfacet
  facet normal 0.000000e+000 -1.636823e-001 0.000000e+000
    outer loop
      vertex   -3.000000e+001 1.362360e+002 2.450000e+001
      vertex   -2.698650e+001 1.362360e+002 2.400000e+001
      vertex   -2.698650e+001 1.362360e+002 2.450000e+001
    endloop
  endfacet
  facet normal 1.000000e+000 0.000000e+000 0.000000e+000
    outer loop
      vertex   -3.000000e+001 1.260000e+002 2.400000e+001
      vertex   -3.000000e+001 1.362360e+002 2.400000e+001
      vertex   -3.000000e+001 1.260000e+002 2.450000e+001
    endloop
  endfacet
  facet normal 4.878921e-002 -0.000000e+000 0.000000e+000
    outer loop
      vertex   -3.000000e+001 1.260000e+002 2.450000e+001
      vertex   -3.000000e+001 1.362360e+002 2.400000e+001
      vertex   -3.000000e+001 1.362360e+002 2.450000e+001
    endloop
  endfacet
  facet normal 0.000000e+000 1.000000e+000 -0.000000e+000
    outer loop
      vertex   -2.698650e+001 1.260000e+002 2.400000e+001
      vertex   -3.000000e+001 1.260000e+002 2.400000e+001
      vertex   -2.698650e+001 1.260000e+002 2.450000e+001
    endloop
  endfacet
  facet normal 0.000000e+000 1.636823e-001 0.000000e+000
    outer loop
      vertex   -2.698650e+001 1.260000e+002 2.450000e+001
      vertex   -3.000000e+001 1.260000e+002 2.400000e+001
      vertex   -3.000000e+001 1.260000e+002 2.450000e+001
    endloop
  endfacet
  facet normal -1.000000e+000 0.000000e+000 0.000000e+000
    outer loop
      vertex   -2.698650e+001 1.362360e+002 2.400000e+001
      vertex   -2.698650e+001 1.260000e+002 2.400000e+001
      vertex   -2.698650e+001 1.362360e+002 2.450000e+001
    endloop
  endfacet
  facet normal -4.878921e-002 -0.000000e+000 0.000000e+000
    outer loop
      vertex   -2.698650e+001 1.362360e+002 2.450000e+001
      vertex   -2.698650e+001 1.260000e+002 2.400000e+001
      vertex   -2.698650e+001 1.260000e+002 2.450000e+001
    endloop
  endfacet
  facet normal 0.000000e+000 1.000000e+000 -0.000000e+000
    outer loop
      vertex   -2.500000e+001 1.260000e+002 2.400000e+001
      vertex   -2.600000e+001 1.260000e+002 2.400000e+001
      vertex   -2.500000e+001 1.260000e+002 2.450000e+001
    endloop
  endfacet
  facet normal 0.000000e+000 4.472136e-001 0.000000e+000
    outer loop
      vertex   -2.500000e+001 1.260000e+002 2.450000e+001
      vertex   -2.600000e+001 1.260000e+002 2.400000e+001
      vertex   -2.600000e+001 1.260000e+002 2.450000e+001
    endloop
  endfacet
  facet normal 0.000000e+000 -1.000000e+000 0.000000e+000
    outer loop
      vertex   -2.600000e+001 1.470000e+002 2.400000e+001
      vertex   -2.500000e+001 1.470000e+002 2.400000e+001
      vertex   -2.600000e+001 1.470000e+002 2.450000e+001
    endloop
  endfacet
  facet normal 0.000000e+000 -4.472136e-001 0.000000e+000
    outer loop
      vertex   -2.600000e+001 1.470000e+002 2.450000e+001
      vertex   -2.500000e+001 1.470000e+002 2.400000e+001
      vertex   -2.500000e+001 1.470000e+002 2.450000e+001
    endloop
  endfacet
  facet normal 1.000000e+000 0.000000e+000 0.000000e+000
    outer loop
      vertex   -2.600000e+001 1.260000e+002 2.400000e+001
      vertex   -2.600000e+001 1.470000e+002 2.400000e+001
      vertex   -2.600000e+001 1.260000e+002 2.450000e+001
    endloop
  endfacet
  facet normal 2.380278e-002 -0.000000e+000 0.000000e+000
    outer loop
      vertex   -2.600000e+001 1.260000e+002 2.450000e+001
      vertex   -2.600000e+001 1.470000e+002 2.400000e+001
      vertex   -2.600000e+001 1.470000e+002 2.450000e+001
    endloop
  endfacet
  facet normal 0.000000e+000 0.000000e+000 1.000000e+000
    outer loop
      vertex   -2.698650e+001 1.260000e+002 2.450000e+001
      vertex   -2.600000e+001 1.260000e+002 2.450000e+001
      vertex   -2.698650e+001 1.362360e+002 2.450000e+001
    endloop
  endfacet
  facet normal -0.000000e+000 0.000000e+000 1.863754e-001
    outer loop
      vertex   -2.698650e+001 1.362360e+002 2.450000e+001
      vertex   -2.600000e+001 1.260000e+002 2.450000e+001
      vertex   -2.600000e+001 1.470000e+002 2.450000e+001
    endloop
  endfacet
  facet normal 0.000000e+000 0.000000e+000 9.126526e-002
    outer loop
      vertex   -2.698650e+001 1.362360e+002 2.450000e+001
      vertex   -2.600000e+001 1.470000e+002 2.450000e+001
      vertex   -2.698650e+001 1.369513e+002 2.450000e+001
    endloop
  endfacet
  facet normal 0.000000e+000 0.000000e+000 9.770214e-002
    outer loop
      vertex   -2.698650e+001 1.369513e+002 2.450000e+001
      vertex   -2.600000e+001 1.470000e+002 2.450000e+001
      vertex   -2.698650e+001 1.470000e+002 2.450000e+001
    endloop
  endfacet
  facet normal 0.000000e+000 0.000000e+000 4.496400e-001
    outer loop
      vertex   -2.698650e+001 1.470000e+002 2.450000e+001
      vertex   -2.600000e+001 1.470000e+002 2.450000e+001
      vertex   -2.500000e+001 1.480000e+002 2.450000e+001
    endloop
  endfacet
  facet normal 0.000000e+000 -0.000000e+000 6.522503e-001
    outer loop
      vertex   -2.698650e+001 1.470000e+002 2.450000e+001
      vertex   -2.500000e+001 1.480000e+002 2.450000e+001
      vertex   -3.100000e+001 1.480000e+002 2.450000e+001
    endloop
  endfacet
  facet normal -0.000000e+000 0.000000e+000 7.071068e-001
    outer loop
      vertex   -3.000000e+001 1.260000e+002 2.450000e+001
      vertex   -3.100000e+001 1.250000e+002 2.450000e+001
      vertex   -2.698650e+001 1.260000e+002 2.450000e+001
    endloop
  endfacet
  facet normal 0.000000e+000 0.000000e+000 6.522503e-001
    outer loop
      vertex   -2.698650e+001 1.260000e+002 2.450000e+001
      vertex   -3.100000e+001 1.250000e+002 2.450000e+001
      vertex   -2.500000e+001 1.250000e+002 2.450000e+001
    endloop
  endfacet
  facet normal -0.000000e+000 0.000000e+000 4.496400e-001
    outer loop
      vertex   -2.698650e+001 1.260000e+002 2.450000e+001
      vertex   -2.500000e+001 1.250000e+002 2.450000e+001
      vertex   -2.600000e+001 1.260000e+002 2.450000e+001
    endloop
  endfacet
  facet normal -0.000000e+000 0.000000e+000 7.071068e-001
    outer loop
      vertex   -2.600000e+001 1.260000e+002 2.450000e+001
      vertex   -2.500000e+001 1.250000e+002 2.450000e+001
      vertex   -2.500000e+001 1.260000e+002 2.450000e+001
    endloop
  endfacet
  facet normal 0.000000e+000 -0.000000e+000 7.071068e-001
    outer loop
      vertex   -3.000000e+001 1.260000e+002 2.450000e+001
      vertex   -3.000000e+001 1.362360e+002 2.450000e+001
      vertex   -3.100000e+001 1.250000e+002 2.450000e+001
    endloop
  endfacet
  facet normal 0.000000e+000 0.000000e+000 8.864954e-002
    outer loop
      vertex   -3.100000e+001 1.250000e+002 2.450000e+001
      vertex   -3.000000e+001 1.362360e+002 2.450000e+001
      vertex   -3.100000e+001 1.480000e+002 2.450000e+001
    endloop
  endfacet
  facet normal 0.000000e+000 0.000000e+000 5.461411e-003
    outer loop
      vertex   -3.100000e+001 1.480000e+002 2.450000e+001
      vertex   -3.000000e+001 1.362360e+002 2.450000e+001
      vertex   -3.000000e+001 1.369513e+002 2.450000e+001
    endloop
  endfacet
  facet normal 0.000000e+000 0.000000e+000 6.404897e-001
    outer loop
      vertex   -3.100000e+001 1.480000e+002 2.450000e+001
      vertex   -3.000000e+001 1.369513e+002 2.450000e+001
      vertex   -3.000000e+001 1.470000e+002 2.450000e+001
    endloop
  endfacet
  facet normal 0.000000e+000 0.000000e+000 1.000000e+000
    outer loop
      vertex   -3.000000e+001 1.362360e+002 2.450000e+001
      vertex   -2.698650e+001 1.362360e+002 2.450000e+001
      vertex   -3.000000e+001 1.369513e+002 2.450000e+001
    endloop
  endfacet
  facet normal -0.000000e+000 0.000000e+000 2.309580e-001
    outer loop
      vertex   -3.000000e+001 1.369513e+002 2.450000e+001
      vertex   -2.698650e+001 1.362360e+002 2.450000e+001
      vertex   -2.698650e+001 1.369513e+002 2.450000e+001
    endloop
  endfacet
  facet normal 0.000000e+000 -0.000000e+000 7.071068e-001
    outer loop
      vertex   -3.000000e+001 1.470000e+002 2.450000e+001
      vertex   -2.698650e+001 1.470000e+002 2.450000e+001
      vertex   -3.100000e+001 1.480000e+002 2.450000e+001
    endloop
  endfacet
  facet normal 0.000000e+000 0.000000e+000 7.071068e-001
    outer loop
      vertex   -2.600000e+001 1.470000e+002 2.450000e+001
      vertex   -2.500000e+001 1.470000e+002 2.450000e+001
      vertex   -2.500000e+001 1.480000e+002 2.450000e+001
    endloop
  endfacet
  facet normal 0.000000e+000 0.000000e+000 1.000000e+000
    outer loop
      vertex   -2.698650e+001 1.362360e+002 2.400000e+001
      vertex   -3.000000e+001 1.362360e+002 2.400000e+001
      vertex   -2.698650e+001 1.260000e+002 2.400000e+001
    endloop
  endfacet
  facet normal 0.000000e+000 0.000000e+000 9.592913e-001
    outer loop
      vertex   -2.698650e+001 1.260000e+002 2.400000e+001
      vertex   -3.000000e+001 1.362360e+002 2.400000e+001
      vertex   -3.000000e+001 1.260000e+002 2.400000e+001
    endloop
  endfacet
  facet normal 0.000000e+000 0.000000e+000 1.000000e+000
    outer loop
      vertex   -2.500000e+001 1.470000e+002 2.400000e+001
      vertex   -2.600000e+001 1.470000e+002 2.400000e+001
      vertex   -2.500000e+001 1.260000e+002 2.400000e+001
    endloop
  endfacet
  facet normal 0.000000e+000 0.000000e+000 9.988682e-001
    outer loop
      vertex   -2.500000e+001 1.260000e+002 2.400000e+001
      vertex   -2.600000e+001 1.470000e+002 2.400000e+001
      vertex   -2.600000e+001 1.260000e+002 2.400000e+001
    endloop
  endfacet
  facet normal 1.000000e+000 0.000000e+000 0.000000e+000
    outer loop
      vertex   -3.000000e+001 1.470000e+002 0.000000e+000
      vertex   -3.000000e+001 1.369513e+002 0.000000e+000
      vertex   -3.000000e+001 1.470000e+002 -5.000000e-001
    endloop
  endfacet
  facet normal 4.969617e-002 0.000000e+000 0.000000e+000
    outer loop
      vertex   -3.000000e+001 1.470000e+002 -5.000000e-001
      vertex   -3.000000e+001 1.369513e+002 0.000000e+000
      vertex   -3.000000e+001 1.369513e+002 -5.000000e-001
    endloop
  endfacet
  facet normal -0.000000e+000 -1.000000e+000 -0.000000e+000
    outer loop
      vertex   -2.698650e+001 1.470000e+002 0.000000e+000
      vertex   -3.000000e+001 1.470000e+002 0.000000e+000
      vertex   -2.698650e+001 1.470000e+002 -5.000000e-001
    endloop
  endfacet
  facet normal 0.000000e+000 -1.636823e-001 0.000000e+000
    outer loop
      vertex   -2.698650e+001 1.470000e+002 -5.000000e-001
      vertex   -3.000000e+001 1.470000e+002 0.000000e+000
      vertex   -3.000000e+001 1.470000e+002 -5.000000e-001
    endloop
  endfacet
  facet normal -1.000000e+000 0.000000e+000 0.000000e+000
    outer loop
      vertex   -2.698650e+001 1.369513e+002 0.000000e+000
      vertex   -2.698650e+001 1.470000e+002 0.000000e+000
      vertex   -2.698650e+001 1.369513e+002 -5.000000e-001
    endloop
  endfacet
  facet normal -4.969617e-002 0.000000e+000 0.000000e+000
    outer loop
      vertex   -2.698650e+001 1.369513e+002 -5.000000e-001
      vertex   -2.698650e+001 1.470000e+002 0.000000e+000
      vertex   -2.698650e+001 1.470000e+002 -5.000000e-001
    endloop
  endfacet
  facet normal -0.000000e+000 1.000000e+000 0.000000e+000
    outer loop
      vertex   -3.000000e+001 1.369513e+002 0.000000e+000
      vertex   -2.698650e+001 1.369513e+002 0.000000e+000
      vertex   -3.000000e+001 1.369513e+002 -5.000000e-001
    endloop
  endfacet
  facet normal 0.000000e+000 1.636823e-001 0.000000e+000
    outer loop
      vertex   -3.000000e+001 1.369513e+002 -5.000000e-001
      vertex   -2.698650e+001 1.369513e+002 0.000000e+000
      vertex   -2.698650e+001 1.369513e+002 -5.000000e-001
    endloop
  endfacet
  facet normal -0.000000e+000 1.000000e+000 0.000000e+000
    outer loop
      vertex   -3.000000e+001 1.260000e+002 0.000000e+000
      vertex   -2.698650e+001 1.260000e+002 0.000000e+000
      vertex   -3.000000e+001 1.260000e+002 -5.000000e-001
    endloop
  endfacet
  facet normal 0.000000e+000 1.636823e-001 0.000000e+000
    outer loop
      vertex   -3.000000e+001 1.260000e+002 -5.000000e-001
      vertex   -2.698650e+001 1.260000e+002 0.000000e+000
      vertex   -2.698650e+001 1.260000e+002 -5.000000e-001
    endloop
  endfacet
  facet normal 1.000000e+000 0.000000e+000 0.000000e+000
    outer loop
      vertex   -3.000000e+001 1.362360e+002 0.000000e+000
      vertex   -3.000000e+001 1.260000e+002 0.000000e+000
      vertex   -3.000000e+001 1.362360e+002 -5.000000e-001
    endloop
  endfacet
  facet normal 4.878921e-002 0.000000e+000 0.000000e+000
    outer loop
      vertex   -3.000000e+001 1.362360e+002 -5.000000e-001
      vertex   -3.000000e+001 1.260000e+002 0.000000e+000
      vertex   -3.000000e+001 1.260000e+002 -5.000000e-001
    endloop
  endfacet
  facet normal -0.000000e+000 -1.000000e+000 -0.000000e+000
    outer loop
      vertex   -2.698650e+001 1.362360e+002 0.000000e+000
      vertex   -3.000000e+001 1.362360e+002 0.000000e+000
      vertex   -2.698650e+001 1.362360e+002 -5.000000e-001
    endloop
  endfacet
  facet normal 0.000000e+000 -1.636823e-001 0.000000e+000
    outer loop
      vertex   -2.698650e+001 1.362360e+002 -5.000000e-001
      vertex   -3.000000e+001 1.362360e+002 0.000000e+000
      vertex   -3.000000e+001 1.362360e+002 -5.000000e-001
    endloop
  endfacet
  facet normal -1.000000e+000 0.000000e+000 0.000000e+000
    outer loop
      vertex   -2.698650e+001 1.260000e+002 0.000000e+000
      vertex   -2.698650e+001 1.362360e+002 0.000000e+000
      vertex   -2.698650e+001 1.260000e+002 -5.000000e-001
    endloop
  endfacet
  facet normal -4.878921e-002 0.000000e+000 0.000000e+000
    outer loop
      vertex   -2.698650e+001 1.260000e+002 -5.000000e-001
      vertex   -2.698650e+001 1.362360e+002 0.000000e+000
      vertex   -2.698650e+001 1.362360e+002 -5.000000e-001
    endloop
  endfacet
  facet normal -0.000000e+000 -1.000000e+000 -0.000000e+000
    outer loop
      vertex   -2.500000e+001 1.470000e+002 0.000000e+000
      vertex   -2.600000e+001 1.470000e+002 0.000000e+000
      vertex   -2.500000e+001 1.470000e+002 -5.000000e-001
    endloop
  endfacet
  facet normal 0.000000e+000 -4.472136e-001 0.000000e+000
    outer loop
      vertex   -2.500000e+001 1.470000e+002 -5.000000e-001
      vertex   -2.600000e+001 1.470000e+002 0.000000e+000
      vertex   -2.600000e+001 1.470000e+002 -5.000000e-001
    endloop
  endfacet
  facet normal -0.000000e+000 1.000000e+000 0.000000e+000
    outer loop
      vertex   -2.600000e+001 1.260000e+002 0.000000e+000
      vertex   -2.500000e+001 1.260000e+002 0.000000e+000
      vertex   -2.600000e+001 1.260000e+002 -5.000000e-001
    endloop
  endfacet
  facet normal 0.000000e+000 4.472136e-001 0.000000e+000
    outer loop
      vertex   -2.600000e+001 1.260000e+002 -5.000000e-001
      vertex   -2.500000e+001 1.260000e+002 0.000000e+000
      vertex   -2.500000e+001 1.260000e+002 -5.000000e-001
    endloop
  endfacet
  facet normal 1.000000e+000 0.000000e+000 0.000000e+000
    outer loop
      vertex   -2.600000e+001 1.470000e+002 0.000000e+000
      vertex   -2.600000e+001 1.260000e+002 0.000000e+000
      vertex   -2.600000e+001 1.470000e+002 -5.000000e-001
    endloop
  endfacet
  facet normal 2.380278e-002 0.000000e+000 0.000000e+000
    outer loop
      vertex   -2.600000e+001 1.470000e+002 -5.000000e-001
      vertex   -2.600000e+001 1.260000e+002 0.000000e+000
      vertex   -2.600000e+001 1.260000e+002 -5.000000e-001
    endloop
  endfacet
  facet normal 0.000000e+000 0.000000e+000 -9.593138e-002
    outer loop
      vertex   -2.698650e+001 1.362360e+002 -5.000000e-001
      vertex   -2.600000e+001 1.260000e+002 -5.000000e-001
      vertex   -2.698650e+001 1.260000e+002 -5.000000e-001
    endloop
  endfacet
  facet normal 0.000000e+000 0.000000e+000 -4.496400e-001
    outer loop
      vertex   -2.698650e+001 1.260000e+002 -5.000000e-001
      vertex   -2.600000e+001 1.260000e+002 -5.000000e-001
      vertex   -2.500000e+001 1.250000e+002 -5.000000e-001
    endloop
  endfacet
  facet normal 0.000000e+000 -0.000000e+000 -6.522503e-001
    outer loop
      vertex   -2.698650e+001 1.260000e+002 -5.000000e-001
      vertex   -2.500000e+001 1.250000e+002 -5.000000e-001
      vertex   -3.100000e+001 1.250000e+002 -5.000000e-001
    endloop
  endfacet
  facet normal 0.000000e+000 0.000000e+000 -2.309580e-001
    outer loop
      vertex   -3.000000e+001 1.362360e+002 -5.000000e-001
      vertex   -2.698650e+001 1.369513e+002 -5.000000e-001
      vertex   -2.698650e+001 1.362360e+002 -5.000000e-001
    endloop
  endfacet
  facet normal 0.000000e+000 0.000000e+000 -9.126526e-002
    outer loop
      vertex   -2.698650e+001 1.362360e+002 -5.000000e-001
      vertex   -2.698650e+001 1.369513e+002 -5.000000e-001
      vertex   -2.600000e+001 1.470000e+002 -5.000000e-001
    endloop
  endfacet
  facet normal 0.000000e+000 0.000000e+000 -1.863754e-001
    outer loop
      vertex   -2.698650e+001 1.362360e+002 -5.000000e-001
      vertex   -2.600000e+001 1.470000e+002 -5.000000e-001
      vertex   -2.600000e+001 1.260000e+002 -5.000000e-001
    endloop
  endfacet
  facet normal -0.000000e+000 0.000000e+000 -7.071068e-001
    outer loop
      vertex   -3.000000e+001 1.260000e+002 -5.000000e-001
      vertex   -3.100000e+001 1.250000e+002 -5.000000e-001
      vertex   -3.000000e+001 1.362360e+002 -5.000000e-001
    endloop
  endfacet
  facet normal -0.000000e+000 0.000000e+000 -1.726969e-001
    outer loop
      vertex   -3.000000e+001 1.362360e+002 -5.000000e-001
      vertex   -3.100000e+001 1.250000e+002 -5.000000e-001
      vertex   -3.100000e+001 1.480000e+002 -5.000000e-001
    endloop
  endfacet
  facet normal 0.000000e+000 0.000000e+000 -8.469936e-002
    outer loop
      vertex   -3.000000e+001 1.362360e+002 -5.000000e-001
      vertex   -3.100000e+001 1.480000e+002 -5.000000e-001
      vertex   -3.000000e+001 1.369513e+002 -5.000000e-001
    endloop
  endfacet
  facet normal 0.000000e+000 0.000000e+000 -9.013989e-002
    outer loop
      vertex   -3.000000e+001 1.369513e+002 -5.000000e-001
      vertex   -3.100000e+001 1.480000e+002 -5.000000e-001
      vertex   -3.000000e+001 1.470000e+002 -5.000000e-001
    endloop
  endfacet
  facet normal 0.000000e+000 0.000000e+000 -7.071068e-001
    outer loop
      vertex   -3.000000e+001 1.470000e+002 -5.000000e-001
      vertex   -3.100000e+001 1.480000e+002 -5.000000e-001
      vertex   -2.698650e+001 1.470000e+002 -5.000000e-001
    endloop
  endfacet
  facet normal 0.000000e+000 0.000000e+000 -6.522503e-001
    outer loop
      vertex   -2.698650e+001 1.470000e+002 -5.000000e-001
      vertex   -3.100000e+001 1.480000e+002 -5.000000e-001
      vertex   -2.500000e+001 1.480000e+002 -5.000000e-001
    endloop
  endfacet
  facet normal 0.000000e+000 0.000000e+000 -4.496400e-001
    outer loop
      vertex   -2.698650e+001 1.470000e+002 -5.000000e-001
      vertex   -2.500000e+001 1.480000e+002 -5.000000e-001
      vertex   -2.600000e+001 1.470000e+002 -5.000000e-001
    endloop
  endfacet
  facet normal 0.000000e+000 0.000000e+000 -7.071068e-001
    outer loop
      vertex   -2.600000e+001 1.470000e+002 -5.000000e-001
      vertex   -2.500000e+001 1.480000e+002 -5.000000e-001
      vertex   -2.500000e+001 1.470000e+002 -5.000000e-001
    endloop
  endfacet
  facet normal 0.000000e+000 -0.000000e+000 -7.071068e-001
    outer loop
      vertex   -3.000000e+001 1.260000e+002 -5.000000e-001
      vertex   -2.698650e+001 1.260000e+002 -5.000000e-001
      vertex   -3.100000e+001 1.250000e+002 -5.000000e-001
    endloop
  endfacet
  facet normal 0.000000e+000 0.000000e+000 -1.000000e+000
    outer loop
      vertex   -3.000000e+001 1.369513e+002 -5.000000e-001
      vertex   -2.698650e+001 1.369513e+002 -5.000000e-001
      vertex   -3.000000e+001 1.362360e+002 -5.000000e-001
    endloop
  endfacet
  facet normal 0.000000e+000 0.000000e+000 -9.770214e-002
    outer loop
      vertex   -2.698650e+001 1.369513e+002 -5.000000e-001
      vertex   -2.698650e+001 1.470000e+002 -5.000000e-001
      vertex   -2.600000e+001 1.470000e+002 -5.000000e-001
    endloop
  endfacet
  facet normal 0.000000e+000 0.000000e+000 -7.071068e-001
    outer loop
      vertex   -2.600000e+001 1.260000e+002 -5.000000e-001
      vertex   -2.500000e+001 1.260000e+002 -5.000000e-001
      vertex   -2.500000e+001 1.250000e+002 -5.000000e-001
    endloop
  endfacet
  facet normal 0.000000e+000 0.000000e+000 -1.000000e+000
    outer loop
      vertex   -2.698650e+001 1.260000e+002 0.000000e+000
      vertex   -3.000000e+001 1.260000e+002 0.000000e+000
      vertex   -2.698650e+001 1.362360e+002 0.000000e+000
    endloop
  endfacet
  facet normal -0.000000e+000 0.000000e+000 -9.592913e-001
    outer loop
      vertex   -2.698650e+001 1.362360e+002 0.000000e+000
      vertex   -3.000000e+001 1.260000e+002 0.000000e+000
      vertex   -3.000000e+001 1.362360e+002 0.000000e+000
    endloop
  endfacet
  facet normal 0.000000e+000 0.000000e+000 -1.000000e+000
    outer loop
      vertex   -2.500000e+001 1.260000e+002 0.000000e+000
      vertex   -2.600000e+001 1.260000e+002 0.000000e+000
      vertex   -2.500000e+001 1.470000e+002 0.000000e+000
    endloop
  endfacet
  facet normal -0.000000e+000 0.000000e+000 -9.988682e-001
    outer loop
      vertex   -2.500000e+001 1.470000e+002 0.000000e+000
      vertex   -2.600000e+001 1.260000e+002 0.000000e+000
      vertex   -2.600000e+001 1.470000e+002 0.000000e+000
    endloop
  endfacet
  facet normal 0.000000e+000 0.000000e+000 1.000000e+000
    outer loop
      vertex   -3.100000e+001 1.260000e+002 1.000000e+000
      vertex   -2.600000e+001 1.260000e+002 1.000000e+000
      vertex   -3.100000e+001 1.470000e+002 1.000000e+000
    endloop
  endfacet
  facet normal -0.000000e+000 0.000000e+000 9.728062e-001
    outer loop
      vertex   -3.100000e+001 1.470000e+002 1.000000e+000
      vertex   -2.600000e+001 1.260000e+002 1.000000e+000
      vertex   -2.600000e+001 1.470000e+002 1.000000e+000
    endloop
  endfacet
  facet normal 0.000000e+000 -1.000000e+000 0.000000e+000
    outer loop
      vertex   -3.100000e+001 1.470000e+002 1.000000e+000
      vertex   -2.600000e+001 1.470000e+002 1.000000e+000
      vertex   -3.100000e+001 1.470000e+002 2.300000e+001
    endloop
  endfacet
  facet normal 0.000000e+000 -9.751329e-001 0.000000e+000
    outer loop
      vertex   -3.100000e+001 1.470000e+002 2.300000e+001
      vertex   -2.600000e+001 1.470000e+002 1.000000e+000
      vertex   -2.600000e+001 1.470000e+002 2.300000e+001
    endloop
  endfacet
  facet normal -1.000000e+000 0.000000e+000 0.000000e+000
    outer loop
      vertex   -2.600000e+001 1.470000e+002 1.000000e+000
      vertex   -2.600000e+001 1.260000e+002 1.000000e+000
      vertex   -2.600000e+001 1.470000e+002 2.300000e+001
    endloop
  endfacet
  facet normal -7.233555e-001 -0.000000e+000 0.000000e+000
    outer loop
      vertex   -2.600000e+001 1.470000e+002 2.300000e+001
      vertex   -2.600000e+001 1.260000e+002 1.000000e+000
      vertex   -2.600000e+001 1.260000e+002 2.300000e+001
    endloop
  endfacet
  facet normal 0.000000e+000 1.000000e+000 -0.000000e+000
    outer loop
      vertex   -2.600000e+001 1.260000e+002 1.000000e+000
      vertex   -3.100000e+001 1.260000e+002 1.000000e+000
      vertex   -2.600000e+001 1.260000e+002 2.300000e+001
    endloop
  endfacet
  facet normal 0.000000e+000 9.751329e-001 0.000000e+000
    outer loop
      vertex   -2.600000e+001 1.260000e+002 2.300000e+001
      vertex   -3.100000e+001 1.260000e+002 1.000000e+000
      vertex   -3.100000e+001 1.260000e+002 2.300000e+001
    endloop
  endfacet
  facet normal 0.000000e+000 0.000000e+000 -1.000000e+000
    outer loop
      vertex   -3.100000e+001 1.470000e+002 2.300000e+001
      vertex   -2.600000e+001 1.470000e+002 2.300000e+001
      vertex   -3.100000e+001 1.260000e+002 2.300000e+001
    endloop
  endfacet
  facet normal 0.000000e+000 0.000000e+000 -9.728062e-001
    outer loop
      vertex   -3.100000e+001 1.260000e+002 2.300000e+001
      vertex   -2.600000e+001 1.470000e+002 2.300000e+001
      vertex   -2.600000e+001 1.260000e+002 2.300000e+001
    endloop
  endfacet
  facet normal -4.251472e-002 0.000000e+000 0.000000e+000
    outer loop
      vertex   -3.100000e+001 1.470000e+002 2.300000e+001
      vertex   -3.100000e+001 1.480000e+002 -5.000000e-001
      vertex   -3.100000e+001 1.470000e+002 1.000000e+000
    endloop
  endfacet
  facet normal -8.678558e-001 0.000000e+000 -0.000000e+000
    outer loop
      vertex   -3.100000e+001 1.470000e+002 1.000000e+000
      vertex   -3.100000e+001 1.480000e+002 -5.000000e-001
      vertex   -3.100000e+001 1.250000e+002 -5.000000e-001
    endloop
  endfacet
  facet normal -6.802389e-002 -0.000000e+000 0.000000e+000
    outer loop
      vertex   -3.100000e+001 1.470000e+002 1.000000e+000
      vertex   -3.100000e+001 1.250000e+002 -5.000000e-001
      vertex   -3.100000e+001 1.260000e+002 1.000000e+000
    endloop
  endfacet
  facet normal -5.547002e-001 -0.000000e+000 0.000000e+000
    outer loop
      vertex   -3.100000e+001 1.260000e+002 1.000000e+000
      vertex   -3.100000e+001 1.250000e+002 -5.000000e-001
      vertex   -3.100000e+001 1.260000e+002 2.300000e+001
    endloop
  endfacet
  facet normal -5.895730e-001 -0.000000e+000 0.000000e+000
    outer loop
      vertex   -3.100000e+001 1.260000e+002 2.300000e+001
      vertex   -3.100000e+001 1.250000e+002 -5.000000e-001
      vertex   -3.100000e+001 1.250000e+002 2.450000e+001
    endloop
  endfacet
  facet normal -8.678558e-001 0.000000e+000 0.000000e+000
    outer loop
      vertex   -3.100000e+001 1.260000e+002 2.300000e+001
      vertex   -3.100000e+001 1.250000e+002 2.450000e+001
      vertex   -3.100000e+001 1.480000e+002 2.450000e+001
    endloop
  endfacet
  facet normal -4.251472e-002 0.000000e+000 0.000000e+000
    outer loop
      vertex   -3.100000e+001 1.480000e+002 -5.000000e-001
      vertex   -3.100000e+001 1.470000e+002 2.300000e+001
      vertex   -3.100000e+001 1.480000e+002 2.450000e+001
    endloop
  endfacet
  facet normal -7.923902e-001 0.000000e+000 0.000000e+000
    outer loop
      vertex   -3.100000e+001 1.480000e+002 2.450000e+001
      vertex   -3.100000e+001 1.470000e+002 2.300000e+001
      vertex   -3.100000e+001 1.260000e+002 2.300000e+001
    endloop
  endfacet
  facet normal -0.000000e+000 1.000000e+000 0.000000e+000
    outer loop
      vertex   -3.100000e+001 1.480000e+002 2.450000e+001
      vertex   -2.500000e+001 1.480000e+002 2.450000e+001
      vertex   -3.100000e+001 1.480000e+002 -5.000000e-001
    endloop
  endfacet
  facet normal 0.000000e+000 9.723873e-001 0.000000e+000
    outer loop
      vertex   -3.100000e+001 1.480000e+002 -5.000000e-001
      vertex   -2.500000e+001 1.480000e+002 2.450000e+001
      vertex   -2.500000e+001 1.480000e+002 -5.000000e-001
    endloop
  endfacet
  facet normal 8.944272e-001 0.000000e+000 0.000000e+000
    outer loop
      vertex   -2.500000e+001 1.480000e+002 2.450000e+001
      vertex   -2.500000e+001 1.470000e+002 2.400000e+001
      vertex   -2.500000e+001 1.480000e+002 -5.000000e-001
    endloop
  endfacet
  facet normal 8.754447e-001 0.000000e+000 0.000000e+000
    outer loop
      vertex   -2.500000e+001 1.480000e+002 -5.000000e-001
      vertex   -2.500000e+001 1.470000e+002 2.400000e+001
      vertex   -2.500000e+001 1.470000e+002 0.000000e+000
    endloop
  endfacet
  facet normal 4.472136e-001 0.000000e+000 0.000000e+000
    outer loop
      vertex   -2.500000e+001 1.480000e+002 -5.000000e-001
      vertex   -2.500000e+001 1.470000e+002 0.000000e+000
      vertex   -2.500000e+001 1.470000e+002 -5.000000e-001
    endloop
  endfacet
  facet normal 4.472136e-001 0.000000e+000 0.000000e+000
    outer loop
      vertex   -2.500000e+001 1.480000e+002 2.450000e+001
      vertex   -2.500000e+001 1.470000e+002 2.450000e+001
      vertex   -2.500000e+001 1.470000e+002 2.400000e+001
    endloop
  endfacet
  facet normal 1.000000e+000 0.000000e+000 0.000000e+000
    outer loop
      vertex   -2.500000e+001 1.470000e+002 2.400000e+001
      vertex   -2.500000e+001 1.260000e+002 2.400000e+001
      vertex   -2.500000e+001 1.470000e+002 0.000000e+000
    endloop
  endfacet
  facet normal 7.525767e-001 0.000000e+000 0.000000e+000
    outer loop
      vertex   -2.500000e+001 1.470000e+002 0.000000e+000
      vertex   -2.500000e+001 1.260000e+002 2.400000e+001
      vertex   -2.500000e+001 1.260000e+002 0.000000e+000
    endloop
  endfacet
  facet normal 8.944272e-001 0.000000e+000 -0.000000e+000
    outer loop
      vertex   -2.500000e+001 1.260000e+002 0.000000e+000
      vertex   -2.500000e+001 1.260000e+002 2.400000e+001
      vertex   -2.500000e+001 1.250000e+002 -5.000000e-001
    endloop
  endfacet
  facet normal 8.944272e-001 0.000000e+000 0.000000e+000
    outer loop
      vertex   -2.500000e+001 1.260000e+002 0.000000e+000
      vertex   -2.500000e+001 1.250000e+002 -5.000000e-001
      vertex   -2.500000e+001 1.260000e+002 -5.000000e-001
    endloop
  endfacet
  facet normal 1.000000e+000 0.000000e+000 0.000000e+000
    outer loop
      vertex   -2.500000e+001 1.260000e+002 2.450000e+001
      vertex   -2.500000e+001 1.250000e+002 2.450000e+001
      vertex   -2.500000e+001 1.260000e+002 2.400000e+001
    endloop
  endfacet
  facet normal 9.119215e-001 0.000000e+000 0.000000e+000
    outer loop
      vertex   -2.500000e+001 1.260000e+002 2.400000e+001
      vertex   -2.500000e+001 1.250000e+002 2.450000e+001
      vertex   -2.500000e+001 1.250000e+002 -5.000000e-001
    endloop
  endfacet
  facet normal -0.000000e+000 -1.000000e+000 -0.000000e+000
    outer loop
      vertex   -2.500000e+001 1.250000e+002 2.450000e+001
      vertex   -3.100000e+001 1.250000e+002 2.450000e+001
      vertex   -2.500000e+001 1.250000e+002 -5.000000e-001
    endloop
  endfacet
  facet normal 0.000000e+000 -9.723873e-001 0.000000e+000
    outer loop
      vertex   -2.500000e+001 1.250000e+002 -5.000000e-001
      vertex   -3.100000e+001 1.250000e+002 2.450000e+001
      vertex   -3.100000e+001 1.250000e+002 -5.000000e-001
    endloop
  endfacet
  facet normal 0.000000e+000 0.000000e+000 1.000000e+000
    outer loop
      vertex   -2.698650e+001 1.470000e+002 2.400000e+001
      vertex   -3.000000e+001 1.470000e+002 2.400000e+001
      vertex   -2.698650e+001 1.369513e+002 2.400000e+001
    endloop
  endfacet
  facet normal 0.000000e+000 0.000000e+000 9.578555e-001
    outer loop
      vertex   -2.698650e+001 1.369513e+002 2.400000e+001
      vertex   -3.000000e+001 1.470000e+002 2.400000e+001
      vertex   -3.000000e+001 1.369513e+002 2.400000e+001
    endloop
  endfacet
  facet normal 0.000000e+000 0.000000e+000 -1.000000e+000
    outer loop
      vertex   -3.000000e+001 1.470000e+002 0.000000e+000
      vertex   -2.698650e+001 1.470000e+002 0.000000e+000
      vertex   -3.000000e+001 1.369513e+002 0.000000e+000
    endloop
  endfacet
  facet normal 0.000000e+000 0.000000e+000 -9.578555e-001
    outer loop
      vertex   -3.000000e+001 1.369513e+002 0.000000e+000
      vertex   -2.698650e+001 1.470000e+002 0.000000e+000
      vertex   -2.698650e+001 1.369513e+002 0.000000e+000
    endloop
  endfacet
endsolid
