solid ascii
  facet normal -9.994174e-001 3.413092e-002 0.000000e+000
    outer loop
      vertex   -7.973893e+001 2.253242e+002 4.000000e+000
      vertex   -7.973893e+001 2.253242e+002 0.000000e+000
      vertex   -7.975000e+001 2.250000e+002 4.000000e+000
    endloop
  endfacet
  facet normal -8.077431e-002 2.758509e-003 0.000000e+000
    outer loop
      vertex   -7.975000e+001 2.250000e+002 4.000000e+000
      vertex   -7.973893e+001 2.253242e+002 0.000000e+000
      vertex   -7.975000e+001 2.250000e+002 0.000000e+000
    endloop
  endfacet
  facet normal -9.994174e-001 -3.413092e-002 -0.000000e+000
    outer loop
      vertex   -7.975000e+001 2.250000e+002 4.000000e+000
      vertex   -7.975000e+001 2.250000e+002 0.000000e+000
      vertex   -7.973893e+001 2.246758e+002 4.000000e+000
    endloop
  endfacet
  facet normal -8.077431e-002 -2.758509e-003 -0.000000e+000
    outer loop
      vertex   -7.973893e+001 2.246758e+002 4.000000e+000
      vertex   -7.975000e+001 2.250000e+002 0.000000e+000
      vertex   -7.973893e+001 2.246758e+002 0.000000e+000
    endloop
  endfacet
  facet normal -8.039412e-002 -8.266024e-003 -0.000000e+000
    outer loop
      vertex   -7.973893e+001 2.246758e+002 4.000000e+000
      vertex   -7.973893e+001 2.246758e+002 0.000000e+000
      vertex   -7.970576e+001 2.243532e+002 0.000000e+000
    endloop
  endfacet
  facet normal -9.947557e-001 1.022796e-001 0.000000e+000
    outer loop
      vertex   -7.973893e+001 2.253242e+002 4.000000e+000
      vertex   -7.970576e+001 2.256468e+002 4.000000e+000
      vertex   -7.973893e+001 2.253242e+002 0.000000e+000
    endloop
  endfacet
  facet normal -9.915017e-001 1.019450e-001 1.734723e-018
    outer loop
      vertex   -7.973893e+001 2.253242e+002 0.000000e+000
      vertex   -7.970576e+001 2.256468e+002 4.000000e+000
      vertex   -7.970576e+001 2.256468e+002 0.000000e+000
    endloop
  endfacet
  facet normal -7.964507e-002 1.373171e-002 0.000000e+000
    outer loop
      vertex   -7.970576e+001 2.256468e+002 0.000000e+000
      vertex   -7.970576e+001 2.256468e+002 4.000000e+000
      vertex   -7.965065e+001 2.259664e+002 4.000000e+000
    endloop
  endfacet
  facet normal -9.822368e-001 1.693487e-001 -1.734723e-018
    outer loop
      vertex   -7.970576e+001 2.256468e+002 0.000000e+000
      vertex   -7.965065e+001 2.259664e+002 4.000000e+000
      vertex   -7.965065e+001 2.259664e+002 0.000000e+000
    endloop
  endfacet
  facet normal -7.852340e-002 1.913466e-002 0.000000e+000
    outer loop
      vertex   -7.965065e+001 2.259664e+002 0.000000e+000
      vertex   -7.965065e+001 2.259664e+002 4.000000e+000
      vertex   -7.957386e+001 2.262815e+002 4.000000e+000
    endloop
  endfacet
  facet normal -9.683915e-001 2.359786e-001 0.000000e+000
    outer loop
      vertex   -7.965065e+001 2.259664e+002 0.000000e+000
      vertex   -7.957386e+001 2.262815e+002 4.000000e+000
      vertex   -7.957386e+001 2.262815e+002 0.000000e+000
    endloop
  endfacet
  facet normal -7.703294e-002 2.445016e-002 0.000000e+000
    outer loop
      vertex   -7.957386e+001 2.262815e+002 0.000000e+000
      vertex   -7.957386e+001 2.262815e+002 4.000000e+000
      vertex   -7.947574e+001 2.265907e+002 4.000000e+000
    endloop
  endfacet
  facet normal -9.500232e-001 3.015362e-001 3.469447e-018
    outer loop
      vertex   -7.957386e+001 2.262815e+002 0.000000e+000
      vertex   -7.947574e+001 2.265907e+002 4.000000e+000
      vertex   -7.947574e+001 2.265907e+002 0.000000e+000
    endloop
  endfacet
  facet normal -7.518506e-002 2.964970e-002 0.000000e+000
    outer loop
      vertex   -7.947574e+001 2.265907e+002 0.000000e+000
      vertex   -7.947574e+001 2.265907e+002 4.000000e+000
      vertex   -7.935675e+001 2.268924e+002 4.000000e+000
    endloop
  endfacet
  facet normal -9.272329e-001 3.656601e-001 0.000000e+000
    outer loop
      vertex   -7.947574e+001 2.265907e+002 0.000000e+000
      vertex   -7.935675e+001 2.268924e+002 4.000000e+000
      vertex   -7.935675e+001 2.268924e+002 0.000000e+000
    endloop
  endfacet
  facet normal -7.298360e-002 3.471046e-002 0.000000e+000
    outer loop
      vertex   -7.935675e+001 2.268924e+002 0.000000e+000
      vertex   -7.935675e+001 2.268924e+002 4.000000e+000
      vertex   -7.921745e+001 2.271853e+002 4.000000e+000
    endloop
  endfacet
  facet normal -9.001160e-001 4.280885e-001 0.000000e+000
    outer loop
      vertex   -7.935675e+001 2.268924e+002 0.000000e+000
      vertex   -7.921745e+001 2.271853e+002 4.000000e+000
      vertex   -7.921745e+001 2.271853e+002 0.000000e+000
    endloop
  endfacet
  facet normal -7.044750e-002 3.960961e-002 0.000000e+000
    outer loop
      vertex   -7.921745e+001 2.271853e+002 0.000000e+000
      vertex   -7.921745e+001 2.271853e+002 4.000000e+000
      vertex   -7.905849e+001 2.274680e+002 4.000000e+000
    endloop
  endfacet
  facet normal -8.688146e-001 4.884972e-001 0.000000e+000
    outer loop
      vertex   -7.921745e+001 2.271853e+002 0.000000e+000
      vertex   -7.905849e+001 2.274680e+002 4.000000e+000
      vertex   -7.905849e+001 2.274680e+002 0.000000e+000
    endloop
  endfacet
  facet normal -6.758063e-002 4.432626e-002 0.000000e+000
    outer loop
      vertex   -7.905849e+001 2.274680e+002 0.000000e+000
      vertex   -7.905849e+001 2.274680e+002 4.000000e+000
      vertex   -7.888061e+001 2.277392e+002 4.000000e+000
    endloop
  endfacet
  facet normal -8.334460e-001 5.466588e-001 0.000000e+000
    outer loop
      vertex   -7.905849e+001 2.274680e+002 0.000000e+000
      vertex   -7.888061e+001 2.277392e+002 4.000000e+000
      vertex   -7.888061e+001 2.277392e+002 0.000000e+000
    endloop
  endfacet
  facet normal -6.439817e-002 4.883379e-002 0.000000e+000
    outer loop
      vertex   -7.888061e+001 2.277392e+002 0.000000e+000
      vertex   -7.888061e+001 2.277392e+002 4.000000e+000
      vertex   -7.868463e+001 2.279977e+002 4.000000e+000
    endloop
  endfacet
  facet normal -7.942038e-001 6.022528e-001 0.000000e+000
    outer loop
      vertex   -7.888061e+001 2.277392e+002 0.000000e+000
      vertex   -7.868463e+001 2.279977e+002 4.000000e+000
      vertex   -7.868463e+001 2.279977e+002 0.000000e+000
    endloop
  endfacet
  facet normal -6.091534e-002 5.311509e-002 0.000000e+000
    outer loop
      vertex   -7.868463e+001 2.279977e+002 0.000000e+000
      vertex   -7.868463e+001 2.279977e+002 4.000000e+000
      vertex   -7.847147e+001 2.282421e+002 4.000000e+000
    endloop
  endfacet
  facet normal -7.512494e-001 6.550514e-001 -6.938894e-018
    outer loop
      vertex   -7.868463e+001 2.279977e+002 0.000000e+000
      vertex   -7.847147e+001 2.282421e+002 4.000000e+000
      vertex   -7.847147e+001 2.282421e+002 0.000000e+000
    endloop
  endfacet
  facet normal -5.714734e-002 5.714924e-002 0.000000e+000
    outer loop
      vertex   -7.847147e+001 2.282421e+002 0.000000e+000
      vertex   -7.847147e+001 2.282421e+002 4.000000e+000
      vertex   -7.824213e+001 2.284715e+002 4.000000e+000
    endloop
  endfacet
  facet normal -7.047819e-001 7.048054e-001 0.000000e+000
    outer loop
      vertex   -7.847147e+001 2.282421e+002 0.000000e+000
      vertex   -7.824213e+001 2.284715e+002 4.000000e+000
      vertex   -7.824213e+001 2.284715e+002 0.000000e+000
    endloop
  endfacet
  facet normal -5.311698e-002 6.091533e-002 0.000000e+000
    outer loop
      vertex   -7.824213e+001 2.284715e+002 0.000000e+000
      vertex   -7.824213e+001 2.284715e+002 4.000000e+000
      vertex   -7.799767e+001 2.286846e+002 4.000000e+000
    endloop
  endfacet
  facet normal -6.550647e-001 7.512378e-001 -6.938894e-018
    outer loop
      vertex   -7.824213e+001 2.284715e+002 0.000000e+000
      vertex   -7.799767e+001 2.286846e+002 4.000000e+000
      vertex   -7.799767e+001 2.286846e+002 0.000000e+000
    endloop
  endfacet
  facet normal -4.883190e-002 6.439628e-002 0.000000e+000
    outer loop
      vertex   -7.799767e+001 2.286846e+002 0.000000e+000
      vertex   -7.799767e+001 2.286846e+002 4.000000e+000
      vertex   -7.773923e+001 2.288806e+002 4.000000e+000
    endloop
  endfacet
  facet normal -6.022494e-001 7.942067e-001 0.000000e+000
    outer loop
      vertex   -7.799767e+001 2.286846e+002 0.000000e+000
      vertex   -7.773923e+001 2.288806e+002 4.000000e+000
      vertex   -7.773923e+001 2.288806e+002 0.000000e+000
    endloop
  endfacet
  facet normal -4.432626e-002 6.758063e-002 0.000000e+000
    outer loop
      vertex   -7.773923e+001 2.288806e+002 0.000000e+000
      vertex   -7.773923e+001 2.288806e+002 4.000000e+000
      vertex   -7.746803e+001 2.290585e+002 4.000000e+000
    endloop
  endfacet
  facet normal -5.466588e-001 8.334460e-001 0.000000e+000
    outer loop
      vertex   -7.773923e+001 2.288806e+002 0.000000e+000
      vertex   -7.746803e+001 2.290585e+002 4.000000e+000
      vertex   -7.746803e+001 2.290585e+002 0.000000e+000
    endloop
  endfacet
  facet normal -3.961151e-002 7.044750e-002 0.000000e+000
    outer loop
      vertex   -7.746803e+001 2.290585e+002 0.000000e+000
      vertex   -7.746803e+001 2.290585e+002 4.000000e+000
      vertex   -7.718531e+001 2.292175e+002 4.000000e+000
    endloop
  endfacet
  facet normal -4.885150e-001 8.688045e-001 0.000000e+000
    outer loop
      vertex   -7.746803e+001 2.290585e+002 0.000000e+000
      vertex   -7.718531e+001 2.292175e+002 4.000000e+000
      vertex   -7.718531e+001 2.292175e+002 0.000000e+000
    endloop
  endfacet
  facet normal -3.471045e-002 7.298738e-002 0.000000e+000
    outer loop
      vertex   -7.718531e+001 2.292175e+002 0.000000e+000
      vertex   -7.718531e+001 2.292175e+002 4.000000e+000
      vertex   -7.689240e+001 2.293568e+002 4.000000e+000
    endloop
  endfacet
  facet normal -4.280702e-001 9.001244e-001 -6.938894e-018
    outer loop
      vertex   -7.718531e+001 2.292175e+002 0.000000e+000
      vertex   -7.689240e+001 2.293568e+002 4.000000e+000
      vertex   -7.689240e+001 2.293568e+002 0.000000e+000
    endloop
  endfacet
  facet normal -2.964970e-002 7.518506e-002 0.000000e+000
    outer loop
      vertex   -7.689240e+001 2.293568e+002 0.000000e+000
      vertex   -7.689240e+001 2.293568e+002 4.000000e+000
      vertex   -7.659068e+001 2.294757e+002 4.000000e+000
    endloop
  endfacet
  facet normal -3.656601e-001 9.272329e-001 0.000000e+000
    outer loop
      vertex   -7.689240e+001 2.293568e+002 0.000000e+000
      vertex   -7.659068e+001 2.294757e+002 4.000000e+000
      vertex   -7.659068e+001 2.294757e+002 0.000000e+000
    endloop
  endfacet
  facet normal -2.444826e-002 7.703295e-002 0.000000e+000
    outer loop
      vertex   -7.659068e+001 2.294757e+002 0.000000e+000
      vertex   -7.659068e+001 2.294757e+002 4.000000e+000
      vertex   -7.628153e+001 2.295739e+002 4.000000e+000
    endloop
  endfacet
  facet normal -3.015150e-001 9.500300e-001 -3.469447e-018
    outer loop
      vertex   -7.659068e+001 2.294757e+002 0.000000e+000
      vertex   -7.628153e+001 2.295739e+002 4.000000e+000
      vertex   -7.628153e+001 2.295739e+002 0.000000e+000
    endloop
  endfacet
  facet normal -1.913656e-002 7.852151e-002 0.000000e+000
    outer loop
      vertex   -7.628153e+001 2.295739e+002 0.000000e+000
      vertex   -7.628153e+001 2.295739e+002 4.000000e+000
      vertex   -7.596642e+001 2.296507e+002 4.000000e+000
    endloop
  endfacet
  facet normal -2.360062e-001 9.683849e-001 0.000000e+000
    outer loop
      vertex   -7.628153e+001 2.295739e+002 0.000000e+000
      vertex   -7.596642e+001 2.296507e+002 4.000000e+000
      vertex   -7.596642e+001 2.296507e+002 0.000000e+000
    endloop
  endfacet
  facet normal -1.373361e-002 7.964506e-002 0.000000e+000
    outer loop
      vertex   -7.596642e+001 2.296507e+002 0.000000e+000
      vertex   -7.596642e+001 2.296507e+002 4.000000e+000
      vertex   -7.564679e+001 2.297058e+002 4.000000e+000
    endloop
  endfacet
  facet normal -1.693715e-001 9.822328e-001 0.000000e+000
    outer loop
      vertex   -7.596642e+001 2.296507e+002 0.000000e+000
      vertex   -7.564679e+001 2.297058e+002 4.000000e+000
      vertex   -7.564679e+001 2.297058e+002 0.000000e+000
    endloop
  endfacet
  facet normal -8.262221e-003 8.039601e-002 0.000000e+000
    outer loop
      vertex   -7.564679e+001 2.297058e+002 0.000000e+000
      vertex   -7.564679e+001 2.297058e+002 4.000000e+000
      vertex   -7.532415e+001 2.297389e+002 4.000000e+000
    endloop
  endfacet
  facet normal -1.018962e-001 9.915066e-001 1.734723e-018
    outer loop
      vertex   -7.564679e+001 2.297058e+002 0.000000e+000
      vertex   -7.532415e+001 2.297389e+002 4.000000e+000
      vertex   -7.532415e+001 2.297389e+002 0.000000e+000
    endloop
  endfacet
  facet normal -2.760411e-003 8.077243e-002 0.000000e+000
    outer loop
      vertex   -7.532415e+001 2.297389e+002 0.000000e+000
      vertex   -7.532415e+001 2.297389e+002 4.000000e+000
      vertex   -7.500000e+001 2.297500e+002 4.000000e+000
    endloop
  endfacet
  facet normal -3.404349e-002 9.961472e-001 0.000000e+000
    outer loop
      vertex   -7.532415e+001 2.297389e+002 0.000000e+000
      vertex   -7.500000e+001 2.297500e+002 4.000000e+000
      vertex   -7.500000e+001 2.297500e+002 0.000000e+000
    endloop
  endfacet
  facet normal 2.760411e-003 8.077243e-002 -0.000000e+000
    outer loop
      vertex   -7.500000e+001 2.297500e+002 0.000000e+000
      vertex   -7.500000e+001 2.297500e+002 4.000000e+000
      vertex   -7.467585e+001 2.297389e+002 4.000000e+000
    endloop
  endfacet
  facet normal 3.404349e-002 9.961472e-001 0.000000e+000
    outer loop
      vertex   -7.500000e+001 2.297500e+002 0.000000e+000
      vertex   -7.467585e+001 2.297389e+002 4.000000e+000
      vertex   -7.467585e+001 2.297389e+002 0.000000e+000
    endloop
  endfacet
  facet normal 8.262221e-003 8.039601e-002 -0.000000e+000
    outer loop
      vertex   -7.467585e+001 2.297389e+002 0.000000e+000
      vertex   -7.467585e+001 2.297389e+002 4.000000e+000
      vertex   -7.435321e+001 2.297058e+002 4.000000e+000
    endloop
  endfacet
  facet normal 1.018962e-001 9.915066e-001 -1.734723e-018
    outer loop
      vertex   -7.467585e+001 2.297389e+002 0.000000e+000
      vertex   -7.435321e+001 2.297058e+002 4.000000e+000
      vertex   -7.435321e+001 2.297058e+002 0.000000e+000
    endloop
  endfacet
  facet normal 1.373361e-002 7.964506e-002 -0.000000e+000
    outer loop
      vertex   -7.435321e+001 2.297058e+002 0.000000e+000
      vertex   -7.435321e+001 2.297058e+002 4.000000e+000
      vertex   -7.403358e+001 2.296507e+002 4.000000e+000
    endloop
  endfacet
  facet normal 1.693715e-001 9.822328e-001 0.000000e+000
    outer loop
      vertex   -7.435321e+001 2.297058e+002 0.000000e+000
      vertex   -7.403358e+001 2.296507e+002 4.000000e+000
      vertex   -7.403358e+001 2.296507e+002 0.000000e+000
    endloop
  endfacet
  facet normal 1.913656e-002 7.852151e-002 -0.000000e+000
    outer loop
      vertex   -7.403358e+001 2.296507e+002 0.000000e+000
      vertex   -7.403358e+001 2.296507e+002 4.000000e+000
      vertex   -7.371847e+001 2.295739e+002 4.000000e+000
    endloop
  endfacet
  facet normal 2.360062e-001 9.683849e-001 0.000000e+000
    outer loop
      vertex   -7.403358e+001 2.296507e+002 0.000000e+000
      vertex   -7.371847e+001 2.295739e+002 4.000000e+000
      vertex   -7.371847e+001 2.295739e+002 0.000000e+000
    endloop
  endfacet
  facet normal 2.444826e-002 7.703295e-002 -0.000000e+000
    outer loop
      vertex   -7.371847e+001 2.295739e+002 0.000000e+000
      vertex   -7.371847e+001 2.295739e+002 4.000000e+000
      vertex   -7.340932e+001 2.294757e+002 4.000000e+000
    endloop
  endfacet
  facet normal 3.015150e-001 9.500300e-001 3.469447e-018
    outer loop
      vertex   -7.371847e+001 2.295739e+002 0.000000e+000
      vertex   -7.340932e+001 2.294757e+002 4.000000e+000
      vertex   -7.340932e+001 2.294757e+002 0.000000e+000
    endloop
  endfacet
  facet normal 2.964970e-002 7.518506e-002 -0.000000e+000
    outer loop
      vertex   -7.340932e+001 2.294757e+002 0.000000e+000
      vertex   -7.340932e+001 2.294757e+002 4.000000e+000
      vertex   -7.310760e+001 2.293568e+002 4.000000e+000
    endloop
  endfacet
  facet normal 3.656601e-001 9.272329e-001 0.000000e+000
    outer loop
      vertex   -7.340932e+001 2.294757e+002 0.000000e+000
      vertex   -7.310760e+001 2.293568e+002 4.000000e+000
      vertex   -7.310760e+001 2.293568e+002 0.000000e+000
    endloop
  endfacet
  facet normal 3.471045e-002 7.298738e-002 -0.000000e+000
    outer loop
      vertex   -7.310760e+001 2.293568e+002 0.000000e+000
      vertex   -7.310760e+001 2.293568e+002 4.000000e+000
      vertex   -7.281469e+001 2.292175e+002 4.000000e+000
    endloop
  endfacet
  facet normal 4.280702e-001 9.001244e-001 6.938894e-018
    outer loop
      vertex   -7.310760e+001 2.293568e+002 0.000000e+000
      vertex   -7.281469e+001 2.292175e+002 4.000000e+000
      vertex   -7.281469e+001 2.292175e+002 0.000000e+000
    endloop
  endfacet
  facet normal 3.961151e-002 7.044750e-002 -0.000000e+000
    outer loop
      vertex   -7.281469e+001 2.292175e+002 0.000000e+000
      vertex   -7.281469e+001 2.292175e+002 4.000000e+000
      vertex   -7.253197e+001 2.290585e+002 4.000000e+000
    endloop
  endfacet
  facet normal 4.885150e-001 8.688045e-001 0.000000e+000
    outer loop
      vertex   -7.281469e+001 2.292175e+002 0.000000e+000
      vertex   -7.253197e+001 2.290585e+002 4.000000e+000
      vertex   -7.253197e+001 2.290585e+002 0.000000e+000
    endloop
  endfacet
  facet normal 4.432626e-002 6.758063e-002 -0.000000e+000
    outer loop
      vertex   -7.253197e+001 2.290585e+002 0.000000e+000
      vertex   -7.253197e+001 2.290585e+002 4.000000e+000
      vertex   -7.226077e+001 2.288806e+002 4.000000e+000
    endloop
  endfacet
  facet normal 5.466588e-001 8.334460e-001 0.000000e+000
    outer loop
      vertex   -7.253197e+001 2.290585e+002 0.000000e+000
      vertex   -7.226077e+001 2.288806e+002 4.000000e+000
      vertex   -7.226077e+001 2.288806e+002 0.000000e+000
    endloop
  endfacet
  facet normal 4.883190e-002 6.439628e-002 -0.000000e+000
    outer loop
      vertex   -7.226077e+001 2.288806e+002 0.000000e+000
      vertex   -7.226077e+001 2.288806e+002 4.000000e+000
      vertex   -7.200233e+001 2.286846e+002 4.000000e+000
    endloop
  endfacet
  facet normal 6.022494e-001 7.942067e-001 0.000000e+000
    outer loop
      vertex   -7.226077e+001 2.288806e+002 0.000000e+000
      vertex   -7.200233e+001 2.286846e+002 4.000000e+000
      vertex   -7.200233e+001 2.286846e+002 0.000000e+000
    endloop
  endfacet
  facet normal 5.311698e-002 6.091533e-002 -0.000000e+000
    outer loop
      vertex   -7.200233e+001 2.286846e+002 0.000000e+000
      vertex   -7.200233e+001 2.286846e+002 4.000000e+000
      vertex   -7.175787e+001 2.284715e+002 4.000000e+000
    endloop
  endfacet
  facet normal 6.550647e-001 7.512378e-001 6.938894e-018
    outer loop
      vertex   -7.200233e+001 2.286846e+002 0.000000e+000
      vertex   -7.175787e+001 2.284715e+002 4.000000e+000
      vertex   -7.175787e+001 2.284715e+002 0.000000e+000
    endloop
  endfacet
  facet normal 5.714734e-002 5.714924e-002 -0.000000e+000
    outer loop
      vertex   -7.175787e+001 2.284715e+002 0.000000e+000
      vertex   -7.175787e+001 2.284715e+002 4.000000e+000
      vertex   -7.152853e+001 2.282421e+002 4.000000e+000
    endloop
  endfacet
  facet normal 7.047819e-001 7.048054e-001 0.000000e+000
    outer loop
      vertex   -7.175787e+001 2.284715e+002 0.000000e+000
      vertex   -7.152853e+001 2.282421e+002 4.000000e+000
      vertex   -7.152853e+001 2.282421e+002 0.000000e+000
    endloop
  endfacet
  facet normal 6.091534e-002 5.311509e-002 -0.000000e+000
    outer loop
      vertex   -7.152853e+001 2.282421e+002 0.000000e+000
      vertex   -7.152853e+001 2.282421e+002 4.000000e+000
      vertex   -7.131537e+001 2.279977e+002 4.000000e+000
    endloop
  endfacet
  facet normal 7.512494e-001 6.550514e-001 6.938894e-018
    outer loop
      vertex   -7.152853e+001 2.282421e+002 0.000000e+000
      vertex   -7.131537e+001 2.279977e+002 4.000000e+000
      vertex   -7.131537e+001 2.279977e+002 0.000000e+000
    endloop
  endfacet
  facet normal 6.439817e-002 4.883379e-002 -0.000000e+000
    outer loop
      vertex   -7.131537e+001 2.279977e+002 0.000000e+000
      vertex   -7.131537e+001 2.279977e+002 4.000000e+000
      vertex   -7.111939e+001 2.277392e+002 4.000000e+000
    endloop
  endfacet
  facet normal 7.942038e-001 6.022528e-001 0.000000e+000
    outer loop
      vertex   -7.131537e+001 2.279977e+002 0.000000e+000
      vertex   -7.111939e+001 2.277392e+002 4.000000e+000
      vertex   -7.111939e+001 2.277392e+002 0.000000e+000
    endloop
  endfacet
  facet normal 6.758063e-002 4.432626e-002 -0.000000e+000
    outer loop
      vertex   -7.111939e+001 2.277392e+002 0.000000e+000
      vertex   -7.111939e+001 2.277392e+002 4.000000e+000
      vertex   -7.094151e+001 2.274680e+002 4.000000e+000
    endloop
  endfacet
  facet normal 8.334460e-001 5.466588e-001 0.000000e+000
    outer loop
      vertex   -7.111939e+001 2.277392e+002 0.000000e+000
      vertex   -7.094151e+001 2.274680e+002 4.000000e+000
      vertex   -7.094151e+001 2.274680e+002 0.000000e+000
    endloop
  endfacet
  facet normal 7.044750e-002 3.960961e-002 -0.000000e+000
    outer loop
      vertex   -7.094151e+001 2.274680e+002 0.000000e+000
      vertex   -7.094151e+001 2.274680e+002 4.000000e+000
      vertex   -7.078255e+001 2.271853e+002 4.000000e+000
    endloop
  endfacet
  facet normal 8.688146e-001 4.884972e-001 0.000000e+000
    outer loop
      vertex   -7.094151e+001 2.274680e+002 0.000000e+000
      vertex   -7.078255e+001 2.271853e+002 4.000000e+000
      vertex   -7.078255e+001 2.271853e+002 0.000000e+000
    endloop
  endfacet
  facet normal 7.298360e-002 3.471046e-002 -0.000000e+000
    outer loop
      vertex   -7.078255e+001 2.271853e+002 0.000000e+000
      vertex   -7.078255e+001 2.271853e+002 4.000000e+000
      vertex   -7.064325e+001 2.268924e+002 4.000000e+000
    endloop
  endfacet
  facet normal 9.001160e-001 4.280885e-001 0.000000e+000
    outer loop
      vertex   -7.078255e+001 2.271853e+002 0.000000e+000
      vertex   -7.064325e+001 2.268924e+002 4.000000e+000
      vertex   -7.064325e+001 2.268924e+002 0.000000e+000
    endloop
  endfacet
  facet normal 7.518506e-002 2.964970e-002 -0.000000e+000
    outer loop
      vertex   -7.064325e+001 2.268924e+002 0.000000e+000
      vertex   -7.064325e+001 2.268924e+002 4.000000e+000
      vertex   -7.052426e+001 2.265907e+002 4.000000e+000
    endloop
  endfacet
  facet normal 9.272329e-001 3.656601e-001 0.000000e+000
    outer loop
      vertex   -7.064325e+001 2.268924e+002 0.000000e+000
      vertex   -7.052426e+001 2.265907e+002 4.000000e+000
      vertex   -7.052426e+001 2.265907e+002 0.000000e+000
    endloop
  endfacet
  facet normal 7.703294e-002 2.445016e-002 -0.000000e+000
    outer loop
      vertex   -7.052426e+001 2.265907e+002 0.000000e+000
      vertex   -7.052426e+001 2.265907e+002 4.000000e+000
      vertex   -7.042614e+001 2.262815e+002 4.000000e+000
    endloop
  endfacet
  facet normal 9.500232e-001 3.015362e-001 -3.469447e-018
    outer loop
      vertex   -7.052426e+001 2.265907e+002 0.000000e+000
      vertex   -7.042614e+001 2.262815e+002 4.000000e+000
      vertex   -7.042614e+001 2.262815e+002 0.000000e+000
    endloop
  endfacet
  facet normal 7.852340e-002 1.913466e-002 -0.000000e+000
    outer loop
      vertex   -7.042614e+001 2.262815e+002 0.000000e+000
      vertex   -7.042614e+001 2.262815e+002 4.000000e+000
      vertex   -7.034935e+001 2.259664e+002 4.000000e+000
    endloop
  endfacet
  facet normal 9.683915e-001 2.359786e-001 0.000000e+000
    outer loop
      vertex   -7.042614e+001 2.262815e+002 0.000000e+000
      vertex   -7.034935e+001 2.259664e+002 4.000000e+000
      vertex   -7.034935e+001 2.259664e+002 0.000000e+000
    endloop
  endfacet
  facet normal 7.964507e-002 1.373171e-002 -0.000000e+000
    outer loop
      vertex   -7.034935e+001 2.259664e+002 0.000000e+000
      vertex   -7.034935e+001 2.259664e+002 4.000000e+000
      vertex   -7.029424e+001 2.256468e+002 4.000000e+000
    endloop
  endfacet
  facet normal 9.822368e-001 1.693487e-001 1.734723e-018
    outer loop
      vertex   -7.034935e+001 2.259664e+002 0.000000e+000
      vertex   -7.029424e+001 2.256468e+002 4.000000e+000
      vertex   -7.029424e+001 2.256468e+002 0.000000e+000
    endloop
  endfacet
  facet normal 8.039412e-002 8.266024e-003 -0.000000e+000
    outer loop
      vertex   -7.029424e+001 2.256468e+002 0.000000e+000
      vertex   -7.029424e+001 2.256468e+002 4.000000e+000
      vertex   -7.026107e+001 2.253242e+002 4.000000e+000
    endloop
  endfacet
  facet normal 9.915017e-001 1.019450e-001 -1.734723e-018
    outer loop
      vertex   -7.029424e+001 2.256468e+002 0.000000e+000
      vertex   -7.026107e+001 2.253242e+002 4.000000e+000
      vertex   -7.026107e+001 2.253242e+002 0.000000e+000
    endloop
  endfacet
  facet normal 8.077431e-002 2.758509e-003 -0.000000e+000
    outer loop
      vertex   -7.026107e+001 2.253242e+002 0.000000e+000
      vertex   -7.026107e+001 2.253242e+002 4.000000e+000
      vertex   -7.025000e+001 2.250000e+002 4.000000e+000
    endloop
  endfacet
  facet normal 9.961479e-001 3.401927e-002 0.000000e+000
    outer loop
      vertex   -7.026107e+001 2.253242e+002 0.000000e+000
      vertex   -7.025000e+001 2.250000e+002 4.000000e+000
      vertex   -7.025000e+001 2.250000e+002 0.000000e+000
    endloop
  endfacet
  facet normal 8.077431e-002 -2.758509e-003 0.000000e+000
    outer loop
      vertex   -7.025000e+001 2.250000e+002 0.000000e+000
      vertex   -7.025000e+001 2.250000e+002 4.000000e+000
      vertex   -7.026107e+001 2.246758e+002 4.000000e+000
    endloop
  endfacet
  facet normal 9.961479e-001 -3.401927e-002 0.000000e+000
    outer loop
      vertex   -7.025000e+001 2.250000e+002 0.000000e+000
      vertex   -7.026107e+001 2.246758e+002 4.000000e+000
      vertex   -7.026107e+001 2.246758e+002 0.000000e+000
    endloop
  endfacet
  facet normal 8.039412e-002 -8.266024e-003 0.000000e+000
    outer loop
      vertex   -7.026107e+001 2.246758e+002 0.000000e+000
      vertex   -7.026107e+001 2.246758e+002 4.000000e+000
      vertex   -7.029424e+001 2.243532e+002 4.000000e+000
    endloop
  endfacet
  facet normal 9.915017e-001 -1.019450e-001 1.734723e-018
    outer loop
      vertex   -7.026107e+001 2.246758e+002 0.000000e+000
      vertex   -7.029424e+001 2.243532e+002 4.000000e+000
      vertex   -7.029424e+001 2.243532e+002 0.000000e+000
    endloop
  endfacet
  facet normal 7.964507e-002 -1.373171e-002 0.000000e+000
    outer loop
      vertex   -7.029424e+001 2.243532e+002 0.000000e+000
      vertex   -7.029424e+001 2.243532e+002 4.000000e+000
      vertex   -7.034935e+001 2.240336e+002 4.000000e+000
    endloop
  endfacet
  facet normal 9.822368e-001 -1.693487e-001 -1.734723e-018
    outer loop
      vertex   -7.029424e+001 2.243532e+002 0.000000e+000
      vertex   -7.034935e+001 2.240336e+002 4.000000e+000
      vertex   -7.034935e+001 2.240336e+002 0.000000e+000
    endloop
  endfacet
  facet normal 7.852340e-002 -1.913466e-002 0.000000e+000
    outer loop
      vertex   -7.034935e+001 2.240336e+002 0.000000e+000
      vertex   -7.034935e+001 2.240336e+002 4.000000e+000
      vertex   -7.042614e+001 2.237185e+002 4.000000e+000
    endloop
  endfacet
  facet normal 9.683915e-001 -2.359786e-001 0.000000e+000
    outer loop
      vertex   -7.034935e+001 2.240336e+002 0.000000e+000
      vertex   -7.042614e+001 2.237185e+002 4.000000e+000
      vertex   -7.042614e+001 2.237185e+002 0.000000e+000
    endloop
  endfacet
  facet normal 7.703294e-002 -2.445016e-002 0.000000e+000
    outer loop
      vertex   -7.042614e+001 2.237185e+002 0.000000e+000
      vertex   -7.042614e+001 2.237185e+002 4.000000e+000
      vertex   -7.052426e+001 2.234093e+002 4.000000e+000
    endloop
  endfacet
  facet normal 9.500232e-001 -3.015362e-001 3.469447e-018
    outer loop
      vertex   -7.042614e+001 2.237185e+002 0.000000e+000
      vertex   -7.052426e+001 2.234093e+002 4.000000e+000
      vertex   -7.052426e+001 2.234093e+002 0.000000e+000
    endloop
  endfacet
  facet normal 7.518506e-002 -2.964970e-002 0.000000e+000
    outer loop
      vertex   -7.052426e+001 2.234093e+002 0.000000e+000
      vertex   -7.052426e+001 2.234093e+002 4.000000e+000
      vertex   -7.064325e+001 2.231076e+002 4.000000e+000
    endloop
  endfacet
  facet normal 9.272329e-001 -3.656601e-001 0.000000e+000
    outer loop
      vertex   -7.052426e+001 2.234093e+002 0.000000e+000
      vertex   -7.064325e+001 2.231076e+002 4.000000e+000
      vertex   -7.064325e+001 2.231076e+002 0.000000e+000
    endloop
  endfacet
  facet normal 7.298360e-002 -3.471046e-002 0.000000e+000
    outer loop
      vertex   -7.064325e+001 2.231076e+002 0.000000e+000
      vertex   -7.064325e+001 2.231076e+002 4.000000e+000
      vertex   -7.078255e+001 2.228147e+002 4.000000e+000
    endloop
  endfacet
  facet normal 9.001160e-001 -4.280885e-001 0.000000e+000
    outer loop
      vertex   -7.064325e+001 2.231076e+002 0.000000e+000
      vertex   -7.078255e+001 2.228147e+002 4.000000e+000
      vertex   -7.078255e+001 2.228147e+002 0.000000e+000
    endloop
  endfacet
  facet normal 7.044750e-002 -3.960961e-002 0.000000e+000
    outer loop
      vertex   -7.078255e+001 2.228147e+002 0.000000e+000
      vertex   -7.078255e+001 2.228147e+002 4.000000e+000
      vertex   -7.094151e+001 2.225320e+002 4.000000e+000
    endloop
  endfacet
  facet normal 8.688146e-001 -4.884972e-001 0.000000e+000
    outer loop
      vertex   -7.078255e+001 2.228147e+002 0.000000e+000
      vertex   -7.094151e+001 2.225320e+002 4.000000e+000
      vertex   -7.094151e+001 2.225320e+002 0.000000e+000
    endloop
  endfacet
  facet normal 6.758063e-002 -4.432626e-002 0.000000e+000
    outer loop
      vertex   -7.094151e+001 2.225320e+002 0.000000e+000
      vertex   -7.094151e+001 2.225320e+002 4.000000e+000
      vertex   -7.111939e+001 2.222608e+002 4.000000e+000
    endloop
  endfacet
  facet normal 8.334460e-001 -5.466588e-001 0.000000e+000
    outer loop
      vertex   -7.094151e+001 2.225320e+002 0.000000e+000
      vertex   -7.111939e+001 2.222608e+002 4.000000e+000
      vertex   -7.111939e+001 2.222608e+002 0.000000e+000
    endloop
  endfacet
  facet normal 6.439817e-002 -4.883379e-002 0.000000e+000
    outer loop
      vertex   -7.111939e+001 2.222608e+002 0.000000e+000
      vertex   -7.111939e+001 2.222608e+002 4.000000e+000
      vertex   -7.131537e+001 2.220023e+002 4.000000e+000
    endloop
  endfacet
  facet normal 7.942038e-001 -6.022528e-001 0.000000e+000
    outer loop
      vertex   -7.111939e+001 2.222608e+002 0.000000e+000
      vertex   -7.131537e+001 2.220023e+002 4.000000e+000
      vertex   -7.131537e+001 2.220023e+002 0.000000e+000
    endloop
  endfacet
  facet normal 6.091534e-002 -5.311509e-002 0.000000e+000
    outer loop
      vertex   -7.131537e+001 2.220023e+002 0.000000e+000
      vertex   -7.131537e+001 2.220023e+002 4.000000e+000
      vertex   -7.152853e+001 2.217579e+002 4.000000e+000
    endloop
  endfacet
  facet normal 7.512494e-001 -6.550514e-001 -6.938894e-018
    outer loop
      vertex   -7.131537e+001 2.220023e+002 0.000000e+000
      vertex   -7.152853e+001 2.217579e+002 4.000000e+000
      vertex   -7.152853e+001 2.217579e+002 0.000000e+000
    endloop
  endfacet
  facet normal 5.714734e-002 -5.714924e-002 0.000000e+000
    outer loop
      vertex   -7.152853e+001 2.217579e+002 0.000000e+000
      vertex   -7.152853e+001 2.217579e+002 4.000000e+000
      vertex   -7.175787e+001 2.215285e+002 4.000000e+000
    endloop
  endfacet
  facet normal 7.047819e-001 -7.048054e-001 0.000000e+000
    outer loop
      vertex   -7.152853e+001 2.217579e+002 0.000000e+000
      vertex   -7.175787e+001 2.215285e+002 4.000000e+000
      vertex   -7.175787e+001 2.215285e+002 0.000000e+000
    endloop
  endfacet
  facet normal 5.311698e-002 -6.091533e-002 0.000000e+000
    outer loop
      vertex   -7.175787e+001 2.215285e+002 0.000000e+000
      vertex   -7.175787e+001 2.215285e+002 4.000000e+000
      vertex   -7.200233e+001 2.213154e+002 4.000000e+000
    endloop
  endfacet
  facet normal 6.550647e-001 -7.512378e-001 -6.938894e-018
    outer loop
      vertex   -7.175787e+001 2.215285e+002 0.000000e+000
      vertex   -7.200233e+001 2.213154e+002 4.000000e+000
      vertex   -7.200233e+001 2.213154e+002 0.000000e+000
    endloop
  endfacet
  facet normal 4.883190e-002 -6.439628e-002 0.000000e+000
    outer loop
      vertex   -7.200233e+001 2.213154e+002 0.000000e+000
      vertex   -7.200233e+001 2.213154e+002 4.000000e+000
      vertex   -7.226077e+001 2.211194e+002 4.000000e+000
    endloop
  endfacet
  facet normal 6.022494e-001 -7.942067e-001 0.000000e+000
    outer loop
      vertex   -7.200233e+001 2.213154e+002 0.000000e+000
      vertex   -7.226077e+001 2.211194e+002 4.000000e+000
      vertex   -7.226077e+001 2.211194e+002 0.000000e+000
    endloop
  endfacet
  facet normal 4.432626e-002 -6.758063e-002 0.000000e+000
    outer loop
      vertex   -7.226077e+001 2.211194e+002 0.000000e+000
      vertex   -7.226077e+001 2.211194e+002 4.000000e+000
      vertex   -7.253197e+001 2.209415e+002 4.000000e+000
    endloop
  endfacet
  facet normal 5.466588e-001 -8.334460e-001 0.000000e+000
    outer loop
      vertex   -7.226077e+001 2.211194e+002 0.000000e+000
      vertex   -7.253197e+001 2.209415e+002 4.000000e+000
      vertex   -7.253197e+001 2.209415e+002 0.000000e+000
    endloop
  endfacet
  facet normal 3.961151e-002 -7.044750e-002 0.000000e+000
    outer loop
      vertex   -7.253197e+001 2.209415e+002 0.000000e+000
      vertex   -7.253197e+001 2.209415e+002 4.000000e+000
      vertex   -7.281469e+001 2.207825e+002 4.000000e+000
    endloop
  endfacet
  facet normal 4.885150e-001 -8.688045e-001 0.000000e+000
    outer loop
      vertex   -7.253197e+001 2.209415e+002 0.000000e+000
      vertex   -7.281469e+001 2.207825e+002 4.000000e+000
      vertex   -7.281469e+001 2.207825e+002 0.000000e+000
    endloop
  endfacet
  facet normal 3.471045e-002 -7.298738e-002 0.000000e+000
    outer loop
      vertex   -7.281469e+001 2.207825e+002 0.000000e+000
      vertex   -7.281469e+001 2.207825e+002 4.000000e+000
      vertex   -7.310760e+001 2.206432e+002 4.000000e+000
    endloop
  endfacet
  facet normal 4.280702e-001 -9.001244e-001 -6.938894e-018
    outer loop
      vertex   -7.281469e+001 2.207825e+002 0.000000e+000
      vertex   -7.310760e+001 2.206432e+002 4.000000e+000
      vertex   -7.310760e+001 2.206432e+002 0.000000e+000
    endloop
  endfacet
  facet normal 2.964970e-002 -7.518506e-002 0.000000e+000
    outer loop
      vertex   -7.310760e+001 2.206432e+002 0.000000e+000
      vertex   -7.310760e+001 2.206432e+002 4.000000e+000
      vertex   -7.340932e+001 2.205243e+002 4.000000e+000
    endloop
  endfacet
  facet normal 3.656601e-001 -9.272329e-001 0.000000e+000
    outer loop
      vertex   -7.310760e+001 2.206432e+002 0.000000e+000
      vertex   -7.340932e+001 2.205243e+002 4.000000e+000
      vertex   -7.340932e+001 2.205243e+002 0.000000e+000
    endloop
  endfacet
  facet normal 2.444826e-002 -7.703295e-002 0.000000e+000
    outer loop
      vertex   -7.340932e+001 2.205243e+002 0.000000e+000
      vertex   -7.340932e+001 2.205243e+002 4.000000e+000
      vertex   -7.371847e+001 2.204261e+002 4.000000e+000
    endloop
  endfacet
  facet normal 3.015150e-001 -9.500300e-001 -3.469447e-018
    outer loop
      vertex   -7.340932e+001 2.205243e+002 0.000000e+000
      vertex   -7.371847e+001 2.204261e+002 4.000000e+000
      vertex   -7.371847e+001 2.204261e+002 0.000000e+000
    endloop
  endfacet
  facet normal 1.913656e-002 -7.852151e-002 0.000000e+000
    outer loop
      vertex   -7.371847e+001 2.204261e+002 0.000000e+000
      vertex   -7.371847e+001 2.204261e+002 4.000000e+000
      vertex   -7.403358e+001 2.203493e+002 4.000000e+000
    endloop
  endfacet
  facet normal 2.360062e-001 -9.683849e-001 0.000000e+000
    outer loop
      vertex   -7.371847e+001 2.204261e+002 0.000000e+000
      vertex   -7.403358e+001 2.203493e+002 4.000000e+000
      vertex   -7.403358e+001 2.203493e+002 0.000000e+000
    endloop
  endfacet
  facet normal 1.373361e-002 -7.964506e-002 0.000000e+000
    outer loop
      vertex   -7.403358e+001 2.203493e+002 0.000000e+000
      vertex   -7.403358e+001 2.203493e+002 4.000000e+000
      vertex   -7.435321e+001 2.202942e+002 4.000000e+000
    endloop
  endfacet
  facet normal 1.693715e-001 -9.822328e-001 0.000000e+000
    outer loop
      vertex   -7.403358e+001 2.203493e+002 0.000000e+000
      vertex   -7.435321e+001 2.202942e+002 4.000000e+000
      vertex   -7.435321e+001 2.202942e+002 0.000000e+000
    endloop
  endfacet
  facet normal 8.262221e-003 -8.039601e-002 0.000000e+000
    outer loop
      vertex   -7.435321e+001 2.202942e+002 0.000000e+000
      vertex   -7.435321e+001 2.202942e+002 4.000000e+000
      vertex   -7.467585e+001 2.202611e+002 4.000000e+000
    endloop
  endfacet
  facet normal 1.018962e-001 -9.915066e-001 1.734723e-018
    outer loop
      vertex   -7.435321e+001 2.202942e+002 0.000000e+000
      vertex   -7.467585e+001 2.202611e+002 4.000000e+000
      vertex   -7.467585e+001 2.202611e+002 0.000000e+000
    endloop
  endfacet
  facet normal 2.760411e-003 -8.077243e-002 0.000000e+000
    outer loop
      vertex   -7.467585e+001 2.202611e+002 0.000000e+000
      vertex   -7.467585e+001 2.202611e+002 4.000000e+000
      vertex   -7.500000e+001 2.202500e+002 4.000000e+000
    endloop
  endfacet
  facet normal 3.404349e-002 -9.961472e-001 0.000000e+000
    outer loop
      vertex   -7.467585e+001 2.202611e+002 0.000000e+000
      vertex   -7.500000e+001 2.202500e+002 4.000000e+000
      vertex   -7.500000e+001 2.202500e+002 0.000000e+000
    endloop
  endfacet
  facet normal -2.760411e-003 -8.077243e-002 0.000000e+000
    outer loop
      vertex   -7.500000e+001 2.202500e+002 0.000000e+000
      vertex   -7.500000e+001 2.202500e+002 4.000000e+000
      vertex   -7.532415e+001 2.202611e+002 4.000000e+000
    endloop
  endfacet
  facet normal -3.404349e-002 -9.961472e-001 0.000000e+000
    outer loop
      vertex   -7.500000e+001 2.202500e+002 0.000000e+000
      vertex   -7.532415e+001 2.202611e+002 4.000000e+000
      vertex   -7.532415e+001 2.202611e+002 0.000000e+000
    endloop
  endfacet
  facet normal -8.262221e-003 -8.039601e-002 0.000000e+000
    outer loop
      vertex   -7.532415e+001 2.202611e+002 0.000000e+000
      vertex   -7.532415e+001 2.202611e+002 4.000000e+000
      vertex   -7.564679e+001 2.202942e+002 4.000000e+000
    endloop
  endfacet
  facet normal -1.018962e-001 -9.915066e-001 -1.734723e-018
    outer loop
      vertex   -7.532415e+001 2.202611e+002 0.000000e+000
      vertex   -7.564679e+001 2.202942e+002 4.000000e+000
      vertex   -7.564679e+001 2.202942e+002 0.000000e+000
    endloop
  endfacet
  facet normal -1.373361e-002 -7.964506e-002 0.000000e+000
    outer loop
      vertex   -7.564679e+001 2.202942e+002 0.000000e+000
      vertex   -7.564679e+001 2.202942e+002 4.000000e+000
      vertex   -7.596642e+001 2.203493e+002 4.000000e+000
    endloop
  endfacet
  facet normal -1.693715e-001 -9.822328e-001 0.000000e+000
    outer loop
      vertex   -7.564679e+001 2.202942e+002 0.000000e+000
      vertex   -7.596642e+001 2.203493e+002 4.000000e+000
      vertex   -7.596642e+001 2.203493e+002 0.000000e+000
    endloop
  endfacet
  facet normal -1.913656e-002 -7.852151e-002 0.000000e+000
    outer loop
      vertex   -7.596642e+001 2.203493e+002 0.000000e+000
      vertex   -7.596642e+001 2.203493e+002 4.000000e+000
      vertex   -7.628153e+001 2.204261e+002 4.000000e+000
    endloop
  endfacet
  facet normal -2.360062e-001 -9.683849e-001 0.000000e+000
    outer loop
      vertex   -7.596642e+001 2.203493e+002 0.000000e+000
      vertex   -7.628153e+001 2.204261e+002 4.000000e+000
      vertex   -7.628153e+001 2.204261e+002 0.000000e+000
    endloop
  endfacet
  facet normal -2.444826e-002 -7.703295e-002 0.000000e+000
    outer loop
      vertex   -7.628153e+001 2.204261e+002 0.000000e+000
      vertex   -7.628153e+001 2.204261e+002 4.000000e+000
      vertex   -7.659068e+001 2.205243e+002 4.000000e+000
    endloop
  endfacet
  facet normal -3.015150e-001 -9.500300e-001 3.469447e-018
    outer loop
      vertex   -7.628153e+001 2.204261e+002 0.000000e+000
      vertex   -7.659068e+001 2.205243e+002 4.000000e+000
      vertex   -7.659068e+001 2.205243e+002 0.000000e+000
    endloop
  endfacet
  facet normal -2.964970e-002 -7.518506e-002 0.000000e+000
    outer loop
      vertex   -7.659068e+001 2.205243e+002 0.000000e+000
      vertex   -7.659068e+001 2.205243e+002 4.000000e+000
      vertex   -7.689240e+001 2.206432e+002 4.000000e+000
    endloop
  endfacet
  facet normal -3.656601e-001 -9.272329e-001 0.000000e+000
    outer loop
      vertex   -7.659068e+001 2.205243e+002 0.000000e+000
      vertex   -7.689240e+001 2.206432e+002 4.000000e+000
      vertex   -7.689240e+001 2.206432e+002 0.000000e+000
    endloop
  endfacet
  facet normal -3.471045e-002 -7.298738e-002 0.000000e+000
    outer loop
      vertex   -7.689240e+001 2.206432e+002 0.000000e+000
      vertex   -7.689240e+001 2.206432e+002 4.000000e+000
      vertex   -7.718531e+001 2.207825e+002 4.000000e+000
    endloop
  endfacet
  facet normal -4.280702e-001 -9.001244e-001 6.938894e-018
    outer loop
      vertex   -7.689240e+001 2.206432e+002 0.000000e+000
      vertex   -7.718531e+001 2.207825e+002 4.000000e+000
      vertex   -7.718531e+001 2.207825e+002 0.000000e+000
    endloop
  endfacet
  facet normal -3.961151e-002 -7.044750e-002 0.000000e+000
    outer loop
      vertex   -7.718531e+001 2.207825e+002 0.000000e+000
      vertex   -7.718531e+001 2.207825e+002 4.000000e+000
      vertex   -7.746803e+001 2.209415e+002 4.000000e+000
    endloop
  endfacet
  facet normal -4.885150e-001 -8.688045e-001 0.000000e+000
    outer loop
      vertex   -7.718531e+001 2.207825e+002 0.000000e+000
      vertex   -7.746803e+001 2.209415e+002 4.000000e+000
      vertex   -7.746803e+001 2.209415e+002 0.000000e+000
    endloop
  endfacet
  facet normal -4.432626e-002 -6.758063e-002 0.000000e+000
    outer loop
      vertex   -7.746803e+001 2.209415e+002 0.000000e+000
      vertex   -7.746803e+001 2.209415e+002 4.000000e+000
      vertex   -7.773923e+001 2.211194e+002 4.000000e+000
    endloop
  endfacet
  facet normal -5.466588e-001 -8.334460e-001 0.000000e+000
    outer loop
      vertex   -7.746803e+001 2.209415e+002 0.000000e+000
      vertex   -7.773923e+001 2.211194e+002 4.000000e+000
      vertex   -7.773923e+001 2.211194e+002 0.000000e+000
    endloop
  endfacet
  facet normal -4.883190e-002 -6.439628e-002 0.000000e+000
    outer loop
      vertex   -7.773923e+001 2.211194e+002 0.000000e+000
      vertex   -7.773923e+001 2.211194e+002 4.000000e+000
      vertex   -7.799767e+001 2.213154e+002 4.000000e+000
    endloop
  endfacet
  facet normal -6.022494e-001 -7.942067e-001 0.000000e+000
    outer loop
      vertex   -7.773923e+001 2.211194e+002 0.000000e+000
      vertex   -7.799767e+001 2.213154e+002 4.000000e+000
      vertex   -7.799767e+001 2.213154e+002 0.000000e+000
    endloop
  endfacet
  facet normal -5.311698e-002 -6.091533e-002 0.000000e+000
    outer loop
      vertex   -7.799767e+001 2.213154e+002 0.000000e+000
      vertex   -7.799767e+001 2.213154e+002 4.000000e+000
      vertex   -7.824213e+001 2.215285e+002 4.000000e+000
    endloop
  endfacet
  facet normal -6.550647e-001 -7.512378e-001 6.938894e-018
    outer loop
      vertex   -7.799767e+001 2.213154e+002 0.000000e+000
      vertex   -7.824213e+001 2.215285e+002 4.000000e+000
      vertex   -7.824213e+001 2.215285e+002 0.000000e+000
    endloop
  endfacet
  facet normal -5.714734e-002 -5.714924e-002 0.000000e+000
    outer loop
      vertex   -7.824213e+001 2.215285e+002 0.000000e+000
      vertex   -7.824213e+001 2.215285e+002 4.000000e+000
      vertex   -7.847147e+001 2.217579e+002 4.000000e+000
    endloop
  endfacet
  facet normal -7.047819e-001 -7.048054e-001 0.000000e+000
    outer loop
      vertex   -7.824213e+001 2.215285e+002 0.000000e+000
      vertex   -7.847147e+001 2.217579e+002 4.000000e+000
      vertex   -7.847147e+001 2.217579e+002 0.000000e+000
    endloop
  endfacet
  facet normal -6.091534e-002 -5.311509e-002 0.000000e+000
    outer loop
      vertex   -7.847147e+001 2.217579e+002 0.000000e+000
      vertex   -7.847147e+001 2.217579e+002 4.000000e+000
      vertex   -7.868463e+001 2.220023e+002 4.000000e+000
    endloop
  endfacet
  facet normal -7.512494e-001 -6.550514e-001 6.938894e-018
    outer loop
      vertex   -7.847147e+001 2.217579e+002 0.000000e+000
      vertex   -7.868463e+001 2.220023e+002 4.000000e+000
      vertex   -7.868463e+001 2.220023e+002 0.000000e+000
    endloop
  endfacet
  facet normal -6.439817e-002 -4.883379e-002 0.000000e+000
    outer loop
      vertex   -7.868463e+001 2.220023e+002 0.000000e+000
      vertex   -7.868463e+001 2.220023e+002 4.000000e+000
      vertex   -7.888061e+001 2.222608e+002 4.000000e+000
    endloop
  endfacet
  facet normal -7.942038e-001 -6.022528e-001 0.000000e+000
    outer loop
      vertex   -7.868463e+001 2.220023e+002 0.000000e+000
      vertex   -7.888061e+001 2.222608e+002 4.000000e+000
      vertex   -7.888061e+001 2.222608e+002 0.000000e+000
    endloop
  endfacet
  facet normal -6.758063e-002 -4.432626e-002 0.000000e+000
    outer loop
      vertex   -7.888061e+001 2.222608e+002 0.000000e+000
      vertex   -7.888061e+001 2.222608e+002 4.000000e+000
      vertex   -7.905849e+001 2.225320e+002 4.000000e+000
    endloop
  endfacet
  facet normal -8.334460e-001 -5.466588e-001 0.000000e+000
    outer loop
      vertex   -7.888061e+001 2.222608e+002 0.000000e+000
      vertex   -7.905849e+001 2.225320e+002 4.000000e+000
      vertex   -7.905849e+001 2.225320e+002 0.000000e+000
    endloop
  endfacet
  facet normal -7.044750e-002 -3.960961e-002 0.000000e+000
    outer loop
      vertex   -7.905849e+001 2.225320e+002 0.000000e+000
      vertex   -7.905849e+001 2.225320e+002 4.000000e+000
      vertex   -7.921745e+001 2.228147e+002 4.000000e+000
    endloop
  endfacet
  facet normal -8.688146e-001 -4.884972e-001 0.000000e+000
    outer loop
      vertex   -7.905849e+001 2.225320e+002 0.000000e+000
      vertex   -7.921745e+001 2.228147e+002 4.000000e+000
      vertex   -7.921745e+001 2.228147e+002 0.000000e+000
    endloop
  endfacet
  facet normal -7.298360e-002 -3.471046e-002 0.000000e+000
    outer loop
      vertex   -7.921745e+001 2.228147e+002 0.000000e+000
      vertex   -7.921745e+001 2.228147e+002 4.000000e+000
      vertex   -7.935675e+001 2.231076e+002 4.000000e+000
    endloop
  endfacet
  facet normal -9.001160e-001 -4.280885e-001 0.000000e+000
    outer loop
      vertex   -7.921745e+001 2.228147e+002 0.000000e+000
      vertex   -7.935675e+001 2.231076e+002 4.000000e+000
      vertex   -7.935675e+001 2.231076e+002 0.000000e+000
    endloop
  endfacet
  facet normal -7.518506e-002 -2.964970e-002 0.000000e+000
    outer loop
      vertex   -7.935675e+001 2.231076e+002 0.000000e+000
      vertex   -7.935675e+001 2.231076e+002 4.000000e+000
      vertex   -7.947574e+001 2.234093e+002 4.000000e+000
    endloop
  endfacet
  facet normal -9.272329e-001 -3.656601e-001 0.000000e+000
    outer loop
      vertex   -7.935675e+001 2.231076e+002 0.000000e+000
      vertex   -7.947574e+001 2.234093e+002 4.000000e+000
      vertex   -7.947574e+001 2.234093e+002 0.000000e+000
    endloop
  endfacet
  facet normal -7.703294e-002 -2.445016e-002 0.000000e+000
    outer loop
      vertex   -7.947574e+001 2.234093e+002 0.000000e+000
      vertex   -7.947574e+001 2.234093e+002 4.000000e+000
      vertex   -7.957386e+001 2.237185e+002 4.000000e+000
    endloop
  endfacet
  facet normal -9.500232e-001 -3.015362e-001 -3.469447e-018
    outer loop
      vertex   -7.947574e+001 2.234093e+002 0.000000e+000
      vertex   -7.957386e+001 2.237185e+002 4.000000e+000
      vertex   -7.957386e+001 2.237185e+002 0.000000e+000
    endloop
  endfacet
  facet normal -7.852340e-002 -1.913466e-002 0.000000e+000
    outer loop
      vertex   -7.957386e+001 2.237185e+002 0.000000e+000
      vertex   -7.957386e+001 2.237185e+002 4.000000e+000
      vertex   -7.965065e+001 2.240336e+002 4.000000e+000
    endloop
  endfacet
  facet normal -9.683915e-001 -2.359786e-001 0.000000e+000
    outer loop
      vertex   -7.957386e+001 2.237185e+002 0.000000e+000
      vertex   -7.965065e+001 2.240336e+002 4.000000e+000
      vertex   -7.965065e+001 2.240336e+002 0.000000e+000
    endloop
  endfacet
  facet normal -7.964507e-002 -1.373171e-002 0.000000e+000
    outer loop
      vertex   -7.965065e+001 2.240336e+002 0.000000e+000
      vertex   -7.965065e+001 2.240336e+002 4.000000e+000
      vertex   -7.970576e+001 2.243532e+002 4.000000e+000
    endloop
  endfacet
  facet normal -9.822368e-001 -1.693487e-001 1.734723e-018
    outer loop
      vertex   -7.965065e+001 2.240336e+002 0.000000e+000
      vertex   -7.970576e+001 2.243532e+002 4.000000e+000
      vertex   -7.970576e+001 2.243532e+002 0.000000e+000
    endloop
  endfacet
  facet normal -8.039412e-002 -8.266024e-003 0.000000e+000
    outer loop
      vertex   -7.970576e+001 2.243532e+002 0.000000e+000
      vertex   -7.970576e+001 2.243532e+002 4.000000e+000
      vertex   -7.973893e+001 2.246758e+002 4.000000e+000
    endloop
  endfacet
  facet normal 0.000000e+000 -0.000000e+000 9.994174e-001
    outer loop
      vertex   -7.973893e+001 2.246758e+002 4.000000e+000
      vertex   -7.026107e+001 2.246758e+002 4.000000e+000
      vertex   -7.975000e+001 2.250000e+002 4.000000e+000
    endloop
  endfacet
  facet normal -0.000000e+000 0.000000e+000 3.414176e-002
    outer loop
      vertex   -7.975000e+001 2.250000e+002 4.000000e+000
      vertex   -7.026107e+001 2.246758e+002 4.000000e+000
      vertex   -7.025000e+001 2.250000e+002 4.000000e+000
    endloop
  endfacet
  facet normal 0.000000e+000 0.000000e+000 9.994174e-001
    outer loop
      vertex   -7.975000e+001 2.250000e+002 4.000000e+000
      vertex   -7.025000e+001 2.250000e+002 4.000000e+000
      vertex   -7.973893e+001 2.253242e+002 4.000000e+000
    endloop
  endfacet
  facet normal -0.000000e+000 0.000000e+000 3.414176e-002
    outer loop
      vertex   -7.973893e+001 2.253242e+002 4.000000e+000
      vertex   -7.025000e+001 2.250000e+002 4.000000e+000
      vertex   -7.026107e+001 2.253242e+002 4.000000e+000
    endloop
  endfacet
  facet normal 0.000000e+000 0.000000e+000 9.947557e-001
    outer loop
      vertex   -7.973893e+001 2.253242e+002 4.000000e+000
      vertex   -7.026107e+001 2.253242e+002 4.000000e+000
      vertex   -7.970576e+001 2.256468e+002 4.000000e+000
    endloop
  endfacet
  facet normal -0.000000e+000 0.000000e+000 3.414023e-002
    outer loop
      vertex   -7.970576e+001 2.256468e+002 4.000000e+000
      vertex   -7.026107e+001 2.253242e+002 4.000000e+000
      vertex   -7.029424e+001 2.256468e+002 4.000000e+000
    endloop
  endfacet
  facet normal 0.000000e+000 0.000000e+000 9.854605e-001
    outer loop
      vertex   -7.970576e+001 2.256468e+002 4.000000e+000
      vertex   -7.029424e+001 2.256468e+002 4.000000e+000
      vertex   -7.965065e+001 2.259664e+002 4.000000e+000
    endloop
  endfacet
  facet normal -0.000000e+000 0.000000e+000 3.414126e-002
    outer loop
      vertex   -7.965065e+001 2.259664e+002 4.000000e+000
      vertex   -7.029424e+001 2.256468e+002 4.000000e+000
      vertex   -7.034935e+001 2.259664e+002 4.000000e+000
    endloop
  endfacet
  facet normal 0.000000e+000 0.000000e+000 9.715698e-001
    outer loop
      vertex   -7.965065e+001 2.259664e+002 4.000000e+000
      vertex   -7.034935e+001 2.259664e+002 4.000000e+000
      vertex   -7.957386e+001 2.262815e+002 4.000000e+000
    endloop
  endfacet
  facet normal -0.000000e+000 0.000000e+000 3.414174e-002
    outer loop
      vertex   -7.957386e+001 2.262815e+002 4.000000e+000
      vertex   -7.034935e+001 2.259664e+002 4.000000e+000
      vertex   -7.042614e+001 2.262815e+002 4.000000e+000
    endloop
  endfacet
  facet normal 0.000000e+000 0.000000e+000 9.531412e-001
    outer loop
      vertex   -7.957386e+001 2.262815e+002 4.000000e+000
      vertex   -7.042614e+001 2.262815e+002 4.000000e+000
      vertex   -7.947574e+001 2.265907e+002 4.000000e+000
    endloop
  endfacet
  facet normal -0.000000e+000 0.000000e+000 3.414106e-002
    outer loop
      vertex   -7.947574e+001 2.265907e+002 4.000000e+000
      vertex   -7.042614e+001 2.262815e+002 4.000000e+000
      vertex   -7.052426e+001 2.265907e+002 4.000000e+000
    endloop
  endfacet
  facet normal 0.000000e+000 0.000000e+000 9.302761e-001
    outer loop
      vertex   -7.947574e+001 2.265907e+002 4.000000e+000
      vertex   -7.052426e+001 2.265907e+002 4.000000e+000
      vertex   -7.935675e+001 2.268924e+002 4.000000e+000
    endloop
  endfacet
  facet normal -0.000000e+000 0.000000e+000 3.414116e-002
    outer loop
      vertex   -7.935675e+001 2.268924e+002 4.000000e+000
      vertex   -7.052426e+001 2.265907e+002 4.000000e+000
      vertex   -7.064325e+001 2.268924e+002 4.000000e+000
    endloop
  endfacet
  facet normal 0.000000e+000 0.000000e+000 9.030700e-001
    outer loop
      vertex   -7.935675e+001 2.268924e+002 4.000000e+000
      vertex   -7.064325e+001 2.268924e+002 4.000000e+000
      vertex   -7.921745e+001 2.271853e+002 4.000000e+000
    endloop
  endfacet
  facet normal -0.000000e+000 0.000000e+000 3.413982e-002
    outer loop
      vertex   -7.921745e+001 2.271853e+002 4.000000e+000
      vertex   -7.064325e+001 2.268924e+002 4.000000e+000
      vertex   -7.078255e+001 2.271853e+002 4.000000e+000
    endloop
  endfacet
  facet normal 0.000000e+000 0.000000e+000 8.716660e-001
    outer loop
      vertex   -7.921745e+001 2.271853e+002 4.000000e+000
      vertex   -7.078255e+001 2.271853e+002 4.000000e+000
      vertex   -7.905849e+001 2.274680e+002 4.000000e+000
    endloop
  endfacet
  facet normal -0.000000e+000 0.000000e+000 3.414111e-002
    outer loop
      vertex   -7.905849e+001 2.274680e+002 4.000000e+000
      vertex   -7.078255e+001 2.271853e+002 4.000000e+000
      vertex   -7.094151e+001 2.274680e+002 4.000000e+000
    endloop
  endfacet
  facet normal 0.000000e+000 0.000000e+000 8.361814e-001
    outer loop
      vertex   -7.905849e+001 2.274680e+002 4.000000e+000
      vertex   -7.094151e+001 2.274680e+002 4.000000e+000
      vertex   -7.888061e+001 2.277392e+002 4.000000e+000
    endloop
  endfacet
  facet normal -0.000000e+000 0.000000e+000 3.414134e-002
    outer loop
      vertex   -7.888061e+001 2.277392e+002 4.000000e+000
      vertex   -7.094151e+001 2.274680e+002 4.000000e+000
      vertex   -7.111939e+001 2.277392e+002 4.000000e+000
    endloop
  endfacet
  facet normal 0.000000e+000 0.000000e+000 7.968104e-001
    outer loop
      vertex   -7.888061e+001 2.277392e+002 4.000000e+000
      vertex   -7.111939e+001 2.277392e+002 4.000000e+000
      vertex   -7.868463e+001 2.279977e+002 4.000000e+000
    endloop
  endfacet
  facet normal -0.000000e+000 0.000000e+000 3.414135e-002
    outer loop
      vertex   -7.868463e+001 2.279977e+002 4.000000e+000
      vertex   -7.111939e+001 2.277392e+002 4.000000e+000
      vertex   -7.131537e+001 2.279977e+002 4.000000e+000
    endloop
  endfacet
  facet normal 0.000000e+000 0.000000e+000 7.537150e-001
    outer loop
      vertex   -7.868463e+001 2.279977e+002 4.000000e+000
      vertex   -7.131537e+001 2.279977e+002 4.000000e+000
      vertex   -7.847147e+001 2.282421e+002 4.000000e+000
    endloop
  endfacet
  facet normal -0.000000e+000 0.000000e+000 3.414127e-002
    outer loop
      vertex   -7.847147e+001 2.282421e+002 4.000000e+000
      vertex   -7.131537e+001 2.279977e+002 4.000000e+000
      vertex   -7.152853e+001 2.282421e+002 4.000000e+000
    endloop
  endfacet
  facet normal 0.000000e+000 0.000000e+000 7.070950e-001
    outer loop
      vertex   -7.847147e+001 2.282421e+002 4.000000e+000
      vertex   -7.152853e+001 2.282421e+002 4.000000e+000
      vertex   -7.824213e+001 2.284715e+002 4.000000e+000
    endloop
  endfacet
  facet normal -0.000000e+000 0.000000e+000 3.414053e-002
    outer loop
      vertex   -7.824213e+001 2.284715e+002 4.000000e+000
      vertex   -7.152853e+001 2.282421e+002 4.000000e+000
      vertex   -7.175787e+001 2.284715e+002 4.000000e+000
    endloop
  endfacet
  facet normal 0.000000e+000 0.000000e+000 6.572147e-001
    outer loop
      vertex   -7.824213e+001 2.284715e+002 4.000000e+000
      vertex   -7.175787e+001 2.284715e+002 4.000000e+000
      vertex   -7.799767e+001 2.286846e+002 4.000000e+000
    endloop
  endfacet
  facet normal -0.000000e+000 0.000000e+000 3.414233e-002
    outer loop
      vertex   -7.799767e+001 2.286846e+002 4.000000e+000
      vertex   -7.175787e+001 2.284715e+002 4.000000e+000
      vertex   -7.200233e+001 2.286846e+002 4.000000e+000
    endloop
  endfacet
  facet normal 0.000000e+000 0.000000e+000 6.042258e-001
    outer loop
      vertex   -7.799767e+001 2.286846e+002 4.000000e+000
      vertex   -7.200233e+001 2.286846e+002 4.000000e+000
      vertex   -7.773923e+001 2.288806e+002 4.000000e+000
    endloop
  endfacet
  facet normal -0.000000e+000 0.000000e+000 3.413941e-002
    outer loop
      vertex   -7.773923e+001 2.288806e+002 4.000000e+000
      vertex   -7.200233e+001 2.286846e+002 4.000000e+000
      vertex   -7.226077e+001 2.288806e+002 4.000000e+000
    endloop
  endfacet
  facet normal 0.000000e+000 0.000000e+000 5.484530e-001
    outer loop
      vertex   -7.773923e+001 2.288806e+002 4.000000e+000
      vertex   -7.226077e+001 2.288806e+002 4.000000e+000
      vertex   -7.746803e+001 2.290585e+002 4.000000e+000
    endloop
  endfacet
  facet normal -0.000000e+000 0.000000e+000 3.414142e-002
    outer loop
      vertex   -7.746803e+001 2.290585e+002 4.000000e+000
      vertex   -7.226077e+001 2.288806e+002 4.000000e+000
      vertex   -7.253197e+001 2.290585e+002 4.000000e+000
    endloop
  endfacet
  facet normal 0.000000e+000 0.000000e+000 4.901183e-001
    outer loop
      vertex   -7.746803e+001 2.290585e+002 4.000000e+000
      vertex   -7.253197e+001 2.290585e+002 4.000000e+000
      vertex   -7.718531e+001 2.292175e+002 4.000000e+000
    endloop
  endfacet
  facet normal -0.000000e+000 0.000000e+000 3.414183e-002
    outer loop
      vertex   -7.718531e+001 2.292175e+002 4.000000e+000
      vertex   -7.253197e+001 2.290585e+002 4.000000e+000
      vertex   -7.281469e+001 2.292175e+002 4.000000e+000
    endloop
  endfacet
  facet normal 0.000000e+000 0.000000e+000 4.294752e-001
    outer loop
      vertex   -7.718531e+001 2.292175e+002 4.000000e+000
      vertex   -7.281469e+001 2.292175e+002 4.000000e+000
      vertex   -7.689240e+001 2.293568e+002 4.000000e+000
    endloop
  endfacet
  facet normal -0.000000e+000 0.000000e+000 3.414077e-002
    outer loop
      vertex   -7.689240e+001 2.293568e+002 4.000000e+000
      vertex   -7.281469e+001 2.292175e+002 4.000000e+000
      vertex   -7.310760e+001 2.293568e+002 4.000000e+000
    endloop
  endfacet
  facet normal 0.000000e+000 0.000000e+000 3.668602e-001
    outer loop
      vertex   -7.689240e+001 2.293568e+002 4.000000e+000
      vertex   -7.310760e+001 2.293568e+002 4.000000e+000
      vertex   -7.659068e+001 2.294757e+002 4.000000e+000
    endloop
  endfacet
  facet normal -0.000000e+000 0.000000e+000 3.414183e-002
    outer loop
      vertex   -7.659068e+001 2.294757e+002 4.000000e+000
      vertex   -7.310760e+001 2.293568e+002 4.000000e+000
      vertex   -7.340932e+001 2.294757e+002 4.000000e+000
    endloop
  endfacet
  facet normal 0.000000e+000 0.000000e+000 3.025045e-001
    outer loop
      vertex   -7.659068e+001 2.294757e+002 4.000000e+000
      vertex   -7.340932e+001 2.294757e+002 4.000000e+000
      vertex   -7.628153e+001 2.295739e+002 4.000000e+000
    endloop
  endfacet
  facet normal -0.000000e+000 0.000000e+000 3.413988e-002
    outer loop
      vertex   -7.628153e+001 2.295739e+002 4.000000e+000
      vertex   -7.340932e+001 2.294757e+002 4.000000e+000
      vertex   -7.371847e+001 2.295739e+002 4.000000e+000
    endloop
  endfacet
  facet normal 0.000000e+000 0.000000e+000 2.367807e-001
    outer loop
      vertex   -7.628153e+001 2.295739e+002 4.000000e+000
      vertex   -7.371847e+001 2.295739e+002 4.000000e+000
      vertex   -7.596642e+001 2.296507e+002 4.000000e+000
    endloop
  endfacet
  facet normal -0.000000e+000 0.000000e+000 3.414346e-002
    outer loop
      vertex   -7.596642e+001 2.296507e+002 4.000000e+000
      vertex   -7.371847e+001 2.295739e+002 4.000000e+000
      vertex   -7.403358e+001 2.296507e+002 4.000000e+000
    endloop
  endfacet
  facet normal 0.000000e+000 0.000000e+000 1.699274e-001
    outer loop
      vertex   -7.596642e+001 2.296507e+002 4.000000e+000
      vertex   -7.403358e+001 2.296507e+002 4.000000e+000
      vertex   -7.564679e+001 2.297058e+002 4.000000e+000
    endloop
  endfacet
  facet normal -0.000000e+000 0.000000e+000 3.414483e-002
    outer loop
      vertex   -7.564679e+001 2.297058e+002 4.000000e+000
      vertex   -7.403358e+001 2.296507e+002 4.000000e+000
      vertex   -7.435321e+001 2.297058e+002 4.000000e+000
    endloop
  endfacet
  facet normal 0.000000e+000 0.000000e+000 1.022306e-001
    outer loop
      vertex   -7.564679e+001 2.297058e+002 4.000000e+000
      vertex   -7.435321e+001 2.297058e+002 4.000000e+000
      vertex   -7.532415e+001 2.297389e+002 4.000000e+000
    endloop
  endfacet
  facet normal -0.000000e+000 0.000000e+000 3.412986e-002
    outer loop
      vertex   -7.532415e+001 2.297389e+002 4.000000e+000
      vertex   -7.435321e+001 2.297058e+002 4.000000e+000
      vertex   -7.467585e+001 2.297389e+002 4.000000e+000
    endloop
  endfacet
  facet normal 0.000000e+000 0.000000e+000 3.415522e-002
    outer loop
      vertex   -7.532415e+001 2.297389e+002 4.000000e+000
      vertex   -7.467585e+001 2.297389e+002 4.000000e+000
      vertex   -7.500000e+001 2.297500e+002 4.000000e+000
    endloop
  endfacet
  facet normal 0.000000e+000 0.000000e+000 9.947557e-001
    outer loop
      vertex   -7.026107e+001 2.246758e+002 4.000000e+000
      vertex   -7.973893e+001 2.246758e+002 4.000000e+000
      vertex   -7.029424e+001 2.243532e+002 4.000000e+000
    endloop
  endfacet
  facet normal 0.000000e+000 0.000000e+000 3.414023e-002
    outer loop
      vertex   -7.029424e+001 2.243532e+002 4.000000e+000
      vertex   -7.973893e+001 2.246758e+002 4.000000e+000
      vertex   -7.970576e+001 2.243532e+002 4.000000e+000
    endloop
  endfacet
  facet normal 0.000000e+000 0.000000e+000 9.854605e-001
    outer loop
      vertex   -7.029424e+001 2.243532e+002 4.000000e+000
      vertex   -7.970576e+001 2.243532e+002 4.000000e+000
      vertex   -7.034935e+001 2.240336e+002 4.000000e+000
    endloop
  endfacet
  facet normal 0.000000e+000 0.000000e+000 3.414126e-002
    outer loop
      vertex   -7.034935e+001 2.240336e+002 4.000000e+000
      vertex   -7.970576e+001 2.243532e+002 4.000000e+000
      vertex   -7.965065e+001 2.240336e+002 4.000000e+000
    endloop
  endfacet
  facet normal 0.000000e+000 0.000000e+000 9.715698e-001
    outer loop
      vertex   -7.034935e+001 2.240336e+002 4.000000e+000
      vertex   -7.965065e+001 2.240336e+002 4.000000e+000
      vertex   -7.042614e+001 2.237185e+002 4.000000e+000
    endloop
  endfacet
  facet normal 0.000000e+000 0.000000e+000 3.414174e-002
    outer loop
      vertex   -7.042614e+001 2.237185e+002 4.000000e+000
      vertex   -7.965065e+001 2.240336e+002 4.000000e+000
      vertex   -7.957386e+001 2.237185e+002 4.000000e+000
    endloop
  endfacet
  facet normal 0.000000e+000 0.000000e+000 9.531412e-001
    outer loop
      vertex   -7.042614e+001 2.237185e+002 4.000000e+000
      vertex   -7.957386e+001 2.237185e+002 4.000000e+000
      vertex   -7.052426e+001 2.234093e+002 4.000000e+000
    endloop
  endfacet
  facet normal 0.000000e+000 0.000000e+000 3.414106e-002
    outer loop
      vertex   -7.052426e+001 2.234093e+002 4.000000e+000
      vertex   -7.957386e+001 2.237185e+002 4.000000e+000
      vertex   -7.947574e+001 2.234093e+002 4.000000e+000
    endloop
  endfacet
  facet normal 0.000000e+000 0.000000e+000 9.302761e-001
    outer loop
      vertex   -7.052426e+001 2.234093e+002 4.000000e+000
      vertex   -7.947574e+001 2.234093e+002 4.000000e+000
      vertex   -7.064325e+001 2.231076e+002 4.000000e+000
    endloop
  endfacet
  facet normal 0.000000e+000 0.000000e+000 3.414116e-002
    outer loop
      vertex   -7.064325e+001 2.231076e+002 4.000000e+000
      vertex   -7.947574e+001 2.234093e+002 4.000000e+000
      vertex   -7.935675e+001 2.231076e+002 4.000000e+000
    endloop
  endfacet
  facet normal 0.000000e+000 0.000000e+000 9.030700e-001
    outer loop
      vertex   -7.064325e+001 2.231076e+002 4.000000e+000
      vertex   -7.935675e+001 2.231076e+002 4.000000e+000
      vertex   -7.078255e+001 2.228147e+002 4.000000e+000
    endloop
  endfacet
  facet normal 0.000000e+000 0.000000e+000 3.413982e-002
    outer loop
      vertex   -7.078255e+001 2.228147e+002 4.000000e+000
      vertex   -7.935675e+001 2.231076e+002 4.000000e+000
      vertex   -7.921745e+001 2.228147e+002 4.000000e+000
    endloop
  endfacet
  facet normal 0.000000e+000 0.000000e+000 8.716660e-001
    outer loop
      vertex   -7.078255e+001 2.228147e+002 4.000000e+000
      vertex   -7.921745e+001 2.228147e+002 4.000000e+000
      vertex   -7.094151e+001 2.225320e+002 4.000000e+000
    endloop
  endfacet
  facet normal 0.000000e+000 0.000000e+000 3.414111e-002
    outer loop
      vertex   -7.094151e+001 2.225320e+002 4.000000e+000
      vertex   -7.921745e+001 2.228147e+002 4.000000e+000
      vertex   -7.905849e+001 2.225320e+002 4.000000e+000
    endloop
  endfacet
  facet normal 0.000000e+000 0.000000e+000 8.361814e-001
    outer loop
      vertex   -7.094151e+001 2.225320e+002 4.000000e+000
      vertex   -7.905849e+001 2.225320e+002 4.000000e+000
      vertex   -7.111939e+001 2.222608e+002 4.000000e+000
    endloop
  endfacet
  facet normal 0.000000e+000 0.000000e+000 3.414134e-002
    outer loop
      vertex   -7.111939e+001 2.222608e+002 4.000000e+000
      vertex   -7.905849e+001 2.225320e+002 4.000000e+000
      vertex   -7.888061e+001 2.222608e+002 4.000000e+000
    endloop
  endfacet
  facet normal 0.000000e+000 0.000000e+000 7.968104e-001
    outer loop
      vertex   -7.111939e+001 2.222608e+002 4.000000e+000
      vertex   -7.888061e+001 2.222608e+002 4.000000e+000
      vertex   -7.131537e+001 2.220023e+002 4.000000e+000
    endloop
  endfacet
  facet normal 0.000000e+000 0.000000e+000 3.414135e-002
    outer loop
      vertex   -7.131537e+001 2.220023e+002 4.000000e+000
      vertex   -7.888061e+001 2.222608e+002 4.000000e+000
      vertex   -7.868463e+001 2.220023e+002 4.000000e+000
    endloop
  endfacet
  facet normal 0.000000e+000 0.000000e+000 7.537150e-001
    outer loop
      vertex   -7.131537e+001 2.220023e+002 4.000000e+000
      vertex   -7.868463e+001 2.220023e+002 4.000000e+000
      vertex   -7.152853e+001 2.217579e+002 4.000000e+000
    endloop
  endfacet
  facet normal 0.000000e+000 0.000000e+000 3.414127e-002
    outer loop
      vertex   -7.152853e+001 2.217579e+002 4.000000e+000
      vertex   -7.868463e+001 2.220023e+002 4.000000e+000
      vertex   -7.847147e+001 2.217579e+002 4.000000e+000
    endloop
  endfacet
  facet normal 0.000000e+000 0.000000e+000 7.070950e-001
    outer loop
      vertex   -7.152853e+001 2.217579e+002 4.000000e+000
      vertex   -7.847147e+001 2.217579e+002 4.000000e+000
      vertex   -7.175787e+001 2.215285e+002 4.000000e+000
    endloop
  endfacet
  facet normal 0.000000e+000 0.000000e+000 3.414053e-002
    outer loop
      vertex   -7.175787e+001 2.215285e+002 4.000000e+000
      vertex   -7.847147e+001 2.217579e+002 4.000000e+000
      vertex   -7.824213e+001 2.215285e+002 4.000000e+000
    endloop
  endfacet
  facet normal 0.000000e+000 0.000000e+000 6.572147e-001
    outer loop
      vertex   -7.175787e+001 2.215285e+002 4.000000e+000
      vertex   -7.824213e+001 2.215285e+002 4.000000e+000
      vertex   -7.200233e+001 2.213154e+002 4.000000e+000
    endloop
  endfacet
  facet normal 0.000000e+000 0.000000e+000 3.414233e-002
    outer loop
      vertex   -7.200233e+001 2.213154e+002 4.000000e+000
      vertex   -7.824213e+001 2.215285e+002 4.000000e+000
      vertex   -7.799767e+001 2.213154e+002 4.000000e+000
    endloop
  endfacet
  facet normal 0.000000e+000 0.000000e+000 6.042258e-001
    outer loop
      vertex   -7.200233e+001 2.213154e+002 4.000000e+000
      vertex   -7.799767e+001 2.213154e+002 4.000000e+000
      vertex   -7.226077e+001 2.211194e+002 4.000000e+000
    endloop
  endfacet
  facet normal 0.000000e+000 0.000000e+000 3.413941e-002
    outer loop
      vertex   -7.226077e+001 2.211194e+002 4.000000e+000
      vertex   -7.799767e+001 2.213154e+002 4.000000e+000
      vertex   -7.773923e+001 2.211194e+002 4.000000e+000
    endloop
  endfacet
  facet normal 0.000000e+000 0.000000e+000 5.484530e-001
    outer loop
      vertex   -7.226077e+001 2.211194e+002 4.000000e+000
      vertex   -7.773923e+001 2.211194e+002 4.000000e+000
      vertex   -7.253197e+001 2.209415e+002 4.000000e+000
    endloop
  endfacet
  facet normal 0.000000e+000 0.000000e+000 3.414142e-002
    outer loop
      vertex   -7.253197e+001 2.209415e+002 4.000000e+000
      vertex   -7.773923e+001 2.211194e+002 4.000000e+000
      vertex   -7.746803e+001 2.209415e+002 4.000000e+000
    endloop
  endfacet
  facet normal 0.000000e+000 0.000000e+000 4.901183e-001
    outer loop
      vertex   -7.253197e+001 2.209415e+002 4.000000e+000
      vertex   -7.746803e+001 2.209415e+002 4.000000e+000
      vertex   -7.281469e+001 2.207825e+002 4.000000e+000
    endloop
  endfacet
  facet normal 0.000000e+000 0.000000e+000 3.414183e-002
    outer loop
      vertex   -7.281469e+001 2.207825e+002 4.000000e+000
      vertex   -7.746803e+001 2.209415e+002 4.000000e+000
      vertex   -7.718531e+001 2.207825e+002 4.000000e+000
    endloop
  endfacet
  facet normal 0.000000e+000 0.000000e+000 4.294752e-001
    outer loop
      vertex   -7.281469e+001 2.207825e+002 4.000000e+000
      vertex   -7.718531e+001 2.207825e+002 4.000000e+000
      vertex   -7.310760e+001 2.206432e+002 4.000000e+000
    endloop
  endfacet
  facet normal 0.000000e+000 0.000000e+000 3.414077e-002
    outer loop
      vertex   -7.310760e+001 2.206432e+002 4.000000e+000
      vertex   -7.718531e+001 2.207825e+002 4.000000e+000
      vertex   -7.689240e+001 2.206432e+002 4.000000e+000
    endloop
  endfacet
  facet normal 0.000000e+000 0.000000e+000 3.668602e-001
    outer loop
      vertex   -7.310760e+001 2.206432e+002 4.000000e+000
      vertex   -7.689240e+001 2.206432e+002 4.000000e+000
      vertex   -7.340932e+001 2.205243e+002 4.000000e+000
    endloop
  endfacet
  facet normal 0.000000e+000 0.000000e+000 3.414183e-002
    outer loop
      vertex   -7.340932e+001 2.205243e+002 4.000000e+000
      vertex   -7.689240e+001 2.206432e+002 4.000000e+000
      vertex   -7.659068e+001 2.205243e+002 4.000000e+000
    endloop
  endfacet
  facet normal 0.000000e+000 0.000000e+000 3.025045e-001
    outer loop
      vertex   -7.340932e+001 2.205243e+002 4.000000e+000
      vertex   -7.659068e+001 2.205243e+002 4.000000e+000
      vertex   -7.371847e+001 2.204261e+002 4.000000e+000
    endloop
  endfacet
  facet normal 0.000000e+000 0.000000e+000 3.413988e-002
    outer loop
      vertex   -7.371847e+001 2.204261e+002 4.000000e+000
      vertex   -7.659068e+001 2.205243e+002 4.000000e+000
      vertex   -7.628153e+001 2.204261e+002 4.000000e+000
    endloop
  endfacet
  facet normal 0.000000e+000 0.000000e+000 2.367807e-001
    outer loop
      vertex   -7.371847e+001 2.204261e+002 4.000000e+000
      vertex   -7.628153e+001 2.204261e+002 4.000000e+000
      vertex   -7.403358e+001 2.203493e+002 4.000000e+000
    endloop
  endfacet
  facet normal 0.000000e+000 0.000000e+000 3.414346e-002
    outer loop
      vertex   -7.403358e+001 2.203493e+002 4.000000e+000
      vertex   -7.628153e+001 2.204261e+002 4.000000e+000
      vertex   -7.596642e+001 2.203493e+002 4.000000e+000
    endloop
  endfacet
  facet normal 0.000000e+000 0.000000e+000 1.699274e-001
    outer loop
      vertex   -7.403358e+001 2.203493e+002 4.000000e+000
      vertex   -7.596642e+001 2.203493e+002 4.000000e+000
      vertex   -7.435321e+001 2.202942e+002 4.000000e+000
    endloop
  endfacet
  facet normal 0.000000e+000 0.000000e+000 3.414483e-002
    outer loop
      vertex   -7.435321e+001 2.202942e+002 4.000000e+000
      vertex   -7.596642e+001 2.203493e+002 4.000000e+000
      vertex   -7.564679e+001 2.202942e+002 4.000000e+000
    endloop
  endfacet
  facet normal 0.000000e+000 0.000000e+000 1.022306e-001
    outer loop
      vertex   -7.435321e+001 2.202942e+002 4.000000e+000
      vertex   -7.564679e+001 2.202942e+002 4.000000e+000
      vertex   -7.467585e+001 2.202611e+002 4.000000e+000
    endloop
  endfacet
  facet normal 0.000000e+000 0.000000e+000 3.412986e-002
    outer loop
      vertex   -7.467585e+001 2.202611e+002 4.000000e+000
      vertex   -7.564679e+001 2.202942e+002 4.000000e+000
      vertex   -7.532415e+001 2.202611e+002 4.000000e+000
    endloop
  endfacet
  facet normal 0.000000e+000 0.000000e+000 3.415522e-002
    outer loop
      vertex   -7.467585e+001 2.202611e+002 4.000000e+000
      vertex   -7.532415e+001 2.202611e+002 4.000000e+000
      vertex   -7.500000e+001 2.202500e+002 4.000000e+000
    endloop
  endfacet
  facet normal 0.000000e+000 -0.000000e+000 -9.994174e-001
    outer loop
      vertex   -7.973893e+001 2.253242e+002 0.000000e+000
      vertex   -7.026107e+001 2.253242e+002 0.000000e+000
      vertex   -7.975000e+001 2.250000e+002 0.000000e+000
    endloop
  endfacet
  facet normal 0.000000e+000 0.000000e+000 -3.414176e-002
    outer loop
      vertex   -7.975000e+001 2.250000e+002 0.000000e+000
      vertex   -7.026107e+001 2.253242e+002 0.000000e+000
      vertex   -7.025000e+001 2.250000e+002 0.000000e+000
    endloop
  endfacet
  facet normal 0.000000e+000 0.000000e+000 -9.994174e-001
    outer loop
      vertex   -7.975000e+001 2.250000e+002 0.000000e+000
      vertex   -7.025000e+001 2.250000e+002 0.000000e+000
      vertex   -7.973893e+001 2.246758e+002 0.000000e+000
    endloop
  endfacet
  facet normal 0.000000e+000 0.000000e+000 -3.414176e-002
    outer loop
      vertex   -7.973893e+001 2.246758e+002 0.000000e+000
      vertex   -7.025000e+001 2.250000e+002 0.000000e+000
      vertex   -7.026107e+001 2.246758e+002 0.000000e+000
    endloop
  endfacet
  facet normal 0.000000e+000 0.000000e+000 -9.947557e-001
    outer loop
      vertex   -7.973893e+001 2.246758e+002 0.000000e+000
      vertex   -7.026107e+001 2.246758e+002 0.000000e+000
      vertex   -7.970576e+001 2.243532e+002 0.000000e+000
    endloop
  endfacet
  facet normal 0.000000e+000 0.000000e+000 -3.414023e-002
    outer loop
      vertex   -7.970576e+001 2.243532e+002 0.000000e+000
      vertex   -7.026107e+001 2.246758e+002 0.000000e+000
      vertex   -7.029424e+001 2.243532e+002 0.000000e+000
    endloop
  endfacet
  facet normal 0.000000e+000 0.000000e+000 -9.854605e-001
    outer loop
      vertex   -7.970576e+001 2.243532e+002 0.000000e+000
      vertex   -7.029424e+001 2.243532e+002 0.000000e+000
      vertex   -7.965065e+001 2.240336e+002 0.000000e+000
    endloop
  endfacet
  facet normal 0.000000e+000 0.000000e+000 -3.414126e-002
    outer loop
      vertex   -7.965065e+001 2.240336e+002 0.000000e+000
      vertex   -7.029424e+001 2.243532e+002 0.000000e+000
      vertex   -7.034935e+001 2.240336e+002 0.000000e+000
    endloop
  endfacet
  facet normal 0.000000e+000 0.000000e+000 -9.715698e-001
    outer loop
      vertex   -7.965065e+001 2.240336e+002 0.000000e+000
      vertex   -7.034935e+001 2.240336e+002 0.000000e+000
      vertex   -7.957386e+001 2.237185e+002 0.000000e+000
    endloop
  endfacet
  facet normal 0.000000e+000 0.000000e+000 -3.414174e-002
    outer loop
      vertex   -7.957386e+001 2.237185e+002 0.000000e+000
      vertex   -7.034935e+001 2.240336e+002 0.000000e+000
      vertex   -7.042614e+001 2.237185e+002 0.000000e+000
    endloop
  endfacet
  facet normal 0.000000e+000 0.000000e+000 -9.531412e-001
    outer loop
      vertex   -7.957386e+001 2.237185e+002 0.000000e+000
      vertex   -7.042614e+001 2.237185e+002 0.000000e+000
      vertex   -7.947574e+001 2.234093e+002 0.000000e+000
    endloop
  endfacet
  facet normal 0.000000e+000 0.000000e+000 -3.414106e-002
    outer loop
      vertex   -7.947574e+001 2.234093e+002 0.000000e+000
      vertex   -7.042614e+001 2.237185e+002 0.000000e+000
      vertex   -7.052426e+001 2.234093e+002 0.000000e+000
    endloop
  endfacet
  facet normal 0.000000e+000 0.000000e+000 -9.302761e-001
    outer loop
      vertex   -7.947574e+001 2.234093e+002 0.000000e+000
      vertex   -7.052426e+001 2.234093e+002 0.000000e+000
      vertex   -7.935675e+001 2.231076e+002 0.000000e+000
    endloop
  endfacet
  facet normal 0.000000e+000 0.000000e+000 -3.414116e-002
    outer loop
      vertex   -7.935675e+001 2.231076e+002 0.000000e+000
      vertex   -7.052426e+001 2.234093e+002 0.000000e+000
      vertex   -7.064325e+001 2.231076e+002 0.000000e+000
    endloop
  endfacet
  facet normal 0.000000e+000 0.000000e+000 -9.030700e-001
    outer loop
      vertex   -7.935675e+001 2.231076e+002 0.000000e+000
      vertex   -7.064325e+001 2.231076e+002 0.000000e+000
      vertex   -7.921745e+001 2.228147e+002 0.000000e+000
    endloop
  endfacet
  facet normal 0.000000e+000 0.000000e+000 -3.413982e-002
    outer loop
      vertex   -7.921745e+001 2.228147e+002 0.000000e+000
      vertex   -7.064325e+001 2.231076e+002 0.000000e+000
      vertex   -7.078255e+001 2.228147e+002 0.000000e+000
    endloop
  endfacet
  facet normal 0.000000e+000 0.000000e+000 -8.716660e-001
    outer loop
      vertex   -7.921745e+001 2.228147e+002 0.000000e+000
      vertex   -7.078255e+001 2.228147e+002 0.000000e+000
      vertex   -7.905849e+001 2.225320e+002 0.000000e+000
    endloop
  endfacet
  facet normal 0.000000e+000 0.000000e+000 -3.414111e-002
    outer loop
      vertex   -7.905849e+001 2.225320e+002 0.000000e+000
      vertex   -7.078255e+001 2.228147e+002 0.000000e+000
      vertex   -7.094151e+001 2.225320e+002 0.000000e+000
    endloop
  endfacet
  facet normal 0.000000e+000 0.000000e+000 -8.361814e-001
    outer loop
      vertex   -7.905849e+001 2.225320e+002 0.000000e+000
      vertex   -7.094151e+001 2.225320e+002 0.000000e+000
      vertex   -7.888061e+001 2.222608e+002 0.000000e+000
    endloop
  endfacet
  facet normal 0.000000e+000 0.000000e+000 -3.414134e-002
    outer loop
      vertex   -7.888061e+001 2.222608e+002 0.000000e+000
      vertex   -7.094151e+001 2.225320e+002 0.000000e+000
      vertex   -7.111939e+001 2.222608e+002 0.000000e+000
    endloop
  endfacet
  facet normal 0.000000e+000 0.000000e+000 -7.968104e-001
    outer loop
      vertex   -7.888061e+001 2.222608e+002 0.000000e+000
      vertex   -7.111939e+001 2.222608e+002 0.000000e+000
      vertex   -7.868463e+001 2.220023e+002 0.000000e+000
    endloop
  endfacet
  facet normal 0.000000e+000 0.000000e+000 -3.414135e-002
    outer loop
      vertex   -7.868463e+001 2.220023e+002 0.000000e+000
      vertex   -7.111939e+001 2.222608e+002 0.000000e+000
      vertex   -7.131537e+001 2.220023e+002 0.000000e+000
    endloop
  endfacet
  facet normal 0.000000e+000 0.000000e+000 -7.537150e-001
    outer loop
      vertex   -7.868463e+001 2.220023e+002 0.000000e+000
      vertex   -7.131537e+001 2.220023e+002 0.000000e+000
      vertex   -7.847147e+001 2.217579e+002 0.000000e+000
    endloop
  endfacet
  facet normal 0.000000e+000 0.000000e+000 -3.414127e-002
    outer loop
      vertex   -7.847147e+001 2.217579e+002 0.000000e+000
      vertex   -7.131537e+001 2.220023e+002 0.000000e+000
      vertex   -7.152853e+001 2.217579e+002 0.000000e+000
    endloop
  endfacet
  facet normal 0.000000e+000 0.000000e+000 -7.070950e-001
    outer loop
      vertex   -7.847147e+001 2.217579e+002 0.000000e+000
      vertex   -7.152853e+001 2.217579e+002 0.000000e+000
      vertex   -7.824213e+001 2.215285e+002 0.000000e+000
    endloop
  endfacet
  facet normal 0.000000e+000 0.000000e+000 -3.414053e-002
    outer loop
      vertex   -7.824213e+001 2.215285e+002 0.000000e+000
      vertex   -7.152853e+001 2.217579e+002 0.000000e+000
      vertex   -7.175787e+001 2.215285e+002 0.000000e+000
    endloop
  endfacet
  facet normal 0.000000e+000 0.000000e+000 -6.572147e-001
    outer loop
      vertex   -7.824213e+001 2.215285e+002 0.000000e+000
      vertex   -7.175787e+001 2.215285e+002 0.000000e+000
      vertex   -7.799767e+001 2.213154e+002 0.000000e+000
    endloop
  endfacet
  facet normal 0.000000e+000 0.000000e+000 -3.414233e-002
    outer loop
      vertex   -7.799767e+001 2.213154e+002 0.000000e+000
      vertex   -7.175787e+001 2.215285e+002 0.000000e+000
      vertex   -7.200233e+001 2.213154e+002 0.000000e+000
    endloop
  endfacet
  facet normal 0.000000e+000 0.000000e+000 -6.042258e-001
    outer loop
      vertex   -7.799767e+001 2.213154e+002 0.000000e+000
      vertex   -7.200233e+001 2.213154e+002 0.000000e+000
      vertex   -7.773923e+001 2.211194e+002 0.000000e+000
    endloop
  endfacet
  facet normal 0.000000e+000 0.000000e+000 -3.413941e-002
    outer loop
      vertex   -7.773923e+001 2.211194e+002 0.000000e+000
      vertex   -7.200233e+001 2.213154e+002 0.000000e+000
      vertex   -7.226077e+001 2.211194e+002 0.000000e+000
    endloop
  endfacet
  facet normal 0.000000e+000 0.000000e+000 -5.484530e-001
    outer loop
      vertex   -7.773923e+001 2.211194e+002 0.000000e+000
      vertex   -7.226077e+001 2.211194e+002 0.000000e+000
      vertex   -7.746803e+001 2.209415e+002 0.000000e+000
    endloop
  endfacet
  facet normal 0.000000e+000 0.000000e+000 -3.414142e-002
    outer loop
      vertex   -7.746803e+001 2.209415e+002 0.000000e+000
      vertex   -7.226077e+001 2.211194e+002 0.000000e+000
      vertex   -7.253197e+001 2.209415e+002 0.000000e+000
    endloop
  endfacet
  facet normal 0.000000e+000 0.000000e+000 -4.901183e-001
    outer loop
      vertex   -7.746803e+001 2.209415e+002 0.000000e+000
      vertex   -7.253197e+001 2.209415e+002 0.000000e+000
      vertex   -7.718531e+001 2.207825e+002 0.000000e+000
    endloop
  endfacet
  facet normal 0.000000e+000 0.000000e+000 -3.414183e-002
    outer loop
      vertex   -7.718531e+001 2.207825e+002 0.000000e+000
      vertex   -7.253197e+001 2.209415e+002 0.000000e+000
      vertex   -7.281469e+001 2.207825e+002 0.000000e+000
    endloop
  endfacet
  facet normal 0.000000e+000 0.000000e+000 -4.294752e-001
    outer loop
      vertex   -7.718531e+001 2.207825e+002 0.000000e+000
      vertex   -7.281469e+001 2.207825e+002 0.000000e+000
      vertex   -7.689240e+001 2.206432e+002 0.000000e+000
    endloop
  endfacet
  facet normal 0.000000e+000 0.000000e+000 -3.414077e-002
    outer loop
      vertex   -7.689240e+001 2.206432e+002 0.000000e+000
      vertex   -7.281469e+001 2.207825e+002 0.000000e+000
      vertex   -7.310760e+001 2.206432e+002 0.000000e+000
    endloop
  endfacet
  facet normal 0.000000e+000 0.000000e+000 -3.668602e-001
    outer loop
      vertex   -7.689240e+001 2.206432e+002 0.000000e+000
      vertex   -7.310760e+001 2.206432e+002 0.000000e+000
      vertex   -7.659068e+001 2.205243e+002 0.000000e+000
    endloop
  endfacet
  facet normal 0.000000e+000 0.000000e+000 -3.414183e-002
    outer loop
      vertex   -7.659068e+001 2.205243e+002 0.000000e+000
      vertex   -7.310760e+001 2.206432e+002 0.000000e+000
      vertex   -7.340932e+001 2.205243e+002 0.000000e+000
    endloop
  endfacet
  facet normal 0.000000e+000 0.000000e+000 -3.025045e-001
    outer loop
      vertex   -7.659068e+001 2.205243e+002 0.000000e+000
      vertex   -7.340932e+001 2.205243e+002 0.000000e+000
      vertex   -7.628153e+001 2.204261e+002 0.000000e+000
    endloop
  endfacet
  facet normal 0.000000e+000 0.000000e+000 -3.413988e-002
    outer loop
      vertex   -7.628153e+001 2.204261e+002 0.000000e+000
      vertex   -7.340932e+001 2.205243e+002 0.000000e+000
      vertex   -7.371847e+001 2.204261e+002 0.000000e+000
    endloop
  endfacet
  facet normal 0.000000e+000 0.000000e+000 -2.367807e-001
    outer loop
      vertex   -7.628153e+001 2.204261e+002 0.000000e+000
      vertex   -7.371847e+001 2.204261e+002 0.000000e+000
      vertex   -7.596642e+001 2.203493e+002 0.000000e+000
    endloop
  endfacet
  facet normal 0.000000e+000 0.000000e+000 -3.414346e-002
    outer loop
      vertex   -7.596642e+001 2.203493e+002 0.000000e+000
      vertex   -7.371847e+001 2.204261e+002 0.000000e+000
      vertex   -7.403358e+001 2.203493e+002 0.000000e+000
    endloop
  endfacet
  facet normal 0.000000e+000 0.000000e+000 -1.699274e-001
    outer loop
      vertex   -7.596642e+001 2.203493e+002 0.000000e+000
      vertex   -7.403358e+001 2.203493e+002 0.000000e+000
      vertex   -7.564679e+001 2.202942e+002 0.000000e+000
    endloop
  endfacet
  facet normal 0.000000e+000 0.000000e+000 -3.414483e-002
    outer loop
      vertex   -7.564679e+001 2.202942e+002 0.000000e+000
      vertex   -7.403358e+001 2.203493e+002 0.000000e+000
      vertex   -7.435321e+001 2.202942e+002 0.000000e+000
    endloop
  endfacet
  facet normal 0.000000e+000 0.000000e+000 -1.022306e-001
    outer loop
      vertex   -7.564679e+001 2.202942e+002 0.000000e+000
      vertex   -7.435321e+001 2.202942e+002 0.000000e+000
      vertex   -7.532415e+001 2.202611e+002 0.000000e+000
    endloop
  endfacet
  facet normal 0.000000e+000 0.000000e+000 -3.412986e-002
    outer loop
      vertex   -7.532415e+001 2.202611e+002 0.000000e+000
      vertex   -7.435321e+001 2.202942e+002 0.000000e+000
      vertex   -7.467585e+001 2.202611e+002 0.000000e+000
    endloop
  endfacet
  facet normal 0.000000e+000 0.000000e+000 -3.415522e-002
    outer loop
      vertex   -7.532415e+001 2.202611e+002 0.000000e+000
      vertex   -7.467585e+001 2.202611e+002 0.000000e+000
      vertex   -7.500000e+001 2.202500e+002 0.000000e+000
    endloop
  endfacet
  facet normal 0.000000e+000 0.000000e+000 -9.947557e-001
    outer loop
      vertex   -7.026107e+001 2.253242e+002 0.000000e+000
      vertex   -7.973893e+001 2.253242e+002 0.000000e+000
      vertex   -7.029424e+001 2.256468e+002 0.000000e+000
    endloop
  endfacet
  facet normal -0.000000e+000 0.000000e+000 -3.414023e-002
    outer loop
      vertex   -7.029424e+001 2.256468e+002 0.000000e+000
      vertex   -7.973893e+001 2.253242e+002 0.000000e+000
      vertex   -7.970576e+001 2.256468e+002 0.000000e+000
    endloop
  endfacet
  facet normal 0.000000e+000 0.000000e+000 -9.854605e-001
    outer loop
      vertex   -7.029424e+001 2.256468e+002 0.000000e+000
      vertex   -7.970576e+001 2.256468e+002 0.000000e+000
      vertex   -7.034935e+001 2.259664e+002 0.000000e+000
    endloop
  endfacet
  facet normal -0.000000e+000 0.000000e+000 -3.414126e-002
    outer loop
      vertex   -7.034935e+001 2.259664e+002 0.000000e+000
      vertex   -7.970576e+001 2.256468e+002 0.000000e+000
      vertex   -7.965065e+001 2.259664e+002 0.000000e+000
    endloop
  endfacet
  facet normal 0.000000e+000 0.000000e+000 -9.715698e-001
    outer loop
      vertex   -7.034935e+001 2.259664e+002 0.000000e+000
      vertex   -7.965065e+001 2.259664e+002 0.000000e+000
      vertex   -7.042614e+001 2.262815e+002 0.000000e+000
    endloop
  endfacet
  facet normal -0.000000e+000 0.000000e+000 -3.414174e-002
    outer loop
      vertex   -7.042614e+001 2.262815e+002 0.000000e+000
      vertex   -7.965065e+001 2.259664e+002 0.000000e+000
      vertex   -7.957386e+001 2.262815e+002 0.000000e+000
    endloop
  endfacet
  facet normal 0.000000e+000 0.000000e+000 -9.531412e-001
    outer loop
      vertex   -7.042614e+001 2.262815e+002 0.000000e+000
      vertex   -7.957386e+001 2.262815e+002 0.000000e+000
      vertex   -7.052426e+001 2.265907e+002 0.000000e+000
    endloop
  endfacet
  facet normal -0.000000e+000 0.000000e+000 -3.414106e-002
    outer loop
      vertex   -7.052426e+001 2.265907e+002 0.000000e+000
      vertex   -7.957386e+001 2.262815e+002 0.000000e+000
      vertex   -7.947574e+001 2.265907e+002 0.000000e+000
    endloop
  endfacet
  facet normal 0.000000e+000 0.000000e+000 -9.302761e-001
    outer loop
      vertex   -7.052426e+001 2.265907e+002 0.000000e+000
      vertex   -7.947574e+001 2.265907e+002 0.000000e+000
      vertex   -7.064325e+001 2.268924e+002 0.000000e+000
    endloop
  endfacet
  facet normal -0.000000e+000 0.000000e+000 -3.414116e-002
    outer loop
      vertex   -7.064325e+001 2.268924e+002 0.000000e+000
      vertex   -7.947574e+001 2.265907e+002 0.000000e+000
      vertex   -7.935675e+001 2.268924e+002 0.000000e+000
    endloop
  endfacet
  facet normal 0.000000e+000 0.000000e+000 -9.030700e-001
    outer loop
      vertex   -7.064325e+001 2.268924e+002 0.000000e+000
      vertex   -7.935675e+001 2.268924e+002 0.000000e+000
      vertex   -7.078255e+001 2.271853e+002 0.000000e+000
    endloop
  endfacet
  facet normal -0.000000e+000 0.000000e+000 -3.413982e-002
    outer loop
      vertex   -7.078255e+001 2.271853e+002 0.000000e+000
      vertex   -7.935675e+001 2.268924e+002 0.000000e+000
      vertex   -7.921745e+001 2.271853e+002 0.000000e+000
    endloop
  endfacet
  facet normal 0.000000e+000 0.000000e+000 -8.716660e-001
    outer loop
      vertex   -7.078255e+001 2.271853e+002 0.000000e+000
      vertex   -7.921745e+001 2.271853e+002 0.000000e+000
      vertex   -7.094151e+001 2.274680e+002 0.000000e+000
    endloop
  endfacet
  facet normal -0.000000e+000 0.000000e+000 -3.414111e-002
    outer loop
      vertex   -7.094151e+001 2.274680e+002 0.000000e+000
      vertex   -7.921745e+001 2.271853e+002 0.000000e+000
      vertex   -7.905849e+001 2.274680e+002 0.000000e+000
    endloop
  endfacet
  facet normal 0.000000e+000 0.000000e+000 -8.361814e-001
    outer loop
      vertex   -7.094151e+001 2.274680e+002 0.000000e+000
      vertex   -7.905849e+001 2.274680e+002 0.000000e+000
      vertex   -7.111939e+001 2.277392e+002 0.000000e+000
    endloop
  endfacet
  facet normal -0.000000e+000 0.000000e+000 -3.414134e-002
    outer loop
      vertex   -7.111939e+001 2.277392e+002 0.000000e+000
      vertex   -7.905849e+001 2.274680e+002 0.000000e+000
      vertex   -7.888061e+001 2.277392e+002 0.000000e+000
    endloop
  endfacet
  facet normal 0.000000e+000 0.000000e+000 -7.968104e-001
    outer loop
      vertex   -7.111939e+001 2.277392e+002 0.000000e+000
      vertex   -7.888061e+001 2.277392e+002 0.000000e+000
      vertex   -7.131537e+001 2.279977e+002 0.000000e+000
    endloop
  endfacet
  facet normal -0.000000e+000 0.000000e+000 -3.414135e-002
    outer loop
      vertex   -7.131537e+001 2.279977e+002 0.000000e+000
      vertex   -7.888061e+001 2.277392e+002 0.000000e+000
      vertex   -7.868463e+001 2.279977e+002 0.000000e+000
    endloop
  endfacet
  facet normal 0.000000e+000 0.000000e+000 -7.537150e-001
    outer loop
      vertex   -7.131537e+001 2.279977e+002 0.000000e+000
      vertex   -7.868463e+001 2.279977e+002 0.000000e+000
      vertex   -7.152853e+001 2.282421e+002 0.000000e+000
    endloop
  endfacet
  facet normal -0.000000e+000 0.000000e+000 -3.414127e-002
    outer loop
      vertex   -7.152853e+001 2.282421e+002 0.000000e+000
      vertex   -7.868463e+001 2.279977e+002 0.000000e+000
      vertex   -7.847147e+001 2.282421e+002 0.000000e+000
    endloop
  endfacet
  facet normal 0.000000e+000 0.000000e+000 -7.070950e-001
    outer loop
      vertex   -7.152853e+001 2.282421e+002 0.000000e+000
      vertex   -7.847147e+001 2.282421e+002 0.000000e+000
      vertex   -7.175787e+001 2.284715e+002 0.000000e+000
    endloop
  endfacet
  facet normal -0.000000e+000 0.000000e+000 -3.414053e-002
    outer loop
      vertex   -7.175787e+001 2.284715e+002 0.000000e+000
      vertex   -7.847147e+001 2.282421e+002 0.000000e+000
      vertex   -7.824213e+001 2.284715e+002 0.000000e+000
    endloop
  endfacet
  facet normal 0.000000e+000 0.000000e+000 -6.572147e-001
    outer loop
      vertex   -7.175787e+001 2.284715e+002 0.000000e+000
      vertex   -7.824213e+001 2.284715e+002 0.000000e+000
      vertex   -7.200233e+001 2.286846e+002 0.000000e+000
    endloop
  endfacet
  facet normal -0.000000e+000 0.000000e+000 -3.414233e-002
    outer loop
      vertex   -7.200233e+001 2.286846e+002 0.000000e+000
      vertex   -7.824213e+001 2.284715e+002 0.000000e+000
      vertex   -7.799767e+001 2.286846e+002 0.000000e+000
    endloop
  endfacet
  facet normal 0.000000e+000 0.000000e+000 -6.042258e-001
    outer loop
      vertex   -7.200233e+001 2.286846e+002 0.000000e+000
      vertex   -7.799767e+001 2.286846e+002 0.000000e+000
      vertex   -7.226077e+001 2.288806e+002 0.000000e+000
    endloop
  endfacet
  facet normal -0.000000e+000 0.000000e+000 -3.413941e-002
    outer loop
      vertex   -7.226077e+001 2.288806e+002 0.000000e+000
      vertex   -7.799767e+001 2.286846e+002 0.000000e+000
      vertex   -7.773923e+001 2.288806e+002 0.000000e+000
    endloop
  endfacet
  facet normal 0.000000e+000 0.000000e+000 -5.484530e-001
    outer loop
      vertex   -7.226077e+001 2.288806e+002 0.000000e+000
      vertex   -7.773923e+001 2.288806e+002 0.000000e+000
      vertex   -7.253197e+001 2.290585e+002 0.000000e+000
    endloop
  endfacet
  facet normal -0.000000e+000 0.000000e+000 -3.414142e-002
    outer loop
      vertex   -7.253197e+001 2.290585e+002 0.000000e+000
      vertex   -7.773923e+001 2.288806e+002 0.000000e+000
      vertex   -7.746803e+001 2.290585e+002 0.000000e+000
    endloop
  endfacet
  facet normal 0.000000e+000 0.000000e+000 -4.901183e-001
    outer loop
      vertex   -7.253197e+001 2.290585e+002 0.000000e+000
      vertex   -7.746803e+001 2.290585e+002 0.000000e+000
      vertex   -7.281469e+001 2.292175e+002 0.000000e+000
    endloop
  endfacet
  facet normal -0.000000e+000 0.000000e+000 -3.414183e-002
    outer loop
      vertex   -7.281469e+001 2.292175e+002 0.000000e+000
      vertex   -7.746803e+001 2.290585e+002 0.000000e+000
      vertex   -7.718531e+001 2.292175e+002 0.000000e+000
    endloop
  endfacet
  facet normal 0.000000e+000 0.000000e+000 -4.294752e-001
    outer loop
      vertex   -7.281469e+001 2.292175e+002 0.000000e+000
      vertex   -7.718531e+001 2.292175e+002 0.000000e+000
      vertex   -7.310760e+001 2.293568e+002 0.000000e+000
    endloop
  endfacet
  facet normal -0.000000e+000 0.000000e+000 -3.414077e-002
    outer loop
      vertex   -7.310760e+001 2.293568e+002 0.000000e+000
      vertex   -7.718531e+001 2.292175e+002 0.000000e+000
      vertex   -7.689240e+001 2.293568e+002 0.000000e+000
    endloop
  endfacet
  facet normal 0.000000e+000 0.000000e+000 -3.668602e-001
    outer loop
      vertex   -7.310760e+001 2.293568e+002 0.000000e+000
      vertex   -7.689240e+001 2.293568e+002 0.000000e+000
      vertex   -7.340932e+001 2.294757e+002 0.000000e+000
    endloop
  endfacet
  facet normal -0.000000e+000 0.000000e+000 -3.414183e-002
    outer loop
      vertex   -7.340932e+001 2.294757e+002 0.000000e+000
      vertex   -7.689240e+001 2.293568e+002 0.000000e+000
      vertex   -7.659068e+001 2.294757e+002 0.000000e+000
    endloop
  endfacet
  facet normal 0.000000e+000 0.000000e+000 -3.025045e-001
    outer loop
      vertex   -7.340932e+001 2.294757e+002 0.000000e+000
      vertex   -7.659068e+001 2.294757e+002 0.000000e+000
      vertex   -7.371847e+001 2.295739e+002 0.000000e+000
    endloop
  endfacet
  facet normal -0.000000e+000 0.000000e+000 -3.413988e-002
    outer loop
      vertex   -7.371847e+001 2.295739e+002 0.000000e+000
      vertex   -7.659068e+001 2.294757e+002 0.000000e+000
      vertex   -7.628153e+001 2.295739e+002 0.000000e+000
    endloop
  endfacet
  facet normal 0.000000e+000 0.000000e+000 -2.367807e-001
    outer loop
      vertex   -7.371847e+001 2.295739e+002 0.000000e+000
      vertex   -7.628153e+001 2.295739e+002 0.000000e+000
      vertex   -7.403358e+001 2.296507e+002 0.000000e+000
    endloop
  endfacet
  facet normal -0.000000e+000 0.000000e+000 -3.414346e-002
    outer loop
      vertex   -7.403358e+001 2.296507e+002 0.000000e+000
      vertex   -7.628153e+001 2.295739e+002 0.000000e+000
      vertex   -7.596642e+001 2.296507e+002 0.000000e+000
    endloop
  endfacet
  facet normal 0.000000e+000 0.000000e+000 -1.699274e-001
    outer loop
      vertex   -7.403358e+001 2.296507e+002 0.000000e+000
      vertex   -7.596642e+001 2.296507e+002 0.000000e+000
      vertex   -7.435321e+001 2.297058e+002 0.000000e+000
    endloop
  endfacet
  facet normal -0.000000e+000 0.000000e+000 -3.414483e-002
    outer loop
      vertex   -7.435321e+001 2.297058e+002 0.000000e+000
      vertex   -7.596642e+001 2.296507e+002 0.000000e+000
      vertex   -7.564679e+001 2.297058e+002 0.000000e+000
    endloop
  endfacet
  facet normal 0.000000e+000 0.000000e+000 -1.022306e-001
    outer loop
      vertex   -7.435321e+001 2.297058e+002 0.000000e+000
      vertex   -7.564679e+001 2.297058e+002 0.000000e+000
      vertex   -7.467585e+001 2.297389e+002 0.000000e+000
    endloop
  endfacet
  facet normal -0.000000e+000 0.000000e+000 -3.412986e-002
    outer loop
      vertex   -7.467585e+001 2.297389e+002 0.000000e+000
      vertex   -7.564679e+001 2.297058e+002 0.000000e+000
      vertex   -7.532415e+001 2.297389e+002 0.000000e+000
    endloop
  endfacet
  facet normal 0.000000e+000 0.000000e+000 -3.415522e-002
    outer loop
      vertex   -7.467585e+001 2.297389e+002 0.000000e+000
      vertex   -7.532415e+001 2.297389e+002 0.000000e+000
      vertex   -7.500000e+001 2.297500e+002 0.000000e+000
    endloop
  endfacet
endsolid
