solid ascii
  facet normal -0.000000e+000 1.000000e+000 0.000000e+000
    outer loop
      vertex   -1.330000e+002 1.028209e+002 0.000000e+000
      vertex   -1.250000e+002 1.028209e+002 0.000000e+000
      vertex   -1.330000e+002 1.028209e+002 -1.000000e+000
    endloop
  endfacet
  facet normal 0.000000e+000 1.240347e-001 0.000000e+000
    outer loop
      vertex   -1.330000e+002 1.028209e+002 -1.000000e+000
      vertex   -1.250000e+002 1.028209e+002 0.000000e+000
      vertex   -1.250000e+002 1.028209e+002 -1.000000e+000
    endloop
  endfacet
  facet normal 0.000000e+000 0.000000e+000 -1.000000e+000
    outer loop
      vertex   -1.250000e+002 1.000000e+002 -1.000000e+000
      vertex   -1.330000e+002 1.000000e+002 -1.000000e+000
      vertex   -1.250000e+002 1.028209e+002 -1.000000e+000
    endloop
  endfacet
  facet normal -0.000000e+000 0.000000e+000 -3.325437e-001
    outer loop
      vertex   -1.250000e+002 1.028209e+002 -1.000000e+000
      vertex   -1.330000e+002 1.000000e+002 -1.000000e+000
      vertex   -1.330000e+002 1.028209e+002 -1.000000e+000
    endloop
  endfacet
  facet normal 0.000000e+000 -1.000000e+000 -0.000000e+000
    outer loop
      vertex   -1.250000e+002 1.123352e+002 2.000487e-015
      vertex   -1.330000e+002 1.123352e+002 -4.898587e-016
      vertex   -1.250000e+002 1.123352e+002 -1.000000e+000
    endloop
  endfacet
  facet normal 0.000000e+000 -1.240347e-001 0.000000e+000
    outer loop
      vertex   -1.250000e+002 1.123352e+002 -1.000000e+000
      vertex   -1.330000e+002 1.123352e+002 -4.898587e-016
      vertex   -1.330000e+002 1.123352e+002 -1.000000e+000
    endloop
  endfacet
  facet normal 0.000000e+000 0.000000e+000 -1.000000e+000
    outer loop
      vertex   -1.250000e+002 1.123352e+002 -1.000000e+000
      vertex   -1.330000e+002 1.123352e+002 -1.000000e+000
      vertex   -1.250000e+002 1.150000e+002 -1.000000e+000
    endloop
  endfacet
  facet normal -0.000000e+000 0.000000e+000 -3.160264e-001
    outer loop
      vertex   -1.250000e+002 1.150000e+002 -1.000000e+000
      vertex   -1.330000e+002 1.123352e+002 -1.000000e+000
      vertex   -1.330000e+002 1.150000e+002 -1.000000e+000
    endloop
  endfacet
  facet normal 1.000000e+000 0.000000e+000 0.000000e+000
    outer loop
      vertex   -1.293865e+002 1.000000e+002 2.500000e+000
      vertex   -1.293865e+002 1.014716e+002 2.500000e+000
      vertex   -1.293865e+002 1.000000e+002 3.000000e+000
    endloop
  endfacet
  facet normal 3.217037e-001 -0.000000e+000 0.000000e+000
    outer loop
      vertex   -1.293865e+002 1.000000e+002 3.000000e+000
      vertex   -1.293865e+002 1.014716e+002 2.500000e+000
      vertex   -1.293865e+002 1.014716e+002 3.000000e+000
    endloop
  endfacet
  facet normal 1.000000e+000 0.000000e+000 0.000000e+000
    outer loop
      vertex   -1.293865e+002 1.069580e+002 3.000000e+000
      vertex   -1.293865e+002 1.028209e+002 3.000000e+000
      vertex   -1.293865e+002 1.069580e+002 2.500000e+000
    endloop
  endfacet
  facet normal 1.199845e-001 0.000000e+000 0.000000e+000
    outer loop
      vertex   -1.293865e+002 1.069580e+002 2.500000e+000
      vertex   -1.293865e+002 1.028209e+002 3.000000e+000
      vertex   -1.293865e+002 1.028209e+002 2.500000e+000
    endloop
  endfacet
  facet normal 1.000000e+000 0.000000e+000 0.000000e+000
    outer loop
      vertex   -1.293865e+002 1.123352e+002 3.000000e+000
      vertex   -1.293865e+002 1.083163e+002 3.000000e+000
      vertex   -1.293865e+002 1.123352e+002 2.500000e+000
    endloop
  endfacet
  facet normal 1.234599e-001 0.000000e+000 0.000000e+000
    outer loop
      vertex   -1.293865e+002 1.123352e+002 2.500000e+000
      vertex   -1.293865e+002 1.083163e+002 3.000000e+000
      vertex   -1.293865e+002 1.083163e+002 2.500000e+000
    endloop
  endfacet
  facet normal 1.000000e+000 0.000000e+000 0.000000e+000
    outer loop
      vertex   -1.293865e+002 1.137318e+002 2.500000e+000
      vertex   -1.293865e+002 1.150000e+002 2.500000e+000
      vertex   -1.293865e+002 1.137318e+002 3.000000e+000
    endloop
  endfacet
  facet normal 3.667833e-001 -0.000000e+000 0.000000e+000
    outer loop
      vertex   -1.293865e+002 1.137318e+002 3.000000e+000
      vertex   -1.293865e+002 1.150000e+002 2.500000e+000
      vertex   -1.293865e+002 1.150000e+002 3.000000e+000
    endloop
  endfacet
  facet normal -1.000000e+000 0.000000e+000 0.000000e+000
    outer loop
      vertex   -1.330000e+002 1.028209e+002 -1.000000e+000
      vertex   -1.330000e+002 1.000000e+002 -1.000000e+000
      vertex   -1.330000e+002 1.028209e+002 0.000000e+000
    endloop
  endfacet
  facet normal -9.155344e-001 -0.000000e+000 0.000000e+000
    outer loop
      vertex   -1.330000e+002 1.028209e+002 0.000000e+000
      vertex   -1.330000e+002 1.000000e+002 -1.000000e+000
      vertex   -1.330000e+002 1.000000e+002 3.000000e+000
    endloop
  endfacet
  facet normal -8.712158e-001 0.000000e+000 0.000000e+000
    outer loop
      vertex   -1.330000e+002 1.028209e+002 0.000000e+000
      vertex   -1.330000e+002 1.000000e+002 3.000000e+000
      vertex   -1.330000e+002 1.150000e+002 3.000000e+000
    endloop
  endfacet
  facet normal -2.391743e-001 0.000000e+000 0.000000e+000
    outer loop
      vertex   -1.330000e+002 1.028209e+002 0.000000e+000
      vertex   -1.330000e+002 1.150000e+002 3.000000e+000
      vertex   -1.330000e+002 1.123352e+002 -4.898587e-016
    endloop
  endfacet
  facet normal -9.333048e-001 0.000000e+000 0.000000e+000
    outer loop
      vertex   -1.330000e+002 1.123352e+002 -4.898587e-016
      vertex   -1.330000e+002 1.150000e+002 3.000000e+000
      vertex   -1.330000e+002 1.150000e+002 -1.000000e+000
    endloop
  endfacet
  facet normal -9.362474e-001 0.000000e+000 0.000000e+000
    outer loop
      vertex   -1.330000e+002 1.123352e+002 -4.898587e-016
      vertex   -1.330000e+002 1.150000e+002 -1.000000e+000
      vertex   -1.330000e+002 1.123352e+002 -1.000000e+000
    endloop
  endfacet
  facet normal 0.000000e+000 -0.000000e+000 1.000000e+000
    outer loop
      vertex   -1.293865e+002 1.000000e+002 3.000000e+000
      vertex   -1.293865e+002 1.014716e+002 3.000000e+000
      vertex   -1.330000e+002 1.000000e+002 3.000000e+000
    endloop
  endfacet
  facet normal 0.000000e+000 0.000000e+000 2.725971e-001
    outer loop
      vertex   -1.330000e+002 1.000000e+002 3.000000e+000
      vertex   -1.293865e+002 1.014716e+002 3.000000e+000
      vertex   -1.293865e+002 1.028209e+002 3.000000e+000
    endloop
  endfacet
  facet normal 0.000000e+000 0.000000e+000 4.159351e-001
    outer loop
      vertex   -1.330000e+002 1.000000e+002 3.000000e+000
      vertex   -1.293865e+002 1.028209e+002 3.000000e+000
      vertex   -1.293865e+002 1.069580e+002 3.000000e+000
    endloop
  endfacet
  facet normal 0.000000e+000 0.000000e+000 4.608832e-001
    outer loop
      vertex   -1.330000e+002 1.000000e+002 3.000000e+000
      vertex   -1.293865e+002 1.069580e+002 3.000000e+000
      vertex   -1.330000e+002 1.150000e+002 3.000000e+000
    endloop
  endfacet
  facet normal 0.000000e+000 0.000000e+000 7.327090e-002
    outer loop
      vertex   -1.330000e+002 1.150000e+002 3.000000e+000
      vertex   -1.293865e+002 1.069580e+002 3.000000e+000
      vertex   -1.293865e+002 1.083163e+002 3.000000e+000
    endloop
  endfacet
  facet normal 0.000000e+000 0.000000e+000 4.257067e-001
    outer loop
      vertex   -1.330000e+002 1.150000e+002 3.000000e+000
      vertex   -1.293865e+002 1.083163e+002 3.000000e+000
      vertex   -1.293865e+002 1.123352e+002 3.000000e+000
    endloop
  endfacet
  facet normal 0.000000e+000 -0.000000e+000 8.048201e-001
    outer loop
      vertex   -1.293865e+002 1.123352e+002 3.000000e+000
      vertex   -1.293865e+002 1.137318e+002 3.000000e+000
      vertex   -1.330000e+002 1.150000e+002 3.000000e+000
    endloop
  endfacet
  facet normal -0.000000e+000 0.000000e+000 3.311594e-001
    outer loop
      vertex   -1.330000e+002 1.150000e+002 3.000000e+000
      vertex   -1.293865e+002 1.137318e+002 3.000000e+000
      vertex   -1.293865e+002 1.150000e+002 3.000000e+000
    endloop
  endfacet
  facet normal -1.000000e+000 0.000000e+000 0.000000e+000
    outer loop
      vertex   -1.293865e+002 1.083163e+002 3.000000e+000
      vertex   -1.293865e+002 1.069580e+002 3.000000e+000
      vertex   -1.293865e+002 1.083163e+002 3.500000e+000
    endloop
  endfacet
  facet normal -3.454428e-001 -0.000000e+000 0.000000e+000
    outer loop
      vertex   -1.293865e+002 1.083163e+002 3.500000e+000
      vertex   -1.293865e+002 1.069580e+002 3.000000e+000
      vertex   -1.293865e+002 1.069580e+002 3.500000e+000
    endloop
  endfacet
  facet normal -1.000000e+000 0.000000e+000 0.000000e+000
    outer loop
      vertex   -1.293865e+002 1.028209e+002 3.000000e+000
      vertex   -1.293865e+002 1.014716e+002 3.000000e+000
      vertex   -1.293865e+002 1.028209e+002 3.500000e+000
    endloop
  endfacet
  facet normal -3.474753e-001 -0.000000e+000 0.000000e+000
    outer loop
      vertex   -1.293865e+002 1.028209e+002 3.500000e+000
      vertex   -1.293865e+002 1.014716e+002 3.000000e+000
      vertex   -1.293865e+002 1.014716e+002 3.500000e+000
    endloop
  endfacet
  facet normal -1.000000e+000 0.000000e+000 0.000000e+000
    outer loop
      vertex   -1.293865e+002 1.137318e+002 3.000000e+000
      vertex   -1.293865e+002 1.123352e+002 3.000000e+000
      vertex   -1.293865e+002 1.137318e+002 3.500000e+000
    endloop
  endfacet
  facet normal -3.370658e-001 -0.000000e+000 0.000000e+000
    outer loop
      vertex   -1.293865e+002 1.137318e+002 3.500000e+000
      vertex   -1.293865e+002 1.123352e+002 3.000000e+000
      vertex   -1.293865e+002 1.123352e+002 3.500000e+000
    endloop
  endfacet
  facet normal 0.000000e+000 -1.000000e+000 0.000000e+000
    outer loop
      vertex   -1.293865e+002 1.069580e+002 2.500000e+000
      vertex   -1.285710e+002 1.069580e+002 2.500000e+000
      vertex   -1.293865e+002 1.069580e+002 3.000000e+000
    endloop
  endfacet
  facet normal 0.000000e+000 -5.226941e-001 0.000000e+000
    outer loop
      vertex   -1.293865e+002 1.069580e+002 3.000000e+000
      vertex   -1.285710e+002 1.069580e+002 2.500000e+000
      vertex   -1.285710e+002 1.069580e+002 3.000000e+000
    endloop
  endfacet
  facet normal 0.000000e+000 -1.000000e+000 0.000000e+000
    outer loop
      vertex   -1.293865e+002 1.069580e+002 3.000000e+000
      vertex   -1.285710e+002 1.069580e+002 3.000000e+000
      vertex   -1.293865e+002 1.069580e+002 3.500000e+000
    endloop
  endfacet
  facet normal 0.000000e+000 -5.226941e-001 0.000000e+000
    outer loop
      vertex   -1.293865e+002 1.069580e+002 3.500000e+000
      vertex   -1.285710e+002 1.069580e+002 3.000000e+000
      vertex   -1.285710e+002 1.069580e+002 3.500000e+000
    endloop
  endfacet
  facet normal 1.000000e+000 0.000000e+000 0.000000e+000
    outer loop
      vertex   -1.285710e+002 1.069580e+002 3.000000e+000
      vertex   -1.285710e+002 1.083163e+002 3.000000e+000
      vertex   -1.285710e+002 1.069580e+002 3.500000e+000
    endloop
  endfacet
  facet normal 3.454428e-001 -0.000000e+000 0.000000e+000
    outer loop
      vertex   -1.285710e+002 1.069580e+002 3.500000e+000
      vertex   -1.285710e+002 1.083163e+002 3.000000e+000
      vertex   -1.285710e+002 1.083163e+002 3.500000e+000
    endloop
  endfacet
  facet normal 0.000000e+000 1.000000e+000 -0.000000e+000
    outer loop
      vertex   -1.285710e+002 1.083163e+002 2.500000e+000
      vertex   -1.293865e+002 1.083163e+002 2.500000e+000
      vertex   -1.285710e+002 1.083163e+002 3.000000e+000
    endloop
  endfacet
  facet normal 0.000000e+000 5.226941e-001 0.000000e+000
    outer loop
      vertex   -1.285710e+002 1.083163e+002 3.000000e+000
      vertex   -1.293865e+002 1.083163e+002 2.500000e+000
      vertex   -1.293865e+002 1.083163e+002 3.000000e+000
    endloop
  endfacet
  facet normal 0.000000e+000 1.000000e+000 -0.000000e+000
    outer loop
      vertex   -1.285710e+002 1.083163e+002 3.000000e+000
      vertex   -1.293865e+002 1.083163e+002 3.000000e+000
      vertex   -1.285710e+002 1.083163e+002 3.500000e+000
    endloop
  endfacet
  facet normal 0.000000e+000 5.226941e-001 0.000000e+000
    outer loop
      vertex   -1.285710e+002 1.083163e+002 3.500000e+000
      vertex   -1.293865e+002 1.083163e+002 3.000000e+000
      vertex   -1.293865e+002 1.083163e+002 3.500000e+000
    endloop
  endfacet
  facet normal 0.000000e+000 0.000000e+000 1.000000e+000
    outer loop
      vertex   -1.285710e+002 1.083163e+002 3.500000e+000
      vertex   -1.293865e+002 1.083163e+002 3.500000e+000
      vertex   -1.285710e+002 1.069580e+002 3.500000e+000
    endloop
  endfacet
  facet normal 0.000000e+000 0.000000e+000 8.573489e-001
    outer loop
      vertex   -1.285710e+002 1.069580e+002 3.500000e+000
      vertex   -1.293865e+002 1.083163e+002 3.500000e+000
      vertex   -1.293865e+002 1.069580e+002 3.500000e+000
    endloop
  endfacet
  facet normal 0.000000e+000 -1.000000e+000 0.000000e+000
    outer loop
      vertex   -1.293865e+002 1.123352e+002 2.500000e+000
      vertex   -1.285710e+002 1.123352e+002 2.500000e+000
      vertex   -1.293865e+002 1.123352e+002 3.000000e+000
    endloop
  endfacet
  facet normal 0.000000e+000 -5.226941e-001 0.000000e+000
    outer loop
      vertex   -1.293865e+002 1.123352e+002 3.000000e+000
      vertex   -1.285710e+002 1.123352e+002 2.500000e+000
      vertex   -1.285710e+002 1.123352e+002 3.000000e+000
    endloop
  endfacet
  facet normal 0.000000e+000 -1.000000e+000 0.000000e+000
    outer loop
      vertex   -1.293865e+002 1.123352e+002 3.000000e+000
      vertex   -1.285710e+002 1.123352e+002 3.000000e+000
      vertex   -1.293865e+002 1.123352e+002 3.500000e+000
    endloop
  endfacet
  facet normal 0.000000e+000 -5.226941e-001 0.000000e+000
    outer loop
      vertex   -1.293865e+002 1.123352e+002 3.500000e+000
      vertex   -1.285710e+002 1.123352e+002 3.000000e+000
      vertex   -1.285710e+002 1.123352e+002 3.500000e+000
    endloop
  endfacet
  facet normal 1.000000e+000 0.000000e+000 0.000000e+000
    outer loop
      vertex   -1.285710e+002 1.123352e+002 3.000000e+000
      vertex   -1.285710e+002 1.137318e+002 3.000000e+000
      vertex   -1.285710e+002 1.123352e+002 3.500000e+000
    endloop
  endfacet
  facet normal 3.370658e-001 -0.000000e+000 0.000000e+000
    outer loop
      vertex   -1.285710e+002 1.123352e+002 3.500000e+000
      vertex   -1.285710e+002 1.137318e+002 3.000000e+000
      vertex   -1.285710e+002 1.137318e+002 3.500000e+000
    endloop
  endfacet
  facet normal 0.000000e+000 1.000000e+000 -0.000000e+000
    outer loop
      vertex   -1.285710e+002 1.137318e+002 2.500000e+000
      vertex   -1.293865e+002 1.137318e+002 2.500000e+000
      vertex   -1.285710e+002 1.137318e+002 3.000000e+000
    endloop
  endfacet
  facet normal 0.000000e+000 5.226941e-001 0.000000e+000
    outer loop
      vertex   -1.285710e+002 1.137318e+002 3.000000e+000
      vertex   -1.293865e+002 1.137318e+002 2.500000e+000
      vertex   -1.293865e+002 1.137318e+002 3.000000e+000
    endloop
  endfacet
  facet normal 0.000000e+000 1.000000e+000 -0.000000e+000
    outer loop
      vertex   -1.285710e+002 1.137318e+002 3.000000e+000
      vertex   -1.293865e+002 1.137318e+002 3.000000e+000
      vertex   -1.285710e+002 1.137318e+002 3.500000e+000
    endloop
  endfacet
  facet normal 0.000000e+000 5.226941e-001 0.000000e+000
    outer loop
      vertex   -1.285710e+002 1.137318e+002 3.500000e+000
      vertex   -1.293865e+002 1.137318e+002 3.000000e+000
      vertex   -1.293865e+002 1.137318e+002 3.500000e+000
    endloop
  endfacet
  facet normal 0.000000e+000 0.000000e+000 1.000000e+000
    outer loop
      vertex   -1.285710e+002 1.137318e+002 3.500000e+000
      vertex   -1.293865e+002 1.137318e+002 3.500000e+000
      vertex   -1.285710e+002 1.123352e+002 3.500000e+000
    endloop
  endfacet
  facet normal 0.000000e+000 0.000000e+000 8.635548e-001
    outer loop
      vertex   -1.285710e+002 1.123352e+002 3.500000e+000
      vertex   -1.293865e+002 1.137318e+002 3.500000e+000
      vertex   -1.293865e+002 1.123352e+002 3.500000e+000
    endloop
  endfacet
  facet normal 0.000000e+000 -1.000000e+000 0.000000e+000
    outer loop
      vertex   -1.293865e+002 1.014716e+002 2.500000e+000
      vertex   -1.285710e+002 1.014716e+002 2.500000e+000
      vertex   -1.293865e+002 1.014716e+002 3.000000e+000
    endloop
  endfacet
  facet normal 0.000000e+000 -5.226941e-001 0.000000e+000
    outer loop
      vertex   -1.293865e+002 1.014716e+002 3.000000e+000
      vertex   -1.285710e+002 1.014716e+002 2.500000e+000
      vertex   -1.285710e+002 1.014716e+002 3.000000e+000
    endloop
  endfacet
  facet normal 0.000000e+000 -1.000000e+000 0.000000e+000
    outer loop
      vertex   -1.293865e+002 1.014716e+002 3.000000e+000
      vertex   -1.285710e+002 1.014716e+002 3.000000e+000
      vertex   -1.293865e+002 1.014716e+002 3.500000e+000
    endloop
  endfacet
  facet normal 0.000000e+000 -5.226941e-001 0.000000e+000
    outer loop
      vertex   -1.293865e+002 1.014716e+002 3.500000e+000
      vertex   -1.285710e+002 1.014716e+002 3.000000e+000
      vertex   -1.285710e+002 1.014716e+002 3.500000e+000
    endloop
  endfacet
  facet normal 1.000000e+000 0.000000e+000 0.000000e+000
    outer loop
      vertex   -1.285710e+002 1.014716e+002 3.000000e+000
      vertex   -1.285710e+002 1.028209e+002 3.000000e+000
      vertex   -1.285710e+002 1.014716e+002 3.500000e+000
    endloop
  endfacet
  facet normal 3.474753e-001 -0.000000e+000 0.000000e+000
    outer loop
      vertex   -1.285710e+002 1.014716e+002 3.500000e+000
      vertex   -1.285710e+002 1.028209e+002 3.000000e+000
      vertex   -1.285710e+002 1.028209e+002 3.500000e+000
    endloop
  endfacet
  facet normal 0.000000e+000 1.000000e+000 -0.000000e+000
    outer loop
      vertex   -1.285710e+002 1.028209e+002 2.500000e+000
      vertex   -1.293865e+002 1.028209e+002 2.500000e+000
      vertex   -1.285710e+002 1.028209e+002 3.000000e+000
    endloop
  endfacet
  facet normal 0.000000e+000 5.226941e-001 0.000000e+000
    outer loop
      vertex   -1.285710e+002 1.028209e+002 3.000000e+000
      vertex   -1.293865e+002 1.028209e+002 2.500000e+000
      vertex   -1.293865e+002 1.028209e+002 3.000000e+000
    endloop
  endfacet
  facet normal 0.000000e+000 1.000000e+000 -0.000000e+000
    outer loop
      vertex   -1.285710e+002 1.028209e+002 3.000000e+000
      vertex   -1.293865e+002 1.028209e+002 3.000000e+000
      vertex   -1.285710e+002 1.028209e+002 3.500000e+000
    endloop
  endfacet
  facet normal 0.000000e+000 5.226941e-001 0.000000e+000
    outer loop
      vertex   -1.285710e+002 1.028209e+002 3.500000e+000
      vertex   -1.293865e+002 1.028209e+002 3.000000e+000
      vertex   -1.293865e+002 1.028209e+002 3.500000e+000
    endloop
  endfacet
  facet normal 0.000000e+000 0.000000e+000 1.000000e+000
    outer loop
      vertex   -1.285710e+002 1.028209e+002 3.500000e+000
      vertex   -1.293865e+002 1.028209e+002 3.500000e+000
      vertex   -1.285710e+002 1.014716e+002 3.500000e+000
    endloop
  endfacet
  facet normal 0.000000e+000 0.000000e+000 8.558283e-001
    outer loop
      vertex   -1.285710e+002 1.014716e+002 3.500000e+000
      vertex   -1.293865e+002 1.028209e+002 3.500000e+000
      vertex   -1.293865e+002 1.014716e+002 3.500000e+000
    endloop
  endfacet
  facet normal -1.000000e+000 0.000000e+000 0.000000e+000
    outer loop
      vertex   -1.285710e+002 1.014716e+002 2.500000e+000
      vertex   -1.285710e+002 1.000000e+002 2.500000e+000
      vertex   -1.285710e+002 1.014716e+002 3.000000e+000
    endloop
  endfacet
  facet normal -3.217037e-001 -0.000000e+000 0.000000e+000
    outer loop
      vertex   -1.285710e+002 1.014716e+002 3.000000e+000
      vertex   -1.285710e+002 1.000000e+002 2.500000e+000
      vertex   -1.285710e+002 1.000000e+002 3.000000e+000
    endloop
  endfacet
  facet normal -1.000000e+000 0.000000e+000 0.000000e+000
    outer loop
      vertex   -1.285710e+002 1.137318e+002 3.000000e+000
      vertex   -1.285710e+002 1.150000e+002 3.000000e+000
      vertex   -1.285710e+002 1.137318e+002 2.500000e+000
    endloop
  endfacet
  facet normal -3.667833e-001 0.000000e+000 0.000000e+000
    outer loop
      vertex   -1.285710e+002 1.137318e+002 2.500000e+000
      vertex   -1.285710e+002 1.150000e+002 3.000000e+000
      vertex   -1.285710e+002 1.150000e+002 2.500000e+000
    endloop
  endfacet
  facet normal -1.000000e+000 0.000000e+000 0.000000e+000
    outer loop
      vertex   -1.285710e+002 1.083163e+002 3.000000e+000
      vertex   -1.285710e+002 1.123352e+002 3.000000e+000
      vertex   -1.285710e+002 1.083163e+002 2.500000e+000
    endloop
  endfacet
  facet normal -1.234599e-001 0.000000e+000 0.000000e+000
    outer loop
      vertex   -1.285710e+002 1.083163e+002 2.500000e+000
      vertex   -1.285710e+002 1.123352e+002 3.000000e+000
      vertex   -1.285710e+002 1.123352e+002 2.500000e+000
    endloop
  endfacet
  facet normal -1.000000e+000 0.000000e+000 0.000000e+000
    outer loop
      vertex   -1.285710e+002 1.069580e+002 2.500000e+000
      vertex   -1.285710e+002 1.028209e+002 2.500000e+000
      vertex   -1.285710e+002 1.069580e+002 3.000000e+000
    endloop
  endfacet
  facet normal -1.199845e-001 -0.000000e+000 0.000000e+000
    outer loop
      vertex   -1.285710e+002 1.069580e+002 3.000000e+000
      vertex   -1.285710e+002 1.028209e+002 2.500000e+000
      vertex   -1.285710e+002 1.028209e+002 3.000000e+000
    endloop
  endfacet
  facet normal 0.000000e+000 0.000000e+000 1.000000e+000
    outer loop
      vertex   -1.285710e+002 1.069580e+002 2.500000e+000
      vertex   -1.293865e+002 1.069580e+002 2.500000e+000
      vertex   -1.285710e+002 1.028209e+002 2.500000e+000
    endloop
  endfacet
  facet normal 0.000000e+000 0.000000e+000 9.811203e-001
    outer loop
      vertex   -1.285710e+002 1.028209e+002 2.500000e+000
      vertex   -1.293865e+002 1.069580e+002 2.500000e+000
      vertex   -1.293865e+002 1.028209e+002 2.500000e+000
    endloop
  endfacet
  facet normal 0.000000e+000 0.000000e+000 1.000000e+000
    outer loop
      vertex   -1.285710e+002 1.150000e+002 2.500000e+000
      vertex   -1.293865e+002 1.150000e+002 2.500000e+000
      vertex   -1.285710e+002 1.137318e+002 2.500000e+000
    endloop
  endfacet
  facet normal 0.000000e+000 0.000000e+000 8.411070e-001
    outer loop
      vertex   -1.285710e+002 1.137318e+002 2.500000e+000
      vertex   -1.293865e+002 1.150000e+002 2.500000e+000
      vertex   -1.293865e+002 1.137318e+002 2.500000e+000
    endloop
  endfacet
  facet normal 0.000000e+000 0.000000e+000 1.000000e+000
    outer loop
      vertex   -1.285710e+002 1.123352e+002 2.500000e+000
      vertex   -1.293865e+002 1.123352e+002 2.500000e+000
      vertex   -1.285710e+002 1.083163e+002 2.500000e+000
    endloop
  endfacet
  facet normal 0.000000e+000 0.000000e+000 9.800271e-001
    outer loop
      vertex   -1.285710e+002 1.083163e+002 2.500000e+000
      vertex   -1.293865e+002 1.123352e+002 2.500000e+000
      vertex   -1.293865e+002 1.083163e+002 2.500000e+000
    endloop
  endfacet
  facet normal 0.000000e+000 0.000000e+000 1.000000e+000
    outer loop
      vertex   -1.285710e+002 1.014716e+002 2.500000e+000
      vertex   -1.293865e+002 1.014716e+002 2.500000e+000
      vertex   -1.285710e+002 1.000000e+002 2.500000e+000
    endloop
  endfacet
  facet normal 0.000000e+000 0.000000e+000 8.746744e-001
    outer loop
      vertex   -1.285710e+002 1.000000e+002 2.500000e+000
      vertex   -1.293865e+002 1.014716e+002 2.500000e+000
      vertex   -1.293865e+002 1.000000e+002 2.500000e+000
    endloop
  endfacet
  facet normal 0.000000e+000 6.236931e-001 0.000000e+000
    outer loop
      vertex   -1.250000e+002 1.150000e+002 -1.000000e+000
      vertex   -1.330000e+002 1.150000e+002 -1.000000e+000
      vertex   -1.293865e+002 1.150000e+002 2.500000e+000
    endloop
  endfacet
  facet normal 0.000000e+000 7.876247e-001 0.000000e+000
    outer loop
      vertex   -1.293865e+002 1.150000e+002 2.500000e+000
      vertex   -1.330000e+002 1.150000e+002 -1.000000e+000
      vertex   -1.330000e+002 1.150000e+002 3.000000e+000
    endloop
  endfacet
  facet normal 0.000000e+000 9.905621e-001 -0.000000e+000
    outer loop
      vertex   -1.293865e+002 1.150000e+002 2.500000e+000
      vertex   -1.330000e+002 1.150000e+002 3.000000e+000
      vertex   -1.293865e+002 1.150000e+002 3.000000e+000
    endloop
  endfacet
  facet normal -0.000000e+000 6.236931e-001 0.000000e+000
    outer loop
      vertex   -1.293865e+002 1.150000e+002 2.500000e+000
      vertex   -1.285710e+002 1.150000e+002 2.500000e+000
      vertex   -1.250000e+002 1.150000e+002 -1.000000e+000
    endloop
  endfacet
  facet normal 0.000000e+000 7.141722e-001 -0.000000e+000
    outer loop
      vertex   -1.250000e+002 1.150000e+002 -1.000000e+000
      vertex   -1.285710e+002 1.150000e+002 2.500000e+000
      vertex   -1.250000e+002 1.150000e+002 3.000000e+000
    endloop
  endfacet
  facet normal 0.000000e+000 1.386636e-001 0.000000e+000
    outer loop
      vertex   -1.250000e+002 1.150000e+002 3.000000e+000
      vertex   -1.285710e+002 1.150000e+002 2.500000e+000
      vertex   -1.285710e+002 1.150000e+002 3.000000e+000
    endloop
  endfacet
  facet normal 1.000000e+000 0.000000e+000 0.000000e+000
    outer loop
      vertex   -1.250000e+002 1.123352e+002 -1.000000e+000
      vertex   -1.250000e+002 1.150000e+002 -1.000000e+000
      vertex   -1.250000e+002 1.123352e+002 2.000487e-015
    endloop
  endfacet
  facet normal 9.333048e-001 -0.000000e+000 0.000000e+000
    outer loop
      vertex   -1.250000e+002 1.123352e+002 2.000487e-015
      vertex   -1.250000e+002 1.150000e+002 -1.000000e+000
      vertex   -1.250000e+002 1.150000e+002 3.000000e+000
    endloop
  endfacet
  facet normal 7.476428e-001 0.000000e+000 -0.000000e+000
    outer loop
      vertex   -1.250000e+002 1.123352e+002 2.000487e-015
      vertex   -1.250000e+002 1.150000e+002 3.000000e+000
      vertex   -1.250000e+002 1.028209e+002 0.000000e+000
    endloop
  endfacet
  facet normal 8.712158e-001 0.000000e+000 -0.000000e+000
    outer loop
      vertex   -1.250000e+002 1.028209e+002 0.000000e+000
      vertex   -1.250000e+002 1.150000e+002 3.000000e+000
      vertex   -1.250000e+002 1.000000e+002 3.000000e+000
    endloop
  endfacet
  facet normal 9.155344e-001 0.000000e+000 0.000000e+000
    outer loop
      vertex   -1.250000e+002 1.028209e+002 0.000000e+000
      vertex   -1.250000e+002 1.000000e+002 3.000000e+000
      vertex   -1.250000e+002 1.000000e+002 -1.000000e+000
    endloop
  endfacet
  facet normal 3.341244e-001 0.000000e+000 0.000000e+000
    outer loop
      vertex   -1.250000e+002 1.000000e+002 -1.000000e+000
      vertex   -1.250000e+002 1.028209e+002 -1.000000e+000
      vertex   -1.250000e+002 1.028209e+002 0.000000e+000
    endloop
  endfacet
  facet normal 0.000000e+000 -9.903395e-001 -0.000000e+000
    outer loop
      vertex   -1.250000e+002 1.000000e+002 3.000000e+000
      vertex   -1.285710e+002 1.000000e+002 2.500000e+000
      vertex   -1.250000e+002 1.000000e+002 -1.000000e+000
    endloop
  endfacet
  facet normal 0.000000e+000 -1.017207e-001 0.000000e+000
    outer loop
      vertex   -1.250000e+002 1.000000e+002 -1.000000e+000
      vertex   -1.285710e+002 1.000000e+002 2.500000e+000
      vertex   -1.293865e+002 1.000000e+002 2.500000e+000
    endloop
  endfacet
  facet normal 0.000000e+000 -6.236931e-001 0.000000e+000
    outer loop
      vertex   -1.250000e+002 1.000000e+002 -1.000000e+000
      vertex   -1.293865e+002 1.000000e+002 2.500000e+000
      vertex   -1.330000e+002 1.000000e+002 -1.000000e+000
    endloop
  endfacet
  facet normal 0.000000e+000 -7.182957e-001 0.000000e+000
    outer loop
      vertex   -1.330000e+002 1.000000e+002 -1.000000e+000
      vertex   -1.293865e+002 1.000000e+002 2.500000e+000
      vertex   -1.330000e+002 1.000000e+002 3.000000e+000
    endloop
  endfacet
  facet normal 0.000000e+000 -1.370648e-001 0.000000e+000
    outer loop
      vertex   -1.330000e+002 1.000000e+002 3.000000e+000
      vertex   -1.293865e+002 1.000000e+002 2.500000e+000
      vertex   -1.293865e+002 1.000000e+002 3.000000e+000
    endloop
  endfacet
  facet normal -0.000000e+000 -1.386636e-001 0.000000e+000
    outer loop
      vertex   -1.250000e+002 1.000000e+002 3.000000e+000
      vertex   -1.285710e+002 1.000000e+002 3.000000e+000
      vertex   -1.285710e+002 1.000000e+002 2.500000e+000
    endloop
  endfacet
  facet normal -0.000000e+000 0.000000e+000 1.000000e+000
    outer loop
      vertex   -1.285710e+002 1.150000e+002 3.000000e+000
      vertex   -1.285710e+002 1.137318e+002 3.000000e+000
      vertex   -1.250000e+002 1.150000e+002 3.000000e+000
    endloop
  endfacet
  facet normal 0.000000e+000 0.000000e+000 2.953650e-001
    outer loop
      vertex   -1.250000e+002 1.150000e+002 3.000000e+000
      vertex   -1.285710e+002 1.137318e+002 3.000000e+000
      vertex   -1.285710e+002 1.123352e+002 3.000000e+000
    endloop
  endfacet
  facet normal 0.000000e+000 0.000000e+000 4.250487e-001
    outer loop
      vertex   -1.250000e+002 1.150000e+002 3.000000e+000
      vertex   -1.285710e+002 1.123352e+002 3.000000e+000
      vertex   -1.285710e+002 1.083163e+002 3.000000e+000
    endloop
  endfacet
  facet normal -0.000000e+000 0.000000e+000 4.712434e-001
    outer loop
      vertex   -1.285710e+002 1.083163e+002 3.000000e+000
      vertex   -1.285710e+002 1.069580e+002 3.000000e+000
      vertex   -1.250000e+002 1.150000e+002 3.000000e+000
    endloop
  endfacet
  facet normal 0.000000e+000 0.000000e+000 4.058337e-001
    outer loop
      vertex   -1.250000e+002 1.150000e+002 3.000000e+000
      vertex   -1.285710e+002 1.069580e+002 3.000000e+000
      vertex   -1.250000e+002 1.000000e+002 3.000000e+000
    endloop
  endfacet
  facet normal 0.000000e+000 0.000000e+000 4.150952e-001
    outer loop
      vertex   -1.250000e+002 1.000000e+002 3.000000e+000
      vertex   -1.285710e+002 1.069580e+002 3.000000e+000
      vertex   -1.285710e+002 1.028209e+002 3.000000e+000
    endloop
  endfacet
  facet normal 0.000000e+000 0.000000e+000 2.741316e-001
    outer loop
      vertex   -1.250000e+002 1.000000e+002 3.000000e+000
      vertex   -1.285710e+002 1.028209e+002 3.000000e+000
      vertex   -1.285710e+002 1.014716e+002 3.000000e+000
    endloop
  endfacet
  facet normal 0.000000e+000 0.000000e+000 9.245700e-001
    outer loop
      vertex   -1.285710e+002 1.014716e+002 3.000000e+000
      vertex   -1.285710e+002 1.000000e+002 3.000000e+000
      vertex   -1.250000e+002 1.000000e+002 3.000000e+000
    endloop
  endfacet
  facet normal 0.000000e+000 2.102605e-016 -1.000000e+000
    outer loop
      vertex   -1.250000e+002 1.028209e+002 0.000000e+000
      vertex   -1.330000e+002 1.028209e+002 0.000000e+000
      vertex   -1.250000e+002 1.123352e+002 2.000487e-015
    endloop
  endfacet
  facet normal 2.382605e-016 -3.940715e-017 -7.653892e-001
    outer loop
      vertex   -1.250000e+002 1.123352e+002 2.000487e-015
      vertex   -1.330000e+002 1.028209e+002 0.000000e+000
      vertex   -1.330000e+002 1.123352e+002 -4.898587e-016
    endloop
  endfacet
endsolid
