solid ascii
  facet normal -9.993771e-001 3.529142e-002 0.000000e+000
    outer loop
      vertex   -2.948879e+001 2.003174e+002 4.000000e+000
      vertex   -2.948879e+001 2.003174e+002 0.000000e+000
      vertex   -2.950000e+001 2.000000e+002 4.000000e+000
    endloop
  endfacet
  facet normal -7.910813e-002 2.793578e-003 0.000000e+000
    outer loop
      vertex   -2.950000e+001 2.000000e+002 4.000000e+000
      vertex   -2.948879e+001 2.003174e+002 0.000000e+000
      vertex   -2.950000e+001 2.000000e+002 0.000000e+000
    endloop
  endfacet
  facet normal -9.993771e-001 -3.529142e-002 -0.000000e+000
    outer loop
      vertex   -2.950000e+001 2.000000e+002 4.000000e+000
      vertex   -2.950000e+001 2.000000e+002 0.000000e+000
      vertex   -2.948879e+001 1.996826e+002 4.000000e+000
    endloop
  endfacet
  facet normal -7.910813e-002 -2.793578e-003 -0.000000e+000
    outer loop
      vertex   -2.948879e+001 1.996826e+002 4.000000e+000
      vertex   -2.950000e+001 2.000000e+002 0.000000e+000
      vertex   -2.948879e+001 1.996826e+002 0.000000e+000
    endloop
  endfacet
  facet normal -9.943979e-001 -1.057019e-001 -0.000000e+000
    outer loop
      vertex   -2.948879e+001 1.996826e+002 4.000000e+000
      vertex   -2.948879e+001 1.996826e+002 0.000000e+000
      vertex   -2.945522e+001 1.993667e+002 4.000000e+000
    endloop
  endfacet
  facet normal -7.871266e-002 -8.366952e-003 -0.000000e+000
    outer loop
      vertex   -2.945522e+001 1.993667e+002 4.000000e+000
      vertex   -2.948879e+001 1.996826e+002 0.000000e+000
      vertex   -2.945522e+001 1.993667e+002 0.000000e+000
    endloop
  endfacet
  facet normal -9.844652e-001 -1.755795e-001 -0.000000e+000
    outer loop
      vertex   -2.945522e+001 1.993667e+002 4.000000e+000
      vertex   -2.945522e+001 1.993667e+002 0.000000e+000
      vertex   -2.939945e+001 1.990540e+002 4.000000e+000
    endloop
  endfacet
  facet normal -7.792550e-002 -1.389802e-002 -0.000000e+000
    outer loop
      vertex   -2.939945e+001 1.990540e+002 4.000000e+000
      vertex   -2.945522e+001 1.993667e+002 0.000000e+000
      vertex   -2.939945e+001 1.990540e+002 0.000000e+000
    endloop
  endfacet
  facet normal -9.696289e-001 -2.445810e-001 -0.000000e+000
    outer loop
      vertex   -2.939945e+001 1.990540e+002 4.000000e+000
      vertex   -2.939945e+001 1.990540e+002 0.000000e+000
      vertex   -2.932176e+001 1.987461e+002 4.000000e+000
    endloop
  endfacet
  facet normal -7.675424e-002 -1.936063e-002 -0.000000e+000
    outer loop
      vertex   -2.932176e+001 1.987461e+002 4.000000e+000
      vertex   -2.939945e+001 1.990540e+002 0.000000e+000
      vertex   -2.932176e+001 1.987461e+002 0.000000e+000
    endloop
  endfacet
  facet normal -9.499594e-001 -3.123735e-001 -0.000000e+000
    outer loop
      vertex   -2.932176e+001 1.987461e+002 4.000000e+000
      vertex   -2.932176e+001 1.987461e+002 0.000000e+000
      vertex   -2.922255e+001 1.984443e+002 4.000000e+000
    endloop
  endfacet
  facet normal -7.519513e-002 -2.472629e-002 -0.000000e+000
    outer loop
      vertex   -2.922255e+001 1.984443e+002 4.000000e+000
      vertex   -2.932176e+001 1.987461e+002 0.000000e+000
      vertex   -2.922255e+001 1.984443e+002 0.000000e+000
    endloop
  endfacet
  facet normal -9.255583e-001 -3.786052e-001 -0.000000e+000
    outer loop
      vertex   -2.922255e+001 1.984443e+002 4.000000e+000
      vertex   -2.922255e+001 1.984443e+002 0.000000e+000
      vertex   -2.910229e+001 1.981504e+002 4.000000e+000
    endloop
  endfacet
  facet normal -7.326335e-002 -2.996882e-002 -0.000000e+000
    outer loop
      vertex   -2.910229e+001 1.981504e+002 4.000000e+000
      vertex   -2.922255e+001 1.984443e+002 0.000000e+000
      vertex   -2.910229e+001 1.981504e+002 0.000000e+000
    endloop
  endfacet
  facet normal -8.965429e-001 -4.429569e-001 -0.000000e+000
    outer loop
      vertex   -2.910229e+001 1.981504e+002 4.000000e+000
      vertex   -2.910229e+001 1.981504e+002 0.000000e+000
      vertex   -2.896160e+001 1.978656e+002 4.000000e+000
    endloop
  endfacet
  facet normal -7.096650e-002 -3.506258e-002 -0.000000e+000
    outer loop
      vertex   -2.896160e+001 1.978656e+002 4.000000e+000
      vertex   -2.910229e+001 1.981504e+002 0.000000e+000
      vertex   -2.896160e+001 1.978656e+002 0.000000e+000
    endloop
  endfacet
  facet normal -8.630759e-001 -5.050743e-001 -0.000000e+000
    outer loop
      vertex   -2.896160e+001 1.978656e+002 4.000000e+000
      vertex   -2.896160e+001 1.978656e+002 0.000000e+000
      vertex   -2.880118e+001 1.975915e+002 4.000000e+000
    endloop
  endfacet
  facet normal -6.831979e-002 -3.998092e-002 -0.000000e+000
    outer loop
      vertex   -2.880118e+001 1.975915e+002 4.000000e+000
      vertex   -2.896160e+001 1.978656e+002 0.000000e+000
      vertex   -2.880118e+001 1.975915e+002 0.000000e+000
    endloop
  endfacet
  facet normal -8.252916e-001 -5.647067e-001 -0.000000e+000
    outer loop
      vertex   -2.880118e+001 1.975915e+002 4.000000e+000
      vertex   -2.880118e+001 1.975915e+002 0.000000e+000
      vertex   -2.862181e+001 1.973293e+002 4.000000e+000
    endloop
  endfacet
  facet normal -6.532706e-002 -4.470011e-002 -0.000000e+000
    outer loop
      vertex   -2.862181e+001 1.973293e+002 4.000000e+000
      vertex   -2.880118e+001 1.975915e+002 0.000000e+000
      vertex   -2.862181e+001 1.973293e+002 0.000000e+000
    endloop
  endfacet
  facet normal -7.833986e-001 -6.215197e-001 -0.000000e+000
    outer loop
      vertex   -2.862181e+001 1.973293e+002 4.000000e+000
      vertex   -2.862181e+001 1.973293e+002 0.000000e+000
      vertex   -2.842440e+001 1.970805e+002 4.000000e+000
    endloop
  endfacet
  facet normal -6.201108e-002 -4.919731e-002 -0.000000e+000
    outer loop
      vertex   -2.842440e+001 1.970805e+002 4.000000e+000
      vertex   -2.862181e+001 1.973293e+002 0.000000e+000
      vertex   -2.842440e+001 1.970805e+002 0.000000e+000
    endloop
  endfacet
  facet normal -7.376117e-001 -6.752252e-001 -0.000000e+000
    outer loop
      vertex   -2.842440e+001 1.970805e+002 4.000000e+000
      vertex   -2.842440e+001 1.970805e+002 0.000000e+000
      vertex   -2.820994e+001 1.968462e+002 4.000000e+000
    endloop
  endfacet
  facet normal -5.838707e-002 -5.344876e-002 -0.000000e+000
    outer loop
      vertex   -2.820994e+001 1.968462e+002 4.000000e+000
      vertex   -2.842440e+001 1.970805e+002 0.000000e+000
      vertex   -2.820994e+001 1.968462e+002 0.000000e+000
    endloop
  endfacet
  facet normal -6.881379e-001 -7.255799e-001 -0.000000e+000
    outer loop
      vertex   -2.820994e+001 1.968462e+002 4.000000e+000
      vertex   -2.820994e+001 1.968462e+002 0.000000e+000
      vertex   -2.797948e+001 1.966277e+002 4.000000e+000
    endloop
  endfacet
  facet normal -5.447027e-002 -5.743402e-002 -0.000000e+000
    outer loop
      vertex   -2.797948e+001 1.966277e+002 4.000000e+000
      vertex   -2.820994e+001 1.968462e+002 0.000000e+000
      vertex   -2.797948e+001 1.966277e+002 0.000000e+000
    endloop
  endfacet
  facet normal -6.352416e-001 -7.723135e-001 -0.000000e+000
    outer loop
      vertex   -2.797948e+001 1.966277e+002 4.000000e+000
      vertex   -2.797948e+001 1.966277e+002 0.000000e+000
      vertex   -2.773417e+001 1.964259e+002 4.000000e+000
    endloop
  endfacet
  facet normal -5.028347e-002 -6.113360e-002 -0.000000e+000
    outer loop
      vertex   -2.773417e+001 1.964259e+002 4.000000e+000
      vertex   -2.797948e+001 1.966277e+002 0.000000e+000
      vertex   -2.773417e+001 1.964259e+002 0.000000e+000
    endloop
  endfacet
  facet normal -5.791805e-001 -8.151993e-001 -0.000000e+000
    outer loop
      vertex   -2.773417e+001 1.964259e+002 4.000000e+000
      vertex   -2.773417e+001 1.964259e+002 0.000000e+000
      vertex   -2.747525e+001 1.962419e+002 4.000000e+000
    endloop
  endfacet
  facet normal -4.584568e-002 -6.452801e-002 -0.000000e+000
    outer loop
      vertex   -2.747525e+001 1.962419e+002 4.000000e+000
      vertex   -2.773417e+001 1.964259e+002 0.000000e+000
      vertex   -2.747525e+001 1.962419e+002 0.000000e+000
    endloop
  endfacet
  facet normal -5.202673e-001 -8.540034e-001 -0.000000e+000
    outer loop
      vertex   -2.747525e+001 1.962419e+002 4.000000e+000
      vertex   -2.747525e+001 1.962419e+002 0.000000e+000
      vertex   -2.720399e+001 1.960767e+002 4.000000e+000
    endloop
  endfacet
  facet normal -4.118353e-002 -6.760155e-002 -0.000000e+000
    outer loop
      vertex   -2.720399e+001 1.960767e+002 4.000000e+000
      vertex   -2.747525e+001 1.962419e+002 0.000000e+000
      vertex   -2.720399e+001 1.960767e+002 0.000000e+000
    endloop
  endfacet
  facet normal -4.586943e-001 -8.885942e-001 -0.000000e+000
    outer loop
      vertex   -2.720399e+001 1.960767e+002 4.000000e+000
      vertex   -2.720399e+001 1.960767e+002 0.000000e+000
      vertex   -2.692175e+001 1.959310e+002 4.000000e+000
    endloop
  endfacet
  facet normal -3.630845e-002 -7.033763e-002 -0.000000e+000
    outer loop
      vertex   -2.692175e+001 1.959310e+002 4.000000e+000
      vertex   -2.720399e+001 1.960767e+002 0.000000e+000
      vertex   -2.692175e+001 1.959310e+002 0.000000e+000
    endloop
  endfacet
  facet normal -3.948504e-001 -9.187454e-001 -0.000000e+000
    outer loop
      vertex   -2.692175e+001 1.959310e+002 4.000000e+000
      vertex   -2.692175e+001 1.959310e+002 0.000000e+000
      vertex   -2.662994e+001 1.958056e+002 4.000000e+000
    endloop
  endfacet
  facet normal -3.125462e-002 -7.272384e-002 -0.000000e+000
    outer loop
      vertex   -2.662994e+001 1.958056e+002 4.000000e+000
      vertex   -2.692175e+001 1.959310e+002 0.000000e+000
      vertex   -2.662994e+001 1.958056e+002 0.000000e+000
    endloop
  endfacet
  facet normal -3.291205e-001 -9.442879e-001 -0.000000e+000
    outer loop
      vertex   -2.662994e+001 1.958056e+002 4.000000e+000
      vertex   -2.662994e+001 1.958056e+002 0.000000e+000
      vertex   -2.633001e+001 1.957010e+002 4.000000e+000
    endloop
  endfacet
  facet normal -2.605248e-002 -7.474783e-002 -0.000000e+000
    outer loop
      vertex   -2.633001e+001 1.957010e+002 4.000000e+000
      vertex   -2.662994e+001 1.958056e+002 0.000000e+000
      vertex   -2.633001e+001 1.957010e+002 0.000000e+000
    endloop
  endfacet
  facet normal -2.616313e-001 -9.651679e-001 -0.000000e+000
    outer loop
      vertex   -2.633001e+001 1.957010e+002 4.000000e+000
      vertex   -2.633001e+001 1.957010e+002 0.000000e+000
      vertex   -2.602345e+001 1.956179e+002 4.000000e+000
    endloop
  endfacet
  facet normal -2.070965e-002 -7.639870e-002 -0.000000e+000
    outer loop
      vertex   -2.602345e+001 1.956179e+002 4.000000e+000
      vertex   -2.633001e+001 1.957010e+002 0.000000e+000
      vertex   -2.602345e+001 1.956179e+002 0.000000e+000
    endloop
  endfacet
  facet normal -1.929301e-001 -9.812125e-001 -0.000000e+000
    outer loop
      vertex   -2.602345e+001 1.956179e+002 4.000000e+000
      vertex   -2.602345e+001 1.956179e+002 0.000000e+000
      vertex   -2.571180e+001 1.955567e+002 4.000000e+000
    endloop
  endfacet
  facet normal -1.527175e-002 -7.766975e-002 -0.000000e+000
    outer loop
      vertex   -2.571180e+001 1.955567e+002 4.000000e+000
      vertex   -2.602345e+001 1.956179e+002 0.000000e+000
      vertex   -2.571180e+001 1.955567e+002 0.000000e+000
    endloop
  endfacet
  facet normal -1.232247e-001 -9.923788e-001 -0.000000e+000
    outer loop
      vertex   -2.571180e+001 1.955567e+002 4.000000e+000
      vertex   -2.571180e+001 1.955567e+002 0.000000e+000
      vertex   -2.539660e+001 1.955175e+002 4.000000e+000
    endloop
  endfacet
  facet normal -9.753997e-003 -7.855295e-002 -0.000000e+000
    outer loop
      vertex   -2.539660e+001 1.955175e+002 4.000000e+000
      vertex   -2.571180e+001 1.955567e+002 0.000000e+000
      vertex   -2.539660e+001 1.955175e+002 0.000000e+000
    endloop
  endfacet
  facet normal -5.294051e-002 -9.985977e-001 -0.000000e+000
    outer loop
      vertex   -2.539660e+001 1.955175e+002 4.000000e+000
      vertex   -2.539660e+001 1.955175e+002 0.000000e+000
      vertex   -2.507942e+001 1.955007e+002 4.000000e+000
    endloop
  endfacet
  facet normal -4.190606e-003 -7.904587e-002 -0.000000e+000
    outer loop
      vertex   -2.507942e+001 1.955007e+002 4.000000e+000
      vertex   -2.539660e+001 1.955175e+002 0.000000e+000
      vertex   -2.507942e+001 1.955007e+002 0.000000e+000
    endloop
  endfacet
  facet normal 1.763089e-002 -9.998446e-001 0.000000e+000
    outer loop
      vertex   -2.507942e+001 1.955007e+002 4.000000e+000
      vertex   -2.507942e+001 1.955007e+002 0.000000e+000
      vertex   -2.476184e+001 1.955063e+002 4.000000e+000
    endloop
  endfacet
  facet normal 1.395601e-003 -7.914427e-002 0.000000e+000
    outer loop
      vertex   -2.476184e+001 1.955063e+002 4.000000e+000
      vertex   -2.507942e+001 1.955007e+002 0.000000e+000
      vertex   -2.476184e+001 1.955063e+002 0.000000e+000
    endloop
  endfacet
  facet normal 8.815423e-002 -9.961069e-001 0.000000e+000
    outer loop
      vertex   -2.476184e+001 1.955063e+002 4.000000e+000
      vertex   -2.476184e+001 1.955063e+002 0.000000e+000
      vertex   -2.444546e+001 1.955343e+002 4.000000e+000
    endloop
  endfacet
  facet normal 6.978005e-003 -7.884860e-002 0.000000e+000
    outer loop
      vertex   -2.444546e+001 1.955343e+002 4.000000e+000
      vertex   -2.476184e+001 1.955063e+002 0.000000e+000
      vertex   -2.444546e+001 1.955343e+002 0.000000e+000
    endloop
  endfacet
  facet normal 1.581498e-001 -9.874151e-001 0.000000e+000
    outer loop
      vertex   -2.444546e+001 1.955343e+002 4.000000e+000
      vertex   -2.444546e+001 1.955343e+002 0.000000e+000
      vertex   -2.413183e+001 1.955845e+002 4.000000e+000
    endloop
  endfacet
  facet normal 1.251858e-002 -7.816031e-002 0.000000e+000
    outer loop
      vertex   -2.413183e+001 1.955845e+002 4.000000e+000
      vertex   -2.444546e+001 1.955343e+002 0.000000e+000
      vertex   -2.413183e+001 1.955845e+002 0.000000e+000
    endloop
  endfacet
  facet normal 2.274699e-001 -9.737851e-001 0.000000e+000
    outer loop
      vertex   -2.413183e+001 1.955845e+002 4.000000e+000
      vertex   -2.413183e+001 1.955845e+002 0.000000e+000
      vertex   -2.382253e+001 1.956568e+002 4.000000e+000
    endloop
  endfacet
  facet normal 1.800591e-002 -7.708223e-002 0.000000e+000
    outer loop
      vertex   -2.382253e+001 1.956568e+002 4.000000e+000
      vertex   -2.413183e+001 1.955845e+002 0.000000e+000
      vertex   -2.382253e+001 1.956568e+002 0.000000e+000
    endloop
  endfacet
  facet normal 2.955472e-001 -9.553281e-001 0.000000e+000
    outer loop
      vertex   -2.382253e+001 1.956568e+002 4.000000e+000
      vertex   -2.382253e+001 1.956568e+002 0.000000e+000
      vertex   -2.351910e+001 1.957507e+002 4.000000e+000
    endloop
  endfacet
  facet normal 2.339438e-002 -7.562009e-002 0.000000e+000
    outer loop
      vertex   -2.351910e+001 1.957507e+002 4.000000e+000
      vertex   -2.382253e+001 1.956568e+002 0.000000e+000
      vertex   -2.351910e+001 1.957507e+002 0.000000e+000
    endloop
  endfacet
  facet normal 3.622243e-001 -9.320910e-001 0.000000e+000
    outer loop
      vertex   -2.351910e+001 1.957507e+002 4.000000e+000
      vertex   -2.351910e+001 1.957507e+002 0.000000e+000
      vertex   -2.322305e+001 1.958657e+002 4.000000e+000
    endloop
  endfacet
  facet normal 2.867256e-002 -7.378147e-002 0.000000e+000
    outer loop
      vertex   -2.322305e+001 1.958657e+002 4.000000e+000
      vertex   -2.351910e+001 1.957507e+002 0.000000e+000
      vertex   -2.322305e+001 1.958657e+002 0.000000e+000
    endloop
  endfacet
  facet normal 4.270367e-001 -9.042343e-001 0.000000e+000
    outer loop
      vertex   -2.322305e+001 1.958657e+002 4.000000e+000
      vertex   -2.322305e+001 1.958657e+002 0.000000e+000
      vertex   -2.293584e+001 1.960013e+002 4.000000e+000
    endloop
  endfacet
  facet normal 3.380245e-002 -7.157542e-002 0.000000e+000
    outer loop
      vertex   -2.293584e+001 1.960013e+002 4.000000e+000
      vertex   -2.322305e+001 1.958657e+002 0.000000e+000
      vertex   -2.293584e+001 1.960013e+002 0.000000e+000
    endloop
  endfacet
  facet normal 4.897725e-001 -8.718503e-001 0.000000e+000
    outer loop
      vertex   -2.293584e+001 1.960013e+002 4.000000e+000
      vertex   -2.293584e+001 1.960013e+002 0.000000e+000
      vertex   -2.265892e+001 1.961569e+002 4.000000e+000
    endloop
  endfacet
  facet normal 3.876881e-002 -6.901285e-002 0.000000e+000
    outer loop
      vertex   -2.265892e+001 1.961569e+002 4.000000e+000
      vertex   -2.293584e+001 1.960013e+002 0.000000e+000
      vertex   -2.265892e+001 1.961569e+002 0.000000e+000
    endloop
  endfacet
  facet normal 5.500631e-001 -8.351231e-001 0.000000e+000
    outer loop
      vertex   -2.265892e+001 1.961569e+002 4.000000e+000
      vertex   -2.265892e+001 1.961569e+002 0.000000e+000
      vertex   -2.239367e+001 1.963316e+002 4.000000e+000
    endloop
  endfacet
  facet normal 4.354123e-002 -6.610566e-002 0.000000e+000
    outer loop
      vertex   -2.239367e+001 1.963316e+002 4.000000e+000
      vertex   -2.265892e+001 1.961569e+002 0.000000e+000
      vertex   -2.239367e+001 1.963316e+002 0.000000e+000
    endloop
  endfacet
  facet normal 6.075778e-001 -7.942601e-001 0.000000e+000
    outer loop
      vertex   -2.239367e+001 1.963316e+002 4.000000e+000
      vertex   -2.239367e+001 1.963316e+002 0.000000e+000
      vertex   -2.214140e+001 1.965246e+002 4.000000e+000
    endloop
  endfacet
  facet normal 4.809310e-002 -6.287003e-002 0.000000e+000
    outer loop
      vertex   -2.214140e+001 1.965246e+002 4.000000e+000
      vertex   -2.239367e+001 1.963316e+002 0.000000e+000
      vertex   -2.214140e+001 1.965246e+002 0.000000e+000
    endloop
  endfacet
  facet normal 6.621246e-001 -7.493938e-001 0.000000e+000
    outer loop
      vertex   -2.214140e+001 1.965246e+002 4.000000e+000
      vertex   -2.214140e+001 1.965246e+002 0.000000e+000
      vertex   -2.190336e+001 1.967349e+002 4.000000e+000
    endloop
  endfacet
  facet normal 5.241298e-002 -5.932111e-002 0.000000e+000
    outer loop
      vertex   -2.190336e+001 1.967349e+002 4.000000e+000
      vertex   -2.214140e+001 1.965246e+002 0.000000e+000
      vertex   -2.190336e+001 1.967349e+002 0.000000e+000
    endloop
  endfacet
  facet normal 7.133126e-001 -7.008460e-001 0.000000e+000
    outer loop
      vertex   -2.190336e+001 1.967349e+002 4.000000e+000
      vertex   -2.190336e+001 1.967349e+002 0.000000e+000
      vertex   -2.168076e+001 1.969615e+002 4.000000e+000
    endloop
  endfacet
  facet normal 5.646290e-002 -5.547609e-002 0.000000e+000
    outer loop
      vertex   -2.168076e+001 1.969615e+002 4.000000e+000
      vertex   -2.190336e+001 1.967349e+002 0.000000e+000
      vertex   -2.168076e+001 1.969615e+002 0.000000e+000
    endloop
  endfacet
  facet normal 7.609724e-001 -6.487842e-001 0.000000e+000
    outer loop
      vertex   -2.168076e+001 1.969615e+002 4.000000e+000
      vertex   -2.168076e+001 1.969615e+002 0.000000e+000
      vertex   -2.147470e+001 1.972032e+002 4.000000e+000
    endloop
  endfacet
  facet normal 6.023521e-002 -5.135489e-002 0.000000e+000
    outer loop
      vertex   -2.147470e+001 1.972032e+002 4.000000e+000
      vertex   -2.168076e+001 1.969615e+002 0.000000e+000
      vertex   -2.147470e+001 1.972032e+002 0.000000e+000
    endloop
  endfacet
  facet normal 8.048562e-001 -5.934698e-001 0.000000e+000
    outer loop
      vertex   -2.147470e+001 1.972032e+002 4.000000e+000
      vertex   -2.147470e+001 1.972032e+002 0.000000e+000
      vertex   -2.128619e+001 1.974588e+002 4.000000e+000
    endloop
  endfacet
  facet normal 6.371089e-002 -4.697794e-002 0.000000e+000
    outer loop
      vertex   -2.128619e+001 1.974588e+002 4.000000e+000
      vertex   -2.147470e+001 1.972032e+002 0.000000e+000
      vertex   -2.128619e+001 1.974588e+002 0.000000e+000
    endloop
  endfacet
  facet normal 8.447029e-001 -5.352355e-001 0.000000e+000
    outer loop
      vertex   -2.128619e+001 1.974588e+002 4.000000e+000
      vertex   -2.128619e+001 1.974588e+002 0.000000e+000
      vertex   -2.111619e+001 1.977271e+002 4.000000e+000
    endloop
  endfacet
  facet normal 6.686336e-002 -4.236714e-002 0.000000e+000
    outer loop
      vertex   -2.111619e+001 1.977271e+002 4.000000e+000
      vertex   -2.128619e+001 1.974588e+002 0.000000e+000
      vertex   -2.111619e+001 1.977271e+002 0.000000e+000
    endloop
  endfacet
  facet normal 8.803544e-001 -4.743164e-001 0.000000e+000
    outer loop
      vertex   -2.111619e+001 1.977271e+002 4.000000e+000
      vertex   -2.111619e+001 1.977271e+002 0.000000e+000
      vertex   -2.096554e+001 1.980067e+002 4.000000e+000
    endloop
  endfacet
  facet normal 6.968499e-002 -3.754481e-002 0.000000e+000
    outer loop
      vertex   -2.096554e+001 1.980067e+002 4.000000e+000
      vertex   -2.111619e+001 1.977271e+002 0.000000e+000
      vertex   -2.096554e+001 1.980067e+002 0.000000e+000
    endloop
  endfacet
  facet normal 9.116192e-001 -4.110357e-001 0.000000e+000
    outer loop
      vertex   -2.096554e+001 1.980067e+002 4.000000e+000
      vertex   -2.096554e+001 1.980067e+002 0.000000e+000
      vertex   -2.083498e+001 1.982963e+002 4.000000e+000
    endloop
  endfacet
  facet normal 7.216056e-002 -3.253614e-002 0.000000e+000
    outer loop
      vertex   -2.083498e+001 1.982963e+002 4.000000e+000
      vertex   -2.096554e+001 1.980067e+002 0.000000e+000
      vertex   -2.083498e+001 1.982963e+002 0.000000e+000
    endloop
  endfacet
  facet normal 9.383488e-001 -3.456898e-001 0.000000e+000
    outer loop
      vertex   -2.083498e+001 1.982963e+002 4.000000e+000
      vertex   -2.083498e+001 1.982963e+002 0.000000e+000
      vertex   -2.072518e+001 1.985943e+002 4.000000e+000
    endloop
  endfacet
  facet normal 7.427866e-002 -2.736442e-002 0.000000e+000
    outer loop
      vertex   -2.072518e+001 1.985943e+002 4.000000e+000
      vertex   -2.083498e+001 1.982963e+002 0.000000e+000
      vertex   -2.072518e+001 1.985943e+002 0.000000e+000
    endloop
  endfacet
  facet normal 9.603907e-001 -2.786567e-001 0.000000e+000
    outer loop
      vertex   -2.072518e+001 1.985943e+002 4.000000e+000
      vertex   -2.072518e+001 1.985943e+002 0.000000e+000
      vertex   -2.063667e+001 1.988994e+002 4.000000e+000
    endloop
  endfacet
  facet normal 7.602033e-002 -2.205725e-002 0.000000e+000
    outer loop
      vertex   -2.063667e+001 1.988994e+002 4.000000e+000
      vertex   -2.072518e+001 1.985943e+002 0.000000e+000
      vertex   -2.063667e+001 1.988994e+002 0.000000e+000
    endloop
  endfacet
  facet normal 9.776563e-001 -2.102098e-001 0.000000e+000
    outer loop
      vertex   -2.063667e+001 1.988994e+002 4.000000e+000
      vertex   -2.063667e+001 1.988994e+002 0.000000e+000
      vertex   -2.056991e+001 1.992099e+002 4.000000e+000
    endloop
  endfacet
  facet normal 7.738930e-002 -1.663978e-002 0.000000e+000
    outer loop
      vertex   -2.056991e+001 1.992099e+002 4.000000e+000
      vertex   -2.063667e+001 1.988994e+002 0.000000e+000
      vertex   -2.056991e+001 1.992099e+002 0.000000e+000
    endloop
  endfacet
  facet normal 9.900476e-001 -1.407328e-001 0.000000e+000
    outer loop
      vertex   -2.056991e+001 1.992099e+002 4.000000e+000
      vertex   -2.056991e+001 1.992099e+002 0.000000e+000
      vertex   -2.052521e+001 1.995244e+002 4.000000e+000
    endloop
  endfacet
  facet normal 7.836662e-002 -1.113962e-002 0.000000e+000
    outer loop
      vertex   -2.052521e+001 1.995244e+002 4.000000e+000
      vertex   -2.056991e+001 1.992099e+002 0.000000e+000
      vertex   -2.052521e+001 1.995244e+002 0.000000e+000
    endloop
  endfacet
  facet normal 9.975093e-001 -7.053521e-002 0.000000e+000
    outer loop
      vertex   -2.052521e+001 1.995244e+002 4.000000e+000
      vertex   -2.052521e+001 1.995244e+002 0.000000e+000
      vertex   -2.050280e+001 1.998412e+002 4.000000e+000
    endloop
  endfacet
  facet normal 7.895983e-002 -5.583354e-003 0.000000e+000
    outer loop
      vertex   -2.050280e+001 1.998412e+002 4.000000e+000
      vertex   -2.052521e+001 1.995244e+002 0.000000e+000
      vertex   -2.050280e+001 1.998412e+002 0.000000e+000
    endloop
  endfacet
  facet normal 1.000000e+000 -0.000000e+000 0.000000e+000
    outer loop
      vertex   -2.050280e+001 1.998412e+002 4.000000e+000
      vertex   -2.050280e+001 1.998412e+002 0.000000e+000
      vertex   -2.050280e+001 2.001588e+002 4.000000e+000
    endloop
  endfacet
  facet normal 7.915757e-002 0.000000e+000 0.000000e+000
    outer loop
      vertex   -2.050280e+001 2.001588e+002 4.000000e+000
      vertex   -2.050280e+001 1.998412e+002 0.000000e+000
      vertex   -2.050280e+001 2.001588e+002 0.000000e+000
    endloop
  endfacet
  facet normal 9.975093e-001 7.053521e-002 0.000000e+000
    outer loop
      vertex   -2.050280e+001 2.001588e+002 4.000000e+000
      vertex   -2.050280e+001 2.001588e+002 0.000000e+000
      vertex   -2.052521e+001 2.004756e+002 4.000000e+000
    endloop
  endfacet
  facet normal 7.895983e-002 5.583354e-003 0.000000e+000
    outer loop
      vertex   -2.052521e+001 2.004756e+002 4.000000e+000
      vertex   -2.050280e+001 2.001588e+002 0.000000e+000
      vertex   -2.052521e+001 2.004756e+002 0.000000e+000
    endloop
  endfacet
  facet normal 9.900476e-001 1.407328e-001 0.000000e+000
    outer loop
      vertex   -2.052521e+001 2.004756e+002 4.000000e+000
      vertex   -2.052521e+001 2.004756e+002 0.000000e+000
      vertex   -2.056991e+001 2.007901e+002 4.000000e+000
    endloop
  endfacet
  facet normal 7.836662e-002 1.113962e-002 0.000000e+000
    outer loop
      vertex   -2.056991e+001 2.007901e+002 4.000000e+000
      vertex   -2.052521e+001 2.004756e+002 0.000000e+000
      vertex   -2.056991e+001 2.007901e+002 0.000000e+000
    endloop
  endfacet
  facet normal 9.776563e-001 2.102098e-001 0.000000e+000
    outer loop
      vertex   -2.056991e+001 2.007901e+002 4.000000e+000
      vertex   -2.056991e+001 2.007901e+002 0.000000e+000
      vertex   -2.063667e+001 2.011006e+002 4.000000e+000
    endloop
  endfacet
  facet normal 7.738930e-002 1.663978e-002 0.000000e+000
    outer loop
      vertex   -2.063667e+001 2.011006e+002 4.000000e+000
      vertex   -2.056991e+001 2.007901e+002 0.000000e+000
      vertex   -2.063667e+001 2.011006e+002 0.000000e+000
    endloop
  endfacet
  facet normal 9.603907e-001 2.786567e-001 0.000000e+000
    outer loop
      vertex   -2.063667e+001 2.011006e+002 4.000000e+000
      vertex   -2.063667e+001 2.011006e+002 0.000000e+000
      vertex   -2.072518e+001 2.014057e+002 4.000000e+000
    endloop
  endfacet
  facet normal 7.602033e-002 2.205725e-002 0.000000e+000
    outer loop
      vertex   -2.072518e+001 2.014057e+002 4.000000e+000
      vertex   -2.063667e+001 2.011006e+002 0.000000e+000
      vertex   -2.072518e+001 2.014057e+002 0.000000e+000
    endloop
  endfacet
  facet normal 9.383488e-001 3.456898e-001 0.000000e+000
    outer loop
      vertex   -2.072518e+001 2.014057e+002 4.000000e+000
      vertex   -2.072518e+001 2.014057e+002 0.000000e+000
      vertex   -2.083498e+001 2.017037e+002 4.000000e+000
    endloop
  endfacet
  facet normal 7.427866e-002 2.736442e-002 0.000000e+000
    outer loop
      vertex   -2.083498e+001 2.017037e+002 4.000000e+000
      vertex   -2.072518e+001 2.014057e+002 0.000000e+000
      vertex   -2.083498e+001 2.017037e+002 0.000000e+000
    endloop
  endfacet
  facet normal 9.116192e-001 4.110357e-001 0.000000e+000
    outer loop
      vertex   -2.083498e+001 2.017037e+002 4.000000e+000
      vertex   -2.083498e+001 2.017037e+002 0.000000e+000
      vertex   -2.096554e+001 2.019933e+002 4.000000e+000
    endloop
  endfacet
  facet normal 7.216056e-002 3.253614e-002 0.000000e+000
    outer loop
      vertex   -2.096554e+001 2.019933e+002 4.000000e+000
      vertex   -2.083498e+001 2.017037e+002 0.000000e+000
      vertex   -2.096554e+001 2.019933e+002 0.000000e+000
    endloop
  endfacet
  facet normal 8.803544e-001 4.743164e-001 0.000000e+000
    outer loop
      vertex   -2.096554e+001 2.019933e+002 4.000000e+000
      vertex   -2.096554e+001 2.019933e+002 0.000000e+000
      vertex   -2.111619e+001 2.022729e+002 4.000000e+000
    endloop
  endfacet
  facet normal 6.968499e-002 3.754481e-002 0.000000e+000
    outer loop
      vertex   -2.111619e+001 2.022729e+002 4.000000e+000
      vertex   -2.096554e+001 2.019933e+002 0.000000e+000
      vertex   -2.111619e+001 2.022729e+002 0.000000e+000
    endloop
  endfacet
  facet normal 8.447029e-001 5.352355e-001 0.000000e+000
    outer loop
      vertex   -2.111619e+001 2.022729e+002 4.000000e+000
      vertex   -2.111619e+001 2.022729e+002 0.000000e+000
      vertex   -2.128619e+001 2.025412e+002 4.000000e+000
    endloop
  endfacet
  facet normal 6.686336e-002 4.236714e-002 0.000000e+000
    outer loop
      vertex   -2.128619e+001 2.025412e+002 4.000000e+000
      vertex   -2.111619e+001 2.022729e+002 0.000000e+000
      vertex   -2.128619e+001 2.025412e+002 0.000000e+000
    endloop
  endfacet
  facet normal 8.048562e-001 5.934698e-001 0.000000e+000
    outer loop
      vertex   -2.128619e+001 2.025412e+002 4.000000e+000
      vertex   -2.128619e+001 2.025412e+002 0.000000e+000
      vertex   -2.147470e+001 2.027968e+002 4.000000e+000
    endloop
  endfacet
  facet normal 6.371089e-002 4.697794e-002 0.000000e+000
    outer loop
      vertex   -2.147470e+001 2.027968e+002 4.000000e+000
      vertex   -2.128619e+001 2.025412e+002 0.000000e+000
      vertex   -2.147470e+001 2.027968e+002 0.000000e+000
    endloop
  endfacet
  facet normal 7.609724e-001 6.487842e-001 0.000000e+000
    outer loop
      vertex   -2.147470e+001 2.027968e+002 4.000000e+000
      vertex   -2.147470e+001 2.027968e+002 0.000000e+000
      vertex   -2.168076e+001 2.030385e+002 4.000000e+000
    endloop
  endfacet
  facet normal 6.023521e-002 5.135489e-002 0.000000e+000
    outer loop
      vertex   -2.168076e+001 2.030385e+002 4.000000e+000
      vertex   -2.147470e+001 2.027968e+002 0.000000e+000
      vertex   -2.168076e+001 2.030385e+002 0.000000e+000
    endloop
  endfacet
  facet normal 7.133126e-001 7.008460e-001 0.000000e+000
    outer loop
      vertex   -2.168076e+001 2.030385e+002 4.000000e+000
      vertex   -2.168076e+001 2.030385e+002 0.000000e+000
      vertex   -2.190336e+001 2.032651e+002 4.000000e+000
    endloop
  endfacet
  facet normal 5.646290e-002 5.547609e-002 0.000000e+000
    outer loop
      vertex   -2.190336e+001 2.032651e+002 4.000000e+000
      vertex   -2.168076e+001 2.030385e+002 0.000000e+000
      vertex   -2.190336e+001 2.032651e+002 0.000000e+000
    endloop
  endfacet
  facet normal 6.621246e-001 7.493938e-001 0.000000e+000
    outer loop
      vertex   -2.190336e+001 2.032651e+002 4.000000e+000
      vertex   -2.190336e+001 2.032651e+002 0.000000e+000
      vertex   -2.214140e+001 2.034754e+002 4.000000e+000
    endloop
  endfacet
  facet normal 5.241298e-002 5.932111e-002 0.000000e+000
    outer loop
      vertex   -2.214140e+001 2.034754e+002 4.000000e+000
      vertex   -2.190336e+001 2.032651e+002 0.000000e+000
      vertex   -2.214140e+001 2.034754e+002 0.000000e+000
    endloop
  endfacet
  facet normal 6.075778e-001 7.942601e-001 0.000000e+000
    outer loop
      vertex   -2.214140e+001 2.034754e+002 4.000000e+000
      vertex   -2.214140e+001 2.034754e+002 0.000000e+000
      vertex   -2.239367e+001 2.036684e+002 4.000000e+000
    endloop
  endfacet
  facet normal 4.809310e-002 6.287003e-002 0.000000e+000
    outer loop
      vertex   -2.239367e+001 2.036684e+002 4.000000e+000
      vertex   -2.214140e+001 2.034754e+002 0.000000e+000
      vertex   -2.239367e+001 2.036684e+002 0.000000e+000
    endloop
  endfacet
  facet normal 5.500631e-001 8.351231e-001 0.000000e+000
    outer loop
      vertex   -2.239367e+001 2.036684e+002 4.000000e+000
      vertex   -2.239367e+001 2.036684e+002 0.000000e+000
      vertex   -2.265892e+001 2.038431e+002 4.000000e+000
    endloop
  endfacet
  facet normal 4.354123e-002 6.610566e-002 0.000000e+000
    outer loop
      vertex   -2.265892e+001 2.038431e+002 4.000000e+000
      vertex   -2.239367e+001 2.036684e+002 0.000000e+000
      vertex   -2.265892e+001 2.038431e+002 0.000000e+000
    endloop
  endfacet
  facet normal 4.897725e-001 8.718503e-001 0.000000e+000
    outer loop
      vertex   -2.265892e+001 2.038431e+002 4.000000e+000
      vertex   -2.265892e+001 2.038431e+002 0.000000e+000
      vertex   -2.293584e+001 2.039987e+002 4.000000e+000
    endloop
  endfacet
  facet normal 3.876881e-002 6.901285e-002 0.000000e+000
    outer loop
      vertex   -2.293584e+001 2.039987e+002 4.000000e+000
      vertex   -2.265892e+001 2.038431e+002 0.000000e+000
      vertex   -2.293584e+001 2.039987e+002 0.000000e+000
    endloop
  endfacet
  facet normal 4.270367e-001 9.042343e-001 0.000000e+000
    outer loop
      vertex   -2.293584e+001 2.039987e+002 4.000000e+000
      vertex   -2.293584e+001 2.039987e+002 0.000000e+000
      vertex   -2.322305e+001 2.041343e+002 4.000000e+000
    endloop
  endfacet
  facet normal 3.380245e-002 7.157542e-002 0.000000e+000
    outer loop
      vertex   -2.322305e+001 2.041343e+002 4.000000e+000
      vertex   -2.293584e+001 2.039987e+002 0.000000e+000
      vertex   -2.322305e+001 2.041343e+002 0.000000e+000
    endloop
  endfacet
  facet normal 3.622243e-001 9.320910e-001 0.000000e+000
    outer loop
      vertex   -2.322305e+001 2.041343e+002 4.000000e+000
      vertex   -2.322305e+001 2.041343e+002 0.000000e+000
      vertex   -2.351910e+001 2.042493e+002 4.000000e+000
    endloop
  endfacet
  facet normal 2.867256e-002 7.378147e-002 0.000000e+000
    outer loop
      vertex   -2.351910e+001 2.042493e+002 4.000000e+000
      vertex   -2.322305e+001 2.041343e+002 0.000000e+000
      vertex   -2.351910e+001 2.042493e+002 0.000000e+000
    endloop
  endfacet
  facet normal 2.955472e-001 9.553281e-001 0.000000e+000
    outer loop
      vertex   -2.351910e+001 2.042493e+002 4.000000e+000
      vertex   -2.351910e+001 2.042493e+002 0.000000e+000
      vertex   -2.382253e+001 2.043432e+002 4.000000e+000
    endloop
  endfacet
  facet normal 2.339438e-002 7.562009e-002 0.000000e+000
    outer loop
      vertex   -2.382253e+001 2.043432e+002 4.000000e+000
      vertex   -2.351910e+001 2.042493e+002 0.000000e+000
      vertex   -2.382253e+001 2.043432e+002 0.000000e+000
    endloop
  endfacet
  facet normal 2.274699e-001 9.737851e-001 0.000000e+000
    outer loop
      vertex   -2.382253e+001 2.043432e+002 4.000000e+000
      vertex   -2.382253e+001 2.043432e+002 0.000000e+000
      vertex   -2.413183e+001 2.044155e+002 4.000000e+000
    endloop
  endfacet
  facet normal 1.800591e-002 7.708223e-002 0.000000e+000
    outer loop
      vertex   -2.413183e+001 2.044155e+002 4.000000e+000
      vertex   -2.382253e+001 2.043432e+002 0.000000e+000
      vertex   -2.413183e+001 2.044155e+002 0.000000e+000
    endloop
  endfacet
  facet normal 1.581498e-001 9.874151e-001 0.000000e+000
    outer loop
      vertex   -2.413183e+001 2.044155e+002 4.000000e+000
      vertex   -2.413183e+001 2.044155e+002 0.000000e+000
      vertex   -2.444546e+001 2.044657e+002 4.000000e+000
    endloop
  endfacet
  facet normal 1.251858e-002 7.816031e-002 0.000000e+000
    outer loop
      vertex   -2.444546e+001 2.044657e+002 4.000000e+000
      vertex   -2.413183e+001 2.044155e+002 0.000000e+000
      vertex   -2.444546e+001 2.044657e+002 0.000000e+000
    endloop
  endfacet
  facet normal 8.815423e-002 9.961069e-001 0.000000e+000
    outer loop
      vertex   -2.444546e+001 2.044657e+002 4.000000e+000
      vertex   -2.444546e+001 2.044657e+002 0.000000e+000
      vertex   -2.476184e+001 2.044937e+002 4.000000e+000
    endloop
  endfacet
  facet normal 6.978005e-003 7.884860e-002 0.000000e+000
    outer loop
      vertex   -2.476184e+001 2.044937e+002 4.000000e+000
      vertex   -2.444546e+001 2.044657e+002 0.000000e+000
      vertex   -2.476184e+001 2.044937e+002 0.000000e+000
    endloop
  endfacet
  facet normal 1.763089e-002 9.998446e-001 0.000000e+000
    outer loop
      vertex   -2.476184e+001 2.044937e+002 4.000000e+000
      vertex   -2.476184e+001 2.044937e+002 0.000000e+000
      vertex   -2.507942e+001 2.044993e+002 4.000000e+000
    endloop
  endfacet
  facet normal 1.395601e-003 7.914427e-002 0.000000e+000
    outer loop
      vertex   -2.507942e+001 2.044993e+002 4.000000e+000
      vertex   -2.476184e+001 2.044937e+002 0.000000e+000
      vertex   -2.507942e+001 2.044993e+002 0.000000e+000
    endloop
  endfacet
  facet normal -5.294051e-002 9.985977e-001 0.000000e+000
    outer loop
      vertex   -2.507942e+001 2.044993e+002 4.000000e+000
      vertex   -2.507942e+001 2.044993e+002 0.000000e+000
      vertex   -2.539660e+001 2.044825e+002 4.000000e+000
    endloop
  endfacet
  facet normal -4.190606e-003 7.904587e-002 0.000000e+000
    outer loop
      vertex   -2.539660e+001 2.044825e+002 4.000000e+000
      vertex   -2.507942e+001 2.044993e+002 0.000000e+000
      vertex   -2.539660e+001 2.044825e+002 0.000000e+000
    endloop
  endfacet
  facet normal -1.232247e-001 9.923788e-001 0.000000e+000
    outer loop
      vertex   -2.539660e+001 2.044825e+002 4.000000e+000
      vertex   -2.539660e+001 2.044825e+002 0.000000e+000
      vertex   -2.571180e+001 2.044433e+002 4.000000e+000
    endloop
  endfacet
  facet normal -9.753997e-003 7.855295e-002 0.000000e+000
    outer loop
      vertex   -2.571180e+001 2.044433e+002 4.000000e+000
      vertex   -2.539660e+001 2.044825e+002 0.000000e+000
      vertex   -2.571180e+001 2.044433e+002 0.000000e+000
    endloop
  endfacet
  facet normal -1.929301e-001 9.812125e-001 0.000000e+000
    outer loop
      vertex   -2.571180e+001 2.044433e+002 4.000000e+000
      vertex   -2.571180e+001 2.044433e+002 0.000000e+000
      vertex   -2.602345e+001 2.043821e+002 4.000000e+000
    endloop
  endfacet
  facet normal -1.527175e-002 7.766975e-002 0.000000e+000
    outer loop
      vertex   -2.602345e+001 2.043821e+002 4.000000e+000
      vertex   -2.571180e+001 2.044433e+002 0.000000e+000
      vertex   -2.602345e+001 2.043821e+002 0.000000e+000
    endloop
  endfacet
  facet normal -2.616313e-001 9.651679e-001 0.000000e+000
    outer loop
      vertex   -2.602345e+001 2.043821e+002 4.000000e+000
      vertex   -2.602345e+001 2.043821e+002 0.000000e+000
      vertex   -2.633001e+001 2.042990e+002 4.000000e+000
    endloop
  endfacet
  facet normal -2.070965e-002 7.639870e-002 0.000000e+000
    outer loop
      vertex   -2.633001e+001 2.042990e+002 4.000000e+000
      vertex   -2.602345e+001 2.043821e+002 0.000000e+000
      vertex   -2.633001e+001 2.042990e+002 0.000000e+000
    endloop
  endfacet
  facet normal -3.291205e-001 9.442879e-001 0.000000e+000
    outer loop
      vertex   -2.633001e+001 2.042990e+002 4.000000e+000
      vertex   -2.633001e+001 2.042990e+002 0.000000e+000
      vertex   -2.662994e+001 2.041944e+002 4.000000e+000
    endloop
  endfacet
  facet normal -2.605248e-002 7.474783e-002 0.000000e+000
    outer loop
      vertex   -2.662994e+001 2.041944e+002 4.000000e+000
      vertex   -2.633001e+001 2.042990e+002 0.000000e+000
      vertex   -2.662994e+001 2.041944e+002 0.000000e+000
    endloop
  endfacet
  facet normal -3.948504e-001 9.187454e-001 0.000000e+000
    outer loop
      vertex   -2.662994e+001 2.041944e+002 4.000000e+000
      vertex   -2.662994e+001 2.041944e+002 0.000000e+000
      vertex   -2.692175e+001 2.040690e+002 4.000000e+000
    endloop
  endfacet
  facet normal -3.125462e-002 7.272384e-002 0.000000e+000
    outer loop
      vertex   -2.692175e+001 2.040690e+002 4.000000e+000
      vertex   -2.662994e+001 2.041944e+002 0.000000e+000
      vertex   -2.692175e+001 2.040690e+002 0.000000e+000
    endloop
  endfacet
  facet normal -4.586943e-001 8.885942e-001 0.000000e+000
    outer loop
      vertex   -2.692175e+001 2.040690e+002 4.000000e+000
      vertex   -2.692175e+001 2.040690e+002 0.000000e+000
      vertex   -2.720399e+001 2.039233e+002 4.000000e+000
    endloop
  endfacet
  facet normal -3.630845e-002 7.033763e-002 0.000000e+000
    outer loop
      vertex   -2.720399e+001 2.039233e+002 4.000000e+000
      vertex   -2.692175e+001 2.040690e+002 0.000000e+000
      vertex   -2.720399e+001 2.039233e+002 0.000000e+000
    endloop
  endfacet
  facet normal -5.202673e-001 8.540034e-001 0.000000e+000
    outer loop
      vertex   -2.720399e+001 2.039233e+002 4.000000e+000
      vertex   -2.720399e+001 2.039233e+002 0.000000e+000
      vertex   -2.747525e+001 2.037581e+002 4.000000e+000
    endloop
  endfacet
  facet normal -4.118353e-002 6.760155e-002 0.000000e+000
    outer loop
      vertex   -2.747525e+001 2.037581e+002 4.000000e+000
      vertex   -2.720399e+001 2.039233e+002 0.000000e+000
      vertex   -2.747525e+001 2.037581e+002 0.000000e+000
    endloop
  endfacet
  facet normal -5.791805e-001 8.151993e-001 0.000000e+000
    outer loop
      vertex   -2.747525e+001 2.037581e+002 4.000000e+000
      vertex   -2.747525e+001 2.037581e+002 0.000000e+000
      vertex   -2.773417e+001 2.035741e+002 4.000000e+000
    endloop
  endfacet
  facet normal -4.584568e-002 6.452801e-002 0.000000e+000
    outer loop
      vertex   -2.773417e+001 2.035741e+002 4.000000e+000
      vertex   -2.747525e+001 2.037581e+002 0.000000e+000
      vertex   -2.773417e+001 2.035741e+002 0.000000e+000
    endloop
  endfacet
  facet normal -6.352416e-001 7.723135e-001 0.000000e+000
    outer loop
      vertex   -2.773417e+001 2.035741e+002 4.000000e+000
      vertex   -2.773417e+001 2.035741e+002 0.000000e+000
      vertex   -2.797948e+001 2.033723e+002 4.000000e+000
    endloop
  endfacet
  facet normal -5.028347e-002 6.113360e-002 0.000000e+000
    outer loop
      vertex   -2.797948e+001 2.033723e+002 4.000000e+000
      vertex   -2.773417e+001 2.035741e+002 0.000000e+000
      vertex   -2.797948e+001 2.033723e+002 0.000000e+000
    endloop
  endfacet
  facet normal -6.881379e-001 7.255799e-001 0.000000e+000
    outer loop
      vertex   -2.797948e+001 2.033723e+002 4.000000e+000
      vertex   -2.797948e+001 2.033723e+002 0.000000e+000
      vertex   -2.820994e+001 2.031538e+002 4.000000e+000
    endloop
  endfacet
  facet normal -5.447027e-002 5.743402e-002 0.000000e+000
    outer loop
      vertex   -2.820994e+001 2.031538e+002 4.000000e+000
      vertex   -2.797948e+001 2.033723e+002 0.000000e+000
      vertex   -2.820994e+001 2.031538e+002 0.000000e+000
    endloop
  endfacet
  facet normal -7.376117e-001 6.752252e-001 0.000000e+000
    outer loop
      vertex   -2.820994e+001 2.031538e+002 4.000000e+000
      vertex   -2.820994e+001 2.031538e+002 0.000000e+000
      vertex   -2.842440e+001 2.029195e+002 4.000000e+000
    endloop
  endfacet
  facet normal -5.838707e-002 5.344876e-002 0.000000e+000
    outer loop
      vertex   -2.842440e+001 2.029195e+002 4.000000e+000
      vertex   -2.820994e+001 2.031538e+002 0.000000e+000
      vertex   -2.842440e+001 2.029195e+002 0.000000e+000
    endloop
  endfacet
  facet normal -7.833986e-001 6.215197e-001 0.000000e+000
    outer loop
      vertex   -2.842440e+001 2.029195e+002 4.000000e+000
      vertex   -2.842440e+001 2.029195e+002 0.000000e+000
      vertex   -2.862181e+001 2.026707e+002 4.000000e+000
    endloop
  endfacet
  facet normal -6.201108e-002 4.919731e-002 0.000000e+000
    outer loop
      vertex   -2.862181e+001 2.026707e+002 4.000000e+000
      vertex   -2.842440e+001 2.029195e+002 0.000000e+000
      vertex   -2.862181e+001 2.026707e+002 0.000000e+000
    endloop
  endfacet
  facet normal -8.252916e-001 5.647067e-001 0.000000e+000
    outer loop
      vertex   -2.862181e+001 2.026707e+002 4.000000e+000
      vertex   -2.862181e+001 2.026707e+002 0.000000e+000
      vertex   -2.880118e+001 2.024085e+002 4.000000e+000
    endloop
  endfacet
  facet normal -6.532706e-002 4.470011e-002 0.000000e+000
    outer loop
      vertex   -2.880118e+001 2.024085e+002 4.000000e+000
      vertex   -2.862181e+001 2.026707e+002 0.000000e+000
      vertex   -2.880118e+001 2.024085e+002 0.000000e+000
    endloop
  endfacet
  facet normal -8.630759e-001 5.050743e-001 0.000000e+000
    outer loop
      vertex   -2.880118e+001 2.024085e+002 4.000000e+000
      vertex   -2.880118e+001 2.024085e+002 0.000000e+000
      vertex   -2.896160e+001 2.021344e+002 4.000000e+000
    endloop
  endfacet
  facet normal -6.831979e-002 3.998092e-002 0.000000e+000
    outer loop
      vertex   -2.896160e+001 2.021344e+002 4.000000e+000
      vertex   -2.880118e+001 2.024085e+002 0.000000e+000
      vertex   -2.896160e+001 2.021344e+002 0.000000e+000
    endloop
  endfacet
  facet normal -8.965429e-001 4.429569e-001 0.000000e+000
    outer loop
      vertex   -2.896160e+001 2.021344e+002 4.000000e+000
      vertex   -2.896160e+001 2.021344e+002 0.000000e+000
      vertex   -2.910229e+001 2.018496e+002 4.000000e+000
    endloop
  endfacet
  facet normal -7.096650e-002 3.506258e-002 0.000000e+000
    outer loop
      vertex   -2.910229e+001 2.018496e+002 4.000000e+000
      vertex   -2.896160e+001 2.021344e+002 0.000000e+000
      vertex   -2.910229e+001 2.018496e+002 0.000000e+000
    endloop
  endfacet
  facet normal -9.255583e-001 3.786052e-001 0.000000e+000
    outer loop
      vertex   -2.910229e+001 2.018496e+002 4.000000e+000
      vertex   -2.910229e+001 2.018496e+002 0.000000e+000
      vertex   -2.922255e+001 2.015557e+002 4.000000e+000
    endloop
  endfacet
  facet normal -7.326335e-002 2.996882e-002 0.000000e+000
    outer loop
      vertex   -2.922255e+001 2.015557e+002 4.000000e+000
      vertex   -2.910229e+001 2.018496e+002 0.000000e+000
      vertex   -2.922255e+001 2.015557e+002 0.000000e+000
    endloop
  endfacet
  facet normal -9.499594e-001 3.123735e-001 0.000000e+000
    outer loop
      vertex   -2.922255e+001 2.015557e+002 4.000000e+000
      vertex   -2.922255e+001 2.015557e+002 0.000000e+000
      vertex   -2.932176e+001 2.012539e+002 4.000000e+000
    endloop
  endfacet
  facet normal -7.519513e-002 2.472629e-002 0.000000e+000
    outer loop
      vertex   -2.932176e+001 2.012539e+002 4.000000e+000
      vertex   -2.922255e+001 2.015557e+002 0.000000e+000
      vertex   -2.932176e+001 2.012539e+002 0.000000e+000
    endloop
  endfacet
  facet normal -9.696289e-001 2.445810e-001 0.000000e+000
    outer loop
      vertex   -2.932176e+001 2.012539e+002 4.000000e+000
      vertex   -2.932176e+001 2.012539e+002 0.000000e+000
      vertex   -2.939945e+001 2.009460e+002 4.000000e+000
    endloop
  endfacet
  facet normal -7.675424e-002 1.936063e-002 0.000000e+000
    outer loop
      vertex   -2.939945e+001 2.009460e+002 4.000000e+000
      vertex   -2.932176e+001 2.012539e+002 0.000000e+000
      vertex   -2.939945e+001 2.009460e+002 0.000000e+000
    endloop
  endfacet
  facet normal -9.844652e-001 1.755795e-001 0.000000e+000
    outer loop
      vertex   -2.939945e+001 2.009460e+002 4.000000e+000
      vertex   -2.939945e+001 2.009460e+002 0.000000e+000
      vertex   -2.945522e+001 2.006333e+002 4.000000e+000
    endloop
  endfacet
  facet normal -7.792550e-002 1.389802e-002 0.000000e+000
    outer loop
      vertex   -2.945522e+001 2.006333e+002 4.000000e+000
      vertex   -2.939945e+001 2.009460e+002 0.000000e+000
      vertex   -2.945522e+001 2.006333e+002 0.000000e+000
    endloop
  endfacet
  facet normal -9.943979e-001 1.057019e-001 0.000000e+000
    outer loop
      vertex   -2.945522e+001 2.006333e+002 4.000000e+000
      vertex   -2.945522e+001 2.006333e+002 0.000000e+000
      vertex   -2.948879e+001 2.003174e+002 4.000000e+000
    endloop
  endfacet
  facet normal -7.871266e-002 8.366952e-003 0.000000e+000
    outer loop
      vertex   -2.948879e+001 2.003174e+002 4.000000e+000
      vertex   -2.945522e+001 2.006333e+002 0.000000e+000
      vertex   -2.948879e+001 2.003174e+002 0.000000e+000
    endloop
  endfacet
  facet normal 0.000000e+000 -0.000000e+000 9.998443e-001
    outer loop
      vertex   -2.948879e+001 1.996826e+002 4.000000e+000
      vertex   -2.050280e+001 1.998412e+002 4.000000e+000
      vertex   -2.950000e+001 2.000000e+002 4.000000e+000
    endloop
  endfacet
  facet normal -0.000000e+000 0.000000e+000 3.529188e-002
    outer loop
      vertex   -2.950000e+001 2.000000e+002 4.000000e+000
      vertex   -2.050280e+001 1.998412e+002 4.000000e+000
      vertex   -2.050280e+001 2.001588e+002 4.000000e+000
    endloop
  endfacet
  facet normal 0.000000e+000 0.000000e+000 9.985986e-001
    outer loop
      vertex   -2.950000e+001 2.000000e+002 4.000000e+000
      vertex   -2.050280e+001 2.001588e+002 4.000000e+000
      vertex   -2.948879e+001 2.003174e+002 4.000000e+000
    endloop
  endfacet
  facet normal -0.000000e+000 0.000000e+000 3.529163e-002
    outer loop
      vertex   -2.948879e+001 2.003174e+002 4.000000e+000
      vertex   -2.050280e+001 2.001588e+002 4.000000e+000
      vertex   -2.052521e+001 2.004756e+002 4.000000e+000
    endloop
  endfacet
  facet normal 0.000000e+000 0.000000e+000 9.923775e-001
    outer loop
      vertex   -2.948879e+001 2.003174e+002 4.000000e+000
      vertex   -2.052521e+001 2.004756e+002 4.000000e+000
      vertex   -2.945522e+001 2.006333e+002 4.000000e+000
    endloop
  endfacet
  facet normal -0.000000e+000 0.000000e+000 3.529043e-002
    outer loop
      vertex   -2.945522e+001 2.006333e+002 4.000000e+000
      vertex   -2.052521e+001 2.004756e+002 4.000000e+000
      vertex   -2.056991e+001 2.007901e+002 4.000000e+000
    endloop
  endfacet
  facet normal 0.000000e+000 0.000000e+000 9.812134e-001
    outer loop
      vertex   -2.945522e+001 2.006333e+002 4.000000e+000
      vertex   -2.056991e+001 2.007901e+002 4.000000e+000
      vertex   -2.939945e+001 2.009460e+002 4.000000e+000
    endloop
  endfacet
  facet normal -0.000000e+000 0.000000e+000 3.529210e-002
    outer loop
      vertex   -2.939945e+001 2.009460e+002 4.000000e+000
      vertex   -2.056991e+001 2.007901e+002 4.000000e+000
      vertex   -2.063667e+001 2.011006e+002 4.000000e+000
    endloop
  endfacet
  facet normal 0.000000e+000 0.000000e+000 9.651612e-001
    outer loop
      vertex   -2.939945e+001 2.009460e+002 4.000000e+000
      vertex   -2.063667e+001 2.011006e+002 4.000000e+000
      vertex   -2.932176e+001 2.012539e+002 4.000000e+000
    endloop
  endfacet
  facet normal -0.000000e+000 0.000000e+000 3.529096e-002
    outer loop
      vertex   -2.932176e+001 2.012539e+002 4.000000e+000
      vertex   -2.063667e+001 2.011006e+002 4.000000e+000
      vertex   -2.072518e+001 2.014057e+002 4.000000e+000
    endloop
  endfacet
  facet normal 0.000000e+000 0.000000e+000 9.442987e-001
    outer loop
      vertex   -2.932176e+001 2.012539e+002 4.000000e+000
      vertex   -2.072518e+001 2.014057e+002 4.000000e+000
      vertex   -2.922255e+001 2.015557e+002 4.000000e+000
    endloop
  endfacet
  facet normal -0.000000e+000 0.000000e+000 3.529267e-002
    outer loop
      vertex   -2.922255e+001 2.015557e+002 4.000000e+000
      vertex   -2.072518e+001 2.014057e+002 4.000000e+000
      vertex   -2.083498e+001 2.017037e+002 4.000000e+000
    endloop
  endfacet
  facet normal 0.000000e+000 0.000000e+000 9.187320e-001
    outer loop
      vertex   -2.922255e+001 2.015557e+002 4.000000e+000
      vertex   -2.083498e+001 2.017037e+002 4.000000e+000
      vertex   -2.910229e+001 2.018496e+002 4.000000e+000
    endloop
  endfacet
  facet normal -0.000000e+000 0.000000e+000 3.529133e-002
    outer loop
      vertex   -2.910229e+001 2.018496e+002 4.000000e+000
      vertex   -2.083498e+001 2.017037e+002 4.000000e+000
      vertex   -2.096554e+001 2.019933e+002 4.000000e+000
    endloop
  endfacet
  facet normal 0.000000e+000 0.000000e+000 8.885853e-001
    outer loop
      vertex   -2.910229e+001 2.018496e+002 4.000000e+000
      vertex   -2.096554e+001 2.019933e+002 4.000000e+000
      vertex   -2.896160e+001 2.021344e+002 4.000000e+000
    endloop
  endfacet
  facet normal -0.000000e+000 0.000000e+000 3.529095e-002
    outer loop
      vertex   -2.896160e+001 2.021344e+002 4.000000e+000
      vertex   -2.096554e+001 2.019933e+002 4.000000e+000
      vertex   -2.111619e+001 2.022729e+002 4.000000e+000
    endloop
  endfacet
  facet normal 0.000000e+000 0.000000e+000 8.540272e-001
    outer loop
      vertex   -2.896160e+001 2.021344e+002 4.000000e+000
      vertex   -2.111619e+001 2.022729e+002 4.000000e+000
      vertex   -2.880118e+001 2.024085e+002 4.000000e+000
    endloop
  endfacet
  facet normal -0.000000e+000 0.000000e+000 3.529108e-002
    outer loop
      vertex   -2.880118e+001 2.024085e+002 4.000000e+000
      vertex   -2.111619e+001 2.022729e+002 4.000000e+000
      vertex   -2.128619e+001 2.025412e+002 4.000000e+000
    endloop
  endfacet
  facet normal 0.000000e+000 0.000000e+000 8.151972e-001
    outer loop
      vertex   -2.880118e+001 2.024085e+002 4.000000e+000
      vertex   -2.128619e+001 2.025412e+002 4.000000e+000
      vertex   -2.862181e+001 2.026707e+002 4.000000e+000
    endloop
  endfacet
  facet normal -0.000000e+000 0.000000e+000 3.529251e-002
    outer loop
      vertex   -2.862181e+001 2.026707e+002 4.000000e+000
      vertex   -2.128619e+001 2.025412e+002 4.000000e+000
      vertex   -2.147470e+001 2.027968e+002 4.000000e+000
    endloop
  endfacet
  facet normal 0.000000e+000 0.000000e+000 7.723073e-001
    outer loop
      vertex   -2.862181e+001 2.026707e+002 4.000000e+000
      vertex   -2.147470e+001 2.027968e+002 4.000000e+000
      vertex   -2.842440e+001 2.029195e+002 4.000000e+000
    endloop
  endfacet
  facet normal -0.000000e+000 0.000000e+000 3.529071e-002
    outer loop
      vertex   -2.842440e+001 2.029195e+002 4.000000e+000
      vertex   -2.147470e+001 2.027968e+002 4.000000e+000
      vertex   -2.168076e+001 2.030385e+002 4.000000e+000
    endloop
  endfacet
  facet normal 0.000000e+000 0.000000e+000 7.255800e-001
    outer loop
      vertex   -2.842440e+001 2.029195e+002 4.000000e+000
      vertex   -2.168076e+001 2.030385e+002 4.000000e+000
      vertex   -2.820994e+001 2.031538e+002 4.000000e+000
    endloop
  endfacet
  facet normal -0.000000e+000 0.000000e+000 3.529079e-002
    outer loop
      vertex   -2.820994e+001 2.031538e+002 4.000000e+000
      vertex   -2.168076e+001 2.030385e+002 4.000000e+000
      vertex   -2.190336e+001 2.032651e+002 4.000000e+000
    endloop
  endfacet
  facet normal 0.000000e+000 0.000000e+000 6.752261e-001
    outer loop
      vertex   -2.820994e+001 2.031538e+002 4.000000e+000
      vertex   -2.190336e+001 2.032651e+002 4.000000e+000
      vertex   -2.797948e+001 2.033723e+002 4.000000e+000
    endloop
  endfacet
  facet normal -0.000000e+000 0.000000e+000 3.529345e-002
    outer loop
      vertex   -2.797948e+001 2.033723e+002 4.000000e+000
      vertex   -2.190336e+001 2.032651e+002 4.000000e+000
      vertex   -2.214140e+001 2.034754e+002 4.000000e+000
    endloop
  endfacet
  facet normal 0.000000e+000 0.000000e+000 6.215113e-001
    outer loop
      vertex   -2.797948e+001 2.033723e+002 4.000000e+000
      vertex   -2.214140e+001 2.034754e+002 4.000000e+000
      vertex   -2.773417e+001 2.035741e+002 4.000000e+000
    endloop
  endfacet
  facet normal -0.000000e+000 0.000000e+000 3.529006e-002
    outer loop
      vertex   -2.773417e+001 2.035741e+002 4.000000e+000
      vertex   -2.214140e+001 2.034754e+002 4.000000e+000
      vertex   -2.239367e+001 2.036684e+002 4.000000e+000
    endloop
  endfacet
  facet normal 0.000000e+000 0.000000e+000 5.647030e-001
    outer loop
      vertex   -2.773417e+001 2.035741e+002 4.000000e+000
      vertex   -2.239367e+001 2.036684e+002 4.000000e+000
      vertex   -2.747525e+001 2.037581e+002 4.000000e+000
    endloop
  endfacet
  facet normal -0.000000e+000 0.000000e+000 3.529212e-002
    outer loop
      vertex   -2.747525e+001 2.037581e+002 4.000000e+000
      vertex   -2.239367e+001 2.036684e+002 4.000000e+000
      vertex   -2.265892e+001 2.038431e+002 4.000000e+000
    endloop
  endfacet
  facet normal 0.000000e+000 0.000000e+000 5.051130e-001
    outer loop
      vertex   -2.747525e+001 2.037581e+002 4.000000e+000
      vertex   -2.265892e+001 2.038431e+002 4.000000e+000
      vertex   -2.720399e+001 2.039233e+002 4.000000e+000
    endloop
  endfacet
  facet normal -0.000000e+000 0.000000e+000 3.529122e-002
    outer loop
      vertex   -2.720399e+001 2.039233e+002 4.000000e+000
      vertex   -2.265892e+001 2.038431e+002 4.000000e+000
      vertex   -2.293584e+001 2.039987e+002 4.000000e+000
    endloop
  endfacet
  facet normal 0.000000e+000 0.000000e+000 4.429417e-001
    outer loop
      vertex   -2.720399e+001 2.039233e+002 4.000000e+000
      vertex   -2.293584e+001 2.039987e+002 4.000000e+000
      vertex   -2.692175e+001 2.040690e+002 4.000000e+000
    endloop
  endfacet
  facet normal -0.000000e+000 0.000000e+000 3.528936e-002
    outer loop
      vertex   -2.692175e+001 2.040690e+002 4.000000e+000
      vertex   -2.293584e+001 2.039987e+002 4.000000e+000
      vertex   -2.322305e+001 2.041343e+002 4.000000e+000
    endloop
  endfacet
  facet normal 0.000000e+000 0.000000e+000 3.785769e-001
    outer loop
      vertex   -2.692175e+001 2.040690e+002 4.000000e+000
      vertex   -2.322305e+001 2.041343e+002 4.000000e+000
      vertex   -2.662994e+001 2.041944e+002 4.000000e+000
    endloop
  endfacet
  facet normal -0.000000e+000 0.000000e+000 3.529313e-002
    outer loop
      vertex   -2.662994e+001 2.041944e+002 4.000000e+000
      vertex   -2.322305e+001 2.041343e+002 4.000000e+000
      vertex   -2.351910e+001 2.042493e+002 4.000000e+000
    endloop
  endfacet
  facet normal 0.000000e+000 0.000000e+000 3.124021e-001
    outer loop
      vertex   -2.662994e+001 2.041944e+002 4.000000e+000
      vertex   -2.351910e+001 2.042493e+002 4.000000e+000
      vertex   -2.633001e+001 2.042990e+002 4.000000e+000
    endloop
  endfacet
  facet normal -0.000000e+000 0.000000e+000 3.528961e-002
    outer loop
      vertex   -2.633001e+001 2.042990e+002 4.000000e+000
      vertex   -2.351910e+001 2.042493e+002 4.000000e+000
      vertex   -2.382253e+001 2.043432e+002 4.000000e+000
    endloop
  endfacet
  facet normal 0.000000e+000 0.000000e+000 2.445606e-001
    outer loop
      vertex   -2.633001e+001 2.042990e+002 4.000000e+000
      vertex   -2.382253e+001 2.043432e+002 4.000000e+000
      vertex   -2.602345e+001 2.043821e+002 4.000000e+000
    endloop
  endfacet
  facet normal -0.000000e+000 0.000000e+000 3.529777e-002
    outer loop
      vertex   -2.602345e+001 2.043821e+002 4.000000e+000
      vertex   -2.382253e+001 2.043432e+002 4.000000e+000
      vertex   -2.413183e+001 2.044155e+002 4.000000e+000
    endloop
  endfacet
  facet normal 0.000000e+000 0.000000e+000 1.755769e-001
    outer loop
      vertex   -2.602345e+001 2.043821e+002 4.000000e+000
      vertex   -2.413183e+001 2.044155e+002 4.000000e+000
      vertex   -2.571180e+001 2.044433e+002 4.000000e+000
    endloop
  endfacet
  facet normal -0.000000e+000 0.000000e+000 3.528612e-002
    outer loop
      vertex   -2.571180e+001 2.044433e+002 4.000000e+000
      vertex   -2.413183e+001 2.044155e+002 4.000000e+000
      vertex   -2.444546e+001 2.044657e+002 4.000000e+000
    endloop
  endfacet
  facet normal 0.000000e+000 0.000000e+000 1.056902e-001
    outer loop
      vertex   -2.571180e+001 2.044433e+002 4.000000e+000
      vertex   -2.444546e+001 2.044657e+002 4.000000e+000
      vertex   -2.539660e+001 2.044825e+002 4.000000e+000
    endloop
  endfacet
  facet normal -0.000000e+000 0.000000e+000 3.530454e-002
    outer loop
      vertex   -2.539660e+001 2.044825e+002 4.000000e+000
      vertex   -2.444546e+001 2.044657e+002 4.000000e+000
      vertex   -2.476184e+001 2.044937e+002 4.000000e+000
    endloop
  endfacet
  facet normal 0.000000e+000 0.000000e+000 3.529114e-002
    outer loop
      vertex   -2.539660e+001 2.044825e+002 4.000000e+000
      vertex   -2.476184e+001 2.044937e+002 4.000000e+000
      vertex   -2.507942e+001 2.044993e+002 4.000000e+000
    endloop
  endfacet
  facet normal 0.000000e+000 0.000000e+000 9.961091e-001
    outer loop
      vertex   -2.050280e+001 1.998412e+002 4.000000e+000
      vertex   -2.948879e+001 1.996826e+002 4.000000e+000
      vertex   -2.052521e+001 1.995244e+002 4.000000e+000
    endloop
  endfacet
  facet normal 0.000000e+000 0.000000e+000 3.529121e-002
    outer loop
      vertex   -2.052521e+001 1.995244e+002 4.000000e+000
      vertex   -2.948879e+001 1.996826e+002 4.000000e+000
      vertex   -2.945522e+001 1.993667e+002 4.000000e+000
    endloop
  endfacet
  facet normal 0.000000e+000 0.000000e+000 9.874098e-001
    outer loop
      vertex   -2.052521e+001 1.995244e+002 4.000000e+000
      vertex   -2.945522e+001 1.993667e+002 4.000000e+000
      vertex   -2.056991e+001 1.992099e+002 4.000000e+000
    endloop
  endfacet
  facet normal 0.000000e+000 0.000000e+000 3.529080e-002
    outer loop
      vertex   -2.056991e+001 1.992099e+002 4.000000e+000
      vertex   -2.945522e+001 1.993667e+002 4.000000e+000
      vertex   -2.939945e+001 1.990540e+002 4.000000e+000
    endloop
  endfacet
  facet normal 0.000000e+000 0.000000e+000 9.737941e-001
    outer loop
      vertex   -2.056991e+001 1.992099e+002 4.000000e+000
      vertex   -2.939945e+001 1.990540e+002 4.000000e+000
      vertex   -2.063667e+001 1.988994e+002 4.000000e+000
    endloop
  endfacet
  facet normal 0.000000e+000 0.000000e+000 3.529228e-002
    outer loop
      vertex   -2.063667e+001 1.988994e+002 4.000000e+000
      vertex   -2.939945e+001 1.990540e+002 4.000000e+000
      vertex   -2.932176e+001 1.987461e+002 4.000000e+000
    endloop
  endfacet
  facet normal 0.000000e+000 0.000000e+000 9.553232e-001
    outer loop
      vertex   -2.063667e+001 1.988994e+002 4.000000e+000
      vertex   -2.932176e+001 1.987461e+002 4.000000e+000
      vertex   -2.072518e+001 1.985943e+002 4.000000e+000
    endloop
  endfacet
  facet normal 0.000000e+000 0.000000e+000 3.529125e-002
    outer loop
      vertex   -2.072518e+001 1.985943e+002 4.000000e+000
      vertex   -2.932176e+001 1.987461e+002 4.000000e+000
      vertex   -2.922255e+001 1.984443e+002 4.000000e+000
    endloop
  endfacet
  facet normal 0.000000e+000 0.000000e+000 9.321016e-001
    outer loop
      vertex   -2.072518e+001 1.985943e+002 4.000000e+000
      vertex   -2.922255e+001 1.984443e+002 4.000000e+000
      vertex   -2.083498e+001 1.982963e+002 4.000000e+000
    endloop
  endfacet
  facet normal 0.000000e+000 0.000000e+000 3.529107e-002
    outer loop
      vertex   -2.083498e+001 1.982963e+002 4.000000e+000
      vertex   -2.922255e+001 1.984443e+002 4.000000e+000
      vertex   -2.910229e+001 1.981504e+002 4.000000e+000
    endloop
  endfacet
  facet normal 0.000000e+000 0.000000e+000 9.042235e-001
    outer loop
      vertex   -2.083498e+001 1.982963e+002 4.000000e+000
      vertex   -2.910229e+001 1.981504e+002 4.000000e+000
      vertex   -2.096554e+001 1.980067e+002 4.000000e+000
    endloop
  endfacet
  facet normal 0.000000e+000 0.000000e+000 3.529087e-002
    outer loop
      vertex   -2.096554e+001 1.980067e+002 4.000000e+000
      vertex   -2.910229e+001 1.981504e+002 4.000000e+000
      vertex   -2.896160e+001 1.978656e+002 4.000000e+000
    endloop
  endfacet
  facet normal 0.000000e+000 0.000000e+000 8.718470e-001
    outer loop
      vertex   -2.096554e+001 1.980067e+002 4.000000e+000
      vertex   -2.896160e+001 1.978656e+002 4.000000e+000
      vertex   -2.111619e+001 1.977271e+002 4.000000e+000
    endloop
  endfacet
  facet normal 0.000000e+000 0.000000e+000 3.529258e-002
    outer loop
      vertex   -2.111619e+001 1.977271e+002 4.000000e+000
      vertex   -2.896160e+001 1.978656e+002 4.000000e+000
      vertex   -2.880118e+001 1.975915e+002 4.000000e+000
    endloop
  endfacet
  facet normal 0.000000e+000 0.000000e+000 8.351251e-001
    outer loop
      vertex   -2.111619e+001 1.977271e+002 4.000000e+000
      vertex   -2.880118e+001 1.975915e+002 4.000000e+000
      vertex   -2.128619e+001 1.974588e+002 4.000000e+000
    endloop
  endfacet
  facet normal 0.000000e+000 0.000000e+000 3.529138e-002
    outer loop
      vertex   -2.128619e+001 1.974588e+002 4.000000e+000
      vertex   -2.880118e+001 1.975915e+002 4.000000e+000
      vertex   -2.862181e+001 1.973293e+002 4.000000e+000
    endloop
  endfacet
  facet normal 0.000000e+000 0.000000e+000 7.942568e-001
    outer loop
      vertex   -2.128619e+001 1.974588e+002 4.000000e+000
      vertex   -2.862181e+001 1.973293e+002 4.000000e+000
      vertex   -2.147470e+001 1.972032e+002 4.000000e+000
    endloop
  endfacet
  facet normal 0.000000e+000 0.000000e+000 3.529127e-002
    outer loop
      vertex   -2.147470e+001 1.972032e+002 4.000000e+000
      vertex   -2.862181e+001 1.973293e+002 4.000000e+000
      vertex   -2.842440e+001 1.970805e+002 4.000000e+000
    endloop
  endfacet
  facet normal 0.000000e+000 0.000000e+000 7.494044e-001
    outer loop
      vertex   -2.147470e+001 1.972032e+002 4.000000e+000
      vertex   -2.842440e+001 1.970805e+002 4.000000e+000
      vertex   -2.168076e+001 1.969615e+002 4.000000e+000
    endloop
  endfacet
  facet normal 0.000000e+000 0.000000e+000 3.529175e-002
    outer loop
      vertex   -2.168076e+001 1.969615e+002 4.000000e+000
      vertex   -2.842440e+001 1.970805e+002 4.000000e+000
      vertex   -2.820994e+001 1.968462e+002 4.000000e+000
    endloop
  endfacet
  facet normal 0.000000e+000 0.000000e+000 7.008325e-001
    outer loop
      vertex   -2.168076e+001 1.969615e+002 4.000000e+000
      vertex   -2.820994e+001 1.968462e+002 4.000000e+000
      vertex   -2.190336e+001 1.967349e+002 4.000000e+000
    endloop
  endfacet
  facet normal 0.000000e+000 0.000000e+000 3.529105e-002
    outer loop
      vertex   -2.190336e+001 1.967349e+002 4.000000e+000
      vertex   -2.820994e+001 1.968462e+002 4.000000e+000
      vertex   -2.797948e+001 1.966277e+002 4.000000e+000
    endloop
  endfacet
  facet normal 0.000000e+000 0.000000e+000 6.487954e-001
    outer loop
      vertex   -2.190336e+001 1.967349e+002 4.000000e+000
      vertex   -2.797948e+001 1.966277e+002 4.000000e+000
      vertex   -2.214140e+001 1.965246e+002 4.000000e+000
    endloop
  endfacet
  facet normal 0.000000e+000 0.000000e+000 3.529109e-002
    outer loop
      vertex   -2.214140e+001 1.965246e+002 4.000000e+000
      vertex   -2.797948e+001 1.966277e+002 4.000000e+000
      vertex   -2.773417e+001 1.964259e+002 4.000000e+000
    endloop
  endfacet
  facet normal 0.000000e+000 0.000000e+000 5.934672e-001
    outer loop
      vertex   -2.214140e+001 1.965246e+002 4.000000e+000
      vertex   -2.773417e+001 1.964259e+002 4.000000e+000
      vertex   -2.239367e+001 1.963316e+002 4.000000e+000
    endloop
  endfacet
  facet normal 0.000000e+000 0.000000e+000 3.529092e-002
    outer loop
      vertex   -2.239367e+001 1.963316e+002 4.000000e+000
      vertex   -2.773417e+001 1.964259e+002 4.000000e+000
      vertex   -2.747525e+001 1.962419e+002 4.000000e+000
    endloop
  endfacet
  facet normal 0.000000e+000 0.000000e+000 5.352396e-001
    outer loop
      vertex   -2.239367e+001 1.963316e+002 4.000000e+000
      vertex   -2.747525e+001 1.962419e+002 4.000000e+000
      vertex   -2.265892e+001 1.961569e+002 4.000000e+000
    endloop
  endfacet
  facet normal 0.000000e+000 0.000000e+000 3.529413e-002
    outer loop
      vertex   -2.265892e+001 1.961569e+002 4.000000e+000
      vertex   -2.747525e+001 1.962419e+002 4.000000e+000
      vertex   -2.720399e+001 1.960767e+002 4.000000e+000
    endloop
  endfacet
  facet normal 0.000000e+000 0.000000e+000 4.743085e-001
    outer loop
      vertex   -2.265892e+001 1.961569e+002 4.000000e+000
      vertex   -2.720399e+001 1.960767e+002 4.000000e+000
      vertex   -2.293584e+001 1.960013e+002 4.000000e+000
    endloop
  endfacet
  facet normal 0.000000e+000 0.000000e+000 3.529070e-002
    outer loop
      vertex   -2.293584e+001 1.960013e+002 4.000000e+000
      vertex   -2.720399e+001 1.960767e+002 4.000000e+000
      vertex   -2.692175e+001 1.959310e+002 4.000000e+000
    endloop
  endfacet
  facet normal 0.000000e+000 0.000000e+000 4.110114e-001
    outer loop
      vertex   -2.293584e+001 1.960013e+002 4.000000e+000
      vertex   -2.692175e+001 1.959310e+002 4.000000e+000
      vertex   -2.322305e+001 1.958657e+002 4.000000e+000
    endloop
  endfacet
  facet normal 0.000000e+000 0.000000e+000 3.528854e-002
    outer loop
      vertex   -2.322305e+001 1.958657e+002 4.000000e+000
      vertex   -2.692175e+001 1.959310e+002 4.000000e+000
      vertex   -2.662994e+001 1.958056e+002 4.000000e+000
    endloop
  endfacet
  facet normal 0.000000e+000 0.000000e+000 3.457182e-001
    outer loop
      vertex   -2.322305e+001 1.958657e+002 4.000000e+000
      vertex   -2.662994e+001 1.958056e+002 4.000000e+000
      vertex   -2.351910e+001 1.957507e+002 4.000000e+000
    endloop
  endfacet
  facet normal 0.000000e+000 0.000000e+000 3.529542e-002
    outer loop
      vertex   -2.351910e+001 1.957507e+002 4.000000e+000
      vertex   -2.662994e+001 1.958056e+002 4.000000e+000
      vertex   -2.633001e+001 1.957010e+002 4.000000e+000
    endloop
  endfacet
  facet normal 0.000000e+000 0.000000e+000 2.786392e-001
    outer loop
      vertex   -2.351910e+001 1.957507e+002 4.000000e+000
      vertex   -2.633001e+001 1.957010e+002 4.000000e+000
      vertex   -2.382253e+001 1.956568e+002 4.000000e+000
    endloop
  endfacet
  facet normal 0.000000e+000 0.000000e+000 3.528759e-002
    outer loop
      vertex   -2.382253e+001 1.956568e+002 4.000000e+000
      vertex   -2.633001e+001 1.957010e+002 4.000000e+000
      vertex   -2.602345e+001 1.956179e+002 4.000000e+000
    endloop
  endfacet
  facet normal 0.000000e+000 0.000000e+000 2.102487e-001
    outer loop
      vertex   -2.382253e+001 1.956568e+002 4.000000e+000
      vertex   -2.602345e+001 1.956179e+002 4.000000e+000
      vertex   -2.413183e+001 1.955845e+002 4.000000e+000
    endloop
  endfacet
  facet normal 0.000000e+000 0.000000e+000 3.529116e-002
    outer loop
      vertex   -2.413183e+001 1.955845e+002 4.000000e+000
      vertex   -2.602345e+001 1.956179e+002 4.000000e+000
      vertex   -2.571180e+001 1.955567e+002 4.000000e+000
    endloop
  endfacet
  facet normal 0.000000e+000 0.000000e+000 1.407053e-001
    outer loop
      vertex   -2.413183e+001 1.955845e+002 4.000000e+000
      vertex   -2.571180e+001 1.955567e+002 4.000000e+000
      vertex   -2.444546e+001 1.955343e+002 4.000000e+000
    endloop
  endfacet
  facet normal 0.000000e+000 0.000000e+000 3.528846e-002
    outer loop
      vertex   -2.444546e+001 1.955343e+002 4.000000e+000
      vertex   -2.571180e+001 1.955567e+002 4.000000e+000
      vertex   -2.539660e+001 1.955175e+002 4.000000e+000
    endloop
  endfacet
  facet normal 0.000000e+000 0.000000e+000 7.056504e-002
    outer loop
      vertex   -2.444546e+001 1.955343e+002 4.000000e+000
      vertex   -2.539660e+001 1.955175e+002 4.000000e+000
      vertex   -2.476184e+001 1.955063e+002 4.000000e+000
    endloop
  endfacet
  facet normal 0.000000e+000 0.000000e+000 3.529128e-002
    outer loop
      vertex   -2.476184e+001 1.955063e+002 4.000000e+000
      vertex   -2.539660e+001 1.955175e+002 4.000000e+000
      vertex   -2.507942e+001 1.955007e+002 4.000000e+000
    endloop
  endfacet
  facet normal 0.000000e+000 -0.000000e+000 -9.998443e-001
    outer loop
      vertex   -2.948879e+001 2.003174e+002 0.000000e+000
      vertex   -2.050280e+001 2.001588e+002 0.000000e+000
      vertex   -2.950000e+001 2.000000e+002 0.000000e+000
    endloop
  endfacet
  facet normal 0.000000e+000 0.000000e+000 -3.529188e-002
    outer loop
      vertex   -2.950000e+001 2.000000e+002 0.000000e+000
      vertex   -2.050280e+001 2.001588e+002 0.000000e+000
      vertex   -2.050280e+001 1.998412e+002 0.000000e+000
    endloop
  endfacet
  facet normal 0.000000e+000 0.000000e+000 -9.985986e-001
    outer loop
      vertex   -2.950000e+001 2.000000e+002 0.000000e+000
      vertex   -2.050280e+001 1.998412e+002 0.000000e+000
      vertex   -2.948879e+001 1.996826e+002 0.000000e+000
    endloop
  endfacet
  facet normal 0.000000e+000 0.000000e+000 -3.529163e-002
    outer loop
      vertex   -2.948879e+001 1.996826e+002 0.000000e+000
      vertex   -2.050280e+001 1.998412e+002 0.000000e+000
      vertex   -2.052521e+001 1.995244e+002 0.000000e+000
    endloop
  endfacet
  facet normal 0.000000e+000 0.000000e+000 -9.923775e-001
    outer loop
      vertex   -2.948879e+001 1.996826e+002 0.000000e+000
      vertex   -2.052521e+001 1.995244e+002 0.000000e+000
      vertex   -2.945522e+001 1.993667e+002 0.000000e+000
    endloop
  endfacet
  facet normal 0.000000e+000 0.000000e+000 -3.529043e-002
    outer loop
      vertex   -2.945522e+001 1.993667e+002 0.000000e+000
      vertex   -2.052521e+001 1.995244e+002 0.000000e+000
      vertex   -2.056991e+001 1.992099e+002 0.000000e+000
    endloop
  endfacet
  facet normal 0.000000e+000 0.000000e+000 -9.812134e-001
    outer loop
      vertex   -2.945522e+001 1.993667e+002 0.000000e+000
      vertex   -2.056991e+001 1.992099e+002 0.000000e+000
      vertex   -2.939945e+001 1.990540e+002 0.000000e+000
    endloop
  endfacet
  facet normal 0.000000e+000 0.000000e+000 -3.529210e-002
    outer loop
      vertex   -2.939945e+001 1.990540e+002 0.000000e+000
      vertex   -2.056991e+001 1.992099e+002 0.000000e+000
      vertex   -2.063667e+001 1.988994e+002 0.000000e+000
    endloop
  endfacet
  facet normal 0.000000e+000 0.000000e+000 -9.651612e-001
    outer loop
      vertex   -2.939945e+001 1.990540e+002 0.000000e+000
      vertex   -2.063667e+001 1.988994e+002 0.000000e+000
      vertex   -2.932176e+001 1.987461e+002 0.000000e+000
    endloop
  endfacet
  facet normal 0.000000e+000 0.000000e+000 -3.529096e-002
    outer loop
      vertex   -2.932176e+001 1.987461e+002 0.000000e+000
      vertex   -2.063667e+001 1.988994e+002 0.000000e+000
      vertex   -2.072518e+001 1.985943e+002 0.000000e+000
    endloop
  endfacet
  facet normal 0.000000e+000 0.000000e+000 -9.442987e-001
    outer loop
      vertex   -2.932176e+001 1.987461e+002 0.000000e+000
      vertex   -2.072518e+001 1.985943e+002 0.000000e+000
      vertex   -2.922255e+001 1.984443e+002 0.000000e+000
    endloop
  endfacet
  facet normal 0.000000e+000 0.000000e+000 -3.529267e-002
    outer loop
      vertex   -2.922255e+001 1.984443e+002 0.000000e+000
      vertex   -2.072518e+001 1.985943e+002 0.000000e+000
      vertex   -2.083498e+001 1.982963e+002 0.000000e+000
    endloop
  endfacet
  facet normal 0.000000e+000 0.000000e+000 -9.187320e-001
    outer loop
      vertex   -2.922255e+001 1.984443e+002 0.000000e+000
      vertex   -2.083498e+001 1.982963e+002 0.000000e+000
      vertex   -2.910229e+001 1.981504e+002 0.000000e+000
    endloop
  endfacet
  facet normal 0.000000e+000 0.000000e+000 -3.529133e-002
    outer loop
      vertex   -2.910229e+001 1.981504e+002 0.000000e+000
      vertex   -2.083498e+001 1.982963e+002 0.000000e+000
      vertex   -2.096554e+001 1.980067e+002 0.000000e+000
    endloop
  endfacet
  facet normal 0.000000e+000 0.000000e+000 -8.885853e-001
    outer loop
      vertex   -2.910229e+001 1.981504e+002 0.000000e+000
      vertex   -2.096554e+001 1.980067e+002 0.000000e+000
      vertex   -2.896160e+001 1.978656e+002 0.000000e+000
    endloop
  endfacet
  facet normal 0.000000e+000 0.000000e+000 -3.529095e-002
    outer loop
      vertex   -2.896160e+001 1.978656e+002 0.000000e+000
      vertex   -2.096554e+001 1.980067e+002 0.000000e+000
      vertex   -2.111619e+001 1.977271e+002 0.000000e+000
    endloop
  endfacet
  facet normal 0.000000e+000 0.000000e+000 -8.540272e-001
    outer loop
      vertex   -2.896160e+001 1.978656e+002 0.000000e+000
      vertex   -2.111619e+001 1.977271e+002 0.000000e+000
      vertex   -2.880118e+001 1.975915e+002 0.000000e+000
    endloop
  endfacet
  facet normal 0.000000e+000 0.000000e+000 -3.529108e-002
    outer loop
      vertex   -2.880118e+001 1.975915e+002 0.000000e+000
      vertex   -2.111619e+001 1.977271e+002 0.000000e+000
      vertex   -2.128619e+001 1.974588e+002 0.000000e+000
    endloop
  endfacet
  facet normal 0.000000e+000 0.000000e+000 -8.151972e-001
    outer loop
      vertex   -2.880118e+001 1.975915e+002 0.000000e+000
      vertex   -2.128619e+001 1.974588e+002 0.000000e+000
      vertex   -2.862181e+001 1.973293e+002 0.000000e+000
    endloop
  endfacet
  facet normal 0.000000e+000 0.000000e+000 -3.529251e-002
    outer loop
      vertex   -2.862181e+001 1.973293e+002 0.000000e+000
      vertex   -2.128619e+001 1.974588e+002 0.000000e+000
      vertex   -2.147470e+001 1.972032e+002 0.000000e+000
    endloop
  endfacet
  facet normal 0.000000e+000 0.000000e+000 -7.723073e-001
    outer loop
      vertex   -2.862181e+001 1.973293e+002 0.000000e+000
      vertex   -2.147470e+001 1.972032e+002 0.000000e+000
      vertex   -2.842440e+001 1.970805e+002 0.000000e+000
    endloop
  endfacet
  facet normal 0.000000e+000 0.000000e+000 -3.529071e-002
    outer loop
      vertex   -2.842440e+001 1.970805e+002 0.000000e+000
      vertex   -2.147470e+001 1.972032e+002 0.000000e+000
      vertex   -2.168076e+001 1.969615e+002 0.000000e+000
    endloop
  endfacet
  facet normal 0.000000e+000 0.000000e+000 -7.255800e-001
    outer loop
      vertex   -2.842440e+001 1.970805e+002 0.000000e+000
      vertex   -2.168076e+001 1.969615e+002 0.000000e+000
      vertex   -2.820994e+001 1.968462e+002 0.000000e+000
    endloop
  endfacet
  facet normal 0.000000e+000 0.000000e+000 -3.529079e-002
    outer loop
      vertex   -2.820994e+001 1.968462e+002 0.000000e+000
      vertex   -2.168076e+001 1.969615e+002 0.000000e+000
      vertex   -2.190336e+001 1.967349e+002 0.000000e+000
    endloop
  endfacet
  facet normal 0.000000e+000 0.000000e+000 -6.752261e-001
    outer loop
      vertex   -2.820994e+001 1.968462e+002 0.000000e+000
      vertex   -2.190336e+001 1.967349e+002 0.000000e+000
      vertex   -2.797948e+001 1.966277e+002 0.000000e+000
    endloop
  endfacet
  facet normal 0.000000e+000 0.000000e+000 -3.529345e-002
    outer loop
      vertex   -2.797948e+001 1.966277e+002 0.000000e+000
      vertex   -2.190336e+001 1.967349e+002 0.000000e+000
      vertex   -2.214140e+001 1.965246e+002 0.000000e+000
    endloop
  endfacet
  facet normal 0.000000e+000 0.000000e+000 -6.215113e-001
    outer loop
      vertex   -2.797948e+001 1.966277e+002 0.000000e+000
      vertex   -2.214140e+001 1.965246e+002 0.000000e+000
      vertex   -2.773417e+001 1.964259e+002 0.000000e+000
    endloop
  endfacet
  facet normal 0.000000e+000 0.000000e+000 -3.529006e-002
    outer loop
      vertex   -2.773417e+001 1.964259e+002 0.000000e+000
      vertex   -2.214140e+001 1.965246e+002 0.000000e+000
      vertex   -2.239367e+001 1.963316e+002 0.000000e+000
    endloop
  endfacet
  facet normal 0.000000e+000 0.000000e+000 -5.647030e-001
    outer loop
      vertex   -2.773417e+001 1.964259e+002 0.000000e+000
      vertex   -2.239367e+001 1.963316e+002 0.000000e+000
      vertex   -2.747525e+001 1.962419e+002 0.000000e+000
    endloop
  endfacet
  facet normal 0.000000e+000 0.000000e+000 -3.529212e-002
    outer loop
      vertex   -2.747525e+001 1.962419e+002 0.000000e+000
      vertex   -2.239367e+001 1.963316e+002 0.000000e+000
      vertex   -2.265892e+001 1.961569e+002 0.000000e+000
    endloop
  endfacet
  facet normal 0.000000e+000 0.000000e+000 -5.051130e-001
    outer loop
      vertex   -2.747525e+001 1.962419e+002 0.000000e+000
      vertex   -2.265892e+001 1.961569e+002 0.000000e+000
      vertex   -2.720399e+001 1.960767e+002 0.000000e+000
    endloop
  endfacet
  facet normal 0.000000e+000 0.000000e+000 -3.529122e-002
    outer loop
      vertex   -2.720399e+001 1.960767e+002 0.000000e+000
      vertex   -2.265892e+001 1.961569e+002 0.000000e+000
      vertex   -2.293584e+001 1.960013e+002 0.000000e+000
    endloop
  endfacet
  facet normal 0.000000e+000 0.000000e+000 -4.429417e-001
    outer loop
      vertex   -2.720399e+001 1.960767e+002 0.000000e+000
      vertex   -2.293584e+001 1.960013e+002 0.000000e+000
      vertex   -2.692175e+001 1.959310e+002 0.000000e+000
    endloop
  endfacet
  facet normal 0.000000e+000 0.000000e+000 -3.528936e-002
    outer loop
      vertex   -2.692175e+001 1.959310e+002 0.000000e+000
      vertex   -2.293584e+001 1.960013e+002 0.000000e+000
      vertex   -2.322305e+001 1.958657e+002 0.000000e+000
    endloop
  endfacet
  facet normal 0.000000e+000 0.000000e+000 -3.785769e-001
    outer loop
      vertex   -2.692175e+001 1.959310e+002 0.000000e+000
      vertex   -2.322305e+001 1.958657e+002 0.000000e+000
      vertex   -2.662994e+001 1.958056e+002 0.000000e+000
    endloop
  endfacet
  facet normal 0.000000e+000 0.000000e+000 -3.529313e-002
    outer loop
      vertex   -2.662994e+001 1.958056e+002 0.000000e+000
      vertex   -2.322305e+001 1.958657e+002 0.000000e+000
      vertex   -2.351910e+001 1.957507e+002 0.000000e+000
    endloop
  endfacet
  facet normal 0.000000e+000 0.000000e+000 -3.124021e-001
    outer loop
      vertex   -2.662994e+001 1.958056e+002 0.000000e+000
      vertex   -2.351910e+001 1.957507e+002 0.000000e+000
      vertex   -2.633001e+001 1.957010e+002 0.000000e+000
    endloop
  endfacet
  facet normal 0.000000e+000 0.000000e+000 -3.528961e-002
    outer loop
      vertex   -2.633001e+001 1.957010e+002 0.000000e+000
      vertex   -2.351910e+001 1.957507e+002 0.000000e+000
      vertex   -2.382253e+001 1.956568e+002 0.000000e+000
    endloop
  endfacet
  facet normal 0.000000e+000 0.000000e+000 -2.445606e-001
    outer loop
      vertex   -2.633001e+001 1.957010e+002 0.000000e+000
      vertex   -2.382253e+001 1.956568e+002 0.000000e+000
      vertex   -2.602345e+001 1.956179e+002 0.000000e+000
    endloop
  endfacet
  facet normal 0.000000e+000 0.000000e+000 -3.529777e-002
    outer loop
      vertex   -2.602345e+001 1.956179e+002 0.000000e+000
      vertex   -2.382253e+001 1.956568e+002 0.000000e+000
      vertex   -2.413183e+001 1.955845e+002 0.000000e+000
    endloop
  endfacet
  facet normal 0.000000e+000 0.000000e+000 -1.755769e-001
    outer loop
      vertex   -2.602345e+001 1.956179e+002 0.000000e+000
      vertex   -2.413183e+001 1.955845e+002 0.000000e+000
      vertex   -2.571180e+001 1.955567e+002 0.000000e+000
    endloop
  endfacet
  facet normal 0.000000e+000 0.000000e+000 -3.528612e-002
    outer loop
      vertex   -2.571180e+001 1.955567e+002 0.000000e+000
      vertex   -2.413183e+001 1.955845e+002 0.000000e+000
      vertex   -2.444546e+001 1.955343e+002 0.000000e+000
    endloop
  endfacet
  facet normal 0.000000e+000 0.000000e+000 -1.056902e-001
    outer loop
      vertex   -2.571180e+001 1.955567e+002 0.000000e+000
      vertex   -2.444546e+001 1.955343e+002 0.000000e+000
      vertex   -2.539660e+001 1.955175e+002 0.000000e+000
    endloop
  endfacet
  facet normal 0.000000e+000 0.000000e+000 -3.530454e-002
    outer loop
      vertex   -2.539660e+001 1.955175e+002 0.000000e+000
      vertex   -2.444546e+001 1.955343e+002 0.000000e+000
      vertex   -2.476184e+001 1.955063e+002 0.000000e+000
    endloop
  endfacet
  facet normal 0.000000e+000 0.000000e+000 -3.529114e-002
    outer loop
      vertex   -2.539660e+001 1.955175e+002 0.000000e+000
      vertex   -2.476184e+001 1.955063e+002 0.000000e+000
      vertex   -2.507942e+001 1.955007e+002 0.000000e+000
    endloop
  endfacet
  facet normal 0.000000e+000 0.000000e+000 -9.961091e-001
    outer loop
      vertex   -2.050280e+001 2.001588e+002 0.000000e+000
      vertex   -2.948879e+001 2.003174e+002 0.000000e+000
      vertex   -2.052521e+001 2.004756e+002 0.000000e+000
    endloop
  endfacet
  facet normal -0.000000e+000 0.000000e+000 -3.529121e-002
    outer loop
      vertex   -2.052521e+001 2.004756e+002 0.000000e+000
      vertex   -2.948879e+001 2.003174e+002 0.000000e+000
      vertex   -2.945522e+001 2.006333e+002 0.000000e+000
    endloop
  endfacet
  facet normal 0.000000e+000 0.000000e+000 -9.874098e-001
    outer loop
      vertex   -2.052521e+001 2.004756e+002 0.000000e+000
      vertex   -2.945522e+001 2.006333e+002 0.000000e+000
      vertex   -2.056991e+001 2.007901e+002 0.000000e+000
    endloop
  endfacet
  facet normal -0.000000e+000 0.000000e+000 -3.529080e-002
    outer loop
      vertex   -2.056991e+001 2.007901e+002 0.000000e+000
      vertex   -2.945522e+001 2.006333e+002 0.000000e+000
      vertex   -2.939945e+001 2.009460e+002 0.000000e+000
    endloop
  endfacet
  facet normal 0.000000e+000 0.000000e+000 -9.737941e-001
    outer loop
      vertex   -2.056991e+001 2.007901e+002 0.000000e+000
      vertex   -2.939945e+001 2.009460e+002 0.000000e+000
      vertex   -2.063667e+001 2.011006e+002 0.000000e+000
    endloop
  endfacet
  facet normal -0.000000e+000 0.000000e+000 -3.529228e-002
    outer loop
      vertex   -2.063667e+001 2.011006e+002 0.000000e+000
      vertex   -2.939945e+001 2.009460e+002 0.000000e+000
      vertex   -2.932176e+001 2.012539e+002 0.000000e+000
    endloop
  endfacet
  facet normal 0.000000e+000 0.000000e+000 -9.553232e-001
    outer loop
      vertex   -2.063667e+001 2.011006e+002 0.000000e+000
      vertex   -2.932176e+001 2.012539e+002 0.000000e+000
      vertex   -2.072518e+001 2.014057e+002 0.000000e+000
    endloop
  endfacet
  facet normal -0.000000e+000 0.000000e+000 -3.529125e-002
    outer loop
      vertex   -2.072518e+001 2.014057e+002 0.000000e+000
      vertex   -2.932176e+001 2.012539e+002 0.000000e+000
      vertex   -2.922255e+001 2.015557e+002 0.000000e+000
    endloop
  endfacet
  facet normal 0.000000e+000 0.000000e+000 -9.321016e-001
    outer loop
      vertex   -2.072518e+001 2.014057e+002 0.000000e+000
      vertex   -2.922255e+001 2.015557e+002 0.000000e+000
      vertex   -2.083498e+001 2.017037e+002 0.000000e+000
    endloop
  endfacet
  facet normal -0.000000e+000 0.000000e+000 -3.529107e-002
    outer loop
      vertex   -2.083498e+001 2.017037e+002 0.000000e+000
      vertex   -2.922255e+001 2.015557e+002 0.000000e+000
      vertex   -2.910229e+001 2.018496e+002 0.000000e+000
    endloop
  endfacet
  facet normal 0.000000e+000 0.000000e+000 -9.042235e-001
    outer loop
      vertex   -2.083498e+001 2.017037e+002 0.000000e+000
      vertex   -2.910229e+001 2.018496e+002 0.000000e+000
      vertex   -2.096554e+001 2.019933e+002 0.000000e+000
    endloop
  endfacet
  facet normal -0.000000e+000 0.000000e+000 -3.529087e-002
    outer loop
      vertex   -2.096554e+001 2.019933e+002 0.000000e+000
      vertex   -2.910229e+001 2.018496e+002 0.000000e+000
      vertex   -2.896160e+001 2.021344e+002 0.000000e+000
    endloop
  endfacet
  facet normal 0.000000e+000 0.000000e+000 -8.718470e-001
    outer loop
      vertex   -2.096554e+001 2.019933e+002 0.000000e+000
      vertex   -2.896160e+001 2.021344e+002 0.000000e+000
      vertex   -2.111619e+001 2.022729e+002 0.000000e+000
    endloop
  endfacet
  facet normal -0.000000e+000 0.000000e+000 -3.529258e-002
    outer loop
      vertex   -2.111619e+001 2.022729e+002 0.000000e+000
      vertex   -2.896160e+001 2.021344e+002 0.000000e+000
      vertex   -2.880118e+001 2.024085e+002 0.000000e+000
    endloop
  endfacet
  facet normal 0.000000e+000 0.000000e+000 -8.351251e-001
    outer loop
      vertex   -2.111619e+001 2.022729e+002 0.000000e+000
      vertex   -2.880118e+001 2.024085e+002 0.000000e+000
      vertex   -2.128619e+001 2.025412e+002 0.000000e+000
    endloop
  endfacet
  facet normal -0.000000e+000 0.000000e+000 -3.529138e-002
    outer loop
      vertex   -2.128619e+001 2.025412e+002 0.000000e+000
      vertex   -2.880118e+001 2.024085e+002 0.000000e+000
      vertex   -2.862181e+001 2.026707e+002 0.000000e+000
    endloop
  endfacet
  facet normal 0.000000e+000 0.000000e+000 -7.942568e-001
    outer loop
      vertex   -2.128619e+001 2.025412e+002 0.000000e+000
      vertex   -2.862181e+001 2.026707e+002 0.000000e+000
      vertex   -2.147470e+001 2.027968e+002 0.000000e+000
    endloop
  endfacet
  facet normal -0.000000e+000 0.000000e+000 -3.529127e-002
    outer loop
      vertex   -2.147470e+001 2.027968e+002 0.000000e+000
      vertex   -2.862181e+001 2.026707e+002 0.000000e+000
      vertex   -2.842440e+001 2.029195e+002 0.000000e+000
    endloop
  endfacet
  facet normal 0.000000e+000 0.000000e+000 -7.494044e-001
    outer loop
      vertex   -2.147470e+001 2.027968e+002 0.000000e+000
      vertex   -2.842440e+001 2.029195e+002 0.000000e+000
      vertex   -2.168076e+001 2.030385e+002 0.000000e+000
    endloop
  endfacet
  facet normal -0.000000e+000 0.000000e+000 -3.529175e-002
    outer loop
      vertex   -2.168076e+001 2.030385e+002 0.000000e+000
      vertex   -2.842440e+001 2.029195e+002 0.000000e+000
      vertex   -2.820994e+001 2.031538e+002 0.000000e+000
    endloop
  endfacet
  facet normal 0.000000e+000 0.000000e+000 -7.008325e-001
    outer loop
      vertex   -2.168076e+001 2.030385e+002 0.000000e+000
      vertex   -2.820994e+001 2.031538e+002 0.000000e+000
      vertex   -2.190336e+001 2.032651e+002 0.000000e+000
    endloop
  endfacet
  facet normal -0.000000e+000 0.000000e+000 -3.529105e-002
    outer loop
      vertex   -2.190336e+001 2.032651e+002 0.000000e+000
      vertex   -2.820994e+001 2.031538e+002 0.000000e+000
      vertex   -2.797948e+001 2.033723e+002 0.000000e+000
    endloop
  endfacet
  facet normal 0.000000e+000 0.000000e+000 -6.487954e-001
    outer loop
      vertex   -2.190336e+001 2.032651e+002 0.000000e+000
      vertex   -2.797948e+001 2.033723e+002 0.000000e+000
      vertex   -2.214140e+001 2.034754e+002 0.000000e+000
    endloop
  endfacet
  facet normal -0.000000e+000 0.000000e+000 -3.529109e-002
    outer loop
      vertex   -2.214140e+001 2.034754e+002 0.000000e+000
      vertex   -2.797948e+001 2.033723e+002 0.000000e+000
      vertex   -2.773417e+001 2.035741e+002 0.000000e+000
    endloop
  endfacet
  facet normal 0.000000e+000 0.000000e+000 -5.934672e-001
    outer loop
      vertex   -2.214140e+001 2.034754e+002 0.000000e+000
      vertex   -2.773417e+001 2.035741e+002 0.000000e+000
      vertex   -2.239367e+001 2.036684e+002 0.000000e+000
    endloop
  endfacet
  facet normal -0.000000e+000 0.000000e+000 -3.529092e-002
    outer loop
      vertex   -2.239367e+001 2.036684e+002 0.000000e+000
      vertex   -2.773417e+001 2.035741e+002 0.000000e+000
      vertex   -2.747525e+001 2.037581e+002 0.000000e+000
    endloop
  endfacet
  facet normal 0.000000e+000 0.000000e+000 -5.352396e-001
    outer loop
      vertex   -2.239367e+001 2.036684e+002 0.000000e+000
      vertex   -2.747525e+001 2.037581e+002 0.000000e+000
      vertex   -2.265892e+001 2.038431e+002 0.000000e+000
    endloop
  endfacet
  facet normal -0.000000e+000 0.000000e+000 -3.529413e-002
    outer loop
      vertex   -2.265892e+001 2.038431e+002 0.000000e+000
      vertex   -2.747525e+001 2.037581e+002 0.000000e+000
      vertex   -2.720399e+001 2.039233e+002 0.000000e+000
    endloop
  endfacet
  facet normal 0.000000e+000 0.000000e+000 -4.743085e-001
    outer loop
      vertex   -2.265892e+001 2.038431e+002 0.000000e+000
      vertex   -2.720399e+001 2.039233e+002 0.000000e+000
      vertex   -2.293584e+001 2.039987e+002 0.000000e+000
    endloop
  endfacet
  facet normal -0.000000e+000 0.000000e+000 -3.529070e-002
    outer loop
      vertex   -2.293584e+001 2.039987e+002 0.000000e+000
      vertex   -2.720399e+001 2.039233e+002 0.000000e+000
      vertex   -2.692175e+001 2.040690e+002 0.000000e+000
    endloop
  endfacet
  facet normal 0.000000e+000 0.000000e+000 -4.110114e-001
    outer loop
      vertex   -2.293584e+001 2.039987e+002 0.000000e+000
      vertex   -2.692175e+001 2.040690e+002 0.000000e+000
      vertex   -2.322305e+001 2.041343e+002 0.000000e+000
    endloop
  endfacet
  facet normal -0.000000e+000 0.000000e+000 -3.528854e-002
    outer loop
      vertex   -2.322305e+001 2.041343e+002 0.000000e+000
      vertex   -2.692175e+001 2.040690e+002 0.000000e+000
      vertex   -2.662994e+001 2.041944e+002 0.000000e+000
    endloop
  endfacet
  facet normal 0.000000e+000 0.000000e+000 -3.457182e-001
    outer loop
      vertex   -2.322305e+001 2.041343e+002 0.000000e+000
      vertex   -2.662994e+001 2.041944e+002 0.000000e+000
      vertex   -2.351910e+001 2.042493e+002 0.000000e+000
    endloop
  endfacet
  facet normal -0.000000e+000 0.000000e+000 -3.529542e-002
    outer loop
      vertex   -2.351910e+001 2.042493e+002 0.000000e+000
      vertex   -2.662994e+001 2.041944e+002 0.000000e+000
      vertex   -2.633001e+001 2.042990e+002 0.000000e+000
    endloop
  endfacet
  facet normal 0.000000e+000 0.000000e+000 -2.786392e-001
    outer loop
      vertex   -2.351910e+001 2.042493e+002 0.000000e+000
      vertex   -2.633001e+001 2.042990e+002 0.000000e+000
      vertex   -2.382253e+001 2.043432e+002 0.000000e+000
    endloop
  endfacet
  facet normal -0.000000e+000 0.000000e+000 -3.528759e-002
    outer loop
      vertex   -2.382253e+001 2.043432e+002 0.000000e+000
      vertex   -2.633001e+001 2.042990e+002 0.000000e+000
      vertex   -2.602345e+001 2.043821e+002 0.000000e+000
    endloop
  endfacet
  facet normal 0.000000e+000 0.000000e+000 -2.102487e-001
    outer loop
      vertex   -2.382253e+001 2.043432e+002 0.000000e+000
      vertex   -2.602345e+001 2.043821e+002 0.000000e+000
      vertex   -2.413183e+001 2.044155e+002 0.000000e+000
    endloop
  endfacet
  facet normal -0.000000e+000 0.000000e+000 -3.529116e-002
    outer loop
      vertex   -2.413183e+001 2.044155e+002 0.000000e+000
      vertex   -2.602345e+001 2.043821e+002 0.000000e+000
      vertex   -2.571180e+001 2.044433e+002 0.000000e+000
    endloop
  endfacet
  facet normal 0.000000e+000 0.000000e+000 -1.407053e-001
    outer loop
      vertex   -2.413183e+001 2.044155e+002 0.000000e+000
      vertex   -2.571180e+001 2.044433e+002 0.000000e+000
      vertex   -2.444546e+001 2.044657e+002 0.000000e+000
    endloop
  endfacet
  facet normal -0.000000e+000 0.000000e+000 -3.528846e-002
    outer loop
      vertex   -2.444546e+001 2.044657e+002 0.000000e+000
      vertex   -2.571180e+001 2.044433e+002 0.000000e+000
      vertex   -2.539660e+001 2.044825e+002 0.000000e+000
    endloop
  endfacet
  facet normal 0.000000e+000 0.000000e+000 -7.056504e-002
    outer loop
      vertex   -2.444546e+001 2.044657e+002 0.000000e+000
      vertex   -2.539660e+001 2.044825e+002 0.000000e+000
      vertex   -2.476184e+001 2.044937e+002 0.000000e+000
    endloop
  endfacet
  facet normal -0.000000e+000 0.000000e+000 -3.529128e-002
    outer loop
      vertex   -2.476184e+001 2.044937e+002 0.000000e+000
      vertex   -2.539660e+001 2.044825e+002 0.000000e+000
      vertex   -2.507942e+001 2.044993e+002 0.000000e+000
    endloop
  endfacet
endsolid
