solid ascii
  facet normal 0.000000e+000 1.000000e+000 -0.000000e+000
    outer loop
      vertex   -3.649833e+001 1.314720e+002 4.000000e+000
      vertex   -3.784735e+001 1.314720e+002 4.000000e+000
      vertex   -3.649833e+001 1.314720e+002 4.500000e+000
    endloop
  endfacet
  facet normal 0.000000e+000 3.475349e-001 0.000000e+000
    outer loop
      vertex   -3.649833e+001 1.314720e+002 4.500000e+000
      vertex   -3.784735e+001 1.314720e+002 4.000000e+000
      vertex   -3.784735e+001 1.314720e+002 4.500000e+000
    endloop
  endfacet
  facet normal 1.000000e+000 0.000000e+000 0.000000e+000
    outer loop
      vertex   -3.649833e+001 1.300895e+002 4.000000e+000
      vertex   -3.649833e+001 1.314720e+002 4.000000e+000
      vertex   -3.649833e+001 1.300895e+002 4.500000e+000
    endloop
  endfacet
  facet normal 3.401224e-001 -0.000000e+000 0.000000e+000
    outer loop
      vertex   -3.649833e+001 1.300895e+002 4.500000e+000
      vertex   -3.649833e+001 1.314720e+002 4.000000e+000
      vertex   -3.649833e+001 1.314720e+002 4.500000e+000
    endloop
  endfacet
  facet normal 0.000000e+000 -1.000000e+000 0.000000e+000
    outer loop
      vertex   -3.784735e+001 1.300895e+002 4.000000e+000
      vertex   -3.649833e+001 1.300895e+002 4.000000e+000
      vertex   -3.784735e+001 1.300895e+002 4.500000e+000
    endloop
  endfacet
  facet normal 0.000000e+000 -3.475349e-001 0.000000e+000
    outer loop
      vertex   -3.784735e+001 1.300895e+002 4.500000e+000
      vertex   -3.649833e+001 1.300895e+002 4.000000e+000
      vertex   -3.649833e+001 1.300895e+002 4.500000e+000
    endloop
  endfacet
  facet normal -1.000000e+000 0.000000e+000 0.000000e+000
    outer loop
      vertex   -3.784735e+001 1.314720e+002 4.000000e+000
      vertex   -3.784735e+001 1.300895e+002 4.000000e+000
      vertex   -3.784735e+001 1.314720e+002 4.500000e+000
    endloop
  endfacet
  facet normal -3.401224e-001 -0.000000e+000 0.000000e+000
    outer loop
      vertex   -3.784735e+001 1.314720e+002 4.500000e+000
      vertex   -3.784735e+001 1.300895e+002 4.000000e+000
      vertex   -3.784735e+001 1.300895e+002 4.500000e+000
    endloop
  endfacet
  facet normal 0.000000e+000 0.000000e+000 1.000000e+000
    outer loop
      vertex   -3.784735e+001 1.300895e+002 4.500000e+000
      vertex   -3.649833e+001 1.300895e+002 4.500000e+000
      vertex   -3.784735e+001 1.314720e+002 4.500000e+000
    endloop
  endfacet
  facet normal -0.000000e+000 0.000000e+000 7.156972e-001
    outer loop
      vertex   -3.784735e+001 1.314720e+002 4.500000e+000
      vertex   -3.649833e+001 1.300895e+002 4.500000e+000
      vertex   -3.649833e+001 1.314720e+002 4.500000e+000
    endloop
  endfacet
  facet normal 1.000000e+000 0.000000e+000 0.000000e+000
    outer loop
      vertex   -3.500000e+001 1.250000e+002 0.000000e+000
      vertex   -3.500000e+001 1.370000e+002 0.000000e+000
      vertex   -3.500000e+001 1.250000e+002 4.000000e+000
    endloop
  endfacet
  facet normal 3.162278e-001 -0.000000e+000 0.000000e+000
    outer loop
      vertex   -3.500000e+001 1.250000e+002 4.000000e+000
      vertex   -3.500000e+001 1.370000e+002 0.000000e+000
      vertex   -3.500000e+001 1.370000e+002 4.000000e+000
    endloop
  endfacet
  facet normal 0.000000e+000 -8.944272e-001 0.000000e+000
    outer loop
      vertex   -4.000000e+001 1.250000e+002 0.000000e+000
      vertex   -3.500000e+001 1.250000e+002 0.000000e+000
      vertex   -3.800000e+001 1.250000e+002 4.000000e+000
    endloop
  endfacet
  facet normal 0.000000e+000 -8.000000e-001 0.000000e+000
    outer loop
      vertex   -3.800000e+001 1.250000e+002 4.000000e+000
      vertex   -3.500000e+001 1.250000e+002 0.000000e+000
      vertex   -3.500000e+001 1.250000e+002 4.000000e+000
    endloop
  endfacet
  facet normal -8.944272e-001 0.000000e+000 4.472136e-001
    outer loop
      vertex   -4.000000e+001 1.370000e+002 0.000000e+000
      vertex   -4.000000e+001 1.250000e+002 0.000000e+000
      vertex   -3.800000e+001 1.370000e+002 4.000000e+000
    endloop
  endfacet
  facet normal -3.123475e-001 0.000000e+000 1.561738e-001
    outer loop
      vertex   -3.800000e+001 1.370000e+002 4.000000e+000
      vertex   -4.000000e+001 1.250000e+002 0.000000e+000
      vertex   -3.800000e+001 1.250000e+002 4.000000e+000
    endloop
  endfacet
  facet normal 0.000000e+000 8.944272e-001 0.000000e+000
    outer loop
      vertex   -4.000000e+001 1.370000e+002 0.000000e+000
      vertex   -3.800000e+001 1.370000e+002 4.000000e+000
      vertex   -3.500000e+001 1.370000e+002 0.000000e+000
    endloop
  endfacet
  facet normal 0.000000e+000 6.000000e-001 -0.000000e+000
    outer loop
      vertex   -3.500000e+001 1.370000e+002 0.000000e+000
      vertex   -3.800000e+001 1.370000e+002 4.000000e+000
      vertex   -3.500000e+001 1.370000e+002 4.000000e+000
    endloop
  endfacet
  facet normal 0.000000e+000 0.000000e+000 9.650280e-001
    outer loop
      vertex   -3.649833e+001 1.314720e+002 4.000000e+000
      vertex   -3.800000e+001 1.370000e+002 4.000000e+000
      vertex   -3.784735e+001 1.314720e+002 4.000000e+000
    endloop
  endfacet
  facet normal 0.000000e+000 0.000000e+000 5.116602e-002
    outer loop
      vertex   -3.784735e+001 1.314720e+002 4.000000e+000
      vertex   -3.800000e+001 1.370000e+002 4.000000e+000
      vertex   -3.800000e+001 1.250000e+002 4.000000e+000
    endloop
  endfacet
  facet normal 0.000000e+000 0.000000e+000 2.357966e-002
    outer loop
      vertex   -3.784735e+001 1.314720e+002 4.000000e+000
      vertex   -3.800000e+001 1.250000e+002 4.000000e+000
      vertex   -3.784735e+001 1.300895e+002 4.000000e+000
    endloop
  endfacet
  facet normal -0.000000e+000 0.000000e+000 9.995505e-001
    outer loop
      vertex   -3.784735e+001 1.300895e+002 4.000000e+000
      vertex   -3.800000e+001 1.250000e+002 4.000000e+000
      vertex   -3.649833e+001 1.300895e+002 4.000000e+000
    endloop
  endfacet
  facet normal 0.000000e+000 0.000000e+000 5.423363e-001
    outer loop
      vertex   -3.649833e+001 1.300895e+002 4.000000e+000
      vertex   -3.800000e+001 1.250000e+002 4.000000e+000
      vertex   -3.500000e+001 1.250000e+002 4.000000e+000
    endloop
  endfacet
  facet normal -0.000000e+000 0.000000e+000 2.824096e-001
    outer loop
      vertex   -3.649833e+001 1.300895e+002 4.000000e+000
      vertex   -3.500000e+001 1.250000e+002 4.000000e+000
      vertex   -3.649833e+001 1.314720e+002 4.000000e+000
    endloop
  endfacet
  facet normal -0.000000e+000 0.000000e+000 4.725519e-001
    outer loop
      vertex   -3.649833e+001 1.314720e+002 4.000000e+000
      vertex   -3.500000e+001 1.250000e+002 4.000000e+000
      vertex   -3.500000e+001 1.370000e+002 4.000000e+000
    endloop
  endfacet
  facet normal 0.000000e+000 -0.000000e+000 5.054708e-001
    outer loop
      vertex   -3.649833e+001 1.314720e+002 4.000000e+000
      vertex   -3.500000e+001 1.370000e+002 4.000000e+000
      vertex   -3.800000e+001 1.370000e+002 4.000000e+000
    endloop
  endfacet
  facet normal 0.000000e+000 0.000000e+000 -1.000000e+000
    outer loop
      vertex   -4.000000e+001 1.370000e+002 0.000000e+000
      vertex   -3.500000e+001 1.370000e+002 0.000000e+000
      vertex   -4.000000e+001 1.250000e+002 0.000000e+000
    endloop
  endfacet
  facet normal 0.000000e+000 0.000000e+000 -9.230769e-001
    outer loop
      vertex   -4.000000e+001 1.250000e+002 0.000000e+000
      vertex   -3.500000e+001 1.370000e+002 0.000000e+000
      vertex   -3.500000e+001 1.250000e+002 0.000000e+000
    endloop
  endfacet
endsolid
