solid ascii
  facet normal -0.000000e+000 1.000000e+000 0.000000e+000
    outer loop
      vertex   2.034211e+001 4.650000e+001 1.900000e+001
      vertex   2.184211e+001 4.650000e+001 1.900000e+001
      vertex   2.034211e+001 4.650000e+001 1.600000e+001
    endloop
  endfacet
  facet normal 0.000000e+000 8.944272e-001 0.000000e+000
    outer loop
      vertex   2.034211e+001 4.650000e+001 1.600000e+001
      vertex   2.184211e+001 4.650000e+001 1.900000e+001
      vertex   2.184211e+001 4.650000e+001 1.600000e+001
    endloop
  endfacet
  facet normal 0.000000e+000 1.000000e+000 -0.000000e+000
    outer loop
      vertex   -3.421053e-001 4.650000e+001 1.600000e+001
      vertex   -1.842105e+000 4.650000e+001 1.600000e+001
      vertex   -3.421053e-001 4.650000e+001 1.900000e+001
    endloop
  endfacet
  facet normal 0.000000e+000 8.944272e-001 0.000000e+000
    outer loop
      vertex   -3.421053e-001 4.650000e+001 1.900000e+001
      vertex   -1.842105e+000 4.650000e+001 1.600000e+001
      vertex   -1.842105e+000 4.650000e+001 1.900000e+001
    endloop
  endfacet
  facet normal 0.000000e+000 0.000000e+000 -9.945055e-001
    outer loop
      vertex   2.184211e+001 4.650000e+001 1.900000e+001
      vertex   2.034211e+001 4.650000e+001 1.900000e+001
      vertex   2.200000e+001 4.800000e+001 1.900000e+001
    endloop
  endfacet
  facet normal 0.000000e+000 0.000000e+000 -6.197332e-001
    outer loop
      vertex   2.200000e+001 4.800000e+001 1.900000e+001
      vertex   2.034211e+001 4.650000e+001 1.900000e+001
      vertex   -3.421053e-001 4.650000e+001 1.900000e+001
    endloop
  endfacet
  facet normal -0.000000e+000 0.000000e+000 -6.698701e-002
    outer loop
      vertex   2.200000e+001 4.800000e+001 1.900000e+001
      vertex   -3.421053e-001 4.650000e+001 1.900000e+001
      vertex   -2.000000e+000 4.800000e+001 1.900000e+001
    endloop
  endfacet
  facet normal 0.000000e+000 0.000000e+000 -6.672270e-001
    outer loop
      vertex   -2.000000e+000 4.800000e+001 1.900000e+001
      vertex   -3.421053e-001 4.650000e+001 1.900000e+001
      vertex   -1.842105e+000 4.650000e+001 1.900000e+001
    endloop
  endfacet
  facet normal 0.000000e+000 -1.000000e+000 0.000000e+000
    outer loop
      vertex   -3.421053e-001 4.650000e+001 1.900000e+001
      vertex   2.034211e+001 4.650000e+001 1.900000e+001
      vertex   -3.421053e-001 4.650000e+001 2.600000e+001
    endloop
  endfacet
  facet normal 0.000000e+000 -3.205629e-001 0.000000e+000
    outer loop
      vertex   -3.421053e-001 4.650000e+001 2.600000e+001
      vertex   2.034211e+001 4.650000e+001 1.900000e+001
      vertex   2.034211e+001 4.650000e+001 2.600000e+001
    endloop
  endfacet
  facet normal -0.000000e+000 0.000000e+000 -9.945055e-001
    outer loop
      vertex   2.184211e+001 4.650000e+001 1.600000e+001
      vertex   2.146790e+001 4.294505e+001 1.600000e+001
      vertex   2.034211e+001 4.650000e+001 1.600000e+001
    endloop
  endfacet
  facet normal 0.000000e+000 -0.000000e+000 -4.000479e-001
    outer loop
      vertex   2.034211e+001 4.650000e+001 1.600000e+001
      vertex   2.146790e+001 4.294505e+001 1.600000e+001
      vertex   1.996790e+001 4.294505e+001 1.600000e+001
    endloop
  endfacet
  facet normal 9.945055e-001 -1.046847e-001 0.000000e+000
    outer loop
      vertex   2.184211e+001 4.650000e+001 1.600000e+001
      vertex   2.184211e+001 4.650000e+001 1.900000e+001
      vertex   2.146790e+001 4.294505e+001 1.600000e+001
    endloop
  endfacet
  facet normal 7.617761e-001 -8.018690e-002 0.000000e+000
    outer loop
      vertex   2.146790e+001 4.294505e+001 1.600000e+001
      vertex   2.184211e+001 4.650000e+001 1.900000e+001
      vertex   2.146790e+001 4.294505e+001 2.300000e+001
    endloop
  endfacet
  facet normal 1.729220e-001 -1.820225e-002 4.869131e-008
    outer loop
      vertex   2.146790e+001 4.294505e+001 2.300000e+001
      vertex   2.184211e+001 4.650000e+001 1.900000e+001
      vertex   2.200000e+001 4.800000e+001 1.900000e+001
    endloop
  endfacet
  facet normal 7.552956e-001 -7.950216e-002 3.169888e-006
    outer loop
      vertex   2.146790e+001 4.294505e+001 2.300000e+001
      vertex   2.200000e+001 4.800000e+001 1.900000e+001
      vertex   2.146682e+001 4.293481e+001 2.324774e+001
    endloop
  endfacet
  facet normal 6.785998e-001 -7.143468e-002 -3.712149e-006
    outer loop
      vertex   2.146682e+001 4.293481e+001 2.324774e+001
      vertex   2.200000e+001 4.800000e+001 1.900000e+001
      vertex   2.146359e+001 4.290414e+001 2.349378e+001
    endloop
  endfacet
  facet normal 9.931166e-001 -1.045384e-001 -6.938894e-018
    outer loop
      vertex   2.146359e+001 4.290414e+001 2.349378e+001
      vertex   2.200000e+001 4.800000e+001 1.900000e+001
      vertex   2.200000e+001 4.800000e+001 3.000000e+001
    endloop
  endfacet
  facet normal 7.632565e-001 -8.034870e-002 4.759585e-006
    outer loop
      vertex   2.146359e+001 4.290414e+001 2.349378e+001
      vertex   2.200000e+001 4.800000e+001 3.000000e+001
      vertex   2.145824e+001 4.285326e+001 2.373646e+001
    endloop
  endfacet
  facet normal 8.267154e-001 -8.701903e-002 -3.104356e-006
    outer loop
      vertex   2.145824e+001 4.285326e+001 2.373646e+001
      vertex   2.200000e+001 4.800000e+001 3.000000e+001
      vertex   2.145079e+001 4.278251e+001 2.397410e+001
    endloop
  endfacet
  facet normal 8.818668e-001 -9.282742e-002 -5.101386e-007
    outer loop
      vertex   2.145079e+001 4.278251e+001 2.397410e+001
      vertex   2.200000e+001 4.800000e+001 3.000000e+001
      vertex   2.144130e+001 4.269238e+001 2.420509e+001
    endloop
  endfacet
  facet normal 9.273348e-001 -9.761471e-002 5.784936e-007
    outer loop
      vertex   2.144130e+001 4.269238e+001 2.420509e+001
      vertex   2.200000e+001 4.800000e+001 3.000000e+001
      vertex   2.142984e+001 4.258348e+001 2.442784e+001
    endloop
  endfacet
  facet normal 9.618432e-001 -1.012486e-001 1.993606e-006
    outer loop
      vertex   2.142984e+001 4.258348e+001 2.442784e+001
      vertex   2.200000e+001 4.800000e+001 3.000000e+001
      vertex   2.141648e+001 4.245655e+001 2.464084e+001
    endloop
  endfacet
  facet normal 9.843424e-001 -1.036131e-001 -2.050566e-006
    outer loop
      vertex   2.141648e+001 4.245655e+001 2.464084e+001
      vertex   2.200000e+001 4.800000e+001 3.000000e+001
      vertex   2.140131e+001 4.231248e+001 2.484264e+001
    endloop
  endfacet
  facet normal 6.416303e-001 -6.753991e-002 -8.587977e-008
    outer loop
      vertex   2.140131e+001 4.231248e+001 2.484264e+001
      vertex   2.200000e+001 4.800000e+001 3.000000e+001
      vertex   2.146790e+001 4.294505e+001 2.950000e+001
    endloop
  endfacet
  facet normal 7.413350e-001 -7.803535e-002 -6.885360e-008
    outer loop
      vertex   2.140131e+001 4.231248e+001 2.484264e+001
      vertex   2.146790e+001 4.294505e+001 2.950000e+001
      vertex   2.138445e+001 4.215223e+001 2.503185e+001
    endloop
  endfacet
  facet normal 8.173707e-001 -8.603910e-002 -7.798278e-008
    outer loop
      vertex   2.138445e+001 4.215223e+001 2.503185e+001
      vertex   2.146790e+001 4.294505e+001 2.950000e+001
      vertex   2.136599e+001 4.197690e+001 2.520717e+001
    endloop
  endfacet
  facet normal 8.834907e-001 -9.299989e-002 9.079143e-008
    outer loop
      vertex   2.136599e+001 4.197690e+001 2.520717e+001
      vertex   2.146790e+001 4.294505e+001 2.950000e+001
      vertex   2.134607e+001 4.178769e+001 2.536742e+001
    endloop
  endfacet
  facet normal 9.365921e-001 -9.859145e-002 6.284805e-007
    outer loop
      vertex   2.134607e+001 4.178769e+001 2.536742e+001
      vertex   2.146790e+001 4.294505e+001 2.950000e+001
      vertex   2.132483e+001 4.158590e+001 2.551150e+001
    endloop
  endfacet
  facet normal 9.737119e-001 -1.024950e-001 -6.751526e-007
    outer loop
      vertex   2.132483e+001 4.158590e+001 2.551150e+001
      vertex   2.146790e+001 4.294505e+001 2.950000e+001
      vertex   2.130241e+001 4.137290e+001 2.563842e+001
    endloop
  endfacet
  facet normal 9.924717e-001 -1.044675e-001 -1.603508e-006
    outer loop
      vertex   2.130241e+001 4.137290e+001 2.563842e+001
      vertex   2.146790e+001 4.294505e+001 2.950000e+001
      vertex   2.127896e+001 4.115014e+001 2.574732e+001
    endloop
  endfacet
  facet normal 9.914722e-001 -1.043655e-001 -4.470230e-008
    outer loop
      vertex   2.127896e+001 4.115014e+001 2.574732e+001
      vertex   2.146790e+001 4.294505e+001 2.950000e+001
      vertex   2.125465e+001 4.091915e+001 2.583745e+001
    endloop
  endfacet
  facet normal 9.705936e-001 -1.021681e-001 1.490424e-007
    outer loop
      vertex   2.125465e+001 4.091915e+001 2.583745e+001
      vertex   2.146790e+001 4.294505e+001 2.950000e+001
      vertex   2.122963e+001 4.068151e+001 2.590820e+001
    endloop
  endfacet
  facet normal 9.310207e-001 -9.800457e-002 1.431741e-006
    outer loop
      vertex   2.122963e+001 4.068151e+001 2.590820e+001
      vertex   2.146790e+001 4.294505e+001 2.950000e+001
      vertex   2.120409e+001 4.043884e+001 2.595908e+001
    endloop
  endfacet
  facet normal 8.750408e-001 -9.210992e-002 4.237338e-009
    outer loop
      vertex   2.120409e+001 4.043884e+001 2.595908e+001
      vertex   2.146790e+001 4.294505e+001 2.950000e+001
      vertex   2.117819e+001 4.019279e+001 2.598975e+001
    endloop
  endfacet
  facet normal 8.056238e-001 -8.480125e-002 -1.237146e-006
    outer loop
      vertex   2.117819e+001 4.019279e+001 2.598975e+001
      vertex   2.146790e+001 4.294505e+001 2.950000e+001
      vertex   2.115211e+001 3.994505e+001 2.600000e+001
    endloop
  endfacet
  facet normal 8.281278e-001 -8.717132e-002 -1.905522e-007
    outer loop
      vertex   2.115211e+001 3.994505e+001 2.600000e+001
      vertex   2.146790e+001 4.294505e+001 2.950000e+001
      vertex   2.031579e+001 3.200000e+001 2.700000e+001
    endloop
  endfacet
  facet normal 1.235212e-001 -1.300223e-002 0.000000e+000
    outer loop
      vertex   2.115211e+001 3.994505e+001 2.600000e+001
      vertex   2.031579e+001 3.200000e+001 2.700000e+001
      vertex   2.031579e+001 3.200000e+001 2.600000e+001
    endloop
  endfacet
  facet normal 0.000000e+000 -9.991363e-001 -4.132362e-002
    outer loop
      vertex   -1.467901e+000 4.294505e+001 2.300000e+001
      vertex   3.209952e-002 4.294505e+001 2.300000e+001
      vertex   -1.466822e+000 4.293481e+001 2.324774e+001
    endloop
  endfacet
  facet normal 0.000000e+000 -1.630615e-001 -6.744118e-003
    outer loop
      vertex   -1.466822e+000 4.293481e+001 2.324774e+001
      vertex   3.209952e-002 4.294505e+001 2.300000e+001
      vertex   3.317811e-002 4.293481e+001 2.324774e+001
    endloop
  endfacet
  facet normal 0.000000e+000 -9.922362e-001 -1.236844e-001
    outer loop
      vertex   -1.466822e+000 4.293481e+001 2.324774e+001
      vertex   3.317811e-002 4.293481e+001 2.324774e+001
      vertex   -1.463593e+000 4.290414e+001 2.349378e+001
    endloop
  endfacet
  facet normal 0.000000e+000 -1.621744e-001 -2.021538e-002
    outer loop
      vertex   -1.463593e+000 4.290414e+001 2.349378e+001
      vertex   3.317811e-002 4.293481e+001 2.324774e+001
      vertex   3.640648e-002 4.290414e+001 2.349378e+001
    endloop
  endfacet
  facet normal 0.000000e+000 -9.784907e-001 -2.051577e-001
    outer loop
      vertex   -1.463593e+000 4.290414e+001 2.349378e+001
      vertex   3.640648e-002 4.290414e+001 2.349378e+001
      vertex   -1.458237e+000 4.285326e+001 2.373646e+001
    endloop
  endfacet
  facet normal 0.000000e+000 -1.601720e-001 -3.358288e-002
    outer loop
      vertex   -1.458237e+000 4.285326e+001 2.373646e+001
      vertex   3.640648e-002 4.290414e+001 2.349378e+001
      vertex   4.176260e-002 4.285326e+001 2.373646e+001
    endloop
  endfacet
  facet normal 0.000000e+000 -9.579933e-001 -2.852151e-001
    outer loop
      vertex   -1.458237e+000 4.285326e+001 2.373646e+001
      vertex   4.176260e-002 4.285326e+001 2.373646e+001
      vertex   -1.450790e+000 4.278251e+001 2.397410e+001
    endloop
  endfacet
  facet normal 0.000000e+000 -1.570661e-001 -4.676194e-002
    outer loop
      vertex   -1.450790e+000 4.278251e+001 2.397410e+001
      vertex   4.176260e-002 4.285326e+001 2.373646e+001
      vertex   4.920987e-002 4.278251e+001 2.397410e+001
    endloop
  endfacet
  facet normal 0.000000e+000 -9.309123e-001 -3.632360e-001
    outer loop
      vertex   -1.450790e+000 4.278251e+001 2.397410e+001
      vertex   4.920987e-002 4.278251e+001 2.397410e+001
      vertex   -1.441303e+000 4.269238e+001 2.420509e+001
    endloop
  endfacet
  facet normal 0.000000e+000 -1.528712e-001 -5.964934e-002
    outer loop
      vertex   -1.441303e+000 4.269238e+001 2.420509e+001
      vertex   4.920987e-002 4.278251e+001 2.397410e+001
      vertex   5.869742e-002 4.269238e+001 2.420509e+001
    endloop
  endfacet
  facet normal 0.000000e+000 -8.974345e-001 -4.387239e-001
    outer loop
      vertex   -1.441303e+000 4.269238e+001 2.420509e+001
      vertex   5.869742e-002 4.269238e+001 2.420509e+001
      vertex   -1.429840e+000 4.258348e+001 2.442784e+001
    endloop
  endfacet
  facet normal 0.000000e+000 -1.476146e-001 -7.216354e-002
    outer loop
      vertex   -1.429840e+000 4.258348e+001 2.442784e+001
      vertex   5.869742e-002 4.269238e+001 2.420509e+001
      vertex   7.016044e-002 4.258348e+001 2.442784e+001
    endloop
  endfacet
  facet normal 0.000000e+000 -8.578071e-001 -5.111477e-001
    outer loop
      vertex   -1.429840e+000 4.258348e+001 2.442784e+001
      vertex   7.016044e-002 4.258348e+001 2.442784e+001
      vertex   -1.416479e+000 4.245655e+001 2.464084e+001
    endloop
  endfacet
  facet normal 0.000000e+000 -1.413248e-001 -8.421225e-002
    outer loop
      vertex   -1.416479e+000 4.245655e+001 2.464084e+001
      vertex   7.016044e-002 4.258348e+001 2.442784e+001
      vertex   8.352064e-002 4.245655e+001 2.464084e+001
    endloop
  endfacet
  facet normal 0.000000e+000 -8.123317e-001 -5.799912e-001
    outer loop
      vertex   -1.416479e+000 4.245655e+001 2.464084e+001
      vertex   8.352064e-002 4.245655e+001 2.464084e+001
      vertex   -1.401313e+000 4.231248e+001 2.484264e+001
    endloop
  endfacet
  facet normal 0.000000e+000 -1.340471e-001 -9.570738e-002
    outer loop
      vertex   -1.401313e+000 4.231248e+001 2.484264e+001
      vertex   8.352064e-002 4.245655e+001 2.464084e+001
      vertex   9.868673e-002 4.231248e+001 2.484264e+001
    endloop
  endfacet
  facet normal 0.000000e+000 -7.613215e-001 -6.448120e-001
    outer loop
      vertex   -1.401313e+000 4.231248e+001 2.484264e+001
      vertex   9.868673e-002 4.231248e+001 2.484264e+001
      vertex   -1.384445e+000 4.215223e+001 2.503185e+001
    endloop
  endfacet
  facet normal 0.000000e+000 -1.258264e-001 -1.065705e-001
    outer loop
      vertex   -1.384445e+000 4.215223e+001 2.503185e+001
      vertex   9.868673e-002 4.231248e+001 2.484264e+001
      vertex   1.155551e-001 4.215223e+001 2.503185e+001
    endloop
  endfacet
  facet normal 0.000000e+000 -7.051561e-001 -7.051561e-001
    outer loop
      vertex   -1.384445e+000 4.215223e+001 2.503185e+001
      vertex   1.155551e-001 4.215223e+001 2.503185e+001
      vertex   -1.365989e+000 4.197690e+001 2.520717e+001
    endloop
  endfacet
  facet normal 0.000000e+000 -1.167176e-001 -1.167176e-001
    outer loop
      vertex   -1.365989e+000 4.197690e+001 2.520717e+001
      vertex   1.155551e-001 4.215223e+001 2.503185e+001
      vertex   1.340106e-001 4.197690e+001 2.520717e+001
    endloop
  endfacet
  facet normal 0.000000e+000 -6.442268e-001 -7.606320e-001
    outer loop
      vertex   -1.365989e+000 4.197690e+001 2.520717e+001
      vertex   1.340106e-001 4.197690e+001 2.520717e+001
      vertex   -1.346073e+000 4.178769e+001 2.536742e+001
    endloop
  endfacet
  facet normal 0.000000e+000 -1.067827e-001 -1.260772e-001
    outer loop
      vertex   -1.346073e+000 4.178769e+001 2.536742e+001
      vertex   1.340106e-001 4.197690e+001 2.520717e+001
      vertex   1.539271e-001 4.178769e+001 2.536742e+001
    endloop
  endfacet
  facet normal 0.000000e+000 -5.789546e-001 -8.108798e-001
    outer loop
      vertex   -1.346073e+000 4.178769e+001 2.536742e+001
      vertex   1.539271e-001 4.178769e+001 2.536742e+001
      vertex   -1.324831e+000 4.158590e+001 2.551150e+001
    endloop
  endfacet
  facet normal 0.000000e+000 -9.608985e-002 -1.345828e-001
    outer loop
      vertex   -1.324831e+000 4.158590e+001 2.551150e+001
      vertex   1.539271e-001 4.178769e+001 2.536742e+001
      vertex   1.751685e-001 4.158590e+001 2.551150e+001
    endloop
  endfacet
  facet normal 0.000000e+000 -5.098091e-001 -8.555606e-001
    outer loop
      vertex   -1.324831e+000 4.158590e+001 2.551150e+001
      vertex   1.751685e-001 4.158590e+001 2.551150e+001
      vertex   -1.302410e+000 4.137290e+001 2.563842e+001
    endloop
  endfacet
  facet normal 0.000000e+000 -8.471458e-002 -1.421678e-001
    outer loop
      vertex   -1.302410e+000 4.137290e+001 2.563842e+001
      vertex   1.751685e-001 4.158590e+001 2.551150e+001
      vertex   1.975898e-001 4.137290e+001 2.563842e+001
    endloop
  endfacet
  facet normal 0.000000e+000 -4.372447e-001 -8.944011e-001
    outer loop
      vertex   -1.302410e+000 4.137290e+001 2.563842e+001
      vertex   1.975898e-001 4.137290e+001 2.563842e+001
      vertex   -1.278962e+000 4.115014e+001 2.574732e+001
    endloop
  endfacet
  facet normal 0.000000e+000 -7.273330e-002 -1.487788e-001
    outer loop
      vertex   -1.278962e+000 4.115014e+001 2.574732e+001
      vertex   1.975898e-001 4.137290e+001 2.563842e+001
      vertex   2.210378e-001 4.115014e+001 2.574732e+001
    endloop
  endfacet
  facet normal 0.000000e+000 -3.617680e-001 -9.271460e-001
    outer loop
      vertex   -1.278962e+000 4.115014e+001 2.574732e+001
      vertex   2.210378e-001 4.115014e+001 2.574732e+001
      vertex   -1.254648e+000 4.091915e+001 2.583745e+001
    endloop
  endfacet
  facet normal 0.000000e+000 -6.023353e-002 -1.543676e-001
    outer loop
      vertex   -1.254648e+000 4.091915e+001 2.583745e+001
      vertex   2.210378e-001 4.115014e+001 2.574732e+001
      vertex   2.453523e-001 4.091915e+001 2.583745e+001
    endloop
  endfacet
  facet normal 0.000000e+000 -2.838976e-001 -9.535860e-001
    outer loop
      vertex   -1.254648e+000 4.091915e+001 2.583745e+001
      vertex   2.453523e-001 4.091915e+001 2.583745e+001
      vertex   -1.229633e+000 4.068151e+001 2.590820e+001
    endloop
  endfacet
  facet normal 0.000000e+000 -4.730241e-002 -1.588845e-001
    outer loop
      vertex   -1.229633e+000 4.068151e+001 2.590820e+001
      vertex   2.453523e-001 4.091915e+001 2.583745e+001
      vertex   2.703673e-001 4.068151e+001 2.590820e+001
    endloop
  endfacet
  facet normal 0.000000e+000 -2.041325e-001 -9.735644e-001
    outer loop
      vertex   -1.229633e+000 4.068151e+001 2.590820e+001
      vertex   2.703673e-001 4.068151e+001 2.590820e+001
      vertex   -1.204088e+000 4.043884e+001 2.595908e+001
    endloop
  endfacet
  facet normal 0.000000e+000 -3.403141e-002 -1.623052e-001
    outer loop
      vertex   -1.204088e+000 4.043884e+001 2.595908e+001
      vertex   2.703673e-001 4.068151e+001 2.590820e+001
      vertex   2.959118e-001 4.043884e+001 2.595908e+001
    endloop
  endfacet
  facet normal 0.000000e+000 -1.230246e-001 -9.869509e-001
    outer loop
      vertex   -1.204088e+000 4.043884e+001 2.595908e+001
      vertex   2.959118e-001 4.043884e+001 2.595908e+001
      vertex   -1.178189e+000 4.019279e+001 2.598975e+001
    endloop
  endfacet
  facet normal 0.000000e+000 -2.051779e-002 -1.646017e-001
    outer loop
      vertex   -1.178189e+000 4.019279e+001 2.598975e+001
      vertex   2.959118e-001 4.043884e+001 2.595908e+001
      vertex   3.218113e-001 4.019279e+001 2.598975e+001
    endloop
  endfacet
  facet normal 0.000000e+000 -4.109735e-002 -9.936653e-001
    outer loop
      vertex   -1.178189e+000 4.019279e+001 2.598975e+001
      vertex   3.218113e-001 4.019279e+001 2.598975e+001
      vertex   -1.152111e+000 3.994505e+001 2.600000e+001
    endloop
  endfacet
  facet normal 0.000000e+000 -6.855382e-003 -1.657517e-001
    outer loop
      vertex   -1.152111e+000 3.994505e+001 2.600000e+001
      vertex   3.218113e-001 4.019279e+001 2.598975e+001
      vertex   3.478890e-001 3.994505e+001 2.600000e+001
    endloop
  endfacet
  facet normal 0.000000e+000 0.000000e+000 -9.945055e-001
    outer loop
      vertex   -1.152111e+000 3.994505e+001 2.600000e+001
      vertex   3.478890e-001 3.994505e+001 2.600000e+001
      vertex   -3.157895e-001 3.200000e+001 2.600000e+001
    endloop
  endfacet
  facet normal 0.000000e+000 0.000000e+000 -8.951507e-001
    outer loop
      vertex   -3.157895e-001 3.200000e+001 2.600000e+001
      vertex   3.478890e-001 3.994505e+001 2.600000e+001
      vertex   1.965211e+001 3.994505e+001 2.600000e+001
    endloop
  endfacet
  facet normal 0.000000e+000 0.000000e+000 -3.697010e-001
    outer loop
      vertex   -3.157895e-001 3.200000e+001 2.600000e+001
      vertex   1.965211e+001 3.994505e+001 2.600000e+001
      vertex   2.031579e+001 3.200000e+001 2.600000e+001
    endloop
  endfacet
  facet normal 0.000000e+000 0.000000e+000 -1.871077e-001
    outer loop
      vertex   2.031579e+001 3.200000e+001 2.600000e+001
      vertex   1.965211e+001 3.994505e+001 2.600000e+001
      vertex   2.115211e+001 3.994505e+001 2.600000e+001
    endloop
  endfacet
  facet normal 0.000000e+000 0.000000e+000 -9.945055e-001
    outer loop
      vertex   -3.421053e-001 4.650000e+001 2.600000e+001
      vertex   2.034211e+001 4.650000e+001 2.600000e+001
      vertex   3.478890e-001 3.994505e+001 2.600000e+001
    endloop
  endfacet
  facet normal 0.000000e+000 0.000000e+000 -3.115278e-001
    outer loop
      vertex   3.478890e-001 3.994505e+001 2.600000e+001
      vertex   2.034211e+001 4.650000e+001 2.600000e+001
      vertex   1.965211e+001 3.994505e+001 2.600000e+001
    endloop
  endfacet
  facet normal 0.000000e+000 -4.109735e-002 -9.936654e-001
    outer loop
      vertex   1.965211e+001 3.994505e+001 2.600000e+001
      vertex   1.967819e+001 4.019279e+001 2.598975e+001
      vertex   2.115211e+001 3.994505e+001 2.600000e+001
    endloop
  endfacet
  facet normal 0.000000e+000 -4.124493e-002 -9.972336e-001
    outer loop
      vertex   2.115211e+001 3.994505e+001 2.600000e+001
      vertex   1.967819e+001 4.019279e+001 2.598975e+001
      vertex   2.117819e+001 4.019279e+001 2.598975e+001
    endloop
  endfacet
  facet normal -0.000000e+000 -2.051779e-002 -1.646017e-001
    outer loop
      vertex   2.117819e+001 4.019279e+001 2.598975e+001
      vertex   1.967819e+001 4.019279e+001 2.598975e+001
      vertex   1.970409e+001 4.043884e+001 2.595908e+001
    endloop
  endfacet
  facet normal 0.000000e+000 -1.234519e-001 -9.903787e-001
    outer loop
      vertex   2.117819e+001 4.019279e+001 2.598975e+001
      vertex   1.970409e+001 4.043884e+001 2.595908e+001
      vertex   2.120409e+001 4.043884e+001 2.595908e+001
    endloop
  endfacet
  facet normal -0.000000e+000 -3.403142e-002 -1.623053e-001
    outer loop
      vertex   2.120409e+001 4.043884e+001 2.595908e+001
      vertex   1.970409e+001 4.043884e+001 2.595908e+001
      vertex   1.972963e+001 4.068151e+001 2.590820e+001
    endloop
  endfacet
  facet normal 0.000000e+000 -2.047936e-001 -9.767173e-001
    outer loop
      vertex   2.120409e+001 4.043884e+001 2.595908e+001
      vertex   1.972963e+001 4.068151e+001 2.590820e+001
      vertex   2.122963e+001 4.068151e+001 2.590820e+001
    endloop
  endfacet
  facet normal -0.000000e+000 -4.730241e-002 -1.588845e-001
    outer loop
      vertex   2.122963e+001 4.068151e+001 2.590820e+001
      vertex   1.972963e+001 4.068151e+001 2.590820e+001
      vertex   1.975465e+001 4.091915e+001 2.583745e+001
    endloop
  endfacet
  facet normal 6.938894e-018 -2.847175e-001 -9.563402e-001
    outer loop
      vertex   2.122963e+001 4.068151e+001 2.590820e+001
      vertex   1.975465e+001 4.091915e+001 2.583745e+001
      vertex   2.125465e+001 4.091915e+001 2.583745e+001
    endloop
  endfacet
  facet normal -0.000000e+000 -6.023355e-002 -1.543677e-001
    outer loop
      vertex   2.125465e+001 4.091915e+001 2.583745e+001
      vertex   1.975465e+001 4.091915e+001 2.583745e+001
      vertex   1.977896e+001 4.115014e+001 2.574732e+001
    endloop
  endfacet
  facet normal -6.938894e-018 -3.626452e-001 -9.293941e-001
    outer loop
      vertex   2.125465e+001 4.091915e+001 2.583745e+001
      vertex   1.977896e+001 4.115014e+001 2.574732e+001
      vertex   2.127896e+001 4.115014e+001 2.574732e+001
    endloop
  endfacet
  facet normal -0.000000e+000 -7.273325e-002 -1.487787e-001
    outer loop
      vertex   2.127896e+001 4.115014e+001 2.574732e+001
      vertex   1.977896e+001 4.115014e+001 2.574732e+001
      vertex   1.980241e+001 4.137290e+001 2.563842e+001
    endloop
  endfacet
  facet normal -1.387779e-017 -4.380548e-001 -8.960581e-001
    outer loop
      vertex   2.127896e+001 4.115014e+001 2.574732e+001
      vertex   1.980241e+001 4.137290e+001 2.563842e+001
      vertex   2.130241e+001 4.137290e+001 2.563842e+001
    endloop
  endfacet
  facet normal -0.000000e+000 -8.471455e-002 -1.421678e-001
    outer loop
      vertex   2.130241e+001 4.137290e+001 2.563842e+001
      vertex   1.980241e+001 4.137290e+001 2.563842e+001
      vertex   1.982483e+001 4.158590e+001 2.551150e+001
    endloop
  endfacet
  facet normal -1.387779e-017 -5.104086e-001 -8.565665e-001
    outer loop
      vertex   2.130241e+001 4.137290e+001 2.563842e+001
      vertex   1.982483e+001 4.158590e+001 2.551150e+001
      vertex   2.132483e+001 4.158590e+001 2.551150e+001
    endloop
  endfacet
  facet normal -0.000000e+000 -9.608990e-002 -1.345828e-001
    outer loop
      vertex   2.132483e+001 4.158590e+001 2.551150e+001
      vertex   1.982483e+001 4.158590e+001 2.551150e+001
      vertex   1.984607e+001 4.178769e+001 2.536742e+001
    endloop
  endfacet
  facet normal 0.000000e+000 -5.791857e-001 -8.112034e-001
    outer loop
      vertex   2.132483e+001 4.158590e+001 2.551150e+001
      vertex   1.984607e+001 4.178769e+001 2.536742e+001
      vertex   2.134607e+001 4.178769e+001 2.536742e+001
    endloop
  endfacet
  facet normal -0.000000e+000 -1.067827e-001 -1.260772e-001
    outer loop
      vertex   2.134607e+001 4.178769e+001 2.536742e+001
      vertex   1.984607e+001 4.178769e+001 2.536742e+001
      vertex   1.986599e+001 4.197690e+001 2.520717e+001
    endloop
  endfacet
  facet normal 1.387779e-017 -6.439227e-001 -7.602729e-001
    outer loop
      vertex   2.134607e+001 4.178769e+001 2.536742e+001
      vertex   1.986599e+001 4.197690e+001 2.520717e+001
      vertex   2.136599e+001 4.197690e+001 2.520717e+001
    endloop
  endfacet
  facet normal -0.000000e+000 -1.167176e-001 -1.167176e-001
    outer loop
      vertex   2.136599e+001 4.197690e+001 2.520717e+001
      vertex   1.986599e+001 4.197690e+001 2.520717e+001
      vertex   1.988445e+001 4.215223e+001 2.503185e+001
    endloop
  endfacet
  facet normal 0.000000e+000 -7.041470e-001 -7.041470e-001
    outer loop
      vertex   2.136599e+001 4.197690e+001 2.520717e+001
      vertex   1.988445e+001 4.215223e+001 2.503185e+001
      vertex   2.138445e+001 4.215223e+001 2.503185e+001
    endloop
  endfacet
  facet normal -0.000000e+000 -1.258264e-001 -1.065705e-001
    outer loop
      vertex   2.138445e+001 4.215223e+001 2.503185e+001
      vertex   1.988445e+001 4.215223e+001 2.503185e+001
      vertex   1.990131e+001 4.231248e+001 2.484264e+001
    endloop
  endfacet
  facet normal 0.000000e+000 -7.594407e-001 -6.432190e-001
    outer loop
      vertex   2.138445e+001 4.215223e+001 2.503185e+001
      vertex   1.990131e+001 4.231248e+001 2.484264e+001
      vertex   2.140131e+001 4.231248e+001 2.484264e+001
    endloop
  endfacet
  facet normal -0.000000e+000 -1.340470e-001 -9.570733e-002
    outer loop
      vertex   2.140131e+001 4.231248e+001 2.484264e+001
      vertex   1.990131e+001 4.231248e+001 2.484264e+001
      vertex   1.991648e+001 4.245655e+001 2.464084e+001
    endloop
  endfacet
  facet normal 0.000000e+000 -8.094209e-001 -5.779129e-001
    outer loop
      vertex   2.140131e+001 4.231248e+001 2.484264e+001
      vertex   1.991648e+001 4.245655e+001 2.464084e+001
      vertex   2.141648e+001 4.245655e+001 2.464084e+001
    endloop
  endfacet
  facet normal -0.000000e+000 -1.413249e-001 -8.421230e-002
    outer loop
      vertex   2.141648e+001 4.245655e+001 2.464084e+001
      vertex   1.991648e+001 4.245655e+001 2.464084e+001
      vertex   1.992984e+001 4.258348e+001 2.442784e+001
    endloop
  endfacet
  facet normal -1.387779e-017 -8.537237e-001 -5.087146e-001
    outer loop
      vertex   2.141648e+001 4.245655e+001 2.464084e+001
      vertex   1.992984e+001 4.258348e+001 2.442784e+001
      vertex   2.142984e+001 4.258348e+001 2.442784e+001
    endloop
  endfacet
  facet normal -0.000000e+000 -1.476146e-001 -7.216355e-002
    outer loop
      vertex   2.142984e+001 4.258348e+001 2.442784e+001
      vertex   1.992984e+001 4.258348e+001 2.442784e+001
      vertex   1.994130e+001 4.269238e+001 2.420509e+001
    endloop
  endfacet
  facet normal 0.000000e+000 -8.920544e-001 -4.360938e-001
    outer loop
      vertex   2.142984e+001 4.258348e+001 2.442784e+001
      vertex   1.994130e+001 4.269238e+001 2.420509e+001
      vertex   2.144130e+001 4.269238e+001 2.420509e+001
    endloop
  endfacet
  facet normal -0.000000e+000 -1.528711e-001 -5.964932e-002
    outer loop
      vertex   2.144130e+001 4.269238e+001 2.420509e+001
      vertex   1.994130e+001 4.269238e+001 2.420509e+001
      vertex   1.995079e+001 4.278251e+001 2.397410e+001
    endloop
  endfacet
  facet normal 0.000000e+000 -9.241381e-001 -3.605927e-001
    outer loop
      vertex   2.144130e+001 4.269238e+001 2.420509e+001
      vertex   1.995079e+001 4.278251e+001 2.397410e+001
      vertex   2.145079e+001 4.278251e+001 2.397410e+001
    endloop
  endfacet
  facet normal -0.000000e+000 -1.570660e-001 -4.676191e-002
    outer loop
      vertex   2.145079e+001 4.278251e+001 2.397410e+001
      vertex   1.995079e+001 4.278251e+001 2.397410e+001
      vertex   1.995824e+001 4.285326e+001 2.373646e+001
    endloop
  endfacet
  facet normal 6.938894e-018 -9.497564e-001 -2.827628e-001
    outer loop
      vertex   2.145079e+001 4.278251e+001 2.397410e+001
      vertex   1.995824e+001 4.285326e+001 2.373646e+001
      vertex   2.145824e+001 4.285326e+001 2.373646e+001
    endloop
  endfacet
  facet normal -0.000000e+000 -1.601722e-001 -3.358291e-002
    outer loop
      vertex   2.145824e+001 4.285326e+001 2.373646e+001
      vertex   1.995824e+001 4.285326e+001 2.373646e+001
      vertex   1.996359e+001 4.290414e+001 2.349378e+001
    endloop
  endfacet
  facet normal -6.938894e-018 -9.687583e-001 -2.031172e-001
    outer loop
      vertex   2.145824e+001 4.285326e+001 2.373646e+001
      vertex   1.996359e+001 4.290414e+001 2.349378e+001
      vertex   2.146359e+001 4.290414e+001 2.349378e+001
    endloop
  endfacet
  facet normal -0.000000e+000 -1.621742e-001 -2.021536e-002
    outer loop
      vertex   2.146359e+001 4.290414e+001 2.349378e+001
      vertex   1.996359e+001 4.290414e+001 2.349378e+001
      vertex   1.996682e+001 4.293481e+001 2.324774e+001
    endloop
  endfacet
  facet normal 3.469447e-018 -9.810063e-001 -1.222845e-001
    outer loop
      vertex   2.146359e+001 4.290414e+001 2.349378e+001
      vertex   1.996682e+001 4.293481e+001 2.324774e+001
      vertex   2.146682e+001 4.293481e+001 2.324774e+001
    endloop
  endfacet
  facet normal -0.000000e+000 -1.630616e-001 -6.744123e-003
    outer loop
      vertex   2.146682e+001 4.293481e+001 2.324774e+001
      vertex   1.996682e+001 4.293481e+001 2.324774e+001
      vertex   1.996790e+001 4.294505e+001 2.300000e+001
    endloop
  endfacet
  facet normal -8.673617e-019 -9.864507e-001 -4.079895e-002
    outer loop
      vertex   2.146682e+001 4.293481e+001 2.324774e+001
      vertex   1.996790e+001 4.294505e+001 2.300000e+001
      vertex   2.146790e+001 4.294505e+001 2.300000e+001
    endloop
  endfacet
  facet normal -0.000000e+000 -1.000000e+000 -0.000000e+000
    outer loop
      vertex   2.146790e+001 4.294505e+001 2.300000e+001
      vertex   1.996790e+001 4.294505e+001 2.300000e+001
      vertex   2.146790e+001 4.294505e+001 1.600000e+001
    endloop
  endfacet
  facet normal 0.000000e+000 -9.778024e-001 0.000000e+000
    outer loop
      vertex   2.146790e+001 4.294505e+001 1.600000e+001
      vertex   1.996790e+001 4.294505e+001 2.300000e+001
      vertex   1.996790e+001 4.294505e+001 1.600000e+001
    endloop
  endfacet
  facet normal -9.945055e-001 -1.046847e-001 0.000000e+000
    outer loop
      vertex   -1.842105e+000 4.650000e+001 1.600000e+001
      vertex   -1.467901e+000 4.294505e+001 1.600000e+001
      vertex   -1.842105e+000 4.650000e+001 1.900000e+001
    endloop
  endfacet
  facet normal -9.940255e-001 -1.046342e-001 0.000000e+000
    outer loop
      vertex   -1.842105e+000 4.650000e+001 1.900000e+001
      vertex   -1.467901e+000 4.294505e+001 1.600000e+001
      vertex   -1.467901e+000 4.294505e+001 2.300000e+001
    endloop
  endfacet
  facet normal -7.415481e-001 -7.805768e-002 -3.097473e-008
    outer loop
      vertex   -1.842105e+000 4.650000e+001 1.900000e+001
      vertex   -1.467901e+000 4.294505e+001 2.300000e+001
      vertex   -2.000000e+000 4.800000e+001 1.900000e+001
    endloop
  endfacet
  facet normal -2.823830e-002 -2.972447e-003 5.959812e-009
    outer loop
      vertex   -2.000000e+000 4.800000e+001 1.900000e+001
      vertex   -1.467901e+000 4.294505e+001 2.300000e+001
      vertex   -1.466822e+000 4.293481e+001 2.324774e+001
    endloop
  endfacet
  facet normal -2.469015e-002 -2.598964e-003 -1.312533e-009
    outer loop
      vertex   -2.000000e+000 4.800000e+001 1.900000e+001
      vertex   -1.466822e+000 4.293481e+001 2.324774e+001
      vertex   -1.463593e+000 4.290414e+001 2.349378e+001
    endloop
  endfacet
  facet normal -7.476985e-001 -7.870509e-002 0.000000e+000
    outer loop
      vertex   -2.000000e+000 4.800000e+001 1.900000e+001
      vertex   -1.463593e+000 4.290414e+001 2.349378e+001
      vertex   -2.000000e+000 4.800000e+001 3.000000e+001
    endloop
  endfacet
  facet normal -2.329775e-002 -2.452417e-003 1.816977e-008
    outer loop
      vertex   -2.000000e+000 4.800000e+001 3.000000e+001
      vertex   -1.463593e+000 4.290414e+001 2.349378e+001
      vertex   -1.458237e+000 4.285326e+001 2.373646e+001
    endloop
  endfacet
  facet normal -2.566768e-002 -2.701837e-003 -1.999325e-008
    outer loop
      vertex   -2.000000e+000 4.800000e+001 3.000000e+001
      vertex   -1.458237e+000 4.285326e+001 2.373646e+001
      vertex   -1.450790e+000 4.278251e+001 2.397410e+001
    endloop
  endfacet
  facet normal -8.818667e-001 -9.282889e-002 7.339582e-007
    outer loop
      vertex   -1.450790e+000 4.278251e+001 2.397410e+001
      vertex   -1.441303e+000 4.269238e+001 2.420509e+001
      vertex   -2.000000e+000 4.800000e+001 3.000000e+001
    endloop
  endfacet
  facet normal -2.954105e-002 -3.109581e-003 -3.455328e-009
    outer loop
      vertex   -2.000000e+000 4.800000e+001 3.000000e+001
      vertex   -1.441303e+000 4.269238e+001 2.420509e+001
      vertex   -1.429840e+000 4.258348e+001 2.442784e+001
    endloop
  endfacet
  facet normal -3.088727e-002 -3.251291e-003 -1.286712e-009
    outer loop
      vertex   -2.000000e+000 4.800000e+001 3.000000e+001
      vertex   -1.429840e+000 4.258348e+001 2.442784e+001
      vertex   -1.416479e+000 4.245655e+001 2.464084e+001
    endloop
  endfacet
  facet normal -9.843422e-001 -1.036150e-001 3.150777e-008
    outer loop
      vertex   -1.416479e+000 4.245655e+001 2.464084e+001
      vertex   -1.401313e+000 4.231248e+001 2.484264e+001
      vertex   -2.000000e+000 4.800000e+001 3.000000e+001
    endloop
  endfacet
  facet normal -5.905236e-001 -6.216035e-002 -3.689426e-008
    outer loop
      vertex   -2.000000e+000 4.800000e+001 3.000000e+001
      vertex   -1.401313e+000 4.231248e+001 2.484264e+001
      vertex   -1.467901e+000 4.294505e+001 2.950000e+001
    endloop
  endfacet
  facet normal -4.059296e-002 -4.272920e-003 -5.513920e-009
    outer loop
      vertex   -1.467901e+000 4.294505e+001 2.950000e+001
      vertex   -1.401313e+000 4.231248e+001 2.484264e+001
      vertex   -1.384445e+000 4.215223e+001 2.503185e+001
    endloop
  endfacet
  facet normal -4.616899e-002 -4.859868e-003 -5.997063e-009
    outer loop
      vertex   -1.467901e+000 4.294505e+001 2.950000e+001
      vertex   -1.384445e+000 4.215223e+001 2.503185e+001
      vertex   -1.365989e+000 4.197690e+001 2.520717e+001
    endloop
  endfacet
  facet normal -8.834907e-001 -9.299982e-002 1.731885e-007
    outer loop
      vertex   -1.365989e+000 4.197690e+001 2.520717e+001
      vertex   -1.346073e+000 4.178769e+001 2.536742e+001
      vertex   -1.467901e+000 4.294505e+001 2.950000e+001
    endloop
  endfacet
  facet normal -5.528226e-002 -5.819185e-003 -3.320333e-009
    outer loop
      vertex   -1.467901e+000 4.294505e+001 2.950000e+001
      vertex   -1.346073e+000 4.178769e+001 2.536742e+001
      vertex   -1.324831e+000 4.158590e+001 2.551150e+001
    endloop
  endfacet
  facet normal -5.809676e-002 -6.115490e-003 1.098962e-008
    outer loop
      vertex   -1.467901e+000 4.294505e+001 2.950000e+001
      vertex   -1.324831e+000 4.158590e+001 2.551150e+001
      vertex   -1.302410e+000 4.137290e+001 2.563842e+001
    endloop
  endfacet
  facet normal -9.924713e-001 -1.044709e-001 -7.447729e-009
    outer loop
      vertex   -1.302410e+000 4.137290e+001 2.563842e+001
      vertex   -1.278962e+000 4.115014e+001 2.574732e+001
      vertex   -1.467901e+000 4.294505e+001 2.950000e+001
    endloop
  endfacet
  facet normal -5.894085e-002 -6.204200e-003 -5.485611e-008
    outer loop
      vertex   -1.467901e+000 4.294505e+001 2.950000e+001
      vertex   -1.278962e+000 4.115014e+001 2.574732e+001
      vertex   -1.254648e+000 4.091915e+001 2.583745e+001
    endloop
  endfacet
  facet normal -5.688288e-002 -5.987716e-003 2.546604e-008
    outer loop
      vertex   -1.467901e+000 4.294505e+001 2.950000e+001
      vertex   -1.254648e+000 4.091915e+001 2.583745e+001
      vertex   -1.229633e+000 4.068151e+001 2.590820e+001
    endloop
  endfacet
  facet normal -9.310209e-001 -9.800257e-002 1.861254e-007
    outer loop
      vertex   -1.229633e+000 4.068151e+001 2.590820e+001
      vertex   -1.204088e+000 4.043884e+001 2.595908e+001
      vertex   -1.467901e+000 4.294505e+001 2.950000e+001
    endloop
  endfacet
  facet normal -4.880307e-002 -5.137119e-003 -3.684103e-008
    outer loop
      vertex   -1.467901e+000 4.294505e+001 2.950000e+001
      vertex   -1.204088e+000 4.043884e+001 2.595908e+001
      vertex   -1.178189e+000 4.019279e+001 2.598975e+001
    endloop
  endfacet
  facet normal -4.346988e-002 -4.575769e-003 -6.228804e-009
    outer loop
      vertex   -1.467901e+000 4.294505e+001 2.950000e+001
      vertex   -1.178189e+000 4.019279e+001 2.598975e+001
      vertex   -1.152111e+000 3.994505e+001 2.600000e+001
    endloop
  endfacet
  facet normal -9.945055e-001 -1.046848e-001 0.000000e+000
    outer loop
      vertex   -3.157895e-001 3.200000e+001 2.600000e+001
      vertex   -3.157895e-001 3.200000e+001 2.700000e+001
      vertex   -1.152111e+000 3.994505e+001 2.600000e+001
    endloop
  endfacet
  facet normal -8.281278e-001 -8.717137e-002 1.988255e-008
    outer loop
      vertex   -1.152111e+000 3.994505e+001 2.600000e+001
      vertex   -3.157895e-001 3.200000e+001 2.700000e+001
      vertex   -1.467901e+000 4.294505e+001 2.950000e+001
    endloop
  endfacet
  facet normal -0.000000e+000 -1.000000e+000 -0.000000e+000
    outer loop
      vertex   3.209952e-002 4.294505e+001 2.300000e+001
      vertex   -1.467901e+000 4.294505e+001 2.300000e+001
      vertex   3.209952e-002 4.294505e+001 1.600000e+001
    endloop
  endfacet
  facet normal 0.000000e+000 -9.778024e-001 0.000000e+000
    outer loop
      vertex   3.209952e-002 4.294505e+001 1.600000e+001
      vertex   -1.467901e+000 4.294505e+001 2.300000e+001
      vertex   -1.467901e+000 4.294505e+001 1.600000e+001
    endloop
  endfacet
  facet normal 7.617761e-001 8.018693e-002 -0.000000e+000
    outer loop
      vertex   3.209952e-002 4.294505e+001 1.600000e+001
      vertex   -3.421053e-001 4.650000e+001 1.900000e+001
      vertex   3.209952e-002 4.294505e+001 2.300000e+001
    endloop
  endfacet
  facet normal 9.940255e-001 1.046342e-001 0.000000e+000
    outer loop
      vertex   3.209952e-002 4.294505e+001 2.300000e+001
      vertex   -3.421053e-001 4.650000e+001 1.900000e+001
      vertex   -3.421053e-001 4.650000e+001 2.600000e+001
    endloop
  endfacet
  facet normal 7.876834e-001 8.291408e-002 -8.688439e-008
    outer loop
      vertex   3.209952e-002 4.294505e+001 2.300000e+001
      vertex   -3.421053e-001 4.650000e+001 2.600000e+001
      vertex   3.317811e-002 4.293481e+001 2.324774e+001
    endloop
  endfacet
  facet normal 8.580324e-001 9.031902e-002 2.022232e-007
    outer loop
      vertex   3.317811e-002 4.293481e+001 2.324774e+001
      vertex   -3.421053e-001 4.650000e+001 2.600000e+001
      vertex   3.640648e-002 4.290414e+001 2.349378e+001
    endloop
  endfacet
  facet normal 9.166473e-001 9.648980e-002 -9.412050e-007
    outer loop
      vertex   3.640648e-002 4.290414e+001 2.349378e+001
      vertex   -3.421053e-001 4.650000e+001 2.600000e+001
      vertex   4.176260e-002 4.285326e+001 2.373646e+001
    endloop
  endfacet
  facet normal 9.605251e-001 1.011074e-001 7.734335e-007
    outer loop
      vertex   4.176260e-002 4.285326e+001 2.373646e+001
      vertex   -3.421053e-001 4.650000e+001 2.600000e+001
      vertex   4.920987e-002 4.278251e+001 2.397410e+001
    endloop
  endfacet
  facet normal 9.870208e-001 1.038973e-001 -7.210941e-007
    outer loop
      vertex   4.920987e-002 4.278251e+001 2.397410e+001
      vertex   -3.421053e-001 4.650000e+001 2.600000e+001
      vertex   5.869742e-002 4.269238e+001 2.420509e+001
    endloop
  endfacet
  facet normal 9.943354e-001 1.046670e-001 -1.920171e-007
    outer loop
      vertex   5.869742e-002 4.269238e+001 2.420509e+001
      vertex   -3.421053e-001 4.650000e+001 2.600000e+001
      vertex   7.016044e-002 4.258348e+001 2.442784e+001
    endloop
  endfacet
  facet normal 9.818057e-001 1.033479e-001 3.131155e-007
    outer loop
      vertex   7.016044e-002 4.258348e+001 2.442784e+001
      vertex   -3.421053e-001 4.650000e+001 2.600000e+001
      vertex   8.352064e-002 4.245655e+001 2.464084e+001
    endloop
  endfacet
  facet normal 9.500741e-001 1.000079e-001 -2.363314e-007
    outer loop
      vertex   8.352064e-002 4.245655e+001 2.464084e+001
      vertex   -3.421053e-001 4.650000e+001 2.600000e+001
      vertex   9.868673e-002 4.231248e+001 2.484264e+001
    endloop
  endfacet
  facet normal 9.009601e-001 9.483773e-002 7.639011e-007
    outer loop
      vertex   9.868673e-002 4.231248e+001 2.484264e+001
      vertex   -3.421053e-001 4.650000e+001 2.600000e+001
      vertex   1.155551e-001 4.215223e+001 2.503185e+001
    endloop
  endfacet
  facet normal 8.371595e-001 8.812202e-002 7.666696e-008
    outer loop
      vertex   1.155551e-001 4.215223e+001 2.503185e+001
      vertex   -3.421053e-001 4.650000e+001 2.600000e+001
      vertex   1.340106e-001 4.197690e+001 2.520717e+001
    endloop
  endfacet
  facet normal 7.617933e-001 8.018885e-002 -5.720387e-007
    outer loop
      vertex   1.340106e-001 4.197690e+001 2.520717e+001
      vertex   -3.421053e-001 4.650000e+001 2.600000e+001
      vertex   1.539271e-001 4.178769e+001 2.536742e+001
    endloop
  endfacet
  facet normal 6.780122e-001 7.136971e-002 -1.869958e-009
    outer loop
      vertex   1.539271e-001 4.178769e+001 2.536742e+001
      vertex   -3.421053e-001 4.650000e+001 2.600000e+001
      vertex   1.751685e-001 4.158590e+001 2.551150e+001
    endloop
  endfacet
  facet normal 5.887202e-001 6.197059e-002 -3.967742e-007
    outer loop
      vertex   1.751685e-001 4.158590e+001 2.551150e+001
      vertex   -3.421053e-001 4.650000e+001 2.600000e+001
      vertex   1.975898e-001 4.137290e+001 2.563842e+001
    endloop
  endfacet
  facet normal 4.963521e-001 5.224762e-002 -1.744197e-007
    outer loop
      vertex   1.975898e-001 4.137290e+001 2.563842e+001
      vertex   -3.421053e-001 4.650000e+001 2.600000e+001
      vertex   2.210378e-001 4.115014e+001 2.574732e+001
    endloop
  endfacet
  facet normal 4.028856e-001 4.240896e-002 1.460001e-006
    outer loop
      vertex   2.210378e-001 4.115014e+001 2.574732e+001
      vertex   -3.421053e-001 4.650000e+001 2.600000e+001
      vertex   2.453523e-001 4.091915e+001 2.583745e+001
    endloop
  endfacet
  facet normal 3.098293e-001 3.261362e-002 -6.653825e-007
    outer loop
      vertex   2.453523e-001 4.091915e+001 2.583745e+001
      vertex   -3.421053e-001 4.650000e+001 2.600000e+001
      vertex   2.703673e-001 4.068151e+001 2.590820e+001
    endloop
  endfacet
  facet normal 2.182596e-001 2.297470e-002 -3.066136e-007
    outer loop
      vertex   2.703673e-001 4.068151e+001 2.590820e+001
      vertex   -3.421053e-001 4.650000e+001 2.600000e+001
      vertex   2.959118e-001 4.043884e+001 2.595908e+001
    endloop
  endfacet
  facet normal 1.289716e-001 1.357595e-002 9.245443e-007
    outer loop
      vertex   2.959118e-001 4.043884e+001 2.595908e+001
      vertex   -3.421053e-001 4.650000e+001 2.600000e+001
      vertex   3.218113e-001 4.019279e+001 2.598975e+001
    endloop
  endfacet
  facet normal 4.247685e-002 4.471247e-003 -8.616046e-008
    outer loop
      vertex   3.218113e-001 4.019279e+001 2.598975e+001
      vertex   -3.421053e-001 4.650000e+001 2.600000e+001
      vertex   3.478890e-001 3.994505e+001 2.600000e+001
    endloop
  endfacet
  facet normal 6.393264e-001 6.729749e-002 -1.387779e-017
    outer loop
      vertex   3.209952e-002 4.294505e+001 1.600000e+001
      vertex   -3.421053e-001 4.650000e+001 1.600000e+001
      vertex   -3.421053e-001 4.650000e+001 1.900000e+001
    endloop
  endfacet
  facet normal -9.945055e-001 1.046847e-001 0.000000e+000
    outer loop
      vertex   2.034211e+001 4.650000e+001 1.600000e+001
      vertex   1.996790e+001 4.294505e+001 1.600000e+001
      vertex   2.034211e+001 4.650000e+001 1.900000e+001
    endloop
  endfacet
  facet normal -9.940255e-001 1.046342e-001 0.000000e+000
    outer loop
      vertex   2.034211e+001 4.650000e+001 1.900000e+001
      vertex   1.996790e+001 4.294505e+001 1.600000e+001
      vertex   1.996790e+001 4.294505e+001 2.300000e+001
    endloop
  endfacet
  facet normal -6.626821e-001 6.975596e-002 0.000000e+000
    outer loop
      vertex   2.034211e+001 4.650000e+001 1.900000e+001
      vertex   1.996790e+001 4.294505e+001 2.300000e+001
      vertex   2.034211e+001 4.650000e+001 2.600000e+001
    endloop
  endfacet
  facet normal -4.321392e-002 4.548972e-003 -1.693493e-007
    outer loop
      vertex   2.034211e+001 4.650000e+001 2.600000e+001
      vertex   1.996790e+001 4.294505e+001 2.300000e+001
      vertex   1.996682e+001 4.293481e+001 2.324774e+001
    endloop
  endfacet
  facet normal -4.836294e-002 5.090678e-003 2.170834e-007
    outer loop
      vertex   2.034211e+001 4.650000e+001 2.600000e+001
      vertex   1.996682e+001 4.293481e+001 2.324774e+001
      vertex   1.996359e+001 4.290414e+001 2.349378e+001
    endloop
  endfacet
  facet normal -9.166472e-001 9.649345e-002 -6.309458e-006
    outer loop
      vertex   1.996359e+001 4.290414e+001 2.349378e+001
      vertex   1.995824e+001 4.285326e+001 2.373646e+001
      vertex   2.034211e+001 4.650000e+001 2.600000e+001
    endloop
  endfacet
  facet normal -5.604085e-002 5.898906e-003 2.451972e-007
    outer loop
      vertex   2.034211e+001 4.650000e+001 2.600000e+001
      vertex   1.995824e+001 4.285326e+001 2.373646e+001
      vertex   1.995079e+001 4.278251e+001 2.397410e+001
    endloop
  endfacet
  facet normal -5.791858e-002 6.096673e-003 4.252136e-008
    outer loop
      vertex   2.034211e+001 4.650000e+001 2.600000e+001
      vertex   1.995079e+001 4.278251e+001 2.397410e+001
      vertex   1.994130e+001 4.269238e+001 2.420509e+001
    endloop
  endfacet
  facet normal -9.943354e-001 1.046672e-001 -7.283550e-007
    outer loop
      vertex   1.994130e+001 4.269238e+001 2.420509e+001
      vertex   1.992984e+001 4.258348e+001 2.442784e+001
      vertex   2.034211e+001 4.650000e+001 2.600000e+001
    endloop
  endfacet
  facet normal -5.686826e-002 5.986196e-003 -1.499971e-007
    outer loop
      vertex   2.034211e+001 4.650000e+001 2.600000e+001
      vertex   1.992984e+001 4.258348e+001 2.442784e+001
      vertex   1.991648e+001 4.245655e+001 2.464084e+001
    endloop
  endfacet
  facet normal -5.404633e-002 5.689045e-003 1.587328e-007
    outer loop
      vertex   2.034211e+001 4.650000e+001 2.600000e+001
      vertex   1.991648e+001 4.245655e+001 2.464084e+001
      vertex   1.990131e+001 4.231248e+001 2.484264e+001
    endloop
  endfacet
  facet normal -9.009601e-001 9.483794e-002 2.964655e-008
    outer loop
      vertex   1.990131e+001 4.231248e+001 2.484264e+001
      vertex   1.988445e+001 4.215223e+001 2.503185e+001
      vertex   2.034211e+001 4.650000e+001 2.600000e+001
    endloop
  endfacet
  facet normal -4.508612e-002 4.745909e-003 1.702826e-009
    outer loop
      vertex   2.034211e+001 4.650000e+001 2.600000e+001
      vertex   1.988445e+001 4.215223e+001 2.503185e+001
      vertex   1.986599e+001 4.197690e+001 2.520717e+001
    endloop
  endfacet
  facet normal -3.963995e-002 4.172634e-003 -3.942693e-008
    outer loop
      vertex   2.034211e+001 4.650000e+001 2.600000e+001
      vertex   1.986599e+001 4.197690e+001 2.520717e+001
      vertex   1.984607e+001 4.178769e+001 2.536742e+001
    endloop
  endfacet
  facet normal -6.780120e-001 7.137010e-002 -2.715407e-006
    outer loop
      vertex   1.984607e+001 4.178769e+001 2.536742e+001
      vertex   1.982483e+001 4.158590e+001 2.551150e+001
      vertex   2.034211e+001 4.650000e+001 2.600000e+001
    endloop
  endfacet
  facet normal -2.836025e-002 2.985289e-003 6.683752e-008
    outer loop
      vertex   2.034211e+001 4.650000e+001 2.600000e+001
      vertex   1.982483e+001 4.158590e+001 2.551150e+001
      vertex   1.980241e+001 4.137290e+001 2.563842e+001
    endloop
  endfacet
  facet normal -2.295473e-002 2.416279e-003 1.728635e-007
    outer loop
      vertex   2.034211e+001 4.650000e+001 2.600000e+001
      vertex   1.980241e+001 4.137290e+001 2.563842e+001
      vertex   1.977896e+001 4.115014e+001 2.574732e+001
    endloop
  endfacet
  facet normal -4.028856e-001 4.240900e-002 -1.728267e-008
    outer loop
      vertex   1.977896e+001 4.115014e+001 2.574732e+001
      vertex   1.975465e+001 4.091915e+001 2.583745e+001
      vertex   2.034211e+001 4.650000e+001 2.600000e+001
    endloop
  endfacet
  facet normal -1.319552e-002 1.389002e-003 -1.778095e-008
    outer loop
      vertex   2.034211e+001 4.650000e+001 2.600000e+001
      vertex   1.975465e+001 4.091915e+001 2.583745e+001
      vertex   1.972963e+001 4.068151e+001 2.590820e+001
    endloop
  endfacet
  facet normal -8.926267e-003 9.396089e-004 -1.146489e-007
    outer loop
      vertex   2.034211e+001 4.650000e+001 2.600000e+001
      vertex   1.972963e+001 4.068151e+001 2.590820e+001
      vertex   1.970409e+001 4.043884e+001 2.595908e+001
    endloop
  endfacet
  facet normal -1.289716e-001 1.357597e-002 -2.866592e-007
    outer loop
      vertex   1.970409e+001 4.043884e+001 2.595908e+001
      vertex   1.967819e+001 4.019279e+001 2.598975e+001
      vertex   2.034211e+001 4.650000e+001 2.600000e+001
    endloop
  endfacet
  facet normal -1.606729e-003 1.691295e-004 6.534678e-008
    outer loop
      vertex   2.034211e+001 4.650000e+001 2.600000e+001
      vertex   1.967819e+001 4.019279e+001 2.598975e+001
      vertex   1.965211e+001 3.994505e+001 2.600000e+001
    endloop
  endfacet
  facet normal 0.000000e+000 -1.000000e+000 0.000000e+000
    outer loop
      vertex   -3.157895e-001 3.200000e+001 2.600000e+001
      vertex   2.031579e+001 3.200000e+001 2.600000e+001
      vertex   -3.157895e-001 3.200000e+001 2.700000e+001
    endloop
  endfacet
  facet normal 0.000000e+000 -4.841255e-002 0.000000e+000
    outer loop
      vertex   -3.157895e-001 3.200000e+001 2.700000e+001
      vertex   2.031579e+001 3.200000e+001 2.600000e+001
      vertex   2.031579e+001 3.200000e+001 2.700000e+001
    endloop
  endfacet
  facet normal 0.000000e+000 -2.215153e-001 9.697989e-001
    outer loop
      vertex   2.146790e+001 4.294505e+001 2.950000e+001
      vertex   -1.467901e+000 4.294505e+001 2.950000e+001
      vertex   2.031579e+001 3.200000e+001 2.700000e+001
    endloop
  endfacet
  facet normal 0.000000e+000 -1.020133e-001 4.466166e-001
    outer loop
      vertex   2.031579e+001 3.200000e+001 2.700000e+001
      vertex   -1.467901e+000 4.294505e+001 2.950000e+001
      vertex   -3.157895e-001 3.200000e+001 2.700000e+001
    endloop
  endfacet
  facet normal 0.000000e+000 1.000000e+000 -0.000000e+000
    outer loop
      vertex   2.200000e+001 4.800000e+001 1.900000e+001
      vertex   -2.000000e+000 4.800000e+001 1.900000e+001
      vertex   2.200000e+001 4.800000e+001 3.000000e+001
    endloop
  endfacet
  facet normal 0.000000e+000 4.166547e-001 0.000000e+000
    outer loop
      vertex   2.200000e+001 4.800000e+001 3.000000e+001
      vertex   -2.000000e+000 4.800000e+001 1.900000e+001
      vertex   -2.000000e+000 4.800000e+001 3.000000e+001
    endloop
  endfacet
  facet normal 0.000000e+000 -9.789702e-002 9.897284e-001
    outer loop
      vertex   2.200000e+001 4.800000e+001 3.000000e+001
      vertex   -2.000000e+000 4.800000e+001 3.000000e+001
      vertex   2.146790e+001 4.294505e+001 2.950000e+001
    endloop
  endfacet
  facet normal 0.000000e+000 -2.082349e-002 2.105232e-001
    outer loop
      vertex   2.146790e+001 4.294505e+001 2.950000e+001
      vertex   -2.000000e+000 4.800000e+001 3.000000e+001
      vertex   -1.467901e+000 4.294505e+001 2.950000e+001
    endloop
  endfacet
  facet normal 0.000000e+000 0.000000e+000 -9.945055e-001
    outer loop
      vertex   -1.842105e+000 4.650000e+001 1.600000e+001
      vertex   -3.421053e-001 4.650000e+001 1.600000e+001
      vertex   -1.467901e+000 4.294505e+001 1.600000e+001
    endloop
  endfacet
  facet normal 0.000000e+000 0.000000e+000 -9.533374e-001
    outer loop
      vertex   -1.467901e+000 4.294505e+001 1.600000e+001
      vertex   -3.421053e-001 4.650000e+001 1.600000e+001
      vertex   3.209952e-002 4.294505e+001 1.600000e+001
    endloop
  endfacet
endsolid
