solid ascii
  facet normal 0.000000e+000 1.000000e+000 -0.000000e+000
    outer loop
      vertex   -2.000000e+001 9.999328e+001 0.000000e+000
      vertex   -2.125001e+001 9.999328e+001 0.000000e+000
      vertex   -2.000000e+001 9.999328e+001 1.000000e+001
    endloop
  endfacet
  facet normal 0.000000e+000 9.922778e-001 0.000000e+000
    outer loop
      vertex   -2.000000e+001 9.999328e+001 1.000000e+001
      vertex   -2.125001e+001 9.999328e+001 0.000000e+000
      vertex   -2.125001e+001 9.999328e+001 1.000000e+001
    endloop
  endfacet
  facet normal 1.000000e+000 0.000000e+000 0.000000e+000
    outer loop
      vertex   -2.000000e+001 9.500000e+001 0.000000e+000
      vertex   -2.000000e+001 9.999328e+001 0.000000e+000
      vertex   -2.000000e+001 9.500000e+001 1.000000e+001
    endloop
  endfacet
  facet normal 8.946676e-001 -0.000000e+000 0.000000e+000
    outer loop
      vertex   -2.000000e+001 9.500000e+001 1.000000e+001
      vertex   -2.000000e+001 9.999328e+001 0.000000e+000
      vertex   -2.000000e+001 9.999328e+001 1.000000e+001
    endloop
  endfacet
  facet normal 0.000000e+000 -1.000000e+000 0.000000e+000
    outer loop
      vertex   -2.500000e+001 9.500000e+001 0.000000e+000
      vertex   -2.000000e+001 9.500000e+001 0.000000e+000
      vertex   -2.500000e+001 9.500000e+001 1.000000e+001
    endloop
  endfacet
  facet normal 0.000000e+000 -8.944272e-001 0.000000e+000
    outer loop
      vertex   -2.500000e+001 9.500000e+001 1.000000e+001
      vertex   -2.000000e+001 9.500000e+001 0.000000e+000
      vertex   -2.000000e+001 9.500000e+001 1.000000e+001
    endloop
  endfacet
  facet normal -1.000000e+000 0.000000e+000 0.000000e+000
    outer loop
      vertex   -2.500000e+001 9.625000e+001 0.000000e+000
      vertex   -2.500000e+001 9.500000e+001 0.000000e+000
      vertex   -2.500000e+001 9.625000e+001 1.000000e+001
    endloop
  endfacet
  facet normal -9.922779e-001 -0.000000e+000 0.000000e+000
    outer loop
      vertex   -2.500000e+001 9.625000e+001 1.000000e+001
      vertex   -2.500000e+001 9.500000e+001 0.000000e+000
      vertex   -2.500000e+001 9.500000e+001 1.000000e+001
    endloop
  endfacet
  facet normal -2.772676e-002 5.628327e-004 0.000000e+000
    outer loop
      vertex   -2.125001e+001 9.999328e+001 1.000000e+001
      vertex   -2.125001e+001 9.999328e+001 0.000000e+000
      vertex   -2.125282e+001 9.985459e+001 5.000000e+000
    endloop
  endfacet
  facet normal -5.593601e-002 2.190968e-003 2.927709e-005
    outer loop
      vertex   -2.125282e+001 9.985459e+001 5.000000e+000
      vertex   -2.125001e+001 9.999328e+001 0.000000e+000
      vertex   -2.126097e+001 9.971338e+001 0.000000e+000
    endloop
  endfacet
  facet normal -9.965944e-001 7.745943e-002 -5.635586e-004
    outer loop
      vertex   -2.125282e+001 9.985459e+001 5.000000e+000
      vertex   -2.126097e+001 9.971338e+001 0.000000e+000
      vertex   -2.127536e+001 9.956465e+001 5.000000e+000
    endloop
  endfacet
  facet normal -5.561564e-002 6.360190e-003 2.915702e-005
    outer loop
      vertex   -2.127536e+001 9.956465e+001 5.000000e+000
      vertex   -2.126097e+001 9.971338e+001 0.000000e+000
      vertex   -2.129280e+001 9.943508e+001 0.000000e+000
    endloop
  endfacet
  facet normal -9.876519e-001 1.544681e-001 -5.581770e-004
    outer loop
      vertex   -2.127536e+001 9.956465e+001 5.000000e+000
      vertex   -2.129280e+001 9.943508e+001 0.000000e+000
      vertex   -2.132029e+001 9.927733e+001 5.000000e+000
    endloop
  endfacet
  facet normal -5.498526e-002 1.049384e-002 2.868725e-005
    outer loop
      vertex   -2.132029e+001 9.927733e+001 5.000000e+000
      vertex   -2.129280e+001 9.943508e+001 0.000000e+000
      vertex   -2.134531e+001 9.915993e+001 0.000000e+000
    endloop
  endfacet
  facet normal -9.727646e-001 2.305497e-001 -5.466599e-004
    outer loop
      vertex   -2.132029e+001 9.927733e+001 5.000000e+000
      vertex   -2.134531e+001 9.915993e+001 0.000000e+000
      vertex   -2.138736e+001 9.899435e+001 5.000000e+000
    endloop
  endfacet
  facet normal -5.404794e-002 1.456855e-002 2.787627e-005
    outer loop
      vertex   -2.138736e+001 9.899435e+001 5.000000e+000
      vertex   -2.134531e+001 9.915993e+001 0.000000e+000
      vertex   -2.141821e+001 9.888947e+001 0.000000e+000
    endloop
  endfacet
  facet normal -9.520221e-001 3.052475e-001 -5.290757e-004
    outer loop
      vertex   -2.138736e+001 9.899435e+001 5.000000e+000
      vertex   -2.141821e+001 9.888947e+001 0.000000e+000
      vertex   -2.147615e+001 9.871742e+001 5.000000e+000
    endloop
  endfacet
  facet normal -5.280832e-002 1.856173e-002 2.673286e-005
    outer loop
      vertex   -2.147615e+001 9.871742e+001 5.000000e+000
      vertex   -2.141821e+001 9.888947e+001 0.000000e+000
      vertex   -2.151110e+001 9.862521e+001 0.000000e+000
    endloop
  endfacet
  facet normal -9.255409e-001 3.781338e-001 -5.055152e-004
    outer loop
      vertex   -2.147615e+001 9.871742e+001 5.000000e+000
      vertex   -2.151110e+001 9.862521e+001 0.000000e+000
      vertex   -2.158614e+001 9.844821e+001 5.000000e+000
    endloop
  endfacet
  facet normal -5.127255e-002 2.245118e-002 2.521985e-005
    outer loop
      vertex   -2.158614e+001 9.844821e+001 5.000000e+000
      vertex   -2.151110e+001 9.862521e+001 0.000000e+000
      vertex   -2.162345e+001 9.836861e+001 0.000000e+000
    endloop
  endfacet
  facet normal -8.935007e-001 4.487176e-001 -4.754367e-004
    outer loop
      vertex   -2.158614e+001 9.844821e+001 5.000000e+000
      vertex   -2.162345e+001 9.836861e+001 0.000000e+000
      vertex   -2.171666e+001 9.818832e+001 5.000000e+000
    endloop
  endfacet
  facet normal -4.945137e-002 2.621430e-002 2.343732e-005
    outer loop
      vertex   -2.171666e+001 9.818832e+001 5.000000e+000
      vertex   -2.162345e+001 9.836861e+001 0.000000e+000
      vertex   -2.175465e+001 9.812112e+001 0.000000e+000
    endloop
  endfacet
  facet normal -8.560628e-001 5.166412e-001 -4.388379e-004
    outer loop
      vertex   -2.171666e+001 9.818832e+001 5.000000e+000
      vertex   -2.175465e+001 9.812112e+001 0.000000e+000
      vertex   -2.186692e+001 9.793934e+001 5.000000e+000
    endloop
  endfacet
  facet normal -4.735402e-002 2.983044e-002 2.124024e-005
    outer loop
      vertex   -2.186692e+001 9.793934e+001 5.000000e+000
      vertex   -2.175465e+001 9.812112e+001 0.000000e+000
      vertex   -2.190395e+001 9.788412e+001 0.000000e+000
    endloop
  endfacet
  facet normal -8.134723e-001 5.814517e-001 -3.972771e-004
    outer loop
      vertex   -2.186692e+001 9.793934e+001 5.000000e+000
      vertex   -2.190395e+001 9.788412e+001 0.000000e+000
      vertex   -2.203603e+001 9.770275e+001 5.000000e+000
    endloop
  endfacet
  facet normal -4.499282e-002 3.328010e-002 1.866162e-005
    outer loop
      vertex   -2.203603e+001 9.770275e+001 5.000000e+000
      vertex   -2.190395e+001 9.788412e+001 0.000000e+000
      vertex   -2.207053e+001 9.765891e+001 0.000000e+000
    endloop
  endfacet
  facet normal -7.659995e-001 6.427444e-001 -3.499750e-004
    outer loop
      vertex   -2.203603e+001 9.770275e+001 5.000000e+000
      vertex   -2.207053e+001 9.765891e+001 0.000000e+000
      vertex   -2.222296e+001 9.747997e+001 5.000000e+000
    endloop
  endfacet
  facet normal -4.238006e-002 3.654262e-002 1.577513e-005
    outer loop
      vertex   -2.222296e+001 9.747997e+001 5.000000e+000
      vertex   -2.207053e+001 9.765891e+001 0.000000e+000
      vertex   -2.225345e+001 9.744677e+001 0.000000e+000
    endloop
  endfacet
  facet normal -7.139080e-001 7.001815e-001 -2.961070e-004
    outer loop
      vertex   -2.222296e+001 9.747997e+001 5.000000e+000
      vertex   -2.225345e+001 9.744677e+001 0.000000e+000
      vertex   -2.242659e+001 9.727235e+001 5.000000e+000
    endloop
  endfacet
  facet normal -3.952959e-002 3.960083e-002 1.260367e-005
    outer loop
      vertex   -2.242659e+001 9.727235e+001 5.000000e+000
      vertex   -2.225345e+001 9.744677e+001 0.000000e+000
      vertex   -2.245170e+001 9.724888e+001 0.000000e+000
    endloop
  endfacet
  facet normal -6.575028e-001 7.534208e-001 -2.350000e-004
    outer loop
      vertex   -2.242659e+001 9.727235e+001 5.000000e+000
      vertex   -2.245170e+001 9.724888e+001 0.000000e+000
      vertex   -2.264570e+001 9.708113e+001 5.000000e+000
    endloop
  endfacet
  facet normal -3.645984e-002 4.243717e-002 9.060691e-006
    outer loop
      vertex   -2.264570e+001 9.708113e+001 5.000000e+000
      vertex   -2.245170e+001 9.724888e+001 0.000000e+000
      vertex   -2.266417e+001 9.706634e+001 0.000000e+000
    endloop
  endfacet
  facet normal -5.971447e-001 8.021196e-001 -1.684100e-004
    outer loop
      vertex   -2.264570e+001 9.708113e+001 5.000000e+000
      vertex   -2.266417e+001 9.706634e+001 0.000000e+000
      vertex   -2.287897e+001 9.690747e+001 5.000000e+000
    endloop
  endfacet
  facet normal -3.318771e-002 4.503562e-002 5.127189e-006
    outer loop
      vertex   -2.287897e+001 9.690747e+001 5.000000e+000
      vertex   -2.266417e+001 9.706634e+001 0.000000e+000
      vertex   -2.288967e+001 9.690016e+001 0.000000e+000
    endloop
  endfacet
  facet normal -5.329653e-001 8.461332e-001 -9.731744e-005
    outer loop
      vertex   -2.287897e+001 9.690747e+001 5.000000e+000
      vertex   -2.288967e+001 9.690016e+001 0.000000e+000
      vertex   -2.312694e+001 9.675128e+001 5.000000e+000
    endloop
  endfacet
  facet normal -2.972938e-002 4.738054e-002 0.000000e+000
    outer loop
      vertex   -2.312694e+001 9.675128e+001 5.000000e+000
      vertex   -2.288967e+001 9.690016e+001 0.000000e+000
      vertex   -2.312694e+001 9.675128e+001 0.000000e+000
    endloop
  endfacet
  facet normal -2.610805e-002 4.946772e-002 0.000000e+000
    outer loop
      vertex   -2.312694e+001 9.675128e+001 5.000000e+000
      vertex   -2.312694e+001 9.675128e+001 0.000000e+000
      vertex   -2.337467e+001 9.662054e+001 0.000000e+000
    endloop
  endfacet
  facet normal -4.650341e-001 8.835239e-001 -6.300570e-005
    outer loop
      vertex   -2.312694e+001 9.675128e+001 5.000000e+000
      vertex   -2.337467e+001 9.662054e+001 0.000000e+000
      vertex   -2.338230e+001 9.661687e+001 5.000000e+000
    endloop
  endfacet
  facet normal -2.234708e-002 5.128309e-002 3.436350e-006
    outer loop
      vertex   -2.338230e+001 9.661687e+001 5.000000e+000
      vertex   -2.337467e+001 9.662054e+001 0.000000e+000
      vertex   -2.363146e+001 9.650864e+001 0.000000e+000
    endloop
  endfacet
  facet normal -3.955022e-001 9.168614e-001 -1.393157e-004
    outer loop
      vertex   -2.338230e+001 9.661687e+001 5.000000e+000
      vertex   -2.363146e+001 9.650864e+001 0.000000e+000
      vertex   -2.364933e+001 9.650169e+001 5.000000e+000
    endloop
  endfacet
  facet normal -1.845771e-002 5.281393e-002 7.433596e-006
    outer loop
      vertex   -2.364933e+001 9.650169e+001 5.000000e+000
      vertex   -2.363146e+001 9.650864e+001 0.000000e+000
      vertex   -2.389589e+001 9.641622e+001 0.000000e+000
    endloop
  endfacet
  facet normal -3.232940e-001 9.448622e-001 -2.083339e-004
    outer loop
      vertex   -2.364933e+001 9.650169e+001 5.000000e+000
      vertex   -2.389589e+001 9.641622e+001 0.000000e+000
      vertex   -2.392449e+001 9.640754e+001 5.000000e+000
    endloop
  endfacet
  facet normal -1.446528e-002 5.404973e-002 1.112230e-005
    outer loop
      vertex   -2.392449e+001 9.640754e+001 5.000000e+000
      vertex   -2.389589e+001 9.641622e+001 0.000000e+000
      vertex   -2.416648e+001 9.634380e+001 0.000000e+000
    endloop
  endfacet
  facet normal -2.491266e-001 9.671801e-001 -2.713589e-004
    outer loop
      vertex   -2.392449e+001 9.640754e+001 5.000000e+000
      vertex   -2.416648e+001 9.634380e+001 0.000000e+000
      vertex   -2.420611e+001 9.633500e+001 5.000000e+000
    endloop
  endfacet
  facet normal -1.039118e-002 5.498349e-002 1.446404e-005
    outer loop
      vertex   -2.420611e+001 9.633500e+001 5.000000e+000
      vertex   -2.416648e+001 9.634380e+001 0.000000e+000
      vertex   -2.444172e+001 9.629179e+001 0.000000e+000
    endloop
  endfacet
  facet normal -1.734468e-001 9.836799e-001 -3.282031e-004
    outer loop
      vertex   -2.420611e+001 9.633500e+001 5.000000e+000
      vertex   -2.444172e+001 9.629179e+001 0.000000e+000
      vertex   -2.449251e+001 9.628450e+001 5.000000e+000
    endloop
  endfacet
  facet normal -6.258378e-003 5.561017e-002 1.747190e-005
    outer loop
      vertex   -2.449251e+001 9.628450e+001 5.000000e+000
      vertex   -2.444172e+001 9.629179e+001 0.000000e+000
      vertex   -2.472008e+001 9.626046e+001 0.000000e+000
    endloop
  endfacet
  facet normal -9.670400e-002 9.942626e-001 -3.790071e-004
    outer loop
      vertex   -2.449251e+001 9.628450e+001 5.000000e+000
      vertex   -2.472008e+001 9.626046e+001 0.000000e+000
      vertex   -2.478196e+001 9.625635e+001 5.000000e+000
    endloop
  endfacet
  facet normal -2.089831e-003 5.592623e-002 2.013425e-005
    outer loop
      vertex   -2.478196e+001 9.625635e+001 5.000000e+000
      vertex   -2.472008e+001 9.626046e+001 0.000000e+000
      vertex   -2.500000e+001 9.625000e+001 0.000000e+000
    endloop
  endfacet
  facet normal -2.534239e-003 8.705126e-002 0.000000e+000
    outer loop
      vertex   -2.478196e+001 9.625635e+001 5.000000e+000
      vertex   -2.500000e+001 9.625000e+001 0.000000e+000
      vertex   -2.500000e+001 9.625000e+001 1.000000e+001
    endloop
  endfacet
  facet normal -3.730609e-002 9.983529e-001 -3.594215e-004
    outer loop
      vertex   -2.500000e+001 9.625000e+001 1.000000e+001
      vertex   -2.472008e+001 9.626046e+001 1.000000e+001
      vertex   -2.478196e+001 9.625635e+001 5.000000e+000
    endloop
  endfacet
  facet normal -9.679779e-002 9.952268e-001 3.793747e-004
    outer loop
      vertex   -2.478196e+001 9.625635e+001 5.000000e+000
      vertex   -2.472008e+001 9.626046e+001 1.000000e+001
      vertex   -2.449251e+001 9.628450e+001 5.000000e+000
    endloop
  endfacet
  facet normal -1.117172e-001 9.926877e-001 -3.118879e-004
    outer loop
      vertex   -2.472008e+001 9.626046e+001 1.000000e+001
      vertex   -2.444172e+001 9.629179e+001 1.000000e+001
      vertex   -2.449251e+001 9.628450e+001 5.000000e+000
    endloop
  endfacet
  facet normal -1.736366e-001 9.847564e-001 3.285622e-004
    outer loop
      vertex   -2.449251e+001 9.628450e+001 5.000000e+000
      vertex   -2.444172e+001 9.629179e+001 1.000000e+001
      vertex   -2.420611e+001 9.633500e+001 5.000000e+000
    endloop
  endfacet
  facet normal -1.854874e-001 9.814807e-001 -2.581898e-004
    outer loop
      vertex   -2.444172e+001 9.629179e+001 1.000000e+001
      vertex   -2.416648e+001 9.634380e+001 1.000000e+001
      vertex   -2.420611e+001 9.633500e+001 5.000000e+000
    endloop
  endfacet
  facet normal -2.494302e-001 9.683588e-001 2.716896e-004
    outer loop
      vertex   -2.420611e+001 9.633500e+001 5.000000e+000
      vertex   -2.416648e+001 9.634380e+001 1.000000e+001
      vertex   -2.392449e+001 9.640754e+001 5.000000e+000
    endloop
  endfacet
  facet normal -2.582073e-001 9.647955e-001 -1.985347e-004
    outer loop
      vertex   -2.416648e+001 9.634380e+001 1.000000e+001
      vertex   -2.389589e+001 9.641622e+001 1.000000e+001
      vertex   -2.392449e+001 9.640754e+001 5.000000e+000
    endloop
  endfacet
  facet normal -3.237283e-001 9.461312e-001 2.086137e-004
    outer loop
      vertex   -2.392449e+001 9.640754e+001 5.000000e+000
      vertex   -2.389589e+001 9.641622e+001 1.000000e+001
      vertex   -2.364933e+001 9.650169e+001 5.000000e+000
    endloop
  endfacet
  facet normal -3.294695e-001 9.427266e-001 -1.326894e-004
    outer loop
      vertex   -2.389589e+001 9.641622e+001 1.000000e+001
      vertex   -2.363146e+001 9.650864e+001 1.000000e+001
      vertex   -2.364933e+001 9.650169e+001 5.000000e+000
    endloop
  endfacet
  facet normal -3.960826e-001 9.182069e-001 1.395202e-004
    outer loop
      vertex   -2.364933e+001 9.650169e+001 5.000000e+000
      vertex   -2.363146e+001 9.650864e+001 1.000000e+001
      vertex   -2.338230e+001 9.661687e+001 5.000000e+000
    endloop
  endfacet
  facet normal -3.988906e-001 9.153923e-001 -6.133812e-005
    outer loop
      vertex   -2.363146e+001 9.650864e+001 1.000000e+001
      vertex   -2.337467e+001 9.662054e+001 1.000000e+001
      vertex   -2.338230e+001 9.661687e+001 5.000000e+000
    endloop
  endfacet
  facet normal -4.657626e-001 8.849081e-001 6.310441e-005
    outer loop
      vertex   -2.338230e+001 9.661687e+001 5.000000e+000
      vertex   -2.337467e+001 9.662054e+001 1.000000e+001
      vertex   -2.312694e+001 9.675128e+001 5.000000e+000
    endloop
  endfacet
  facet normal -4.660290e-001 8.829995e-001 0.000000e+000
    outer loop
      vertex   -2.337467e+001 9.662054e+001 1.000000e+001
      vertex   -2.312694e+001 9.675128e+001 1.000000e+001
      vertex   -2.312694e+001 9.675128e+001 5.000000e+000
    endloop
  endfacet
  facet normal -2.972938e-002 4.738054e-002 0.000000e+000
    outer loop
      vertex   -2.312694e+001 9.675128e+001 5.000000e+000
      vertex   -2.312694e+001 9.675128e+001 1.000000e+001
      vertex   -2.288967e+001 9.690016e+001 1.000000e+001
    endloop
  endfacet
  facet normal -5.321326e-001 8.448113e-001 9.716541e-005
    outer loop
      vertex   -2.312694e+001 9.675128e+001 5.000000e+000
      vertex   -2.288967e+001 9.690016e+001 1.000000e+001
      vertex   -2.287897e+001 9.690747e+001 5.000000e+000
    endloop
  endfacet
  facet normal -3.318771e-002 4.503562e-002 -5.127189e-006
    outer loop
      vertex   -2.287897e+001 9.690747e+001 5.000000e+000
      vertex   -2.288967e+001 9.690016e+001 1.000000e+001
      vertex   -2.266417e+001 9.706634e+001 1.000000e+001
    endloop
  endfacet
  facet normal -5.963007e-001 8.009859e-001 1.681720e-004
    outer loop
      vertex   -2.287897e+001 9.690747e+001 5.000000e+000
      vertex   -2.266417e+001 9.706634e+001 1.000000e+001
      vertex   -2.264570e+001 9.708113e+001 5.000000e+000
    endloop
  endfacet
  facet normal -3.645984e-002 4.243717e-002 -9.060691e-006
    outer loop
      vertex   -2.264570e+001 9.708113e+001 5.000000e+000
      vertex   -2.266417e+001 9.706634e+001 1.000000e+001
      vertex   -2.245170e+001 9.724888e+001 1.000000e+001
    endloop
  endfacet
  facet normal -6.566550e-001 7.524494e-001 2.346970e-004
    outer loop
      vertex   -2.264570e+001 9.708113e+001 5.000000e+000
      vertex   -2.245170e+001 9.724888e+001 1.000000e+001
      vertex   -2.242659e+001 9.727235e+001 5.000000e+000
    endloop
  endfacet
  facet normal -3.952959e-002 3.960083e-002 -1.260367e-005
    outer loop
      vertex   -2.242659e+001 9.727235e+001 5.000000e+000
      vertex   -2.245170e+001 9.724888e+001 1.000000e+001
      vertex   -2.225345e+001 9.744677e+001 1.000000e+001
    endloop
  endfacet
  facet normal -7.130761e-001 6.993656e-001 2.957619e-004
    outer loop
      vertex   -2.242659e+001 9.727235e+001 5.000000e+000
      vertex   -2.225345e+001 9.744677e+001 1.000000e+001
      vertex   -2.222296e+001 9.747997e+001 5.000000e+000
    endloop
  endfacet
  facet normal -4.238006e-002 3.654262e-002 -1.577513e-005
    outer loop
      vertex   -2.222296e+001 9.747997e+001 5.000000e+000
      vertex   -2.225345e+001 9.744677e+001 1.000000e+001
      vertex   -2.207053e+001 9.765891e+001 1.000000e+001
    endloop
  endfacet
  facet normal -7.652020e-001 6.420752e-001 3.496107e-004
    outer loop
      vertex   -2.222296e+001 9.747997e+001 5.000000e+000
      vertex   -2.207053e+001 9.765891e+001 1.000000e+001
      vertex   -2.203603e+001 9.770275e+001 5.000000e+000
    endloop
  endfacet
  facet normal -4.499282e-002 3.328010e-002 -1.866162e-005
    outer loop
      vertex   -2.203603e+001 9.770275e+001 5.000000e+000
      vertex   -2.207053e+001 9.765891e+001 1.000000e+001
      vertex   -2.190395e+001 9.788412e+001 1.000000e+001
    endloop
  endfacet
  facet normal -8.127264e-001 5.809186e-001 3.969128e-004
    outer loop
      vertex   -2.203603e+001 9.770275e+001 5.000000e+000
      vertex   -2.190395e+001 9.788412e+001 1.000000e+001
      vertex   -2.186692e+001 9.793934e+001 5.000000e+000
    endloop
  endfacet
  facet normal -4.735402e-002 2.983044e-002 -2.124024e-005
    outer loop
      vertex   -2.186692e+001 9.793934e+001 5.000000e+000
      vertex   -2.190395e+001 9.788412e+001 1.000000e+001
      vertex   -2.175465e+001 9.812112e+001 1.000000e+001
    endloop
  endfacet
  facet normal -8.553842e-001 5.162317e-001 4.384900e-004
    outer loop
      vertex   -2.186692e+001 9.793934e+001 5.000000e+000
      vertex   -2.175465e+001 9.812112e+001 1.000000e+001
      vertex   -2.171666e+001 9.818832e+001 5.000000e+000
    endloop
  endfacet
  facet normal -4.945137e-002 2.621430e-002 -2.343732e-005
    outer loop
      vertex   -2.171666e+001 9.818832e+001 5.000000e+000
      vertex   -2.175465e+001 9.812112e+001 1.000000e+001
      vertex   -2.162345e+001 9.836861e+001 1.000000e+001
    endloop
  endfacet
  facet normal -8.929035e-001 4.484177e-001 4.751190e-004
    outer loop
      vertex   -2.171666e+001 9.818832e+001 5.000000e+000
      vertex   -2.162345e+001 9.836861e+001 1.000000e+001
      vertex   -2.158614e+001 9.844821e+001 5.000000e+000
    endloop
  endfacet
  facet normal -5.127255e-002 2.245118e-002 -2.521985e-005
    outer loop
      vertex   -2.158614e+001 9.844821e+001 5.000000e+000
      vertex   -2.162345e+001 9.836861e+001 1.000000e+001
      vertex   -2.151110e+001 9.862521e+001 1.000000e+001
    endloop
  endfacet
  facet normal -9.250374e-001 3.779281e-001 5.052402e-004
    outer loop
      vertex   -2.158614e+001 9.844821e+001 5.000000e+000
      vertex   -2.151110e+001 9.862521e+001 1.000000e+001
      vertex   -2.147615e+001 9.871742e+001 5.000000e+000
    endloop
  endfacet
  facet normal -5.280832e-002 1.856173e-002 -2.673286e-005
    outer loop
      vertex   -2.147615e+001 9.871742e+001 5.000000e+000
      vertex   -2.151110e+001 9.862521e+001 1.000000e+001
      vertex   -2.141821e+001 9.888947e+001 1.000000e+001
    endloop
  endfacet
  facet normal -9.516226e-001 3.051193e-001 5.288537e-004
    outer loop
      vertex   -2.147615e+001 9.871742e+001 5.000000e+000
      vertex   -2.141821e+001 9.888947e+001 1.000000e+001
      vertex   -2.138736e+001 9.899435e+001 5.000000e+000
    endloop
  endfacet
  facet normal -5.404794e-002 1.456855e-002 -2.787627e-005
    outer loop
      vertex   -2.138736e+001 9.899435e+001 5.000000e+000
      vertex   -2.141821e+001 9.888947e+001 1.000000e+001
      vertex   -2.134531e+001 9.915993e+001 1.000000e+001
    endloop
  endfacet
  facet normal -9.724773e-001 2.304816e-001 5.464985e-004
    outer loop
      vertex   -2.138736e+001 9.899435e+001 5.000000e+000
      vertex   -2.134531e+001 9.915993e+001 1.000000e+001
      vertex   -2.132029e+001 9.927733e+001 5.000000e+000
    endloop
  endfacet
  facet normal -5.498526e-002 1.049384e-002 -2.868725e-005
    outer loop
      vertex   -2.132029e+001 9.927733e+001 5.000000e+000
      vertex   -2.134531e+001 9.915993e+001 1.000000e+001
      vertex   -2.129280e+001 9.943508e+001 1.000000e+001
    endloop
  endfacet
  facet normal -9.874832e-001 1.544417e-001 5.580817e-004
    outer loop
      vertex   -2.132029e+001 9.927733e+001 5.000000e+000
      vertex   -2.129280e+001 9.943508e+001 1.000000e+001
      vertex   -2.127536e+001 9.956465e+001 5.000000e+000
    endloop
  endfacet
  facet normal -5.561564e-002 6.360190e-003 -2.915702e-005
    outer loop
      vertex   -2.127536e+001 9.956465e+001 5.000000e+000
      vertex   -2.129280e+001 9.943508e+001 1.000000e+001
      vertex   -2.126097e+001 9.971338e+001 1.000000e+001
    endloop
  endfacet
  facet normal -9.965482e-001 7.745584e-002 5.635325e-004
    outer loop
      vertex   -2.127536e+001 9.956465e+001 5.000000e+000
      vertex   -2.126097e+001 9.971338e+001 1.000000e+001
      vertex   -2.125282e+001 9.985459e+001 5.000000e+000
    endloop
  endfacet
  facet normal -5.593601e-002 2.190968e-003 -2.927709e-005
    outer loop
      vertex   -2.125282e+001 9.985459e+001 5.000000e+000
      vertex   -2.126097e+001 9.971338e+001 1.000000e+001
      vertex   -2.125001e+001 9.999328e+001 1.000000e+001
    endloop
  endfacet
  facet normal -0.000000e+000 0.000000e+000 9.992338e-001
    outer loop
      vertex   -2.125001e+001 9.999328e+001 1.000000e+001
      vertex   -2.126097e+001 9.971338e+001 1.000000e+001
      vertex   -2.000000e+001 9.999328e+001 1.000000e+001
    endloop
  endfacet
  facet normal 0.000000e+000 0.000000e+000 1.880389e-001
    outer loop
      vertex   -2.000000e+001 9.999328e+001 1.000000e+001
      vertex   -2.126097e+001 9.971338e+001 1.000000e+001
      vertex   -2.129280e+001 9.943508e+001 1.000000e+001
    endloop
  endfacet
  facet normal 0.000000e+000 0.000000e+000 1.464706e-001
    outer loop
      vertex   -2.000000e+001 9.999328e+001 1.000000e+001
      vertex   -2.129280e+001 9.943508e+001 1.000000e+001
      vertex   -2.134531e+001 9.915993e+001 1.000000e+001
    endloop
  endfacet
  facet normal -0.000000e+000 0.000000e+000 6.837654e-001
    outer loop
      vertex   -2.134531e+001 9.915993e+001 1.000000e+001
      vertex   -2.141821e+001 9.888947e+001 1.000000e+001
      vertex   -2.000000e+001 9.999328e+001 1.000000e+001
    endloop
  endfacet
  facet normal 0.000000e+000 0.000000e+000 7.432042e-002
    outer loop
      vertex   -2.000000e+001 9.999328e+001 1.000000e+001
      vertex   -2.141821e+001 9.888947e+001 1.000000e+001
      vertex   -2.151110e+001 9.862521e+001 1.000000e+001
    endloop
  endfacet
  facet normal 0.000000e+000 0.000000e+000 7.413186e-001
    outer loop
      vertex   -2.000000e+001 9.999328e+001 1.000000e+001
      vertex   -2.151110e+001 9.862521e+001 1.000000e+001
      vertex   -2.000000e+001 9.500000e+001 1.000000e+001
    endloop
  endfacet
  facet normal 0.000000e+000 0.000000e+000 5.413415e-002
    outer loop
      vertex   -2.000000e+001 9.500000e+001 1.000000e+001
      vertex   -2.151110e+001 9.862521e+001 1.000000e+001
      vertex   -2.162345e+001 9.836861e+001 1.000000e+001
    endloop
  endfacet
  facet normal 0.000000e+000 0.000000e+000 6.301665e-002
    outer loop
      vertex   -2.000000e+001 9.500000e+001 1.000000e+001
      vertex   -2.162345e+001 9.836861e+001 1.000000e+001
      vertex   -2.175465e+001 9.812112e+001 1.000000e+001
    endloop
  endfacet
  facet normal 0.000000e+000 0.000000e+000 8.792557e-001
    outer loop
      vertex   -2.175465e+001 9.812112e+001 1.000000e+001
      vertex   -2.190395e+001 9.788412e+001 1.000000e+001
      vertex   -2.000000e+001 9.500000e+001 1.000000e+001
    endloop
  endfacet
  facet normal 0.000000e+000 0.000000e+000 7.806823e-002
    outer loop
      vertex   -2.000000e+001 9.500000e+001 1.000000e+001
      vertex   -2.190395e+001 9.788412e+001 1.000000e+001
      vertex   -2.207053e+001 9.765891e+001 1.000000e+001
    endloop
  endfacet
  facet normal 0.000000e+000 0.000000e+000 8.257218e-002
    outer loop
      vertex   -2.000000e+001 9.500000e+001 1.000000e+001
      vertex   -2.207053e+001 9.765891e+001 1.000000e+001
      vertex   -2.225345e+001 9.744677e+001 1.000000e+001
    endloop
  endfacet
  facet normal 0.000000e+000 0.000000e+000 9.991918e-001
    outer loop
      vertex   -2.225345e+001 9.744677e+001 1.000000e+001
      vertex   -2.245170e+001 9.724888e+001 1.000000e+001
      vertex   -2.000000e+001 9.500000e+001 1.000000e+001
    endloop
  endfacet
  facet normal 0.000000e+000 0.000000e+000 8.249584e-002
    outer loop
      vertex   -2.000000e+001 9.500000e+001 1.000000e+001
      vertex   -2.245170e+001 9.724888e+001 1.000000e+001
      vertex   -2.266417e+001 9.706634e+001 1.000000e+001
    endloop
  endfacet
  facet normal 0.000000e+000 0.000000e+000 7.792877e-002
    outer loop
      vertex   -2.000000e+001 9.500000e+001 1.000000e+001
      vertex   -2.266417e+001 9.706634e+001 1.000000e+001
      vertex   -2.288967e+001 9.690016e+001 1.000000e+001
    endloop
  endfacet
  facet normal 0.000000e+000 0.000000e+000 9.094859e-001
    outer loop
      vertex   -2.288967e+001 9.690016e+001 1.000000e+001
      vertex   -2.312694e+001 9.675128e+001 1.000000e+001
      vertex   -2.000000e+001 9.500000e+001 1.000000e+001
    endloop
  endfacet
  facet normal 0.000000e+000 0.000000e+000 6.280671e-002
    outer loop
      vertex   -2.000000e+001 9.500000e+001 1.000000e+001
      vertex   -2.312694e+001 9.675128e+001 1.000000e+001
      vertex   -2.337467e+001 9.662054e+001 1.000000e+001
    endloop
  endfacet
  facet normal 0.000000e+000 0.000000e+000 5.392028e-002
    outer loop
      vertex   -2.000000e+001 9.500000e+001 1.000000e+001
      vertex   -2.337467e+001 9.662054e+001 1.000000e+001
      vertex   -2.363146e+001 9.650864e+001 1.000000e+001
    endloop
  endfacet
  facet normal 0.000000e+000 0.000000e+000 3.836462e-001
    outer loop
      vertex   -2.000000e+001 9.500000e+001 1.000000e+001
      vertex   -2.363146e+001 9.650864e+001 1.000000e+001
      vertex   -2.500000e+001 9.500000e+001 1.000000e+001
    endloop
  endfacet
  facet normal 0.000000e+000 0.000000e+000 7.448772e-002
    outer loop
      vertex   -2.500000e+001 9.500000e+001 1.000000e+001
      vertex   -2.363146e+001 9.650864e+001 1.000000e+001
      vertex   -2.389589e+001 9.641622e+001 1.000000e+001
    endloop
  endfacet
  facet normal 0.000000e+000 0.000000e+000 1.067947e-001
    outer loop
      vertex   -2.500000e+001 9.500000e+001 1.000000e+001
      vertex   -2.389589e+001 9.641622e+001 1.000000e+001
      vertex   -2.416648e+001 9.634380e+001 1.000000e+001
    endloop
  endfacet
  facet normal 0.000000e+000 0.000000e+000 7.371368e-001
    outer loop
      vertex   -2.416648e+001 9.634380e+001 1.000000e+001
      vertex   -2.444172e+001 9.629179e+001 1.000000e+001
      vertex   -2.500000e+001 9.500000e+001 1.000000e+001
    endloop
  endfacet
  facet normal 0.000000e+000 0.000000e+000 1.882700e-001
    outer loop
      vertex   -2.500000e+001 9.500000e+001 1.000000e+001
      vertex   -2.444172e+001 9.629179e+001 1.000000e+001
      vertex   -2.472008e+001 9.626046e+001 1.000000e+001
    endloop
  endfacet
  facet normal 0.000000e+000 0.000000e+000 2.167950e-001
    outer loop
      vertex   -2.500000e+001 9.500000e+001 1.000000e+001
      vertex   -2.472008e+001 9.626046e+001 1.000000e+001
      vertex   -2.500000e+001 9.625000e+001 1.000000e+001
    endloop
  endfacet
  facet normal 0.000000e+000 0.000000e+000 -9.993026e-001
    outer loop
      vertex   -2.500000e+001 9.625000e+001 0.000000e+000
      vertex   -2.472008e+001 9.626046e+001 0.000000e+000
      vertex   -2.500000e+001 9.500000e+001 0.000000e+000
    endloop
  endfacet
  facet normal 0.000000e+000 0.000000e+000 -1.882700e-001
    outer loop
      vertex   -2.500000e+001 9.500000e+001 0.000000e+000
      vertex   -2.472008e+001 9.626046e+001 0.000000e+000
      vertex   -2.444172e+001 9.629179e+001 0.000000e+000
    endloop
  endfacet
  facet normal 0.000000e+000 0.000000e+000 -1.467264e-001
    outer loop
      vertex   -2.500000e+001 9.500000e+001 0.000000e+000
      vertex   -2.444172e+001 9.629179e+001 0.000000e+000
      vertex   -2.416648e+001 9.634380e+001 0.000000e+000
    endloop
  endfacet
  facet normal 0.000000e+000 -0.000000e+000 -6.846380e-001
    outer loop
      vertex   -2.416648e+001 9.634380e+001 0.000000e+000
      vertex   -2.389589e+001 9.641622e+001 0.000000e+000
      vertex   -2.500000e+001 9.500000e+001 0.000000e+000
    endloop
  endfacet
  facet normal 0.000000e+000 0.000000e+000 -7.448772e-002
    outer loop
      vertex   -2.500000e+001 9.500000e+001 0.000000e+000
      vertex   -2.389589e+001 9.641622e+001 0.000000e+000
      vertex   -2.363146e+001 9.650864e+001 0.000000e+000
    endloop
  endfacet
  facet normal 0.000000e+000 0.000000e+000 -7.406600e-001
    outer loop
      vertex   -2.500000e+001 9.500000e+001 0.000000e+000
      vertex   -2.363146e+001 9.650864e+001 0.000000e+000
      vertex   -2.000000e+001 9.500000e+001 0.000000e+000
    endloop
  endfacet
  facet normal 0.000000e+000 0.000000e+000 -5.392028e-002
    outer loop
      vertex   -2.000000e+001 9.500000e+001 0.000000e+000
      vertex   -2.363146e+001 9.650864e+001 0.000000e+000
      vertex   -2.337467e+001 9.662054e+001 0.000000e+000
    endloop
  endfacet
  facet normal 0.000000e+000 0.000000e+000 -6.280671e-002
    outer loop
      vertex   -2.000000e+001 9.500000e+001 0.000000e+000
      vertex   -2.337467e+001 9.662054e+001 0.000000e+000
      vertex   -2.312694e+001 9.675128e+001 0.000000e+000
    endloop
  endfacet
  facet normal 0.000000e+000 0.000000e+000 -8.776333e-001
    outer loop
      vertex   -2.312694e+001 9.675128e+001 0.000000e+000
      vertex   -2.288967e+001 9.690016e+001 0.000000e+000
      vertex   -2.000000e+001 9.500000e+001 0.000000e+000
    endloop
  endfacet
  facet normal 0.000000e+000 0.000000e+000 -7.792877e-002
    outer loop
      vertex   -2.000000e+001 9.500000e+001 0.000000e+000
      vertex   -2.288967e+001 9.690016e+001 0.000000e+000
      vertex   -2.266417e+001 9.706634e+001 0.000000e+000
    endloop
  endfacet
  facet normal 0.000000e+000 0.000000e+000 -8.249584e-002
    outer loop
      vertex   -2.000000e+001 9.500000e+001 0.000000e+000
      vertex   -2.266417e+001 9.706634e+001 0.000000e+000
      vertex   -2.245170e+001 9.724888e+001 0.000000e+000
    endloop
  endfacet
  facet normal 0.000000e+000 0.000000e+000 -9.990312e-001
    outer loop
      vertex   -2.245170e+001 9.724888e+001 0.000000e+000
      vertex   -2.225345e+001 9.744677e+001 0.000000e+000
      vertex   -2.000000e+001 9.500000e+001 0.000000e+000
    endloop
  endfacet
  facet normal 0.000000e+000 0.000000e+000 -8.257218e-002
    outer loop
      vertex   -2.000000e+001 9.500000e+001 0.000000e+000
      vertex   -2.225345e+001 9.744677e+001 0.000000e+000
      vertex   -2.207053e+001 9.765891e+001 0.000000e+000
    endloop
  endfacet
  facet normal 0.000000e+000 0.000000e+000 -7.806823e-002
    outer loop
      vertex   -2.000000e+001 9.500000e+001 0.000000e+000
      vertex   -2.207053e+001 9.765891e+001 0.000000e+000
      vertex   -2.190395e+001 9.788412e+001 0.000000e+000
    endloop
  endfacet
  facet normal 0.000000e+000 0.000000e+000 -9.109681e-001
    outer loop
      vertex   -2.190395e+001 9.788412e+001 0.000000e+000
      vertex   -2.175465e+001 9.812112e+001 0.000000e+000
      vertex   -2.000000e+001 9.500000e+001 0.000000e+000
    endloop
  endfacet
  facet normal 0.000000e+000 0.000000e+000 -6.301665e-002
    outer loop
      vertex   -2.000000e+001 9.500000e+001 0.000000e+000
      vertex   -2.175465e+001 9.812112e+001 0.000000e+000
      vertex   -2.162345e+001 9.836861e+001 0.000000e+000
    endloop
  endfacet
  facet normal 0.000000e+000 0.000000e+000 -5.413415e-002
    outer loop
      vertex   -2.000000e+001 9.500000e+001 0.000000e+000
      vertex   -2.162345e+001 9.836861e+001 0.000000e+000
      vertex   -2.151110e+001 9.862521e+001 0.000000e+000
    endloop
  endfacet
  facet normal 0.000000e+000 0.000000e+000 -3.847443e-001
    outer loop
      vertex   -2.000000e+001 9.500000e+001 0.000000e+000
      vertex   -2.151110e+001 9.862521e+001 0.000000e+000
      vertex   -2.000000e+001 9.999328e+001 0.000000e+000
    endloop
  endfacet
  facet normal 0.000000e+000 0.000000e+000 -7.432042e-002
    outer loop
      vertex   -2.000000e+001 9.999328e+001 0.000000e+000
      vertex   -2.151110e+001 9.862521e+001 0.000000e+000
      vertex   -2.141821e+001 9.888947e+001 0.000000e+000
    endloop
  endfacet
  facet normal 0.000000e+000 0.000000e+000 -1.065767e-001
    outer loop
      vertex   -2.000000e+001 9.999328e+001 0.000000e+000
      vertex   -2.141821e+001 9.888947e+001 0.000000e+000
      vertex   -2.134531e+001 9.915993e+001 0.000000e+000
    endloop
  endfacet
  facet normal 0.000000e+000 0.000000e+000 -7.363238e-001
    outer loop
      vertex   -2.134531e+001 9.915993e+001 0.000000e+000
      vertex   -2.129280e+001 9.943508e+001 0.000000e+000
      vertex   -2.000000e+001 9.999328e+001 0.000000e+000
    endloop
  endfacet
  facet normal 0.000000e+000 0.000000e+000 -1.880389e-001
    outer loop
      vertex   -2.000000e+001 9.999328e+001 0.000000e+000
      vertex   -2.129280e+001 9.943508e+001 0.000000e+000
      vertex   -2.126097e+001 9.971338e+001 0.000000e+000
    endloop
  endfacet
  facet normal -0.000000e+000 0.000000e+000 -2.166975e-001
    outer loop
      vertex   -2.000000e+001 9.999328e+001 0.000000e+000
      vertex   -2.126097e+001 9.971338e+001 0.000000e+000
      vertex   -2.125001e+001 9.999328e+001 0.000000e+000
    endloop
  endfacet
endsolid
