solid ascii
  facet normal -9.994165e-001 3.415522e-002 0.000000e+000
    outer loop
      vertex   -1.297389e+002 1.003242e+002 5.000000e+000
      vertex   -1.297389e+002 1.003242e+002 0.000000e+000
      vertex   -1.297500e+002 1.000000e+002 5.000000e+000
    endloop
  endfacet
  facet normal -6.469405e-002 2.210930e-003 0.000000e+000
    outer loop
      vertex   -1.297500e+002 1.000000e+002 5.000000e+000
      vertex   -1.297389e+002 1.003242e+002 0.000000e+000
      vertex   -1.297500e+002 1.000000e+002 0.000000e+000
    endloop
  endfacet
  facet normal -9.994165e-001 -3.415522e-002 -0.000000e+000
    outer loop
      vertex   -1.297500e+002 1.000000e+002 5.000000e+000
      vertex   -1.297500e+002 1.000000e+002 0.000000e+000
      vertex   -1.297389e+002 9.967585e+001 5.000000e+000
    endloop
  endfacet
  facet normal -6.469405e-002 -2.210930e-003 -0.000000e+000
    outer loop
      vertex   -1.297389e+002 9.967585e+001 5.000000e+000
      vertex   -1.297500e+002 1.000000e+002 0.000000e+000
      vertex   -1.297389e+002 9.967585e+001 0.000000e+000
    endloop
  endfacet
  facet normal -6.439256e-002 -6.617561e-003 -0.000000e+000
    outer loop
      vertex   -1.297389e+002 9.967585e+001 5.000000e+000
      vertex   -1.297389e+002 9.967585e+001 0.000000e+000
      vertex   -1.297058e+002 9.935321e+001 0.000000e+000
    endloop
  endfacet
  facet normal -9.947608e-001 1.022306e-001 0.000000e+000
    outer loop
      vertex   -1.297389e+002 1.003242e+002 5.000000e+000
      vertex   -1.297058e+002 1.006468e+002 5.000000e+000
      vertex   -1.297389e+002 1.003242e+002 0.000000e+000
    endloop
  endfacet
  facet normal -9.926744e-001 1.020162e-001 -8.673617e-019
    outer loop
      vertex   -1.297389e+002 1.003242e+002 0.000000e+000
      vertex   -1.297058e+002 1.006468e+002 5.000000e+000
      vertex   -1.297058e+002 1.006468e+002 0.000000e+000
    endloop
  endfacet
  facet normal -6.379110e-002 1.099983e-002 0.000000e+000
    outer loop
      vertex   -1.297058e+002 1.006468e+002 0.000000e+000
      vertex   -1.297058e+002 1.006468e+002 5.000000e+000
      vertex   -1.296507e+002 1.009664e+002 5.000000e+000
    endloop
  endfacet
  facet normal -9.833897e-001 1.695710e-001 0.000000e+000
    outer loop
      vertex   -1.297058e+002 1.006468e+002 0.000000e+000
      vertex   -1.296507e+002 1.009664e+002 5.000000e+000
      vertex   -1.296507e+002 1.009664e+002 0.000000e+000
    endloop
  endfacet
  facet normal -6.289120e-002 1.532728e-002 0.000000e+000
    outer loop
      vertex   -1.296507e+002 1.009664e+002 0.000000e+000
      vertex   -1.296507e+002 1.009664e+002 5.000000e+000
      vertex   -1.295739e+002 1.012815e+002 5.000000e+000
    endloop
  endfacet
  facet normal -9.695255e-001 2.362841e-001 -3.469447e-018
    outer loop
      vertex   -1.296507e+002 1.009664e+002 0.000000e+000
      vertex   -1.295739e+002 1.012815e+002 5.000000e+000
      vertex   -1.295739e+002 1.012815e+002 0.000000e+000
    endloop
  endfacet
  facet normal -6.169894e-002 1.958165e-002 0.000000e+000
    outer loop
      vertex   -1.295739e+002 1.012815e+002 0.000000e+000
      vertex   -1.295739e+002 1.012815e+002 5.000000e+000
      vertex   -1.294757e+002 1.015907e+002 5.000000e+000
    endloop
  endfacet
  facet normal -9.511489e-001 3.018701e-001 3.469447e-018
    outer loop
      vertex   -1.295739e+002 1.012815e+002 0.000000e+000
      vertex   -1.294757e+002 1.015907e+002 5.000000e+000
      vertex   -1.294757e+002 1.015907e+002 0.000000e+000
    endloop
  endfacet
  facet normal -6.021889e-002 2.374770e-002 0.000000e+000
    outer loop
      vertex   -1.294757e+002 1.015907e+002 0.000000e+000
      vertex   -1.294757e+002 1.015907e+002 5.000000e+000
      vertex   -1.293568e+002 1.018924e+002 5.000000e+000
    endloop
  endfacet
  facet normal -9.283250e-001 3.660907e-001 0.000000e+000
    outer loop
      vertex   -1.294757e+002 1.015907e+002 0.000000e+000
      vertex   -1.293568e+002 1.018924e+002 5.000000e+000
      vertex   -1.293568e+002 1.018924e+002 0.000000e+000
    endloop
  endfacet
  facet normal -5.845867e-002 2.780107e-002 0.000000e+000
    outer loop
      vertex   -1.293568e+002 1.018924e+002 0.000000e+000
      vertex   -1.293568e+002 1.018924e+002 5.000000e+000
      vertex   -1.292175e+002 1.021853e+002 5.000000e+000
    endloop
  endfacet
  facet normal -9.011846e-001 4.285744e-001 0.000000e+000
    outer loop
      vertex   -1.293568e+002 1.018924e+002 0.000000e+000
      vertex   -1.292175e+002 1.021853e+002 5.000000e+000
      vertex   -1.292175e+002 1.021853e+002 0.000000e+000
    endloop
  endfacet
  facet normal -5.642438e-002 3.172653e-002 0.000000e+000
    outer loop
      vertex   -1.292175e+002 1.021853e+002 0.000000e+000
      vertex   -1.292175e+002 1.021853e+002 5.000000e+000
      vertex   -1.290585e+002 1.024680e+002 5.000000e+000
    endloop
  endfacet
  facet normal -8.698277e-001 4.890903e-001 -3.469447e-018
    outer loop
      vertex   -1.292175e+002 1.021853e+002 0.000000e+000
      vertex   -1.290585e+002 1.024680e+002 5.000000e+000
      vertex   -1.290585e+002 1.024680e+002 0.000000e+000
    endloop
  endfacet
  facet normal -5.412818e-002 3.550277e-002 0.000000e+000
    outer loop
      vertex   -1.290585e+002 1.024680e+002 0.000000e+000
      vertex   -1.290585e+002 1.024680e+002 5.000000e+000
      vertex   -1.288806e+002 1.027392e+002 5.000000e+000
    endloop
  endfacet
  facet normal -8.344277e-001 5.473027e-001 6.938894e-018
    outer loop
      vertex   -1.290585e+002 1.024680e+002 0.000000e+000
      vertex   -1.288806e+002 1.027392e+002 5.000000e+000
      vertex   -1.288806e+002 1.027392e+002 0.000000e+000
    endloop
  endfacet
  facet normal -5.157770e-002 3.911153e-002 0.000000e+000
    outer loop
      vertex   -1.288806e+002 1.027392e+002 0.000000e+000
      vertex   -1.288806e+002 1.027392e+002 5.000000e+000
      vertex   -1.286846e+002 1.029977e+002 5.000000e+000
    endloop
  endfacet
  facet normal -7.951421e-001 6.029587e-001 -6.938894e-018
    outer loop
      vertex   -1.288806e+002 1.027392e+002 0.000000e+000
      vertex   -1.286846e+002 1.029977e+002 5.000000e+000
      vertex   -1.286846e+002 1.029977e+002 0.000000e+000
    endloop
  endfacet
  facet normal -4.878967e-002 4.254364e-002 0.000000e+000
    outer loop
      vertex   -1.286846e+002 1.029977e+002 0.000000e+000
      vertex   -1.286846e+002 1.029977e+002 5.000000e+000
      vertex   -1.284715e+002 1.032421e+002 5.000000e+000
    endloop
  endfacet
  facet normal -7.521226e-001 6.558363e-001 0.000000e+000
    outer loop
      vertex   -1.286846e+002 1.029977e+002 0.000000e+000
      vertex   -1.284715e+002 1.032421e+002 5.000000e+000
      vertex   -1.284715e+002 1.032421e+002 0.000000e+000
    endloop
  endfacet
  facet normal -4.577324e-002 4.577172e-002 0.000000e+000
    outer loop
      vertex   -1.284715e+002 1.032421e+002 0.000000e+000
      vertex   -1.284715e+002 1.032421e+002 5.000000e+000
      vertex   -1.282421e+002 1.034715e+002 5.000000e+000
    endloop
  endfacet
  facet normal -7.056355e-001 7.056120e-001 0.000000e+000
    outer loop
      vertex   -1.284715e+002 1.032421e+002 0.000000e+000
      vertex   -1.282421e+002 1.034715e+002 5.000000e+000
      vertex   -1.282421e+002 1.034715e+002 0.000000e+000
    endloop
  endfacet
  facet normal -4.254212e-002 4.878967e-002 0.000000e+000
    outer loop
      vertex   -1.282421e+002 1.034715e+002 0.000000e+000
      vertex   -1.282421e+002 1.034715e+002 5.000000e+000
      vertex   -1.279977e+002 1.036846e+002 5.000000e+000
    endloop
  endfacet
  facet normal -6.558230e-001 7.521343e-001 0.000000e+000
    outer loop
      vertex   -1.282421e+002 1.034715e+002 0.000000e+000
      vertex   -1.279977e+002 1.036846e+002 5.000000e+000
      vertex   -1.279977e+002 1.036846e+002 0.000000e+000
    endloop
  endfacet
  facet normal -3.911305e-002 5.157770e-002 0.000000e+000
    outer loop
      vertex   -1.279977e+002 1.036846e+002 0.000000e+000
      vertex   -1.279977e+002 1.036846e+002 5.000000e+000
      vertex   -1.277392e+002 1.038806e+002 5.000000e+000
    endloop
  endfacet
  facet normal -6.029735e-001 7.951307e-001 3.469447e-018
    outer loop
      vertex   -1.279977e+002 1.036846e+002 0.000000e+000
      vertex   -1.277392e+002 1.038806e+002 5.000000e+000
      vertex   -1.277392e+002 1.038806e+002 0.000000e+000
    endloop
  endfacet
  facet normal -3.550277e-002 5.412818e-002 0.000000e+000
    outer loop
      vertex   -1.277392e+002 1.038806e+002 0.000000e+000
      vertex   -1.277392e+002 1.038806e+002 5.000000e+000
      vertex   -1.274680e+002 1.040585e+002 5.000000e+000
    endloop
  endfacet
  facet normal -5.473027e-001 8.344277e-001 -6.938894e-018
    outer loop
      vertex   -1.277392e+002 1.038806e+002 0.000000e+000
      vertex   -1.274680e+002 1.040585e+002 5.000000e+000
      vertex   -1.274680e+002 1.040585e+002 0.000000e+000
    endloop
  endfacet
  facet normal -3.172501e-002 5.642438e-002 0.000000e+000
    outer loop
      vertex   -1.274680e+002 1.040585e+002 0.000000e+000
      vertex   -1.274680e+002 1.040585e+002 5.000000e+000
      vertex   -1.271853e+002 1.042175e+002 5.000000e+000
    endloop
  endfacet
  facet normal -4.890725e-001 8.698378e-001 0.000000e+000
    outer loop
      vertex   -1.274680e+002 1.040585e+002 0.000000e+000
      vertex   -1.271853e+002 1.042175e+002 5.000000e+000
      vertex   -1.271853e+002 1.042175e+002 0.000000e+000
    endloop
  endfacet
  facet normal -2.780107e-002 5.845867e-002 0.000000e+000
    outer loop
      vertex   -1.271853e+002 1.042175e+002 0.000000e+000
      vertex   -1.271853e+002 1.042175e+002 5.000000e+000
      vertex   -1.268924e+002 1.043568e+002 5.000000e+000
    endloop
  endfacet
  facet normal -4.285744e-001 9.011846e-001 0.000000e+000
    outer loop
      vertex   -1.271853e+002 1.042175e+002 0.000000e+000
      vertex   -1.268924e+002 1.043568e+002 5.000000e+000
      vertex   -1.268924e+002 1.043568e+002 0.000000e+000
    endloop
  endfacet
  facet normal -2.374770e-002 6.021889e-002 0.000000e+000
    outer loop
      vertex   -1.268924e+002 1.043568e+002 0.000000e+000
      vertex   -1.268924e+002 1.043568e+002 5.000000e+000
      vertex   -1.265907e+002 1.044757e+002 5.000000e+000
    endloop
  endfacet
  facet normal -3.660907e-001 9.283250e-001 0.000000e+000
    outer loop
      vertex   -1.268924e+002 1.043568e+002 0.000000e+000
      vertex   -1.265907e+002 1.044757e+002 5.000000e+000
      vertex   -1.265907e+002 1.044757e+002 0.000000e+000
    endloop
  endfacet
  facet normal -1.958317e-002 6.169894e-002 0.000000e+000
    outer loop
      vertex   -1.265907e+002 1.044757e+002 0.000000e+000
      vertex   -1.265907e+002 1.044757e+002 5.000000e+000
      vertex   -1.262815e+002 1.045739e+002 5.000000e+000
    endloop
  endfacet
  facet normal -3.018914e-001 9.511421e-001 0.000000e+000
    outer loop
      vertex   -1.265907e+002 1.044757e+002 0.000000e+000
      vertex   -1.262815e+002 1.045739e+002 5.000000e+000
      vertex   -1.262815e+002 1.045739e+002 0.000000e+000
    endloop
  endfacet
  facet normal -1.532576e-002 6.289120e-002 0.000000e+000
    outer loop
      vertex   -1.262815e+002 1.045739e+002 0.000000e+000
      vertex   -1.262815e+002 1.045739e+002 5.000000e+000
      vertex   -1.259664e+002 1.046507e+002 5.000000e+000
    endloop
  endfacet
  facet normal -2.362620e-001 9.695309e-001 1.734723e-018
    outer loop
      vertex   -1.262815e+002 1.045739e+002 0.000000e+000
      vertex   -1.259664e+002 1.046507e+002 5.000000e+000
      vertex   -1.259664e+002 1.046507e+002 0.000000e+000
    endloop
  endfacet
  facet normal -1.099831e-002 6.379110e-002 0.000000e+000
    outer loop
      vertex   -1.259664e+002 1.046507e+002 0.000000e+000
      vertex   -1.259664e+002 1.046507e+002 5.000000e+000
      vertex   -1.256468e+002 1.047058e+002 5.000000e+000
    endloop
  endfacet
  facet normal -1.695482e-001 9.833937e-001 0.000000e+000
    outer loop
      vertex   -1.259664e+002 1.046507e+002 0.000000e+000
      vertex   -1.256468e+002 1.047058e+002 5.000000e+000
      vertex   -1.256468e+002 1.047058e+002 0.000000e+000
    endloop
  endfacet
  facet normal -6.620607e-003 6.439256e-002 0.000000e+000
    outer loop
      vertex   -1.256468e+002 1.047058e+002 0.000000e+000
      vertex   -1.256468e+002 1.047058e+002 5.000000e+000
      vertex   -1.253242e+002 1.047389e+002 5.000000e+000
    endloop
  endfacet
  facet normal -1.020627e-001 9.926696e-001 8.673617e-019
    outer loop
      vertex   -1.256468e+002 1.047058e+002 0.000000e+000
      vertex   -1.253242e+002 1.047389e+002 5.000000e+000
      vertex   -1.253242e+002 1.047389e+002 0.000000e+000
    endloop
  endfacet
  facet normal -2.209407e-003 6.469405e-002 0.000000e+000
    outer loop
      vertex   -1.253242e+002 1.047389e+002 0.000000e+000
      vertex   -1.253242e+002 1.047389e+002 5.000000e+000
      vertex   -1.250000e+002 1.047500e+002 5.000000e+000
    endloop
  endfacet
  facet normal -3.406014e-002 9.973212e-001 -4.336809e-019
    outer loop
      vertex   -1.253242e+002 1.047389e+002 0.000000e+000
      vertex   -1.250000e+002 1.047500e+002 5.000000e+000
      vertex   -1.250000e+002 1.047500e+002 0.000000e+000
    endloop
  endfacet
  facet normal 2.209407e-003 6.469405e-002 -0.000000e+000
    outer loop
      vertex   -1.250000e+002 1.047500e+002 0.000000e+000
      vertex   -1.250000e+002 1.047500e+002 5.000000e+000
      vertex   -1.246758e+002 1.047389e+002 5.000000e+000
    endloop
  endfacet
  facet normal 3.406014e-002 9.973212e-001 4.336809e-019
    outer loop
      vertex   -1.250000e+002 1.047500e+002 0.000000e+000
      vertex   -1.246758e+002 1.047389e+002 5.000000e+000
      vertex   -1.246758e+002 1.047389e+002 0.000000e+000
    endloop
  endfacet
  facet normal 6.620607e-003 6.439256e-002 -0.000000e+000
    outer loop
      vertex   -1.246758e+002 1.047389e+002 0.000000e+000
      vertex   -1.246758e+002 1.047389e+002 5.000000e+000
      vertex   -1.243532e+002 1.047058e+002 5.000000e+000
    endloop
  endfacet
  facet normal 1.020627e-001 9.926696e-001 -8.673617e-019
    outer loop
      vertex   -1.246758e+002 1.047389e+002 0.000000e+000
      vertex   -1.243532e+002 1.047058e+002 5.000000e+000
      vertex   -1.243532e+002 1.047058e+002 0.000000e+000
    endloop
  endfacet
  facet normal 1.099831e-002 6.379110e-002 -0.000000e+000
    outer loop
      vertex   -1.243532e+002 1.047058e+002 0.000000e+000
      vertex   -1.243532e+002 1.047058e+002 5.000000e+000
      vertex   -1.240336e+002 1.046507e+002 5.000000e+000
    endloop
  endfacet
  facet normal 1.695482e-001 9.833937e-001 0.000000e+000
    outer loop
      vertex   -1.243532e+002 1.047058e+002 0.000000e+000
      vertex   -1.240336e+002 1.046507e+002 5.000000e+000
      vertex   -1.240336e+002 1.046507e+002 0.000000e+000
    endloop
  endfacet
  facet normal 1.532576e-002 6.289120e-002 -0.000000e+000
    outer loop
      vertex   -1.240336e+002 1.046507e+002 0.000000e+000
      vertex   -1.240336e+002 1.046507e+002 5.000000e+000
      vertex   -1.237185e+002 1.045739e+002 5.000000e+000
    endloop
  endfacet
  facet normal 2.362620e-001 9.695309e-001 -1.734723e-018
    outer loop
      vertex   -1.240336e+002 1.046507e+002 0.000000e+000
      vertex   -1.237185e+002 1.045739e+002 5.000000e+000
      vertex   -1.237185e+002 1.045739e+002 0.000000e+000
    endloop
  endfacet
  facet normal 1.958317e-002 6.169894e-002 -0.000000e+000
    outer loop
      vertex   -1.237185e+002 1.045739e+002 0.000000e+000
      vertex   -1.237185e+002 1.045739e+002 5.000000e+000
      vertex   -1.234093e+002 1.044757e+002 5.000000e+000
    endloop
  endfacet
  facet normal 3.018914e-001 9.511421e-001 0.000000e+000
    outer loop
      vertex   -1.237185e+002 1.045739e+002 0.000000e+000
      vertex   -1.234093e+002 1.044757e+002 5.000000e+000
      vertex   -1.234093e+002 1.044757e+002 0.000000e+000
    endloop
  endfacet
  facet normal 2.374770e-002 6.021889e-002 -0.000000e+000
    outer loop
      vertex   -1.234093e+002 1.044757e+002 0.000000e+000
      vertex   -1.234093e+002 1.044757e+002 5.000000e+000
      vertex   -1.231076e+002 1.043568e+002 5.000000e+000
    endloop
  endfacet
  facet normal 3.660907e-001 9.283250e-001 0.000000e+000
    outer loop
      vertex   -1.234093e+002 1.044757e+002 0.000000e+000
      vertex   -1.231076e+002 1.043568e+002 5.000000e+000
      vertex   -1.231076e+002 1.043568e+002 0.000000e+000
    endloop
  endfacet
  facet normal 2.780107e-002 5.845867e-002 -0.000000e+000
    outer loop
      vertex   -1.231076e+002 1.043568e+002 0.000000e+000
      vertex   -1.231076e+002 1.043568e+002 5.000000e+000
      vertex   -1.228147e+002 1.042175e+002 5.000000e+000
    endloop
  endfacet
  facet normal 4.285744e-001 9.011846e-001 0.000000e+000
    outer loop
      vertex   -1.231076e+002 1.043568e+002 0.000000e+000
      vertex   -1.228147e+002 1.042175e+002 5.000000e+000
      vertex   -1.228147e+002 1.042175e+002 0.000000e+000
    endloop
  endfacet
  facet normal 3.172501e-002 5.642438e-002 -0.000000e+000
    outer loop
      vertex   -1.228147e+002 1.042175e+002 0.000000e+000
      vertex   -1.228147e+002 1.042175e+002 5.000000e+000
      vertex   -1.225320e+002 1.040585e+002 5.000000e+000
    endloop
  endfacet
  facet normal 4.890725e-001 8.698378e-001 0.000000e+000
    outer loop
      vertex   -1.228147e+002 1.042175e+002 0.000000e+000
      vertex   -1.225320e+002 1.040585e+002 5.000000e+000
      vertex   -1.225320e+002 1.040585e+002 0.000000e+000
    endloop
  endfacet
  facet normal 3.550277e-002 5.412818e-002 -0.000000e+000
    outer loop
      vertex   -1.225320e+002 1.040585e+002 0.000000e+000
      vertex   -1.225320e+002 1.040585e+002 5.000000e+000
      vertex   -1.222608e+002 1.038806e+002 5.000000e+000
    endloop
  endfacet
  facet normal 5.473027e-001 8.344277e-001 6.938894e-018
    outer loop
      vertex   -1.225320e+002 1.040585e+002 0.000000e+000
      vertex   -1.222608e+002 1.038806e+002 5.000000e+000
      vertex   -1.222608e+002 1.038806e+002 0.000000e+000
    endloop
  endfacet
  facet normal 3.911305e-002 5.157770e-002 -0.000000e+000
    outer loop
      vertex   -1.222608e+002 1.038806e+002 0.000000e+000
      vertex   -1.222608e+002 1.038806e+002 5.000000e+000
      vertex   -1.220023e+002 1.036846e+002 5.000000e+000
    endloop
  endfacet
  facet normal 6.029735e-001 7.951307e-001 -3.469447e-018
    outer loop
      vertex   -1.222608e+002 1.038806e+002 0.000000e+000
      vertex   -1.220023e+002 1.036846e+002 5.000000e+000
      vertex   -1.220023e+002 1.036846e+002 0.000000e+000
    endloop
  endfacet
  facet normal 4.254212e-002 4.878967e-002 -0.000000e+000
    outer loop
      vertex   -1.220023e+002 1.036846e+002 0.000000e+000
      vertex   -1.220023e+002 1.036846e+002 5.000000e+000
      vertex   -1.217579e+002 1.034715e+002 5.000000e+000
    endloop
  endfacet
  facet normal 6.558230e-001 7.521343e-001 0.000000e+000
    outer loop
      vertex   -1.220023e+002 1.036846e+002 0.000000e+000
      vertex   -1.217579e+002 1.034715e+002 5.000000e+000
      vertex   -1.217579e+002 1.034715e+002 0.000000e+000
    endloop
  endfacet
  facet normal 4.577324e-002 4.577324e-002 -0.000000e+000
    outer loop
      vertex   -1.217579e+002 1.034715e+002 0.000000e+000
      vertex   -1.217579e+002 1.034715e+002 5.000000e+000
      vertex   -1.215285e+002 1.032421e+002 5.000000e+000
    endloop
  endfacet
  facet normal 7.056237e-001 7.056237e-001 0.000000e+000
    outer loop
      vertex   -1.217579e+002 1.034715e+002 0.000000e+000
      vertex   -1.215285e+002 1.032421e+002 5.000000e+000
      vertex   -1.215285e+002 1.032421e+002 0.000000e+000
    endloop
  endfacet
  facet normal 4.878967e-002 4.254212e-002 -0.000000e+000
    outer loop
      vertex   -1.215285e+002 1.032421e+002 0.000000e+000
      vertex   -1.215285e+002 1.032421e+002 5.000000e+000
      vertex   -1.213154e+002 1.029977e+002 5.000000e+000
    endloop
  endfacet
  facet normal 7.521343e-001 6.558230e-001 0.000000e+000
    outer loop
      vertex   -1.215285e+002 1.032421e+002 0.000000e+000
      vertex   -1.213154e+002 1.029977e+002 5.000000e+000
      vertex   -1.213154e+002 1.029977e+002 0.000000e+000
    endloop
  endfacet
  facet normal 5.157770e-002 3.911305e-002 -0.000000e+000
    outer loop
      vertex   -1.213154e+002 1.029977e+002 0.000000e+000
      vertex   -1.213154e+002 1.029977e+002 5.000000e+000
      vertex   -1.211194e+002 1.027392e+002 5.000000e+000
    endloop
  endfacet
  facet normal 7.951307e-001 6.029735e-001 3.469447e-018
    outer loop
      vertex   -1.213154e+002 1.029977e+002 0.000000e+000
      vertex   -1.211194e+002 1.027392e+002 5.000000e+000
      vertex   -1.211194e+002 1.027392e+002 0.000000e+000
    endloop
  endfacet
  facet normal 5.412818e-002 3.550277e-002 -0.000000e+000
    outer loop
      vertex   -1.211194e+002 1.027392e+002 0.000000e+000
      vertex   -1.211194e+002 1.027392e+002 5.000000e+000
      vertex   -1.209415e+002 1.024680e+002 5.000000e+000
    endloop
  endfacet
  facet normal 8.344277e-001 5.473027e-001 -6.938894e-018
    outer loop
      vertex   -1.211194e+002 1.027392e+002 0.000000e+000
      vertex   -1.209415e+002 1.024680e+002 5.000000e+000
      vertex   -1.209415e+002 1.024680e+002 0.000000e+000
    endloop
  endfacet
  facet normal 5.642438e-002 3.172501e-002 -0.000000e+000
    outer loop
      vertex   -1.209415e+002 1.024680e+002 0.000000e+000
      vertex   -1.209415e+002 1.024680e+002 5.000000e+000
      vertex   -1.207825e+002 1.021853e+002 5.000000e+000
    endloop
  endfacet
  facet normal 8.698378e-001 4.890725e-001 0.000000e+000
    outer loop
      vertex   -1.209415e+002 1.024680e+002 0.000000e+000
      vertex   -1.207825e+002 1.021853e+002 5.000000e+000
      vertex   -1.207825e+002 1.021853e+002 0.000000e+000
    endloop
  endfacet
  facet normal 5.845867e-002 2.780107e-002 -0.000000e+000
    outer loop
      vertex   -1.207825e+002 1.021853e+002 0.000000e+000
      vertex   -1.207825e+002 1.021853e+002 5.000000e+000
      vertex   -1.206432e+002 1.018924e+002 5.000000e+000
    endloop
  endfacet
  facet normal 9.011846e-001 4.285744e-001 0.000000e+000
    outer loop
      vertex   -1.207825e+002 1.021853e+002 0.000000e+000
      vertex   -1.206432e+002 1.018924e+002 5.000000e+000
      vertex   -1.206432e+002 1.018924e+002 0.000000e+000
    endloop
  endfacet
  facet normal 6.021889e-002 2.374770e-002 -0.000000e+000
    outer loop
      vertex   -1.206432e+002 1.018924e+002 0.000000e+000
      vertex   -1.206432e+002 1.018924e+002 5.000000e+000
      vertex   -1.205243e+002 1.015907e+002 5.000000e+000
    endloop
  endfacet
  facet normal 9.283250e-001 3.660907e-001 0.000000e+000
    outer loop
      vertex   -1.206432e+002 1.018924e+002 0.000000e+000
      vertex   -1.205243e+002 1.015907e+002 5.000000e+000
      vertex   -1.205243e+002 1.015907e+002 0.000000e+000
    endloop
  endfacet
  facet normal 6.169894e-002 1.958317e-002 -0.000000e+000
    outer loop
      vertex   -1.205243e+002 1.015907e+002 0.000000e+000
      vertex   -1.205243e+002 1.015907e+002 5.000000e+000
      vertex   -1.204261e+002 1.012815e+002 5.000000e+000
    endloop
  endfacet
  facet normal 9.511421e-001 3.018914e-001 0.000000e+000
    outer loop
      vertex   -1.205243e+002 1.015907e+002 0.000000e+000
      vertex   -1.204261e+002 1.012815e+002 5.000000e+000
      vertex   -1.204261e+002 1.012815e+002 0.000000e+000
    endloop
  endfacet
  facet normal 6.289120e-002 1.532576e-002 -0.000000e+000
    outer loop
      vertex   -1.204261e+002 1.012815e+002 0.000000e+000
      vertex   -1.204261e+002 1.012815e+002 5.000000e+000
      vertex   -1.203493e+002 1.009664e+002 5.000000e+000
    endloop
  endfacet
  facet normal 9.695309e-001 2.362620e-001 1.734723e-018
    outer loop
      vertex   -1.204261e+002 1.012815e+002 0.000000e+000
      vertex   -1.203493e+002 1.009664e+002 5.000000e+000
      vertex   -1.203493e+002 1.009664e+002 0.000000e+000
    endloop
  endfacet
  facet normal 6.379110e-002 1.099831e-002 -0.000000e+000
    outer loop
      vertex   -1.203493e+002 1.009664e+002 0.000000e+000
      vertex   -1.203493e+002 1.009664e+002 5.000000e+000
      vertex   -1.202942e+002 1.006468e+002 5.000000e+000
    endloop
  endfacet
  facet normal 9.833937e-001 1.695482e-001 0.000000e+000
    outer loop
      vertex   -1.203493e+002 1.009664e+002 0.000000e+000
      vertex   -1.202942e+002 1.006468e+002 5.000000e+000
      vertex   -1.202942e+002 1.006468e+002 0.000000e+000
    endloop
  endfacet
  facet normal 6.439256e-002 6.620607e-003 -0.000000e+000
    outer loop
      vertex   -1.202942e+002 1.006468e+002 0.000000e+000
      vertex   -1.202942e+002 1.006468e+002 5.000000e+000
      vertex   -1.202611e+002 1.003242e+002 5.000000e+000
    endloop
  endfacet
  facet normal 9.926696e-001 1.020627e-001 8.673617e-019
    outer loop
      vertex   -1.202942e+002 1.006468e+002 0.000000e+000
      vertex   -1.202611e+002 1.003242e+002 5.000000e+000
      vertex   -1.202611e+002 1.003242e+002 0.000000e+000
    endloop
  endfacet
  facet normal 6.469405e-002 2.209407e-003 -0.000000e+000
    outer loop
      vertex   -1.202611e+002 1.003242e+002 0.000000e+000
      vertex   -1.202611e+002 1.003242e+002 5.000000e+000
      vertex   -1.202500e+002 1.000000e+002 5.000000e+000
    endloop
  endfacet
  facet normal 9.973212e-001 3.406014e-002 -4.336809e-019
    outer loop
      vertex   -1.202611e+002 1.003242e+002 0.000000e+000
      vertex   -1.202500e+002 1.000000e+002 5.000000e+000
      vertex   -1.202500e+002 1.000000e+002 0.000000e+000
    endloop
  endfacet
  facet normal 6.469405e-002 -2.209407e-003 0.000000e+000
    outer loop
      vertex   -1.202500e+002 1.000000e+002 0.000000e+000
      vertex   -1.202500e+002 1.000000e+002 5.000000e+000
      vertex   -1.202611e+002 9.967585e+001 5.000000e+000
    endloop
  endfacet
  facet normal 9.973212e-001 -3.406014e-002 4.336809e-019
    outer loop
      vertex   -1.202500e+002 1.000000e+002 0.000000e+000
      vertex   -1.202611e+002 9.967585e+001 5.000000e+000
      vertex   -1.202611e+002 9.967585e+001 0.000000e+000
    endloop
  endfacet
  facet normal 6.439256e-002 -6.620607e-003 0.000000e+000
    outer loop
      vertex   -1.202611e+002 9.967585e+001 0.000000e+000
      vertex   -1.202611e+002 9.967585e+001 5.000000e+000
      vertex   -1.202942e+002 9.935321e+001 5.000000e+000
    endloop
  endfacet
  facet normal 9.926696e-001 -1.020627e-001 -8.673617e-019
    outer loop
      vertex   -1.202611e+002 9.967585e+001 0.000000e+000
      vertex   -1.202942e+002 9.935321e+001 5.000000e+000
      vertex   -1.202942e+002 9.935321e+001 0.000000e+000
    endloop
  endfacet
  facet normal 6.379110e-002 -1.099831e-002 0.000000e+000
    outer loop
      vertex   -1.202942e+002 9.935321e+001 0.000000e+000
      vertex   -1.202942e+002 9.935321e+001 5.000000e+000
      vertex   -1.203493e+002 9.903358e+001 5.000000e+000
    endloop
  endfacet
  facet normal 9.833937e-001 -1.695482e-001 0.000000e+000
    outer loop
      vertex   -1.202942e+002 9.935321e+001 0.000000e+000
      vertex   -1.203493e+002 9.903358e+001 5.000000e+000
      vertex   -1.203493e+002 9.903358e+001 0.000000e+000
    endloop
  endfacet
  facet normal 6.289120e-002 -1.532576e-002 0.000000e+000
    outer loop
      vertex   -1.203493e+002 9.903358e+001 0.000000e+000
      vertex   -1.203493e+002 9.903358e+001 5.000000e+000
      vertex   -1.204261e+002 9.871847e+001 5.000000e+000
    endloop
  endfacet
  facet normal 9.695309e-001 -2.362620e-001 -1.734723e-018
    outer loop
      vertex   -1.203493e+002 9.903358e+001 0.000000e+000
      vertex   -1.204261e+002 9.871847e+001 5.000000e+000
      vertex   -1.204261e+002 9.871847e+001 0.000000e+000
    endloop
  endfacet
  facet normal 6.169894e-002 -1.958317e-002 0.000000e+000
    outer loop
      vertex   -1.204261e+002 9.871847e+001 0.000000e+000
      vertex   -1.204261e+002 9.871847e+001 5.000000e+000
      vertex   -1.205243e+002 9.840932e+001 5.000000e+000
    endloop
  endfacet
  facet normal 9.511421e-001 -3.018914e-001 0.000000e+000
    outer loop
      vertex   -1.204261e+002 9.871847e+001 0.000000e+000
      vertex   -1.205243e+002 9.840932e+001 5.000000e+000
      vertex   -1.205243e+002 9.840932e+001 0.000000e+000
    endloop
  endfacet
  facet normal 6.021889e-002 -2.374770e-002 0.000000e+000
    outer loop
      vertex   -1.205243e+002 9.840932e+001 0.000000e+000
      vertex   -1.205243e+002 9.840932e+001 5.000000e+000
      vertex   -1.206432e+002 9.810760e+001 5.000000e+000
    endloop
  endfacet
  facet normal 9.283250e-001 -3.660907e-001 0.000000e+000
    outer loop
      vertex   -1.205243e+002 9.840932e+001 0.000000e+000
      vertex   -1.206432e+002 9.810760e+001 5.000000e+000
      vertex   -1.206432e+002 9.810760e+001 0.000000e+000
    endloop
  endfacet
  facet normal 5.845867e-002 -2.780107e-002 0.000000e+000
    outer loop
      vertex   -1.206432e+002 9.810760e+001 0.000000e+000
      vertex   -1.206432e+002 9.810760e+001 5.000000e+000
      vertex   -1.207825e+002 9.781469e+001 5.000000e+000
    endloop
  endfacet
  facet normal 9.011846e-001 -4.285744e-001 0.000000e+000
    outer loop
      vertex   -1.206432e+002 9.810760e+001 0.000000e+000
      vertex   -1.207825e+002 9.781469e+001 5.000000e+000
      vertex   -1.207825e+002 9.781469e+001 0.000000e+000
    endloop
  endfacet
  facet normal 5.642438e-002 -3.172501e-002 0.000000e+000
    outer loop
      vertex   -1.207825e+002 9.781469e+001 0.000000e+000
      vertex   -1.207825e+002 9.781469e+001 5.000000e+000
      vertex   -1.209415e+002 9.753197e+001 5.000000e+000
    endloop
  endfacet
  facet normal 8.698378e-001 -4.890725e-001 0.000000e+000
    outer loop
      vertex   -1.207825e+002 9.781469e+001 0.000000e+000
      vertex   -1.209415e+002 9.753197e+001 5.000000e+000
      vertex   -1.209415e+002 9.753197e+001 0.000000e+000
    endloop
  endfacet
  facet normal 5.412818e-002 -3.550277e-002 0.000000e+000
    outer loop
      vertex   -1.209415e+002 9.753197e+001 0.000000e+000
      vertex   -1.209415e+002 9.753197e+001 5.000000e+000
      vertex   -1.211194e+002 9.726077e+001 5.000000e+000
    endloop
  endfacet
  facet normal 8.344277e-001 -5.473027e-001 6.938894e-018
    outer loop
      vertex   -1.209415e+002 9.753197e+001 0.000000e+000
      vertex   -1.211194e+002 9.726077e+001 5.000000e+000
      vertex   -1.211194e+002 9.726077e+001 0.000000e+000
    endloop
  endfacet
  facet normal 5.157770e-002 -3.911305e-002 0.000000e+000
    outer loop
      vertex   -1.211194e+002 9.726077e+001 0.000000e+000
      vertex   -1.211194e+002 9.726077e+001 5.000000e+000
      vertex   -1.213154e+002 9.700233e+001 5.000000e+000
    endloop
  endfacet
  facet normal 7.951307e-001 -6.029735e-001 -3.469447e-018
    outer loop
      vertex   -1.211194e+002 9.726077e+001 0.000000e+000
      vertex   -1.213154e+002 9.700233e+001 5.000000e+000
      vertex   -1.213154e+002 9.700233e+001 0.000000e+000
    endloop
  endfacet
  facet normal 4.878967e-002 -4.254212e-002 0.000000e+000
    outer loop
      vertex   -1.213154e+002 9.700233e+001 0.000000e+000
      vertex   -1.213154e+002 9.700233e+001 5.000000e+000
      vertex   -1.215285e+002 9.675787e+001 5.000000e+000
    endloop
  endfacet
  facet normal 7.521343e-001 -6.558230e-001 0.000000e+000
    outer loop
      vertex   -1.213154e+002 9.700233e+001 0.000000e+000
      vertex   -1.215285e+002 9.675787e+001 5.000000e+000
      vertex   -1.215285e+002 9.675787e+001 0.000000e+000
    endloop
  endfacet
  facet normal 4.577324e-002 -4.577324e-002 0.000000e+000
    outer loop
      vertex   -1.215285e+002 9.675787e+001 0.000000e+000
      vertex   -1.215285e+002 9.675787e+001 5.000000e+000
      vertex   -1.217579e+002 9.652853e+001 5.000000e+000
    endloop
  endfacet
  facet normal 7.056237e-001 -7.056237e-001 0.000000e+000
    outer loop
      vertex   -1.215285e+002 9.675787e+001 0.000000e+000
      vertex   -1.217579e+002 9.652853e+001 5.000000e+000
      vertex   -1.217579e+002 9.652853e+001 0.000000e+000
    endloop
  endfacet
  facet normal 4.254212e-002 -4.878967e-002 0.000000e+000
    outer loop
      vertex   -1.217579e+002 9.652853e+001 0.000000e+000
      vertex   -1.217579e+002 9.652853e+001 5.000000e+000
      vertex   -1.220023e+002 9.631537e+001 5.000000e+000
    endloop
  endfacet
  facet normal 6.558230e-001 -7.521343e-001 0.000000e+000
    outer loop
      vertex   -1.217579e+002 9.652853e+001 0.000000e+000
      vertex   -1.220023e+002 9.631537e+001 5.000000e+000
      vertex   -1.220023e+002 9.631537e+001 0.000000e+000
    endloop
  endfacet
  facet normal 3.911305e-002 -5.157770e-002 0.000000e+000
    outer loop
      vertex   -1.220023e+002 9.631537e+001 0.000000e+000
      vertex   -1.220023e+002 9.631537e+001 5.000000e+000
      vertex   -1.222608e+002 9.611939e+001 5.000000e+000
    endloop
  endfacet
  facet normal 6.029735e-001 -7.951307e-001 3.469447e-018
    outer loop
      vertex   -1.220023e+002 9.631537e+001 0.000000e+000
      vertex   -1.222608e+002 9.611939e+001 5.000000e+000
      vertex   -1.222608e+002 9.611939e+001 0.000000e+000
    endloop
  endfacet
  facet normal 3.550277e-002 -5.412818e-002 0.000000e+000
    outer loop
      vertex   -1.222608e+002 9.611939e+001 0.000000e+000
      vertex   -1.222608e+002 9.611939e+001 5.000000e+000
      vertex   -1.225320e+002 9.594151e+001 5.000000e+000
    endloop
  endfacet
  facet normal 5.473027e-001 -8.344277e-001 -6.938894e-018
    outer loop
      vertex   -1.222608e+002 9.611939e+001 0.000000e+000
      vertex   -1.225320e+002 9.594151e+001 5.000000e+000
      vertex   -1.225320e+002 9.594151e+001 0.000000e+000
    endloop
  endfacet
  facet normal 3.172501e-002 -5.642438e-002 0.000000e+000
    outer loop
      vertex   -1.225320e+002 9.594151e+001 0.000000e+000
      vertex   -1.225320e+002 9.594151e+001 5.000000e+000
      vertex   -1.228147e+002 9.578255e+001 5.000000e+000
    endloop
  endfacet
  facet normal 4.890725e-001 -8.698378e-001 0.000000e+000
    outer loop
      vertex   -1.225320e+002 9.594151e+001 0.000000e+000
      vertex   -1.228147e+002 9.578255e+001 5.000000e+000
      vertex   -1.228147e+002 9.578255e+001 0.000000e+000
    endloop
  endfacet
  facet normal 2.780107e-002 -5.845867e-002 0.000000e+000
    outer loop
      vertex   -1.228147e+002 9.578255e+001 0.000000e+000
      vertex   -1.228147e+002 9.578255e+001 5.000000e+000
      vertex   -1.231076e+002 9.564325e+001 5.000000e+000
    endloop
  endfacet
  facet normal 4.285744e-001 -9.011846e-001 0.000000e+000
    outer loop
      vertex   -1.228147e+002 9.578255e+001 0.000000e+000
      vertex   -1.231076e+002 9.564325e+001 5.000000e+000
      vertex   -1.231076e+002 9.564325e+001 0.000000e+000
    endloop
  endfacet
  facet normal 2.374770e-002 -6.021889e-002 0.000000e+000
    outer loop
      vertex   -1.231076e+002 9.564325e+001 0.000000e+000
      vertex   -1.231076e+002 9.564325e+001 5.000000e+000
      vertex   -1.234093e+002 9.552426e+001 5.000000e+000
    endloop
  endfacet
  facet normal 3.660907e-001 -9.283250e-001 0.000000e+000
    outer loop
      vertex   -1.231076e+002 9.564325e+001 0.000000e+000
      vertex   -1.234093e+002 9.552426e+001 5.000000e+000
      vertex   -1.234093e+002 9.552426e+001 0.000000e+000
    endloop
  endfacet
  facet normal 1.958317e-002 -6.169894e-002 0.000000e+000
    outer loop
      vertex   -1.234093e+002 9.552426e+001 0.000000e+000
      vertex   -1.234093e+002 9.552426e+001 5.000000e+000
      vertex   -1.237185e+002 9.542614e+001 5.000000e+000
    endloop
  endfacet
  facet normal 3.018914e-001 -9.511421e-001 0.000000e+000
    outer loop
      vertex   -1.234093e+002 9.552426e+001 0.000000e+000
      vertex   -1.237185e+002 9.542614e+001 5.000000e+000
      vertex   -1.237185e+002 9.542614e+001 0.000000e+000
    endloop
  endfacet
  facet normal 1.532576e-002 -6.289120e-002 0.000000e+000
    outer loop
      vertex   -1.237185e+002 9.542614e+001 0.000000e+000
      vertex   -1.237185e+002 9.542614e+001 5.000000e+000
      vertex   -1.240336e+002 9.534935e+001 5.000000e+000
    endloop
  endfacet
  facet normal 2.362620e-001 -9.695309e-001 1.734723e-018
    outer loop
      vertex   -1.237185e+002 9.542614e+001 0.000000e+000
      vertex   -1.240336e+002 9.534935e+001 5.000000e+000
      vertex   -1.240336e+002 9.534935e+001 0.000000e+000
    endloop
  endfacet
  facet normal 1.099831e-002 -6.379110e-002 0.000000e+000
    outer loop
      vertex   -1.240336e+002 9.534935e+001 0.000000e+000
      vertex   -1.240336e+002 9.534935e+001 5.000000e+000
      vertex   -1.243532e+002 9.529424e+001 5.000000e+000
    endloop
  endfacet
  facet normal 1.695482e-001 -9.833937e-001 0.000000e+000
    outer loop
      vertex   -1.240336e+002 9.534935e+001 0.000000e+000
      vertex   -1.243532e+002 9.529424e+001 5.000000e+000
      vertex   -1.243532e+002 9.529424e+001 0.000000e+000
    endloop
  endfacet
  facet normal 6.620607e-003 -6.439256e-002 0.000000e+000
    outer loop
      vertex   -1.243532e+002 9.529424e+001 0.000000e+000
      vertex   -1.243532e+002 9.529424e+001 5.000000e+000
      vertex   -1.246758e+002 9.526107e+001 5.000000e+000
    endloop
  endfacet
  facet normal 1.020627e-001 -9.926696e-001 8.673617e-019
    outer loop
      vertex   -1.243532e+002 9.529424e+001 0.000000e+000
      vertex   -1.246758e+002 9.526107e+001 5.000000e+000
      vertex   -1.246758e+002 9.526107e+001 0.000000e+000
    endloop
  endfacet
  facet normal 2.209407e-003 -6.469405e-002 0.000000e+000
    outer loop
      vertex   -1.246758e+002 9.526107e+001 0.000000e+000
      vertex   -1.246758e+002 9.526107e+001 5.000000e+000
      vertex   -1.250000e+002 9.525000e+001 5.000000e+000
    endloop
  endfacet
  facet normal 3.406014e-002 -9.973212e-001 -4.336809e-019
    outer loop
      vertex   -1.246758e+002 9.526107e+001 0.000000e+000
      vertex   -1.250000e+002 9.525000e+001 5.000000e+000
      vertex   -1.250000e+002 9.525000e+001 0.000000e+000
    endloop
  endfacet
  facet normal -2.209407e-003 -6.469405e-002 0.000000e+000
    outer loop
      vertex   -1.250000e+002 9.525000e+001 0.000000e+000
      vertex   -1.250000e+002 9.525000e+001 5.000000e+000
      vertex   -1.253242e+002 9.526107e+001 5.000000e+000
    endloop
  endfacet
  facet normal -3.406014e-002 -9.973212e-001 4.336809e-019
    outer loop
      vertex   -1.250000e+002 9.525000e+001 0.000000e+000
      vertex   -1.253242e+002 9.526107e+001 5.000000e+000
      vertex   -1.253242e+002 9.526107e+001 0.000000e+000
    endloop
  endfacet
  facet normal -6.620607e-003 -6.439256e-002 0.000000e+000
    outer loop
      vertex   -1.253242e+002 9.526107e+001 0.000000e+000
      vertex   -1.253242e+002 9.526107e+001 5.000000e+000
      vertex   -1.256468e+002 9.529424e+001 5.000000e+000
    endloop
  endfacet
  facet normal -1.020627e-001 -9.926696e-001 -8.673617e-019
    outer loop
      vertex   -1.253242e+002 9.526107e+001 0.000000e+000
      vertex   -1.256468e+002 9.529424e+001 5.000000e+000
      vertex   -1.256468e+002 9.529424e+001 0.000000e+000
    endloop
  endfacet
  facet normal -1.099831e-002 -6.379110e-002 0.000000e+000
    outer loop
      vertex   -1.256468e+002 9.529424e+001 0.000000e+000
      vertex   -1.256468e+002 9.529424e+001 5.000000e+000
      vertex   -1.259664e+002 9.534935e+001 5.000000e+000
    endloop
  endfacet
  facet normal -1.695482e-001 -9.833937e-001 0.000000e+000
    outer loop
      vertex   -1.256468e+002 9.529424e+001 0.000000e+000
      vertex   -1.259664e+002 9.534935e+001 5.000000e+000
      vertex   -1.259664e+002 9.534935e+001 0.000000e+000
    endloop
  endfacet
  facet normal -1.532576e-002 -6.289120e-002 0.000000e+000
    outer loop
      vertex   -1.259664e+002 9.534935e+001 0.000000e+000
      vertex   -1.259664e+002 9.534935e+001 5.000000e+000
      vertex   -1.262815e+002 9.542614e+001 5.000000e+000
    endloop
  endfacet
  facet normal -2.362620e-001 -9.695309e-001 -1.734723e-018
    outer loop
      vertex   -1.259664e+002 9.534935e+001 0.000000e+000
      vertex   -1.262815e+002 9.542614e+001 5.000000e+000
      vertex   -1.262815e+002 9.542614e+001 0.000000e+000
    endloop
  endfacet
  facet normal -1.958317e-002 -6.169894e-002 0.000000e+000
    outer loop
      vertex   -1.262815e+002 9.542614e+001 0.000000e+000
      vertex   -1.262815e+002 9.542614e+001 5.000000e+000
      vertex   -1.265907e+002 9.552426e+001 5.000000e+000
    endloop
  endfacet
  facet normal -3.018914e-001 -9.511421e-001 0.000000e+000
    outer loop
      vertex   -1.262815e+002 9.542614e+001 0.000000e+000
      vertex   -1.265907e+002 9.552426e+001 5.000000e+000
      vertex   -1.265907e+002 9.552426e+001 0.000000e+000
    endloop
  endfacet
  facet normal -2.374770e-002 -6.021889e-002 0.000000e+000
    outer loop
      vertex   -1.265907e+002 9.552426e+001 0.000000e+000
      vertex   -1.265907e+002 9.552426e+001 5.000000e+000
      vertex   -1.268924e+002 9.564325e+001 5.000000e+000
    endloop
  endfacet
  facet normal -3.660907e-001 -9.283250e-001 0.000000e+000
    outer loop
      vertex   -1.265907e+002 9.552426e+001 0.000000e+000
      vertex   -1.268924e+002 9.564325e+001 5.000000e+000
      vertex   -1.268924e+002 9.564325e+001 0.000000e+000
    endloop
  endfacet
  facet normal -2.780107e-002 -5.845867e-002 0.000000e+000
    outer loop
      vertex   -1.268924e+002 9.564325e+001 0.000000e+000
      vertex   -1.268924e+002 9.564325e+001 5.000000e+000
      vertex   -1.271853e+002 9.578255e+001 5.000000e+000
    endloop
  endfacet
  facet normal -4.285744e-001 -9.011846e-001 0.000000e+000
    outer loop
      vertex   -1.268924e+002 9.564325e+001 0.000000e+000
      vertex   -1.271853e+002 9.578255e+001 5.000000e+000
      vertex   -1.271853e+002 9.578255e+001 0.000000e+000
    endloop
  endfacet
  facet normal -3.172501e-002 -5.642438e-002 0.000000e+000
    outer loop
      vertex   -1.271853e+002 9.578255e+001 0.000000e+000
      vertex   -1.271853e+002 9.578255e+001 5.000000e+000
      vertex   -1.274680e+002 9.594151e+001 5.000000e+000
    endloop
  endfacet
  facet normal -4.890725e-001 -8.698378e-001 0.000000e+000
    outer loop
      vertex   -1.271853e+002 9.578255e+001 0.000000e+000
      vertex   -1.274680e+002 9.594151e+001 5.000000e+000
      vertex   -1.274680e+002 9.594151e+001 0.000000e+000
    endloop
  endfacet
  facet normal -3.550277e-002 -5.412818e-002 0.000000e+000
    outer loop
      vertex   -1.274680e+002 9.594151e+001 0.000000e+000
      vertex   -1.274680e+002 9.594151e+001 5.000000e+000
      vertex   -1.277392e+002 9.611939e+001 5.000000e+000
    endloop
  endfacet
  facet normal -5.473027e-001 -8.344277e-001 6.938894e-018
    outer loop
      vertex   -1.274680e+002 9.594151e+001 0.000000e+000
      vertex   -1.277392e+002 9.611939e+001 5.000000e+000
      vertex   -1.277392e+002 9.611939e+001 0.000000e+000
    endloop
  endfacet
  facet normal -3.911305e-002 -5.157770e-002 0.000000e+000
    outer loop
      vertex   -1.277392e+002 9.611939e+001 0.000000e+000
      vertex   -1.277392e+002 9.611939e+001 5.000000e+000
      vertex   -1.279977e+002 9.631537e+001 5.000000e+000
    endloop
  endfacet
  facet normal -6.029735e-001 -7.951307e-001 -3.469447e-018
    outer loop
      vertex   -1.277392e+002 9.611939e+001 0.000000e+000
      vertex   -1.279977e+002 9.631537e+001 5.000000e+000
      vertex   -1.279977e+002 9.631537e+001 0.000000e+000
    endloop
  endfacet
  facet normal -4.254212e-002 -4.878967e-002 0.000000e+000
    outer loop
      vertex   -1.279977e+002 9.631537e+001 0.000000e+000
      vertex   -1.279977e+002 9.631537e+001 5.000000e+000
      vertex   -1.282421e+002 9.652853e+001 5.000000e+000
    endloop
  endfacet
  facet normal -6.558230e-001 -7.521343e-001 0.000000e+000
    outer loop
      vertex   -1.279977e+002 9.631537e+001 0.000000e+000
      vertex   -1.282421e+002 9.652853e+001 5.000000e+000
      vertex   -1.282421e+002 9.652853e+001 0.000000e+000
    endloop
  endfacet
  facet normal -4.577324e-002 -4.577172e-002 0.000000e+000
    outer loop
      vertex   -1.282421e+002 9.652853e+001 0.000000e+000
      vertex   -1.282421e+002 9.652853e+001 5.000000e+000
      vertex   -1.284715e+002 9.675787e+001 5.000000e+000
    endloop
  endfacet
  facet normal -7.056355e-001 -7.056120e-001 0.000000e+000
    outer loop
      vertex   -1.282421e+002 9.652853e+001 0.000000e+000
      vertex   -1.284715e+002 9.675787e+001 5.000000e+000
      vertex   -1.284715e+002 9.675787e+001 0.000000e+000
    endloop
  endfacet
  facet normal -4.878967e-002 -4.254364e-002 0.000000e+000
    outer loop
      vertex   -1.284715e+002 9.675787e+001 0.000000e+000
      vertex   -1.284715e+002 9.675787e+001 5.000000e+000
      vertex   -1.286846e+002 9.700233e+001 5.000000e+000
    endloop
  endfacet
  facet normal -7.521226e-001 -6.558363e-001 0.000000e+000
    outer loop
      vertex   -1.284715e+002 9.675787e+001 0.000000e+000
      vertex   -1.286846e+002 9.700233e+001 5.000000e+000
      vertex   -1.286846e+002 9.700233e+001 0.000000e+000
    endloop
  endfacet
  facet normal -5.157770e-002 -3.911153e-002 0.000000e+000
    outer loop
      vertex   -1.286846e+002 9.700233e+001 0.000000e+000
      vertex   -1.286846e+002 9.700233e+001 5.000000e+000
      vertex   -1.288806e+002 9.726077e+001 5.000000e+000
    endloop
  endfacet
  facet normal -7.951421e-001 -6.029587e-001 6.938894e-018
    outer loop
      vertex   -1.286846e+002 9.700233e+001 0.000000e+000
      vertex   -1.288806e+002 9.726077e+001 5.000000e+000
      vertex   -1.288806e+002 9.726077e+001 0.000000e+000
    endloop
  endfacet
  facet normal -5.412818e-002 -3.550277e-002 0.000000e+000
    outer loop
      vertex   -1.288806e+002 9.726077e+001 0.000000e+000
      vertex   -1.288806e+002 9.726077e+001 5.000000e+000
      vertex   -1.290585e+002 9.753197e+001 5.000000e+000
    endloop
  endfacet
  facet normal -8.344277e-001 -5.473027e-001 -6.938894e-018
    outer loop
      vertex   -1.288806e+002 9.726077e+001 0.000000e+000
      vertex   -1.290585e+002 9.753197e+001 5.000000e+000
      vertex   -1.290585e+002 9.753197e+001 0.000000e+000
    endloop
  endfacet
  facet normal -5.642438e-002 -3.172653e-002 0.000000e+000
    outer loop
      vertex   -1.290585e+002 9.753197e+001 0.000000e+000
      vertex   -1.290585e+002 9.753197e+001 5.000000e+000
      vertex   -1.292175e+002 9.781469e+001 5.000000e+000
    endloop
  endfacet
  facet normal -8.698277e-001 -4.890903e-001 3.469447e-018
    outer loop
      vertex   -1.290585e+002 9.753197e+001 0.000000e+000
      vertex   -1.292175e+002 9.781469e+001 5.000000e+000
      vertex   -1.292175e+002 9.781469e+001 0.000000e+000
    endloop
  endfacet
  facet normal -5.845867e-002 -2.780107e-002 0.000000e+000
    outer loop
      vertex   -1.292175e+002 9.781469e+001 0.000000e+000
      vertex   -1.292175e+002 9.781469e+001 5.000000e+000
      vertex   -1.293568e+002 9.810760e+001 5.000000e+000
    endloop
  endfacet
  facet normal -9.011846e-001 -4.285744e-001 0.000000e+000
    outer loop
      vertex   -1.292175e+002 9.781469e+001 0.000000e+000
      vertex   -1.293568e+002 9.810760e+001 5.000000e+000
      vertex   -1.293568e+002 9.810760e+001 0.000000e+000
    endloop
  endfacet
  facet normal -6.021889e-002 -2.374770e-002 0.000000e+000
    outer loop
      vertex   -1.293568e+002 9.810760e+001 0.000000e+000
      vertex   -1.293568e+002 9.810760e+001 5.000000e+000
      vertex   -1.294757e+002 9.840932e+001 5.000000e+000
    endloop
  endfacet
  facet normal -9.283250e-001 -3.660907e-001 0.000000e+000
    outer loop
      vertex   -1.293568e+002 9.810760e+001 0.000000e+000
      vertex   -1.294757e+002 9.840932e+001 5.000000e+000
      vertex   -1.294757e+002 9.840932e+001 0.000000e+000
    endloop
  endfacet
  facet normal -6.169894e-002 -1.958165e-002 0.000000e+000
    outer loop
      vertex   -1.294757e+002 9.840932e+001 0.000000e+000
      vertex   -1.294757e+002 9.840932e+001 5.000000e+000
      vertex   -1.295739e+002 9.871847e+001 5.000000e+000
    endloop
  endfacet
  facet normal -9.511489e-001 -3.018701e-001 -3.469447e-018
    outer loop
      vertex   -1.294757e+002 9.840932e+001 0.000000e+000
      vertex   -1.295739e+002 9.871847e+001 5.000000e+000
      vertex   -1.295739e+002 9.871847e+001 0.000000e+000
    endloop
  endfacet
  facet normal -6.289120e-002 -1.532728e-002 0.000000e+000
    outer loop
      vertex   -1.295739e+002 9.871847e+001 0.000000e+000
      vertex   -1.295739e+002 9.871847e+001 5.000000e+000
      vertex   -1.296507e+002 9.903358e+001 5.000000e+000
    endloop
  endfacet
  facet normal -9.695255e-001 -2.362841e-001 3.469447e-018
    outer loop
      vertex   -1.295739e+002 9.871847e+001 0.000000e+000
      vertex   -1.296507e+002 9.903358e+001 5.000000e+000
      vertex   -1.296507e+002 9.903358e+001 0.000000e+000
    endloop
  endfacet
  facet normal -6.379110e-002 -1.099983e-002 0.000000e+000
    outer loop
      vertex   -1.296507e+002 9.903358e+001 0.000000e+000
      vertex   -1.296507e+002 9.903358e+001 5.000000e+000
      vertex   -1.297058e+002 9.935321e+001 5.000000e+000
    endloop
  endfacet
  facet normal -9.833897e-001 -1.695710e-001 0.000000e+000
    outer loop
      vertex   -1.296507e+002 9.903358e+001 0.000000e+000
      vertex   -1.297058e+002 9.935321e+001 5.000000e+000
      vertex   -1.297058e+002 9.935321e+001 0.000000e+000
    endloop
  endfacet
  facet normal -6.439256e-002 -6.617561e-003 0.000000e+000
    outer loop
      vertex   -1.297058e+002 9.935321e+001 0.000000e+000
      vertex   -1.297058e+002 9.935321e+001 5.000000e+000
      vertex   -1.297389e+002 9.967585e+001 5.000000e+000
    endloop
  endfacet
  facet normal 0.000000e+000 -0.000000e+000 9.994165e-001
    outer loop
      vertex   -1.297389e+002 9.967585e+001 5.000000e+000
      vertex   -1.202611e+002 9.967585e+001 5.000000e+000
      vertex   -1.297500e+002 1.000000e+002 5.000000e+000
    endloop
  endfacet
  facet normal -0.000000e+000 0.000000e+000 3.414096e-002
    outer loop
      vertex   -1.297500e+002 1.000000e+002 5.000000e+000
      vertex   -1.202611e+002 9.967585e+001 5.000000e+000
      vertex   -1.202500e+002 1.000000e+002 5.000000e+000
    endloop
  endfacet
  facet normal 0.000000e+000 0.000000e+000 9.994165e-001
    outer loop
      vertex   -1.297500e+002 1.000000e+002 5.000000e+000
      vertex   -1.202500e+002 1.000000e+002 5.000000e+000
      vertex   -1.297389e+002 1.003242e+002 5.000000e+000
    endloop
  endfacet
  facet normal -0.000000e+000 0.000000e+000 3.414098e-002
    outer loop
      vertex   -1.297389e+002 1.003242e+002 5.000000e+000
      vertex   -1.202500e+002 1.000000e+002 5.000000e+000
      vertex   -1.202611e+002 1.003242e+002 5.000000e+000
    endloop
  endfacet
  facet normal 0.000000e+000 0.000000e+000 9.947608e-001
    outer loop
      vertex   -1.297389e+002 1.003242e+002 5.000000e+000
      vertex   -1.202611e+002 1.003242e+002 5.000000e+000
      vertex   -1.297058e+002 1.006468e+002 5.000000e+000
    endloop
  endfacet
  facet normal -0.000000e+000 0.000000e+000 3.414101e-002
    outer loop
      vertex   -1.297058e+002 1.006468e+002 5.000000e+000
      vertex   -1.202611e+002 1.003242e+002 5.000000e+000
      vertex   -1.202942e+002 1.006468e+002 5.000000e+000
    endloop
  endfacet
  facet normal 0.000000e+000 0.000000e+000 9.854566e-001
    outer loop
      vertex   -1.297058e+002 1.006468e+002 5.000000e+000
      vertex   -1.202942e+002 1.006468e+002 5.000000e+000
      vertex   -1.296507e+002 1.009664e+002 5.000000e+000
    endloop
  endfacet
  facet normal -0.000000e+000 0.000000e+000 3.414126e-002
    outer loop
      vertex   -1.296507e+002 1.009664e+002 5.000000e+000
      vertex   -1.202942e+002 1.006468e+002 5.000000e+000
      vertex   -1.203493e+002 1.009664e+002 5.000000e+000
    endloop
  endfacet
  facet normal 0.000000e+000 0.000000e+000 9.715631e-001
    outer loop
      vertex   -1.296507e+002 1.009664e+002 5.000000e+000
      vertex   -1.203493e+002 1.009664e+002 5.000000e+000
      vertex   -1.295739e+002 1.012815e+002 5.000000e+000
    endloop
  endfacet
  facet normal -0.000000e+000 0.000000e+000 3.414094e-002
    outer loop
      vertex   -1.295739e+002 1.012815e+002 5.000000e+000
      vertex   -1.203493e+002 1.009664e+002 5.000000e+000
      vertex   -1.204261e+002 1.012815e+002 5.000000e+000
    endloop
  endfacet
  facet normal 0.000000e+000 0.000000e+000 9.531479e-001
    outer loop
      vertex   -1.295739e+002 1.012815e+002 5.000000e+000
      vertex   -1.204261e+002 1.012815e+002 5.000000e+000
      vertex   -1.294757e+002 1.015907e+002 5.000000e+000
    endloop
  endfacet
  facet normal -0.000000e+000 0.000000e+000 3.414106e-002
    outer loop
      vertex   -1.294757e+002 1.015907e+002 5.000000e+000
      vertex   -1.204261e+002 1.012815e+002 5.000000e+000
      vertex   -1.205243e+002 1.015907e+002 5.000000e+000
    endloop
  endfacet
  facet normal 0.000000e+000 0.000000e+000 9.302761e-001
    outer loop
      vertex   -1.294757e+002 1.015907e+002 5.000000e+000
      vertex   -1.205243e+002 1.015907e+002 5.000000e+000
      vertex   -1.293568e+002 1.018924e+002 5.000000e+000
    endloop
  endfacet
  facet normal -0.000000e+000 0.000000e+000 3.414116e-002
    outer loop
      vertex   -1.293568e+002 1.018924e+002 5.000000e+000
      vertex   -1.205243e+002 1.015907e+002 5.000000e+000
      vertex   -1.206432e+002 1.018924e+002 5.000000e+000
    endloop
  endfacet
  facet normal 0.000000e+000 0.000000e+000 9.030787e-001
    outer loop
      vertex   -1.293568e+002 1.018924e+002 5.000000e+000
      vertex   -1.206432e+002 1.018924e+002 5.000000e+000
      vertex   -1.292175e+002 1.021853e+002 5.000000e+000
    endloop
  endfacet
  facet normal -0.000000e+000 0.000000e+000 3.414159e-002
    outer loop
      vertex   -1.292175e+002 1.021853e+002 5.000000e+000
      vertex   -1.206432e+002 1.018924e+002 5.000000e+000
      vertex   -1.207825e+002 1.021853e+002 5.000000e+000
    endloop
  endfacet
  facet normal 0.000000e+000 0.000000e+000 8.716559e-001
    outer loop
      vertex   -1.292175e+002 1.021853e+002 5.000000e+000
      vertex   -1.207825e+002 1.021853e+002 5.000000e+000
      vertex   -1.290585e+002 1.024680e+002 5.000000e+000
    endloop
  endfacet
  facet normal -0.000000e+000 0.000000e+000 3.414114e-002
    outer loop
      vertex   -1.290585e+002 1.024680e+002 5.000000e+000
      vertex   -1.207825e+002 1.021853e+002 5.000000e+000
      vertex   -1.209415e+002 1.024680e+002 5.000000e+000
    endloop
  endfacet
  facet normal 0.000000e+000 0.000000e+000 8.361814e-001
    outer loop
      vertex   -1.290585e+002 1.024680e+002 5.000000e+000
      vertex   -1.209415e+002 1.024680e+002 5.000000e+000
      vertex   -1.288806e+002 1.027392e+002 5.000000e+000
    endloop
  endfacet
  facet normal -0.000000e+000 0.000000e+000 3.414138e-002
    outer loop
      vertex   -1.288806e+002 1.027392e+002 5.000000e+000
      vertex   -1.209415e+002 1.024680e+002 5.000000e+000
      vertex   -1.211194e+002 1.027392e+002 5.000000e+000
    endloop
  endfacet
  facet normal 0.000000e+000 0.000000e+000 7.968131e-001
    outer loop
      vertex   -1.288806e+002 1.027392e+002 5.000000e+000
      vertex   -1.211194e+002 1.027392e+002 5.000000e+000
      vertex   -1.286846e+002 1.029977e+002 5.000000e+000
    endloop
  endfacet
  facet normal -0.000000e+000 0.000000e+000 3.414034e-002
    outer loop
      vertex   -1.286846e+002 1.029977e+002 5.000000e+000
      vertex   -1.211194e+002 1.027392e+002 5.000000e+000
      vertex   -1.213154e+002 1.029977e+002 5.000000e+000
    endloop
  endfacet
  facet normal 0.000000e+000 0.000000e+000 7.537034e-001
    outer loop
      vertex   -1.286846e+002 1.029977e+002 5.000000e+000
      vertex   -1.213154e+002 1.029977e+002 5.000000e+000
      vertex   -1.284715e+002 1.032421e+002 5.000000e+000
    endloop
  endfacet
  facet normal -0.000000e+000 0.000000e+000 3.414131e-002
    outer loop
      vertex   -1.284715e+002 1.032421e+002 5.000000e+000
      vertex   -1.213154e+002 1.029977e+002 5.000000e+000
      vertex   -1.215285e+002 1.032421e+002 5.000000e+000
    endloop
  endfacet
  facet normal 0.000000e+000 0.000000e+000 7.071186e-001
    outer loop
      vertex   -1.284715e+002 1.032421e+002 5.000000e+000
      vertex   -1.215285e+002 1.032421e+002 5.000000e+000
      vertex   -1.282421e+002 1.034715e+002 5.000000e+000
    endloop
  endfacet
  facet normal -0.000000e+000 0.000000e+000 3.414167e-002
    outer loop
      vertex   -1.282421e+002 1.034715e+002 5.000000e+000
      vertex   -1.215285e+002 1.032421e+002 5.000000e+000
      vertex   -1.217579e+002 1.034715e+002 5.000000e+000
    endloop
  endfacet
  facet normal 0.000000e+000 0.000000e+000 6.572013e-001
    outer loop
      vertex   -1.282421e+002 1.034715e+002 5.000000e+000
      vertex   -1.217579e+002 1.034715e+002 5.000000e+000
      vertex   -1.279977e+002 1.036846e+002 5.000000e+000
    endloop
  endfacet
  facet normal -0.000000e+000 0.000000e+000 3.414110e-002
    outer loop
      vertex   -1.279977e+002 1.036846e+002 5.000000e+000
      vertex   -1.217579e+002 1.034715e+002 5.000000e+000
      vertex   -1.220023e+002 1.036846e+002 5.000000e+000
    endloop
  endfacet
  facet normal 0.000000e+000 0.000000e+000 6.042408e-001
    outer loop
      vertex   -1.279977e+002 1.036846e+002 5.000000e+000
      vertex   -1.220023e+002 1.036846e+002 5.000000e+000
      vertex   -1.277392e+002 1.038806e+002 5.000000e+000
    endloop
  endfacet
  facet normal -0.000000e+000 0.000000e+000 3.414074e-002
    outer loop
      vertex   -1.277392e+002 1.038806e+002 5.000000e+000
      vertex   -1.220023e+002 1.036846e+002 5.000000e+000
      vertex   -1.222608e+002 1.038806e+002 5.000000e+000
    endloop
  endfacet
  facet normal 0.000000e+000 0.000000e+000 5.484530e-001
    outer loop
      vertex   -1.277392e+002 1.038806e+002 5.000000e+000
      vertex   -1.222608e+002 1.038806e+002 5.000000e+000
      vertex   -1.274680e+002 1.040585e+002 5.000000e+000
    endloop
  endfacet
  facet normal -0.000000e+000 0.000000e+000 3.414142e-002
    outer loop
      vertex   -1.274680e+002 1.040585e+002 5.000000e+000
      vertex   -1.222608e+002 1.038806e+002 5.000000e+000
      vertex   -1.225320e+002 1.040585e+002 5.000000e+000
    endloop
  endfacet
  facet normal 0.000000e+000 0.000000e+000 4.901004e-001
    outer loop
      vertex   -1.274680e+002 1.040585e+002 5.000000e+000
      vertex   -1.225320e+002 1.040585e+002 5.000000e+000
      vertex   -1.271853e+002 1.042175e+002 5.000000e+000
    endloop
  endfacet
  facet normal -0.000000e+000 0.000000e+000 3.414019e-002
    outer loop
      vertex   -1.271853e+002 1.042175e+002 5.000000e+000
      vertex   -1.225320e+002 1.040585e+002 5.000000e+000
      vertex   -1.228147e+002 1.042175e+002 5.000000e+000
    endloop
  endfacet
  facet normal 0.000000e+000 0.000000e+000 4.294752e-001
    outer loop
      vertex   -1.271853e+002 1.042175e+002 5.000000e+000
      vertex   -1.228147e+002 1.042175e+002 5.000000e+000
      vertex   -1.268924e+002 1.043568e+002 5.000000e+000
    endloop
  endfacet
  facet normal -0.000000e+000 0.000000e+000 3.414077e-002
    outer loop
      vertex   -1.268924e+002 1.043568e+002 5.000000e+000
      vertex   -1.228147e+002 1.042175e+002 5.000000e+000
      vertex   -1.231076e+002 1.043568e+002 5.000000e+000
    endloop
  endfacet
  facet normal 0.000000e+000 0.000000e+000 3.668602e-001
    outer loop
      vertex   -1.268924e+002 1.043568e+002 5.000000e+000
      vertex   -1.231076e+002 1.043568e+002 5.000000e+000
      vertex   -1.265907e+002 1.044757e+002 5.000000e+000
    endloop
  endfacet
  facet normal -0.000000e+000 0.000000e+000 3.414183e-002
    outer loop
      vertex   -1.265907e+002 1.044757e+002 5.000000e+000
      vertex   -1.231076e+002 1.043568e+002 5.000000e+000
      vertex   -1.234093e+002 1.044757e+002 5.000000e+000
    endloop
  endfacet
  facet normal 0.000000e+000 0.000000e+000 3.025259e-001
    outer loop
      vertex   -1.265907e+002 1.044757e+002 5.000000e+000
      vertex   -1.234093e+002 1.044757e+002 5.000000e+000
      vertex   -1.262815e+002 1.045739e+002 5.000000e+000
    endloop
  endfacet
  facet normal -0.000000e+000 0.000000e+000 3.414253e-002
    outer loop
      vertex   -1.262815e+002 1.045739e+002 5.000000e+000
      vertex   -1.234093e+002 1.044757e+002 5.000000e+000
      vertex   -1.237185e+002 1.045739e+002 5.000000e+000
    endloop
  endfacet
  facet normal 0.000000e+000 0.000000e+000 2.367585e-001
    outer loop
      vertex   -1.262815e+002 1.045739e+002 5.000000e+000
      vertex   -1.237185e+002 1.045739e+002 5.000000e+000
      vertex   -1.259664e+002 1.046507e+002 5.000000e+000
    endloop
  endfacet
  facet normal -0.000000e+000 0.000000e+000 3.414007e-002
    outer loop
      vertex   -1.259664e+002 1.046507e+002 5.000000e+000
      vertex   -1.237185e+002 1.045739e+002 5.000000e+000
      vertex   -1.240336e+002 1.046507e+002 5.000000e+000
    endloop
  endfacet
  facet normal 0.000000e+000 0.000000e+000 1.699046e-001
    outer loop
      vertex   -1.259664e+002 1.046507e+002 5.000000e+000
      vertex   -1.240336e+002 1.046507e+002 5.000000e+000
      vertex   -1.256468e+002 1.047058e+002 5.000000e+000
    endloop
  endfacet
  facet normal -0.000000e+000 0.000000e+000 3.414011e-002
    outer loop
      vertex   -1.256468e+002 1.047058e+002 5.000000e+000
      vertex   -1.240336e+002 1.046507e+002 5.000000e+000
      vertex   -1.243532e+002 1.047058e+002 5.000000e+000
    endloop
  endfacet
  facet normal 0.000000e+000 0.000000e+000 1.022772e-001
    outer loop
      vertex   -1.256468e+002 1.047058e+002 5.000000e+000
      vertex   -1.243532e+002 1.047058e+002 5.000000e+000
      vertex   -1.253242e+002 1.047389e+002 5.000000e+000
    endloop
  endfacet
  facet normal -0.000000e+000 0.000000e+000 3.414555e-002
    outer loop
      vertex   -1.253242e+002 1.047389e+002 5.000000e+000
      vertex   -1.243532e+002 1.047058e+002 5.000000e+000
      vertex   -1.246758e+002 1.047389e+002 5.000000e+000
    endloop
  endfacet
  facet normal 0.000000e+000 0.000000e+000 3.413172e-002
    outer loop
      vertex   -1.253242e+002 1.047389e+002 5.000000e+000
      vertex   -1.246758e+002 1.047389e+002 5.000000e+000
      vertex   -1.250000e+002 1.047500e+002 5.000000e+000
    endloop
  endfacet
  facet normal 0.000000e+000 0.000000e+000 9.947559e-001
    outer loop
      vertex   -1.202611e+002 9.967585e+001 5.000000e+000
      vertex   -1.297389e+002 9.967585e+001 5.000000e+000
      vertex   -1.202942e+002 9.935321e+001 5.000000e+000
    endloop
  endfacet
  facet normal 0.000000e+000 0.000000e+000 3.414106e-002
    outer loop
      vertex   -1.202942e+002 9.935321e+001 5.000000e+000
      vertex   -1.297389e+002 9.967585e+001 5.000000e+000
      vertex   -1.297058e+002 9.935321e+001 5.000000e+000
    endloop
  endfacet
  facet normal 0.000000e+000 0.000000e+000 9.854605e-001
    outer loop
      vertex   -1.202942e+002 9.935321e+001 5.000000e+000
      vertex   -1.297058e+002 9.935321e+001 5.000000e+000
      vertex   -1.203493e+002 9.903358e+001 5.000000e+000
    endloop
  endfacet
  facet normal 0.000000e+000 0.000000e+000 3.414123e-002
    outer loop
      vertex   -1.203493e+002 9.903358e+001 5.000000e+000
      vertex   -1.297058e+002 9.935321e+001 5.000000e+000
      vertex   -1.296507e+002 9.903358e+001 5.000000e+000
    endloop
  endfacet
  facet normal 0.000000e+000 0.000000e+000 9.715685e-001
    outer loop
      vertex   -1.203493e+002 9.903358e+001 5.000000e+000
      vertex   -1.296507e+002 9.903358e+001 5.000000e+000
      vertex   -1.204261e+002 9.871847e+001 5.000000e+000
    endloop
  endfacet
  facet normal 0.000000e+000 0.000000e+000 3.414091e-002
    outer loop
      vertex   -1.204261e+002 9.871847e+001 5.000000e+000
      vertex   -1.296507e+002 9.903358e+001 5.000000e+000
      vertex   -1.295739e+002 9.871847e+001 5.000000e+000
    endloop
  endfacet
  facet normal 0.000000e+000 0.000000e+000 9.531412e-001
    outer loop
      vertex   -1.204261e+002 9.871847e+001 5.000000e+000
      vertex   -1.295739e+002 9.871847e+001 5.000000e+000
      vertex   -1.205243e+002 9.840932e+001 5.000000e+000
    endloop
  endfacet
  facet normal 0.000000e+000 0.000000e+000 3.414108e-002
    outer loop
      vertex   -1.205243e+002 9.840932e+001 5.000000e+000
      vertex   -1.295739e+002 9.871847e+001 5.000000e+000
      vertex   -1.294757e+002 9.840932e+001 5.000000e+000
    endloop
  endfacet
  facet normal 0.000000e+000 0.000000e+000 9.302761e-001
    outer loop
      vertex   -1.205243e+002 9.840932e+001 5.000000e+000
      vertex   -1.294757e+002 9.840932e+001 5.000000e+000
      vertex   -1.206432e+002 9.810760e+001 5.000000e+000
    endloop
  endfacet
  facet normal 0.000000e+000 0.000000e+000 3.414116e-002
    outer loop
      vertex   -1.206432e+002 9.810760e+001 5.000000e+000
      vertex   -1.294757e+002 9.840932e+001 5.000000e+000
      vertex   -1.293568e+002 9.810760e+001 5.000000e+000
    endloop
  endfacet
  facet normal 0.000000e+000 0.000000e+000 9.030787e-001
    outer loop
      vertex   -1.206432e+002 9.810760e+001 5.000000e+000
      vertex   -1.293568e+002 9.810760e+001 5.000000e+000
      vertex   -1.207825e+002 9.781469e+001 5.000000e+000
    endloop
  endfacet
  facet normal 0.000000e+000 0.000000e+000 3.414159e-002
    outer loop
      vertex   -1.207825e+002 9.781469e+001 5.000000e+000
      vertex   -1.293568e+002 9.810760e+001 5.000000e+000
      vertex   -1.292175e+002 9.781469e+001 5.000000e+000
    endloop
  endfacet
  facet normal 0.000000e+000 0.000000e+000 8.716660e-001
    outer loop
      vertex   -1.207825e+002 9.781469e+001 5.000000e+000
      vertex   -1.292175e+002 9.781469e+001 5.000000e+000
      vertex   -1.209415e+002 9.753197e+001 5.000000e+000
    endloop
  endfacet
  facet normal 0.000000e+000 0.000000e+000 3.414111e-002
    outer loop
      vertex   -1.209415e+002 9.753197e+001 5.000000e+000
      vertex   -1.292175e+002 9.781469e+001 5.000000e+000
      vertex   -1.290585e+002 9.753197e+001 5.000000e+000
    endloop
  endfacet
  facet normal 0.000000e+000 0.000000e+000 8.361814e-001
    outer loop
      vertex   -1.209415e+002 9.753197e+001 5.000000e+000
      vertex   -1.290585e+002 9.753197e+001 5.000000e+000
      vertex   -1.211194e+002 9.726077e+001 5.000000e+000
    endloop
  endfacet
  facet normal 0.000000e+000 0.000000e+000 3.414138e-002
    outer loop
      vertex   -1.211194e+002 9.726077e+001 5.000000e+000
      vertex   -1.290585e+002 9.753197e+001 5.000000e+000
      vertex   -1.288806e+002 9.726077e+001 5.000000e+000
    endloop
  endfacet
  facet normal 0.000000e+000 0.000000e+000 7.968018e-001
    outer loop
      vertex   -1.211194e+002 9.726077e+001 5.000000e+000
      vertex   -1.288806e+002 9.726077e+001 5.000000e+000
      vertex   -1.213154e+002 9.700233e+001 5.000000e+000
    endloop
  endfacet
  facet normal 0.000000e+000 0.000000e+000 3.414037e-002
    outer loop
      vertex   -1.213154e+002 9.700233e+001 5.000000e+000
      vertex   -1.288806e+002 9.726077e+001 5.000000e+000
      vertex   -1.286846e+002 9.700233e+001 5.000000e+000
    endloop
  endfacet
  facet normal 0.000000e+000 0.000000e+000 7.537150e-001
    outer loop
      vertex   -1.213154e+002 9.700233e+001 5.000000e+000
      vertex   -1.286846e+002 9.700233e+001 5.000000e+000
      vertex   -1.215285e+002 9.675787e+001 5.000000e+000
    endloop
  endfacet
  facet normal 0.000000e+000 0.000000e+000 3.414127e-002
    outer loop
      vertex   -1.215285e+002 9.675787e+001 5.000000e+000
      vertex   -1.286846e+002 9.700233e+001 5.000000e+000
      vertex   -1.284715e+002 9.675787e+001 5.000000e+000
    endloop
  endfacet
  facet normal 0.000000e+000 0.000000e+000 7.071068e-001
    outer loop
      vertex   -1.215285e+002 9.675787e+001 5.000000e+000
      vertex   -1.284715e+002 9.675787e+001 5.000000e+000
      vertex   -1.217579e+002 9.652853e+001 5.000000e+000
    endloop
  endfacet
  facet normal 0.000000e+000 0.000000e+000 3.414171e-002
    outer loop
      vertex   -1.217579e+002 9.652853e+001 5.000000e+000
      vertex   -1.284715e+002 9.675787e+001 5.000000e+000
      vertex   -1.282421e+002 9.652853e+001 5.000000e+000
    endloop
  endfacet
  facet normal 0.000000e+000 0.000000e+000 6.572013e-001
    outer loop
      vertex   -1.217579e+002 9.652853e+001 5.000000e+000
      vertex   -1.282421e+002 9.652853e+001 5.000000e+000
      vertex   -1.220023e+002 9.631537e+001 5.000000e+000
    endloop
  endfacet
  facet normal 0.000000e+000 0.000000e+000 3.414110e-002
    outer loop
      vertex   -1.220023e+002 9.631537e+001 5.000000e+000
      vertex   -1.282421e+002 9.652853e+001 5.000000e+000
      vertex   -1.279977e+002 9.631537e+001 5.000000e+000
    endloop
  endfacet
  facet normal 0.000000e+000 0.000000e+000 6.042408e-001
    outer loop
      vertex   -1.220023e+002 9.631537e+001 5.000000e+000
      vertex   -1.279977e+002 9.631537e+001 5.000000e+000
      vertex   -1.222608e+002 9.611939e+001 5.000000e+000
    endloop
  endfacet
  facet normal 0.000000e+000 0.000000e+000 3.414074e-002
    outer loop
      vertex   -1.222608e+002 9.611939e+001 5.000000e+000
      vertex   -1.279977e+002 9.631537e+001 5.000000e+000
      vertex   -1.277392e+002 9.611939e+001 5.000000e+000
    endloop
  endfacet
  facet normal 0.000000e+000 0.000000e+000 5.484530e-001
    outer loop
      vertex   -1.222608e+002 9.611939e+001 5.000000e+000
      vertex   -1.277392e+002 9.611939e+001 5.000000e+000
      vertex   -1.225320e+002 9.594151e+001 5.000000e+000
    endloop
  endfacet
  facet normal 0.000000e+000 0.000000e+000 3.414142e-002
    outer loop
      vertex   -1.225320e+002 9.594151e+001 5.000000e+000
      vertex   -1.277392e+002 9.611939e+001 5.000000e+000
      vertex   -1.274680e+002 9.594151e+001 5.000000e+000
    endloop
  endfacet
  facet normal 0.000000e+000 0.000000e+000 4.901004e-001
    outer loop
      vertex   -1.225320e+002 9.594151e+001 5.000000e+000
      vertex   -1.274680e+002 9.594151e+001 5.000000e+000
      vertex   -1.228147e+002 9.578255e+001 5.000000e+000
    endloop
  endfacet
  facet normal 0.000000e+000 0.000000e+000 3.414019e-002
    outer loop
      vertex   -1.228147e+002 9.578255e+001 5.000000e+000
      vertex   -1.274680e+002 9.594151e+001 5.000000e+000
      vertex   -1.271853e+002 9.578255e+001 5.000000e+000
    endloop
  endfacet
  facet normal 0.000000e+000 0.000000e+000 4.294752e-001
    outer loop
      vertex   -1.228147e+002 9.578255e+001 5.000000e+000
      vertex   -1.271853e+002 9.578255e+001 5.000000e+000
      vertex   -1.231076e+002 9.564325e+001 5.000000e+000
    endloop
  endfacet
  facet normal 0.000000e+000 0.000000e+000 3.414077e-002
    outer loop
      vertex   -1.231076e+002 9.564325e+001 5.000000e+000
      vertex   -1.271853e+002 9.578255e+001 5.000000e+000
      vertex   -1.268924e+002 9.564325e+001 5.000000e+000
    endloop
  endfacet
  facet normal 0.000000e+000 0.000000e+000 3.668602e-001
    outer loop
      vertex   -1.231076e+002 9.564325e+001 5.000000e+000
      vertex   -1.268924e+002 9.564325e+001 5.000000e+000
      vertex   -1.234093e+002 9.552426e+001 5.000000e+000
    endloop
  endfacet
  facet normal 0.000000e+000 0.000000e+000 3.414183e-002
    outer loop
      vertex   -1.234093e+002 9.552426e+001 5.000000e+000
      vertex   -1.268924e+002 9.564325e+001 5.000000e+000
      vertex   -1.265907e+002 9.552426e+001 5.000000e+000
    endloop
  endfacet
  facet normal 0.000000e+000 0.000000e+000 3.025259e-001
    outer loop
      vertex   -1.234093e+002 9.552426e+001 5.000000e+000
      vertex   -1.265907e+002 9.552426e+001 5.000000e+000
      vertex   -1.237185e+002 9.542614e+001 5.000000e+000
    endloop
  endfacet
  facet normal 0.000000e+000 0.000000e+000 3.414253e-002
    outer loop
      vertex   -1.237185e+002 9.542614e+001 5.000000e+000
      vertex   -1.265907e+002 9.552426e+001 5.000000e+000
      vertex   -1.262815e+002 9.542614e+001 5.000000e+000
    endloop
  endfacet
  facet normal 0.000000e+000 0.000000e+000 2.367585e-001
    outer loop
      vertex   -1.237185e+002 9.542614e+001 5.000000e+000
      vertex   -1.262815e+002 9.542614e+001 5.000000e+000
      vertex   -1.240336e+002 9.534935e+001 5.000000e+000
    endloop
  endfacet
  facet normal 0.000000e+000 0.000000e+000 3.414007e-002
    outer loop
      vertex   -1.240336e+002 9.534935e+001 5.000000e+000
      vertex   -1.262815e+002 9.542614e+001 5.000000e+000
      vertex   -1.259664e+002 9.534935e+001 5.000000e+000
    endloop
  endfacet
  facet normal 0.000000e+000 0.000000e+000 1.699046e-001
    outer loop
      vertex   -1.240336e+002 9.534935e+001 5.000000e+000
      vertex   -1.259664e+002 9.534935e+001 5.000000e+000
      vertex   -1.243532e+002 9.529424e+001 5.000000e+000
    endloop
  endfacet
  facet normal 0.000000e+000 0.000000e+000 3.414011e-002
    outer loop
      vertex   -1.243532e+002 9.529424e+001 5.000000e+000
      vertex   -1.259664e+002 9.534935e+001 5.000000e+000
      vertex   -1.256468e+002 9.529424e+001 5.000000e+000
    endloop
  endfacet
  facet normal 0.000000e+000 0.000000e+000 1.022772e-001
    outer loop
      vertex   -1.243532e+002 9.529424e+001 5.000000e+000
      vertex   -1.256468e+002 9.529424e+001 5.000000e+000
      vertex   -1.246758e+002 9.526107e+001 5.000000e+000
    endloop
  endfacet
  facet normal 0.000000e+000 0.000000e+000 3.414555e-002
    outer loop
      vertex   -1.246758e+002 9.526107e+001 5.000000e+000
      vertex   -1.256468e+002 9.529424e+001 5.000000e+000
      vertex   -1.253242e+002 9.526107e+001 5.000000e+000
    endloop
  endfacet
  facet normal 0.000000e+000 0.000000e+000 3.413172e-002
    outer loop
      vertex   -1.246758e+002 9.526107e+001 5.000000e+000
      vertex   -1.253242e+002 9.526107e+001 5.000000e+000
      vertex   -1.250000e+002 9.525000e+001 5.000000e+000
    endloop
  endfacet
  facet normal 0.000000e+000 -0.000000e+000 -9.994165e-001
    outer loop
      vertex   -1.297389e+002 1.003242e+002 0.000000e+000
      vertex   -1.202611e+002 1.003242e+002 0.000000e+000
      vertex   -1.297500e+002 1.000000e+002 0.000000e+000
    endloop
  endfacet
  facet normal 0.000000e+000 0.000000e+000 -3.414096e-002
    outer loop
      vertex   -1.297500e+002 1.000000e+002 0.000000e+000
      vertex   -1.202611e+002 1.003242e+002 0.000000e+000
      vertex   -1.202500e+002 1.000000e+002 0.000000e+000
    endloop
  endfacet
  facet normal 0.000000e+000 0.000000e+000 -9.994165e-001
    outer loop
      vertex   -1.297500e+002 1.000000e+002 0.000000e+000
      vertex   -1.202500e+002 1.000000e+002 0.000000e+000
      vertex   -1.297389e+002 9.967585e+001 0.000000e+000
    endloop
  endfacet
  facet normal 0.000000e+000 0.000000e+000 -3.414098e-002
    outer loop
      vertex   -1.297389e+002 9.967585e+001 0.000000e+000
      vertex   -1.202500e+002 1.000000e+002 0.000000e+000
      vertex   -1.202611e+002 9.967585e+001 0.000000e+000
    endloop
  endfacet
  facet normal 0.000000e+000 0.000000e+000 -9.947608e-001
    outer loop
      vertex   -1.297389e+002 9.967585e+001 0.000000e+000
      vertex   -1.202611e+002 9.967585e+001 0.000000e+000
      vertex   -1.297058e+002 9.935321e+001 0.000000e+000
    endloop
  endfacet
  facet normal 0.000000e+000 0.000000e+000 -3.414101e-002
    outer loop
      vertex   -1.297058e+002 9.935321e+001 0.000000e+000
      vertex   -1.202611e+002 9.967585e+001 0.000000e+000
      vertex   -1.202942e+002 9.935321e+001 0.000000e+000
    endloop
  endfacet
  facet normal 0.000000e+000 0.000000e+000 -9.854566e-001
    outer loop
      vertex   -1.297058e+002 9.935321e+001 0.000000e+000
      vertex   -1.202942e+002 9.935321e+001 0.000000e+000
      vertex   -1.296507e+002 9.903358e+001 0.000000e+000
    endloop
  endfacet
  facet normal 0.000000e+000 0.000000e+000 -3.414126e-002
    outer loop
      vertex   -1.296507e+002 9.903358e+001 0.000000e+000
      vertex   -1.202942e+002 9.935321e+001 0.000000e+000
      vertex   -1.203493e+002 9.903358e+001 0.000000e+000
    endloop
  endfacet
  facet normal 0.000000e+000 0.000000e+000 -9.715631e-001
    outer loop
      vertex   -1.296507e+002 9.903358e+001 0.000000e+000
      vertex   -1.203493e+002 9.903358e+001 0.000000e+000
      vertex   -1.295739e+002 9.871847e+001 0.000000e+000
    endloop
  endfacet
  facet normal 0.000000e+000 0.000000e+000 -3.414094e-002
    outer loop
      vertex   -1.295739e+002 9.871847e+001 0.000000e+000
      vertex   -1.203493e+002 9.903358e+001 0.000000e+000
      vertex   -1.204261e+002 9.871847e+001 0.000000e+000
    endloop
  endfacet
  facet normal 0.000000e+000 0.000000e+000 -9.531479e-001
    outer loop
      vertex   -1.295739e+002 9.871847e+001 0.000000e+000
      vertex   -1.204261e+002 9.871847e+001 0.000000e+000
      vertex   -1.294757e+002 9.840932e+001 0.000000e+000
    endloop
  endfacet
  facet normal 0.000000e+000 0.000000e+000 -3.414106e-002
    outer loop
      vertex   -1.294757e+002 9.840932e+001 0.000000e+000
      vertex   -1.204261e+002 9.871847e+001 0.000000e+000
      vertex   -1.205243e+002 9.840932e+001 0.000000e+000
    endloop
  endfacet
  facet normal 0.000000e+000 0.000000e+000 -9.302761e-001
    outer loop
      vertex   -1.294757e+002 9.840932e+001 0.000000e+000
      vertex   -1.205243e+002 9.840932e+001 0.000000e+000
      vertex   -1.293568e+002 9.810760e+001 0.000000e+000
    endloop
  endfacet
  facet normal 0.000000e+000 0.000000e+000 -3.414116e-002
    outer loop
      vertex   -1.293568e+002 9.810760e+001 0.000000e+000
      vertex   -1.205243e+002 9.840932e+001 0.000000e+000
      vertex   -1.206432e+002 9.810760e+001 0.000000e+000
    endloop
  endfacet
  facet normal 0.000000e+000 0.000000e+000 -9.030787e-001
    outer loop
      vertex   -1.293568e+002 9.810760e+001 0.000000e+000
      vertex   -1.206432e+002 9.810760e+001 0.000000e+000
      vertex   -1.292175e+002 9.781469e+001 0.000000e+000
    endloop
  endfacet
  facet normal 0.000000e+000 0.000000e+000 -3.414159e-002
    outer loop
      vertex   -1.292175e+002 9.781469e+001 0.000000e+000
      vertex   -1.206432e+002 9.810760e+001 0.000000e+000
      vertex   -1.207825e+002 9.781469e+001 0.000000e+000
    endloop
  endfacet
  facet normal 0.000000e+000 0.000000e+000 -8.716559e-001
    outer loop
      vertex   -1.292175e+002 9.781469e+001 0.000000e+000
      vertex   -1.207825e+002 9.781469e+001 0.000000e+000
      vertex   -1.290585e+002 9.753197e+001 0.000000e+000
    endloop
  endfacet
  facet normal 0.000000e+000 0.000000e+000 -3.414114e-002
    outer loop
      vertex   -1.290585e+002 9.753197e+001 0.000000e+000
      vertex   -1.207825e+002 9.781469e+001 0.000000e+000
      vertex   -1.209415e+002 9.753197e+001 0.000000e+000
    endloop
  endfacet
  facet normal 0.000000e+000 0.000000e+000 -8.361814e-001
    outer loop
      vertex   -1.290585e+002 9.753197e+001 0.000000e+000
      vertex   -1.209415e+002 9.753197e+001 0.000000e+000
      vertex   -1.288806e+002 9.726077e+001 0.000000e+000
    endloop
  endfacet
  facet normal 0.000000e+000 0.000000e+000 -3.414138e-002
    outer loop
      vertex   -1.288806e+002 9.726077e+001 0.000000e+000
      vertex   -1.209415e+002 9.753197e+001 0.000000e+000
      vertex   -1.211194e+002 9.726077e+001 0.000000e+000
    endloop
  endfacet
  facet normal 0.000000e+000 0.000000e+000 -7.968131e-001
    outer loop
      vertex   -1.288806e+002 9.726077e+001 0.000000e+000
      vertex   -1.211194e+002 9.726077e+001 0.000000e+000
      vertex   -1.286846e+002 9.700233e+001 0.000000e+000
    endloop
  endfacet
  facet normal 0.000000e+000 0.000000e+000 -3.414034e-002
    outer loop
      vertex   -1.286846e+002 9.700233e+001 0.000000e+000
      vertex   -1.211194e+002 9.726077e+001 0.000000e+000
      vertex   -1.213154e+002 9.700233e+001 0.000000e+000
    endloop
  endfacet
  facet normal 0.000000e+000 0.000000e+000 -7.537034e-001
    outer loop
      vertex   -1.286846e+002 9.700233e+001 0.000000e+000
      vertex   -1.213154e+002 9.700233e+001 0.000000e+000
      vertex   -1.284715e+002 9.675787e+001 0.000000e+000
    endloop
  endfacet
  facet normal 0.000000e+000 0.000000e+000 -3.414131e-002
    outer loop
      vertex   -1.284715e+002 9.675787e+001 0.000000e+000
      vertex   -1.213154e+002 9.700233e+001 0.000000e+000
      vertex   -1.215285e+002 9.675787e+001 0.000000e+000
    endloop
  endfacet
  facet normal 0.000000e+000 0.000000e+000 -7.071186e-001
    outer loop
      vertex   -1.284715e+002 9.675787e+001 0.000000e+000
      vertex   -1.215285e+002 9.675787e+001 0.000000e+000
      vertex   -1.282421e+002 9.652853e+001 0.000000e+000
    endloop
  endfacet
  facet normal 0.000000e+000 0.000000e+000 -3.414167e-002
    outer loop
      vertex   -1.282421e+002 9.652853e+001 0.000000e+000
      vertex   -1.215285e+002 9.675787e+001 0.000000e+000
      vertex   -1.217579e+002 9.652853e+001 0.000000e+000
    endloop
  endfacet
  facet normal 0.000000e+000 0.000000e+000 -6.572013e-001
    outer loop
      vertex   -1.282421e+002 9.652853e+001 0.000000e+000
      vertex   -1.217579e+002 9.652853e+001 0.000000e+000
      vertex   -1.279977e+002 9.631537e+001 0.000000e+000
    endloop
  endfacet
  facet normal 0.000000e+000 0.000000e+000 -3.414110e-002
    outer loop
      vertex   -1.279977e+002 9.631537e+001 0.000000e+000
      vertex   -1.217579e+002 9.652853e+001 0.000000e+000
      vertex   -1.220023e+002 9.631537e+001 0.000000e+000
    endloop
  endfacet
  facet normal 0.000000e+000 0.000000e+000 -6.042408e-001
    outer loop
      vertex   -1.279977e+002 9.631537e+001 0.000000e+000
      vertex   -1.220023e+002 9.631537e+001 0.000000e+000
      vertex   -1.277392e+002 9.611939e+001 0.000000e+000
    endloop
  endfacet
  facet normal 0.000000e+000 0.000000e+000 -3.414074e-002
    outer loop
      vertex   -1.277392e+002 9.611939e+001 0.000000e+000
      vertex   -1.220023e+002 9.631537e+001 0.000000e+000
      vertex   -1.222608e+002 9.611939e+001 0.000000e+000
    endloop
  endfacet
  facet normal 0.000000e+000 0.000000e+000 -5.484530e-001
    outer loop
      vertex   -1.277392e+002 9.611939e+001 0.000000e+000
      vertex   -1.222608e+002 9.611939e+001 0.000000e+000
      vertex   -1.274680e+002 9.594151e+001 0.000000e+000
    endloop
  endfacet
  facet normal 0.000000e+000 0.000000e+000 -3.414142e-002
    outer loop
      vertex   -1.274680e+002 9.594151e+001 0.000000e+000
      vertex   -1.222608e+002 9.611939e+001 0.000000e+000
      vertex   -1.225320e+002 9.594151e+001 0.000000e+000
    endloop
  endfacet
  facet normal 0.000000e+000 0.000000e+000 -4.901004e-001
    outer loop
      vertex   -1.274680e+002 9.594151e+001 0.000000e+000
      vertex   -1.225320e+002 9.594151e+001 0.000000e+000
      vertex   -1.271853e+002 9.578255e+001 0.000000e+000
    endloop
  endfacet
  facet normal 0.000000e+000 0.000000e+000 -3.414019e-002
    outer loop
      vertex   -1.271853e+002 9.578255e+001 0.000000e+000
      vertex   -1.225320e+002 9.594151e+001 0.000000e+000
      vertex   -1.228147e+002 9.578255e+001 0.000000e+000
    endloop
  endfacet
  facet normal 0.000000e+000 0.000000e+000 -4.294752e-001
    outer loop
      vertex   -1.271853e+002 9.578255e+001 0.000000e+000
      vertex   -1.228147e+002 9.578255e+001 0.000000e+000
      vertex   -1.268924e+002 9.564325e+001 0.000000e+000
    endloop
  endfacet
  facet normal 0.000000e+000 0.000000e+000 -3.414077e-002
    outer loop
      vertex   -1.268924e+002 9.564325e+001 0.000000e+000
      vertex   -1.228147e+002 9.578255e+001 0.000000e+000
      vertex   -1.231076e+002 9.564325e+001 0.000000e+000
    endloop
  endfacet
  facet normal 0.000000e+000 0.000000e+000 -3.668602e-001
    outer loop
      vertex   -1.268924e+002 9.564325e+001 0.000000e+000
      vertex   -1.231076e+002 9.564325e+001 0.000000e+000
      vertex   -1.265907e+002 9.552426e+001 0.000000e+000
    endloop
  endfacet
  facet normal 0.000000e+000 0.000000e+000 -3.414183e-002
    outer loop
      vertex   -1.265907e+002 9.552426e+001 0.000000e+000
      vertex   -1.231076e+002 9.564325e+001 0.000000e+000
      vertex   -1.234093e+002 9.552426e+001 0.000000e+000
    endloop
  endfacet
  facet normal 0.000000e+000 0.000000e+000 -3.025259e-001
    outer loop
      vertex   -1.265907e+002 9.552426e+001 0.000000e+000
      vertex   -1.234093e+002 9.552426e+001 0.000000e+000
      vertex   -1.262815e+002 9.542614e+001 0.000000e+000
    endloop
  endfacet
  facet normal 0.000000e+000 0.000000e+000 -3.414253e-002
    outer loop
      vertex   -1.262815e+002 9.542614e+001 0.000000e+000
      vertex   -1.234093e+002 9.552426e+001 0.000000e+000
      vertex   -1.237185e+002 9.542614e+001 0.000000e+000
    endloop
  endfacet
  facet normal 0.000000e+000 0.000000e+000 -2.367585e-001
    outer loop
      vertex   -1.262815e+002 9.542614e+001 0.000000e+000
      vertex   -1.237185e+002 9.542614e+001 0.000000e+000
      vertex   -1.259664e+002 9.534935e+001 0.000000e+000
    endloop
  endfacet
  facet normal 0.000000e+000 0.000000e+000 -3.414007e-002
    outer loop
      vertex   -1.259664e+002 9.534935e+001 0.000000e+000
      vertex   -1.237185e+002 9.542614e+001 0.000000e+000
      vertex   -1.240336e+002 9.534935e+001 0.000000e+000
    endloop
  endfacet
  facet normal 0.000000e+000 0.000000e+000 -1.699046e-001
    outer loop
      vertex   -1.259664e+002 9.534935e+001 0.000000e+000
      vertex   -1.240336e+002 9.534935e+001 0.000000e+000
      vertex   -1.256468e+002 9.529424e+001 0.000000e+000
    endloop
  endfacet
  facet normal 0.000000e+000 0.000000e+000 -3.414011e-002
    outer loop
      vertex   -1.256468e+002 9.529424e+001 0.000000e+000
      vertex   -1.240336e+002 9.534935e+001 0.000000e+000
      vertex   -1.243532e+002 9.529424e+001 0.000000e+000
    endloop
  endfacet
  facet normal 0.000000e+000 0.000000e+000 -1.022772e-001
    outer loop
      vertex   -1.256468e+002 9.529424e+001 0.000000e+000
      vertex   -1.243532e+002 9.529424e+001 0.000000e+000
      vertex   -1.253242e+002 9.526107e+001 0.000000e+000
    endloop
  endfacet
  facet normal 0.000000e+000 0.000000e+000 -3.414555e-002
    outer loop
      vertex   -1.253242e+002 9.526107e+001 0.000000e+000
      vertex   -1.243532e+002 9.529424e+001 0.000000e+000
      vertex   -1.246758e+002 9.526107e+001 0.000000e+000
    endloop
  endfacet
  facet normal 0.000000e+000 0.000000e+000 -3.413172e-002
    outer loop
      vertex   -1.253242e+002 9.526107e+001 0.000000e+000
      vertex   -1.246758e+002 9.526107e+001 0.000000e+000
      vertex   -1.250000e+002 9.525000e+001 0.000000e+000
    endloop
  endfacet
  facet normal 0.000000e+000 0.000000e+000 -9.947559e-001
    outer loop
      vertex   -1.202611e+002 1.003242e+002 0.000000e+000
      vertex   -1.297389e+002 1.003242e+002 0.000000e+000
      vertex   -1.202942e+002 1.006468e+002 0.000000e+000
    endloop
  endfacet
  facet normal -0.000000e+000 0.000000e+000 -3.414106e-002
    outer loop
      vertex   -1.202942e+002 1.006468e+002 0.000000e+000
      vertex   -1.297389e+002 1.003242e+002 0.000000e+000
      vertex   -1.297058e+002 1.006468e+002 0.000000e+000
    endloop
  endfacet
  facet normal 0.000000e+000 0.000000e+000 -9.854605e-001
    outer loop
      vertex   -1.202942e+002 1.006468e+002 0.000000e+000
      vertex   -1.297058e+002 1.006468e+002 0.000000e+000
      vertex   -1.203493e+002 1.009664e+002 0.000000e+000
    endloop
  endfacet
  facet normal -0.000000e+000 0.000000e+000 -3.414123e-002
    outer loop
      vertex   -1.203493e+002 1.009664e+002 0.000000e+000
      vertex   -1.297058e+002 1.006468e+002 0.000000e+000
      vertex   -1.296507e+002 1.009664e+002 0.000000e+000
    endloop
  endfacet
  facet normal 0.000000e+000 0.000000e+000 -9.715685e-001
    outer loop
      vertex   -1.203493e+002 1.009664e+002 0.000000e+000
      vertex   -1.296507e+002 1.009664e+002 0.000000e+000
      vertex   -1.204261e+002 1.012815e+002 0.000000e+000
    endloop
  endfacet
  facet normal -0.000000e+000 0.000000e+000 -3.414091e-002
    outer loop
      vertex   -1.204261e+002 1.012815e+002 0.000000e+000
      vertex   -1.296507e+002 1.009664e+002 0.000000e+000
      vertex   -1.295739e+002 1.012815e+002 0.000000e+000
    endloop
  endfacet
  facet normal 0.000000e+000 0.000000e+000 -9.531412e-001
    outer loop
      vertex   -1.204261e+002 1.012815e+002 0.000000e+000
      vertex   -1.295739e+002 1.012815e+002 0.000000e+000
      vertex   -1.205243e+002 1.015907e+002 0.000000e+000
    endloop
  endfacet
  facet normal -0.000000e+000 0.000000e+000 -3.414108e-002
    outer loop
      vertex   -1.205243e+002 1.015907e+002 0.000000e+000
      vertex   -1.295739e+002 1.012815e+002 0.000000e+000
      vertex   -1.294757e+002 1.015907e+002 0.000000e+000
    endloop
  endfacet
  facet normal 0.000000e+000 0.000000e+000 -9.302761e-001
    outer loop
      vertex   -1.205243e+002 1.015907e+002 0.000000e+000
      vertex   -1.294757e+002 1.015907e+002 0.000000e+000
      vertex   -1.206432e+002 1.018924e+002 0.000000e+000
    endloop
  endfacet
  facet normal -0.000000e+000 0.000000e+000 -3.414116e-002
    outer loop
      vertex   -1.206432e+002 1.018924e+002 0.000000e+000
      vertex   -1.294757e+002 1.015907e+002 0.000000e+000
      vertex   -1.293568e+002 1.018924e+002 0.000000e+000
    endloop
  endfacet
  facet normal 0.000000e+000 0.000000e+000 -9.030787e-001
    outer loop
      vertex   -1.206432e+002 1.018924e+002 0.000000e+000
      vertex   -1.293568e+002 1.018924e+002 0.000000e+000
      vertex   -1.207825e+002 1.021853e+002 0.000000e+000
    endloop
  endfacet
  facet normal -0.000000e+000 0.000000e+000 -3.414159e-002
    outer loop
      vertex   -1.207825e+002 1.021853e+002 0.000000e+000
      vertex   -1.293568e+002 1.018924e+002 0.000000e+000
      vertex   -1.292175e+002 1.021853e+002 0.000000e+000
    endloop
  endfacet
  facet normal 0.000000e+000 0.000000e+000 -8.716660e-001
    outer loop
      vertex   -1.207825e+002 1.021853e+002 0.000000e+000
      vertex   -1.292175e+002 1.021853e+002 0.000000e+000
      vertex   -1.209415e+002 1.024680e+002 0.000000e+000
    endloop
  endfacet
  facet normal -0.000000e+000 0.000000e+000 -3.414111e-002
    outer loop
      vertex   -1.209415e+002 1.024680e+002 0.000000e+000
      vertex   -1.292175e+002 1.021853e+002 0.000000e+000
      vertex   -1.290585e+002 1.024680e+002 0.000000e+000
    endloop
  endfacet
  facet normal 0.000000e+000 0.000000e+000 -8.361814e-001
    outer loop
      vertex   -1.209415e+002 1.024680e+002 0.000000e+000
      vertex   -1.290585e+002 1.024680e+002 0.000000e+000
      vertex   -1.211194e+002 1.027392e+002 0.000000e+000
    endloop
  endfacet
  facet normal -0.000000e+000 0.000000e+000 -3.414138e-002
    outer loop
      vertex   -1.211194e+002 1.027392e+002 0.000000e+000
      vertex   -1.290585e+002 1.024680e+002 0.000000e+000
      vertex   -1.288806e+002 1.027392e+002 0.000000e+000
    endloop
  endfacet
  facet normal 0.000000e+000 0.000000e+000 -7.968018e-001
    outer loop
      vertex   -1.211194e+002 1.027392e+002 0.000000e+000
      vertex   -1.288806e+002 1.027392e+002 0.000000e+000
      vertex   -1.213154e+002 1.029977e+002 0.000000e+000
    endloop
  endfacet
  facet normal -0.000000e+000 0.000000e+000 -3.414037e-002
    outer loop
      vertex   -1.213154e+002 1.029977e+002 0.000000e+000
      vertex   -1.288806e+002 1.027392e+002 0.000000e+000
      vertex   -1.286846e+002 1.029977e+002 0.000000e+000
    endloop
  endfacet
  facet normal 0.000000e+000 0.000000e+000 -7.537150e-001
    outer loop
      vertex   -1.213154e+002 1.029977e+002 0.000000e+000
      vertex   -1.286846e+002 1.029977e+002 0.000000e+000
      vertex   -1.215285e+002 1.032421e+002 0.000000e+000
    endloop
  endfacet
  facet normal -0.000000e+000 0.000000e+000 -3.414127e-002
    outer loop
      vertex   -1.215285e+002 1.032421e+002 0.000000e+000
      vertex   -1.286846e+002 1.029977e+002 0.000000e+000
      vertex   -1.284715e+002 1.032421e+002 0.000000e+000
    endloop
  endfacet
  facet normal 0.000000e+000 0.000000e+000 -7.071068e-001
    outer loop
      vertex   -1.215285e+002 1.032421e+002 0.000000e+000
      vertex   -1.284715e+002 1.032421e+002 0.000000e+000
      vertex   -1.217579e+002 1.034715e+002 0.000000e+000
    endloop
  endfacet
  facet normal -0.000000e+000 0.000000e+000 -3.414171e-002
    outer loop
      vertex   -1.217579e+002 1.034715e+002 0.000000e+000
      vertex   -1.284715e+002 1.032421e+002 0.000000e+000
      vertex   -1.282421e+002 1.034715e+002 0.000000e+000
    endloop
  endfacet
  facet normal 0.000000e+000 0.000000e+000 -6.572013e-001
    outer loop
      vertex   -1.217579e+002 1.034715e+002 0.000000e+000
      vertex   -1.282421e+002 1.034715e+002 0.000000e+000
      vertex   -1.220023e+002 1.036846e+002 0.000000e+000
    endloop
  endfacet
  facet normal -0.000000e+000 0.000000e+000 -3.414110e-002
    outer loop
      vertex   -1.220023e+002 1.036846e+002 0.000000e+000
      vertex   -1.282421e+002 1.034715e+002 0.000000e+000
      vertex   -1.279977e+002 1.036846e+002 0.000000e+000
    endloop
  endfacet
  facet normal 0.000000e+000 0.000000e+000 -6.042408e-001
    outer loop
      vertex   -1.220023e+002 1.036846e+002 0.000000e+000
      vertex   -1.279977e+002 1.036846e+002 0.000000e+000
      vertex   -1.222608e+002 1.038806e+002 0.000000e+000
    endloop
  endfacet
  facet normal -0.000000e+000 0.000000e+000 -3.414074e-002
    outer loop
      vertex   -1.222608e+002 1.038806e+002 0.000000e+000
      vertex   -1.279977e+002 1.036846e+002 0.000000e+000
      vertex   -1.277392e+002 1.038806e+002 0.000000e+000
    endloop
  endfacet
  facet normal 0.000000e+000 0.000000e+000 -5.484530e-001
    outer loop
      vertex   -1.222608e+002 1.038806e+002 0.000000e+000
      vertex   -1.277392e+002 1.038806e+002 0.000000e+000
      vertex   -1.225320e+002 1.040585e+002 0.000000e+000
    endloop
  endfacet
  facet normal -0.000000e+000 0.000000e+000 -3.414142e-002
    outer loop
      vertex   -1.225320e+002 1.040585e+002 0.000000e+000
      vertex   -1.277392e+002 1.038806e+002 0.000000e+000
      vertex   -1.274680e+002 1.040585e+002 0.000000e+000
    endloop
  endfacet
  facet normal 0.000000e+000 0.000000e+000 -4.901004e-001
    outer loop
      vertex   -1.225320e+002 1.040585e+002 0.000000e+000
      vertex   -1.274680e+002 1.040585e+002 0.000000e+000
      vertex   -1.228147e+002 1.042175e+002 0.000000e+000
    endloop
  endfacet
  facet normal -0.000000e+000 0.000000e+000 -3.414019e-002
    outer loop
      vertex   -1.228147e+002 1.042175e+002 0.000000e+000
      vertex   -1.274680e+002 1.040585e+002 0.000000e+000
      vertex   -1.271853e+002 1.042175e+002 0.000000e+000
    endloop
  endfacet
  facet normal 0.000000e+000 0.000000e+000 -4.294752e-001
    outer loop
      vertex   -1.228147e+002 1.042175e+002 0.000000e+000
      vertex   -1.271853e+002 1.042175e+002 0.000000e+000
      vertex   -1.231076e+002 1.043568e+002 0.000000e+000
    endloop
  endfacet
  facet normal -0.000000e+000 0.000000e+000 -3.414077e-002
    outer loop
      vertex   -1.231076e+002 1.043568e+002 0.000000e+000
      vertex   -1.271853e+002 1.042175e+002 0.000000e+000
      vertex   -1.268924e+002 1.043568e+002 0.000000e+000
    endloop
  endfacet
  facet normal 0.000000e+000 0.000000e+000 -3.668602e-001
    outer loop
      vertex   -1.231076e+002 1.043568e+002 0.000000e+000
      vertex   -1.268924e+002 1.043568e+002 0.000000e+000
      vertex   -1.234093e+002 1.044757e+002 0.000000e+000
    endloop
  endfacet
  facet normal -0.000000e+000 0.000000e+000 -3.414183e-002
    outer loop
      vertex   -1.234093e+002 1.044757e+002 0.000000e+000
      vertex   -1.268924e+002 1.043568e+002 0.000000e+000
      vertex   -1.265907e+002 1.044757e+002 0.000000e+000
    endloop
  endfacet
  facet normal 0.000000e+000 0.000000e+000 -3.025259e-001
    outer loop
      vertex   -1.234093e+002 1.044757e+002 0.000000e+000
      vertex   -1.265907e+002 1.044757e+002 0.000000e+000
      vertex   -1.237185e+002 1.045739e+002 0.000000e+000
    endloop
  endfacet
  facet normal -0.000000e+000 0.000000e+000 -3.414253e-002
    outer loop
      vertex   -1.237185e+002 1.045739e+002 0.000000e+000
      vertex   -1.265907e+002 1.044757e+002 0.000000e+000
      vertex   -1.262815e+002 1.045739e+002 0.000000e+000
    endloop
  endfacet
  facet normal 0.000000e+000 0.000000e+000 -2.367585e-001
    outer loop
      vertex   -1.237185e+002 1.045739e+002 0.000000e+000
      vertex   -1.262815e+002 1.045739e+002 0.000000e+000
      vertex   -1.240336e+002 1.046507e+002 0.000000e+000
    endloop
  endfacet
  facet normal -0.000000e+000 0.000000e+000 -3.414007e-002
    outer loop
      vertex   -1.240336e+002 1.046507e+002 0.000000e+000
      vertex   -1.262815e+002 1.045739e+002 0.000000e+000
      vertex   -1.259664e+002 1.046507e+002 0.000000e+000
    endloop
  endfacet
  facet normal 0.000000e+000 0.000000e+000 -1.699046e-001
    outer loop
      vertex   -1.240336e+002 1.046507e+002 0.000000e+000
      vertex   -1.259664e+002 1.046507e+002 0.000000e+000
      vertex   -1.243532e+002 1.047058e+002 0.000000e+000
    endloop
  endfacet
  facet normal -0.000000e+000 0.000000e+000 -3.414011e-002
    outer loop
      vertex   -1.243532e+002 1.047058e+002 0.000000e+000
      vertex   -1.259664e+002 1.046507e+002 0.000000e+000
      vertex   -1.256468e+002 1.047058e+002 0.000000e+000
    endloop
  endfacet
  facet normal 0.000000e+000 0.000000e+000 -1.022772e-001
    outer loop
      vertex   -1.243532e+002 1.047058e+002 0.000000e+000
      vertex   -1.256468e+002 1.047058e+002 0.000000e+000
      vertex   -1.246758e+002 1.047389e+002 0.000000e+000
    endloop
  endfacet
  facet normal -0.000000e+000 0.000000e+000 -3.414555e-002
    outer loop
      vertex   -1.246758e+002 1.047389e+002 0.000000e+000
      vertex   -1.256468e+002 1.047058e+002 0.000000e+000
      vertex   -1.253242e+002 1.047389e+002 0.000000e+000
    endloop
  endfacet
  facet normal 0.000000e+000 0.000000e+000 -3.413172e-002
    outer loop
      vertex   -1.246758e+002 1.047389e+002 0.000000e+000
      vertex   -1.253242e+002 1.047389e+002 0.000000e+000
      vertex   -1.250000e+002 1.047500e+002 0.000000e+000
    endloop
  endfacet
endsolid
