solid ascii
  facet normal -9.993764e-001 3.530941e-002 0.000000e+000
    outer loop
      vertex   -1.544888e+002 7.531743e+001 5.000000e+000
      vertex   -1.544888e+002 7.531743e+001 0.000000e+000
      vertex   -1.545000e+002 7.500000e+001 5.000000e+000
    endloop
  endfacet
  facet normal -6.335801e-002 2.238530e-003 0.000000e+000
    outer loop
      vertex   -1.545000e+002 7.500000e+001 5.000000e+000
      vertex   -1.544888e+002 7.531743e+001 0.000000e+000
      vertex   -1.545000e+002 7.500000e+001 0.000000e+000
    endloop
  endfacet
  facet normal -9.993764e-001 -3.530941e-002 -0.000000e+000
    outer loop
      vertex   -1.545000e+002 7.500000e+001 5.000000e+000
      vertex   -1.545000e+002 7.500000e+001 0.000000e+000
      vertex   -1.544888e+002 7.468257e+001 5.000000e+000
    endloop
  endfacet
  facet normal -6.335801e-002 -2.238530e-003 -0.000000e+000
    outer loop
      vertex   -1.544888e+002 7.468257e+001 5.000000e+000
      vertex   -1.545000e+002 7.500000e+001 0.000000e+000
      vertex   -1.544888e+002 7.468257e+001 0.000000e+000
    endloop
  endfacet
  facet normal -9.943991e-001 -1.056900e-001 -0.000000e+000
    outer loop
      vertex   -1.544888e+002 7.468257e+001 5.000000e+000
      vertex   -1.544888e+002 7.468257e+001 0.000000e+000
      vertex   -1.544552e+002 7.436673e+001 5.000000e+000
    endloop
  endfacet
  facet normal -6.304127e-002 -6.700362e-003 -0.000000e+000
    outer loop
      vertex   -1.544552e+002 7.436673e+001 5.000000e+000
      vertex   -1.544888e+002 7.468257e+001 0.000000e+000
      vertex   -1.544552e+002 7.436673e+001 0.000000e+000
    endloop
  endfacet
  facet normal -9.844639e-001 -1.755870e-001 -0.000000e+000
    outer loop
      vertex   -1.544552e+002 7.436673e+001 5.000000e+000
      vertex   -1.544552e+002 7.436673e+001 0.000000e+000
      vertex   -1.543994e+002 7.405404e+001 5.000000e+000
    endloop
  endfacet
  facet normal -6.241234e-002 -1.113174e-002 -0.000000e+000
    outer loop
      vertex   -1.543994e+002 7.405404e+001 5.000000e+000
      vertex   -1.544552e+002 7.436673e+001 0.000000e+000
      vertex   -1.543994e+002 7.405404e+001 0.000000e+000
    endloop
  endfacet
  facet normal -9.696303e-001 -2.445754e-001 -0.000000e+000
    outer loop
      vertex   -1.543994e+002 7.405404e+001 5.000000e+000
      vertex   -1.543994e+002 7.405404e+001 0.000000e+000
      vertex   -1.543218e+002 7.374606e+001 5.000000e+000
    endloop
  endfacet
  facet normal -6.147125e-002 -1.550525e-002 -0.000000e+000
    outer loop
      vertex   -1.543218e+002 7.374606e+001 5.000000e+000
      vertex   -1.543994e+002 7.405404e+001 0.000000e+000
      vertex   -1.543218e+002 7.374606e+001 0.000000e+000
    endloop
  endfacet
  facet normal -9.499629e-001 -3.123626e-001 -0.000000e+000
    outer loop
      vertex   -1.543218e+002 7.374606e+001 5.000000e+000
      vertex   -1.543218e+002 7.374606e+001 0.000000e+000
      vertex   -1.542225e+002 7.344434e+001 5.000000e+000
    endloop
  endfacet
  facet normal -6.022407e-002 -1.980262e-002 -0.000000e+000
    outer loop
      vertex   -1.542225e+002 7.344434e+001 5.000000e+000
      vertex   -1.543218e+002 7.374606e+001 0.000000e+000
      vertex   -1.542225e+002 7.344434e+001 0.000000e+000
    endloop
  endfacet
  facet normal -9.255561e-001 -3.786104e-001 -0.000000e+000
    outer loop
      vertex   -1.542225e+002 7.344434e+001 5.000000e+000
      vertex   -1.542225e+002 7.344434e+001 0.000000e+000
      vertex   -1.541023e+002 7.315036e+001 5.000000e+000
    endloop
  endfacet
  facet normal -5.867689e-002 -2.400252e-002 -0.000000e+000
    outer loop
      vertex   -1.541023e+002 7.315036e+001 5.000000e+000
      vertex   -1.542225e+002 7.344434e+001 0.000000e+000
      vertex   -1.541023e+002 7.315036e+001 0.000000e+000
    endloop
  endfacet
  facet normal -8.965548e-001 -4.429329e-001 -0.000000e+000
    outer loop
      vertex   -1.541023e+002 7.315036e+001 5.000000e+000
      vertex   -1.541023e+002 7.315036e+001 0.000000e+000
      vertex   -1.539616e+002 7.286559e+001 5.000000e+000
    endloop
  endfacet
  facet normal -5.683886e-002 -2.808060e-002 -0.000000e+000
    outer loop
      vertex   -1.539616e+002 7.286559e+001 5.000000e+000
      vertex   -1.541023e+002 7.315036e+001 0.000000e+000
      vertex   -1.539616e+002 7.286559e+001 0.000000e+000
    endloop
  endfacet
  facet normal -8.630645e-001 -5.050937e-001 -0.000000e+000
    outer loop
      vertex   -1.539616e+002 7.286559e+001 5.000000e+000
      vertex   -1.539616e+002 7.286559e+001 0.000000e+000
      vertex   -1.538012e+002 7.259146e+001 5.000000e+000
    endloop
  endfacet
  facet normal -5.471607e-002 -3.202163e-002 -0.000000e+000
    outer loop
      vertex   -1.538012e+002 7.259146e+001 5.000000e+000
      vertex   -1.539616e+002 7.286559e+001 0.000000e+000
      vertex   -1.538012e+002 7.259146e+001 0.000000e+000
    endloop
  endfacet
  facet normal -8.252860e-001 -5.647149e-001 -0.000000e+000
    outer loop
      vertex   -1.538012e+002 7.259146e+001 5.000000e+000
      vertex   -1.538012e+002 7.259146e+001 0.000000e+000
      vertex   -1.536218e+002 7.232933e+001 5.000000e+000
    endloop
  endfacet
  facet normal -5.232069e-002 -3.580125e-002 -0.000000e+000
    outer loop
      vertex   -1.536218e+002 7.232933e+001 5.000000e+000
      vertex   -1.538012e+002 7.259146e+001 0.000000e+000
      vertex   -1.536218e+002 7.232933e+001 0.000000e+000
    endloop
  endfacet
  facet normal -7.834073e-001 -6.215086e-001 -0.000000e+000
    outer loop
      vertex   -1.536218e+002 7.232933e+001 5.000000e+000
      vertex   -1.536218e+002 7.232933e+001 0.000000e+000
      vertex   -1.534244e+002 7.208051e+001 5.000000e+000
    endloop
  endfacet
  facet normal -4.966491e-002 -3.940117e-002 -0.000000e+000
    outer loop
      vertex   -1.534244e+002 7.208051e+001 5.000000e+000
      vertex   -1.536218e+002 7.232933e+001 0.000000e+000
      vertex   -1.534244e+002 7.208051e+001 0.000000e+000
    endloop
  endfacet
  facet normal -7.375967e-001 -6.752415e-001 -0.000000e+000
    outer loop
      vertex   -1.534244e+002 7.208051e+001 5.000000e+000
      vertex   -1.534244e+002 7.208051e+001 0.000000e+000
      vertex   -1.532099e+002 7.184622e+001 5.000000e+000
    endloop
  endfacet
  facet normal -4.676243e-002 -4.280921e-002 -0.000000e+000
    outer loop
      vertex   -1.532099e+002 7.184622e+001 5.000000e+000
      vertex   -1.534244e+002 7.208051e+001 0.000000e+000
      vertex   -1.532099e+002 7.184622e+001 0.000000e+000
    endloop
  endfacet
  facet normal -6.881469e-001 -7.255713e-001 -0.000000e+000
    outer loop
      vertex   -1.532099e+002 7.184622e+001 5.000000e+000
      vertex   -1.532099e+002 7.184622e+001 0.000000e+000
      vertex   -1.529795e+002 7.162766e+001 5.000000e+000
    endloop
  endfacet
  facet normal -4.362545e-002 -4.599798e-002 -0.000000e+000
    outer loop
      vertex   -1.529795e+002 7.162766e+001 5.000000e+000
      vertex   -1.532099e+002 7.184622e+001 0.000000e+000
      vertex   -1.529795e+002 7.162766e+001 0.000000e+000
    endloop
  endfacet
  facet normal -6.352474e-001 -7.723087e-001 -0.000000e+000
    outer loop
      vertex   -1.529795e+002 7.162766e+001 5.000000e+000
      vertex   -1.529795e+002 7.162766e+001 0.000000e+000
      vertex   -1.527342e+002 7.142589e+001 5.000000e+000
    endloop
  endfacet
  facet normal -4.027222e-002 -4.896137e-002 -0.000000e+000
    outer loop
      vertex   -1.527342e+002 7.142589e+001 5.000000e+000
      vertex   -1.529795e+002 7.162766e+001 0.000000e+000
      vertex   -1.527342e+002 7.142589e+001 0.000000e+000
    endloop
  endfacet
  facet normal -5.791937e-001 -8.151900e-001 -0.000000e+000
    outer loop
      vertex   -1.527342e+002 7.142589e+001 5.000000e+000
      vertex   -1.527342e+002 7.142589e+001 0.000000e+000
      vertex   -1.524753e+002 7.124192e+001 5.000000e+000
    endloop
  endfacet
  facet normal -3.671950e-002 -5.168111e-002 -0.000000e+000
    outer loop
      vertex   -1.524753e+002 7.124192e+001 5.000000e+000
      vertex   -1.527342e+002 7.142589e+001 0.000000e+000
      vertex   -1.524753e+002 7.124192e+001 0.000000e+000
    endloop
  endfacet
  facet normal -5.202349e-001 -8.540232e-001 -0.000000e+000
    outer loop
      vertex   -1.524753e+002 7.124192e+001 5.000000e+000
      vertex   -1.524753e+002 7.124192e+001 0.000000e+000
      vertex   -1.522040e+002 7.107668e+001 5.000000e+000
    endloop
  endfacet
  facet normal -3.298101e-002 -5.414197e-002 -0.000000e+000
    outer loop
      vertex   -1.522040e+002 7.107668e+001 5.000000e+000
      vertex   -1.524753e+002 7.124192e+001 0.000000e+000
      vertex   -1.522040e+002 7.107668e+001 0.000000e+000
    endloop
  endfacet
  facet normal -4.587059e-001 -8.885881e-001 -0.000000e+000
    outer loop
      vertex   -1.522040e+002 7.107668e+001 5.000000e+000
      vertex   -1.522040e+002 7.107668e+001 0.000000e+000
      vertex   -1.519218e+002 7.093098e+001 5.000000e+000
    endloop
  endfacet
  facet normal -2.908109e-002 -5.633481e-002 -0.000000e+000
    outer loop
      vertex   -1.519218e+002 7.093098e+001 5.000000e+000
      vertex   -1.522040e+002 7.107668e+001 0.000000e+000
      vertex   -1.519218e+002 7.093098e+001 0.000000e+000
    endloop
  endfacet
  facet normal -3.948729e-001 -9.187358e-001 -0.000000e+000
    outer loop
      vertex   -1.519218e+002 7.093098e+001 5.000000e+000
      vertex   -1.519218e+002 7.093098e+001 0.000000e+000
      vertex   -1.516299e+002 7.080556e+001 5.000000e+000
    endloop
  endfacet
  facet normal -2.503346e-002 -5.824442e-002 -0.000000e+000
    outer loop
      vertex   -1.516299e+002 7.080556e+001 5.000000e+000
      vertex   -1.519218e+002 7.093098e+001 0.000000e+000
      vertex   -1.516299e+002 7.080556e+001 0.000000e+000
    endloop
  endfacet
  facet normal -3.290833e-001 -9.443009e-001 -0.000000e+000
    outer loop
      vertex   -1.516299e+002 7.080556e+001 5.000000e+000
      vertex   -1.516299e+002 7.080556e+001 0.000000e+000
      vertex   -1.513300e+002 7.070104e+001 5.000000e+000
    endloop
  endfacet
  facet normal -2.086249e-002 -5.986469e-002 -0.000000e+000
    outer loop
      vertex   -1.513300e+002 7.070104e+001 5.000000e+000
      vertex   -1.516299e+002 7.080556e+001 0.000000e+000
      vertex   -1.513300e+002 7.070104e+001 0.000000e+000
    endloop
  endfacet
  facet normal -2.616700e-001 -9.651574e-001 -0.000000e+000
    outer loop
      vertex   -1.513300e+002 7.070104e+001 5.000000e+000
      vertex   -1.513300e+002 7.070104e+001 0.000000e+000
      vertex   -1.510235e+002 7.061793e+001 5.000000e+000
    endloop
  endfacet
  facet normal -1.658949e-002 -6.118952e-002 -0.000000e+000
    outer loop
      vertex   -1.510235e+002 7.061793e+001 5.000000e+000
      vertex   -1.513300e+002 7.070104e+001 0.000000e+000
      vertex   -1.510235e+002 7.061793e+001 0.000000e+000
    endloop
  endfacet
  facet normal -1.929278e-001 -9.812130e-001 -0.000000e+000
    outer loop
      vertex   -1.510235e+002 7.061793e+001 5.000000e+000
      vertex   -1.510235e+002 7.061793e+001 0.000000e+000
      vertex   -1.507118e+002 7.055665e+001 5.000000e+000
    endloop
  endfacet
  facet normal -1.223120e-002 -6.220676e-002 -0.000000e+000
    outer loop
      vertex   -1.507118e+002 7.055665e+001 5.000000e+000
      vertex   -1.510235e+002 7.061793e+001 0.000000e+000
      vertex   -1.507118e+002 7.055665e+001 0.000000e+000
    endloop
  endfacet
  facet normal -1.232247e-001 -9.923788e-001 -0.000000e+000
    outer loop
      vertex   -1.507118e+002 7.055665e+001 5.000000e+000
      vertex   -1.507118e+002 7.055665e+001 0.000000e+000
      vertex   -1.503966e+002 7.051751e+001 5.000000e+000
    endloop
  endfacet
  facet normal -7.812012e-003 -6.291335e-002 -0.000000e+000
    outer loop
      vertex   -1.503966e+002 7.051751e+001 5.000000e+000
      vertex   -1.507118e+002 7.055665e+001 0.000000e+000
      vertex   -1.503966e+002 7.051751e+001 0.000000e+000
    endloop
  endfacet
  facet normal -5.291815e-002 -9.985989e-001 -0.000000e+000
    outer loop
      vertex   -1.503966e+002 7.051751e+001 5.000000e+000
      vertex   -1.503966e+002 7.051751e+001 0.000000e+000
      vertex   -1.500794e+002 7.050070e+001 5.000000e+000
    endloop
  endfacet
  facet normal -3.354750e-003 -6.330624e-002 -0.000000e+000
    outer loop
      vertex   -1.500794e+002 7.050070e+001 5.000000e+000
      vertex   -1.503966e+002 7.051751e+001 0.000000e+000
      vertex   -1.500794e+002 7.050070e+001 0.000000e+000
    endloop
  endfacet
  facet normal 1.765448e-002 -9.998441e-001 0.000000e+000
    outer loop
      vertex   -1.500794e+002 7.050070e+001 5.000000e+000
      vertex   -1.500794e+002 7.050070e+001 0.000000e+000
      vertex   -1.497618e+002 7.050631e+001 5.000000e+000
    endloop
  endfacet
  facet normal 1.119265e-003 -6.338846e-002 0.000000e+000
    outer loop
      vertex   -1.497618e+002 7.050631e+001 5.000000e+000
      vertex   -1.500794e+002 7.050070e+001 0.000000e+000
      vertex   -1.497618e+002 7.050631e+001 0.000000e+000
    endloop
  endfacet
  facet normal 8.812935e-002 -9.961091e-001 0.000000e+000
    outer loop
      vertex   -1.497618e+002 7.050631e+001 5.000000e+000
      vertex   -1.497618e+002 7.050631e+001 0.000000e+000
      vertex   -1.494454e+002 7.053430e+001 5.000000e+000
    endloop
  endfacet
  facet normal 5.587188e-003 -6.315091e-002 0.000000e+000
    outer loop
      vertex   -1.494454e+002 7.053430e+001 5.000000e+000
      vertex   -1.497618e+002 7.050631e+001 0.000000e+000
      vertex   -1.494454e+002 7.053430e+001 0.000000e+000
    endloop
  endfacet
  facet normal 1.581788e-001 -9.874105e-001 0.000000e+000
    outer loop
      vertex   -1.494454e+002 7.053430e+001 5.000000e+000
      vertex   -1.494454e+002 7.053430e+001 0.000000e+000
      vertex   -1.491318e+002 7.058454e+001 5.000000e+000
    endloop
  endfacet
  facet normal 1.002770e-002 -6.259661e-002 0.000000e+000
    outer loop
      vertex   -1.491318e+002 7.058454e+001 5.000000e+000
      vertex   -1.494454e+002 7.053430e+001 0.000000e+000
      vertex   -1.491318e+002 7.058454e+001 0.000000e+000
    endloop
  endfacet
  facet normal 2.274270e-001 -9.737951e-001 0.000000e+000
    outer loop
      vertex   -1.491318e+002 7.058454e+001 5.000000e+000
      vertex   -1.491318e+002 7.058454e+001 0.000000e+000
      vertex   -1.488225e+002 7.065678e+001 5.000000e+000
    endloop
  endfacet
  facet normal 1.441796e-002 -6.173470e-002 0.000000e+000
    outer loop
      vertex   -1.488225e+002 7.065678e+001 5.000000e+000
      vertex   -1.491318e+002 7.058454e+001 0.000000e+000
      vertex   -1.488225e+002 7.065678e+001 0.000000e+000
    endloop
  endfacet
  facet normal 2.955658e-001 -9.553224e-001 0.000000e+000
    outer loop
      vertex   -1.488225e+002 7.065678e+001 5.000000e+000
      vertex   -1.488225e+002 7.065678e+001 0.000000e+000
      vertex   -1.485191e+002 7.075066e+001 5.000000e+000
    endloop
  endfacet
  facet normal 1.873817e-002 -6.056517e-002 0.000000e+000
    outer loop
      vertex   -1.485191e+002 7.075066e+001 5.000000e+000
      vertex   -1.488225e+002 7.065678e+001 0.000000e+000
      vertex   -1.485191e+002 7.075066e+001 0.000000e+000
    endloop
  endfacet
  facet normal 3.621912e-001 -9.321038e-001 0.000000e+000
    outer loop
      vertex   -1.485191e+002 7.075066e+001 5.000000e+000
      vertex   -1.485191e+002 7.075066e+001 0.000000e+000
      vertex   -1.482230e+002 7.086570e+001 5.000000e+000
    endloop
  endfacet
  facet normal 2.296244e-002 -5.909413e-002 0.000000e+000
    outer loop
      vertex   -1.482230e+002 7.086570e+001 5.000000e+000
      vertex   -1.485191e+002 7.075066e+001 0.000000e+000
      vertex   -1.482230e+002 7.086570e+001 0.000000e+000
    endloop
  endfacet
  facet normal 4.270587e-001 -9.042239e-001 0.000000e+000
    outer loop
      vertex   -1.482230e+002 7.086570e+001 5.000000e+000
      vertex   -1.482230e+002 7.086570e+001 0.000000e+000
      vertex   -1.479358e+002 7.100134e+001 5.000000e+000
    endloop
  endfacet
  facet normal 2.707403e-002 -5.732464e-002 0.000000e+000
    outer loop
      vertex   -1.479358e+002 7.100134e+001 5.000000e+000
      vertex   -1.482230e+002 7.086570e+001 0.000000e+000
      vertex   -1.479358e+002 7.100134e+001 0.000000e+000
    endloop
  endfacet
  facet normal 4.897776e-001 -8.718474e-001 0.000000e+000
    outer loop
      vertex   -1.479358e+002 7.100134e+001 5.000000e+000
      vertex   -1.479358e+002 7.100134e+001 0.000000e+000
      vertex   -1.476589e+002 7.115691e+001 5.000000e+000
    endloop
  endfacet
  facet normal 3.105009e-002 -5.527189e-002 0.000000e+000
    outer loop
      vertex   -1.476589e+002 7.115691e+001 5.000000e+000
      vertex   -1.479358e+002 7.100134e+001 0.000000e+000
      vertex   -1.476589e+002 7.115691e+001 0.000000e+000
    endloop
  endfacet
  facet normal 5.500576e-001 -8.351268e-001 0.000000e+000
    outer loop
      vertex   -1.476589e+002 7.115691e+001 5.000000e+000
      vertex   -1.476589e+002 7.115691e+001 0.000000e+000
      vertex   -1.473937e+002 7.133162e+001 5.000000e+000
    endloop
  endfacet
  facet normal 3.487233e-002 -5.294504e-002 0.000000e+000
    outer loop
      vertex   -1.473937e+002 7.133162e+001 5.000000e+000
      vertex   -1.476589e+002 7.115691e+001 0.000000e+000
      vertex   -1.473937e+002 7.133162e+001 0.000000e+000
    endloop
  endfacet
  facet normal 6.075901e-001 -7.942508e-001 0.000000e+000
    outer loop
      vertex   -1.473937e+002 7.133162e+001 5.000000e+000
      vertex   -1.473937e+002 7.133162e+001 0.000000e+000
      vertex   -1.471414e+002 7.152460e+001 5.000000e+000
    endloop
  endfacet
  facet normal 3.851946e-002 -5.035322e-002 0.000000e+000
    outer loop
      vertex   -1.471414e+002 7.152460e+001 5.000000e+000
      vertex   -1.473937e+002 7.133162e+001 0.000000e+000
      vertex   -1.471414e+002 7.152460e+001 0.000000e+000
    endloop
  endfacet
  facet normal 6.621125e-001 -7.494045e-001 0.000000e+000
    outer loop
      vertex   -1.471414e+002 7.152460e+001 5.000000e+000
      vertex   -1.471414e+002 7.152460e+001 0.000000e+000
      vertex   -1.469034e+002 7.173490e+001 5.000000e+000
    endloop
  endfacet
  facet normal 4.197472e-002 -4.750861e-002 0.000000e+000
    outer loop
      vertex   -1.469034e+002 7.173490e+001 5.000000e+000
      vertex   -1.471414e+002 7.152460e+001 0.000000e+000
      vertex   -1.469034e+002 7.173490e+001 0.000000e+000
    endloop
  endfacet
  facet normal 7.133124e-001 -7.008462e-001 0.000000e+000
    outer loop
      vertex   -1.469034e+002 7.173490e+001 5.000000e+000
      vertex   -1.469034e+002 7.173490e+001 0.000000e+000
      vertex   -1.466808e+002 7.196147e+001 5.000000e+000
    endloop
  endfacet
  facet normal 4.522287e-002 -4.443253e-002 0.000000e+000
    outer loop
      vertex   -1.466808e+002 7.196147e+001 5.000000e+000
      vertex   -1.469034e+002 7.173490e+001 0.000000e+000
      vertex   -1.466808e+002 7.196147e+001 0.000000e+000
    endloop
  endfacet
  facet normal 7.610003e-001 -6.487515e-001 0.000000e+000
    outer loop
      vertex   -1.466808e+002 7.196147e+001 5.000000e+000
      vertex   -1.466808e+002 7.196147e+001 0.000000e+000
      vertex   -1.464747e+002 7.220318e+001 5.000000e+000
    endloop
  endfacet
  facet normal 4.824413e-002 -4.112804e-002 0.000000e+000
    outer loop
      vertex   -1.464747e+002 7.220318e+001 5.000000e+000
      vertex   -1.466808e+002 7.196147e+001 0.000000e+000
      vertex   -1.464747e+002 7.220318e+001 0.000000e+000
    endloop
  endfacet
  facet normal 8.048421e-001 -5.934891e-001 0.000000e+000
    outer loop
      vertex   -1.464747e+002 7.220318e+001 5.000000e+000
      vertex   -1.464747e+002 7.220318e+001 0.000000e+000
      vertex   -1.462862e+002 7.245882e+001 5.000000e+000
    endloop
  endfacet
  facet normal 5.102478e-002 -3.762557e-002 0.000000e+000
    outer loop
      vertex   -1.462862e+002 7.245882e+001 5.000000e+000
      vertex   -1.464747e+002 7.220318e+001 0.000000e+000
      vertex   -1.462862e+002 7.245882e+001 0.000000e+000
    endloop
  endfacet
  facet normal 8.447083e-001 -5.352269e-001 0.000000e+000
    outer loop
      vertex   -1.462862e+002 7.245882e+001 5.000000e+000
      vertex   -1.462862e+002 7.245882e+001 0.000000e+000
      vertex   -1.461162e+002 7.272711e+001 5.000000e+000
    endloop
  endfacet
  facet normal 5.355112e-002 -3.393124e-002 0.000000e+000
    outer loop
      vertex   -1.461162e+002 7.272711e+001 5.000000e+000
      vertex   -1.462862e+002 7.245882e+001 0.000000e+000
      vertex   -1.461162e+002 7.272711e+001 0.000000e+000
    endloop
  endfacet
  facet normal 8.803422e-001 -4.743390e-001 0.000000e+000
    outer loop
      vertex   -1.461162e+002 7.272711e+001 5.000000e+000
      vertex   -1.461162e+002 7.272711e+001 0.000000e+000
      vertex   -1.459655e+002 7.300674e+001 5.000000e+000
    endloop
  endfacet
  facet normal 5.581248e-002 -3.007244e-002 0.000000e+000
    outer loop
      vertex   -1.459655e+002 7.300674e+001 5.000000e+000
      vertex   -1.461162e+002 7.272711e+001 0.000000e+000
      vertex   -1.459655e+002 7.300674e+001 0.000000e+000
    endloop
  endfacet
  facet normal 9.116372e-001 -4.109958e-001 0.000000e+000
    outer loop
      vertex   -1.459655e+002 7.300674e+001 5.000000e+000
      vertex   -1.459655e+002 7.300674e+001 0.000000e+000
      vertex   -1.458350e+002 7.329629e+001 5.000000e+000
    endloop
  endfacet
  facet normal 5.779367e-002 -2.605527e-002 0.000000e+000
    outer loop
      vertex   -1.458350e+002 7.329629e+001 5.000000e+000
      vertex   -1.459655e+002 7.300674e+001 0.000000e+000
      vertex   -1.458350e+002 7.329629e+001 0.000000e+000
    endloop
  endfacet
  facet normal 9.383276e-001 -3.457476e-001 0.000000e+000
    outer loop
      vertex   -1.458350e+002 7.329629e+001 5.000000e+000
      vertex   -1.458350e+002 7.329629e+001 0.000000e+000
      vertex   -1.457252e+002 7.359432e+001 5.000000e+000
    endloop
  endfacet
  facet normal 5.948703e-002 -2.191932e-002 0.000000e+000
    outer loop
      vertex   -1.457252e+002 7.359432e+001 5.000000e+000
      vertex   -1.458350e+002 7.329629e+001 0.000000e+000
      vertex   -1.457252e+002 7.359432e+001 0.000000e+000
    endloop
  endfacet
  facet normal 9.603975e-001 -2.786337e-001 0.000000e+000
    outer loop
      vertex   -1.457252e+002 7.359432e+001 5.000000e+000
      vertex   -1.457252e+002 7.359432e+001 0.000000e+000
      vertex   -1.456367e+002 7.389937e+001 5.000000e+000
    endloop
  endfacet
  facet normal 6.088649e-002 -1.766459e-002 0.000000e+000
    outer loop
      vertex   -1.456367e+002 7.389937e+001 5.000000e+000
      vertex   -1.457252e+002 7.359432e+001 0.000000e+000
      vertex   -1.456367e+002 7.389937e+001 0.000000e+000
    endloop
  endfacet
  facet normal 9.776528e-001 -2.102262e-001 0.000000e+000
    outer loop
      vertex   -1.456367e+002 7.389937e+001 5.000000e+000
      vertex   -1.456367e+002 7.389937e+001 0.000000e+000
      vertex   -1.455699e+002 7.420989e+001 5.000000e+000
    endloop
  endfacet
  facet normal 6.197987e-002 -1.332763e-002 0.000000e+000
    outer loop
      vertex   -1.455699e+002 7.420989e+001 5.000000e+000
      vertex   -1.456367e+002 7.389937e+001 0.000000e+000
      vertex   -1.455699e+002 7.420989e+001 0.000000e+000
    endloop
  endfacet
  facet normal 9.900506e-001 -1.407118e-001 0.000000e+000
    outer loop
      vertex   -1.455699e+002 7.420989e+001 5.000000e+000
      vertex   -1.455699e+002 7.420989e+001 0.000000e+000
      vertex   -1.455252e+002 7.452435e+001 5.000000e+000
    endloop
  endfacet
  facet normal 6.276564e-002 -8.920618e-003 0.000000e+000
    outer loop
      vertex   -1.455252e+002 7.452435e+001 5.000000e+000
      vertex   -1.455699e+002 7.420989e+001 0.000000e+000
      vertex   -1.455252e+002 7.452435e+001 0.000000e+000
    endloop
  endfacet
  facet normal 9.975101e-001 -7.052325e-002 0.000000e+000
    outer loop
      vertex   -1.455252e+002 7.452435e+001 5.000000e+000
      vertex   -1.455252e+002 7.452435e+001 0.000000e+000
      vertex   -1.455028e+002 7.484119e+001 5.000000e+000
    endloop
  endfacet
  facet normal 6.323923e-002 -4.470969e-003 0.000000e+000
    outer loop
      vertex   -1.455028e+002 7.484119e+001 5.000000e+000
      vertex   -1.455252e+002 7.452435e+001 0.000000e+000
      vertex   -1.455028e+002 7.484119e+001 0.000000e+000
    endloop
  endfacet
  facet normal 1.000000e+000 -0.000000e+000 0.000000e+000
    outer loop
      vertex   -1.455028e+002 7.484119e+001 5.000000e+000
      vertex   -1.455028e+002 7.484119e+001 0.000000e+000
      vertex   -1.455028e+002 7.515881e+001 5.000000e+000
    endloop
  endfacet
  facet normal 6.339760e-002 0.000000e+000 0.000000e+000
    outer loop
      vertex   -1.455028e+002 7.515881e+001 5.000000e+000
      vertex   -1.455028e+002 7.484119e+001 0.000000e+000
      vertex   -1.455028e+002 7.515881e+001 0.000000e+000
    endloop
  endfacet
  facet normal 9.975101e-001 7.052325e-002 0.000000e+000
    outer loop
      vertex   -1.455028e+002 7.515881e+001 5.000000e+000
      vertex   -1.455028e+002 7.515881e+001 0.000000e+000
      vertex   -1.455252e+002 7.547565e+001 5.000000e+000
    endloop
  endfacet
  facet normal 6.323923e-002 4.470969e-003 0.000000e+000
    outer loop
      vertex   -1.455252e+002 7.547565e+001 5.000000e+000
      vertex   -1.455028e+002 7.515881e+001 0.000000e+000
      vertex   -1.455252e+002 7.547565e+001 0.000000e+000
    endloop
  endfacet
  facet normal 9.900506e-001 1.407118e-001 0.000000e+000
    outer loop
      vertex   -1.455252e+002 7.547565e+001 5.000000e+000
      vertex   -1.455252e+002 7.547565e+001 0.000000e+000
      vertex   -1.455699e+002 7.579011e+001 5.000000e+000
    endloop
  endfacet
  facet normal 6.276564e-002 8.920618e-003 0.000000e+000
    outer loop
      vertex   -1.455699e+002 7.579011e+001 5.000000e+000
      vertex   -1.455252e+002 7.547565e+001 0.000000e+000
      vertex   -1.455699e+002 7.579011e+001 0.000000e+000
    endloop
  endfacet
  facet normal 9.776528e-001 2.102262e-001 0.000000e+000
    outer loop
      vertex   -1.455699e+002 7.579011e+001 5.000000e+000
      vertex   -1.455699e+002 7.579011e+001 0.000000e+000
      vertex   -1.456367e+002 7.610063e+001 5.000000e+000
    endloop
  endfacet
  facet normal 6.197987e-002 1.332763e-002 0.000000e+000
    outer loop
      vertex   -1.456367e+002 7.610063e+001 5.000000e+000
      vertex   -1.455699e+002 7.579011e+001 0.000000e+000
      vertex   -1.456367e+002 7.610063e+001 0.000000e+000
    endloop
  endfacet
  facet normal 9.603975e-001 2.786337e-001 0.000000e+000
    outer loop
      vertex   -1.456367e+002 7.610063e+001 5.000000e+000
      vertex   -1.456367e+002 7.610063e+001 0.000000e+000
      vertex   -1.457252e+002 7.640568e+001 5.000000e+000
    endloop
  endfacet
  facet normal 6.088649e-002 1.766459e-002 0.000000e+000
    outer loop
      vertex   -1.457252e+002 7.640568e+001 5.000000e+000
      vertex   -1.456367e+002 7.610063e+001 0.000000e+000
      vertex   -1.457252e+002 7.640568e+001 0.000000e+000
    endloop
  endfacet
  facet normal 9.383276e-001 3.457476e-001 0.000000e+000
    outer loop
      vertex   -1.457252e+002 7.640568e+001 5.000000e+000
      vertex   -1.457252e+002 7.640568e+001 0.000000e+000
      vertex   -1.458350e+002 7.670371e+001 5.000000e+000
    endloop
  endfacet
  facet normal 5.948703e-002 2.191932e-002 0.000000e+000
    outer loop
      vertex   -1.458350e+002 7.670371e+001 5.000000e+000
      vertex   -1.457252e+002 7.640568e+001 0.000000e+000
      vertex   -1.458350e+002 7.670371e+001 0.000000e+000
    endloop
  endfacet
  facet normal 9.116372e-001 4.109958e-001 0.000000e+000
    outer loop
      vertex   -1.458350e+002 7.670371e+001 5.000000e+000
      vertex   -1.458350e+002 7.670371e+001 0.000000e+000
      vertex   -1.459655e+002 7.699326e+001 5.000000e+000
    endloop
  endfacet
  facet normal 5.779367e-002 2.605527e-002 0.000000e+000
    outer loop
      vertex   -1.459655e+002 7.699326e+001 5.000000e+000
      vertex   -1.458350e+002 7.670371e+001 0.000000e+000
      vertex   -1.459655e+002 7.699326e+001 0.000000e+000
    endloop
  endfacet
  facet normal 8.803422e-001 4.743390e-001 0.000000e+000
    outer loop
      vertex   -1.459655e+002 7.699326e+001 5.000000e+000
      vertex   -1.459655e+002 7.699326e+001 0.000000e+000
      vertex   -1.461162e+002 7.727289e+001 5.000000e+000
    endloop
  endfacet
  facet normal 5.581248e-002 3.007244e-002 0.000000e+000
    outer loop
      vertex   -1.461162e+002 7.727289e+001 5.000000e+000
      vertex   -1.459655e+002 7.699326e+001 0.000000e+000
      vertex   -1.461162e+002 7.727289e+001 0.000000e+000
    endloop
  endfacet
  facet normal 8.447083e-001 5.352269e-001 0.000000e+000
    outer loop
      vertex   -1.461162e+002 7.727289e+001 5.000000e+000
      vertex   -1.461162e+002 7.727289e+001 0.000000e+000
      vertex   -1.462862e+002 7.754118e+001 5.000000e+000
    endloop
  endfacet
  facet normal 5.355112e-002 3.393124e-002 0.000000e+000
    outer loop
      vertex   -1.462862e+002 7.754118e+001 5.000000e+000
      vertex   -1.461162e+002 7.727289e+001 0.000000e+000
      vertex   -1.462862e+002 7.754118e+001 0.000000e+000
    endloop
  endfacet
  facet normal 8.048421e-001 5.934891e-001 0.000000e+000
    outer loop
      vertex   -1.462862e+002 7.754118e+001 5.000000e+000
      vertex   -1.462862e+002 7.754118e+001 0.000000e+000
      vertex   -1.464747e+002 7.779682e+001 5.000000e+000
    endloop
  endfacet
  facet normal 5.102478e-002 3.762557e-002 0.000000e+000
    outer loop
      vertex   -1.464747e+002 7.779682e+001 5.000000e+000
      vertex   -1.462862e+002 7.754118e+001 0.000000e+000
      vertex   -1.464747e+002 7.779682e+001 0.000000e+000
    endloop
  endfacet
  facet normal 7.610003e-001 6.487515e-001 0.000000e+000
    outer loop
      vertex   -1.464747e+002 7.779682e+001 5.000000e+000
      vertex   -1.464747e+002 7.779682e+001 0.000000e+000
      vertex   -1.466808e+002 7.803853e+001 5.000000e+000
    endloop
  endfacet
  facet normal 4.824413e-002 4.112804e-002 0.000000e+000
    outer loop
      vertex   -1.466808e+002 7.803853e+001 5.000000e+000
      vertex   -1.464747e+002 7.779682e+001 0.000000e+000
      vertex   -1.466808e+002 7.803853e+001 0.000000e+000
    endloop
  endfacet
  facet normal 7.133124e-001 7.008462e-001 0.000000e+000
    outer loop
      vertex   -1.466808e+002 7.803853e+001 5.000000e+000
      vertex   -1.466808e+002 7.803853e+001 0.000000e+000
      vertex   -1.469034e+002 7.826510e+001 5.000000e+000
    endloop
  endfacet
  facet normal 4.522287e-002 4.443253e-002 0.000000e+000
    outer loop
      vertex   -1.469034e+002 7.826510e+001 5.000000e+000
      vertex   -1.466808e+002 7.803853e+001 0.000000e+000
      vertex   -1.469034e+002 7.826510e+001 0.000000e+000
    endloop
  endfacet
  facet normal 6.621125e-001 7.494045e-001 0.000000e+000
    outer loop
      vertex   -1.469034e+002 7.826510e+001 5.000000e+000
      vertex   -1.469034e+002 7.826510e+001 0.000000e+000
      vertex   -1.471414e+002 7.847540e+001 5.000000e+000
    endloop
  endfacet
  facet normal 4.197472e-002 4.750861e-002 0.000000e+000
    outer loop
      vertex   -1.471414e+002 7.847540e+001 5.000000e+000
      vertex   -1.469034e+002 7.826510e+001 0.000000e+000
      vertex   -1.471414e+002 7.847540e+001 0.000000e+000
    endloop
  endfacet
  facet normal 6.075901e-001 7.942508e-001 0.000000e+000
    outer loop
      vertex   -1.471414e+002 7.847540e+001 5.000000e+000
      vertex   -1.471414e+002 7.847540e+001 0.000000e+000
      vertex   -1.473937e+002 7.866838e+001 5.000000e+000
    endloop
  endfacet
  facet normal 3.851946e-002 5.035322e-002 0.000000e+000
    outer loop
      vertex   -1.473937e+002 7.866838e+001 5.000000e+000
      vertex   -1.471414e+002 7.847540e+001 0.000000e+000
      vertex   -1.473937e+002 7.866838e+001 0.000000e+000
    endloop
  endfacet
  facet normal 5.500576e-001 8.351268e-001 0.000000e+000
    outer loop
      vertex   -1.473937e+002 7.866838e+001 5.000000e+000
      vertex   -1.473937e+002 7.866838e+001 0.000000e+000
      vertex   -1.476589e+002 7.884309e+001 5.000000e+000
    endloop
  endfacet
  facet normal 3.487233e-002 5.294504e-002 0.000000e+000
    outer loop
      vertex   -1.476589e+002 7.884309e+001 5.000000e+000
      vertex   -1.473937e+002 7.866838e+001 0.000000e+000
      vertex   -1.476589e+002 7.884309e+001 0.000000e+000
    endloop
  endfacet
  facet normal 4.897776e-001 8.718474e-001 0.000000e+000
    outer loop
      vertex   -1.476589e+002 7.884309e+001 5.000000e+000
      vertex   -1.476589e+002 7.884309e+001 0.000000e+000
      vertex   -1.479358e+002 7.899866e+001 5.000000e+000
    endloop
  endfacet
  facet normal 3.105009e-002 5.527189e-002 0.000000e+000
    outer loop
      vertex   -1.479358e+002 7.899866e+001 5.000000e+000
      vertex   -1.476589e+002 7.884309e+001 0.000000e+000
      vertex   -1.479358e+002 7.899866e+001 0.000000e+000
    endloop
  endfacet
  facet normal 4.270587e-001 9.042239e-001 0.000000e+000
    outer loop
      vertex   -1.479358e+002 7.899866e+001 5.000000e+000
      vertex   -1.479358e+002 7.899866e+001 0.000000e+000
      vertex   -1.482230e+002 7.913430e+001 5.000000e+000
    endloop
  endfacet
  facet normal 2.707403e-002 5.732464e-002 0.000000e+000
    outer loop
      vertex   -1.482230e+002 7.913430e+001 5.000000e+000
      vertex   -1.479358e+002 7.899866e+001 0.000000e+000
      vertex   -1.482230e+002 7.913430e+001 0.000000e+000
    endloop
  endfacet
  facet normal 3.621912e-001 9.321038e-001 0.000000e+000
    outer loop
      vertex   -1.482230e+002 7.913430e+001 5.000000e+000
      vertex   -1.482230e+002 7.913430e+001 0.000000e+000
      vertex   -1.485191e+002 7.924934e+001 5.000000e+000
    endloop
  endfacet
  facet normal 2.296244e-002 5.909413e-002 0.000000e+000
    outer loop
      vertex   -1.485191e+002 7.924934e+001 5.000000e+000
      vertex   -1.482230e+002 7.913430e+001 0.000000e+000
      vertex   -1.485191e+002 7.924934e+001 0.000000e+000
    endloop
  endfacet
  facet normal 2.955658e-001 9.553224e-001 0.000000e+000
    outer loop
      vertex   -1.485191e+002 7.924934e+001 5.000000e+000
      vertex   -1.485191e+002 7.924934e+001 0.000000e+000
      vertex   -1.488225e+002 7.934322e+001 5.000000e+000
    endloop
  endfacet
  facet normal 1.873817e-002 6.056517e-002 0.000000e+000
    outer loop
      vertex   -1.488225e+002 7.934322e+001 5.000000e+000
      vertex   -1.485191e+002 7.924934e+001 0.000000e+000
      vertex   -1.488225e+002 7.934322e+001 0.000000e+000
    endloop
  endfacet
  facet normal 2.274270e-001 9.737951e-001 0.000000e+000
    outer loop
      vertex   -1.488225e+002 7.934322e+001 5.000000e+000
      vertex   -1.488225e+002 7.934322e+001 0.000000e+000
      vertex   -1.491318e+002 7.941546e+001 5.000000e+000
    endloop
  endfacet
  facet normal 1.441796e-002 6.173470e-002 0.000000e+000
    outer loop
      vertex   -1.491318e+002 7.941546e+001 5.000000e+000
      vertex   -1.488225e+002 7.934322e+001 0.000000e+000
      vertex   -1.491318e+002 7.941546e+001 0.000000e+000
    endloop
  endfacet
  facet normal 1.581788e-001 9.874105e-001 0.000000e+000
    outer loop
      vertex   -1.491318e+002 7.941546e+001 5.000000e+000
      vertex   -1.491318e+002 7.941546e+001 0.000000e+000
      vertex   -1.494454e+002 7.946570e+001 5.000000e+000
    endloop
  endfacet
  facet normal 1.002770e-002 6.259661e-002 0.000000e+000
    outer loop
      vertex   -1.494454e+002 7.946570e+001 5.000000e+000
      vertex   -1.491318e+002 7.941546e+001 0.000000e+000
      vertex   -1.494454e+002 7.946570e+001 0.000000e+000
    endloop
  endfacet
  facet normal 8.812935e-002 9.961091e-001 0.000000e+000
    outer loop
      vertex   -1.494454e+002 7.946570e+001 5.000000e+000
      vertex   -1.494454e+002 7.946570e+001 0.000000e+000
      vertex   -1.497618e+002 7.949369e+001 5.000000e+000
    endloop
  endfacet
  facet normal 5.587188e-003 6.315091e-002 0.000000e+000
    outer loop
      vertex   -1.497618e+002 7.949369e+001 5.000000e+000
      vertex   -1.494454e+002 7.946570e+001 0.000000e+000
      vertex   -1.497618e+002 7.949369e+001 0.000000e+000
    endloop
  endfacet
  facet normal 1.765448e-002 9.998441e-001 0.000000e+000
    outer loop
      vertex   -1.497618e+002 7.949369e+001 5.000000e+000
      vertex   -1.497618e+002 7.949369e+001 0.000000e+000
      vertex   -1.500794e+002 7.949930e+001 5.000000e+000
    endloop
  endfacet
  facet normal 1.119265e-003 6.338846e-002 0.000000e+000
    outer loop
      vertex   -1.500794e+002 7.949930e+001 5.000000e+000
      vertex   -1.497618e+002 7.949369e+001 0.000000e+000
      vertex   -1.500794e+002 7.949930e+001 0.000000e+000
    endloop
  endfacet
  facet normal -5.291815e-002 9.985989e-001 0.000000e+000
    outer loop
      vertex   -1.500794e+002 7.949930e+001 5.000000e+000
      vertex   -1.500794e+002 7.949930e+001 0.000000e+000
      vertex   -1.503966e+002 7.948249e+001 5.000000e+000
    endloop
  endfacet
  facet normal -3.354750e-003 6.330624e-002 0.000000e+000
    outer loop
      vertex   -1.503966e+002 7.948249e+001 5.000000e+000
      vertex   -1.500794e+002 7.949930e+001 0.000000e+000
      vertex   -1.503966e+002 7.948249e+001 0.000000e+000
    endloop
  endfacet
  facet normal -1.232247e-001 9.923788e-001 0.000000e+000
    outer loop
      vertex   -1.503966e+002 7.948249e+001 5.000000e+000
      vertex   -1.503966e+002 7.948249e+001 0.000000e+000
      vertex   -1.507118e+002 7.944335e+001 5.000000e+000
    endloop
  endfacet
  facet normal -7.812012e-003 6.291335e-002 0.000000e+000
    outer loop
      vertex   -1.507118e+002 7.944335e+001 5.000000e+000
      vertex   -1.503966e+002 7.948249e+001 0.000000e+000
      vertex   -1.507118e+002 7.944335e+001 0.000000e+000
    endloop
  endfacet
  facet normal -1.929278e-001 9.812130e-001 0.000000e+000
    outer loop
      vertex   -1.507118e+002 7.944335e+001 5.000000e+000
      vertex   -1.507118e+002 7.944335e+001 0.000000e+000
      vertex   -1.510235e+002 7.938207e+001 5.000000e+000
    endloop
  endfacet
  facet normal -1.223120e-002 6.220676e-002 0.000000e+000
    outer loop
      vertex   -1.510235e+002 7.938207e+001 5.000000e+000
      vertex   -1.507118e+002 7.944335e+001 0.000000e+000
      vertex   -1.510235e+002 7.938207e+001 0.000000e+000
    endloop
  endfacet
  facet normal -2.616700e-001 9.651574e-001 0.000000e+000
    outer loop
      vertex   -1.510235e+002 7.938207e+001 5.000000e+000
      vertex   -1.510235e+002 7.938207e+001 0.000000e+000
      vertex   -1.513300e+002 7.929896e+001 5.000000e+000
    endloop
  endfacet
  facet normal -1.658949e-002 6.118952e-002 0.000000e+000
    outer loop
      vertex   -1.513300e+002 7.929896e+001 5.000000e+000
      vertex   -1.510235e+002 7.938207e+001 0.000000e+000
      vertex   -1.513300e+002 7.929896e+001 0.000000e+000
    endloop
  endfacet
  facet normal -3.290833e-001 9.443009e-001 0.000000e+000
    outer loop
      vertex   -1.513300e+002 7.929896e+001 5.000000e+000
      vertex   -1.513300e+002 7.929896e+001 0.000000e+000
      vertex   -1.516299e+002 7.919444e+001 5.000000e+000
    endloop
  endfacet
  facet normal -2.086249e-002 5.986469e-002 0.000000e+000
    outer loop
      vertex   -1.516299e+002 7.919444e+001 5.000000e+000
      vertex   -1.513300e+002 7.929896e+001 0.000000e+000
      vertex   -1.516299e+002 7.919444e+001 0.000000e+000
    endloop
  endfacet
  facet normal -3.948729e-001 9.187358e-001 0.000000e+000
    outer loop
      vertex   -1.516299e+002 7.919444e+001 5.000000e+000
      vertex   -1.516299e+002 7.919444e+001 0.000000e+000
      vertex   -1.519218e+002 7.906902e+001 5.000000e+000
    endloop
  endfacet
  facet normal -2.503346e-002 5.824442e-002 0.000000e+000
    outer loop
      vertex   -1.519218e+002 7.906902e+001 5.000000e+000
      vertex   -1.516299e+002 7.919444e+001 0.000000e+000
      vertex   -1.519218e+002 7.906902e+001 0.000000e+000
    endloop
  endfacet
  facet normal -4.587059e-001 8.885881e-001 0.000000e+000
    outer loop
      vertex   -1.519218e+002 7.906902e+001 5.000000e+000
      vertex   -1.519218e+002 7.906902e+001 0.000000e+000
      vertex   -1.522040e+002 7.892332e+001 5.000000e+000
    endloop
  endfacet
  facet normal -2.908109e-002 5.633481e-002 0.000000e+000
    outer loop
      vertex   -1.522040e+002 7.892332e+001 5.000000e+000
      vertex   -1.519218e+002 7.906902e+001 0.000000e+000
      vertex   -1.522040e+002 7.892332e+001 0.000000e+000
    endloop
  endfacet
  facet normal -5.202349e-001 8.540232e-001 0.000000e+000
    outer loop
      vertex   -1.522040e+002 7.892332e+001 5.000000e+000
      vertex   -1.522040e+002 7.892332e+001 0.000000e+000
      vertex   -1.524753e+002 7.875808e+001 5.000000e+000
    endloop
  endfacet
  facet normal -3.298101e-002 5.414197e-002 0.000000e+000
    outer loop
      vertex   -1.524753e+002 7.875808e+001 5.000000e+000
      vertex   -1.522040e+002 7.892332e+001 0.000000e+000
      vertex   -1.524753e+002 7.875808e+001 0.000000e+000
    endloop
  endfacet
  facet normal -5.791937e-001 8.151900e-001 0.000000e+000
    outer loop
      vertex   -1.524753e+002 7.875808e+001 5.000000e+000
      vertex   -1.524753e+002 7.875808e+001 0.000000e+000
      vertex   -1.527342e+002 7.857411e+001 5.000000e+000
    endloop
  endfacet
  facet normal -3.671950e-002 5.168111e-002 0.000000e+000
    outer loop
      vertex   -1.527342e+002 7.857411e+001 5.000000e+000
      vertex   -1.524753e+002 7.875808e+001 0.000000e+000
      vertex   -1.527342e+002 7.857411e+001 0.000000e+000
    endloop
  endfacet
  facet normal -6.352474e-001 7.723087e-001 0.000000e+000
    outer loop
      vertex   -1.527342e+002 7.857411e+001 5.000000e+000
      vertex   -1.527342e+002 7.857411e+001 0.000000e+000
      vertex   -1.529795e+002 7.837234e+001 5.000000e+000
    endloop
  endfacet
  facet normal -4.027222e-002 4.896137e-002 0.000000e+000
    outer loop
      vertex   -1.529795e+002 7.837234e+001 5.000000e+000
      vertex   -1.527342e+002 7.857411e+001 0.000000e+000
      vertex   -1.529795e+002 7.837234e+001 0.000000e+000
    endloop
  endfacet
  facet normal -6.881469e-001 7.255713e-001 0.000000e+000
    outer loop
      vertex   -1.529795e+002 7.837234e+001 5.000000e+000
      vertex   -1.529795e+002 7.837234e+001 0.000000e+000
      vertex   -1.532099e+002 7.815378e+001 5.000000e+000
    endloop
  endfacet
  facet normal -4.362545e-002 4.599798e-002 0.000000e+000
    outer loop
      vertex   -1.532099e+002 7.815378e+001 5.000000e+000
      vertex   -1.529795e+002 7.837234e+001 0.000000e+000
      vertex   -1.532099e+002 7.815378e+001 0.000000e+000
    endloop
  endfacet
  facet normal -7.375967e-001 6.752415e-001 0.000000e+000
    outer loop
      vertex   -1.532099e+002 7.815378e+001 5.000000e+000
      vertex   -1.532099e+002 7.815378e+001 0.000000e+000
      vertex   -1.534244e+002 7.791949e+001 5.000000e+000
    endloop
  endfacet
  facet normal -4.676243e-002 4.280921e-002 0.000000e+000
    outer loop
      vertex   -1.534244e+002 7.791949e+001 5.000000e+000
      vertex   -1.532099e+002 7.815378e+001 0.000000e+000
      vertex   -1.534244e+002 7.791949e+001 0.000000e+000
    endloop
  endfacet
  facet normal -7.834073e-001 6.215086e-001 0.000000e+000
    outer loop
      vertex   -1.534244e+002 7.791949e+001 5.000000e+000
      vertex   -1.534244e+002 7.791949e+001 0.000000e+000
      vertex   -1.536218e+002 7.767067e+001 5.000000e+000
    endloop
  endfacet
  facet normal -4.966491e-002 3.940117e-002 0.000000e+000
    outer loop
      vertex   -1.536218e+002 7.767067e+001 5.000000e+000
      vertex   -1.534244e+002 7.791949e+001 0.000000e+000
      vertex   -1.536218e+002 7.767067e+001 0.000000e+000
    endloop
  endfacet
  facet normal -8.252860e-001 5.647149e-001 0.000000e+000
    outer loop
      vertex   -1.536218e+002 7.767067e+001 5.000000e+000
      vertex   -1.536218e+002 7.767067e+001 0.000000e+000
      vertex   -1.538012e+002 7.740854e+001 5.000000e+000
    endloop
  endfacet
  facet normal -5.232069e-002 3.580125e-002 0.000000e+000
    outer loop
      vertex   -1.538012e+002 7.740854e+001 5.000000e+000
      vertex   -1.536218e+002 7.767067e+001 0.000000e+000
      vertex   -1.538012e+002 7.740854e+001 0.000000e+000
    endloop
  endfacet
  facet normal -8.630645e-001 5.050937e-001 0.000000e+000
    outer loop
      vertex   -1.538012e+002 7.740854e+001 5.000000e+000
      vertex   -1.538012e+002 7.740854e+001 0.000000e+000
      vertex   -1.539616e+002 7.713441e+001 5.000000e+000
    endloop
  endfacet
  facet normal -5.471607e-002 3.202163e-002 0.000000e+000
    outer loop
      vertex   -1.539616e+002 7.713441e+001 5.000000e+000
      vertex   -1.538012e+002 7.740854e+001 0.000000e+000
      vertex   -1.539616e+002 7.713441e+001 0.000000e+000
    endloop
  endfacet
  facet normal -8.965548e-001 4.429329e-001 0.000000e+000
    outer loop
      vertex   -1.539616e+002 7.713441e+001 5.000000e+000
      vertex   -1.539616e+002 7.713441e+001 0.000000e+000
      vertex   -1.541023e+002 7.684964e+001 5.000000e+000
    endloop
  endfacet
  facet normal -5.683886e-002 2.808060e-002 0.000000e+000
    outer loop
      vertex   -1.541023e+002 7.684964e+001 5.000000e+000
      vertex   -1.539616e+002 7.713441e+001 0.000000e+000
      vertex   -1.541023e+002 7.684964e+001 0.000000e+000
    endloop
  endfacet
  facet normal -9.255561e-001 3.786104e-001 0.000000e+000
    outer loop
      vertex   -1.541023e+002 7.684964e+001 5.000000e+000
      vertex   -1.541023e+002 7.684964e+001 0.000000e+000
      vertex   -1.542225e+002 7.655566e+001 5.000000e+000
    endloop
  endfacet
  facet normal -5.867689e-002 2.400252e-002 0.000000e+000
    outer loop
      vertex   -1.542225e+002 7.655566e+001 5.000000e+000
      vertex   -1.541023e+002 7.684964e+001 0.000000e+000
      vertex   -1.542225e+002 7.655566e+001 0.000000e+000
    endloop
  endfacet
  facet normal -9.499629e-001 3.123626e-001 0.000000e+000
    outer loop
      vertex   -1.542225e+002 7.655566e+001 5.000000e+000
      vertex   -1.542225e+002 7.655566e+001 0.000000e+000
      vertex   -1.543218e+002 7.625394e+001 5.000000e+000
    endloop
  endfacet
  facet normal -6.022407e-002 1.980262e-002 0.000000e+000
    outer loop
      vertex   -1.543218e+002 7.625394e+001 5.000000e+000
      vertex   -1.542225e+002 7.655566e+001 0.000000e+000
      vertex   -1.543218e+002 7.625394e+001 0.000000e+000
    endloop
  endfacet
  facet normal -9.696303e-001 2.445754e-001 0.000000e+000
    outer loop
      vertex   -1.543218e+002 7.625394e+001 5.000000e+000
      vertex   -1.543218e+002 7.625394e+001 0.000000e+000
      vertex   -1.543994e+002 7.594596e+001 5.000000e+000
    endloop
  endfacet
  facet normal -6.147125e-002 1.550525e-002 0.000000e+000
    outer loop
      vertex   -1.543994e+002 7.594596e+001 5.000000e+000
      vertex   -1.543218e+002 7.625394e+001 0.000000e+000
      vertex   -1.543994e+002 7.594596e+001 0.000000e+000
    endloop
  endfacet
  facet normal -9.844639e-001 1.755870e-001 0.000000e+000
    outer loop
      vertex   -1.543994e+002 7.594596e+001 5.000000e+000
      vertex   -1.543994e+002 7.594596e+001 0.000000e+000
      vertex   -1.544552e+002 7.563327e+001 5.000000e+000
    endloop
  endfacet
  facet normal -6.241234e-002 1.113174e-002 0.000000e+000
    outer loop
      vertex   -1.544552e+002 7.563327e+001 5.000000e+000
      vertex   -1.543994e+002 7.594596e+001 0.000000e+000
      vertex   -1.544552e+002 7.563327e+001 0.000000e+000
    endloop
  endfacet
  facet normal -9.943991e-001 1.056900e-001 0.000000e+000
    outer loop
      vertex   -1.544552e+002 7.563327e+001 5.000000e+000
      vertex   -1.544552e+002 7.563327e+001 0.000000e+000
      vertex   -1.544888e+002 7.531743e+001 5.000000e+000
    endloop
  endfacet
  facet normal -6.304127e-002 6.700362e-003 0.000000e+000
    outer loop
      vertex   -1.544888e+002 7.531743e+001 5.000000e+000
      vertex   -1.544552e+002 7.563327e+001 0.000000e+000
      vertex   -1.544888e+002 7.531743e+001 0.000000e+000
    endloop
  endfacet
  facet normal 0.000000e+000 -0.000000e+000 9.998440e-001
    outer loop
      vertex   -1.544888e+002 7.468257e+001 5.000000e+000
      vertex   -1.455028e+002 7.484119e+001 5.000000e+000
      vertex   -1.545000e+002 7.500000e+001 5.000000e+000
    endloop
  endfacet
  facet normal -0.000000e+000 0.000000e+000 3.529190e-002
    outer loop
      vertex   -1.545000e+002 7.500000e+001 5.000000e+000
      vertex   -1.455028e+002 7.484119e+001 5.000000e+000
      vertex   -1.455028e+002 7.515881e+001 5.000000e+000
    endloop
  endfacet
  facet normal 0.000000e+000 0.000000e+000 9.985976e-001
    outer loop
      vertex   -1.545000e+002 7.500000e+001 5.000000e+000
      vertex   -1.455028e+002 7.515881e+001 5.000000e+000
      vertex   -1.544888e+002 7.531743e+001 5.000000e+000
    endloop
  endfacet
  facet normal -0.000000e+000 0.000000e+000 3.529166e-002
    outer loop
      vertex   -1.544888e+002 7.531743e+001 5.000000e+000
      vertex   -1.455028e+002 7.515881e+001 5.000000e+000
      vertex   -1.455252e+002 7.547565e+001 5.000000e+000
    endloop
  endfacet
  facet normal 0.000000e+000 0.000000e+000 9.923790e-001
    outer loop
      vertex   -1.544888e+002 7.531743e+001 5.000000e+000
      vertex   -1.455252e+002 7.547565e+001 5.000000e+000
      vertex   -1.544552e+002 7.563327e+001 5.000000e+000
    endloop
  endfacet
  facet normal -0.000000e+000 0.000000e+000 3.529128e-002
    outer loop
      vertex   -1.544552e+002 7.563327e+001 5.000000e+000
      vertex   -1.455252e+002 7.547565e+001 5.000000e+000
      vertex   -1.455699e+002 7.579011e+001 5.000000e+000
    endloop
  endfacet
  facet normal 0.000000e+000 0.000000e+000 9.812117e-001
    outer loop
      vertex   -1.544552e+002 7.563327e+001 5.000000e+000
      vertex   -1.455699e+002 7.579011e+001 5.000000e+000
      vertex   -1.543994e+002 7.594596e+001 5.000000e+000
    endloop
  endfacet
  facet normal -0.000000e+000 0.000000e+000 3.529123e-002
    outer loop
      vertex   -1.543994e+002 7.594596e+001 5.000000e+000
      vertex   -1.455699e+002 7.579011e+001 5.000000e+000
      vertex   -1.456367e+002 7.610063e+001 5.000000e+000
    endloop
  endfacet
  facet normal 0.000000e+000 0.000000e+000 9.651630e-001
    outer loop
      vertex   -1.543994e+002 7.594596e+001 5.000000e+000
      vertex   -1.456367e+002 7.610063e+001 5.000000e+000
      vertex   -1.543218e+002 7.625394e+001 5.000000e+000
    endloop
  endfacet
  facet normal -0.000000e+000 0.000000e+000 3.529184e-002
    outer loop
      vertex   -1.543218e+002 7.625394e+001 5.000000e+000
      vertex   -1.456367e+002 7.610063e+001 5.000000e+000
      vertex   -1.457252e+002 7.640568e+001 5.000000e+000
    endloop
  endfacet
  facet normal 0.000000e+000 0.000000e+000 9.443022e-001
    outer loop
      vertex   -1.543218e+002 7.625394e+001 5.000000e+000
      vertex   -1.457252e+002 7.640568e+001 5.000000e+000
      vertex   -1.542225e+002 7.655566e+001 5.000000e+000
    endloop
  endfacet
  facet normal -0.000000e+000 0.000000e+000 3.529085e-002
    outer loop
      vertex   -1.542225e+002 7.655566e+001 5.000000e+000
      vertex   -1.457252e+002 7.640568e+001 5.000000e+000
      vertex   -1.458350e+002 7.670371e+001 5.000000e+000
    endloop
  endfacet
  facet normal 0.000000e+000 0.000000e+000 9.187302e-001
    outer loop
      vertex   -1.542225e+002 7.655566e+001 5.000000e+000
      vertex   -1.458350e+002 7.670371e+001 5.000000e+000
      vertex   -1.541023e+002 7.684964e+001 5.000000e+000
    endloop
  endfacet
  facet normal -0.000000e+000 0.000000e+000 3.529132e-002
    outer loop
      vertex   -1.541023e+002 7.684964e+001 5.000000e+000
      vertex   -1.458350e+002 7.670371e+001 5.000000e+000
      vertex   -1.459655e+002 7.699326e+001 5.000000e+000
    endloop
  endfacet
  facet normal 0.000000e+000 0.000000e+000 8.885981e-001
    outer loop
      vertex   -1.541023e+002 7.684964e+001 5.000000e+000
      vertex   -1.459655e+002 7.699326e+001 5.000000e+000
      vertex   -1.539616e+002 7.713441e+001 5.000000e+000
    endloop
  endfacet
  facet normal -0.000000e+000 0.000000e+000 3.529185e-002
    outer loop
      vertex   -1.539616e+002 7.713441e+001 5.000000e+000
      vertex   -1.459655e+002 7.699326e+001 5.000000e+000
      vertex   -1.461162e+002 7.727289e+001 5.000000e+000
    endloop
  endfacet
  facet normal 0.000000e+000 0.000000e+000 8.540159e-001
    outer loop
      vertex   -1.539616e+002 7.713441e+001 5.000000e+000
      vertex   -1.461162e+002 7.727289e+001 5.000000e+000
      vertex   -1.538012e+002 7.740854e+001 5.000000e+000
    endloop
  endfacet
  facet normal -0.000000e+000 0.000000e+000 3.529109e-002
    outer loop
      vertex   -1.538012e+002 7.740854e+001 5.000000e+000
      vertex   -1.461162e+002 7.727289e+001 5.000000e+000
      vertex   -1.462862e+002 7.754118e+001 5.000000e+000
    endloop
  endfacet
  facet normal 0.000000e+000 0.000000e+000 8.151914e-001
    outer loop
      vertex   -1.538012e+002 7.740854e+001 5.000000e+000
      vertex   -1.462862e+002 7.754118e+001 5.000000e+000
      vertex   -1.536218e+002 7.767067e+001 5.000000e+000
    endloop
  endfacet
  facet normal -0.000000e+000 0.000000e+000 3.529148e-002
    outer loop
      vertex   -1.536218e+002 7.767067e+001 5.000000e+000
      vertex   -1.462862e+002 7.754118e+001 5.000000e+000
      vertex   -1.464747e+002 7.779682e+001 5.000000e+000
    endloop
  endfacet
  facet normal 0.000000e+000 0.000000e+000 7.723169e-001
    outer loop
      vertex   -1.536218e+002 7.767067e+001 5.000000e+000
      vertex   -1.464747e+002 7.779682e+001 5.000000e+000
      vertex   -1.534244e+002 7.791949e+001 5.000000e+000
    endloop
  endfacet
  facet normal -0.000000e+000 0.000000e+000 3.529178e-002
    outer loop
      vertex   -1.534244e+002 7.791949e+001 5.000000e+000
      vertex   -1.464747e+002 7.779682e+001 5.000000e+000
      vertex   -1.466808e+002 7.803853e+001 5.000000e+000
    endloop
  endfacet
  facet normal 0.000000e+000 0.000000e+000 7.255648e-001
    outer loop
      vertex   -1.534244e+002 7.791949e+001 5.000000e+000
      vertex   -1.466808e+002 7.803853e+001 5.000000e+000
      vertex   -1.532099e+002 7.815378e+001 5.000000e+000
    endloop
  endfacet
  facet normal -0.000000e+000 0.000000e+000 3.529202e-002
    outer loop
      vertex   -1.532099e+002 7.815378e+001 5.000000e+000
      vertex   -1.466808e+002 7.803853e+001 5.000000e+000
      vertex   -1.469034e+002 7.826510e+001 5.000000e+000
    endloop
  endfacet
  facet normal 0.000000e+000 0.000000e+000 6.752343e-001
    outer loop
      vertex   -1.532099e+002 7.815378e+001 5.000000e+000
      vertex   -1.469034e+002 7.826510e+001 5.000000e+000
      vertex   -1.529795e+002 7.837234e+001 5.000000e+000
    endloop
  endfacet
  facet normal -0.000000e+000 0.000000e+000 3.529087e-002
    outer loop
      vertex   -1.529795e+002 7.837234e+001 5.000000e+000
      vertex   -1.469034e+002 7.826510e+001 5.000000e+000
      vertex   -1.471414e+002 7.847540e+001 5.000000e+000
    endloop
  endfacet
  facet normal 0.000000e+000 0.000000e+000 6.215183e-001
    outer loop
      vertex   -1.529795e+002 7.837234e+001 5.000000e+000
      vertex   -1.471414e+002 7.847540e+001 5.000000e+000
      vertex   -1.527342e+002 7.857411e+001 5.000000e+000
    endloop
  endfacet
  facet normal -0.000000e+000 0.000000e+000 3.529135e-002
    outer loop
      vertex   -1.527342e+002 7.857411e+001 5.000000e+000
      vertex   -1.471414e+002 7.847540e+001 5.000000e+000
      vertex   -1.473937e+002 7.866838e+001 5.000000e+000
    endloop
  endfacet
  facet normal 0.000000e+000 0.000000e+000 5.647163e-001
    outer loop
      vertex   -1.527342e+002 7.857411e+001 5.000000e+000
      vertex   -1.473937e+002 7.866838e+001 5.000000e+000
      vertex   -1.524753e+002 7.875808e+001 5.000000e+000
    endloop
  endfacet
  facet normal -0.000000e+000 0.000000e+000 3.529200e-002
    outer loop
      vertex   -1.524753e+002 7.875808e+001 5.000000e+000
      vertex   -1.473937e+002 7.866838e+001 5.000000e+000
      vertex   -1.476589e+002 7.884309e+001 5.000000e+000
    endloop
  endfacet
  facet normal 0.000000e+000 0.000000e+000 5.050817e-001
    outer loop
      vertex   -1.524753e+002 7.875808e+001 5.000000e+000
      vertex   -1.476589e+002 7.884309e+001 5.000000e+000
      vertex   -1.522040e+002 7.892332e+001 5.000000e+000
    endloop
  endfacet
  facet normal -0.000000e+000 0.000000e+000 3.529127e-002
    outer loop
      vertex   -1.522040e+002 7.892332e+001 5.000000e+000
      vertex   -1.476589e+002 7.884309e+001 5.000000e+000
      vertex   -1.479358e+002 7.899866e+001 5.000000e+000
    endloop
  endfacet
  facet normal 0.000000e+000 0.000000e+000 4.429518e-001
    outer loop
      vertex   -1.522040e+002 7.892332e+001 5.000000e+000
      vertex   -1.479358e+002 7.899866e+001 5.000000e+000
      vertex   -1.519218e+002 7.906902e+001 5.000000e+000
    endloop
  endfacet
  facet normal -0.000000e+000 0.000000e+000 3.529137e-002
    outer loop
      vertex   -1.519218e+002 7.906902e+001 5.000000e+000
      vertex   -1.479358e+002 7.899866e+001 5.000000e+000
      vertex   -1.482230e+002 7.913430e+001 5.000000e+000
    endloop
  endfacet
  facet normal 0.000000e+000 0.000000e+000 3.785976e-001
    outer loop
      vertex   -1.519218e+002 7.906902e+001 5.000000e+000
      vertex   -1.482230e+002 7.913430e+001 5.000000e+000
      vertex   -1.516299e+002 7.919444e+001 5.000000e+000
    endloop
  endfacet
  facet normal -0.000000e+000 0.000000e+000 3.529067e-002
    outer loop
      vertex   -1.516299e+002 7.919444e+001 5.000000e+000
      vertex   -1.482230e+002 7.913430e+001 5.000000e+000
      vertex   -1.485191e+002 7.924934e+001 5.000000e+000
    endloop
  endfacet
  facet normal 0.000000e+000 0.000000e+000 3.123670e-001
    outer loop
      vertex   -1.516299e+002 7.919444e+001 5.000000e+000
      vertex   -1.485191e+002 7.924934e+001 5.000000e+000
      vertex   -1.513300e+002 7.929896e+001 5.000000e+000
    endloop
  endfacet
  facet normal -0.000000e+000 0.000000e+000 3.529298e-002
    outer loop
      vertex   -1.513300e+002 7.929896e+001 5.000000e+000
      vertex   -1.485191e+002 7.924934e+001 5.000000e+000
      vertex   -1.488225e+002 7.934322e+001 5.000000e+000
    endloop
  endfacet
  facet normal 0.000000e+000 0.000000e+000 2.445935e-001
    outer loop
      vertex   -1.513300e+002 7.929896e+001 5.000000e+000
      vertex   -1.488225e+002 7.934322e+001 5.000000e+000
      vertex   -1.510235e+002 7.938207e+001 5.000000e+000
    endloop
  endfacet
  facet normal -0.000000e+000 0.000000e+000 3.528984e-002
    outer loop
      vertex   -1.510235e+002 7.938207e+001 5.000000e+000
      vertex   -1.488225e+002 7.934322e+001 5.000000e+000
      vertex   -1.491318e+002 7.941546e+001 5.000000e+000
    endloop
  endfacet
  facet normal 0.000000e+000 0.000000e+000 1.755825e-001
    outer loop
      vertex   -1.510235e+002 7.938207e+001 5.000000e+000
      vertex   -1.491318e+002 7.941546e+001 5.000000e+000
      vertex   -1.507118e+002 7.944335e+001 5.000000e+000
    endloop
  endfacet
  facet normal -0.000000e+000 0.000000e+000 3.528983e-002
    outer loop
      vertex   -1.507118e+002 7.944335e+001 5.000000e+000
      vertex   -1.491318e+002 7.941546e+001 5.000000e+000
      vertex   -1.494454e+002 7.946570e+001 5.000000e+000
    endloop
  endfacet
  facet normal 0.000000e+000 0.000000e+000 1.056962e-001
    outer loop
      vertex   -1.507118e+002 7.944335e+001 5.000000e+000
      vertex   -1.494454e+002 7.946570e+001 5.000000e+000
      vertex   -1.503966e+002 7.948249e+001 5.000000e+000
    endloop
  endfacet
  facet normal -0.000000e+000 0.000000e+000 3.528855e-002
    outer loop
      vertex   -1.503966e+002 7.948249e+001 5.000000e+000
      vertex   -1.494454e+002 7.946570e+001 5.000000e+000
      vertex   -1.497618e+002 7.949369e+001 5.000000e+000
    endloop
  endfacet
  facet normal 0.000000e+000 0.000000e+000 3.529272e-002
    outer loop
      vertex   -1.503966e+002 7.948249e+001 5.000000e+000
      vertex   -1.497618e+002 7.949369e+001 5.000000e+000
      vertex   -1.500794e+002 7.949930e+001 5.000000e+000
    endloop
  endfacet
  facet normal 0.000000e+000 0.000000e+000 9.961101e-001
    outer loop
      vertex   -1.455028e+002 7.484119e+001 5.000000e+000
      vertex   -1.544888e+002 7.468257e+001 5.000000e+000
      vertex   -1.455252e+002 7.452435e+001 5.000000e+000
    endloop
  endfacet
  facet normal 0.000000e+000 0.000000e+000 3.529123e-002
    outer loop
      vertex   -1.455252e+002 7.452435e+001 5.000000e+000
      vertex   -1.544888e+002 7.468257e+001 5.000000e+000
      vertex   -1.544552e+002 7.436673e+001 5.000000e+000
    endloop
  endfacet
  facet normal 0.000000e+000 0.000000e+000 9.874131e-001
    outer loop
      vertex   -1.455252e+002 7.452435e+001 5.000000e+000
      vertex   -1.544552e+002 7.436673e+001 5.000000e+000
      vertex   -1.455699e+002 7.420989e+001 5.000000e+000
    endloop
  endfacet
  facet normal 0.000000e+000 0.000000e+000 3.529165e-002
    outer loop
      vertex   -1.455699e+002 7.420989e+001 5.000000e+000
      vertex   -1.544552e+002 7.436673e+001 5.000000e+000
      vertex   -1.543994e+002 7.405404e+001 5.000000e+000
    endloop
  endfacet
  facet normal 0.000000e+000 0.000000e+000 9.737903e-001
    outer loop
      vertex   -1.455699e+002 7.420989e+001 5.000000e+000
      vertex   -1.543994e+002 7.405404e+001 5.000000e+000
      vertex   -1.456367e+002 7.389937e+001 5.000000e+000
    endloop
  endfacet
  facet normal 0.000000e+000 0.000000e+000 3.529142e-002
    outer loop
      vertex   -1.456367e+002 7.389937e+001 5.000000e+000
      vertex   -1.543994e+002 7.405404e+001 5.000000e+000
      vertex   -1.543218e+002 7.374606e+001 5.000000e+000
    endloop
  endfacet
  facet normal 0.000000e+000 0.000000e+000 9.553303e-001
    outer loop
      vertex   -1.456367e+002 7.389937e+001 5.000000e+000
      vertex   -1.543218e+002 7.374606e+001 5.000000e+000
      vertex   -1.457252e+002 7.359432e+001 5.000000e+000
    endloop
  endfacet
  facet normal 0.000000e+000 0.000000e+000 3.529121e-002
    outer loop
      vertex   -1.457252e+002 7.359432e+001 5.000000e+000
      vertex   -1.543218e+002 7.374606e+001 5.000000e+000
      vertex   -1.542225e+002 7.344434e+001 5.000000e+000
    endloop
  endfacet
  facet normal 0.000000e+000 0.000000e+000 9.320796e-001
    outer loop
      vertex   -1.457252e+002 7.359432e+001 5.000000e+000
      vertex   -1.542225e+002 7.344434e+001 5.000000e+000
      vertex   -1.458350e+002 7.329629e+001 5.000000e+000
    endloop
  endfacet
  facet normal 0.000000e+000 0.000000e+000 3.529111e-002
    outer loop
      vertex   -1.458350e+002 7.329629e+001 5.000000e+000
      vertex   -1.542225e+002 7.344434e+001 5.000000e+000
      vertex   -1.541023e+002 7.315036e+001 5.000000e+000
    endloop
  endfacet
  facet normal 0.000000e+000 0.000000e+000 9.042418e-001
    outer loop
      vertex   -1.458350e+002 7.329629e+001 5.000000e+000
      vertex   -1.541023e+002 7.315036e+001 5.000000e+000
      vertex   -1.459655e+002 7.300674e+001 5.000000e+000
    endloop
  endfacet
  facet normal 0.000000e+000 0.000000e+000 3.529179e-002
    outer loop
      vertex   -1.459655e+002 7.300674e+001 5.000000e+000
      vertex   -1.541023e+002 7.315036e+001 5.000000e+000
      vertex   -1.539616e+002 7.286559e+001 5.000000e+000
    endloop
  endfacet
  facet normal 0.000000e+000 0.000000e+000 8.718336e-001
    outer loop
      vertex   -1.459655e+002 7.300674e+001 5.000000e+000
      vertex   -1.539616e+002 7.286559e+001 5.000000e+000
      vertex   -1.461162e+002 7.272711e+001 5.000000e+000
    endloop
  endfacet
  facet normal 0.000000e+000 0.000000e+000 3.529162e-002
    outer loop
      vertex   -1.461162e+002 7.272711e+001 5.000000e+000
      vertex   -1.539616e+002 7.286559e+001 5.000000e+000
      vertex   -1.538012e+002 7.259146e+001 5.000000e+000
    endloop
  endfacet
  facet normal 0.000000e+000 0.000000e+000 8.351307e-001
    outer loop
      vertex   -1.461162e+002 7.272711e+001 5.000000e+000
      vertex   -1.538012e+002 7.259146e+001 5.000000e+000
      vertex   -1.462862e+002 7.245882e+001 5.000000e+000
    endloop
  endfacet
  facet normal 0.000000e+000 0.000000e+000 3.529139e-002
    outer loop
      vertex   -1.462862e+002 7.245882e+001 5.000000e+000
      vertex   -1.538012e+002 7.259146e+001 5.000000e+000
      vertex   -1.536218e+002 7.232933e+001 5.000000e+000
    endloop
  endfacet
  facet normal 0.000000e+000 0.000000e+000 7.942423e-001
    outer loop
      vertex   -1.462862e+002 7.245882e+001 5.000000e+000
      vertex   -1.536218e+002 7.232933e+001 5.000000e+000
      vertex   -1.464747e+002 7.220318e+001 5.000000e+000
    endloop
  endfacet
  facet normal 0.000000e+000 0.000000e+000 3.529132e-002
    outer loop
      vertex   -1.464747e+002 7.220318e+001 5.000000e+000
      vertex   -1.536218e+002 7.232933e+001 5.000000e+000
      vertex   -1.534244e+002 7.208051e+001 5.000000e+000
    endloop
  endfacet
  facet normal 0.000000e+000 0.000000e+000 7.494321e-001
    outer loop
      vertex   -1.464747e+002 7.220318e+001 5.000000e+000
      vertex   -1.534244e+002 7.208051e+001 5.000000e+000
      vertex   -1.466808e+002 7.196147e+001 5.000000e+000
    endloop
  endfacet
  facet normal 0.000000e+000 0.000000e+000 3.529173e-002
    outer loop
      vertex   -1.466808e+002 7.196147e+001 5.000000e+000
      vertex   -1.534244e+002 7.208051e+001 5.000000e+000
      vertex   -1.532099e+002 7.184622e+001 5.000000e+000
    endloop
  endfacet
  facet normal 0.000000e+000 0.000000e+000 7.008322e-001
    outer loop
      vertex   -1.466808e+002 7.196147e+001 5.000000e+000
      vertex   -1.532099e+002 7.184622e+001 5.000000e+000
      vertex   -1.469034e+002 7.173490e+001 5.000000e+000
    endloop
  endfacet
  facet normal 0.000000e+000 0.000000e+000 3.529103e-002
    outer loop
      vertex   -1.469034e+002 7.173490e+001 5.000000e+000
      vertex   -1.532099e+002 7.184622e+001 5.000000e+000
      vertex   -1.529795e+002 7.162766e+001 5.000000e+000
    endloop
  endfacet
  facet normal 0.000000e+000 0.000000e+000 6.487840e-001
    outer loop
      vertex   -1.469034e+002 7.173490e+001 5.000000e+000
      vertex   -1.529795e+002 7.162766e+001 5.000000e+000
      vertex   -1.471414e+002 7.152460e+001 5.000000e+000
    endloop
  endfacet
  facet normal 0.000000e+000 0.000000e+000 3.529109e-002
    outer loop
      vertex   -1.471414e+002 7.152460e+001 5.000000e+000
      vertex   -1.529795e+002 7.162766e+001 5.000000e+000
      vertex   -1.527342e+002 7.142589e+001 5.000000e+000
    endloop
  endfacet
  facet normal 0.000000e+000 0.000000e+000 5.934786e-001
    outer loop
      vertex   -1.471414e+002 7.152460e+001 5.000000e+000
      vertex   -1.527342e+002 7.142589e+001 5.000000e+000
      vertex   -1.473937e+002 7.133162e+001 5.000000e+000
    endloop
  endfacet
  facet normal 0.000000e+000 0.000000e+000 3.529236e-002
    outer loop
      vertex   -1.473937e+002 7.133162e+001 5.000000e+000
      vertex   -1.527342e+002 7.142589e+001 5.000000e+000
      vertex   -1.524753e+002 7.124192e+001 5.000000e+000
    endloop
  endfacet
  facet normal 0.000000e+000 0.000000e+000 5.352328e-001
    outer loop
      vertex   -1.473937e+002 7.133162e+001 5.000000e+000
      vertex   -1.524753e+002 7.124192e+001 5.000000e+000
      vertex   -1.476589e+002 7.115691e+001 5.000000e+000
    endloop
  endfacet
  facet normal 0.000000e+000 0.000000e+000 3.529083e-002
    outer loop
      vertex   -1.476589e+002 7.115691e+001 5.000000e+000
      vertex   -1.524753e+002 7.124192e+001 5.000000e+000
      vertex   -1.522040e+002 7.107668e+001 5.000000e+000
    endloop
  endfacet
  facet normal 0.000000e+000 0.000000e+000 4.743151e-001
    outer loop
      vertex   -1.476589e+002 7.115691e+001 5.000000e+000
      vertex   -1.522040e+002 7.107668e+001 5.000000e+000
      vertex   -1.479358e+002 7.100134e+001 5.000000e+000
    endloop
  endfacet
  facet normal 0.000000e+000 0.000000e+000 3.529243e-002
    outer loop
      vertex   -1.479358e+002 7.100134e+001 5.000000e+000
      vertex   -1.522040e+002 7.107668e+001 5.000000e+000
      vertex   -1.519218e+002 7.093098e+001 5.000000e+000
    endloop
  endfacet
  facet normal 0.000000e+000 0.000000e+000 4.110335e-001
    outer loop
      vertex   -1.479358e+002 7.100134e+001 5.000000e+000
      vertex   -1.519218e+002 7.093098e+001 5.000000e+000
      vertex   -1.482230e+002 7.086570e+001 5.000000e+000
    endloop
  endfacet
  facet normal 0.000000e+000 0.000000e+000 3.529054e-002
    outer loop
      vertex   -1.482230e+002 7.086570e+001 5.000000e+000
      vertex   -1.519218e+002 7.093098e+001 5.000000e+000
      vertex   -1.516299e+002 7.080556e+001 5.000000e+000
    endloop
  endfacet
  facet normal 0.000000e+000 0.000000e+000 3.456849e-001
    outer loop
      vertex   -1.482230e+002 7.086570e+001 5.000000e+000
      vertex   -1.516299e+002 7.080556e+001 5.000000e+000
      vertex   -1.485191e+002 7.075066e+001 5.000000e+000
    endloop
  endfacet
  facet normal 0.000000e+000 0.000000e+000 3.529026e-002
    outer loop
      vertex   -1.485191e+002 7.075066e+001 5.000000e+000
      vertex   -1.516299e+002 7.080556e+001 5.000000e+000
      vertex   -1.513300e+002 7.070104e+001 5.000000e+000
    endloop
  endfacet
  facet normal 0.000000e+000 0.000000e+000 2.786605e-001
    outer loop
      vertex   -1.485191e+002 7.075066e+001 5.000000e+000
      vertex   -1.513300e+002 7.070104e+001 5.000000e+000
      vertex   -1.488225e+002 7.065678e+001 5.000000e+000
    endloop
  endfacet
  facet normal 0.000000e+000 0.000000e+000 3.529377e-002
    outer loop
      vertex   -1.488225e+002 7.065678e+001 5.000000e+000
      vertex   -1.513300e+002 7.070104e+001 5.000000e+000
      vertex   -1.510235e+002 7.061793e+001 5.000000e+000
    endloop
  endfacet
  facet normal 0.000000e+000 0.000000e+000 2.102056e-001
    outer loop
      vertex   -1.488225e+002 7.065678e+001 5.000000e+000
      vertex   -1.510235e+002 7.061793e+001 5.000000e+000
      vertex   -1.491318e+002 7.058454e+001 5.000000e+000
    endloop
  endfacet
  facet normal 0.000000e+000 0.000000e+000 3.529291e-002
    outer loop
      vertex   -1.491318e+002 7.058454e+001 5.000000e+000
      vertex   -1.510235e+002 7.061793e+001 5.000000e+000
      vertex   -1.507118e+002 7.055665e+001 5.000000e+000
    endloop
  endfacet
  facet normal 0.000000e+000 0.000000e+000 1.407248e-001
    outer loop
      vertex   -1.491318e+002 7.058454e+001 5.000000e+000
      vertex   -1.507118e+002 7.055665e+001 5.000000e+000
      vertex   -1.494454e+002 7.053430e+001 5.000000e+000
    endloop
  endfacet
  facet normal 0.000000e+000 0.000000e+000 3.529039e-002
    outer loop
      vertex   -1.494454e+002 7.053430e+001 5.000000e+000
      vertex   -1.507118e+002 7.055665e+001 5.000000e+000
      vertex   -1.503966e+002 7.051751e+001 5.000000e+000
    endloop
  endfacet
  facet normal 0.000000e+000 0.000000e+000 7.053216e-002
    outer loop
      vertex   -1.494454e+002 7.053430e+001 5.000000e+000
      vertex   -1.503966e+002 7.051751e+001 5.000000e+000
      vertex   -1.497618e+002 7.050631e+001 5.000000e+000
    endloop
  endfacet
  facet normal 0.000000e+000 0.000000e+000 3.529089e-002
    outer loop
      vertex   -1.497618e+002 7.050631e+001 5.000000e+000
      vertex   -1.503966e+002 7.051751e+001 5.000000e+000
      vertex   -1.500794e+002 7.050070e+001 5.000000e+000
    endloop
  endfacet
  facet normal 0.000000e+000 -0.000000e+000 -9.998440e-001
    outer loop
      vertex   -1.544888e+002 7.531743e+001 0.000000e+000
      vertex   -1.455028e+002 7.515881e+001 0.000000e+000
      vertex   -1.545000e+002 7.500000e+001 0.000000e+000
    endloop
  endfacet
  facet normal 0.000000e+000 0.000000e+000 -3.529190e-002
    outer loop
      vertex   -1.545000e+002 7.500000e+001 0.000000e+000
      vertex   -1.455028e+002 7.515881e+001 0.000000e+000
      vertex   -1.455028e+002 7.484119e+001 0.000000e+000
    endloop
  endfacet
  facet normal 0.000000e+000 0.000000e+000 -9.985976e-001
    outer loop
      vertex   -1.545000e+002 7.500000e+001 0.000000e+000
      vertex   -1.455028e+002 7.484119e+001 0.000000e+000
      vertex   -1.544888e+002 7.468257e+001 0.000000e+000
    endloop
  endfacet
  facet normal 0.000000e+000 0.000000e+000 -3.529166e-002
    outer loop
      vertex   -1.544888e+002 7.468257e+001 0.000000e+000
      vertex   -1.455028e+002 7.484119e+001 0.000000e+000
      vertex   -1.455252e+002 7.452435e+001 0.000000e+000
    endloop
  endfacet
  facet normal 0.000000e+000 0.000000e+000 -9.923790e-001
    outer loop
      vertex   -1.544888e+002 7.468257e+001 0.000000e+000
      vertex   -1.455252e+002 7.452435e+001 0.000000e+000
      vertex   -1.544552e+002 7.436673e+001 0.000000e+000
    endloop
  endfacet
  facet normal 0.000000e+000 0.000000e+000 -3.529128e-002
    outer loop
      vertex   -1.544552e+002 7.436673e+001 0.000000e+000
      vertex   -1.455252e+002 7.452435e+001 0.000000e+000
      vertex   -1.455699e+002 7.420989e+001 0.000000e+000
    endloop
  endfacet
  facet normal 0.000000e+000 0.000000e+000 -9.812117e-001
    outer loop
      vertex   -1.544552e+002 7.436673e+001 0.000000e+000
      vertex   -1.455699e+002 7.420989e+001 0.000000e+000
      vertex   -1.543994e+002 7.405404e+001 0.000000e+000
    endloop
  endfacet
  facet normal 0.000000e+000 0.000000e+000 -3.529123e-002
    outer loop
      vertex   -1.543994e+002 7.405404e+001 0.000000e+000
      vertex   -1.455699e+002 7.420989e+001 0.000000e+000
      vertex   -1.456367e+002 7.389937e+001 0.000000e+000
    endloop
  endfacet
  facet normal 0.000000e+000 0.000000e+000 -9.651630e-001
    outer loop
      vertex   -1.543994e+002 7.405404e+001 0.000000e+000
      vertex   -1.456367e+002 7.389937e+001 0.000000e+000
      vertex   -1.543218e+002 7.374606e+001 0.000000e+000
    endloop
  endfacet
  facet normal 0.000000e+000 0.000000e+000 -3.529184e-002
    outer loop
      vertex   -1.543218e+002 7.374606e+001 0.000000e+000
      vertex   -1.456367e+002 7.389937e+001 0.000000e+000
      vertex   -1.457252e+002 7.359432e+001 0.000000e+000
    endloop
  endfacet
  facet normal 0.000000e+000 0.000000e+000 -9.443022e-001
    outer loop
      vertex   -1.543218e+002 7.374606e+001 0.000000e+000
      vertex   -1.457252e+002 7.359432e+001 0.000000e+000
      vertex   -1.542225e+002 7.344434e+001 0.000000e+000
    endloop
  endfacet
  facet normal 0.000000e+000 0.000000e+000 -3.529085e-002
    outer loop
      vertex   -1.542225e+002 7.344434e+001 0.000000e+000
      vertex   -1.457252e+002 7.359432e+001 0.000000e+000
      vertex   -1.458350e+002 7.329629e+001 0.000000e+000
    endloop
  endfacet
  facet normal 0.000000e+000 0.000000e+000 -9.187302e-001
    outer loop
      vertex   -1.542225e+002 7.344434e+001 0.000000e+000
      vertex   -1.458350e+002 7.329629e+001 0.000000e+000
      vertex   -1.541023e+002 7.315036e+001 0.000000e+000
    endloop
  endfacet
  facet normal 0.000000e+000 0.000000e+000 -3.529132e-002
    outer loop
      vertex   -1.541023e+002 7.315036e+001 0.000000e+000
      vertex   -1.458350e+002 7.329629e+001 0.000000e+000
      vertex   -1.459655e+002 7.300674e+001 0.000000e+000
    endloop
  endfacet
  facet normal 0.000000e+000 0.000000e+000 -8.885981e-001
    outer loop
      vertex   -1.541023e+002 7.315036e+001 0.000000e+000
      vertex   -1.459655e+002 7.300674e+001 0.000000e+000
      vertex   -1.539616e+002 7.286559e+001 0.000000e+000
    endloop
  endfacet
  facet normal 0.000000e+000 0.000000e+000 -3.529185e-002
    outer loop
      vertex   -1.539616e+002 7.286559e+001 0.000000e+000
      vertex   -1.459655e+002 7.300674e+001 0.000000e+000
      vertex   -1.461162e+002 7.272711e+001 0.000000e+000
    endloop
  endfacet
  facet normal 0.000000e+000 0.000000e+000 -8.540159e-001
    outer loop
      vertex   -1.539616e+002 7.286559e+001 0.000000e+000
      vertex   -1.461162e+002 7.272711e+001 0.000000e+000
      vertex   -1.538012e+002 7.259146e+001 0.000000e+000
    endloop
  endfacet
  facet normal 0.000000e+000 0.000000e+000 -3.529109e-002
    outer loop
      vertex   -1.538012e+002 7.259146e+001 0.000000e+000
      vertex   -1.461162e+002 7.272711e+001 0.000000e+000
      vertex   -1.462862e+002 7.245882e+001 0.000000e+000
    endloop
  endfacet
  facet normal 0.000000e+000 0.000000e+000 -8.151914e-001
    outer loop
      vertex   -1.538012e+002 7.259146e+001 0.000000e+000
      vertex   -1.462862e+002 7.245882e+001 0.000000e+000
      vertex   -1.536218e+002 7.232933e+001 0.000000e+000
    endloop
  endfacet
  facet normal 0.000000e+000 0.000000e+000 -3.529148e-002
    outer loop
      vertex   -1.536218e+002 7.232933e+001 0.000000e+000
      vertex   -1.462862e+002 7.245882e+001 0.000000e+000
      vertex   -1.464747e+002 7.220318e+001 0.000000e+000
    endloop
  endfacet
  facet normal 0.000000e+000 0.000000e+000 -7.723169e-001
    outer loop
      vertex   -1.536218e+002 7.232933e+001 0.000000e+000
      vertex   -1.464747e+002 7.220318e+001 0.000000e+000
      vertex   -1.534244e+002 7.208051e+001 0.000000e+000
    endloop
  endfacet
  facet normal 0.000000e+000 0.000000e+000 -3.529178e-002
    outer loop
      vertex   -1.534244e+002 7.208051e+001 0.000000e+000
      vertex   -1.464747e+002 7.220318e+001 0.000000e+000
      vertex   -1.466808e+002 7.196147e+001 0.000000e+000
    endloop
  endfacet
  facet normal 0.000000e+000 0.000000e+000 -7.255648e-001
    outer loop
      vertex   -1.534244e+002 7.208051e+001 0.000000e+000
      vertex   -1.466808e+002 7.196147e+001 0.000000e+000
      vertex   -1.532099e+002 7.184622e+001 0.000000e+000
    endloop
  endfacet
  facet normal 0.000000e+000 0.000000e+000 -3.529202e-002
    outer loop
      vertex   -1.532099e+002 7.184622e+001 0.000000e+000
      vertex   -1.466808e+002 7.196147e+001 0.000000e+000
      vertex   -1.469034e+002 7.173490e+001 0.000000e+000
    endloop
  endfacet
  facet normal 0.000000e+000 0.000000e+000 -6.752343e-001
    outer loop
      vertex   -1.532099e+002 7.184622e+001 0.000000e+000
      vertex   -1.469034e+002 7.173490e+001 0.000000e+000
      vertex   -1.529795e+002 7.162766e+001 0.000000e+000
    endloop
  endfacet
  facet normal 0.000000e+000 0.000000e+000 -3.529087e-002
    outer loop
      vertex   -1.529795e+002 7.162766e+001 0.000000e+000
      vertex   -1.469034e+002 7.173490e+001 0.000000e+000
      vertex   -1.471414e+002 7.152460e+001 0.000000e+000
    endloop
  endfacet
  facet normal 0.000000e+000 0.000000e+000 -6.215183e-001
    outer loop
      vertex   -1.529795e+002 7.162766e+001 0.000000e+000
      vertex   -1.471414e+002 7.152460e+001 0.000000e+000
      vertex   -1.527342e+002 7.142589e+001 0.000000e+000
    endloop
  endfacet
  facet normal 0.000000e+000 0.000000e+000 -3.529135e-002
    outer loop
      vertex   -1.527342e+002 7.142589e+001 0.000000e+000
      vertex   -1.471414e+002 7.152460e+001 0.000000e+000
      vertex   -1.473937e+002 7.133162e+001 0.000000e+000
    endloop
  endfacet
  facet normal 0.000000e+000 0.000000e+000 -5.647163e-001
    outer loop
      vertex   -1.527342e+002 7.142589e+001 0.000000e+000
      vertex   -1.473937e+002 7.133162e+001 0.000000e+000
      vertex   -1.524753e+002 7.124192e+001 0.000000e+000
    endloop
  endfacet
  facet normal 0.000000e+000 0.000000e+000 -3.529200e-002
    outer loop
      vertex   -1.524753e+002 7.124192e+001 0.000000e+000
      vertex   -1.473937e+002 7.133162e+001 0.000000e+000
      vertex   -1.476589e+002 7.115691e+001 0.000000e+000
    endloop
  endfacet
  facet normal 0.000000e+000 0.000000e+000 -5.050817e-001
    outer loop
      vertex   -1.524753e+002 7.124192e+001 0.000000e+000
      vertex   -1.476589e+002 7.115691e+001 0.000000e+000
      vertex   -1.522040e+002 7.107668e+001 0.000000e+000
    endloop
  endfacet
  facet normal 0.000000e+000 0.000000e+000 -3.529127e-002
    outer loop
      vertex   -1.522040e+002 7.107668e+001 0.000000e+000
      vertex   -1.476589e+002 7.115691e+001 0.000000e+000
      vertex   -1.479358e+002 7.100134e+001 0.000000e+000
    endloop
  endfacet
  facet normal 0.000000e+000 0.000000e+000 -4.429518e-001
    outer loop
      vertex   -1.522040e+002 7.107668e+001 0.000000e+000
      vertex   -1.479358e+002 7.100134e+001 0.000000e+000
      vertex   -1.519218e+002 7.093098e+001 0.000000e+000
    endloop
  endfacet
  facet normal 0.000000e+000 0.000000e+000 -3.529137e-002
    outer loop
      vertex   -1.519218e+002 7.093098e+001 0.000000e+000
      vertex   -1.479358e+002 7.100134e+001 0.000000e+000
      vertex   -1.482230e+002 7.086570e+001 0.000000e+000
    endloop
  endfacet
  facet normal 0.000000e+000 0.000000e+000 -3.785976e-001
    outer loop
      vertex   -1.519218e+002 7.093098e+001 0.000000e+000
      vertex   -1.482230e+002 7.086570e+001 0.000000e+000
      vertex   -1.516299e+002 7.080556e+001 0.000000e+000
    endloop
  endfacet
  facet normal 0.000000e+000 0.000000e+000 -3.529067e-002
    outer loop
      vertex   -1.516299e+002 7.080556e+001 0.000000e+000
      vertex   -1.482230e+002 7.086570e+001 0.000000e+000
      vertex   -1.485191e+002 7.075066e+001 0.000000e+000
    endloop
  endfacet
  facet normal 0.000000e+000 0.000000e+000 -3.123670e-001
    outer loop
      vertex   -1.516299e+002 7.080556e+001 0.000000e+000
      vertex   -1.485191e+002 7.075066e+001 0.000000e+000
      vertex   -1.513300e+002 7.070104e+001 0.000000e+000
    endloop
  endfacet
  facet normal 0.000000e+000 0.000000e+000 -3.529298e-002
    outer loop
      vertex   -1.513300e+002 7.070104e+001 0.000000e+000
      vertex   -1.485191e+002 7.075066e+001 0.000000e+000
      vertex   -1.488225e+002 7.065678e+001 0.000000e+000
    endloop
  endfacet
  facet normal 0.000000e+000 0.000000e+000 -2.445935e-001
    outer loop
      vertex   -1.513300e+002 7.070104e+001 0.000000e+000
      vertex   -1.488225e+002 7.065678e+001 0.000000e+000
      vertex   -1.510235e+002 7.061793e+001 0.000000e+000
    endloop
  endfacet
  facet normal 0.000000e+000 0.000000e+000 -3.528984e-002
    outer loop
      vertex   -1.510235e+002 7.061793e+001 0.000000e+000
      vertex   -1.488225e+002 7.065678e+001 0.000000e+000
      vertex   -1.491318e+002 7.058454e+001 0.000000e+000
    endloop
  endfacet
  facet normal 0.000000e+000 0.000000e+000 -1.755825e-001
    outer loop
      vertex   -1.510235e+002 7.061793e+001 0.000000e+000
      vertex   -1.491318e+002 7.058454e+001 0.000000e+000
      vertex   -1.507118e+002 7.055665e+001 0.000000e+000
    endloop
  endfacet
  facet normal 0.000000e+000 0.000000e+000 -3.528983e-002
    outer loop
      vertex   -1.507118e+002 7.055665e+001 0.000000e+000
      vertex   -1.491318e+002 7.058454e+001 0.000000e+000
      vertex   -1.494454e+002 7.053430e+001 0.000000e+000
    endloop
  endfacet
  facet normal 0.000000e+000 0.000000e+000 -1.056962e-001
    outer loop
      vertex   -1.507118e+002 7.055665e+001 0.000000e+000
      vertex   -1.494454e+002 7.053430e+001 0.000000e+000
      vertex   -1.503966e+002 7.051751e+001 0.000000e+000
    endloop
  endfacet
  facet normal 0.000000e+000 0.000000e+000 -3.528855e-002
    outer loop
      vertex   -1.503966e+002 7.051751e+001 0.000000e+000
      vertex   -1.494454e+002 7.053430e+001 0.000000e+000
      vertex   -1.497618e+002 7.050631e+001 0.000000e+000
    endloop
  endfacet
  facet normal 0.000000e+000 0.000000e+000 -3.529272e-002
    outer loop
      vertex   -1.503966e+002 7.051751e+001 0.000000e+000
      vertex   -1.497618e+002 7.050631e+001 0.000000e+000
      vertex   -1.500794e+002 7.050070e+001 0.000000e+000
    endloop
  endfacet
  facet normal 0.000000e+000 0.000000e+000 -9.961101e-001
    outer loop
      vertex   -1.455028e+002 7.515881e+001 0.000000e+000
      vertex   -1.544888e+002 7.531743e+001 0.000000e+000
      vertex   -1.455252e+002 7.547565e+001 0.000000e+000
    endloop
  endfacet
  facet normal -0.000000e+000 0.000000e+000 -3.529123e-002
    outer loop
      vertex   -1.455252e+002 7.547565e+001 0.000000e+000
      vertex   -1.544888e+002 7.531743e+001 0.000000e+000
      vertex   -1.544552e+002 7.563327e+001 0.000000e+000
    endloop
  endfacet
  facet normal 0.000000e+000 0.000000e+000 -9.874131e-001
    outer loop
      vertex   -1.455252e+002 7.547565e+001 0.000000e+000
      vertex   -1.544552e+002 7.563327e+001 0.000000e+000
      vertex   -1.455699e+002 7.579011e+001 0.000000e+000
    endloop
  endfacet
  facet normal -0.000000e+000 0.000000e+000 -3.529165e-002
    outer loop
      vertex   -1.455699e+002 7.579011e+001 0.000000e+000
      vertex   -1.544552e+002 7.563327e+001 0.000000e+000
      vertex   -1.543994e+002 7.594596e+001 0.000000e+000
    endloop
  endfacet
  facet normal 0.000000e+000 0.000000e+000 -9.737903e-001
    outer loop
      vertex   -1.455699e+002 7.579011e+001 0.000000e+000
      vertex   -1.543994e+002 7.594596e+001 0.000000e+000
      vertex   -1.456367e+002 7.610063e+001 0.000000e+000
    endloop
  endfacet
  facet normal -0.000000e+000 0.000000e+000 -3.529142e-002
    outer loop
      vertex   -1.456367e+002 7.610063e+001 0.000000e+000
      vertex   -1.543994e+002 7.594596e+001 0.000000e+000
      vertex   -1.543218e+002 7.625394e+001 0.000000e+000
    endloop
  endfacet
  facet normal 0.000000e+000 0.000000e+000 -9.553303e-001
    outer loop
      vertex   -1.456367e+002 7.610063e+001 0.000000e+000
      vertex   -1.543218e+002 7.625394e+001 0.000000e+000
      vertex   -1.457252e+002 7.640568e+001 0.000000e+000
    endloop
  endfacet
  facet normal -0.000000e+000 0.000000e+000 -3.529121e-002
    outer loop
      vertex   -1.457252e+002 7.640568e+001 0.000000e+000
      vertex   -1.543218e+002 7.625394e+001 0.000000e+000
      vertex   -1.542225e+002 7.655566e+001 0.000000e+000
    endloop
  endfacet
  facet normal 0.000000e+000 0.000000e+000 -9.320796e-001
    outer loop
      vertex   -1.457252e+002 7.640568e+001 0.000000e+000
      vertex   -1.542225e+002 7.655566e+001 0.000000e+000
      vertex   -1.458350e+002 7.670371e+001 0.000000e+000
    endloop
  endfacet
  facet normal -0.000000e+000 0.000000e+000 -3.529111e-002
    outer loop
      vertex   -1.458350e+002 7.670371e+001 0.000000e+000
      vertex   -1.542225e+002 7.655566e+001 0.000000e+000
      vertex   -1.541023e+002 7.684964e+001 0.000000e+000
    endloop
  endfacet
  facet normal 0.000000e+000 0.000000e+000 -9.042418e-001
    outer loop
      vertex   -1.458350e+002 7.670371e+001 0.000000e+000
      vertex   -1.541023e+002 7.684964e+001 0.000000e+000
      vertex   -1.459655e+002 7.699326e+001 0.000000e+000
    endloop
  endfacet
  facet normal -0.000000e+000 0.000000e+000 -3.529179e-002
    outer loop
      vertex   -1.459655e+002 7.699326e+001 0.000000e+000
      vertex   -1.541023e+002 7.684964e+001 0.000000e+000
      vertex   -1.539616e+002 7.713441e+001 0.000000e+000
    endloop
  endfacet
  facet normal 0.000000e+000 0.000000e+000 -8.718336e-001
    outer loop
      vertex   -1.459655e+002 7.699326e+001 0.000000e+000
      vertex   -1.539616e+002 7.713441e+001 0.000000e+000
      vertex   -1.461162e+002 7.727289e+001 0.000000e+000
    endloop
  endfacet
  facet normal -0.000000e+000 0.000000e+000 -3.529162e-002
    outer loop
      vertex   -1.461162e+002 7.727289e+001 0.000000e+000
      vertex   -1.539616e+002 7.713441e+001 0.000000e+000
      vertex   -1.538012e+002 7.740854e+001 0.000000e+000
    endloop
  endfacet
  facet normal 0.000000e+000 0.000000e+000 -8.351307e-001
    outer loop
      vertex   -1.461162e+002 7.727289e+001 0.000000e+000
      vertex   -1.538012e+002 7.740854e+001 0.000000e+000
      vertex   -1.462862e+002 7.754118e+001 0.000000e+000
    endloop
  endfacet
  facet normal -0.000000e+000 0.000000e+000 -3.529139e-002
    outer loop
      vertex   -1.462862e+002 7.754118e+001 0.000000e+000
      vertex   -1.538012e+002 7.740854e+001 0.000000e+000
      vertex   -1.536218e+002 7.767067e+001 0.000000e+000
    endloop
  endfacet
  facet normal 0.000000e+000 0.000000e+000 -7.942423e-001
    outer loop
      vertex   -1.462862e+002 7.754118e+001 0.000000e+000
      vertex   -1.536218e+002 7.767067e+001 0.000000e+000
      vertex   -1.464747e+002 7.779682e+001 0.000000e+000
    endloop
  endfacet
  facet normal -0.000000e+000 0.000000e+000 -3.529132e-002
    outer loop
      vertex   -1.464747e+002 7.779682e+001 0.000000e+000
      vertex   -1.536218e+002 7.767067e+001 0.000000e+000
      vertex   -1.534244e+002 7.791949e+001 0.000000e+000
    endloop
  endfacet
  facet normal 0.000000e+000 0.000000e+000 -7.494321e-001
    outer loop
      vertex   -1.464747e+002 7.779682e+001 0.000000e+000
      vertex   -1.534244e+002 7.791949e+001 0.000000e+000
      vertex   -1.466808e+002 7.803853e+001 0.000000e+000
    endloop
  endfacet
  facet normal -0.000000e+000 0.000000e+000 -3.529173e-002
    outer loop
      vertex   -1.466808e+002 7.803853e+001 0.000000e+000
      vertex   -1.534244e+002 7.791949e+001 0.000000e+000
      vertex   -1.532099e+002 7.815378e+001 0.000000e+000
    endloop
  endfacet
  facet normal 0.000000e+000 0.000000e+000 -7.008322e-001
    outer loop
      vertex   -1.466808e+002 7.803853e+001 0.000000e+000
      vertex   -1.532099e+002 7.815378e+001 0.000000e+000
      vertex   -1.469034e+002 7.826510e+001 0.000000e+000
    endloop
  endfacet
  facet normal -0.000000e+000 0.000000e+000 -3.529103e-002
    outer loop
      vertex   -1.469034e+002 7.826510e+001 0.000000e+000
      vertex   -1.532099e+002 7.815378e+001 0.000000e+000
      vertex   -1.529795e+002 7.837234e+001 0.000000e+000
    endloop
  endfacet
  facet normal 0.000000e+000 0.000000e+000 -6.487840e-001
    outer loop
      vertex   -1.469034e+002 7.826510e+001 0.000000e+000
      vertex   -1.529795e+002 7.837234e+001 0.000000e+000
      vertex   -1.471414e+002 7.847540e+001 0.000000e+000
    endloop
  endfacet
  facet normal -0.000000e+000 0.000000e+000 -3.529109e-002
    outer loop
      vertex   -1.471414e+002 7.847540e+001 0.000000e+000
      vertex   -1.529795e+002 7.837234e+001 0.000000e+000
      vertex   -1.527342e+002 7.857411e+001 0.000000e+000
    endloop
  endfacet
  facet normal 0.000000e+000 0.000000e+000 -5.934786e-001
    outer loop
      vertex   -1.471414e+002 7.847540e+001 0.000000e+000
      vertex   -1.527342e+002 7.857411e+001 0.000000e+000
      vertex   -1.473937e+002 7.866838e+001 0.000000e+000
    endloop
  endfacet
  facet normal -0.000000e+000 0.000000e+000 -3.529236e-002
    outer loop
      vertex   -1.473937e+002 7.866838e+001 0.000000e+000
      vertex   -1.527342e+002 7.857411e+001 0.000000e+000
      vertex   -1.524753e+002 7.875808e+001 0.000000e+000
    endloop
  endfacet
  facet normal 0.000000e+000 0.000000e+000 -5.352328e-001
    outer loop
      vertex   -1.473937e+002 7.866838e+001 0.000000e+000
      vertex   -1.524753e+002 7.875808e+001 0.000000e+000
      vertex   -1.476589e+002 7.884309e+001 0.000000e+000
    endloop
  endfacet
  facet normal -0.000000e+000 0.000000e+000 -3.529083e-002
    outer loop
      vertex   -1.476589e+002 7.884309e+001 0.000000e+000
      vertex   -1.524753e+002 7.875808e+001 0.000000e+000
      vertex   -1.522040e+002 7.892332e+001 0.000000e+000
    endloop
  endfacet
  facet normal 0.000000e+000 0.000000e+000 -4.743151e-001
    outer loop
      vertex   -1.476589e+002 7.884309e+001 0.000000e+000
      vertex   -1.522040e+002 7.892332e+001 0.000000e+000
      vertex   -1.479358e+002 7.899866e+001 0.000000e+000
    endloop
  endfacet
  facet normal -0.000000e+000 0.000000e+000 -3.529243e-002
    outer loop
      vertex   -1.479358e+002 7.899866e+001 0.000000e+000
      vertex   -1.522040e+002 7.892332e+001 0.000000e+000
      vertex   -1.519218e+002 7.906902e+001 0.000000e+000
    endloop
  endfacet
  facet normal 0.000000e+000 0.000000e+000 -4.110335e-001
    outer loop
      vertex   -1.479358e+002 7.899866e+001 0.000000e+000
      vertex   -1.519218e+002 7.906902e+001 0.000000e+000
      vertex   -1.482230e+002 7.913430e+001 0.000000e+000
    endloop
  endfacet
  facet normal -0.000000e+000 0.000000e+000 -3.529054e-002
    outer loop
      vertex   -1.482230e+002 7.913430e+001 0.000000e+000
      vertex   -1.519218e+002 7.906902e+001 0.000000e+000
      vertex   -1.516299e+002 7.919444e+001 0.000000e+000
    endloop
  endfacet
  facet normal 0.000000e+000 0.000000e+000 -3.456849e-001
    outer loop
      vertex   -1.482230e+002 7.913430e+001 0.000000e+000
      vertex   -1.516299e+002 7.919444e+001 0.000000e+000
      vertex   -1.485191e+002 7.924934e+001 0.000000e+000
    endloop
  endfacet
  facet normal -0.000000e+000 0.000000e+000 -3.529026e-002
    outer loop
      vertex   -1.485191e+002 7.924934e+001 0.000000e+000
      vertex   -1.516299e+002 7.919444e+001 0.000000e+000
      vertex   -1.513300e+002 7.929896e+001 0.000000e+000
    endloop
  endfacet
  facet normal 0.000000e+000 0.000000e+000 -2.786605e-001
    outer loop
      vertex   -1.485191e+002 7.924934e+001 0.000000e+000
      vertex   -1.513300e+002 7.929896e+001 0.000000e+000
      vertex   -1.488225e+002 7.934322e+001 0.000000e+000
    endloop
  endfacet
  facet normal -0.000000e+000 0.000000e+000 -3.529377e-002
    outer loop
      vertex   -1.488225e+002 7.934322e+001 0.000000e+000
      vertex   -1.513300e+002 7.929896e+001 0.000000e+000
      vertex   -1.510235e+002 7.938207e+001 0.000000e+000
    endloop
  endfacet
  facet normal 0.000000e+000 0.000000e+000 -2.102056e-001
    outer loop
      vertex   -1.488225e+002 7.934322e+001 0.000000e+000
      vertex   -1.510235e+002 7.938207e+001 0.000000e+000
      vertex   -1.491318e+002 7.941546e+001 0.000000e+000
    endloop
  endfacet
  facet normal -0.000000e+000 0.000000e+000 -3.529291e-002
    outer loop
      vertex   -1.491318e+002 7.941546e+001 0.000000e+000
      vertex   -1.510235e+002 7.938207e+001 0.000000e+000
      vertex   -1.507118e+002 7.944335e+001 0.000000e+000
    endloop
  endfacet
  facet normal 0.000000e+000 0.000000e+000 -1.407248e-001
    outer loop
      vertex   -1.491318e+002 7.941546e+001 0.000000e+000
      vertex   -1.507118e+002 7.944335e+001 0.000000e+000
      vertex   -1.494454e+002 7.946570e+001 0.000000e+000
    endloop
  endfacet
  facet normal -0.000000e+000 0.000000e+000 -3.529039e-002
    outer loop
      vertex   -1.494454e+002 7.946570e+001 0.000000e+000
      vertex   -1.507118e+002 7.944335e+001 0.000000e+000
      vertex   -1.503966e+002 7.948249e+001 0.000000e+000
    endloop
  endfacet
  facet normal 0.000000e+000 0.000000e+000 -7.053216e-002
    outer loop
      vertex   -1.494454e+002 7.946570e+001 0.000000e+000
      vertex   -1.503966e+002 7.948249e+001 0.000000e+000
      vertex   -1.497618e+002 7.949369e+001 0.000000e+000
    endloop
  endfacet
  facet normal -0.000000e+000 0.000000e+000 -3.529089e-002
    outer loop
      vertex   -1.497618e+002 7.949369e+001 0.000000e+000
      vertex   -1.503966e+002 7.948249e+001 0.000000e+000
      vertex   -1.500794e+002 7.949930e+001 0.000000e+000
    endloop
  endfacet
endsolid
