solid ascii
  facet normal 1.000000e+000 0.000000e+000 0.000000e+000
    outer loop
      vertex   -7.401431e+001 5.233610e+001 9.536743e-007
      vertex   -7.401431e+001 5.083610e+001 9.536743e-007
      vertex   -7.401431e+001 5.233610e+001 -4.999990e-001
    endloop
  endfacet
  facet normal 3.162278e-001 0.000000e+000 0.000000e+000
    outer loop
      vertex   -7.401431e+001 5.233610e+001 -4.999990e-001
      vertex   -7.401431e+001 5.083610e+001 9.536743e-007
      vertex   -7.401431e+001 5.083610e+001 -4.999990e-001
    endloop
  endfacet
  facet normal -0.000000e+000 1.000000e+000 0.000000e+000
    outer loop
      vertex   -7.473170e+001 5.233610e+001 9.536743e-007
      vertex   -7.401431e+001 5.233610e+001 9.536743e-007
      vertex   -7.473170e+001 5.233610e+001 -4.999990e-001
    endloop
  endfacet
  facet normal 0.000000e+000 5.717882e-001 0.000000e+000
    outer loop
      vertex   -7.473170e+001 5.233610e+001 -4.999990e-001
      vertex   -7.401431e+001 5.233610e+001 9.536743e-007
      vertex   -7.401431e+001 5.233610e+001 -4.999990e-001
    endloop
  endfacet
  facet normal -1.000000e+000 0.000000e+000 0.000000e+000
    outer loop
      vertex   -7.473170e+001 5.083610e+001 9.536743e-007
      vertex   -7.473170e+001 5.233610e+001 9.536743e-007
      vertex   -7.473170e+001 5.083610e+001 -4.999990e-001
    endloop
  endfacet
  facet normal -3.162278e-001 0.000000e+000 0.000000e+000
    outer loop
      vertex   -7.473170e+001 5.083610e+001 -4.999990e-001
      vertex   -7.473170e+001 5.233610e+001 9.536743e-007
      vertex   -7.473170e+001 5.233610e+001 -4.999990e-001
    endloop
  endfacet
  facet normal -0.000000e+000 -1.000000e+000 -0.000000e+000
    outer loop
      vertex   -7.401431e+001 5.083610e+001 9.536743e-007
      vertex   -7.473170e+001 5.083610e+001 9.536743e-007
      vertex   -7.401431e+001 5.083610e+001 -4.999990e-001
    endloop
  endfacet
  facet normal 0.000000e+000 -5.717882e-001 0.000000e+000
    outer loop
      vertex   -7.401431e+001 5.083610e+001 -4.999990e-001
      vertex   -7.473170e+001 5.083610e+001 9.536743e-007
      vertex   -7.473170e+001 5.083610e+001 -4.999990e-001
    endloop
  endfacet
  facet normal 0.000000e+000 0.000000e+000 -1.000000e+000
    outer loop
      vertex   -7.401431e+001 5.083610e+001 -4.999990e-001
      vertex   -7.473170e+001 5.083610e+001 -4.999990e-001
      vertex   -7.401431e+001 5.233610e+001 -4.999990e-001
    endloop
  endfacet
  facet normal -0.000000e+000 0.000000e+000 -9.021323e-001
    outer loop
      vertex   -7.401431e+001 5.233610e+001 -4.999990e-001
      vertex   -7.473170e+001 5.083610e+001 -4.999990e-001
      vertex   -7.473170e+001 5.233610e+001 -4.999990e-001
    endloop
  endfacet
  facet normal -0.000000e+000 1.000000e+000 0.000000e+000
    outer loop
      vertex   -7.473170e+001 7.363529e+001 9.536743e-007
      vertex   -7.401431e+001 7.363529e+001 9.536743e-007
      vertex   -7.473170e+001 7.363529e+001 -4.999990e-001
    endloop
  endfacet
  facet normal 0.000000e+000 5.717882e-001 0.000000e+000
    outer loop
      vertex   -7.473170e+001 7.363529e+001 -4.999990e-001
      vertex   -7.401431e+001 7.363529e+001 9.536743e-007
      vertex   -7.401431e+001 7.363529e+001 -4.999990e-001
    endloop
  endfacet
  facet normal -1.000000e+000 0.000000e+000 0.000000e+000
    outer loop
      vertex   -7.473170e+001 7.213529e+001 9.536743e-007
      vertex   -7.473170e+001 7.363529e+001 9.536743e-007
      vertex   -7.473170e+001 7.213529e+001 -4.999990e-001
    endloop
  endfacet
  facet normal -3.162278e-001 0.000000e+000 0.000000e+000
    outer loop
      vertex   -7.473170e+001 7.213529e+001 -4.999990e-001
      vertex   -7.473170e+001 7.363529e+001 9.536743e-007
      vertex   -7.473170e+001 7.363529e+001 -4.999990e-001
    endloop
  endfacet
  facet normal -0.000000e+000 -1.000000e+000 -0.000000e+000
    outer loop
      vertex   -7.401431e+001 7.213529e+001 9.536743e-007
      vertex   -7.473170e+001 7.213529e+001 9.536743e-007
      vertex   -7.401431e+001 7.213529e+001 -4.999990e-001
    endloop
  endfacet
  facet normal 0.000000e+000 -5.717882e-001 0.000000e+000
    outer loop
      vertex   -7.401431e+001 7.213529e+001 -4.999990e-001
      vertex   -7.473170e+001 7.213529e+001 9.536743e-007
      vertex   -7.473170e+001 7.213529e+001 -4.999990e-001
    endloop
  endfacet
  facet normal 1.000000e+000 0.000000e+000 0.000000e+000
    outer loop
      vertex   -7.401431e+001 7.363529e+001 9.536743e-007
      vertex   -7.401431e+001 7.213529e+001 9.536743e-007
      vertex   -7.401431e+001 7.363529e+001 -4.999990e-001
    endloop
  endfacet
  facet normal 3.162278e-001 0.000000e+000 0.000000e+000
    outer loop
      vertex   -7.401431e+001 7.363529e+001 -4.999990e-001
      vertex   -7.401431e+001 7.213529e+001 9.536743e-007
      vertex   -7.401431e+001 7.213529e+001 -4.999990e-001
    endloop
  endfacet
  facet normal 0.000000e+000 0.000000e+000 -1.000000e+000
    outer loop
      vertex   -7.401431e+001 7.213529e+001 -4.999990e-001
      vertex   -7.473170e+001 7.213529e+001 -4.999990e-001
      vertex   -7.401431e+001 7.363529e+001 -4.999990e-001
    endloop
  endfacet
  facet normal -0.000000e+000 0.000000e+000 -9.021323e-001
    outer loop
      vertex   -7.401431e+001 7.363529e+001 -4.999990e-001
      vertex   -7.473170e+001 7.213529e+001 -4.999990e-001
      vertex   -7.473170e+001 7.363529e+001 -4.999990e-001
    endloop
  endfacet
  facet normal 1.000000e+000 0.000000e+000 0.000000e+000
    outer loop
      vertex   -7.401431e+001 4.312214e+001 9.536743e-007
      vertex   -7.401431e+001 4.162214e+001 9.536743e-007
      vertex   -7.401431e+001 4.312214e+001 -4.999990e-001
    endloop
  endfacet
  facet normal 3.162278e-001 0.000000e+000 0.000000e+000
    outer loop
      vertex   -7.401431e+001 4.312214e+001 -4.999990e-001
      vertex   -7.401431e+001 4.162214e+001 9.536743e-007
      vertex   -7.401431e+001 4.162214e+001 -4.999990e-001
    endloop
  endfacet
  facet normal -0.000000e+000 1.000000e+000 0.000000e+000
    outer loop
      vertex   -7.473170e+001 4.312214e+001 9.536743e-007
      vertex   -7.401431e+001 4.312214e+001 9.536743e-007
      vertex   -7.473170e+001 4.312214e+001 -4.999990e-001
    endloop
  endfacet
  facet normal 0.000000e+000 5.717882e-001 0.000000e+000
    outer loop
      vertex   -7.473170e+001 4.312214e+001 -4.999990e-001
      vertex   -7.401431e+001 4.312214e+001 9.536743e-007
      vertex   -7.401431e+001 4.312214e+001 -4.999990e-001
    endloop
  endfacet
  facet normal -1.000000e+000 0.000000e+000 0.000000e+000
    outer loop
      vertex   -7.473170e+001 4.162214e+001 9.536743e-007
      vertex   -7.473170e+001 4.312214e+001 9.536743e-007
      vertex   -7.473170e+001 4.162214e+001 -4.999990e-001
    endloop
  endfacet
  facet normal -3.162278e-001 0.000000e+000 0.000000e+000
    outer loop
      vertex   -7.473170e+001 4.162214e+001 -4.999990e-001
      vertex   -7.473170e+001 4.312214e+001 9.536743e-007
      vertex   -7.473170e+001 4.312214e+001 -4.999990e-001
    endloop
  endfacet
  facet normal -0.000000e+000 -1.000000e+000 -0.000000e+000
    outer loop
      vertex   -7.401431e+001 4.162214e+001 9.536743e-007
      vertex   -7.473170e+001 4.162214e+001 9.536743e-007
      vertex   -7.401431e+001 4.162214e+001 -4.999990e-001
    endloop
  endfacet
  facet normal 0.000000e+000 -5.717882e-001 0.000000e+000
    outer loop
      vertex   -7.401431e+001 4.162214e+001 -4.999990e-001
      vertex   -7.473170e+001 4.162214e+001 9.536743e-007
      vertex   -7.473170e+001 4.162214e+001 -4.999990e-001
    endloop
  endfacet
  facet normal 0.000000e+000 0.000000e+000 -1.000000e+000
    outer loop
      vertex   -7.401431e+001 4.162214e+001 -4.999990e-001
      vertex   -7.473170e+001 4.162214e+001 -4.999990e-001
      vertex   -7.401431e+001 4.312214e+001 -4.999990e-001
    endloop
  endfacet
  facet normal -0.000000e+000 0.000000e+000 -9.021323e-001
    outer loop
      vertex   -7.401431e+001 4.312214e+001 -4.999990e-001
      vertex   -7.473170e+001 4.162214e+001 -4.999990e-001
      vertex   -7.473170e+001 4.312214e+001 -4.999990e-001
    endloop
  endfacet
  facet normal -0.000000e+000 -1.000000e+000 -0.000000e+000
    outer loop
      vertex   -7.401431e+001 6.362141e+001 9.536743e-007
      vertex   -7.473170e+001 6.362141e+001 9.536743e-007
      vertex   -7.401431e+001 6.362141e+001 -4.999990e-001
    endloop
  endfacet
  facet normal 0.000000e+000 -5.717882e-001 0.000000e+000
    outer loop
      vertex   -7.401431e+001 6.362141e+001 -4.999990e-001
      vertex   -7.473170e+001 6.362141e+001 9.536743e-007
      vertex   -7.473170e+001 6.362141e+001 -4.999990e-001
    endloop
  endfacet
  facet normal 1.000000e+000 0.000000e+000 0.000000e+000
    outer loop
      vertex   -7.401431e+001 6.512141e+001 9.536743e-007
      vertex   -7.401431e+001 6.362141e+001 9.536743e-007
      vertex   -7.401431e+001 6.512141e+001 -4.999990e-001
    endloop
  endfacet
  facet normal 3.162285e-001 0.000000e+000 0.000000e+000
    outer loop
      vertex   -7.401431e+001 6.512141e+001 -4.999990e-001
      vertex   -7.401431e+001 6.362141e+001 9.536743e-007
      vertex   -7.401431e+001 6.362141e+001 -4.999990e-001
    endloop
  endfacet
  facet normal -0.000000e+000 1.000000e+000 0.000000e+000
    outer loop
      vertex   -7.473170e+001 6.512141e+001 9.536743e-007
      vertex   -7.401431e+001 6.512141e+001 9.536743e-007
      vertex   -7.473170e+001 6.512141e+001 -4.999990e-001
    endloop
  endfacet
  facet normal 0.000000e+000 5.717882e-001 0.000000e+000
    outer loop
      vertex   -7.473170e+001 6.512141e+001 -4.999990e-001
      vertex   -7.401431e+001 6.512141e+001 9.536743e-007
      vertex   -7.401431e+001 6.512141e+001 -4.999990e-001
    endloop
  endfacet
  facet normal -1.000000e+000 0.000000e+000 0.000000e+000
    outer loop
      vertex   -7.473170e+001 6.362141e+001 9.536743e-007
      vertex   -7.473170e+001 6.512141e+001 9.536743e-007
      vertex   -7.473170e+001 6.362141e+001 -4.999990e-001
    endloop
  endfacet
  facet normal -3.162285e-001 0.000000e+000 0.000000e+000
    outer loop
      vertex   -7.473170e+001 6.362141e+001 -4.999990e-001
      vertex   -7.473170e+001 6.512141e+001 9.536743e-007
      vertex   -7.473170e+001 6.512141e+001 -4.999990e-001
    endloop
  endfacet
  facet normal 0.000000e+000 0.000000e+000 -1.000000e+000
    outer loop
      vertex   -7.473170e+001 6.512141e+001 -4.999990e-001
      vertex   -7.401431e+001 6.512141e+001 -4.999990e-001
      vertex   -7.473170e+001 6.362141e+001 -4.999990e-001
    endloop
  endfacet
  facet normal 0.000000e+000 0.000000e+000 -9.021319e-001
    outer loop
      vertex   -7.473170e+001 6.362141e+001 -4.999990e-001
      vertex   -7.401431e+001 6.512141e+001 -4.999990e-001
      vertex   -7.401431e+001 6.362141e+001 -4.999990e-001
    endloop
  endfacet
  facet normal 8.969406e-001 4.421510e-001 0.000000e+000
    outer loop
      vertex   -7.988056e+001 6.638667e+001 9.536743e-007
      vertex   -7.474361e+001 5.596594e+001 9.536743e-007
      vertex   -7.988056e+001 6.638667e+001 -4.999990e-001
    endloop
  endfacet
  facet normal 3.856536e-002 1.901097e-002 0.000000e+000
    outer loop
      vertex   -7.988056e+001 6.638667e+001 -4.999990e-001
      vertex   -7.474361e+001 5.596594e+001 9.536743e-007
      vertex   -7.474361e+001 5.596594e+001 -4.999990e-001
    endloop
  endfacet
  facet normal 0.000000e+000 -1.000000e+000 0.000000e+000
    outer loop
      vertex   -7.988056e+001 5.432999e+001 -4.999990e-001
      vertex   -7.474361e+001 5.432999e+001 -4.999990e-001
      vertex   -7.988056e+001 5.432999e+001 9.536743e-007
    endloop
  endfacet
  facet normal 0.000000e+000 -9.687625e-002 0.000000e+000
    outer loop
      vertex   -7.988056e+001 5.432999e+001 9.536743e-007
      vertex   -7.474361e+001 5.432999e+001 -4.999990e-001
      vertex   -7.474361e+001 5.432999e+001 9.536743e-007
    endloop
  endfacet
  facet normal -8.956676e-001 -4.447241e-001 0.000000e+000
    outer loop
      vertex   -7.988056e+001 6.554114e+001 -4.999990e-001
      vertex   -7.474361e+001 5.519540e+001 -4.999990e-001
      vertex   -7.988056e+001 6.554114e+001 9.536743e-007
    endloop
  endfacet
  facet normal -3.873432e-002 -1.923268e-002 -5.551115e-017
    outer loop
      vertex   -7.988056e+001 6.554114e+001 9.536743e-007
      vertex   -7.474361e+001 5.519540e+001 -4.999990e-001
      vertex   -7.474361e+001 5.519540e+001 9.536743e-007
    endloop
  endfacet
  facet normal 0.000000e+000 0.000000e+000 -4.421510e-001
    outer loop
      vertex   -7.988056e+001 6.638667e+001 -4.999990e-001
      vertex   -7.474361e+001 5.596594e+001 -4.999990e-001
      vertex   -7.988056e+001 6.554114e+001 -4.999990e-001
    endloop
  endfacet
  facet normal 0.000000e+000 0.000000e+000 -3.153627e-002
    outer loop
      vertex   -7.988056e+001 6.554114e+001 -4.999990e-001
      vertex   -7.474361e+001 5.596594e+001 -4.999990e-001
      vertex   -7.474361e+001 5.519540e+001 -4.999990e-001
    endloop
  endfacet
  facet normal 8.855662e-001 -4.645131e-001 0.000000e+000
    outer loop
      vertex   -7.474361e+001 5.347028e+001 9.536743e-007
      vertex   -7.988056e+001 4.367700e+001 9.536743e-007
      vertex   -7.474361e+001 5.347028e+001 -4.999990e-001
    endloop
  endfacet
  facet normal 3.999820e-002 -2.098057e-002 0.000000e+000
    outer loop
      vertex   -7.474361e+001 5.347028e+001 -4.999990e-001
      vertex   -7.988056e+001 4.367700e+001 9.536743e-007
      vertex   -7.988056e+001 4.367700e+001 -4.999990e-001
    endloop
  endfacet
  facet normal -8.855662e-001 4.645131e-001 0.000000e+000
    outer loop
      vertex   -7.988056e+001 4.453671e+001 9.536743e-007
      vertex   -7.474361e+001 5.432999e+001 9.536743e-007
      vertex   -7.988056e+001 4.453671e+001 -4.999990e-001
    endloop
  endfacet
  facet normal -3.999820e-002 2.098057e-002 0.000000e+000
    outer loop
      vertex   -7.988056e+001 4.453671e+001 -4.999990e-001
      vertex   -7.474361e+001 5.432999e+001 9.536743e-007
      vertex   -7.474361e+001 5.432999e+001 -4.999990e-001
    endloop
  endfacet
  facet normal 0.000000e+000 0.000000e+000 -4.645131e-001
    outer loop
      vertex   -7.988056e+001 4.367700e+001 -4.999990e-001
      vertex   -7.988056e+001 4.453671e+001 -4.999990e-001
      vertex   -7.474361e+001 5.347028e+001 -4.999990e-001
    endloop
  endfacet
  facet normal -0.000000e+000 0.000000e+000 -4.984817e-001
    outer loop
      vertex   -7.474361e+001 5.347028e+001 -4.999990e-001
      vertex   -7.988056e+001 4.453671e+001 -4.999990e-001
      vertex   -7.474361e+001 5.432999e+001 -4.999990e-001
    endloop
  endfacet
  facet normal -0.000000e+000 1.000000e+000 0.000000e+000
    outer loop
      vertex   -7.988056e+001 5.519540e+001 9.536743e-007
      vertex   -7.474361e+001 5.519540e+001 9.536743e-007
      vertex   -7.988056e+001 5.519540e+001 -4.999990e-001
    endloop
  endfacet
  facet normal 0.000000e+000 9.687625e-002 0.000000e+000
    outer loop
      vertex   -7.988056e+001 5.519540e+001 -4.999990e-001
      vertex   -7.474361e+001 5.519540e+001 9.536743e-007
      vertex   -7.474361e+001 5.519540e+001 -4.999990e-001
    endloop
  endfacet
  facet normal 0.000000e+000 0.000000e+000 -1.000000e+000
    outer loop
      vertex   -7.988056e+001 5.519540e+001 -4.999990e-001
      vertex   -7.474361e+001 5.519540e+001 -4.999990e-001
      vertex   -7.988056e+001 5.432999e+001 -4.999990e-001
    endloop
  endfacet
  facet normal 0.000000e+000 0.000000e+000 -1.661275e-001
    outer loop
      vertex   -7.988056e+001 5.432999e+001 -4.999990e-001
      vertex   -7.474361e+001 5.519540e+001 -4.999990e-001
      vertex   -7.474361e+001 5.432999e+001 -4.999990e-001
    endloop
  endfacet
  facet normal 1.000000e+000 -0.000000e+000 0.000000e+000
    outer loop
      vertex   -7.988056e+001 6.638667e+001 9.536743e-007
      vertex   -7.988056e+001 6.638667e+001 -4.999990e-001
      vertex   -7.988056e+001 6.679641e+001 9.536743e-007
    endloop
  endfacet
  facet normal 6.338360e-001 0.000000e+000 0.000000e+000
    outer loop
      vertex   -7.988056e+001 6.679641e+001 9.536743e-007
      vertex   -7.988056e+001 6.638667e+001 -4.999990e-001
      vertex   -7.988056e+001 6.679641e+001 -9.999990e-001
    endloop
  endfacet
  facet normal 7.734675e-001 0.000000e+000 0.000000e+000
    outer loop
      vertex   -7.988056e+001 6.679641e+001 -9.999990e-001
      vertex   -7.988056e+001 6.638667e+001 -4.999990e-001
      vertex   -7.988056e+001 6.529641e+001 -9.999990e-001
    endloop
  endfacet
  facet normal 6.331629e-001 0.000000e+000 0.000000e+000
    outer loop
      vertex   -7.988056e+001 6.529641e+001 -9.999990e-001
      vertex   -7.988056e+001 6.638667e+001 -4.999990e-001
      vertex   -7.988056e+001 6.554114e+001 -4.999990e-001
    endloop
  endfacet
  facet normal 4.396213e-001 0.000000e+000 0.000000e+000
    outer loop
      vertex   -7.988056e+001 6.529641e+001 -9.999990e-001
      vertex   -7.988056e+001 6.554114e+001 -4.999990e-001
      vertex   -7.988056e+001 6.529641e+001 9.536743e-007
    endloop
  endfacet
  facet normal 8.981832e-001 -0.000000e+000 0.000000e+000
    outer loop
      vertex   -7.988056e+001 6.529641e+001 9.536743e-007
      vertex   -7.988056e+001 6.554114e+001 -4.999990e-001
      vertex   -7.988056e+001 6.554114e+001 9.536743e-007
    endloop
  endfacet
  facet normal -1.000000e+000 0.000000e+000 0.000000e+000
    outer loop
      vertex   -7.474361e+001 5.347028e+001 -4.999990e-001
      vertex   -7.474361e+001 5.432999e+001 -4.999990e-001
      vertex   -7.474361e+001 5.347028e+001 -9.999990e-001
    endloop
  endfacet
  facet normal -5.027469e-001 0.000000e+000 0.000000e+000
    outer loop
      vertex   -7.474361e+001 5.347028e+001 -9.999990e-001
      vertex   -7.474361e+001 5.432999e+001 -4.999990e-001
      vertex   -7.474361e+001 5.596594e+001 -9.999990e-001
    endloop
  endfacet
  facet normal -2.753784e-001 0.000000e+000 0.000000e+000
    outer loop
      vertex   -7.474361e+001 5.596594e+001 -9.999990e-001
      vertex   -7.474361e+001 5.432999e+001 -4.999990e-001
      vertex   -7.474361e+001 5.519540e+001 -4.999990e-001
    endloop
  endfacet
  facet normal -8.388662e-001 0.000000e+000 0.000000e+000
    outer loop
      vertex   -7.474361e+001 5.596594e+001 -9.999990e-001
      vertex   -7.474361e+001 5.519540e+001 -4.999990e-001
      vertex   -7.474361e+001 5.596594e+001 -4.999990e-001
    endloop
  endfacet
  facet normal 1.000000e+000 -0.000000e+000 0.000000e+000
    outer loop
      vertex   -7.988056e+001 5.519540e+001 9.536743e-007
      vertex   -7.988056e+001 5.519540e+001 -4.999990e-001
      vertex   -7.988056e+001 5.549641e+001 9.536743e-007
    endloop
  endfacet
  facet normal 5.157630e-001 0.000000e+000 0.000000e+000
    outer loop
      vertex   -7.988056e+001 5.549641e+001 9.536743e-007
      vertex   -7.988056e+001 5.519540e+001 -4.999990e-001
      vertex   -7.988056e+001 5.549641e+001 -9.999990e-001
    endloop
  endfacet
  facet normal 5.842291e-001 0.000000e+000 0.000000e+000
    outer loop
      vertex   -7.988056e+001 5.549641e+001 -9.999990e-001
      vertex   -7.988056e+001 5.519540e+001 -4.999990e-001
      vertex   -7.988056e+001 5.432999e+001 -4.999990e-001
    endloop
  endfacet
  facet normal 3.939897e-001 0.000000e+000 0.000000e+000
    outer loop
      vertex   -7.988056e+001 5.549641e+001 -9.999990e-001
      vertex   -7.988056e+001 5.432999e+001 -4.999990e-001
      vertex   -7.988056e+001 5.399641e+001 -9.999990e-001
    endloop
  endfacet
  facet normal 5.549843e-001 0.000000e+000 0.000000e+000
    outer loop
      vertex   -7.988056e+001 5.399641e+001 -9.999990e-001
      vertex   -7.988056e+001 5.432999e+001 -4.999990e-001
      vertex   -7.988056e+001 5.399641e+001 9.536743e-007
    endloop
  endfacet
  facet normal 8.318608e-001 -0.000000e+000 0.000000e+000
    outer loop
      vertex   -7.988056e+001 5.399641e+001 9.536743e-007
      vertex   -7.988056e+001 5.432999e+001 -4.999990e-001
      vertex   -7.988056e+001 5.432999e+001 9.536743e-007
    endloop
  endfacet
  facet normal -0.000000e+000 -1.000000e+000 -0.000000e+000
    outer loop
      vertex   -7.988056e+001 5.399641e+001 9.536743e-007
      vertex   -8.138056e+001 5.399641e+001 9.536743e-007
      vertex   -7.988056e+001 5.399641e+001 -9.999990e-001
    endloop
  endfacet
  facet normal 0.000000e+000 -5.547002e-001 0.000000e+000
    outer loop
      vertex   -7.988056e+001 5.399641e+001 -9.999990e-001
      vertex   -8.138056e+001 5.399641e+001 9.536743e-007
      vertex   -8.138056e+001 5.399641e+001 -9.999990e-001
    endloop
  endfacet
  facet normal -0.000000e+000 1.000000e+000 0.000000e+000
    outer loop
      vertex   -8.138056e+001 5.549641e+001 9.536743e-007
      vertex   -7.988056e+001 5.549641e+001 9.536743e-007
      vertex   -8.138056e+001 5.549641e+001 -9.999990e-001
    endloop
  endfacet
  facet normal 0.000000e+000 5.547002e-001 0.000000e+000
    outer loop
      vertex   -8.138056e+001 5.549641e+001 -9.999990e-001
      vertex   -7.988056e+001 5.549641e+001 9.536743e-007
      vertex   -7.988056e+001 5.549641e+001 -9.999990e-001
    endloop
  endfacet
  facet normal -1.000000e+000 0.000000e+000 0.000000e+000
    outer loop
      vertex   -8.138056e+001 5.399641e+001 9.536743e-007
      vertex   -8.138056e+001 5.549641e+001 9.536743e-007
      vertex   -8.138056e+001 5.399641e+001 -9.999990e-001
    endloop
  endfacet
  facet normal -5.547002e-001 0.000000e+000 0.000000e+000
    outer loop
      vertex   -8.138056e+001 5.399641e+001 -9.999990e-001
      vertex   -8.138056e+001 5.549641e+001 9.536743e-007
      vertex   -8.138056e+001 5.549641e+001 -9.999990e-001
    endloop
  endfacet
  facet normal 0.000000e+000 0.000000e+000 -1.000000e+000
    outer loop
      vertex   -8.138056e+001 5.549641e+001 -9.999990e-001
      vertex   -7.988056e+001 5.549641e+001 -9.999990e-001
      vertex   -8.138056e+001 5.399641e+001 -9.999990e-001
    endloop
  endfacet
  facet normal 0.000000e+000 0.000000e+000 -7.071068e-001
    outer loop
      vertex   -8.138056e+001 5.399641e+001 -9.999990e-001
      vertex   -7.988056e+001 5.549641e+001 -9.999990e-001
      vertex   -7.988056e+001 5.399641e+001 -9.999990e-001
    endloop
  endfacet
  facet normal 0.000000e+000 -1.000000e+000 0.000000e+000
    outer loop
      vertex   -7.474361e+001 5.347028e+001 9.536743e-007
      vertex   -7.474361e+001 5.347028e+001 -4.999990e-001
      vertex   -7.408112e+001 5.347028e+001 9.536743e-007
    endloop
  endfacet
  facet normal 0.000000e+000 -7.981885e-001 -0.000000e+000
    outer loop
      vertex   -7.408112e+001 5.347028e+001 9.536743e-007
      vertex   -7.474361e+001 5.347028e+001 -4.999990e-001
      vertex   -7.408112e+001 5.347028e+001 -9.999990e-001
    endloop
  endfacet
  facet normal 0.000000e+000 -6.024078e-001 0.000000e+000
    outer loop
      vertex   -7.408112e+001 5.347028e+001 -9.999990e-001
      vertex   -7.474361e+001 5.347028e+001 -4.999990e-001
      vertex   -7.474361e+001 5.347028e+001 -9.999990e-001
    endloop
  endfacet
  facet normal 1.000000e+000 0.000000e+000 0.000000e+000
    outer loop
      vertex   -7.408112e+001 5.596594e+001 9.536743e-007
      vertex   -7.408112e+001 5.347028e+001 9.536743e-007
      vertex   -7.408112e+001 5.596594e+001 -9.999990e-001
    endloop
  endfacet
  facet normal 3.719469e-001 0.000000e+000 0.000000e+000
    outer loop
      vertex   -7.408112e+001 5.596594e+001 -9.999990e-001
      vertex   -7.408112e+001 5.347028e+001 9.536743e-007
      vertex   -7.408112e+001 5.347028e+001 -9.999990e-001
    endloop
  endfacet
  facet normal -0.000000e+000 1.000000e+000 0.000000e+000
    outer loop
      vertex   -7.474361e+001 5.596594e+001 9.536743e-007
      vertex   -7.408112e+001 5.596594e+001 9.536743e-007
      vertex   -7.474361e+001 5.596594e+001 -4.999990e-001
    endloop
  endfacet
  facet normal -0.000000e+000 9.616699e-001 0.000000e+000
    outer loop
      vertex   -7.474361e+001 5.596594e+001 -4.999990e-001
      vertex   -7.408112e+001 5.596594e+001 9.536743e-007
      vertex   -7.408112e+001 5.596594e+001 -9.999990e-001
    endloop
  endfacet
  facet normal 0.000000e+000 7.981885e-001 0.000000e+000
    outer loop
      vertex   -7.474361e+001 5.596594e+001 -4.999990e-001
      vertex   -7.408112e+001 5.596594e+001 -9.999990e-001
      vertex   -7.474361e+001 5.596594e+001 -9.999990e-001
    endloop
  endfacet
  facet normal 0.000000e+000 0.000000e+000 -1.000000e+000
    outer loop
      vertex   -7.474361e+001 5.596594e+001 -9.999990e-001
      vertex   -7.408112e+001 5.596594e+001 -9.999990e-001
      vertex   -7.474361e+001 5.347028e+001 -9.999990e-001
    endloop
  endfacet
  facet normal 0.000000e+000 0.000000e+000 -9.665247e-001
    outer loop
      vertex   -7.474361e+001 5.347028e+001 -9.999990e-001
      vertex   -7.408112e+001 5.596594e+001 -9.999990e-001
      vertex   -7.408112e+001 5.347028e+001 -9.999990e-001
    endloop
  endfacet
  facet normal -0.000000e+000 1.000000e+000 0.000000e+000
    outer loop
      vertex   -8.138056e+001 4.479641e+001 9.536743e-007
      vertex   -7.988056e+001 4.479641e+001 9.536743e-007
      vertex   -8.138056e+001 4.479641e+001 -9.999990e-001
    endloop
  endfacet
  facet normal 0.000000e+000 5.547002e-001 0.000000e+000
    outer loop
      vertex   -8.138056e+001 4.479641e+001 -9.999990e-001
      vertex   -7.988056e+001 4.479641e+001 9.536743e-007
      vertex   -7.988056e+001 4.479641e+001 -9.999990e-001
    endloop
  endfacet
  facet normal -1.000000e+000 0.000000e+000 0.000000e+000
    outer loop
      vertex   -8.138056e+001 4.329641e+001 9.536743e-007
      vertex   -8.138056e+001 4.479641e+001 9.536743e-007
      vertex   -8.138056e+001 4.329641e+001 -9.999990e-001
    endloop
  endfacet
  facet normal -5.547002e-001 0.000000e+000 0.000000e+000
    outer loop
      vertex   -8.138056e+001 4.329641e+001 -9.999990e-001
      vertex   -8.138056e+001 4.479641e+001 9.536743e-007
      vertex   -8.138056e+001 4.479641e+001 -9.999990e-001
    endloop
  endfacet
  facet normal -0.000000e+000 -1.000000e+000 -0.000000e+000
    outer loop
      vertex   -7.988056e+001 4.329641e+001 9.536743e-007
      vertex   -8.138056e+001 4.329641e+001 9.536743e-007
      vertex   -7.988056e+001 4.329641e+001 -9.999990e-001
    endloop
  endfacet
  facet normal 0.000000e+000 -5.547002e-001 0.000000e+000
    outer loop
      vertex   -7.988056e+001 4.329641e+001 -9.999990e-001
      vertex   -8.138056e+001 4.329641e+001 9.536743e-007
      vertex   -8.138056e+001 4.329641e+001 -9.999990e-001
    endloop
  endfacet
  facet normal 1.000000e+000 0.000000e+000 0.000000e+000
    outer loop
      vertex   -7.988056e+001 4.367700e+001 9.536743e-007
      vertex   -7.988056e+001 4.329641e+001 9.536743e-007
      vertex   -7.988056e+001 4.367700e+001 -4.999990e-001
    endloop
  endfacet
  facet normal 9.638845e-001 0.000000e+000 0.000000e+000
    outer loop
      vertex   -7.988056e+001 4.367700e+001 -4.999990e-001
      vertex   -7.988056e+001 4.329641e+001 9.536743e-007
      vertex   -7.988056e+001 4.329641e+001 -9.999990e-001
    endloop
  endfacet
  facet normal 9.735438e-001 0.000000e+000 0.000000e+000
    outer loop
      vertex   -7.988056e+001 4.367700e+001 -4.999990e-001
      vertex   -7.988056e+001 4.329641e+001 -9.999990e-001
      vertex   -7.988056e+001 4.479641e+001 -9.999990e-001
    endloop
  endfacet
  facet normal 4.078284e-001 -0.000000e+000 0.000000e+000
    outer loop
      vertex   -7.988056e+001 4.367700e+001 -4.999990e-001
      vertex   -7.988056e+001 4.479641e+001 -9.999990e-001
      vertex   -7.988056e+001 4.453671e+001 -4.999990e-001
    endloop
  endfacet
  facet normal 8.181052e-001 -0.000000e+000 0.000000e+000
    outer loop
      vertex   -7.988056e+001 4.453671e+001 -4.999990e-001
      vertex   -7.988056e+001 4.479641e+001 -9.999990e-001
      vertex   -7.988056e+001 4.479641e+001 9.536743e-007
    endloop
  endfacet
  facet normal 4.609400e-001 0.000000e+000 0.000000e+000
    outer loop
      vertex   -7.988056e+001 4.453671e+001 -4.999990e-001
      vertex   -7.988056e+001 4.479641e+001 9.536743e-007
      vertex   -7.988056e+001 4.453671e+001 9.536743e-007
    endloop
  endfacet
  facet normal 0.000000e+000 0.000000e+000 -1.000000e+000
    outer loop
      vertex   -7.988056e+001 4.329641e+001 -9.999990e-001
      vertex   -8.138056e+001 4.329641e+001 -9.999990e-001
      vertex   -7.988056e+001 4.479641e+001 -9.999990e-001
    endloop
  endfacet
  facet normal -0.000000e+000 0.000000e+000 -7.071068e-001
    outer loop
      vertex   -7.988056e+001 4.479641e+001 -9.999990e-001
      vertex   -8.138056e+001 4.329641e+001 -9.999990e-001
      vertex   -8.138056e+001 4.479641e+001 -9.999990e-001
    endloop
  endfacet
  facet normal -0.000000e+000 -1.000000e+000 -0.000000e+000
    outer loop
      vertex   -7.988056e+001 6.529641e+001 9.536743e-007
      vertex   -8.138056e+001 6.529641e+001 9.536743e-007
      vertex   -7.988056e+001 6.529641e+001 -9.999990e-001
    endloop
  endfacet
  facet normal 0.000000e+000 -5.547002e-001 0.000000e+000
    outer loop
      vertex   -7.988056e+001 6.529641e+001 -9.999990e-001
      vertex   -8.138056e+001 6.529641e+001 9.536743e-007
      vertex   -8.138056e+001 6.529641e+001 -9.999990e-001
    endloop
  endfacet
  facet normal -0.000000e+000 1.000000e+000 0.000000e+000
    outer loop
      vertex   -8.138056e+001 6.679641e+001 9.536743e-007
      vertex   -7.988056e+001 6.679641e+001 9.536743e-007
      vertex   -8.138056e+001 6.679641e+001 -9.999990e-001
    endloop
  endfacet
  facet normal 0.000000e+000 5.547002e-001 0.000000e+000
    outer loop
      vertex   -8.138056e+001 6.679641e+001 -9.999990e-001
      vertex   -7.988056e+001 6.679641e+001 9.536743e-007
      vertex   -7.988056e+001 6.679641e+001 -9.999990e-001
    endloop
  endfacet
  facet normal -1.000000e+000 0.000000e+000 0.000000e+000
    outer loop
      vertex   -8.138056e+001 6.529641e+001 9.536743e-007
      vertex   -8.138056e+001 6.679641e+001 9.536743e-007
      vertex   -8.138056e+001 6.529641e+001 -9.999990e-001
    endloop
  endfacet
  facet normal -5.547002e-001 0.000000e+000 0.000000e+000
    outer loop
      vertex   -8.138056e+001 6.529641e+001 -9.999990e-001
      vertex   -8.138056e+001 6.679641e+001 9.536743e-007
      vertex   -8.138056e+001 6.679641e+001 -9.999990e-001
    endloop
  endfacet
  facet normal 0.000000e+000 0.000000e+000 -1.000000e+000
    outer loop
      vertex   -8.138056e+001 6.679641e+001 -9.999990e-001
      vertex   -7.988056e+001 6.679641e+001 -9.999990e-001
      vertex   -8.138056e+001 6.529641e+001 -9.999990e-001
    endloop
  endfacet
  facet normal 0.000000e+000 0.000000e+000 -7.071068e-001
    outer loop
      vertex   -8.138056e+001 6.529641e+001 -9.999990e-001
      vertex   -7.988056e+001 6.679641e+001 -9.999990e-001
      vertex   -7.988056e+001 6.529641e+001 -9.999990e-001
    endloop
  endfacet
  facet normal 1.000000e+000 0.000000e+000 0.000000e+000
    outer loop
      vertex   -7.400000e+001 4.000000e+001 0.000000e+000
      vertex   -7.400000e+001 7.500000e+001 0.000000e+000
      vertex   -7.400000e+001 4.000000e+001 1.500000e+000
    endloop
  endfacet
  facet normal 4.281784e-002 -0.000000e+000 0.000000e+000
    outer loop
      vertex   -7.400000e+001 4.000000e+001 1.500000e+000
      vertex   -7.400000e+001 7.500000e+001 0.000000e+000
      vertex   -7.400000e+001 7.500000e+001 1.500000e+000
    endloop
  endfacet
  facet normal -3.073642e-001 -9.515920e-001 0.000000e+000
    outer loop
      vertex   -8.194403e+001 4.256592e+001 0.000000e+000
      vertex   -7.400000e+001 4.000000e+001 0.000000e+000
      vertex   -8.194403e+001 4.256592e+001 1.500000e+000
    endloop
  endfacet
  facet normal -5.435688e-002 -1.682876e-001 -5.551115e-017
    outer loop
      vertex   -8.194403e+001 4.256592e+001 1.500000e+000
      vertex   -7.400000e+001 4.000000e+001 0.000000e+000
      vertex   -7.400000e+001 4.000000e+001 1.500000e+000
    endloop
  endfacet
  facet normal -9.866039e-001 -1.631345e-001 0.000000e+000
    outer loop
      vertex   -8.400000e+001 5.500000e+001 0.000000e+000
      vertex   -8.194403e+001 4.256592e+001 0.000000e+000
      vertex   -8.400000e+001 5.500000e+001 1.500000e+000
    endloop
  endfacet
  facet normal -1.166027e-001 -1.928021e-002 0.000000e+000
    outer loop
      vertex   -8.400000e+001 5.500000e+001 1.500000e+000
      vertex   -8.194403e+001 4.256592e+001 0.000000e+000
      vertex   -8.194403e+001 4.256592e+001 1.500000e+000
    endloop
  endfacet
  facet normal -9.922695e-001 1.241017e-001 0.000000e+000
    outer loop
      vertex   -8.194403e+001 7.143874e+001 0.000000e+000
      vertex   -8.400000e+001 5.500000e+001 0.000000e+000
      vertex   -8.194403e+001 7.143874e+001 1.500000e+000
    endloop
  endfacet
  facet normal -8.947651e-002 1.119069e-002 0.000000e+000
    outer loop
      vertex   -8.194403e+001 7.143874e+001 1.500000e+000
      vertex   -8.400000e+001 5.500000e+001 0.000000e+000
      vertex   -8.400000e+001 5.500000e+001 1.500000e+000
    endloop
  endfacet
  facet normal -4.090692e-001 9.125034e-001 0.000000e+000
    outer loop
      vertex   -7.400000e+001 7.500000e+001 0.000000e+000
      vertex   -8.194403e+001 7.143874e+001 0.000000e+000
      vertex   -7.400000e+001 7.500000e+001 1.500000e+000
    endloop
  endfacet
  facet normal -6.945907e-002 1.549411e-001 0.000000e+000
    outer loop
      vertex   -7.400000e+001 7.500000e+001 1.500000e+000
      vertex   -8.194403e+001 7.143874e+001 0.000000e+000
      vertex   -8.194403e+001 7.143874e+001 1.500000e+000
    endloop
  endfacet
  facet normal 0.000000e+000 0.000000e+000 9.125034e-001
    outer loop
      vertex   -7.400000e+001 7.500000e+001 1.500000e+000
      vertex   -8.194403e+001 7.143874e+001 1.500000e+000
      vertex   -7.400000e+001 4.000000e+001 1.500000e+000
    endloop
  endfacet
  facet normal 0.000000e+000 0.000000e+000 8.472955e-001
    outer loop
      vertex   -7.400000e+001 4.000000e+001 1.500000e+000
      vertex   -8.194403e+001 7.143874e+001 1.500000e+000
      vertex   -8.194403e+001 4.256592e+001 1.500000e+000
    endloop
  endfacet
  facet normal 0.000000e+000 -0.000000e+000 1.631345e-001
    outer loop
      vertex   -8.194403e+001 4.256592e+001 1.500000e+000
      vertex   -8.194403e+001 7.143874e+001 1.500000e+000
      vertex   -8.400000e+001 5.500000e+001 1.500000e+000
    endloop
  endfacet
  facet normal -7.730754e-008 -0.000000e+000 -1.159613e-003
    outer loop
      vertex   -7.401431e+001 5.233610e+001 9.536743e-007
      vertex   -7.400000e+001 4.000000e+001 0.000000e+000
      vertex   -7.401431e+001 5.083610e+001 9.536743e-007
    endloop
  endfacet
  facet normal -8.800891e-008 -0.000000e+000 -1.320134e-003
    outer loop
      vertex   -7.401431e+001 5.083610e+001 9.536743e-007
      vertex   -7.400000e+001 4.000000e+001 0.000000e+000
      vertex   -7.401431e+001 4.312214e+001 9.536743e-007
    endloop
  endfacet
  facet normal 0.000000e+000 -0.000000e+000 -9.260050e-002
    outer loop
      vertex   -7.401431e+001 5.083610e+001 9.536743e-007
      vertex   -7.401431e+001 4.312214e+001 9.536743e-007
      vertex   -7.473170e+001 4.312214e+001 9.536743e-007
    endloop
  endfacet
  facet normal 0.000000e+000 0.000000e+000 -8.674225e-001
    outer loop
      vertex   -7.473170e+001 5.233610e+001 9.536743e-007
      vertex   -7.408112e+001 5.347028e+001 9.536743e-007
      vertex   -7.401431e+001 5.233610e+001 9.536743e-007
    endloop
  endfacet
  facet normal 0.000000e+000 0.000000e+000 -4.042376e-002
    outer loop
      vertex   -7.401431e+001 5.233610e+001 9.536743e-007
      vertex   -7.408112e+001 5.347028e+001 9.536743e-007
      vertex   -7.408112e+001 5.596594e+001 9.536743e-007
    endloop
  endfacet
  facet normal 0.000000e+000 0.000000e+000 -1.840282e-002
    outer loop
      vertex   -7.401431e+001 5.233610e+001 9.536743e-007
      vertex   -7.408112e+001 5.596594e+001 9.536743e-007
      vertex   -7.401431e+001 6.362141e+001 9.536743e-007
    endloop
  endfacet
  facet normal -0.000000e+000 0.000000e+000 -9.999619e-001
    outer loop
      vertex   -7.401431e+001 6.362141e+001 9.536743e-007
      vertex   -7.408112e+001 5.596594e+001 9.536743e-007
      vertex   -7.473170e+001 6.362141e+001 9.536743e-007
    endloop
  endfacet
  facet normal 0.000000e+000 -0.000000e+000 -8.622833e-002
    outer loop
      vertex   -7.473170e+001 6.362141e+001 9.536743e-007
      vertex   -7.408112e+001 5.596594e+001 9.536743e-007
      vertex   -7.474361e+001 5.596594e+001 9.536743e-007
    endloop
  endfacet
  facet normal -0.000000e+000 0.000000e+000 -8.817198e-001
    outer loop
      vertex   -7.473170e+001 6.362141e+001 9.536743e-007
      vertex   -7.474361e+001 5.596594e+001 9.536743e-007
      vertex   -7.988056e+001 6.638667e+001 9.536743e-007
    endloop
  endfacet
  facet normal -0.000000e+000 0.000000e+000 -5.838792e-001
    outer loop
      vertex   -7.473170e+001 5.083610e+001 9.536743e-007
      vertex   -7.988056e+001 4.367700e+001 9.536743e-007
      vertex   -7.473170e+001 5.233610e+001 9.536743e-007
    endloop
  endfacet
  facet normal -0.000000e+000 0.000000e+000 -5.200869e-001
    outer loop
      vertex   -7.473170e+001 5.233610e+001 9.536743e-007
      vertex   -7.988056e+001 4.367700e+001 9.536743e-007
      vertex   -7.474361e+001 5.347028e+001 9.536743e-007
    endloop
  endfacet
  facet normal 0.000000e+000 0.000000e+000 -5.066527e-001
    outer loop
      vertex   -7.473170e+001 5.233610e+001 9.536743e-007
      vertex   -7.474361e+001 5.347028e+001 9.536743e-007
      vertex   -7.408112e+001 5.347028e+001 9.536743e-007
    endloop
  endfacet
  facet normal 0.000000e+000 0.000000e+000 -8.697264e-001
    outer loop
      vertex   -7.988056e+001 4.367700e+001 9.536743e-007
      vertex   -7.473170e+001 5.083610e+001 9.536743e-007
      vertex   -7.473170e+001 4.312214e+001 9.536743e-007
    endloop
  endfacet
  facet normal 0.000000e+000 0.000000e+000 -9.260050e-002
    outer loop
      vertex   -7.473170e+001 4.312214e+001 9.536743e-007
      vertex   -7.473170e+001 5.083610e+001 9.536743e-007
      vertex   -7.401431e+001 5.083610e+001 9.536743e-007
    endloop
  endfacet
  facet normal -3.329004e-007 0.000000e+000 -4.993506e-003
    outer loop
      vertex   -7.401431e+001 7.213529e+001 9.536743e-007
      vertex   -7.401431e+001 7.363529e+001 9.536743e-007
      vertex   -7.400000e+001 7.500000e+001 0.000000e+000
    endloop
  endfacet
  facet normal 0.000000e+000 -3.237348e-007 -4.632645e-001
    outer loop
      vertex   -7.400000e+001 7.500000e+001 0.000000e+000
      vertex   -7.401431e+001 7.363529e+001 9.536743e-007
      vertex   -7.473170e+001 7.363529e+001 9.536743e-007
    endloop
  endfacet
  facet normal 2.519351e-007 -5.619871e-007 -6.109068e-001
    outer loop
      vertex   -7.400000e+001 7.500000e+001 0.000000e+000
      vertex   -7.473170e+001 7.363529e+001 9.536743e-007
      vertex   -8.194403e+001 7.143874e+001 0.000000e+000
    endloop
  endfacet
  facet normal 1.702793e-007 -1.281998e-007 -9.924902e-001
    outer loop
      vertex   -8.194403e+001 7.143874e+001 0.000000e+000
      vertex   -7.473170e+001 7.363529e+001 9.536743e-007
      vertex   -7.988056e+001 6.679641e+001 9.536743e-007
    endloop
  endfacet
  facet normal 0.000000e+000 -6.021327e-008 -2.931086e-001
    outer loop
      vertex   -8.194403e+001 7.143874e+001 0.000000e+000
      vertex   -7.988056e+001 6.679641e+001 9.536743e-007
      vertex   -8.138056e+001 6.679641e+001 9.536743e-007
    endloop
  endfacet
  facet normal 0.000000e+000 -0.000000e+000 -6.014714e-001
    outer loop
      vertex   -7.473170e+001 7.363529e+001 9.536743e-007
      vertex   -7.473170e+001 7.213529e+001 9.536743e-007
      vertex   -7.988056e+001 6.679641e+001 9.536743e-007
    endloop
  endfacet
  facet normal 0.000000e+000 0.000000e+000 -8.992414e-001
    outer loop
      vertex   -7.988056e+001 6.679641e+001 9.536743e-007
      vertex   -7.473170e+001 7.213529e+001 9.536743e-007
      vertex   -7.473170e+001 6.512141e+001 9.536743e-007
    endloop
  endfacet
  facet normal 0.000000e+000 0.000000e+000 -9.509459e-001
    outer loop
      vertex   -7.988056e+001 6.679641e+001 9.536743e-007
      vertex   -7.473170e+001 6.512141e+001 9.536743e-007
      vertex   -7.988056e+001 6.638667e+001 9.536743e-007
    endloop
  endfacet
  facet normal 0.000000e+000 0.000000e+000 -2.492387e-001
    outer loop
      vertex   -7.988056e+001 6.638667e+001 9.536743e-007
      vertex   -7.473170e+001 6.512141e+001 9.536743e-007
      vertex   -7.473170e+001 6.362141e+001 9.536743e-007
    endloop
  endfacet
  facet normal 0.000000e+000 0.000000e+000 -1.000000e+000
    outer loop
      vertex   -7.473170e+001 7.213529e+001 9.536743e-007
      vertex   -7.401431e+001 7.213529e+001 9.536743e-007
      vertex   -7.473170e+001 6.512141e+001 9.536743e-007
    endloop
  endfacet
  facet normal 0.000000e+000 0.000000e+000 -9.948098e-001
    outer loop
      vertex   -7.473170e+001 6.512141e+001 9.536743e-007
      vertex   -7.401431e+001 7.213529e+001 9.536743e-007
      vertex   -7.401431e+001 6.512141e+001 9.536743e-007
    endloop
  endfacet
  facet normal -9.653938e-008 0.000000e+000 -1.448091e-003
    outer loop
      vertex   -7.401431e+001 6.512141e+001 9.536743e-007
      vertex   -7.401431e+001 7.213529e+001 9.536743e-007
      vertex   -7.400000e+001 7.500000e+001 0.000000e+000
    endloop
  endfacet
  facet normal -9.653938e-008 -0.000000e+000 -1.448091e-003
    outer loop
      vertex   -7.401431e+001 6.512141e+001 9.536743e-007
      vertex   -7.400000e+001 7.500000e+001 0.000000e+000
      vertex   -7.401431e+001 6.362141e+001 9.536743e-007
    endloop
  endfacet
  facet normal -8.381298e-008 -0.000000e+000 -1.257195e-003
    outer loop
      vertex   -7.401431e+001 6.362141e+001 9.536743e-007
      vertex   -7.400000e+001 7.500000e+001 0.000000e+000
      vertex   -7.401431e+001 5.233610e+001 9.536743e-007
    endloop
  endfacet
  facet normal 0.000000e+000 5.359147e-007 -9.115544e-001
    outer loop
      vertex   -7.473170e+001 4.162214e+001 9.536743e-007
      vertex   -7.401431e+001 4.162214e+001 9.536743e-007
      vertex   -7.400000e+001 4.000000e+001 0.000000e+000
    endloop
  endfacet
  facet normal -2.824432e-007 -4.135903e-025 -4.236648e-003
    outer loop
      vertex   -7.400000e+001 4.000000e+001 0.000000e+000
      vertex   -7.401431e+001 4.162214e+001 9.536743e-007
      vertex   -7.401431e+001 4.312214e+001 9.536743e-007
    endloop
  endfacet
  facet normal 0.000000e+000 0.000000e+000 -9.942435e-001
    outer loop
      vertex   -7.988056e+001 4.367700e+001 9.536743e-007
      vertex   -7.473170e+001 4.312214e+001 9.536743e-007
      vertex   -7.988056e+001 4.329641e+001 9.536743e-007
    endloop
  endfacet
  facet normal 0.000000e+000 0.000000e+000 -2.768889e-001
    outer loop
      vertex   -7.988056e+001 4.329641e+001 9.536743e-007
      vertex   -7.473170e+001 4.312214e+001 9.536743e-007
      vertex   -7.473170e+001 4.162214e+001 9.536743e-007
    endloop
  endfacet
  facet normal 4.374580e-008 1.345301e-007 -1.952627e-001
    outer loop
      vertex   -7.988056e+001 4.329641e+001 9.536743e-007
      vertex   -7.473170e+001 4.162214e+001 9.536743e-007
      vertex   -7.400000e+001 4.000000e+001 0.000000e+000
    endloop
  endfacet
  facet normal 2.039332e-007 0.000000e+000 -1.204919e-001
    outer loop
      vertex   -8.138056e+001 6.679641e+001 9.536743e-007
      vertex   -8.138056e+001 6.529641e+001 9.536743e-007
      vertex   -8.194403e+001 7.143874e+001 0.000000e+000
    endloop
  endfacet
  facet normal 1.534181e-007 -1.918777e-008 -2.142283e-001
    outer loop
      vertex   -8.194403e+001 7.143874e+001 0.000000e+000
      vertex   -8.138056e+001 6.529641e+001 9.536743e-007
      vertex   -8.400000e+001 5.500000e+001 0.000000e+000
    endloop
  endfacet
  facet normal 3.299532e-007 0.000000e+000 -9.062759e-001
    outer loop
      vertex   -8.400000e+001 5.500000e+001 0.000000e+000
      vertex   -8.138056e+001 6.529641e+001 9.536743e-007
      vertex   -8.138056e+001 5.549641e+001 9.536743e-007
    endloop
  endfacet
  facet normal 1.912807e-007 0.000000e+000 -5.253870e-001
    outer loop
      vertex   -8.400000e+001 5.500000e+001 0.000000e+000
      vertex   -8.138056e+001 5.549641e+001 9.536743e-007
      vertex   -8.138056e+001 5.399641e+001 9.536743e-007
    endloop
  endfacet
  facet normal 0.000000e+000 0.000000e+000 -1.000000e+000
    outer loop
      vertex   -8.138056e+001 6.529641e+001 9.536743e-007
      vertex   -7.988056e+001 6.529641e+001 9.536743e-007
      vertex   -8.138056e+001 5.549641e+001 9.536743e-007
    endloop
  endfacet
  facet normal 0.000000e+000 0.000000e+000 -9.884880e-001
    outer loop
      vertex   -8.138056e+001 5.549641e+001 9.536743e-007
      vertex   -7.988056e+001 6.529641e+001 9.536743e-007
      vertex   -7.988056e+001 5.549641e+001 9.536743e-007
    endloop
  endfacet
  facet normal 0.000000e+000 0.000000e+000 -9.982876e-001
    outer loop
      vertex   -7.988056e+001 5.549641e+001 9.536743e-007
      vertex   -7.988056e+001 6.529641e+001 9.536743e-007
      vertex   -7.474361e+001 5.519540e+001 9.536743e-007
    endloop
  endfacet
  facet normal 0.000000e+000 0.000000e+000 -9.982876e-001
    outer loop
      vertex   -7.988056e+001 5.549641e+001 9.536743e-007
      vertex   -7.474361e+001 5.519540e+001 9.536743e-007
      vertex   -7.988056e+001 5.519540e+001 9.536743e-007
    endloop
  endfacet
  facet normal 0.000000e+000 0.000000e+000 -4.533058e-001
    outer loop
      vertex   -7.988056e+001 6.529641e+001 9.536743e-007
      vertex   -7.988056e+001 6.554114e+001 9.536743e-007
      vertex   -7.474361e+001 5.519540e+001 9.536743e-007
    endloop
  endfacet
  facet normal 2.969107e-007 0.000000e+000 -8.155187e-001
    outer loop
      vertex   -8.400000e+001 5.500000e+001 0.000000e+000
      vertex   -8.138056e+001 5.399641e+001 9.536743e-007
      vertex   -8.138056e+001 4.479641e+001 9.536743e-007
    endloop
  endfacet
  facet normal 0.000000e+000 0.000000e+000 -1.609187e-001
    outer loop
      vertex   -8.138056e+001 4.479641e+001 9.536743e-007
      vertex   -8.138056e+001 5.399641e+001 9.536743e-007
      vertex   -7.988056e+001 5.399641e+001 9.536743e-007
    endloop
  endfacet
  facet normal 0.000000e+000 0.000000e+000 -9.869677e-001
    outer loop
      vertex   -8.138056e+001 4.479641e+001 9.536743e-007
      vertex   -7.988056e+001 5.399641e+001 9.536743e-007
      vertex   -7.988056e+001 4.479641e+001 9.536743e-007
    endloop
  endfacet
  facet normal 0.000000e+000 0.000000e+000 -4.743491e-001
    outer loop
      vertex   -7.988056e+001 4.479641e+001 9.536743e-007
      vertex   -7.988056e+001 5.399641e+001 9.536743e-007
      vertex   -7.474361e+001 5.432999e+001 9.536743e-007
    endloop
  endfacet
  facet normal 0.000000e+000 0.000000e+000 -4.743491e-001
    outer loop
      vertex   -7.988056e+001 4.479641e+001 9.536743e-007
      vertex   -7.474361e+001 5.432999e+001 9.536743e-007
      vertex   -7.988056e+001 4.453671e+001 9.536743e-007
    endloop
  endfacet
  facet normal 0.000000e+000 0.000000e+000 -9.978982e-001
    outer loop
      vertex   -7.988056e+001 5.399641e+001 9.536743e-007
      vertex   -7.988056e+001 5.432999e+001 9.536743e-007
      vertex   -7.474361e+001 5.432999e+001 9.536743e-007
    endloop
  endfacet
  facet normal 8.931636e-008 1.476842e-008 -8.731265e-002
    outer loop
      vertex   -8.400000e+001 5.500000e+001 0.000000e+000
      vertex   -8.138056e+001 4.479641e+001 9.536743e-007
      vertex   -8.194403e+001 4.256592e+001 0.000000e+000
    endloop
  endfacet
  facet normal 6.740049e-007 -5.293956e-023 -3.982290e-001
    outer loop
      vertex   -8.194403e+001 4.256592e+001 0.000000e+000
      vertex   -8.138056e+001 4.479641e+001 9.536743e-007
      vertex   -8.138056e+001 4.329641e+001 9.536743e-007
    endloop
  endfacet
  facet normal 0.000000e+000 7.083704e-007 -5.425947e-001
    outer loop
      vertex   -8.194403e+001 4.256592e+001 0.000000e+000
      vertex   -8.138056e+001 4.329641e+001 9.536743e-007
      vertex   -7.988056e+001 4.329641e+001 9.536743e-007
    endloop
  endfacet
  facet normal -4.207900e-008 -0.000000e+000 -6.311850e-004
    outer loop
      vertex   -7.400000e+001 7.500000e+001 0.000000e+000
      vertex   -7.400000e+001 4.000000e+001 0.000000e+000
      vertex   -7.401431e+001 5.233610e+001 9.536743e-007
    endloop
  endfacet
  facet normal 4.348096e-008 1.346160e-007 -1.971925e-001
    outer loop
      vertex   -7.400000e+001 4.000000e+001 0.000000e+000
      vertex   -8.194403e+001 4.256592e+001 0.000000e+000
      vertex   -7.988056e+001 4.329641e+001 9.536743e-007
    endloop
  endfacet
endsolid
