solid ascii
  facet normal 0.000000e+000 0.000000e+000 1.000000e+000
    outer loop
      vertex   -8.500001e+001 8.565826e+001 1.587545e+001
      vertex   -8.650001e+001 8.565826e+001 1.587545e+001
      vertex   -8.500001e+001 8.459754e+001 1.587545e+001
    endloop
  endfacet
  facet normal 0.000000e+000 0.000000e+000 5.773728e-001
    outer loop
      vertex   -8.500001e+001 8.459754e+001 1.587545e+001
      vertex   -8.650001e+001 8.565826e+001 1.587545e+001
      vertex   -8.700001e+001 8.459754e+001 1.587545e+001
    endloop
  endfacet
  facet normal 0.000000e+000 0.000000e+000 4.263810e-001
    outer loop
      vertex   -8.700001e+001 8.459754e+001 1.587545e+001
      vertex   -8.650001e+001 8.565826e+001 1.587545e+001
      vertex   -8.700001e+001 8.636369e+001 1.587545e+001
    endloop
  endfacet
  facet normal -0.000000e+000 0.000000e+000 8.158463e-001
    outer loop
      vertex   -8.700001e+001 8.636369e+001 1.587545e+001
      vertex   -8.650001e+001 8.565826e+001 1.587545e+001
      vertex   -8.650001e+001 8.636369e+001 1.587545e+001
    endloop
  endfacet
  facet normal 0.000000e+000 1.000000e+000 0.000000e+000
    outer loop
      vertex   -8.650001e+001 8.636369e+001 1.587545e+001
      vertex   -8.650001e+001 8.636369e+001 1.458076e+001
      vertex   -8.700001e+001 8.636369e+001 1.587545e+001
    endloop
  endfacet
  facet normal 0.000000e+000 3.602606e-001 0.000000e+000
    outer loop
      vertex   -8.700001e+001 8.636369e+001 1.587545e+001
      vertex   -8.650001e+001 8.636369e+001 1.458076e+001
      vertex   -8.700001e+001 8.636369e+001 1.458076e+001
    endloop
  endfacet
  facet normal -0.000000e+000 -0.000000e+000 -1.000000e+000
    outer loop
      vertex   -8.650001e+001 8.636369e+001 1.458076e+001
      vertex   -8.650001e+001 8.565826e+001 1.458076e+001
      vertex   -8.700001e+001 8.636369e+001 1.458076e+001
    endloop
  endfacet
  facet normal 0.000000e+000 0.000000e+000 -5.782688e-001
    outer loop
      vertex   -8.700001e+001 8.636369e+001 1.458076e+001
      vertex   -8.650001e+001 8.565826e+001 1.458076e+001
      vertex   -8.700001e+001 8.459754e+001 1.458076e+001
    endloop
  endfacet
  facet normal 0.000000e+000 0.000000e+000 -9.045437e-001
    outer loop
      vertex   -8.700001e+001 8.459754e+001 1.458076e+001
      vertex   -8.650001e+001 8.565826e+001 1.458076e+001
      vertex   -8.500001e+001 8.459754e+001 1.458076e+001
    endloop
  endfacet
  facet normal 0.000000e+000 0.000000e+000 -8.164806e-001
    outer loop
      vertex   -8.500001e+001 8.459754e+001 1.458076e+001
      vertex   -8.650001e+001 8.565826e+001 1.458076e+001
      vertex   -8.500001e+001 8.565826e+001 1.458076e+001
    endloop
  endfacet
  facet normal 0.000000e+000 -1.000000e+000 0.000000e+000
    outer loop
      vertex   -8.500001e+001 8.459754e+001 1.458076e+001
      vertex   -8.500001e+001 8.459754e+001 1.587545e+001
      vertex   -8.700001e+001 8.459754e+001 1.458076e+001
    endloop
  endfacet
  facet normal 0.000000e+000 -8.394606e-001 0.000000e+000
    outer loop
      vertex   -8.700001e+001 8.459754e+001 1.458076e+001
      vertex   -8.500001e+001 8.459754e+001 1.587545e+001
      vertex   -8.700001e+001 8.459754e+001 1.587545e+001
    endloop
  endfacet
  facet normal -1.000000e+000 0.000000e+000 0.000000e+000
    outer loop
      vertex   -8.700001e+001 8.636369e+001 1.458076e+001
      vertex   -8.700001e+001 8.459754e+001 1.458076e+001
      vertex   -8.700001e+001 8.636369e+001 1.587545e+001
    endloop
  endfacet
  facet normal -5.912205e-001 -0.000000e+000 0.000000e+000
    outer loop
      vertex   -8.700001e+001 8.636369e+001 1.587545e+001
      vertex   -8.700001e+001 8.459754e+001 1.458076e+001
      vertex   -8.700001e+001 8.459754e+001 1.587545e+001
    endloop
  endfacet
  facet normal 0.000000e+000 -1.000000e+000 0.000000e+000
    outer loop
      vertex   -8.500001e+001 8.459754e+001 9.062461e+000
      vertex   -8.500001e+001 8.459754e+001 1.044316e+001
      vertex   -8.700001e+001 8.459754e+001 9.062461e+000
    endloop
  endfacet
  facet normal 0.000000e+000 -8.229464e-001 0.000000e+000
    outer loop
      vertex   -8.700001e+001 8.459754e+001 9.062461e+000
      vertex   -8.500001e+001 8.459754e+001 1.044316e+001
      vertex   -8.700001e+001 8.459754e+001 1.044316e+001
    endloop
  endfacet
  facet normal -0.000000e+000 -0.000000e+000 -1.000000e+000
    outer loop
      vertex   -8.500001e+001 8.565826e+001 9.062461e+000
      vertex   -8.500001e+001 8.459754e+001 9.062461e+000
      vertex   -8.650001e+001 8.565826e+001 9.062461e+000
    endloop
  endfacet
  facet normal 0.000000e+000 -0.000000e+000 -9.847232e-001
    outer loop
      vertex   -8.650001e+001 8.565826e+001 9.062461e+000
      vertex   -8.500001e+001 8.459754e+001 9.062461e+000
      vertex   -8.700001e+001 8.459754e+001 9.062461e+000
    endloop
  endfacet
  facet normal -0.000000e+000 0.000000e+000 -8.709307e-001
    outer loop
      vertex   -8.650001e+001 8.565826e+001 9.062461e+000
      vertex   -8.700001e+001 8.459754e+001 9.062461e+000
      vertex   -8.700001e+001 8.636369e+001 9.062461e+000
    endloop
  endfacet
  facet normal 0.000000e+000 0.000000e+000 -8.158463e-001
    outer loop
      vertex   -8.700001e+001 8.636369e+001 9.062461e+000
      vertex   -8.650001e+001 8.636369e+001 9.062461e+000
      vertex   -8.650001e+001 8.565826e+001 9.062461e+000
    endloop
  endfacet
  facet normal 0.000000e+000 1.000000e+000 0.000000e+000
    outer loop
      vertex   -8.650001e+001 8.636369e+001 1.044316e+001
      vertex   -8.650001e+001 8.636369e+001 9.062461e+000
      vertex   -8.700001e+001 8.636369e+001 1.044316e+001
    endloop
  endfacet
  facet normal 0.000000e+000 3.404971e-001 0.000000e+000
    outer loop
      vertex   -8.700001e+001 8.636369e+001 1.044316e+001
      vertex   -8.650001e+001 8.636369e+001 9.062461e+000
      vertex   -8.700001e+001 8.636369e+001 9.062461e+000
    endloop
  endfacet
  facet normal 0.000000e+000 0.000000e+000 1.000000e+000
    outer loop
      vertex   -8.650001e+001 8.636369e+001 1.044316e+001
      vertex   -8.700001e+001 8.636369e+001 1.044316e+001
      vertex   -8.650001e+001 8.565826e+001 1.044316e+001
    endloop
  endfacet
  facet normal 0.000000e+000 0.000000e+000 8.709307e-001
    outer loop
      vertex   -8.650001e+001 8.565826e+001 1.044316e+001
      vertex   -8.700001e+001 8.636369e+001 1.044316e+001
      vertex   -8.700001e+001 8.459754e+001 1.044316e+001
    endloop
  endfacet
  facet normal 0.000000e+000 0.000000e+000 9.847232e-001
    outer loop
      vertex   -8.650001e+001 8.565826e+001 1.044316e+001
      vertex   -8.700001e+001 8.459754e+001 1.044316e+001
      vertex   -8.500001e+001 8.459754e+001 1.044316e+001
    endloop
  endfacet
  facet normal 0.000000e+000 -0.000000e+000 8.164806e-001
    outer loop
      vertex   -8.500001e+001 8.459754e+001 1.044316e+001
      vertex   -8.500001e+001 8.565826e+001 1.044316e+001
      vertex   -8.650001e+001 8.565826e+001 1.044316e+001
    endloop
  endfacet
  facet normal -1.000000e+000 0.000000e+000 0.000000e+000
    outer loop
      vertex   -8.700001e+001 8.459754e+001 1.044316e+001
      vertex   -8.700001e+001 8.636369e+001 1.044316e+001
      vertex   -8.700001e+001 8.459754e+001 9.062461e+000
    endloop
  endfacet
  facet normal -6.158921e-001 0.000000e+000 0.000000e+000
    outer loop
      vertex   -8.700001e+001 8.459754e+001 9.062461e+000
      vertex   -8.700001e+001 8.636369e+001 1.044316e+001
      vertex   -8.700001e+001 8.636369e+001 9.062461e+000
    endloop
  endfacet
  facet normal -0.000000e+000 -0.000000e+000 -1.000000e+000
    outer loop
      vertex   -8.650001e+001 9.045746e+001 1.173398e+001
      vertex   -8.650001e+001 8.990347e+001 1.173398e+001
      vertex   -8.700001e+001 9.045746e+001 1.173398e+001
    endloop
  endfacet
  facet normal 0.000000e+000 0.000000e+000 -6.700101e-001
    outer loop
      vertex   -8.700001e+001 9.045746e+001 1.173398e+001
      vertex   -8.650001e+001 8.990347e+001 1.173398e+001
      vertex   -8.700001e+001 8.990347e+001 1.173398e+001
    endloop
  endfacet
  facet normal 0.000000e+000 -1.000000e+000 0.000000e+000
    outer loop
      vertex   -8.650001e+001 8.990347e+001 1.173398e+001
      vertex   -8.650001e+001 8.990347e+001 1.366296e+001
      vertex   -8.700001e+001 8.990347e+001 1.173398e+001
    endloop
  endfacet
  facet normal 0.000000e+000 -2.509119e-001 0.000000e+000
    outer loop
      vertex   -8.700001e+001 8.990347e+001 1.173398e+001
      vertex   -8.650001e+001 8.990347e+001 1.366296e+001
      vertex   -8.700001e+001 8.990347e+001 1.366296e+001
    endloop
  endfacet
  facet normal 0.000000e+000 1.000000e+000 0.000000e+000
    outer loop
      vertex   -8.650001e+001 9.045746e+001 1.366296e+001
      vertex   -8.650001e+001 9.045746e+001 1.173398e+001
      vertex   -8.700001e+001 9.045746e+001 1.366296e+001
    endloop
  endfacet
  facet normal 0.000000e+000 2.509119e-001 0.000000e+000
    outer loop
      vertex   -8.700001e+001 9.045746e+001 1.366296e+001
      vertex   -8.650001e+001 9.045746e+001 1.173398e+001
      vertex   -8.700001e+001 9.045746e+001 1.173398e+001
    endloop
  endfacet
  facet normal 0.000000e+000 -0.000000e+000 1.000000e+000
    outer loop
      vertex   -8.650001e+001 8.990347e+001 1.366296e+001
      vertex   -8.650001e+001 9.045746e+001 1.366296e+001
      vertex   -8.700001e+001 8.990347e+001 1.366296e+001
    endloop
  endfacet
  facet normal 0.000000e+000 0.000000e+000 6.700101e-001
    outer loop
      vertex   -8.700001e+001 8.990347e+001 1.366296e+001
      vertex   -8.650001e+001 9.045746e+001 1.366296e+001
      vertex   -8.700001e+001 9.045746e+001 1.366296e+001
    endloop
  endfacet
  facet normal -1.000000e+000 0.000000e+000 0.000000e+000
    outer loop
      vertex   -8.700001e+001 8.990347e+001 1.366296e+001
      vertex   -8.700001e+001 9.045746e+001 1.366296e+001
      vertex   -8.700001e+001 8.990347e+001 1.173398e+001
    endloop
  endfacet
  facet normal -9.611483e-001 0.000000e+000 0.000000e+000
    outer loop
      vertex   -8.700001e+001 8.990347e+001 1.173398e+001
      vertex   -8.700001e+001 9.045746e+001 1.366296e+001
      vertex   -8.700001e+001 9.045746e+001 1.173398e+001
    endloop
  endfacet
  facet normal 0.000000e+000 1.000000e+000 0.000000e+000
    outer loop
      vertex   -8.500001e+001 8.764907e+001 1.583339e+001
      vertex   -8.500001e+001 8.764907e+001 1.523564e+001
      vertex   -8.650001e+001 8.764907e+001 1.583339e+001
    endloop
  endfacet
  facet normal 0.000000e+000 9.289564e-001 0.000000e+000
    outer loop
      vertex   -8.650001e+001 8.764907e+001 1.583339e+001
      vertex   -8.500001e+001 8.764907e+001 1.523564e+001
      vertex   -8.650001e+001 8.764907e+001 1.523564e+001
    endloop
  endfacet
  facet normal -0.000000e+000 -0.000000e+000 -1.000000e+000
    outer loop
      vertex   -8.500001e+001 8.966754e+001 1.583339e+001
      vertex   -8.500001e+001 8.764907e+001 1.583339e+001
      vertex   -8.650001e+001 8.966754e+001 1.583339e+001
    endloop
  endfacet
  facet normal 0.000000e+000 0.000000e+000 -5.964687e-001
    outer loop
      vertex   -8.650001e+001 8.966754e+001 1.583339e+001
      vertex   -8.500001e+001 8.764907e+001 1.583339e+001
      vertex   -8.650001e+001 8.764907e+001 1.583339e+001
    endloop
  endfacet
  facet normal 0.000000e+000 -1.000000e+000 0.000000e+000
    outer loop
      vertex   -8.500001e+001 8.966754e+001 1.523564e+001
      vertex   -8.500001e+001 8.966754e+001 1.583339e+001
      vertex   -8.650001e+001 8.966754e+001 1.523564e+001
    endloop
  endfacet
  facet normal 0.000000e+000 -9.289564e-001 0.000000e+000
    outer loop
      vertex   -8.650001e+001 8.966754e+001 1.523564e+001
      vertex   -8.500001e+001 8.966754e+001 1.583339e+001
      vertex   -8.650001e+001 8.966754e+001 1.583339e+001
    endloop
  endfacet
  facet normal 0.000000e+000 -0.000000e+000 1.000000e+000
    outer loop
      vertex   -8.500001e+001 8.764907e+001 1.523564e+001
      vertex   -8.500001e+001 8.966754e+001 1.523564e+001
      vertex   -8.650001e+001 8.764907e+001 1.523564e+001
    endloop
  endfacet
  facet normal 0.000000e+000 0.000000e+000 5.964687e-001
    outer loop
      vertex   -8.650001e+001 8.764907e+001 1.523564e+001
      vertex   -8.500001e+001 8.966754e+001 1.523564e+001
      vertex   -8.650001e+001 8.966754e+001 1.523564e+001
    endloop
  endfacet
  facet normal 0.000000e+000 9.625700e-001 -2.710334e-001
    outer loop
      vertex   -8.650001e+001 9.118058e+001 9.852674e+000
      vertex   -8.500001e+001 9.118058e+001 9.852674e+000
      vertex   -8.650001e+001 9.113588e+001 9.693921e+000
    endloop
  endfacet
  facet normal 0.000000e+000 1.052016e-001 -2.962190e-002
    outer loop
      vertex   -8.650001e+001 9.113588e+001 9.693921e+000
      vertex   -8.500001e+001 9.118058e+001 9.852674e+000
      vertex   -8.500001e+001 9.113588e+001 9.693921e+000
    endloop
  endfacet
  facet normal 0.000000e+000 1.005016e-001 -4.294896e-002
    outer loop
      vertex   -8.650001e+001 9.113588e+001 9.693921e+000
      vertex   -8.500001e+001 9.113588e+001 9.693921e+000
      vertex   -8.500001e+001 9.107107e+001 9.542260e+000
    endloop
  endfacet
  facet normal 0.000000e+000 9.140439e-001 -3.906131e-001
    outer loop
      vertex   -8.650001e+001 9.113588e+001 9.693921e+000
      vertex   -8.500001e+001 9.107107e+001 9.542260e+000
      vertex   -8.650001e+001 9.107107e+001 9.542260e+000
    endloop
  endfacet
  facet normal 0.000000e+000 9.412184e-002 -5.554802e-002
    outer loop
      vertex   -8.650001e+001 9.107107e+001 9.542260e+000
      vertex   -8.500001e+001 9.107107e+001 9.542260e+000
      vertex   -8.500001e+001 9.098724e+001 9.400227e+000
    endloop
  endfacet
  facet normal 0.000000e+000 8.560458e-001 -5.052138e-001
    outer loop
      vertex   -8.650001e+001 9.107107e+001 9.542260e+000
      vertex   -8.500001e+001 9.098724e+001 9.400227e+000
      vertex   -8.650001e+001 9.098724e+001 9.400227e+000
    endloop
  endfacet
  facet normal 0.000000e+000 8.617030e-002 -6.723193e-002
    outer loop
      vertex   -8.650001e+001 9.098724e+001 9.400227e+000
      vertex   -8.500001e+001 9.098724e+001 9.400227e+000
      vertex   -8.500001e+001 9.088579e+001 9.270192e+000
    endloop
  endfacet
  facet normal 0.000000e+000 7.836944e-001 -6.114553e-001
    outer loop
      vertex   -8.650001e+001 9.098724e+001 9.400227e+000
      vertex   -8.500001e+001 9.088579e+001 9.270192e+000
      vertex   -8.650001e+001 9.088579e+001 9.270192e+000
    endloop
  endfacet
  facet normal 0.000000e+000 7.677792e-002 -7.778339e-002
    outer loop
      vertex   -8.650001e+001 9.088579e+001 9.270192e+000
      vertex   -8.500001e+001 9.088579e+001 9.270192e+000
      vertex   -8.500001e+001 9.076841e+001 9.154331e+000
    endloop
  endfacet
  facet normal -6.938894e-018 6.982837e-001 -7.074283e-001
    outer loop
      vertex   -8.650001e+001 9.088579e+001 9.270192e+000
      vertex   -8.500001e+001 9.076841e+001 9.154331e+000
      vertex   -8.650001e+001 9.076841e+001 9.154331e+000
    endloop
  endfacet
  facet normal 0.000000e+000 6.610325e-002 -8.703550e-002
    outer loop
      vertex   -8.650001e+001 9.076841e+001 9.154331e+000
      vertex   -8.500001e+001 9.076841e+001 9.154331e+000
      vertex   -8.500001e+001 9.063707e+001 9.054579e+000
    endloop
  endfacet
  facet normal -6.938894e-018 6.012065e-001 -7.915845e-001
    outer loop
      vertex   -8.650001e+001 9.076841e+001 9.154331e+000
      vertex   -8.500001e+001 9.063707e+001 9.054579e+000
      vertex   -8.650001e+001 9.063707e+001 9.054579e+000
    endloop
  endfacet
  facet normal 0.000000e+000 5.432387e-002 -9.483659e-002
    outer loop
      vertex   -8.650001e+001 9.063707e+001 9.054579e+000
      vertex   -8.500001e+001 9.063707e+001 9.054579e+000
      vertex   -8.500001e+001 9.049396e+001 8.972602e+000
    endloop
  endfacet
  facet normal 0.000000e+000 4.940684e-001 -8.625261e-001
    outer loop
      vertex   -8.650001e+001 9.063707e+001 9.054579e+000
      vertex   -8.500001e+001 9.049396e+001 8.972602e+000
      vertex   -8.650001e+001 9.049396e+001 8.972602e+000
    endloop
  endfacet
  facet normal 0.000000e+000 4.163700e-002 -1.010502e-001
    outer loop
      vertex   -8.650001e+001 9.049396e+001 8.972602e+000
      vertex   -8.500001e+001 9.049396e+001 8.972602e+000
      vertex   -8.500001e+001 9.034147e+001 8.909770e+000
    endloop
  endfacet
  facet normal -6.938894e-018 3.786875e-001 -9.190490e-001
    outer loop
      vertex   -8.650001e+001 9.049396e+001 8.972602e+000
      vertex   -8.500001e+001 9.034147e+001 8.909770e+000
      vertex   -8.650001e+001 9.034147e+001 8.909770e+000
    endloop
  endfacet
  facet normal 0.000000e+000 1.000000e+000 0.000000e+000
    outer loop
      vertex   -8.500001e+001 9.118058e+001 1.620287e+001
      vertex   -8.500001e+001 9.118058e+001 9.852674e+000
      vertex   -8.650001e+001 9.118058e+001 1.620287e+001
    endloop
  endfacet
  facet normal 0.000000e+000 2.298869e-001 0.000000e+000
    outer loop
      vertex   -8.650001e+001 9.118058e+001 1.620287e+001
      vertex   -8.500001e+001 9.118058e+001 9.852674e+000
      vertex   -8.650001e+001 9.118058e+001 9.852674e+000
    endloop
  endfacet
  facet normal 0.000000e+000 1.547065e-001 9.879605e-001
    outer loop
      vertex   -8.500001e+001 9.048199e+001 1.686232e+001
      vertex   -8.500001e+001 9.061035e+001 1.684222e+001
      vertex   -8.650001e+001 9.048199e+001 1.686232e+001
    endloop
  endfacet
  facet normal 1.734723e-018 1.541294e-001 9.842753e-001
    outer loop
      vertex   -8.650001e+001 9.048199e+001 1.686232e+001
      vertex   -8.500001e+001 9.061035e+001 1.684222e+001
      vertex   -8.650001e+001 9.061035e+001 1.684222e+001
    endloop
  endfacet
  facet normal -0.000000e+000 2.772568e-002 8.171514e-002
    outer loop
      vertex   -8.650001e+001 9.061035e+001 1.684222e+001
      vertex   -8.500001e+001 9.061035e+001 1.684222e+001
      vertex   -8.500001e+001 9.073338e+001 1.680048e+001
    endloop
  endfacet
  facet normal 0.000000e+000 3.201073e-001 9.434433e-001
    outer loop
      vertex   -8.650001e+001 9.061035e+001 1.684222e+001
      vertex   -8.500001e+001 9.073338e+001 1.680048e+001
      vertex   -8.650001e+001 9.073338e+001 1.680048e+001
    endloop
  endfacet
  facet normal -0.000000e+000 4.128828e-002 7.577625e-002
    outer loop
      vertex   -8.650001e+001 9.073338e+001 1.680048e+001
      vertex   -8.500001e+001 9.073338e+001 1.680048e+001
      vertex   -8.500001e+001 9.084747e+001 1.673831e+001
    endloop
  endfacet
  facet normal 0.000000e+000 4.766723e-001 8.748353e-001
    outer loop
      vertex   -8.650001e+001 9.073338e+001 1.680048e+001
      vertex   -8.500001e+001 9.084747e+001 1.673831e+001
      vertex   -8.650001e+001 9.084747e+001 1.673831e+001
    endloop
  endfacet
  facet normal -0.000000e+000 5.363220e-002 6.760272e-002
    outer loop
      vertex   -8.650001e+001 9.084747e+001 1.673831e+001
      vertex   -8.500001e+001 9.084747e+001 1.673831e+001
      vertex   -8.500001e+001 9.094926e+001 1.665756e+001
    endloop
  endfacet
  facet normal 0.000000e+000 6.191919e-001 7.804837e-001
    outer loop
      vertex   -8.650001e+001 9.084747e+001 1.673831e+001
      vertex   -8.500001e+001 9.094926e+001 1.665756e+001
      vertex   -8.650001e+001 9.094926e+001 1.665756e+001
    endloop
  endfacet
  facet normal -0.000000e+000 6.440021e-002 5.743269e-002
    outer loop
      vertex   -8.650001e+001 9.094926e+001 1.665756e+001
      vertex   -8.500001e+001 9.094926e+001 1.665756e+001
      vertex   -8.500001e+001 9.103573e+001 1.656060e+001
    endloop
  endfacet
  facet normal 0.000000e+000 7.435424e-001 6.630978e-001
    outer loop
      vertex   -8.650001e+001 9.094926e+001 1.665756e+001
      vertex   -8.500001e+001 9.103573e+001 1.656060e+001
      vertex   -8.650001e+001 9.103573e+001 1.656060e+001
    endloop
  endfacet
  facet normal -0.000000e+000 7.327174e-002 4.558534e-002
    outer loop
      vertex   -8.650001e+001 9.103573e+001 1.656060e+001
      vertex   -8.500001e+001 9.103573e+001 1.656060e+001
      vertex   -8.500001e+001 9.110436e+001 1.645028e+001
    endloop
  endfacet
  facet normal 0.000000e+000 8.459203e-001 5.262815e-001
    outer loop
      vertex   -8.650001e+001 9.103573e+001 1.656060e+001
      vertex   -8.500001e+001 9.110436e+001 1.645028e+001
      vertex   -8.650001e+001 9.110436e+001 1.645028e+001
    endloop
  endfacet
  facet normal -0.000000e+000 7.998339e-002 3.238506e-002
    outer loop
      vertex   -8.650001e+001 9.110436e+001 1.645028e+001
      vertex   -8.500001e+001 9.110436e+001 1.645028e+001
      vertex   -8.500001e+001 9.115312e+001 1.632986e+001
    endloop
  endfacet
  facet normal 0.000000e+000 9.234458e-001 3.739007e-001
    outer loop
      vertex   -8.650001e+001 9.110436e+001 1.645028e+001
      vertex   -8.500001e+001 9.115312e+001 1.632986e+001
      vertex   -8.650001e+001 9.115312e+001 1.632986e+001
    endloop
  endfacet
  facet normal -0.000000e+000 8.434378e-002 1.823718e-002
    outer loop
      vertex   -8.650001e+001 9.115312e+001 1.632986e+001
      vertex   -8.500001e+001 9.115312e+001 1.632986e+001
      vertex   -8.500001e+001 9.118058e+001 1.620287e+001
    endloop
  endfacet
  facet normal 3.469447e-018 9.737666e-001 2.105520e-001
    outer loop
      vertex   -8.650001e+001 9.115312e+001 1.632986e+001
      vertex   -8.500001e+001 9.118058e+001 1.620287e+001
      vertex   -8.650001e+001 9.118058e+001 1.620287e+001
    endloop
  endfacet
  facet normal 0.000000e+000 -0.000000e+000 1.000000e+000
    outer loop
      vertex   -8.500001e+001 8.627052e+001 1.686232e+001
      vertex   -8.500001e+001 9.048199e+001 1.686232e+001
      vertex   -8.650001e+001 8.627052e+001 1.686232e+001
    endloop
  endfacet
  facet normal 0.000000e+000 0.000000e+000 3.355230e-001
    outer loop
      vertex   -8.650001e+001 8.627052e+001 1.686232e+001
      vertex   -8.500001e+001 9.048199e+001 1.686232e+001
      vertex   -8.650001e+001 9.048199e+001 1.686232e+001
    endloop
  endfacet
  facet normal 0.000000e+000 -9.919747e-001 1.264363e-001
    outer loop
      vertex   -8.650001e+001 8.565826e+001 1.625220e+001
      vertex   -8.500001e+001 8.565826e+001 1.625220e+001
      vertex   -8.650001e+001 8.567159e+001 1.635671e+001
    endloop
  endfacet
  facet normal 0.000000e+000 -6.950294e-002 8.858791e-003
    outer loop
      vertex   -8.650001e+001 8.567159e+001 1.635671e+001
      vertex   -8.500001e+001 8.565826e+001 1.625220e+001
      vertex   -8.500001e+001 8.567159e+001 1.635671e+001
    endloop
  endfacet
  facet normal 0.000000e+000 -6.710052e-002 2.016314e-002
    outer loop
      vertex   -8.650001e+001 8.567159e+001 1.635671e+001
      vertex   -8.500001e+001 8.567159e+001 1.635671e+001
      vertex   -8.500001e+001 8.570190e+001 1.645761e+001
    endloop
  endfacet
  facet normal -3.469447e-018 -9.553431e-001 2.870724e-001
    outer loop
      vertex   -8.650001e+001 8.567159e+001 1.635671e+001
      vertex   -8.500001e+001 8.570190e+001 1.645761e+001
      vertex   -8.650001e+001 8.570190e+001 1.645761e+001
    endloop
  endfacet
  facet normal 0.000000e+000 -6.287535e-002 3.091444e-002
    outer loop
      vertex   -8.650001e+001 8.570190e+001 1.645761e+001
      vertex   -8.500001e+001 8.570190e+001 1.645761e+001
      vertex   -8.500001e+001 8.574839e+001 1.655215e+001
    endloop
  endfacet
  facet normal -3.469447e-018 -8.951890e-001 4.401450e-001
    outer loop
      vertex   -8.650001e+001 8.570190e+001 1.645761e+001
      vertex   -8.500001e+001 8.574839e+001 1.655215e+001
      vertex   -8.650001e+001 8.574839e+001 1.655215e+001
    endloop
  endfacet
  facet normal 0.000000e+000 -5.694157e-002 4.082857e-002
    outer loop
      vertex   -8.650001e+001 8.574839e+001 1.655215e+001
      vertex   -8.500001e+001 8.574839e+001 1.655215e+001
      vertex   -8.500001e+001 8.580978e+001 1.663778e+001
    endloop
  endfacet
  facet normal 0.000000e+000 -8.106816e-001 5.812796e-001
    outer loop
      vertex   -8.650001e+001 8.574839e+001 1.655215e+001
      vertex   -8.500001e+001 8.580978e+001 1.663778e+001
      vertex   -8.650001e+001 8.580978e+001 1.663778e+001
    endloop
  endfacet
  facet normal 0.000000e+000 -4.945650e-002 4.963155e-002
    outer loop
      vertex   -8.650001e+001 8.580978e+001 1.663778e+001
      vertex   -8.500001e+001 8.580978e+001 1.663778e+001
      vertex   -8.500001e+001 8.588441e+001 1.671214e+001
    endloop
  endfacet
  facet normal 6.938894e-018 -7.041218e-001 7.066140e-001
    outer loop
      vertex   -8.650001e+001 8.580978e+001 1.663778e+001
      vertex   -8.500001e+001 8.588441e+001 1.671214e+001
      vertex   -8.650001e+001 8.588441e+001 1.671214e+001
    endloop
  endfacet
  facet normal 0.000000e+000 -4.062817e-002 5.707984e-002
    outer loop
      vertex   -8.650001e+001 8.588441e+001 1.671214e+001
      vertex   -8.500001e+001 8.588441e+001 1.671214e+001
      vertex   -8.500001e+001 8.597025e+001 1.677324e+001
    endloop
  endfacet
  facet normal 0.000000e+000 -5.784594e-001 8.126967e-001
    outer loop
      vertex   -8.650001e+001 8.588441e+001 1.671214e+001
      vertex   -8.500001e+001 8.597025e+001 1.677324e+001
      vertex   -8.650001e+001 8.597025e+001 1.677324e+001
    endloop
  endfacet
  facet normal 0.000000e+000 -3.069627e-002 6.298063e-002
    outer loop
      vertex   -8.650001e+001 8.597025e+001 1.677324e+001
      vertex   -8.500001e+001 8.597025e+001 1.677324e+001
      vertex   -8.500001e+001 8.606495e+001 1.681940e+001
    endloop
  endfacet
  facet normal 3.469447e-018 -4.370473e-001 8.967055e-001
    outer loop
      vertex   -8.650001e+001 8.597025e+001 1.677324e+001
      vertex   -8.500001e+001 8.606495e+001 1.681940e+001
      vertex   -8.650001e+001 8.606495e+001 1.681940e+001
    endloop
  endfacet
  facet normal 0.000000e+000 -1.992721e-002 6.717155e-002
    outer loop
      vertex   -8.650001e+001 8.606495e+001 1.681940e+001
      vertex   -8.500001e+001 8.606495e+001 1.681940e+001
      vertex   -8.500001e+001 8.616595e+001 1.684936e+001
    endloop
  endfacet
  facet normal 3.469447e-018 -2.837111e-001 9.563466e-001
    outer loop
      vertex   -8.650001e+001 8.606495e+001 1.681940e+001
      vertex   -8.500001e+001 8.616595e+001 1.684936e+001
      vertex   -8.650001e+001 8.616595e+001 1.684936e+001
    endloop
  endfacet
  facet normal 0.000000e+000 -8.619053e-003 6.953591e-002
    outer loop
      vertex   -8.650001e+001 8.616595e+001 1.684936e+001
      vertex   -8.500001e+001 8.616595e+001 1.684936e+001
      vertex   -8.500001e+001 8.627052e+001 1.686232e+001
    endloop
  endfacet
  facet normal 0.000000e+000 -1.227074e-001 9.899663e-001
    outer loop
      vertex   -8.650001e+001 8.616595e+001 1.684936e+001
      vertex   -8.500001e+001 8.627052e+001 1.686232e+001
      vertex   -8.650001e+001 8.627052e+001 1.686232e+001
    endloop
  endfacet
  facet normal 0.000000e+000 -1.000000e+000 0.000000e+000
    outer loop
      vertex   -8.500001e+001 8.565826e+001 1.587545e+001
      vertex   -8.500001e+001 8.565826e+001 1.625220e+001
      vertex   -8.650001e+001 8.565826e+001 1.587545e+001
    endloop
  endfacet
  facet normal 0.000000e+000 -9.698764e-001 0.000000e+000
    outer loop
      vertex   -8.650001e+001 8.565826e+001 1.587545e+001
      vertex   -8.500001e+001 8.565826e+001 1.625220e+001
      vertex   -8.650001e+001 8.565826e+001 1.625220e+001
    endloop
  endfacet
  facet normal 0.000000e+000 -1.000000e+000 0.000000e+000
    outer loop
      vertex   -8.500001e+001 8.565826e+001 1.044316e+001
      vertex   -8.500001e+001 8.565826e+001 1.458076e+001
      vertex   -8.650001e+001 8.565826e+001 1.044316e+001
    endloop
  endfacet
  facet normal 0.000000e+000 -3.408229e-001 0.000000e+000
    outer loop
      vertex   -8.650001e+001 8.565826e+001 1.044316e+001
      vertex   -8.500001e+001 8.565826e+001 1.458076e+001
      vertex   -8.650001e+001 8.565826e+001 1.458076e+001
    endloop
  endfacet
  facet normal 0.000000e+000 -1.000000e+000 0.000000e+000
    outer loop
      vertex   -8.500001e+001 8.565826e+001 8.882704e+000
      vertex   -8.500001e+001 8.565826e+001 9.062461e+000
      vertex   -8.650001e+001 8.565826e+001 8.882704e+000
    endloop
  endfacet
  facet normal 0.000000e+000 -9.928958e-001 0.000000e+000
    outer loop
      vertex   -8.650001e+001 8.565826e+001 8.882704e+000
      vertex   -8.500001e+001 8.565826e+001 9.062461e+000
      vertex   -8.650001e+001 8.565826e+001 9.062461e+000
    endloop
  endfacet
  facet normal 0.000000e+000 7.645424e-002 -9.970731e-001
    outer loop
      vertex   -8.500001e+001 8.649771e+001 8.210335e+000
      vertex   -8.500001e+001 8.637704e+001 8.201082e+000
      vertex   -8.650001e+001 8.649771e+001 8.210335e+000
    endloop
  endfacet
  facet normal -8.673617e-019 7.620662e-002 -9.938437e-001
    outer loop
      vertex   -8.650001e+001 8.649771e+001 8.210335e+000
      vertex   -8.500001e+001 8.637704e+001 8.201082e+000
      vertex   -8.650001e+001 8.637704e+001 8.201082e+000
    endloop
  endfacet
  facet normal 0.000000e+000 -7.271980e-003 -8.008748e-002
    outer loop
      vertex   -8.650001e+001 8.637704e+001 8.201082e+000
      vertex   -8.500001e+001 8.637704e+001 8.201082e+000
      vertex   -8.500001e+001 8.625652e+001 8.212026e+000
    endloop
  endfacet
  facet normal 0.000000e+000 -9.013558e-002 -9.926775e-001
    outer loop
      vertex   -8.650001e+001 8.637704e+001 8.201082e+000
      vertex   -8.500001e+001 8.625652e+001 8.212026e+000
      vertex   -8.650001e+001 8.625652e+001 8.212026e+000
    endloop
  endfacet
  facet normal 0.000000e+000 -2.048955e-002 -7.776549e-002
    outer loop
      vertex   -8.650001e+001 8.625652e+001 8.212026e+000
      vertex   -8.500001e+001 8.625652e+001 8.212026e+000
      vertex   -8.500001e+001 8.613950e+001 8.242860e+000
    endloop
  endfacet
  facet normal 0.000000e+000 -2.539582e-001 -9.638661e-001
    outer loop
      vertex   -8.650001e+001 8.625652e+001 8.212026e+000
      vertex   -8.500001e+001 8.613950e+001 8.242860e+000
      vertex   -8.650001e+001 8.613950e+001 8.242860e+000
    endloop
  endfacet
  facet normal 0.000000e+000 -3.313741e-002 -7.327367e-002
    outer loop
      vertex   -8.650001e+001 8.613950e+001 8.242860e+000
      vertex   -8.500001e+001 8.613950e+001 8.242860e+000
      vertex   -8.500001e+001 8.602923e+001 8.292727e+000
    endloop
  endfacet
  facet normal 3.469447e-018 -4.107280e-001 -9.082045e-001
    outer loop
      vertex   -8.650001e+001 8.613950e+001 8.242860e+000
      vertex   -8.500001e+001 8.602923e+001 8.292727e+000
      vertex   -8.650001e+001 8.602923e+001 8.292727e+000
    endloop
  endfacet
  facet normal 0.000000e+000 -4.486193e-002 -6.674378e-002
    outer loop
      vertex   -8.650001e+001 8.602923e+001 8.292727e+000
      vertex   -8.500001e+001 8.602923e+001 8.292727e+000
      vertex   -8.500001e+001 8.592879e+001 8.360239e+000
    endloop
  endfacet
  facet normal -6.938894e-018 -5.560409e-001 -8.272552e-001
    outer loop
      vertex   -8.650001e+001 8.602923e+001 8.292727e+000
      vertex   -8.500001e+001 8.592879e+001 8.360239e+000
      vertex   -8.650001e+001 8.592879e+001 8.360239e+000
    endloop
  endfacet
  facet normal 0.000000e+000 -6.880989e-001 -7.256169e-001
    outer loop
      vertex   -8.650001e+001 8.592879e+001 8.360239e+000
      vertex   -8.500001e+001 8.592879e+001 8.360239e+000
      vertex   -8.650001e+001 8.584097e+001 8.443513e+000
    endloop
  endfacet
  facet normal 0.000000e+000 -5.533612e-002 -5.835328e-002
    outer loop
      vertex   -8.650001e+001 8.584097e+001 8.443513e+000
      vertex   -8.500001e+001 8.592879e+001 8.360239e+000
      vertex   -8.500001e+001 8.584097e+001 8.443513e+000
    endloop
  endfacet
  facet normal 0.000000e+000 -6.427035e-002 -4.834044e-002
    outer loop
      vertex   -8.650001e+001 8.584097e+001 8.443513e+000
      vertex   -8.500001e+001 8.584097e+001 8.443513e+000
      vertex   -8.500001e+001 8.576823e+001 8.540232e+000
    endloop
  endfacet
  facet normal -6.938894e-018 -7.965890e-001 -5.991482e-001
    outer loop
      vertex   -8.650001e+001 8.584097e+001 8.443513e+000
      vertex   -8.500001e+001 8.576823e+001 8.540232e+000
      vertex   -8.650001e+001 8.576823e+001 8.540232e+000
    endloop
  endfacet
  facet normal 0.000000e+000 -7.141432e-002 -3.697398e-002
    outer loop
      vertex   -8.650001e+001 8.576823e+001 8.540232e+000
      vertex   -8.500001e+001 8.576823e+001 8.540232e+000
      vertex   -8.500001e+001 8.571259e+001 8.647701e+000
    endloop
  endfacet
  facet normal 6.938894e-018 -8.851611e-001 -4.582824e-001
    outer loop
      vertex   -8.650001e+001 8.576823e+001 8.540232e+000
      vertex   -8.500001e+001 8.571259e+001 8.647701e+000
      vertex   -8.650001e+001 8.571259e+001 8.647701e+000
    endloop
  endfacet
  facet normal 0.000000e+000 -7.656902e-002 -2.458848e-002
    outer loop
      vertex   -8.650001e+001 8.571259e+001 8.647701e+000
      vertex   -8.500001e+001 8.571259e+001 8.647701e+000
      vertex   -8.500001e+001 8.567558e+001 8.762928e+000
    endloop
  endfacet
  facet normal 3.469447e-018 -9.490280e-001 -3.047597e-001
    outer loop
      vertex   -8.650001e+001 8.571259e+001 8.647701e+000
      vertex   -8.500001e+001 8.567558e+001 8.762928e+000
      vertex   -8.650001e+001 8.567558e+001 8.762928e+000
    endloop
  endfacet
  facet normal 0.000000e+000 -7.959189e-002 -1.150842e-002
    outer loop
      vertex   -8.650001e+001 8.567558e+001 8.762928e+000
      vertex   -8.500001e+001 8.567558e+001 8.762928e+000
      vertex   -8.500001e+001 8.565826e+001 8.882704e+000
    endloop
  endfacet
  facet normal -1.734723e-018 -9.865020e-001 -1.426412e-001
    outer loop
      vertex   -8.650001e+001 8.567558e+001 8.762928e+000
      vertex   -8.500001e+001 8.565826e+001 8.882704e+000
      vertex   -8.650001e+001 8.565826e+001 8.882704e+000
    endloop
  endfacet
  facet normal 0.000000e+000 1.790267e-001 -9.838442e-001
    outer loop
      vertex   -8.500001e+001 9.034147e+001 8.909770e+000
      vertex   -8.500001e+001 8.649771e+001 8.210335e+000
      vertex   -8.650001e+001 9.034147e+001 8.909770e+000
    endloop
  endfacet
  facet normal -2.775558e-017 6.416827e-002 -3.526378e-001
    outer loop
      vertex   -8.650001e+001 9.034147e+001 8.909770e+000
      vertex   -8.500001e+001 8.649771e+001 8.210335e+000
      vertex   -8.650001e+001 8.649771e+001 8.210335e+000
    endloop
  endfacet
  facet normal -9.997122e-001 0.000000e+000 0.000000e+000
    outer loop
      vertex   -8.650001e+001 8.649771e+001 8.210335e+000
      vertex   -8.650001e+001 8.636369e+001 9.062461e+000
      vertex   -8.650001e+001 9.034147e+001 8.909770e+000
    endloop
  endfacet
  facet normal -9.815811e-001 0.000000e+000 0.000000e+000
    outer loop
      vertex   -8.650001e+001 9.034147e+001 8.909770e+000
      vertex   -8.650001e+001 8.636369e+001 9.062461e+000
      vertex   -8.650001e+001 8.990347e+001 1.173398e+001
    endloop
  endfacet
  facet normal -1.936756e-001 0.000000e+000 0.000000e+000
    outer loop
      vertex   -8.650001e+001 9.034147e+001 8.909770e+000
      vertex   -8.650001e+001 8.990347e+001 1.173398e+001
      vertex   -8.650001e+001 9.045746e+001 1.173398e+001
    endloop
  endfacet
  facet normal -9.968434e-001 -0.000000e+000 0.000000e+000
    outer loop
      vertex   -8.650001e+001 8.649771e+001 8.210335e+000
      vertex   -8.650001e+001 8.637704e+001 8.201082e+000
      vertex   -8.650001e+001 8.636369e+001 9.062461e+000
    endloop
  endfacet
  facet normal -1.403907e-001 0.000000e+000 -0.000000e+000
    outer loop
      vertex   -8.650001e+001 8.636369e+001 9.062461e+000
      vertex   -8.650001e+001 8.637704e+001 8.201082e+000
      vertex   -8.650001e+001 8.625652e+001 8.212026e+000
    endloop
  endfacet
  facet normal -1.411823e-001 0.000000e+000 0.000000e+000
    outer loop
      vertex   -8.650001e+001 8.636369e+001 9.062461e+000
      vertex   -8.650001e+001 8.625652e+001 8.212026e+000
      vertex   -8.650001e+001 8.613950e+001 8.242860e+000
    endloop
  endfacet
  facet normal -9.875891e-001 0.000000e+000 0.000000e+000
    outer loop
      vertex   -8.650001e+001 8.613950e+001 8.242860e+000
      vertex   -8.650001e+001 8.602923e+001 8.292727e+000
      vertex   -8.650001e+001 8.636369e+001 9.062461e+000
    endloop
  endfacet
  facet normal -1.441006e-001 0.000000e+000 0.000000e+000
    outer loop
      vertex   -8.650001e+001 8.636369e+001 9.062461e+000
      vertex   -8.650001e+001 8.602923e+001 8.292727e+000
      vertex   -8.650001e+001 8.592879e+001 8.360239e+000
    endloop
  endfacet
  facet normal -1.462735e-001 0.000000e+000 0.000000e+000
    outer loop
      vertex   -8.650001e+001 8.636369e+001 9.062461e+000
      vertex   -8.650001e+001 8.592879e+001 8.360239e+000
      vertex   -8.650001e+001 8.584097e+001 8.443513e+000
    endloop
  endfacet
  facet normal -9.748782e-001 0.000000e+000 0.000000e+000
    outer loop
      vertex   -8.650001e+001 8.584097e+001 8.443513e+000
      vertex   -8.650001e+001 8.576823e+001 8.540232e+000
      vertex   -8.650001e+001 8.636369e+001 9.062461e+000
    endloop
  endfacet
  facet normal -1.521873e-001 0.000000e+000 0.000000e+000
    outer loop
      vertex   -8.650001e+001 8.636369e+001 9.062461e+000
      vertex   -8.650001e+001 8.576823e+001 8.540232e+000
      vertex   -8.650001e+001 8.571259e+001 8.647701e+000
    endloop
  endfacet
  facet normal -1.559875e-001 0.000000e+000 0.000000e+000
    outer loop
      vertex   -8.650001e+001 8.636369e+001 9.062461e+000
      vertex   -8.650001e+001 8.571259e+001 8.647701e+000
      vertex   -8.650001e+001 8.567558e+001 8.762928e+000
    endloop
  endfacet
  facet normal -9.645755e-001 0.000000e+000 0.000000e+000
    outer loop
      vertex   -8.650001e+001 8.567558e+001 8.762928e+000
      vertex   -8.650001e+001 8.565826e+001 8.882704e+000
      vertex   -8.650001e+001 8.636369e+001 9.062461e+000
    endloop
  endfacet
  facet normal -2.469312e-001 -0.000000e+000 0.000000e+000
    outer loop
      vertex   -8.650001e+001 8.636369e+001 9.062461e+000
      vertex   -8.650001e+001 8.565826e+001 8.882704e+000
      vertex   -8.650001e+001 8.565826e+001 9.062461e+000
    endloop
  endfacet
  facet normal -7.981914e-001 0.000000e+000 0.000000e+000
    outer loop
      vertex   -8.650001e+001 8.636369e+001 9.062461e+000
      vertex   -8.650001e+001 8.636369e+001 1.044316e+001
      vertex   -8.650001e+001 8.990347e+001 1.173398e+001
    endloop
  endfacet
  facet normal -9.753852e-001 -0.000000e+000 0.000000e+000
    outer loop
      vertex   -8.650001e+001 8.990347e+001 1.173398e+001
      vertex   -8.650001e+001 8.636369e+001 1.044316e+001
      vertex   -8.650001e+001 8.764907e+001 1.523564e+001
    endloop
  endfacet
  facet normal -5.413237e-001 0.000000e+000 0.000000e+000
    outer loop
      vertex   -8.650001e+001 8.990347e+001 1.173398e+001
      vertex   -8.650001e+001 8.764907e+001 1.523564e+001
      vertex   -8.650001e+001 8.990347e+001 1.366296e+001
    endloop
  endfacet
  facet normal -7.261956e-001 0.000000e+000 0.000000e+000
    outer loop
      vertex   -8.650001e+001 8.990347e+001 1.366296e+001
      vertex   -8.650001e+001 8.764907e+001 1.523564e+001
      vertex   -8.650001e+001 8.966754e+001 1.523564e+001
    endloop
  endfacet
  facet normal -9.889336e-001 0.000000e+000 0.000000e+000
    outer loop
      vertex   -8.650001e+001 8.990347e+001 1.366296e+001
      vertex   -8.650001e+001 8.966754e+001 1.523564e+001
      vertex   -8.650001e+001 9.045746e+001 1.366296e+001
    endloop
  endfacet
  facet normal -6.763757e-001 0.000000e+000 0.000000e+000
    outer loop
      vertex   -8.650001e+001 9.045746e+001 1.366296e+001
      vertex   -8.650001e+001 8.966754e+001 1.523564e+001
      vertex   -8.650001e+001 9.118058e+001 1.620287e+001
    endloop
  endfacet
  facet normal -4.483481e-001 0.000000e+000 0.000000e+000
    outer loop
      vertex   -8.650001e+001 9.045746e+001 1.366296e+001
      vertex   -8.650001e+001 9.118058e+001 1.620287e+001
      vertex   -8.650001e+001 9.118058e+001 9.852674e+000
    endloop
  endfacet
  facet normal -7.430069e-001 0.000000e+000 0.000000e+000
    outer loop
      vertex   -8.650001e+001 8.764907e+001 1.523564e+001
      vertex   -8.650001e+001 8.636369e+001 1.044316e+001
      vertex   -8.650001e+001 8.636369e+001 1.458076e+001
    endloop
  endfacet
  facet normal -1.680651e-001 0.000000e+000 -0.000000e+000
    outer loop
      vertex   -8.650001e+001 8.636369e+001 1.458076e+001
      vertex   -8.650001e+001 8.636369e+001 1.044316e+001
      vertex   -8.650001e+001 8.565826e+001 1.044316e+001
    endloop
  endfacet
  facet normal -9.857759e-001 -0.000000e+000 0.000000e+000
    outer loop
      vertex   -8.650001e+001 8.636369e+001 1.458076e+001
      vertex   -8.650001e+001 8.565826e+001 1.044316e+001
      vertex   -8.650001e+001 8.565826e+001 1.458076e+001
    endloop
  endfacet
  facet normal -8.910227e-001 0.000000e+000 0.000000e+000
    outer loop
      vertex   -8.650001e+001 8.636369e+001 1.458076e+001
      vertex   -8.650001e+001 8.636369e+001 1.587545e+001
      vertex   -8.650001e+001 8.764907e+001 1.523564e+001
    endloop
  endfacet
  facet normal -8.952284e-001 0.000000e+000 0.000000e+000
    outer loop
      vertex   -8.650001e+001 8.764907e+001 1.523564e+001
      vertex   -8.650001e+001 8.636369e+001 1.587545e+001
      vertex   -8.650001e+001 8.764907e+001 1.583339e+001
    endloop
  endfacet
  facet normal -5.716124e-001 0.000000e+000 0.000000e+000
    outer loop
      vertex   -8.650001e+001 8.764907e+001 1.583339e+001
      vertex   -8.650001e+001 8.636369e+001 1.587545e+001
      vertex   -8.650001e+001 8.627052e+001 1.686232e+001
    endloop
  endfacet
  facet normal -8.357898e-001 0.000000e+000 0.000000e+000
    outer loop
      vertex   -8.650001e+001 8.764907e+001 1.583339e+001
      vertex   -8.650001e+001 8.627052e+001 1.686232e+001
      vertex   -8.650001e+001 9.048199e+001 1.686232e+001
    endloop
  endfacet
  facet normal -1.000000e+000 0.000000e+000 0.000000e+000
    outer loop
      vertex   -8.650001e+001 8.565826e+001 1.587545e+001
      vertex   -8.650001e+001 8.565826e+001 1.625220e+001
      vertex   -8.650001e+001 8.636369e+001 1.587545e+001
    endloop
  endfacet
  facet normal -3.357094e-001 0.000000e+000 0.000000e+000
    outer loop
      vertex   -8.650001e+001 8.636369e+001 1.587545e+001
      vertex   -8.650001e+001 8.565826e+001 1.625220e+001
      vertex   -8.650001e+001 8.574839e+001 1.655215e+001
    endloop
  endfacet
  facet normal -1.093335e-001 0.000000e+000 0.000000e+000
    outer loop
      vertex   -8.650001e+001 8.636369e+001 1.587545e+001
      vertex   -8.650001e+001 8.574839e+001 1.655215e+001
      vertex   -8.650001e+001 8.580978e+001 1.663778e+001
    endloop
  endfacet
  facet normal -1.643825e-001 0.000000e+000 -0.000000e+000
    outer loop
      vertex   -8.650001e+001 8.567159e+001 1.635671e+001
      vertex   -8.650001e+001 8.570190e+001 1.645761e+001
      vertex   -8.650001e+001 8.565826e+001 1.625220e+001
    endloop
  endfacet
  facet normal -8.244830e-002 0.000000e+000 0.000000e+000
    outer loop
      vertex   -8.650001e+001 8.565826e+001 1.625220e+001
      vertex   -8.650001e+001 8.570190e+001 1.645761e+001
      vertex   -8.650001e+001 8.574839e+001 1.655215e+001
    endloop
  endfacet
  facet normal -9.879686e-001 0.000000e+000 0.000000e+000
    outer loop
      vertex   -8.650001e+001 8.580978e+001 1.663778e+001
      vertex   -8.650001e+001 8.588441e+001 1.671214e+001
      vertex   -8.650001e+001 8.636369e+001 1.587545e+001
    endloop
  endfacet
  facet normal -1.069599e-001 0.000000e+000 0.000000e+000
    outer loop
      vertex   -8.650001e+001 8.636369e+001 1.587545e+001
      vertex   -8.650001e+001 8.588441e+001 1.671214e+001
      vertex   -8.650001e+001 8.597025e+001 1.677324e+001
    endloop
  endfacet
  facet normal -1.063212e-001 0.000000e+000 0.000000e+000
    outer loop
      vertex   -8.650001e+001 8.636369e+001 1.587545e+001
      vertex   -8.650001e+001 8.597025e+001 1.677324e+001
      vertex   -8.650001e+001 8.606495e+001 1.681940e+001
    endloop
  endfacet
  facet normal -9.998360e-001 0.000000e+000 0.000000e+000
    outer loop
      vertex   -8.650001e+001 8.606495e+001 1.681940e+001
      vertex   -8.650001e+001 8.616595e+001 1.684936e+001
      vertex   -8.650001e+001 8.636369e+001 1.587545e+001
    endloop
  endfacet
  facet normal -1.059758e-001 0.000000e+000 0.000000e+000
    outer loop
      vertex   -8.650001e+001 8.636369e+001 1.587545e+001
      vertex   -8.650001e+001 8.616595e+001 1.684936e+001
      vertex   -8.650001e+001 8.627052e+001 1.686232e+001
    endloop
  endfacet
  facet normal -3.413837e-001 0.000000e+000 0.000000e+000
    outer loop
      vertex   -8.650001e+001 8.764907e+001 1.583339e+001
      vertex   -8.650001e+001 9.048199e+001 1.686232e+001
      vertex   -8.650001e+001 8.966754e+001 1.583339e+001
    endloop
  endfacet
  facet normal -8.192173e-002 0.000000e+000 0.000000e+000
    outer loop
      vertex   -8.650001e+001 8.966754e+001 1.583339e+001
      vertex   -8.650001e+001 9.048199e+001 1.686232e+001
      vertex   -8.650001e+001 9.061035e+001 1.684222e+001
    endloop
  endfacet
  facet normal -5.477774e-001 0.000000e+000 0.000000e+000
    outer loop
      vertex   -8.650001e+001 8.966754e+001 1.583339e+001
      vertex   -8.650001e+001 9.061035e+001 1.684222e+001
      vertex   -8.650001e+001 9.118058e+001 1.620287e+001
    endloop
  endfacet
  facet normal -8.578829e-002 0.000000e+000 0.000000e+000
    outer loop
      vertex   -8.650001e+001 9.118058e+001 1.620287e+001
      vertex   -8.650001e+001 9.061035e+001 1.684222e+001
      vertex   -8.650001e+001 9.073338e+001 1.680048e+001
    endloop
  endfacet
  facet normal -8.579277e-002 0.000000e+000 0.000000e+000
    outer loop
      vertex   -8.650001e+001 9.118058e+001 1.620287e+001
      vertex   -8.650001e+001 9.073338e+001 1.680048e+001
      vertex   -8.650001e+001 9.084747e+001 1.673831e+001
    endloop
  endfacet
  facet normal -3.368849e-001 0.000000e+000 0.000000e+000
    outer loop
      vertex   -8.650001e+001 9.084747e+001 1.673831e+001
      vertex   -8.650001e+001 9.094926e+001 1.665756e+001
      vertex   -8.650001e+001 9.118058e+001 1.620287e+001
    endloop
  endfacet
  facet normal -8.577579e-002 0.000000e+000 0.000000e+000
    outer loop
      vertex   -8.650001e+001 9.118058e+001 1.620287e+001
      vertex   -8.650001e+001 9.094926e+001 1.665756e+001
      vertex   -8.650001e+001 9.103573e+001 1.656060e+001
    endloop
  endfacet
  facet normal -8.579880e-002 0.000000e+000 0.000000e+000
    outer loop
      vertex   -8.650001e+001 9.118058e+001 1.620287e+001
      vertex   -8.650001e+001 9.103573e+001 1.656060e+001
      vertex   -8.650001e+001 9.110436e+001 1.645028e+001
    endloop
  endfacet
  facet normal -8.578288e-002 0.000000e+000 0.000000e+000
    outer loop
      vertex   -8.650001e+001 9.110436e+001 1.645028e+001
      vertex   -8.650001e+001 9.115312e+001 1.632986e+001
      vertex   -8.650001e+001 9.118058e+001 1.620287e+001
    endloop
  endfacet
  facet normal -1.864533e-001 0.000000e+000 0.000000e+000
    outer loop
      vertex   -8.650001e+001 9.045746e+001 1.366296e+001
      vertex   -8.650001e+001 9.118058e+001 9.852674e+000
      vertex   -8.650001e+001 9.045746e+001 1.173398e+001
    endloop
  endfacet
  facet normal -4.590080e-002 0.000000e+000 0.000000e+000
    outer loop
      vertex   -8.650001e+001 9.045746e+001 1.173398e+001
      vertex   -8.650001e+001 9.118058e+001 9.852674e+000
      vertex   -8.650001e+001 9.113588e+001 9.693921e+000
    endloop
  endfacet
  facet normal -4.804854e-002 0.000000e+000 0.000000e+000
    outer loop
      vertex   -8.650001e+001 9.045746e+001 1.173398e+001
      vertex   -8.650001e+001 9.113588e+001 9.693921e+000
      vertex   -8.650001e+001 9.107107e+001 9.542260e+000
    endloop
  endfacet
  facet normal -7.216200e-001 -0.000000e+000 0.000000e+000
    outer loop
      vertex   -8.650001e+001 9.107107e+001 9.542260e+000
      vertex   -8.650001e+001 9.098724e+001 9.400227e+000
      vertex   -8.650001e+001 9.045746e+001 1.173398e+001
    endloop
  endfacet
  facet normal -5.107489e-002 0.000000e+000 0.000000e+000
    outer loop
      vertex   -8.650001e+001 9.045746e+001 1.173398e+001
      vertex   -8.650001e+001 9.098724e+001 9.400227e+000
      vertex   -8.650001e+001 9.088579e+001 9.270192e+000
    endloop
  endfacet
  facet normal -5.214461e-002 0.000000e+000 0.000000e+000
    outer loop
      vertex   -8.650001e+001 9.045746e+001 1.173398e+001
      vertex   -8.650001e+001 9.088579e+001 9.270192e+000
      vertex   -8.650001e+001 9.076841e+001 9.154331e+000
    endloop
  endfacet
  facet normal -8.630140e-001 -0.000000e+000 0.000000e+000
    outer loop
      vertex   -8.650001e+001 9.076841e+001 9.154331e+000
      vertex   -8.650001e+001 9.063707e+001 9.054579e+000
      vertex   -8.650001e+001 9.045746e+001 1.173398e+001
    endloop
  endfacet
  facet normal -5.369124e-002 0.000000e+000 0.000000e+000
    outer loop
      vertex   -8.650001e+001 9.045746e+001 1.173398e+001
      vertex   -8.650001e+001 9.063707e+001 9.054579e+000
      vertex   -8.650001e+001 9.049396e+001 8.972602e+000
    endloop
  endfacet
  facet normal -5.423703e-002 0.000000e+000 -0.000000e+000
    outer loop
      vertex   -8.650001e+001 9.045746e+001 1.173398e+001
      vertex   -8.650001e+001 9.049396e+001 8.972602e+000
      vertex   -8.650001e+001 9.034147e+001 8.909770e+000
    endloop
  endfacet
  facet normal -8.425544e-001 0.000000e+000 0.000000e+000
    outer loop
      vertex   -8.650001e+001 8.966754e+001 1.523564e+001
      vertex   -8.650001e+001 8.966754e+001 1.583339e+001
      vertex   -8.650001e+001 9.118058e+001 1.620287e+001
    endloop
  endfacet
  facet normal 4.762793e-001 0.000000e+000 0.000000e+000
    outer loop
      vertex   -8.500001e+001 9.034147e+001 8.909770e+000
      vertex   -8.500001e+001 8.565826e+001 1.044316e+001
      vertex   -8.500001e+001 8.649771e+001 8.210335e+000
    endloop
  endfacet
  facet normal 4.062008e-001 0.000000e+000 0.000000e+000
    outer loop
      vertex   -8.500001e+001 8.649771e+001 8.210335e+000
      vertex   -8.500001e+001 8.565826e+001 1.044316e+001
      vertex   -8.500001e+001 8.565826e+001 9.062461e+000
    endloop
  endfacet
  facet normal 7.639564e-001 0.000000e+000 0.000000e+000
    outer loop
      vertex   -8.500001e+001 8.649771e+001 8.210335e+000
      vertex   -8.500001e+001 8.565826e+001 9.062461e+000
      vertex   -8.500001e+001 8.637704e+001 8.201082e+000
    endloop
  endfacet
  facet normal 7.067156e-001 0.000000e+000 0.000000e+000
    outer loop
      vertex   -8.500001e+001 8.637704e+001 8.201082e+000
      vertex   -8.500001e+001 8.565826e+001 9.062461e+000
      vertex   -8.500001e+001 8.625652e+001 8.212026e+000
    endloop
  endfacet
  facet normal 6.443087e-001 0.000000e+000 0.000000e+000
    outer loop
      vertex   -8.500001e+001 8.625652e+001 8.212026e+000
      vertex   -8.500001e+001 8.565826e+001 9.062461e+000
      vertex   -8.500001e+001 8.613950e+001 8.242860e+000
    endloop
  endfacet
  facet normal 5.770890e-001 0.000000e+000 0.000000e+000
    outer loop
      vertex   -8.500001e+001 8.613950e+001 8.242860e+000
      vertex   -8.500001e+001 8.565826e+001 9.062461e+000
      vertex   -8.500001e+001 8.602923e+001 8.292727e+000
    endloop
  endfacet
  facet normal 5.054574e-001 0.000000e+000 0.000000e+000
    outer loop
      vertex   -8.500001e+001 8.602923e+001 8.292727e+000
      vertex   -8.500001e+001 8.565826e+001 9.062461e+000
      vertex   -8.500001e+001 8.592879e+001 8.360239e+000
    endloop
  endfacet
  facet normal 4.297481e-001 0.000000e+000 0.000000e+000
    outer loop
      vertex   -8.500001e+001 8.592879e+001 8.360239e+000
      vertex   -8.500001e+001 8.565826e+001 9.062461e+000
      vertex   -8.500001e+001 8.584097e+001 8.443513e+000
    endloop
  endfacet
  facet normal 3.502428e-001 0.000000e+000 0.000000e+000
    outer loop
      vertex   -8.500001e+001 8.584097e+001 8.443513e+000
      vertex   -8.500001e+001 8.565826e+001 9.062461e+000
      vertex   -8.500001e+001 8.576823e+001 8.540232e+000
    endloop
  endfacet
  facet normal 2.669299e-001 0.000000e+000 0.000000e+000
    outer loop
      vertex   -8.500001e+001 8.576823e+001 8.540232e+000
      vertex   -8.500001e+001 8.565826e+001 9.062461e+000
      vertex   -8.500001e+001 8.571259e+001 8.647701e+000
    endloop
  endfacet
  facet normal 9.678117e-002 0.000000e+000 0.000000e+000
    outer loop
      vertex   -8.500001e+001 8.571259e+001 8.647701e+000
      vertex   -8.500001e+001 8.565826e+001 9.062461e+000
      vertex   -8.500001e+001 8.565826e+001 8.882704e+000
    endloop
  endfacet
  facet normal 8.346666e-002 0.000000e+000 0.000000e+000
    outer loop
      vertex   -8.500001e+001 8.571259e+001 8.647701e+000
      vertex   -8.500001e+001 8.565826e+001 8.882704e+000
      vertex   -8.500001e+001 8.567558e+001 8.762928e+000
    endloop
  endfacet
  facet normal 4.946291e-001 0.000000e+000 -0.000000e+000
    outer loop
      vertex   -8.500001e+001 9.049396e+001 8.972602e+000
      vertex   -8.500001e+001 9.118058e+001 9.852674e+000
      vertex   -8.500001e+001 9.034147e+001 8.909770e+000
    endloop
  endfacet
  facet normal 7.401906e-001 0.000000e+000 -0.000000e+000
    outer loop
      vertex   -8.500001e+001 9.034147e+001 8.909770e+000
      vertex   -8.500001e+001 9.118058e+001 9.852674e+000
      vertex   -8.500001e+001 8.966754e+001 1.523564e+001
    endloop
  endfacet
  facet normal 2.919436e-001 0.000000e+000 0.000000e+000
    outer loop
      vertex   -8.500001e+001 9.034147e+001 8.909770e+000
      vertex   -8.500001e+001 8.966754e+001 1.523564e+001
      vertex   -8.500001e+001 8.764907e+001 1.523564e+001
    endloop
  endfacet
  facet normal 3.783949e-001 0.000000e+000 0.000000e+000
    outer loop
      vertex   -8.500001e+001 9.049396e+001 8.972602e+000
      vertex   -8.500001e+001 9.063707e+001 9.054579e+000
      vertex   -8.500001e+001 9.118058e+001 9.852674e+000
    endloop
  endfacet
  facet normal 6.463011e-002 0.000000e+000 0.000000e+000
    outer loop
      vertex   -8.500001e+001 9.118058e+001 9.852674e+000
      vertex   -8.500001e+001 9.063707e+001 9.054579e+000
      vertex   -8.500001e+001 9.076841e+001 9.154331e+000
    endloop
  endfacet
  facet normal 6.463331e-002 0.000000e+000 0.000000e+000
    outer loop
      vertex   -8.500001e+001 9.118058e+001 9.852674e+000
      vertex   -8.500001e+001 9.076841e+001 9.154331e+000
      vertex   -8.500001e+001 9.088579e+001 9.270192e+000
    endloop
  endfacet
  facet normal 1.928357e-001 0.000000e+000 0.000000e+000
    outer loop
      vertex   -8.500001e+001 9.088579e+001 9.270192e+000
      vertex   -8.500001e+001 9.098724e+001 9.400227e+000
      vertex   -8.500001e+001 9.118058e+001 9.852674e+000
    endloop
  endfacet
  facet normal 6.462058e-002 0.000000e+000 0.000000e+000
    outer loop
      vertex   -8.500001e+001 9.118058e+001 9.852674e+000
      vertex   -8.500001e+001 9.098724e+001 9.400227e+000
      vertex   -8.500001e+001 9.107107e+001 9.542260e+000
    endloop
  endfacet
  facet normal 6.465020e-002 0.000000e+000 0.000000e+000
    outer loop
      vertex   -8.500001e+001 9.118058e+001 9.852674e+000
      vertex   -8.500001e+001 9.107107e+001 9.542260e+000
      vertex   -8.500001e+001 9.113588e+001 9.693921e+000
    endloop
  endfacet
  facet normal 2.705929e-001 0.000000e+000 -0.000000e+000
    outer loop
      vertex   -8.500001e+001 9.118058e+001 9.852674e+000
      vertex   -8.500001e+001 9.118058e+001 1.620287e+001
      vertex   -8.500001e+001 8.966754e+001 1.523564e+001
    endloop
  endfacet
  facet normal 8.425544e-001 0.000000e+000 0.000000e+000
    outer loop
      vertex   -8.500001e+001 8.966754e+001 1.523564e+001
      vertex   -8.500001e+001 9.118058e+001 1.620287e+001
      vertex   -8.500001e+001 8.966754e+001 1.583339e+001
    endloop
  endfacet
  facet normal 5.477774e-001 0.000000e+000 0.000000e+000
    outer loop
      vertex   -8.500001e+001 8.966754e+001 1.583339e+001
      vertex   -8.500001e+001 9.118058e+001 1.620287e+001
      vertex   -8.500001e+001 9.061035e+001 1.684222e+001
    endloop
  endfacet
  facet normal 8.192173e-002 0.000000e+000 0.000000e+000
    outer loop
      vertex   -8.500001e+001 8.966754e+001 1.583339e+001
      vertex   -8.500001e+001 9.061035e+001 1.684222e+001
      vertex   -8.500001e+001 9.048199e+001 1.686232e+001
    endloop
  endfacet
  facet normal 1.709314e-001 0.000000e+000 0.000000e+000
    outer loop
      vertex   -8.500001e+001 9.115312e+001 1.632986e+001
      vertex   -8.500001e+001 9.110436e+001 1.645028e+001
      vertex   -8.500001e+001 9.118058e+001 1.620287e+001
    endloop
  endfacet
  facet normal 8.579880e-002 0.000000e+000 0.000000e+000
    outer loop
      vertex   -8.500001e+001 9.118058e+001 1.620287e+001
      vertex   -8.500001e+001 9.110436e+001 1.645028e+001
      vertex   -8.500001e+001 9.103573e+001 1.656060e+001
    endloop
  endfacet
  facet normal 8.577579e-002 0.000000e+000 0.000000e+000
    outer loop
      vertex   -8.500001e+001 9.118058e+001 1.620287e+001
      vertex   -8.500001e+001 9.103573e+001 1.656060e+001
      vertex   -8.500001e+001 9.094926e+001 1.665756e+001
    endloop
  endfacet
  facet normal 4.164243e-001 0.000000e+000 0.000000e+000
    outer loop
      vertex   -8.500001e+001 9.094926e+001 1.665756e+001
      vertex   -8.500001e+001 9.084747e+001 1.673831e+001
      vertex   -8.500001e+001 9.118058e+001 1.620287e+001
    endloop
  endfacet
  facet normal 8.579277e-002 0.000000e+000 0.000000e+000
    outer loop
      vertex   -8.500001e+001 9.118058e+001 1.620287e+001
      vertex   -8.500001e+001 9.084747e+001 1.673831e+001
      vertex   -8.500001e+001 9.073338e+001 1.680048e+001
    endloop
  endfacet
  facet normal 8.578829e-002 0.000000e+000 0.000000e+000
    outer loop
      vertex   -8.500001e+001 9.118058e+001 1.620287e+001
      vertex   -8.500001e+001 9.073338e+001 1.680048e+001
      vertex   -8.500001e+001 9.061035e+001 1.684222e+001
    endloop
  endfacet
  facet normal 7.840884e-001 0.000000e+000 -0.000000e+000
    outer loop
      vertex   -8.500001e+001 8.966754e+001 1.583339e+001
      vertex   -8.500001e+001 9.048199e+001 1.686232e+001
      vertex   -8.500001e+001 8.764907e+001 1.583339e+001
    endloop
  endfacet
  facet normal 8.357898e-001 0.000000e+000 -0.000000e+000
    outer loop
      vertex   -8.500001e+001 8.764907e+001 1.583339e+001
      vertex   -8.500001e+001 9.048199e+001 1.686232e+001
      vertex   -8.500001e+001 8.627052e+001 1.686232e+001
    endloop
  endfacet
  facet normal 5.810809e-001 0.000000e+000 0.000000e+000
    outer loop
      vertex   -8.500001e+001 8.764907e+001 1.583339e+001
      vertex   -8.500001e+001 8.627052e+001 1.686232e+001
      vertex   -8.500001e+001 8.565826e+001 1.587545e+001
    endloop
  endfacet
  facet normal 7.467797e-002 0.000000e+000 0.000000e+000
    outer loop
      vertex   -8.500001e+001 8.565826e+001 1.587545e+001
      vertex   -8.500001e+001 8.627052e+001 1.686232e+001
      vertex   -8.500001e+001 8.616595e+001 1.684936e+001
    endloop
  endfacet
  facet normal 7.366564e-002 0.000000e+000 0.000000e+000
    outer loop
      vertex   -8.500001e+001 8.565826e+001 1.587545e+001
      vertex   -8.500001e+001 8.616595e+001 1.684936e+001
      vertex   -8.500001e+001 8.606495e+001 1.681940e+001
    endloop
  endfacet
  facet normal 3.956765e-001 0.000000e+000 0.000000e+000
    outer loop
      vertex   -8.500001e+001 8.565826e+001 1.587545e+001
      vertex   -8.500001e+001 8.606495e+001 1.681940e+001
      vertex   -8.500001e+001 8.565826e+001 1.625220e+001
    endloop
  endfacet
  facet normal 8.244358e-002 0.000000e+000 0.000000e+000
    outer loop
      vertex   -8.500001e+001 8.565826e+001 1.625220e+001
      vertex   -8.500001e+001 8.606495e+001 1.681940e+001
      vertex   -8.500001e+001 8.597025e+001 1.677324e+001
    endloop
  endfacet
  facet normal 8.244263e-002 0.000000e+000 0.000000e+000
    outer loop
      vertex   -8.500001e+001 8.565826e+001 1.625220e+001
      vertex   -8.500001e+001 8.597025e+001 1.677324e+001
      vertex   -8.500001e+001 8.588441e+001 1.671214e+001
    endloop
  endfacet
  facet normal 3.242204e-001 0.000000e+000 0.000000e+000
    outer loop
      vertex   -8.500001e+001 8.588441e+001 1.671214e+001
      vertex   -8.500001e+001 8.580978e+001 1.663778e+001
      vertex   -8.500001e+001 8.565826e+001 1.625220e+001
    endloop
  endfacet
  facet normal 8.245252e-002 0.000000e+000 0.000000e+000
    outer loop
      vertex   -8.500001e+001 8.565826e+001 1.625220e+001
      vertex   -8.500001e+001 8.580978e+001 1.663778e+001
      vertex   -8.500001e+001 8.574839e+001 1.655215e+001
    endloop
  endfacet
  facet normal 8.244830e-002 0.000000e+000 0.000000e+000
    outer loop
      vertex   -8.500001e+001 8.565826e+001 1.625220e+001
      vertex   -8.500001e+001 8.574839e+001 1.655215e+001
      vertex   -8.500001e+001 8.570190e+001 1.645761e+001
    endloop
  endfacet
  facet normal 8.247267e-002 0.000000e+000 0.000000e+000
    outer loop
      vertex   -8.500001e+001 8.570190e+001 1.645761e+001
      vertex   -8.500001e+001 8.567159e+001 1.635671e+001
      vertex   -8.500001e+001 8.565826e+001 1.625220e+001
    endloop
  endfacet
  facet normal 7.735383e-001 -0.000000e+000 0.000000e+000
    outer loop
      vertex   -8.500001e+001 8.459754e+001 1.587545e+001
      vertex   -8.500001e+001 8.565826e+001 1.458076e+001
      vertex   -8.500001e+001 8.565826e+001 1.587545e+001
    endloop
  endfacet
  facet normal 9.520412e-001 0.000000e+000 0.000000e+000
    outer loop
      vertex   -8.500001e+001 8.565826e+001 1.587545e+001
      vertex   -8.500001e+001 8.565826e+001 1.458076e+001
      vertex   -8.500001e+001 8.764907e+001 1.523564e+001
    endloop
  endfacet
  facet normal 2.857914e-001 0.000000e+000 0.000000e+000
    outer loop
      vertex   -8.500001e+001 8.565826e+001 1.587545e+001
      vertex   -8.500001e+001 8.764907e+001 1.523564e+001
      vertex   -8.500001e+001 8.764907e+001 1.583339e+001
    endloop
  endfacet
  facet normal 6.337496e-001 0.000000e+000 0.000000e+000
    outer loop
      vertex   -8.500001e+001 8.459754e+001 1.587545e+001
      vertex   -8.500001e+001 8.459754e+001 1.458076e+001
      vertex   -8.500001e+001 8.565826e+001 1.458076e+001
    endloop
  endfacet
  facet normal 9.499246e-001 -0.000000e+000 0.000000e+000
    outer loop
      vertex   -8.500001e+001 8.565826e+001 1.458076e+001
      vertex   -8.500001e+001 8.565826e+001 1.044316e+001
      vertex   -8.500001e+001 8.764907e+001 1.523564e+001
    endloop
  endfacet
  facet normal 7.146375e-001 0.000000e+000 0.000000e+000
    outer loop
      vertex   -8.500001e+001 8.764907e+001 1.523564e+001
      vertex   -8.500001e+001 8.565826e+001 1.044316e+001
      vertex   -8.500001e+001 9.034147e+001 8.909770e+000
    endloop
  endfacet
  facet normal 1.000000e+000 -0.000000e+000 0.000000e+000
    outer loop
      vertex   -8.500001e+001 8.459754e+001 1.044316e+001
      vertex   -8.500001e+001 8.459754e+001 9.062461e+000
      vertex   -8.500001e+001 8.565826e+001 1.044316e+001
    endloop
  endfacet
  facet normal 6.092232e-001 0.000000e+000 0.000000e+000
    outer loop
      vertex   -8.500001e+001 8.565826e+001 1.044316e+001
      vertex   -8.500001e+001 8.459754e+001 9.062461e+000
      vertex   -8.500001e+001 8.565826e+001 9.062461e+000
    endloop
  endfacet
endsolid
