solid ascii
  facet normal -9.994165e-001 3.415522e-002 0.000000e+000
    outer loop
      vertex   -1.547389e+002 5.032415e+001 5.000000e+000
      vertex   -1.547389e+002 5.032415e+001 0.000000e+000
      vertex   -1.547500e+002 5.000000e+001 5.000000e+000
    endloop
  endfacet
  facet normal -6.469405e-002 2.210930e-003 0.000000e+000
    outer loop
      vertex   -1.547500e+002 5.000000e+001 5.000000e+000
      vertex   -1.547389e+002 5.032415e+001 0.000000e+000
      vertex   -1.547500e+002 5.000000e+001 0.000000e+000
    endloop
  endfacet
  facet normal -9.994165e-001 -3.415522e-002 -0.000000e+000
    outer loop
      vertex   -1.547500e+002 5.000000e+001 5.000000e+000
      vertex   -1.547500e+002 5.000000e+001 0.000000e+000
      vertex   -1.547389e+002 4.967585e+001 5.000000e+000
    endloop
  endfacet
  facet normal -6.469405e-002 -2.210930e-003 -0.000000e+000
    outer loop
      vertex   -1.547389e+002 4.967585e+001 5.000000e+000
      vertex   -1.547500e+002 5.000000e+001 0.000000e+000
      vertex   -1.547389e+002 4.967585e+001 0.000000e+000
    endloop
  endfacet
  facet normal -6.439332e-002 -6.617561e-003 -0.000000e+000
    outer loop
      vertex   -1.547389e+002 4.967585e+001 5.000000e+000
      vertex   -1.547389e+002 4.967585e+001 0.000000e+000
      vertex   -1.547058e+002 4.935321e+001 0.000000e+000
    endloop
  endfacet
  facet normal -9.947609e-001 1.022294e-001 0.000000e+000
    outer loop
      vertex   -1.547389e+002 5.032415e+001 5.000000e+000
      vertex   -1.547058e+002 5.064679e+001 5.000000e+000
      vertex   -1.547389e+002 5.032415e+001 0.000000e+000
    endloop
  endfacet
  facet normal -9.926745e-001 1.020150e-001 8.673617e-019
    outer loop
      vertex   -1.547389e+002 5.032415e+001 0.000000e+000
      vertex   -1.547058e+002 5.064679e+001 5.000000e+000
      vertex   -1.547058e+002 5.064679e+001 0.000000e+000
    endloop
  endfacet
  facet normal -6.379034e-002 1.099983e-002 0.000000e+000
    outer loop
      vertex   -1.547058e+002 5.064679e+001 0.000000e+000
      vertex   -1.547058e+002 5.064679e+001 5.000000e+000
      vertex   -1.546507e+002 5.096642e+001 5.000000e+000
    endloop
  endfacet
  facet normal -9.833894e-001 1.695730e-001 1.734723e-018
    outer loop
      vertex   -1.547058e+002 5.064679e+001 0.000000e+000
      vertex   -1.546507e+002 5.096642e+001 5.000000e+000
      vertex   -1.546507e+002 5.096642e+001 0.000000e+000
    endloop
  endfacet
  facet normal -6.289195e-002 1.532728e-002 0.000000e+000
    outer loop
      vertex   -1.546507e+002 5.096642e+001 0.000000e+000
      vertex   -1.546507e+002 5.096642e+001 5.000000e+000
      vertex   -1.545739e+002 5.128154e+001 5.000000e+000
    endloop
  endfacet
  facet normal -9.695261e-001 2.362814e-001 -1.734723e-018
    outer loop
      vertex   -1.546507e+002 5.096642e+001 0.000000e+000
      vertex   -1.545739e+002 5.128154e+001 5.000000e+000
      vertex   -1.545739e+002 5.128154e+001 0.000000e+000
    endloop
  endfacet
  facet normal -6.169894e-002 1.958165e-002 0.000000e+000
    outer loop
      vertex   -1.545739e+002 5.128154e+001 0.000000e+000
      vertex   -1.545739e+002 5.128154e+001 5.000000e+000
      vertex   -1.544757e+002 5.159068e+001 5.000000e+000
    endloop
  endfacet
  facet normal -9.511489e-001 3.018701e-001 3.469447e-018
    outer loop
      vertex   -1.545739e+002 5.128154e+001 0.000000e+000
      vertex   -1.544757e+002 5.159068e+001 5.000000e+000
      vertex   -1.544757e+002 5.159068e+001 0.000000e+000
    endloop
  endfacet
  facet normal -6.021889e-002 2.374770e-002 0.000000e+000
    outer loop
      vertex   -1.544757e+002 5.159068e+001 0.000000e+000
      vertex   -1.544757e+002 5.159068e+001 5.000000e+000
      vertex   -1.543568e+002 5.189241e+001 5.000000e+000
    endloop
  endfacet
  facet normal -9.283250e-001 3.660907e-001 0.000000e+000
    outer loop
      vertex   -1.544757e+002 5.159068e+001 0.000000e+000
      vertex   -1.543568e+002 5.189241e+001 5.000000e+000
      vertex   -1.543568e+002 5.189241e+001 0.000000e+000
    endloop
  endfacet
  facet normal -5.845792e-002 2.780107e-002 0.000000e+000
    outer loop
      vertex   -1.543568e+002 5.189241e+001 0.000000e+000
      vertex   -1.543568e+002 5.189241e+001 5.000000e+000
      vertex   -1.542175e+002 5.218531e+001 5.000000e+000
    endloop
  endfacet
  facet normal -9.011825e-001 4.285790e-001 3.469447e-018
    outer loop
      vertex   -1.543568e+002 5.189241e+001 0.000000e+000
      vertex   -1.542175e+002 5.218531e+001 5.000000e+000
      vertex   -1.542175e+002 5.218531e+001 0.000000e+000
    endloop
  endfacet
  facet normal -5.642438e-002 3.172653e-002 0.000000e+000
    outer loop
      vertex   -1.542175e+002 5.218531e+001 0.000000e+000
      vertex   -1.542175e+002 5.218531e+001 5.000000e+000
      vertex   -1.540585e+002 5.246803e+001 5.000000e+000
    endloop
  endfacet
  facet normal -8.698277e-001 4.890903e-001 -3.469447e-018
    outer loop
      vertex   -1.542175e+002 5.218531e+001 0.000000e+000
      vertex   -1.540585e+002 5.246803e+001 5.000000e+000
      vertex   -1.540585e+002 5.246803e+001 0.000000e+000
    endloop
  endfacet
  facet normal -5.412742e-002 3.550278e-002 0.000000e+000
    outer loop
      vertex   -1.540585e+002 5.246803e+001 0.000000e+000
      vertex   -1.540585e+002 5.246803e+001 5.000000e+000
      vertex   -1.538806e+002 5.273923e+001 5.000000e+000
    endloop
  endfacet
  facet normal -8.344241e-001 5.473081e-001 3.469447e-018
    outer loop
      vertex   -1.540585e+002 5.246803e+001 0.000000e+000
      vertex   -1.538806e+002 5.273923e+001 5.000000e+000
      vertex   -1.538806e+002 5.273923e+001 0.000000e+000
    endloop
  endfacet
  facet normal -5.157922e-002 3.911152e-002 0.000000e+000
    outer loop
      vertex   -1.538806e+002 5.273923e+001 0.000000e+000
      vertex   -1.538806e+002 5.273923e+001 5.000000e+000
      vertex   -1.536846e+002 5.299767e+001 5.000000e+000
    endloop
  endfacet
  facet normal -7.951506e-001 6.029473e-001 3.469447e-018
    outer loop
      vertex   -1.538806e+002 5.273923e+001 0.000000e+000
      vertex   -1.536846e+002 5.299767e+001 5.000000e+000
      vertex   -1.536846e+002 5.299767e+001 0.000000e+000
    endloop
  endfacet
  facet normal -4.878891e-002 4.254364e-002 0.000000e+000
    outer loop
      vertex   -1.536846e+002 5.299767e+001 0.000000e+000
      vertex   -1.536846e+002 5.299767e+001 5.000000e+000
      vertex   -1.534715e+002 5.324213e+001 5.000000e+000
    endloop
  endfacet
  facet normal -7.521176e-001 6.558421e-001 0.000000e+000
    outer loop
      vertex   -1.536846e+002 5.299767e+001 0.000000e+000
      vertex   -1.534715e+002 5.324213e+001 5.000000e+000
      vertex   -1.534715e+002 5.324213e+001 0.000000e+000
    endloop
  endfacet
  facet normal -4.577248e-002 4.577172e-002 0.000000e+000
    outer loop
      vertex   -1.534715e+002 5.324213e+001 0.000000e+000
      vertex   -1.534715e+002 5.324213e+001 5.000000e+000
      vertex   -1.532421e+002 5.347147e+001 5.000000e+000
    endloop
  endfacet
  facet normal -7.056296e-001 7.056179e-001 -6.938894e-018
    outer loop
      vertex   -1.534715e+002 5.324213e+001 0.000000e+000
      vertex   -1.532421e+002 5.347147e+001 5.000000e+000
      vertex   -1.532421e+002 5.347147e+001 0.000000e+000
    endloop
  endfacet
  facet normal -4.254212e-002 4.878967e-002 0.000000e+000
    outer loop
      vertex   -1.532421e+002 5.347147e+001 0.000000e+000
      vertex   -1.532421e+002 5.347147e+001 5.000000e+000
      vertex   -1.529977e+002 5.368463e+001 5.000000e+000
    endloop
  endfacet
  facet normal -6.558230e-001 7.521343e-001 0.000000e+000
    outer loop
      vertex   -1.532421e+002 5.347147e+001 0.000000e+000
      vertex   -1.529977e+002 5.368463e+001 5.000000e+000
      vertex   -1.529977e+002 5.368463e+001 0.000000e+000
    endloop
  endfacet
  facet normal -3.911381e-002 5.157921e-002 0.000000e+000
    outer loop
      vertex   -1.529977e+002 5.368463e+001 0.000000e+000
      vertex   -1.529977e+002 5.368463e+001 5.000000e+000
      vertex   -1.527392e+002 5.388061e+001 5.000000e+000
    endloop
  endfacet
  facet normal -6.029696e-001 7.951335e-001 3.469447e-018
    outer loop
      vertex   -1.529977e+002 5.368463e+001 0.000000e+000
      vertex   -1.527392e+002 5.388061e+001 5.000000e+000
      vertex   -1.527392e+002 5.388061e+001 0.000000e+000
    endloop
  endfacet
  facet normal -3.550201e-002 5.412818e-002 0.000000e+000
    outer loop
      vertex   -1.527392e+002 5.388061e+001 0.000000e+000
      vertex   -1.527392e+002 5.388061e+001 5.000000e+000
      vertex   -1.524680e+002 5.405849e+001 5.000000e+000
    endloop
  endfacet
  facet normal -5.472945e-001 8.344330e-001 -3.469447e-018
    outer loop
      vertex   -1.527392e+002 5.388061e+001 0.000000e+000
      vertex   -1.524680e+002 5.405849e+001 5.000000e+000
      vertex   -1.524680e+002 5.405849e+001 0.000000e+000
    endloop
  endfacet
  facet normal -3.172577e-002 5.642438e-002 0.000000e+000
    outer loop
      vertex   -1.524680e+002 5.405849e+001 0.000000e+000
      vertex   -1.524680e+002 5.405849e+001 5.000000e+000
      vertex   -1.521853e+002 5.421745e+001 5.000000e+000
    endloop
  endfacet
  facet normal -4.890814e-001 8.698328e-001 -3.469447e-018
    outer loop
      vertex   -1.524680e+002 5.405849e+001 0.000000e+000
      vertex   -1.521853e+002 5.421745e+001 5.000000e+000
      vertex   -1.521853e+002 5.421745e+001 0.000000e+000
    endloop
  endfacet
  facet normal -2.780183e-002 5.845564e-002 0.000000e+000
    outer loop
      vertex   -1.521853e+002 5.421745e+001 0.000000e+000
      vertex   -1.521853e+002 5.421745e+001 5.000000e+000
      vertex   -1.518924e+002 5.435675e+001 5.000000e+000
    endloop
  endfacet
  facet normal -4.286022e-001 9.011715e-001 0.000000e+000
    outer loop
      vertex   -1.521853e+002 5.421745e+001 0.000000e+000
      vertex   -1.518924e+002 5.435675e+001 5.000000e+000
      vertex   -1.518924e+002 5.435675e+001 0.000000e+000
    endloop
  endfacet
  facet normal -2.374694e-002 6.021890e-002 0.000000e+000
    outer loop
      vertex   -1.518924e+002 5.435675e+001 0.000000e+000
      vertex   -1.518924e+002 5.435675e+001 5.000000e+000
      vertex   -1.515907e+002 5.447574e+001 5.000000e+000
    endloop
  endfacet
  facet normal -3.660806e-001 9.283290e-001 0.000000e+000
    outer loop
      vertex   -1.518924e+002 5.435675e+001 0.000000e+000
      vertex   -1.515907e+002 5.447574e+001 5.000000e+000
      vertex   -1.515907e+002 5.447574e+001 0.000000e+000
    endloop
  endfacet
  facet normal -1.958241e-002 6.169894e-002 0.000000e+000
    outer loop
      vertex   -1.515907e+002 5.447574e+001 0.000000e+000
      vertex   -1.515907e+002 5.447574e+001 5.000000e+000
      vertex   -1.512815e+002 5.457386e+001 5.000000e+000
    endloop
  endfacet
  facet normal -3.018807e-001 9.511455e-001 -3.469447e-018
    outer loop
      vertex   -1.515907e+002 5.447574e+001 0.000000e+000
      vertex   -1.512815e+002 5.457386e+001 5.000000e+000
      vertex   -1.512815e+002 5.457386e+001 0.000000e+000
    endloop
  endfacet
  facet normal -1.532652e-002 6.289271e-002 0.000000e+000
    outer loop
      vertex   -1.512815e+002 5.457386e+001 0.000000e+000
      vertex   -1.512815e+002 5.457386e+001 5.000000e+000
      vertex   -1.509664e+002 5.465065e+001 5.000000e+000
    endloop
  endfacet
  facet normal -2.362676e-001 9.695294e-001 -1.734723e-018
    outer loop
      vertex   -1.512815e+002 5.457386e+001 0.000000e+000
      vertex   -1.509664e+002 5.465065e+001 5.000000e+000
      vertex   -1.509664e+002 5.465065e+001 0.000000e+000
    endloop
  endfacet
  facet normal -1.099831e-002 6.379110e-002 0.000000e+000
    outer loop
      vertex   -1.509664e+002 5.465065e+001 0.000000e+000
      vertex   -1.509664e+002 5.465065e+001 5.000000e+000
      vertex   -1.506468e+002 5.470576e+001 5.000000e+000
    endloop
  endfacet
  facet normal -1.695482e-001 9.833937e-001 0.000000e+000
    outer loop
      vertex   -1.509664e+002 5.465065e+001 0.000000e+000
      vertex   -1.506468e+002 5.470576e+001 5.000000e+000
      vertex   -1.506468e+002 5.470576e+001 0.000000e+000
    endloop
  endfacet
  facet normal -6.619846e-003 6.439104e-002 0.000000e+000
    outer loop
      vertex   -1.506468e+002 5.470576e+001 0.000000e+000
      vertex   -1.506468e+002 5.470576e+001 5.000000e+000
      vertex   -1.503242e+002 5.473893e+001 5.000000e+000
    endloop
  endfacet
  facet normal -1.020534e-001 9.926707e-001 8.673617e-019
    outer loop
      vertex   -1.506468e+002 5.470576e+001 0.000000e+000
      vertex   -1.503242e+002 5.473893e+001 5.000000e+000
      vertex   -1.503242e+002 5.473893e+001 0.000000e+000
    endloop
  endfacet
  facet normal -2.210168e-003 6.469557e-002 0.000000e+000
    outer loop
      vertex   -1.503242e+002 5.473893e+001 0.000000e+000
      vertex   -1.503242e+002 5.473893e+001 5.000000e+000
      vertex   -1.500000e+002 5.475000e+001 5.000000e+000
    endloop
  endfacet
  facet normal -3.407106e-002 9.973208e-001 -4.336809e-019
    outer loop
      vertex   -1.503242e+002 5.473893e+001 0.000000e+000
      vertex   -1.500000e+002 5.475000e+001 5.000000e+000
      vertex   -1.500000e+002 5.475000e+001 0.000000e+000
    endloop
  endfacet
  facet normal 2.210168e-003 6.469557e-002 -0.000000e+000
    outer loop
      vertex   -1.500000e+002 5.475000e+001 0.000000e+000
      vertex   -1.500000e+002 5.475000e+001 5.000000e+000
      vertex   -1.496758e+002 5.473893e+001 5.000000e+000
    endloop
  endfacet
  facet normal 3.407106e-002 9.973208e-001 4.336809e-019
    outer loop
      vertex   -1.500000e+002 5.475000e+001 0.000000e+000
      vertex   -1.496758e+002 5.473893e+001 5.000000e+000
      vertex   -1.496758e+002 5.473893e+001 0.000000e+000
    endloop
  endfacet
  facet normal 6.619846e-003 6.439104e-002 -0.000000e+000
    outer loop
      vertex   -1.496758e+002 5.473893e+001 0.000000e+000
      vertex   -1.496758e+002 5.473893e+001 5.000000e+000
      vertex   -1.493532e+002 5.470576e+001 5.000000e+000
    endloop
  endfacet
  facet normal 1.020534e-001 9.926707e-001 -8.673617e-019
    outer loop
      vertex   -1.496758e+002 5.473893e+001 0.000000e+000
      vertex   -1.493532e+002 5.470576e+001 5.000000e+000
      vertex   -1.493532e+002 5.470576e+001 0.000000e+000
    endloop
  endfacet
  facet normal 1.099831e-002 6.379110e-002 -0.000000e+000
    outer loop
      vertex   -1.493532e+002 5.470576e+001 0.000000e+000
      vertex   -1.493532e+002 5.470576e+001 5.000000e+000
      vertex   -1.490336e+002 5.465065e+001 5.000000e+000
    endloop
  endfacet
  facet normal 1.695482e-001 9.833937e-001 0.000000e+000
    outer loop
      vertex   -1.493532e+002 5.470576e+001 0.000000e+000
      vertex   -1.490336e+002 5.465065e+001 5.000000e+000
      vertex   -1.490336e+002 5.465065e+001 0.000000e+000
    endloop
  endfacet
  facet normal 1.532652e-002 6.289271e-002 -0.000000e+000
    outer loop
      vertex   -1.490336e+002 5.465065e+001 0.000000e+000
      vertex   -1.490336e+002 5.465065e+001 5.000000e+000
      vertex   -1.487185e+002 5.457386e+001 5.000000e+000
    endloop
  endfacet
  facet normal 2.362676e-001 9.695294e-001 1.734723e-018
    outer loop
      vertex   -1.490336e+002 5.465065e+001 0.000000e+000
      vertex   -1.487185e+002 5.457386e+001 5.000000e+000
      vertex   -1.487185e+002 5.457386e+001 0.000000e+000
    endloop
  endfacet
  facet normal 1.958241e-002 6.169894e-002 -0.000000e+000
    outer loop
      vertex   -1.487185e+002 5.457386e+001 0.000000e+000
      vertex   -1.487185e+002 5.457386e+001 5.000000e+000
      vertex   -1.484093e+002 5.447574e+001 5.000000e+000
    endloop
  endfacet
  facet normal 3.018807e-001 9.511455e-001 3.469447e-018
    outer loop
      vertex   -1.487185e+002 5.457386e+001 0.000000e+000
      vertex   -1.484093e+002 5.447574e+001 5.000000e+000
      vertex   -1.484093e+002 5.447574e+001 0.000000e+000
    endloop
  endfacet
  facet normal 2.374694e-002 6.021890e-002 -0.000000e+000
    outer loop
      vertex   -1.484093e+002 5.447574e+001 0.000000e+000
      vertex   -1.484093e+002 5.447574e+001 5.000000e+000
      vertex   -1.481076e+002 5.435675e+001 5.000000e+000
    endloop
  endfacet
  facet normal 3.660806e-001 9.283290e-001 0.000000e+000
    outer loop
      vertex   -1.484093e+002 5.447574e+001 0.000000e+000
      vertex   -1.481076e+002 5.435675e+001 5.000000e+000
      vertex   -1.481076e+002 5.435675e+001 0.000000e+000
    endloop
  endfacet
  facet normal 2.780183e-002 5.845564e-002 -0.000000e+000
    outer loop
      vertex   -1.481076e+002 5.435675e+001 0.000000e+000
      vertex   -1.481076e+002 5.435675e+001 5.000000e+000
      vertex   -1.478147e+002 5.421745e+001 5.000000e+000
    endloop
  endfacet
  facet normal 4.286022e-001 9.011715e-001 0.000000e+000
    outer loop
      vertex   -1.481076e+002 5.435675e+001 0.000000e+000
      vertex   -1.478147e+002 5.421745e+001 5.000000e+000
      vertex   -1.478147e+002 5.421745e+001 0.000000e+000
    endloop
  endfacet
  facet normal 3.172577e-002 5.642438e-002 -0.000000e+000
    outer loop
      vertex   -1.478147e+002 5.421745e+001 0.000000e+000
      vertex   -1.478147e+002 5.421745e+001 5.000000e+000
      vertex   -1.475320e+002 5.405849e+001 5.000000e+000
    endloop
  endfacet
  facet normal 4.890814e-001 8.698328e-001 3.469447e-018
    outer loop
      vertex   -1.478147e+002 5.421745e+001 0.000000e+000
      vertex   -1.475320e+002 5.405849e+001 5.000000e+000
      vertex   -1.475320e+002 5.405849e+001 0.000000e+000
    endloop
  endfacet
  facet normal 3.550201e-002 5.412818e-002 -0.000000e+000
    outer loop
      vertex   -1.475320e+002 5.405849e+001 0.000000e+000
      vertex   -1.475320e+002 5.405849e+001 5.000000e+000
      vertex   -1.472608e+002 5.388061e+001 5.000000e+000
    endloop
  endfacet
  facet normal 5.472945e-001 8.344330e-001 3.469447e-018
    outer loop
      vertex   -1.475320e+002 5.405849e+001 0.000000e+000
      vertex   -1.472608e+002 5.388061e+001 5.000000e+000
      vertex   -1.472608e+002 5.388061e+001 0.000000e+000
    endloop
  endfacet
  facet normal 3.911381e-002 5.157921e-002 -0.000000e+000
    outer loop
      vertex   -1.472608e+002 5.388061e+001 0.000000e+000
      vertex   -1.472608e+002 5.388061e+001 5.000000e+000
      vertex   -1.470023e+002 5.368463e+001 5.000000e+000
    endloop
  endfacet
  facet normal 6.029696e-001 7.951335e-001 -3.469447e-018
    outer loop
      vertex   -1.472608e+002 5.388061e+001 0.000000e+000
      vertex   -1.470023e+002 5.368463e+001 5.000000e+000
      vertex   -1.470023e+002 5.368463e+001 0.000000e+000
    endloop
  endfacet
  facet normal 4.254212e-002 4.878967e-002 -0.000000e+000
    outer loop
      vertex   -1.470023e+002 5.368463e+001 0.000000e+000
      vertex   -1.470023e+002 5.368463e+001 5.000000e+000
      vertex   -1.467579e+002 5.347147e+001 5.000000e+000
    endloop
  endfacet
  facet normal 6.558230e-001 7.521343e-001 0.000000e+000
    outer loop
      vertex   -1.470023e+002 5.368463e+001 0.000000e+000
      vertex   -1.467579e+002 5.347147e+001 5.000000e+000
      vertex   -1.467579e+002 5.347147e+001 0.000000e+000
    endloop
  endfacet
  facet normal 4.577248e-002 4.577172e-002 -0.000000e+000
    outer loop
      vertex   -1.467579e+002 5.347147e+001 0.000000e+000
      vertex   -1.467579e+002 5.347147e+001 5.000000e+000
      vertex   -1.465285e+002 5.324213e+001 5.000000e+000
    endloop
  endfacet
  facet normal 7.056296e-001 7.056179e-001 6.938894e-018
    outer loop
      vertex   -1.467579e+002 5.347147e+001 0.000000e+000
      vertex   -1.465285e+002 5.324213e+001 5.000000e+000
      vertex   -1.465285e+002 5.324213e+001 0.000000e+000
    endloop
  endfacet
  facet normal 4.878891e-002 4.254364e-002 -0.000000e+000
    outer loop
      vertex   -1.465285e+002 5.324213e+001 0.000000e+000
      vertex   -1.465285e+002 5.324213e+001 5.000000e+000
      vertex   -1.463154e+002 5.299767e+001 5.000000e+000
    endloop
  endfacet
  facet normal 7.521176e-001 6.558421e-001 0.000000e+000
    outer loop
      vertex   -1.465285e+002 5.324213e+001 0.000000e+000
      vertex   -1.463154e+002 5.299767e+001 5.000000e+000
      vertex   -1.463154e+002 5.299767e+001 0.000000e+000
    endloop
  endfacet
  facet normal 5.157922e-002 3.911152e-002 -0.000000e+000
    outer loop
      vertex   -1.463154e+002 5.299767e+001 0.000000e+000
      vertex   -1.463154e+002 5.299767e+001 5.000000e+000
      vertex   -1.461194e+002 5.273923e+001 5.000000e+000
    endloop
  endfacet
  facet normal 7.951506e-001 6.029473e-001 -3.469447e-018
    outer loop
      vertex   -1.463154e+002 5.299767e+001 0.000000e+000
      vertex   -1.461194e+002 5.273923e+001 5.000000e+000
      vertex   -1.461194e+002 5.273923e+001 0.000000e+000
    endloop
  endfacet
  facet normal 5.412742e-002 3.550278e-002 -0.000000e+000
    outer loop
      vertex   -1.461194e+002 5.273923e+001 0.000000e+000
      vertex   -1.461194e+002 5.273923e+001 5.000000e+000
      vertex   -1.459415e+002 5.246803e+001 5.000000e+000
    endloop
  endfacet
  facet normal 8.344241e-001 5.473081e-001 -3.469447e-018
    outer loop
      vertex   -1.461194e+002 5.273923e+001 0.000000e+000
      vertex   -1.459415e+002 5.246803e+001 5.000000e+000
      vertex   -1.459415e+002 5.246803e+001 0.000000e+000
    endloop
  endfacet
  facet normal 5.642438e-002 3.172653e-002 -0.000000e+000
    outer loop
      vertex   -1.459415e+002 5.246803e+001 0.000000e+000
      vertex   -1.459415e+002 5.246803e+001 5.000000e+000
      vertex   -1.457825e+002 5.218531e+001 5.000000e+000
    endloop
  endfacet
  facet normal 8.698277e-001 4.890903e-001 3.469447e-018
    outer loop
      vertex   -1.459415e+002 5.246803e+001 0.000000e+000
      vertex   -1.457825e+002 5.218531e+001 5.000000e+000
      vertex   -1.457825e+002 5.218531e+001 0.000000e+000
    endloop
  endfacet
  facet normal 5.845792e-002 2.780107e-002 -0.000000e+000
    outer loop
      vertex   -1.457825e+002 5.218531e+001 0.000000e+000
      vertex   -1.457825e+002 5.218531e+001 5.000000e+000
      vertex   -1.456432e+002 5.189241e+001 5.000000e+000
    endloop
  endfacet
  facet normal 9.011825e-001 4.285790e-001 -3.469447e-018
    outer loop
      vertex   -1.457825e+002 5.218531e+001 0.000000e+000
      vertex   -1.456432e+002 5.189241e+001 5.000000e+000
      vertex   -1.456432e+002 5.189241e+001 0.000000e+000
    endloop
  endfacet
  facet normal 6.021889e-002 2.374770e-002 -0.000000e+000
    outer loop
      vertex   -1.456432e+002 5.189241e+001 0.000000e+000
      vertex   -1.456432e+002 5.189241e+001 5.000000e+000
      vertex   -1.455243e+002 5.159068e+001 5.000000e+000
    endloop
  endfacet
  facet normal 9.283250e-001 3.660907e-001 0.000000e+000
    outer loop
      vertex   -1.456432e+002 5.189241e+001 0.000000e+000
      vertex   -1.455243e+002 5.159068e+001 5.000000e+000
      vertex   -1.455243e+002 5.159068e+001 0.000000e+000
    endloop
  endfacet
  facet normal 6.169894e-002 1.958165e-002 -0.000000e+000
    outer loop
      vertex   -1.455243e+002 5.159068e+001 0.000000e+000
      vertex   -1.455243e+002 5.159068e+001 5.000000e+000
      vertex   -1.454261e+002 5.128154e+001 5.000000e+000
    endloop
  endfacet
  facet normal 9.511489e-001 3.018701e-001 -3.469447e-018
    outer loop
      vertex   -1.455243e+002 5.159068e+001 0.000000e+000
      vertex   -1.454261e+002 5.128154e+001 5.000000e+000
      vertex   -1.454261e+002 5.128154e+001 0.000000e+000
    endloop
  endfacet
  facet normal 6.289195e-002 1.532728e-002 -0.000000e+000
    outer loop
      vertex   -1.454261e+002 5.128154e+001 0.000000e+000
      vertex   -1.454261e+002 5.128154e+001 5.000000e+000
      vertex   -1.453493e+002 5.096642e+001 5.000000e+000
    endloop
  endfacet
  facet normal 9.695261e-001 2.362814e-001 1.734723e-018
    outer loop
      vertex   -1.454261e+002 5.128154e+001 0.000000e+000
      vertex   -1.453493e+002 5.096642e+001 5.000000e+000
      vertex   -1.453493e+002 5.096642e+001 0.000000e+000
    endloop
  endfacet
  facet normal 6.379034e-002 1.099983e-002 -0.000000e+000
    outer loop
      vertex   -1.453493e+002 5.096642e+001 0.000000e+000
      vertex   -1.453493e+002 5.096642e+001 5.000000e+000
      vertex   -1.452942e+002 5.064679e+001 5.000000e+000
    endloop
  endfacet
  facet normal 9.833894e-001 1.695730e-001 -1.734723e-018
    outer loop
      vertex   -1.453493e+002 5.096642e+001 0.000000e+000
      vertex   -1.452942e+002 5.064679e+001 5.000000e+000
      vertex   -1.452942e+002 5.064679e+001 0.000000e+000
    endloop
  endfacet
  facet normal 6.439332e-002 6.617561e-003 -0.000000e+000
    outer loop
      vertex   -1.452942e+002 5.064679e+001 0.000000e+000
      vertex   -1.452942e+002 5.064679e+001 5.000000e+000
      vertex   -1.452611e+002 5.032415e+001 5.000000e+000
    endloop
  endfacet
  facet normal 9.926745e-001 1.020150e-001 -8.673617e-019
    outer loop
      vertex   -1.452942e+002 5.064679e+001 0.000000e+000
      vertex   -1.452611e+002 5.032415e+001 5.000000e+000
      vertex   -1.452611e+002 5.032415e+001 0.000000e+000
    endloop
  endfacet
  facet normal 6.469405e-002 2.210930e-003 -0.000000e+000
    outer loop
      vertex   -1.452611e+002 5.032415e+001 0.000000e+000
      vertex   -1.452611e+002 5.032415e+001 5.000000e+000
      vertex   -1.452500e+002 5.000000e+001 5.000000e+000
    endloop
  endfacet
  facet normal 9.973205e-001 3.408359e-002 -4.336809e-019
    outer loop
      vertex   -1.452611e+002 5.032415e+001 0.000000e+000
      vertex   -1.452500e+002 5.000000e+001 5.000000e+000
      vertex   -1.452500e+002 5.000000e+001 0.000000e+000
    endloop
  endfacet
  facet normal 6.469405e-002 -2.210930e-003 0.000000e+000
    outer loop
      vertex   -1.452500e+002 5.000000e+001 0.000000e+000
      vertex   -1.452500e+002 5.000000e+001 5.000000e+000
      vertex   -1.452611e+002 4.967585e+001 5.000000e+000
    endloop
  endfacet
  facet normal 9.973205e-001 -3.408359e-002 4.336809e-019
    outer loop
      vertex   -1.452500e+002 5.000000e+001 0.000000e+000
      vertex   -1.452611e+002 4.967585e+001 5.000000e+000
      vertex   -1.452611e+002 4.967585e+001 0.000000e+000
    endloop
  endfacet
  facet normal 6.439332e-002 -6.617561e-003 0.000000e+000
    outer loop
      vertex   -1.452611e+002 4.967585e+001 0.000000e+000
      vertex   -1.452611e+002 4.967585e+001 5.000000e+000
      vertex   -1.452942e+002 4.935321e+001 5.000000e+000
    endloop
  endfacet
  facet normal 9.926745e-001 -1.020150e-001 8.673617e-019
    outer loop
      vertex   -1.452611e+002 4.967585e+001 0.000000e+000
      vertex   -1.452942e+002 4.935321e+001 5.000000e+000
      vertex   -1.452942e+002 4.935321e+001 0.000000e+000
    endloop
  endfacet
  facet normal 6.379034e-002 -1.099983e-002 0.000000e+000
    outer loop
      vertex   -1.452942e+002 4.935321e+001 0.000000e+000
      vertex   -1.452942e+002 4.935321e+001 5.000000e+000
      vertex   -1.453493e+002 4.903358e+001 5.000000e+000
    endloop
  endfacet
  facet normal 9.833894e-001 -1.695730e-001 1.734723e-018
    outer loop
      vertex   -1.452942e+002 4.935321e+001 0.000000e+000
      vertex   -1.453493e+002 4.903358e+001 5.000000e+000
      vertex   -1.453493e+002 4.903358e+001 0.000000e+000
    endloop
  endfacet
  facet normal 6.289195e-002 -1.532728e-002 0.000000e+000
    outer loop
      vertex   -1.453493e+002 4.903358e+001 0.000000e+000
      vertex   -1.453493e+002 4.903358e+001 5.000000e+000
      vertex   -1.454261e+002 4.871846e+001 5.000000e+000
    endloop
  endfacet
  facet normal 9.695261e-001 -2.362814e-001 -1.734723e-018
    outer loop
      vertex   -1.453493e+002 4.903358e+001 0.000000e+000
      vertex   -1.454261e+002 4.871846e+001 5.000000e+000
      vertex   -1.454261e+002 4.871846e+001 0.000000e+000
    endloop
  endfacet
  facet normal 6.169894e-002 -1.958165e-002 0.000000e+000
    outer loop
      vertex   -1.454261e+002 4.871846e+001 0.000000e+000
      vertex   -1.454261e+002 4.871846e+001 5.000000e+000
      vertex   -1.455243e+002 4.840932e+001 5.000000e+000
    endloop
  endfacet
  facet normal 9.511489e-001 -3.018701e-001 3.469447e-018
    outer loop
      vertex   -1.454261e+002 4.871846e+001 0.000000e+000
      vertex   -1.455243e+002 4.840932e+001 5.000000e+000
      vertex   -1.455243e+002 4.840932e+001 0.000000e+000
    endloop
  endfacet
  facet normal 6.021889e-002 -2.374770e-002 0.000000e+000
    outer loop
      vertex   -1.455243e+002 4.840932e+001 0.000000e+000
      vertex   -1.455243e+002 4.840932e+001 5.000000e+000
      vertex   -1.456432e+002 4.810759e+001 5.000000e+000
    endloop
  endfacet
  facet normal 9.283250e-001 -3.660907e-001 0.000000e+000
    outer loop
      vertex   -1.455243e+002 4.840932e+001 0.000000e+000
      vertex   -1.456432e+002 4.810759e+001 5.000000e+000
      vertex   -1.456432e+002 4.810759e+001 0.000000e+000
    endloop
  endfacet
  facet normal 5.845792e-002 -2.780107e-002 0.000000e+000
    outer loop
      vertex   -1.456432e+002 4.810759e+001 0.000000e+000
      vertex   -1.456432e+002 4.810759e+001 5.000000e+000
      vertex   -1.457825e+002 4.781469e+001 5.000000e+000
    endloop
  endfacet
  facet normal 9.011825e-001 -4.285790e-001 3.469447e-018
    outer loop
      vertex   -1.456432e+002 4.810759e+001 0.000000e+000
      vertex   -1.457825e+002 4.781469e+001 5.000000e+000
      vertex   -1.457825e+002 4.781469e+001 0.000000e+000
    endloop
  endfacet
  facet normal 5.642438e-002 -3.172653e-002 0.000000e+000
    outer loop
      vertex   -1.457825e+002 4.781469e+001 0.000000e+000
      vertex   -1.457825e+002 4.781469e+001 5.000000e+000
      vertex   -1.459415e+002 4.753197e+001 5.000000e+000
    endloop
  endfacet
  facet normal 8.698277e-001 -4.890903e-001 -3.469447e-018
    outer loop
      vertex   -1.457825e+002 4.781469e+001 0.000000e+000
      vertex   -1.459415e+002 4.753197e+001 5.000000e+000
      vertex   -1.459415e+002 4.753197e+001 0.000000e+000
    endloop
  endfacet
  facet normal 5.412742e-002 -3.550278e-002 0.000000e+000
    outer loop
      vertex   -1.459415e+002 4.753197e+001 0.000000e+000
      vertex   -1.459415e+002 4.753197e+001 5.000000e+000
      vertex   -1.461194e+002 4.726077e+001 5.000000e+000
    endloop
  endfacet
  facet normal 8.344241e-001 -5.473081e-001 3.469447e-018
    outer loop
      vertex   -1.459415e+002 4.753197e+001 0.000000e+000
      vertex   -1.461194e+002 4.726077e+001 5.000000e+000
      vertex   -1.461194e+002 4.726077e+001 0.000000e+000
    endloop
  endfacet
  facet normal 5.157922e-002 -3.911152e-002 0.000000e+000
    outer loop
      vertex   -1.461194e+002 4.726077e+001 0.000000e+000
      vertex   -1.461194e+002 4.726077e+001 5.000000e+000
      vertex   -1.463154e+002 4.700233e+001 5.000000e+000
    endloop
  endfacet
  facet normal 7.951506e-001 -6.029473e-001 3.469447e-018
    outer loop
      vertex   -1.461194e+002 4.726077e+001 0.000000e+000
      vertex   -1.463154e+002 4.700233e+001 5.000000e+000
      vertex   -1.463154e+002 4.700233e+001 0.000000e+000
    endloop
  endfacet
  facet normal 4.878891e-002 -4.254364e-002 0.000000e+000
    outer loop
      vertex   -1.463154e+002 4.700233e+001 0.000000e+000
      vertex   -1.463154e+002 4.700233e+001 5.000000e+000
      vertex   -1.465285e+002 4.675787e+001 5.000000e+000
    endloop
  endfacet
  facet normal 7.521176e-001 -6.558421e-001 0.000000e+000
    outer loop
      vertex   -1.463154e+002 4.700233e+001 0.000000e+000
      vertex   -1.465285e+002 4.675787e+001 5.000000e+000
      vertex   -1.465285e+002 4.675787e+001 0.000000e+000
    endloop
  endfacet
  facet normal 4.577248e-002 -4.577172e-002 0.000000e+000
    outer loop
      vertex   -1.465285e+002 4.675787e+001 0.000000e+000
      vertex   -1.465285e+002 4.675787e+001 5.000000e+000
      vertex   -1.467579e+002 4.652853e+001 5.000000e+000
    endloop
  endfacet
  facet normal 7.056296e-001 -7.056179e-001 -6.938894e-018
    outer loop
      vertex   -1.465285e+002 4.675787e+001 0.000000e+000
      vertex   -1.467579e+002 4.652853e+001 5.000000e+000
      vertex   -1.467579e+002 4.652853e+001 0.000000e+000
    endloop
  endfacet
  facet normal 4.254212e-002 -4.878967e-002 0.000000e+000
    outer loop
      vertex   -1.467579e+002 4.652853e+001 0.000000e+000
      vertex   -1.467579e+002 4.652853e+001 5.000000e+000
      vertex   -1.470023e+002 4.631537e+001 5.000000e+000
    endloop
  endfacet
  facet normal 6.558230e-001 -7.521343e-001 0.000000e+000
    outer loop
      vertex   -1.467579e+002 4.652853e+001 0.000000e+000
      vertex   -1.470023e+002 4.631537e+001 5.000000e+000
      vertex   -1.470023e+002 4.631537e+001 0.000000e+000
    endloop
  endfacet
  facet normal 3.911381e-002 -5.157921e-002 0.000000e+000
    outer loop
      vertex   -1.470023e+002 4.631537e+001 0.000000e+000
      vertex   -1.470023e+002 4.631537e+001 5.000000e+000
      vertex   -1.472608e+002 4.611939e+001 5.000000e+000
    endloop
  endfacet
  facet normal 6.029696e-001 -7.951335e-001 3.469447e-018
    outer loop
      vertex   -1.470023e+002 4.631537e+001 0.000000e+000
      vertex   -1.472608e+002 4.611939e+001 5.000000e+000
      vertex   -1.472608e+002 4.611939e+001 0.000000e+000
    endloop
  endfacet
  facet normal 3.550201e-002 -5.412818e-002 0.000000e+000
    outer loop
      vertex   -1.472608e+002 4.611939e+001 0.000000e+000
      vertex   -1.472608e+002 4.611939e+001 5.000000e+000
      vertex   -1.475320e+002 4.594151e+001 5.000000e+000
    endloop
  endfacet
  facet normal 5.472945e-001 -8.344330e-001 -3.469447e-018
    outer loop
      vertex   -1.472608e+002 4.611939e+001 0.000000e+000
      vertex   -1.475320e+002 4.594151e+001 5.000000e+000
      vertex   -1.475320e+002 4.594151e+001 0.000000e+000
    endloop
  endfacet
  facet normal 3.172577e-002 -5.642438e-002 0.000000e+000
    outer loop
      vertex   -1.475320e+002 4.594151e+001 0.000000e+000
      vertex   -1.475320e+002 4.594151e+001 5.000000e+000
      vertex   -1.478147e+002 4.578255e+001 5.000000e+000
    endloop
  endfacet
  facet normal 4.890814e-001 -8.698328e-001 -3.469447e-018
    outer loop
      vertex   -1.475320e+002 4.594151e+001 0.000000e+000
      vertex   -1.478147e+002 4.578255e+001 5.000000e+000
      vertex   -1.478147e+002 4.578255e+001 0.000000e+000
    endloop
  endfacet
  facet normal 2.780183e-002 -5.845564e-002 0.000000e+000
    outer loop
      vertex   -1.478147e+002 4.578255e+001 0.000000e+000
      vertex   -1.478147e+002 4.578255e+001 5.000000e+000
      vertex   -1.481076e+002 4.564325e+001 5.000000e+000
    endloop
  endfacet
  facet normal 4.286022e-001 -9.011715e-001 0.000000e+000
    outer loop
      vertex   -1.478147e+002 4.578255e+001 0.000000e+000
      vertex   -1.481076e+002 4.564325e+001 5.000000e+000
      vertex   -1.481076e+002 4.564325e+001 0.000000e+000
    endloop
  endfacet
  facet normal 2.374694e-002 -6.021890e-002 0.000000e+000
    outer loop
      vertex   -1.481076e+002 4.564325e+001 0.000000e+000
      vertex   -1.481076e+002 4.564325e+001 5.000000e+000
      vertex   -1.484093e+002 4.552426e+001 5.000000e+000
    endloop
  endfacet
  facet normal 3.660806e-001 -9.283290e-001 0.000000e+000
    outer loop
      vertex   -1.481076e+002 4.564325e+001 0.000000e+000
      vertex   -1.484093e+002 4.552426e+001 5.000000e+000
      vertex   -1.484093e+002 4.552426e+001 0.000000e+000
    endloop
  endfacet
  facet normal 1.958241e-002 -6.169894e-002 0.000000e+000
    outer loop
      vertex   -1.484093e+002 4.552426e+001 0.000000e+000
      vertex   -1.484093e+002 4.552426e+001 5.000000e+000
      vertex   -1.487185e+002 4.542614e+001 5.000000e+000
    endloop
  endfacet
  facet normal 3.018807e-001 -9.511455e-001 -3.469447e-018
    outer loop
      vertex   -1.484093e+002 4.552426e+001 0.000000e+000
      vertex   -1.487185e+002 4.542614e+001 5.000000e+000
      vertex   -1.487185e+002 4.542614e+001 0.000000e+000
    endloop
  endfacet
  facet normal 1.532652e-002 -6.289271e-002 0.000000e+000
    outer loop
      vertex   -1.487185e+002 4.542614e+001 0.000000e+000
      vertex   -1.487185e+002 4.542614e+001 5.000000e+000
      vertex   -1.490336e+002 4.534935e+001 5.000000e+000
    endloop
  endfacet
  facet normal 2.362676e-001 -9.695294e-001 -1.734723e-018
    outer loop
      vertex   -1.487185e+002 4.542614e+001 0.000000e+000
      vertex   -1.490336e+002 4.534935e+001 5.000000e+000
      vertex   -1.490336e+002 4.534935e+001 0.000000e+000
    endloop
  endfacet
  facet normal 1.099831e-002 -6.379110e-002 0.000000e+000
    outer loop
      vertex   -1.490336e+002 4.534935e+001 0.000000e+000
      vertex   -1.490336e+002 4.534935e+001 5.000000e+000
      vertex   -1.493532e+002 4.529424e+001 5.000000e+000
    endloop
  endfacet
  facet normal 1.695482e-001 -9.833937e-001 0.000000e+000
    outer loop
      vertex   -1.490336e+002 4.534935e+001 0.000000e+000
      vertex   -1.493532e+002 4.529424e+001 5.000000e+000
      vertex   -1.493532e+002 4.529424e+001 0.000000e+000
    endloop
  endfacet
  facet normal 6.619846e-003 -6.439104e-002 0.000000e+000
    outer loop
      vertex   -1.493532e+002 4.529424e+001 0.000000e+000
      vertex   -1.493532e+002 4.529424e+001 5.000000e+000
      vertex   -1.496758e+002 4.526107e+001 5.000000e+000
    endloop
  endfacet
  facet normal 1.020534e-001 -9.926707e-001 8.673617e-019
    outer loop
      vertex   -1.493532e+002 4.529424e+001 0.000000e+000
      vertex   -1.496758e+002 4.526107e+001 5.000000e+000
      vertex   -1.496758e+002 4.526107e+001 0.000000e+000
    endloop
  endfacet
  facet normal 2.210168e-003 -6.469557e-002 0.000000e+000
    outer loop
      vertex   -1.496758e+002 4.526107e+001 0.000000e+000
      vertex   -1.496758e+002 4.526107e+001 5.000000e+000
      vertex   -1.500000e+002 4.525000e+001 5.000000e+000
    endloop
  endfacet
  facet normal 3.407106e-002 -9.973208e-001 -4.336809e-019
    outer loop
      vertex   -1.496758e+002 4.526107e+001 0.000000e+000
      vertex   -1.500000e+002 4.525000e+001 5.000000e+000
      vertex   -1.500000e+002 4.525000e+001 0.000000e+000
    endloop
  endfacet
  facet normal -2.210168e-003 -6.469557e-002 0.000000e+000
    outer loop
      vertex   -1.500000e+002 4.525000e+001 0.000000e+000
      vertex   -1.500000e+002 4.525000e+001 5.000000e+000
      vertex   -1.503242e+002 4.526107e+001 5.000000e+000
    endloop
  endfacet
  facet normal -3.407106e-002 -9.973208e-001 4.336809e-019
    outer loop
      vertex   -1.500000e+002 4.525000e+001 0.000000e+000
      vertex   -1.503242e+002 4.526107e+001 5.000000e+000
      vertex   -1.503242e+002 4.526107e+001 0.000000e+000
    endloop
  endfacet
  facet normal -6.619846e-003 -6.439104e-002 0.000000e+000
    outer loop
      vertex   -1.503242e+002 4.526107e+001 0.000000e+000
      vertex   -1.503242e+002 4.526107e+001 5.000000e+000
      vertex   -1.506468e+002 4.529424e+001 5.000000e+000
    endloop
  endfacet
  facet normal -1.020534e-001 -9.926707e-001 -8.673617e-019
    outer loop
      vertex   -1.503242e+002 4.526107e+001 0.000000e+000
      vertex   -1.506468e+002 4.529424e+001 5.000000e+000
      vertex   -1.506468e+002 4.529424e+001 0.000000e+000
    endloop
  endfacet
  facet normal -1.099831e-002 -6.379110e-002 0.000000e+000
    outer loop
      vertex   -1.506468e+002 4.529424e+001 0.000000e+000
      vertex   -1.506468e+002 4.529424e+001 5.000000e+000
      vertex   -1.509664e+002 4.534935e+001 5.000000e+000
    endloop
  endfacet
  facet normal -1.695482e-001 -9.833937e-001 0.000000e+000
    outer loop
      vertex   -1.506468e+002 4.529424e+001 0.000000e+000
      vertex   -1.509664e+002 4.534935e+001 5.000000e+000
      vertex   -1.509664e+002 4.534935e+001 0.000000e+000
    endloop
  endfacet
  facet normal -1.532652e-002 -6.289271e-002 0.000000e+000
    outer loop
      vertex   -1.509664e+002 4.534935e+001 0.000000e+000
      vertex   -1.509664e+002 4.534935e+001 5.000000e+000
      vertex   -1.512815e+002 4.542614e+001 5.000000e+000
    endloop
  endfacet
  facet normal -2.362676e-001 -9.695294e-001 1.734723e-018
    outer loop
      vertex   -1.509664e+002 4.534935e+001 0.000000e+000
      vertex   -1.512815e+002 4.542614e+001 5.000000e+000
      vertex   -1.512815e+002 4.542614e+001 0.000000e+000
    endloop
  endfacet
  facet normal -1.958241e-002 -6.169894e-002 0.000000e+000
    outer loop
      vertex   -1.512815e+002 4.542614e+001 0.000000e+000
      vertex   -1.512815e+002 4.542614e+001 5.000000e+000
      vertex   -1.515907e+002 4.552426e+001 5.000000e+000
    endloop
  endfacet
  facet normal -3.018807e-001 -9.511455e-001 3.469447e-018
    outer loop
      vertex   -1.512815e+002 4.542614e+001 0.000000e+000
      vertex   -1.515907e+002 4.552426e+001 5.000000e+000
      vertex   -1.515907e+002 4.552426e+001 0.000000e+000
    endloop
  endfacet
  facet normal -2.374694e-002 -6.021890e-002 0.000000e+000
    outer loop
      vertex   -1.515907e+002 4.552426e+001 0.000000e+000
      vertex   -1.515907e+002 4.552426e+001 5.000000e+000
      vertex   -1.518924e+002 4.564325e+001 5.000000e+000
    endloop
  endfacet
  facet normal -3.660806e-001 -9.283290e-001 0.000000e+000
    outer loop
      vertex   -1.515907e+002 4.552426e+001 0.000000e+000
      vertex   -1.518924e+002 4.564325e+001 5.000000e+000
      vertex   -1.518924e+002 4.564325e+001 0.000000e+000
    endloop
  endfacet
  facet normal -2.780183e-002 -5.845564e-002 0.000000e+000
    outer loop
      vertex   -1.518924e+002 4.564325e+001 0.000000e+000
      vertex   -1.518924e+002 4.564325e+001 5.000000e+000
      vertex   -1.521853e+002 4.578255e+001 5.000000e+000
    endloop
  endfacet
  facet normal -4.286022e-001 -9.011715e-001 0.000000e+000
    outer loop
      vertex   -1.518924e+002 4.564325e+001 0.000000e+000
      vertex   -1.521853e+002 4.578255e+001 5.000000e+000
      vertex   -1.521853e+002 4.578255e+001 0.000000e+000
    endloop
  endfacet
  facet normal -3.172577e-002 -5.642438e-002 0.000000e+000
    outer loop
      vertex   -1.521853e+002 4.578255e+001 0.000000e+000
      vertex   -1.521853e+002 4.578255e+001 5.000000e+000
      vertex   -1.524680e+002 4.594151e+001 5.000000e+000
    endloop
  endfacet
  facet normal -4.890814e-001 -8.698328e-001 3.469447e-018
    outer loop
      vertex   -1.521853e+002 4.578255e+001 0.000000e+000
      vertex   -1.524680e+002 4.594151e+001 5.000000e+000
      vertex   -1.524680e+002 4.594151e+001 0.000000e+000
    endloop
  endfacet
  facet normal -3.550201e-002 -5.412818e-002 0.000000e+000
    outer loop
      vertex   -1.524680e+002 4.594151e+001 0.000000e+000
      vertex   -1.524680e+002 4.594151e+001 5.000000e+000
      vertex   -1.527392e+002 4.611939e+001 5.000000e+000
    endloop
  endfacet
  facet normal -5.472945e-001 -8.344330e-001 3.469447e-018
    outer loop
      vertex   -1.524680e+002 4.594151e+001 0.000000e+000
      vertex   -1.527392e+002 4.611939e+001 5.000000e+000
      vertex   -1.527392e+002 4.611939e+001 0.000000e+000
    endloop
  endfacet
  facet normal -3.911381e-002 -5.157921e-002 0.000000e+000
    outer loop
      vertex   -1.527392e+002 4.611939e+001 0.000000e+000
      vertex   -1.527392e+002 4.611939e+001 5.000000e+000
      vertex   -1.529977e+002 4.631537e+001 5.000000e+000
    endloop
  endfacet
  facet normal -6.029696e-001 -7.951335e-001 -3.469447e-018
    outer loop
      vertex   -1.527392e+002 4.611939e+001 0.000000e+000
      vertex   -1.529977e+002 4.631537e+001 5.000000e+000
      vertex   -1.529977e+002 4.631537e+001 0.000000e+000
    endloop
  endfacet
  facet normal -4.254212e-002 -4.878967e-002 0.000000e+000
    outer loop
      vertex   -1.529977e+002 4.631537e+001 0.000000e+000
      vertex   -1.529977e+002 4.631537e+001 5.000000e+000
      vertex   -1.532421e+002 4.652853e+001 5.000000e+000
    endloop
  endfacet
  facet normal -6.558230e-001 -7.521343e-001 0.000000e+000
    outer loop
      vertex   -1.529977e+002 4.631537e+001 0.000000e+000
      vertex   -1.532421e+002 4.652853e+001 5.000000e+000
      vertex   -1.532421e+002 4.652853e+001 0.000000e+000
    endloop
  endfacet
  facet normal -4.577248e-002 -4.577172e-002 0.000000e+000
    outer loop
      vertex   -1.532421e+002 4.652853e+001 0.000000e+000
      vertex   -1.532421e+002 4.652853e+001 5.000000e+000
      vertex   -1.534715e+002 4.675787e+001 5.000000e+000
    endloop
  endfacet
  facet normal -7.056296e-001 -7.056179e-001 6.938894e-018
    outer loop
      vertex   -1.532421e+002 4.652853e+001 0.000000e+000
      vertex   -1.534715e+002 4.675787e+001 5.000000e+000
      vertex   -1.534715e+002 4.675787e+001 0.000000e+000
    endloop
  endfacet
  facet normal -4.878891e-002 -4.254364e-002 0.000000e+000
    outer loop
      vertex   -1.534715e+002 4.675787e+001 0.000000e+000
      vertex   -1.534715e+002 4.675787e+001 5.000000e+000
      vertex   -1.536846e+002 4.700233e+001 5.000000e+000
    endloop
  endfacet
  facet normal -7.521176e-001 -6.558421e-001 0.000000e+000
    outer loop
      vertex   -1.534715e+002 4.675787e+001 0.000000e+000
      vertex   -1.536846e+002 4.700233e+001 5.000000e+000
      vertex   -1.536846e+002 4.700233e+001 0.000000e+000
    endloop
  endfacet
  facet normal -5.157922e-002 -3.911152e-002 0.000000e+000
    outer loop
      vertex   -1.536846e+002 4.700233e+001 0.000000e+000
      vertex   -1.536846e+002 4.700233e+001 5.000000e+000
      vertex   -1.538806e+002 4.726077e+001 5.000000e+000
    endloop
  endfacet
  facet normal -7.951506e-001 -6.029473e-001 -3.469447e-018
    outer loop
      vertex   -1.536846e+002 4.700233e+001 0.000000e+000
      vertex   -1.538806e+002 4.726077e+001 5.000000e+000
      vertex   -1.538806e+002 4.726077e+001 0.000000e+000
    endloop
  endfacet
  facet normal -5.412742e-002 -3.550278e-002 0.000000e+000
    outer loop
      vertex   -1.538806e+002 4.726077e+001 0.000000e+000
      vertex   -1.538806e+002 4.726077e+001 5.000000e+000
      vertex   -1.540585e+002 4.753197e+001 5.000000e+000
    endloop
  endfacet
  facet normal -8.344241e-001 -5.473081e-001 -3.469447e-018
    outer loop
      vertex   -1.538806e+002 4.726077e+001 0.000000e+000
      vertex   -1.540585e+002 4.753197e+001 5.000000e+000
      vertex   -1.540585e+002 4.753197e+001 0.000000e+000
    endloop
  endfacet
  facet normal -5.642438e-002 -3.172653e-002 0.000000e+000
    outer loop
      vertex   -1.540585e+002 4.753197e+001 0.000000e+000
      vertex   -1.540585e+002 4.753197e+001 5.000000e+000
      vertex   -1.542175e+002 4.781469e+001 5.000000e+000
    endloop
  endfacet
  facet normal -8.698277e-001 -4.890903e-001 3.469447e-018
    outer loop
      vertex   -1.540585e+002 4.753197e+001 0.000000e+000
      vertex   -1.542175e+002 4.781469e+001 5.000000e+000
      vertex   -1.542175e+002 4.781469e+001 0.000000e+000
    endloop
  endfacet
  facet normal -5.845792e-002 -2.780107e-002 0.000000e+000
    outer loop
      vertex   -1.542175e+002 4.781469e+001 0.000000e+000
      vertex   -1.542175e+002 4.781469e+001 5.000000e+000
      vertex   -1.543568e+002 4.810759e+001 5.000000e+000
    endloop
  endfacet
  facet normal -9.011825e-001 -4.285790e-001 -3.469447e-018
    outer loop
      vertex   -1.542175e+002 4.781469e+001 0.000000e+000
      vertex   -1.543568e+002 4.810759e+001 5.000000e+000
      vertex   -1.543568e+002 4.810759e+001 0.000000e+000
    endloop
  endfacet
  facet normal -6.021889e-002 -2.374770e-002 0.000000e+000
    outer loop
      vertex   -1.543568e+002 4.810759e+001 0.000000e+000
      vertex   -1.543568e+002 4.810759e+001 5.000000e+000
      vertex   -1.544757e+002 4.840932e+001 5.000000e+000
    endloop
  endfacet
  facet normal -9.283250e-001 -3.660907e-001 0.000000e+000
    outer loop
      vertex   -1.543568e+002 4.810759e+001 0.000000e+000
      vertex   -1.544757e+002 4.840932e+001 5.000000e+000
      vertex   -1.544757e+002 4.840932e+001 0.000000e+000
    endloop
  endfacet
  facet normal -6.169894e-002 -1.958165e-002 0.000000e+000
    outer loop
      vertex   -1.544757e+002 4.840932e+001 0.000000e+000
      vertex   -1.544757e+002 4.840932e+001 5.000000e+000
      vertex   -1.545739e+002 4.871846e+001 5.000000e+000
    endloop
  endfacet
  facet normal -9.511489e-001 -3.018701e-001 -3.469447e-018
    outer loop
      vertex   -1.544757e+002 4.840932e+001 0.000000e+000
      vertex   -1.545739e+002 4.871846e+001 5.000000e+000
      vertex   -1.545739e+002 4.871846e+001 0.000000e+000
    endloop
  endfacet
  facet normal -6.289195e-002 -1.532728e-002 0.000000e+000
    outer loop
      vertex   -1.545739e+002 4.871846e+001 0.000000e+000
      vertex   -1.545739e+002 4.871846e+001 5.000000e+000
      vertex   -1.546507e+002 4.903358e+001 5.000000e+000
    endloop
  endfacet
  facet normal -9.695261e-001 -2.362814e-001 1.734723e-018
    outer loop
      vertex   -1.545739e+002 4.871846e+001 0.000000e+000
      vertex   -1.546507e+002 4.903358e+001 5.000000e+000
      vertex   -1.546507e+002 4.903358e+001 0.000000e+000
    endloop
  endfacet
  facet normal -6.379034e-002 -1.099983e-002 0.000000e+000
    outer loop
      vertex   -1.546507e+002 4.903358e+001 0.000000e+000
      vertex   -1.546507e+002 4.903358e+001 5.000000e+000
      vertex   -1.547058e+002 4.935321e+001 5.000000e+000
    endloop
  endfacet
  facet normal -9.833894e-001 -1.695730e-001 -1.734723e-018
    outer loop
      vertex   -1.546507e+002 4.903358e+001 0.000000e+000
      vertex   -1.547058e+002 4.935321e+001 5.000000e+000
      vertex   -1.547058e+002 4.935321e+001 0.000000e+000
    endloop
  endfacet
  facet normal -6.439332e-002 -6.617561e-003 0.000000e+000
    outer loop
      vertex   -1.547058e+002 4.935321e+001 0.000000e+000
      vertex   -1.547058e+002 4.935321e+001 5.000000e+000
      vertex   -1.547389e+002 4.967585e+001 5.000000e+000
    endloop
  endfacet
  facet normal 0.000000e+000 -0.000000e+000 9.994165e-001
    outer loop
      vertex   -1.547389e+002 4.967585e+001 5.000000e+000
      vertex   -1.452611e+002 4.967585e+001 5.000000e+000
      vertex   -1.547500e+002 5.000000e+001 5.000000e+000
    endloop
  endfacet
  facet normal -0.000000e+000 0.000000e+000 3.414098e-002
    outer loop
      vertex   -1.547500e+002 5.000000e+001 5.000000e+000
      vertex   -1.452611e+002 4.967585e+001 5.000000e+000
      vertex   -1.452500e+002 5.000000e+001 5.000000e+000
    endloop
  endfacet
  facet normal 0.000000e+000 0.000000e+000 9.994165e-001
    outer loop
      vertex   -1.547500e+002 5.000000e+001 5.000000e+000
      vertex   -1.452500e+002 5.000000e+001 5.000000e+000
      vertex   -1.547389e+002 5.032415e+001 5.000000e+000
    endloop
  endfacet
  facet normal -0.000000e+000 0.000000e+000 3.414098e-002
    outer loop
      vertex   -1.547389e+002 5.032415e+001 5.000000e+000
      vertex   -1.452500e+002 5.000000e+001 5.000000e+000
      vertex   -1.452611e+002 5.032415e+001 5.000000e+000
    endloop
  endfacet
  facet normal 0.000000e+000 0.000000e+000 9.947609e-001
    outer loop
      vertex   -1.547389e+002 5.032415e+001 5.000000e+000
      vertex   -1.452611e+002 5.032415e+001 5.000000e+000
      vertex   -1.547058e+002 5.064679e+001 5.000000e+000
    endloop
  endfacet
  facet normal -0.000000e+000 0.000000e+000 3.414144e-002
    outer loop
      vertex   -1.547058e+002 5.064679e+001 5.000000e+000
      vertex   -1.452611e+002 5.032415e+001 5.000000e+000
      vertex   -1.452942e+002 5.064679e+001 5.000000e+000
    endloop
  endfacet
  facet normal 0.000000e+000 0.000000e+000 9.854562e-001
    outer loop
      vertex   -1.547058e+002 5.064679e+001 5.000000e+000
      vertex   -1.452942e+002 5.064679e+001 5.000000e+000
      vertex   -1.546507e+002 5.096642e+001 5.000000e+000
    endloop
  endfacet
  facet normal -0.000000e+000 0.000000e+000 3.414083e-002
    outer loop
      vertex   -1.546507e+002 5.096642e+001 5.000000e+000
      vertex   -1.452942e+002 5.064679e+001 5.000000e+000
      vertex   -1.453493e+002 5.096642e+001 5.000000e+000
    endloop
  endfacet
  facet normal 0.000000e+000 0.000000e+000 9.715638e-001
    outer loop
      vertex   -1.546507e+002 5.096642e+001 5.000000e+000
      vertex   -1.453493e+002 5.096642e+001 5.000000e+000
      vertex   -1.545739e+002 5.128154e+001 5.000000e+000
    endloop
  endfacet
  facet normal -0.000000e+000 0.000000e+000 3.414135e-002
    outer loop
      vertex   -1.545739e+002 5.128154e+001 5.000000e+000
      vertex   -1.453493e+002 5.096642e+001 5.000000e+000
      vertex   -1.454261e+002 5.128154e+001 5.000000e+000
    endloop
  endfacet
  facet normal 0.000000e+000 0.000000e+000 9.531479e-001
    outer loop
      vertex   -1.545739e+002 5.128154e+001 5.000000e+000
      vertex   -1.454261e+002 5.128154e+001 5.000000e+000
      vertex   -1.544757e+002 5.159068e+001 5.000000e+000
    endloop
  endfacet
  facet normal -0.000000e+000 0.000000e+000 3.414108e-002
    outer loop
      vertex   -1.544757e+002 5.159068e+001 5.000000e+000
      vertex   -1.454261e+002 5.128154e+001 5.000000e+000
      vertex   -1.455243e+002 5.159068e+001 5.000000e+000
    endloop
  endfacet
  facet normal 0.000000e+000 0.000000e+000 9.302761e-001
    outer loop
      vertex   -1.544757e+002 5.159068e+001 5.000000e+000
      vertex   -1.455243e+002 5.159068e+001 5.000000e+000
      vertex   -1.543568e+002 5.189241e+001 5.000000e+000
    endloop
  endfacet
  facet normal -0.000000e+000 0.000000e+000 3.414116e-002
    outer loop
      vertex   -1.543568e+002 5.189241e+001 5.000000e+000
      vertex   -1.455243e+002 5.159068e+001 5.000000e+000
      vertex   -1.456432e+002 5.189241e+001 5.000000e+000
    endloop
  endfacet
  facet normal 0.000000e+000 0.000000e+000 9.030765e-001
    outer loop
      vertex   -1.543568e+002 5.189241e+001 5.000000e+000
      vertex   -1.456432e+002 5.189241e+001 5.000000e+000
      vertex   -1.542175e+002 5.218531e+001 5.000000e+000
    endloop
  endfacet
  facet normal -0.000000e+000 0.000000e+000 3.414115e-002
    outer loop
      vertex   -1.542175e+002 5.218531e+001 5.000000e+000
      vertex   -1.456432e+002 5.189241e+001 5.000000e+000
      vertex   -1.457825e+002 5.218531e+001 5.000000e+000
    endloop
  endfacet
  facet normal 0.000000e+000 0.000000e+000 8.716559e-001
    outer loop
      vertex   -1.542175e+002 5.218531e+001 5.000000e+000
      vertex   -1.457825e+002 5.218531e+001 5.000000e+000
      vertex   -1.540585e+002 5.246803e+001 5.000000e+000
    endloop
  endfacet
  facet normal -0.000000e+000 0.000000e+000 3.414114e-002
    outer loop
      vertex   -1.540585e+002 5.246803e+001 5.000000e+000
      vertex   -1.457825e+002 5.218531e+001 5.000000e+000
      vertex   -1.459415e+002 5.246803e+001 5.000000e+000
    endloop
  endfacet
  facet normal 0.000000e+000 0.000000e+000 8.361779e-001
    outer loop
      vertex   -1.540585e+002 5.246803e+001 5.000000e+000
      vertex   -1.459415e+002 5.246803e+001 5.000000e+000
      vertex   -1.538806e+002 5.273923e+001 5.000000e+000
    endloop
  endfacet
  facet normal -0.000000e+000 0.000000e+000 3.414093e-002
    outer loop
      vertex   -1.538806e+002 5.273923e+001 5.000000e+000
      vertex   -1.459415e+002 5.246803e+001 5.000000e+000
      vertex   -1.461194e+002 5.273923e+001 5.000000e+000
    endloop
  endfacet
  facet normal 0.000000e+000 0.000000e+000 7.968217e-001
    outer loop
      vertex   -1.538806e+002 5.273923e+001 5.000000e+000
      vertex   -1.461194e+002 5.273923e+001 5.000000e+000
      vertex   -1.536846e+002 5.299767e+001 5.000000e+000
    endloop
  endfacet
  facet normal -0.000000e+000 0.000000e+000 3.414138e-002
    outer loop
      vertex   -1.536846e+002 5.299767e+001 5.000000e+000
      vertex   -1.461194e+002 5.273923e+001 5.000000e+000
      vertex   -1.463154e+002 5.299767e+001 5.000000e+000
    endloop
  endfacet
  facet normal 0.000000e+000 0.000000e+000 7.536983e-001
    outer loop
      vertex   -1.536846e+002 5.299767e+001 5.000000e+000
      vertex   -1.463154e+002 5.299767e+001 5.000000e+000
      vertex   -1.534715e+002 5.324213e+001 5.000000e+000
    endloop
  endfacet
  facet normal -0.000000e+000 0.000000e+000 3.414078e-002
    outer loop
      vertex   -1.534715e+002 5.324213e+001 5.000000e+000
      vertex   -1.463154e+002 5.299767e+001 5.000000e+000
      vertex   -1.465285e+002 5.324213e+001 5.000000e+000
    endloop
  endfacet
  facet normal 0.000000e+000 0.000000e+000 7.071127e-001
    outer loop
      vertex   -1.534715e+002 5.324213e+001 5.000000e+000
      vertex   -1.465285e+002 5.324213e+001 5.000000e+000
      vertex   -1.532421e+002 5.347147e+001 5.000000e+000
    endloop
  endfacet
  facet normal -0.000000e+000 0.000000e+000 3.414114e-002
    outer loop
      vertex   -1.532421e+002 5.347147e+001 5.000000e+000
      vertex   -1.465285e+002 5.324213e+001 5.000000e+000
      vertex   -1.467579e+002 5.347147e+001 5.000000e+000
    endloop
  endfacet
  facet normal 0.000000e+000 0.000000e+000 6.572013e-001
    outer loop
      vertex   -1.532421e+002 5.347147e+001 5.000000e+000
      vertex   -1.467579e+002 5.347147e+001 5.000000e+000
      vertex   -1.529977e+002 5.368463e+001 5.000000e+000
    endloop
  endfacet
  facet normal -0.000000e+000 0.000000e+000 3.414110e-002
    outer loop
      vertex   -1.529977e+002 5.368463e+001 5.000000e+000
      vertex   -1.467579e+002 5.347147e+001 5.000000e+000
      vertex   -1.470023e+002 5.368463e+001 5.000000e+000
    endloop
  endfacet
  facet normal 0.000000e+000 0.000000e+000 6.042369e-001
    outer loop
      vertex   -1.529977e+002 5.368463e+001 5.000000e+000
      vertex   -1.470023e+002 5.368463e+001 5.000000e+000
      vertex   -1.527392e+002 5.388061e+001 5.000000e+000
    endloop
  endfacet
  facet normal -0.000000e+000 0.000000e+000 3.414145e-002
    outer loop
      vertex   -1.527392e+002 5.388061e+001 5.000000e+000
      vertex   -1.470023e+002 5.368463e+001 5.000000e+000
      vertex   -1.472608e+002 5.388061e+001 5.000000e+000
    endloop
  endfacet
  facet normal 0.000000e+000 0.000000e+000 5.484447e-001
    outer loop
      vertex   -1.527392e+002 5.388061e+001 5.000000e+000
      vertex   -1.472608e+002 5.388061e+001 5.000000e+000
      vertex   -1.524680e+002 5.405849e+001 5.000000e+000
    endloop
  endfacet
  facet normal -0.000000e+000 0.000000e+000 3.414079e-002
    outer loop
      vertex   -1.524680e+002 5.405849e+001 5.000000e+000
      vertex   -1.472608e+002 5.388061e+001 5.000000e+000
      vertex   -1.475320e+002 5.405849e+001 5.000000e+000
    endloop
  endfacet
  facet normal 0.000000e+000 0.000000e+000 4.901094e-001
    outer loop
      vertex   -1.524680e+002 5.405849e+001 5.000000e+000
      vertex   -1.475320e+002 5.405849e+001 5.000000e+000
      vertex   -1.521853e+002 5.421745e+001 5.000000e+000
    endloop
  endfacet
  facet normal -0.000000e+000 0.000000e+000 3.414112e-002
    outer loop
      vertex   -1.521853e+002 5.421745e+001 5.000000e+000
      vertex   -1.475320e+002 5.405849e+001 5.000000e+000
      vertex   -1.478147e+002 5.421745e+001 5.000000e+000
    endloop
  endfacet
  facet normal 0.000000e+000 0.000000e+000 4.295030e-001
    outer loop
      vertex   -1.521853e+002 5.421745e+001 5.000000e+000
      vertex   -1.478147e+002 5.421745e+001 5.000000e+000
      vertex   -1.518924e+002 5.435675e+001 5.000000e+000
    endloop
  endfacet
  facet normal -0.000000e+000 0.000000e+000 3.414171e-002
    outer loop
      vertex   -1.518924e+002 5.435675e+001 5.000000e+000
      vertex   -1.478147e+002 5.421745e+001 5.000000e+000
      vertex   -1.481076e+002 5.435675e+001 5.000000e+000
    endloop
  endfacet
  facet normal 0.000000e+000 0.000000e+000 3.668500e-001
    outer loop
      vertex   -1.518924e+002 5.435675e+001 5.000000e+000
      vertex   -1.481076e+002 5.435675e+001 5.000000e+000
      vertex   -1.515907e+002 5.447574e+001 5.000000e+000
    endloop
  endfacet
  facet normal -0.000000e+000 0.000000e+000 3.414059e-002
    outer loop
      vertex   -1.515907e+002 5.447574e+001 5.000000e+000
      vertex   -1.481076e+002 5.435675e+001 5.000000e+000
      vertex   -1.484093e+002 5.447574e+001 5.000000e+000
    endloop
  endfacet
  facet normal 0.000000e+000 0.000000e+000 3.025152e-001
    outer loop
      vertex   -1.515907e+002 5.447574e+001 5.000000e+000
      vertex   -1.484093e+002 5.447574e+001 5.000000e+000
      vertex   -1.512815e+002 5.457386e+001 5.000000e+000
    endloop
  endfacet
  facet normal -0.000000e+000 0.000000e+000 3.414102e-002
    outer loop
      vertex   -1.512815e+002 5.457386e+001 5.000000e+000
      vertex   -1.484093e+002 5.447574e+001 5.000000e+000
      vertex   -1.487185e+002 5.457386e+001 5.000000e+000
    endloop
  endfacet
  facet normal 0.000000e+000 0.000000e+000 2.367642e-001
    outer loop
      vertex   -1.512815e+002 5.457386e+001 5.000000e+000
      vertex   -1.487185e+002 5.457386e+001 5.000000e+000
      vertex   -1.509664e+002 5.465065e+001 5.000000e+000
    endloop
  endfacet
  facet normal -0.000000e+000 0.000000e+000 3.414165e-002
    outer loop
      vertex   -1.509664e+002 5.465065e+001 5.000000e+000
      vertex   -1.487185e+002 5.457386e+001 5.000000e+000
      vertex   -1.490336e+002 5.465065e+001 5.000000e+000
    endloop
  endfacet
  facet normal 0.000000e+000 0.000000e+000 1.699046e-001
    outer loop
      vertex   -1.509664e+002 5.465065e+001 5.000000e+000
      vertex   -1.490336e+002 5.465065e+001 5.000000e+000
      vertex   -1.506468e+002 5.470576e+001 5.000000e+000
    endloop
  endfacet
  facet normal -0.000000e+000 0.000000e+000 3.414011e-002
    outer loop
      vertex   -1.506468e+002 5.470576e+001 5.000000e+000
      vertex   -1.490336e+002 5.465065e+001 5.000000e+000
      vertex   -1.493532e+002 5.470576e+001 5.000000e+000
    endloop
  endfacet
  facet normal 0.000000e+000 0.000000e+000 1.022679e-001
    outer loop
      vertex   -1.506468e+002 5.470576e+001 5.000000e+000
      vertex   -1.493532e+002 5.470576e+001 5.000000e+000
      vertex   -1.503242e+002 5.473893e+001 5.000000e+000
    endloop
  endfacet
  facet normal -0.000000e+000 0.000000e+000 3.414135e-002
    outer loop
      vertex   -1.503242e+002 5.473893e+001 5.000000e+000
      vertex   -1.493532e+002 5.470576e+001 5.000000e+000
      vertex   -1.496758e+002 5.473893e+001 5.000000e+000
    endloop
  endfacet
  facet normal 0.000000e+000 0.000000e+000 3.414267e-002
    outer loop
      vertex   -1.503242e+002 5.473893e+001 5.000000e+000
      vertex   -1.496758e+002 5.473893e+001 5.000000e+000
      vertex   -1.500000e+002 5.475000e+001 5.000000e+000
    endloop
  endfacet
  facet normal 0.000000e+000 0.000000e+000 9.947609e-001
    outer loop
      vertex   -1.452611e+002 4.967585e+001 5.000000e+000
      vertex   -1.547389e+002 4.967585e+001 5.000000e+000
      vertex   -1.452942e+002 4.935321e+001 5.000000e+000
    endloop
  endfacet
  facet normal 0.000000e+000 0.000000e+000 3.414144e-002
    outer loop
      vertex   -1.452942e+002 4.935321e+001 5.000000e+000
      vertex   -1.547389e+002 4.967585e+001 5.000000e+000
      vertex   -1.547058e+002 4.935321e+001 5.000000e+000
    endloop
  endfacet
  facet normal 0.000000e+000 0.000000e+000 9.854562e-001
    outer loop
      vertex   -1.452942e+002 4.935321e+001 5.000000e+000
      vertex   -1.547058e+002 4.935321e+001 5.000000e+000
      vertex   -1.453493e+002 4.903358e+001 5.000000e+000
    endloop
  endfacet
  facet normal 0.000000e+000 0.000000e+000 3.414083e-002
    outer loop
      vertex   -1.453493e+002 4.903358e+001 5.000000e+000
      vertex   -1.547058e+002 4.935321e+001 5.000000e+000
      vertex   -1.546507e+002 4.903358e+001 5.000000e+000
    endloop
  endfacet
  facet normal 0.000000e+000 0.000000e+000 9.715638e-001
    outer loop
      vertex   -1.453493e+002 4.903358e+001 5.000000e+000
      vertex   -1.546507e+002 4.903358e+001 5.000000e+000
      vertex   -1.454261e+002 4.871846e+001 5.000000e+000
    endloop
  endfacet
  facet normal 0.000000e+000 0.000000e+000 3.414135e-002
    outer loop
      vertex   -1.454261e+002 4.871846e+001 5.000000e+000
      vertex   -1.546507e+002 4.903358e+001 5.000000e+000
      vertex   -1.545739e+002 4.871846e+001 5.000000e+000
    endloop
  endfacet
  facet normal 0.000000e+000 0.000000e+000 9.531479e-001
    outer loop
      vertex   -1.454261e+002 4.871846e+001 5.000000e+000
      vertex   -1.545739e+002 4.871846e+001 5.000000e+000
      vertex   -1.455243e+002 4.840932e+001 5.000000e+000
    endloop
  endfacet
  facet normal 0.000000e+000 0.000000e+000 3.414108e-002
    outer loop
      vertex   -1.455243e+002 4.840932e+001 5.000000e+000
      vertex   -1.545739e+002 4.871846e+001 5.000000e+000
      vertex   -1.544757e+002 4.840932e+001 5.000000e+000
    endloop
  endfacet
  facet normal 0.000000e+000 0.000000e+000 9.302761e-001
    outer loop
      vertex   -1.455243e+002 4.840932e+001 5.000000e+000
      vertex   -1.544757e+002 4.840932e+001 5.000000e+000
      vertex   -1.456432e+002 4.810759e+001 5.000000e+000
    endloop
  endfacet
  facet normal 0.000000e+000 0.000000e+000 3.414116e-002
    outer loop
      vertex   -1.456432e+002 4.810759e+001 5.000000e+000
      vertex   -1.544757e+002 4.840932e+001 5.000000e+000
      vertex   -1.543568e+002 4.810759e+001 5.000000e+000
    endloop
  endfacet
  facet normal 0.000000e+000 0.000000e+000 9.030765e-001
    outer loop
      vertex   -1.456432e+002 4.810759e+001 5.000000e+000
      vertex   -1.543568e+002 4.810759e+001 5.000000e+000
      vertex   -1.457825e+002 4.781469e+001 5.000000e+000
    endloop
  endfacet
  facet normal 0.000000e+000 0.000000e+000 3.414115e-002
    outer loop
      vertex   -1.457825e+002 4.781469e+001 5.000000e+000
      vertex   -1.543568e+002 4.810759e+001 5.000000e+000
      vertex   -1.542175e+002 4.781469e+001 5.000000e+000
    endloop
  endfacet
  facet normal 0.000000e+000 0.000000e+000 8.716559e-001
    outer loop
      vertex   -1.457825e+002 4.781469e+001 5.000000e+000
      vertex   -1.542175e+002 4.781469e+001 5.000000e+000
      vertex   -1.459415e+002 4.753197e+001 5.000000e+000
    endloop
  endfacet
  facet normal 0.000000e+000 0.000000e+000 3.414114e-002
    outer loop
      vertex   -1.459415e+002 4.753197e+001 5.000000e+000
      vertex   -1.542175e+002 4.781469e+001 5.000000e+000
      vertex   -1.540585e+002 4.753197e+001 5.000000e+000
    endloop
  endfacet
  facet normal 0.000000e+000 0.000000e+000 8.361779e-001
    outer loop
      vertex   -1.459415e+002 4.753197e+001 5.000000e+000
      vertex   -1.540585e+002 4.753197e+001 5.000000e+000
      vertex   -1.461194e+002 4.726077e+001 5.000000e+000
    endloop
  endfacet
  facet normal 0.000000e+000 0.000000e+000 3.414093e-002
    outer loop
      vertex   -1.461194e+002 4.726077e+001 5.000000e+000
      vertex   -1.540585e+002 4.753197e+001 5.000000e+000
      vertex   -1.538806e+002 4.726077e+001 5.000000e+000
    endloop
  endfacet
  facet normal 0.000000e+000 0.000000e+000 7.968217e-001
    outer loop
      vertex   -1.461194e+002 4.726077e+001 5.000000e+000
      vertex   -1.538806e+002 4.726077e+001 5.000000e+000
      vertex   -1.463154e+002 4.700233e+001 5.000000e+000
    endloop
  endfacet
  facet normal 0.000000e+000 0.000000e+000 3.414138e-002
    outer loop
      vertex   -1.463154e+002 4.700233e+001 5.000000e+000
      vertex   -1.538806e+002 4.726077e+001 5.000000e+000
      vertex   -1.536846e+002 4.700233e+001 5.000000e+000
    endloop
  endfacet
  facet normal 0.000000e+000 0.000000e+000 7.536983e-001
    outer loop
      vertex   -1.463154e+002 4.700233e+001 5.000000e+000
      vertex   -1.536846e+002 4.700233e+001 5.000000e+000
      vertex   -1.465285e+002 4.675787e+001 5.000000e+000
    endloop
  endfacet
  facet normal 0.000000e+000 0.000000e+000 3.414078e-002
    outer loop
      vertex   -1.465285e+002 4.675787e+001 5.000000e+000
      vertex   -1.536846e+002 4.700233e+001 5.000000e+000
      vertex   -1.534715e+002 4.675787e+001 5.000000e+000
    endloop
  endfacet
  facet normal 0.000000e+000 0.000000e+000 7.071127e-001
    outer loop
      vertex   -1.465285e+002 4.675787e+001 5.000000e+000
      vertex   -1.534715e+002 4.675787e+001 5.000000e+000
      vertex   -1.467579e+002 4.652853e+001 5.000000e+000
    endloop
  endfacet
  facet normal 0.000000e+000 0.000000e+000 3.414114e-002
    outer loop
      vertex   -1.467579e+002 4.652853e+001 5.000000e+000
      vertex   -1.534715e+002 4.675787e+001 5.000000e+000
      vertex   -1.532421e+002 4.652853e+001 5.000000e+000
    endloop
  endfacet
  facet normal 0.000000e+000 0.000000e+000 6.572013e-001
    outer loop
      vertex   -1.467579e+002 4.652853e+001 5.000000e+000
      vertex   -1.532421e+002 4.652853e+001 5.000000e+000
      vertex   -1.470023e+002 4.631537e+001 5.000000e+000
    endloop
  endfacet
  facet normal 0.000000e+000 0.000000e+000 3.414110e-002
    outer loop
      vertex   -1.470023e+002 4.631537e+001 5.000000e+000
      vertex   -1.532421e+002 4.652853e+001 5.000000e+000
      vertex   -1.529977e+002 4.631537e+001 5.000000e+000
    endloop
  endfacet
  facet normal 0.000000e+000 0.000000e+000 6.042369e-001
    outer loop
      vertex   -1.470023e+002 4.631537e+001 5.000000e+000
      vertex   -1.529977e+002 4.631537e+001 5.000000e+000
      vertex   -1.472608e+002 4.611939e+001 5.000000e+000
    endloop
  endfacet
  facet normal 0.000000e+000 0.000000e+000 3.414145e-002
    outer loop
      vertex   -1.472608e+002 4.611939e+001 5.000000e+000
      vertex   -1.529977e+002 4.631537e+001 5.000000e+000
      vertex   -1.527392e+002 4.611939e+001 5.000000e+000
    endloop
  endfacet
  facet normal 0.000000e+000 0.000000e+000 5.484447e-001
    outer loop
      vertex   -1.472608e+002 4.611939e+001 5.000000e+000
      vertex   -1.527392e+002 4.611939e+001 5.000000e+000
      vertex   -1.475320e+002 4.594151e+001 5.000000e+000
    endloop
  endfacet
  facet normal 0.000000e+000 0.000000e+000 3.414079e-002
    outer loop
      vertex   -1.475320e+002 4.594151e+001 5.000000e+000
      vertex   -1.527392e+002 4.611939e+001 5.000000e+000
      vertex   -1.524680e+002 4.594151e+001 5.000000e+000
    endloop
  endfacet
  facet normal 0.000000e+000 0.000000e+000 4.901094e-001
    outer loop
      vertex   -1.475320e+002 4.594151e+001 5.000000e+000
      vertex   -1.524680e+002 4.594151e+001 5.000000e+000
      vertex   -1.478147e+002 4.578255e+001 5.000000e+000
    endloop
  endfacet
  facet normal 0.000000e+000 0.000000e+000 3.414112e-002
    outer loop
      vertex   -1.478147e+002 4.578255e+001 5.000000e+000
      vertex   -1.524680e+002 4.594151e+001 5.000000e+000
      vertex   -1.521853e+002 4.578255e+001 5.000000e+000
    endloop
  endfacet
  facet normal 0.000000e+000 0.000000e+000 4.295030e-001
    outer loop
      vertex   -1.478147e+002 4.578255e+001 5.000000e+000
      vertex   -1.521853e+002 4.578255e+001 5.000000e+000
      vertex   -1.481076e+002 4.564325e+001 5.000000e+000
    endloop
  endfacet
  facet normal 0.000000e+000 0.000000e+000 3.414171e-002
    outer loop
      vertex   -1.481076e+002 4.564325e+001 5.000000e+000
      vertex   -1.521853e+002 4.578255e+001 5.000000e+000
      vertex   -1.518924e+002 4.564325e+001 5.000000e+000
    endloop
  endfacet
  facet normal 0.000000e+000 0.000000e+000 3.668500e-001
    outer loop
      vertex   -1.481076e+002 4.564325e+001 5.000000e+000
      vertex   -1.518924e+002 4.564325e+001 5.000000e+000
      vertex   -1.484093e+002 4.552426e+001 5.000000e+000
    endloop
  endfacet
  facet normal 0.000000e+000 0.000000e+000 3.414059e-002
    outer loop
      vertex   -1.484093e+002 4.552426e+001 5.000000e+000
      vertex   -1.518924e+002 4.564325e+001 5.000000e+000
      vertex   -1.515907e+002 4.552426e+001 5.000000e+000
    endloop
  endfacet
  facet normal 0.000000e+000 0.000000e+000 3.025152e-001
    outer loop
      vertex   -1.484093e+002 4.552426e+001 5.000000e+000
      vertex   -1.515907e+002 4.552426e+001 5.000000e+000
      vertex   -1.487185e+002 4.542614e+001 5.000000e+000
    endloop
  endfacet
  facet normal 0.000000e+000 0.000000e+000 3.414102e-002
    outer loop
      vertex   -1.487185e+002 4.542614e+001 5.000000e+000
      vertex   -1.515907e+002 4.552426e+001 5.000000e+000
      vertex   -1.512815e+002 4.542614e+001 5.000000e+000
    endloop
  endfacet
  facet normal 0.000000e+000 0.000000e+000 2.367642e-001
    outer loop
      vertex   -1.487185e+002 4.542614e+001 5.000000e+000
      vertex   -1.512815e+002 4.542614e+001 5.000000e+000
      vertex   -1.490336e+002 4.534935e+001 5.000000e+000
    endloop
  endfacet
  facet normal 0.000000e+000 0.000000e+000 3.414165e-002
    outer loop
      vertex   -1.490336e+002 4.534935e+001 5.000000e+000
      vertex   -1.512815e+002 4.542614e+001 5.000000e+000
      vertex   -1.509664e+002 4.534935e+001 5.000000e+000
    endloop
  endfacet
  facet normal 0.000000e+000 0.000000e+000 1.699046e-001
    outer loop
      vertex   -1.490336e+002 4.534935e+001 5.000000e+000
      vertex   -1.509664e+002 4.534935e+001 5.000000e+000
      vertex   -1.493532e+002 4.529424e+001 5.000000e+000
    endloop
  endfacet
  facet normal 0.000000e+000 0.000000e+000 3.414011e-002
    outer loop
      vertex   -1.493532e+002 4.529424e+001 5.000000e+000
      vertex   -1.509664e+002 4.534935e+001 5.000000e+000
      vertex   -1.506468e+002 4.529424e+001 5.000000e+000
    endloop
  endfacet
  facet normal 0.000000e+000 0.000000e+000 1.022679e-001
    outer loop
      vertex   -1.493532e+002 4.529424e+001 5.000000e+000
      vertex   -1.506468e+002 4.529424e+001 5.000000e+000
      vertex   -1.496758e+002 4.526107e+001 5.000000e+000
    endloop
  endfacet
  facet normal 0.000000e+000 0.000000e+000 3.414135e-002
    outer loop
      vertex   -1.496758e+002 4.526107e+001 5.000000e+000
      vertex   -1.506468e+002 4.529424e+001 5.000000e+000
      vertex   -1.503242e+002 4.526107e+001 5.000000e+000
    endloop
  endfacet
  facet normal 0.000000e+000 0.000000e+000 3.414267e-002
    outer loop
      vertex   -1.496758e+002 4.526107e+001 5.000000e+000
      vertex   -1.503242e+002 4.526107e+001 5.000000e+000
      vertex   -1.500000e+002 4.525000e+001 5.000000e+000
    endloop
  endfacet
  facet normal 0.000000e+000 -0.000000e+000 -9.994165e-001
    outer loop
      vertex   -1.547389e+002 5.032415e+001 0.000000e+000
      vertex   -1.452611e+002 5.032415e+001 0.000000e+000
      vertex   -1.547500e+002 5.000000e+001 0.000000e+000
    endloop
  endfacet
  facet normal 0.000000e+000 0.000000e+000 -3.414098e-002
    outer loop
      vertex   -1.547500e+002 5.000000e+001 0.000000e+000
      vertex   -1.452611e+002 5.032415e+001 0.000000e+000
      vertex   -1.452500e+002 5.000000e+001 0.000000e+000
    endloop
  endfacet
  facet normal 0.000000e+000 0.000000e+000 -9.994165e-001
    outer loop
      vertex   -1.547500e+002 5.000000e+001 0.000000e+000
      vertex   -1.452500e+002 5.000000e+001 0.000000e+000
      vertex   -1.547389e+002 4.967585e+001 0.000000e+000
    endloop
  endfacet
  facet normal 0.000000e+000 0.000000e+000 -3.414098e-002
    outer loop
      vertex   -1.547389e+002 4.967585e+001 0.000000e+000
      vertex   -1.452500e+002 5.000000e+001 0.000000e+000
      vertex   -1.452611e+002 4.967585e+001 0.000000e+000
    endloop
  endfacet
  facet normal 0.000000e+000 0.000000e+000 -9.947609e-001
    outer loop
      vertex   -1.547389e+002 4.967585e+001 0.000000e+000
      vertex   -1.452611e+002 4.967585e+001 0.000000e+000
      vertex   -1.547058e+002 4.935321e+001 0.000000e+000
    endloop
  endfacet
  facet normal 0.000000e+000 0.000000e+000 -3.414144e-002
    outer loop
      vertex   -1.547058e+002 4.935321e+001 0.000000e+000
      vertex   -1.452611e+002 4.967585e+001 0.000000e+000
      vertex   -1.452942e+002 4.935321e+001 0.000000e+000
    endloop
  endfacet
  facet normal 0.000000e+000 0.000000e+000 -9.854562e-001
    outer loop
      vertex   -1.547058e+002 4.935321e+001 0.000000e+000
      vertex   -1.452942e+002 4.935321e+001 0.000000e+000
      vertex   -1.546507e+002 4.903358e+001 0.000000e+000
    endloop
  endfacet
  facet normal 0.000000e+000 0.000000e+000 -3.414083e-002
    outer loop
      vertex   -1.546507e+002 4.903358e+001 0.000000e+000
      vertex   -1.452942e+002 4.935321e+001 0.000000e+000
      vertex   -1.453493e+002 4.903358e+001 0.000000e+000
    endloop
  endfacet
  facet normal 0.000000e+000 0.000000e+000 -9.715638e-001
    outer loop
      vertex   -1.546507e+002 4.903358e+001 0.000000e+000
      vertex   -1.453493e+002 4.903358e+001 0.000000e+000
      vertex   -1.545739e+002 4.871846e+001 0.000000e+000
    endloop
  endfacet
  facet normal 0.000000e+000 0.000000e+000 -3.414135e-002
    outer loop
      vertex   -1.545739e+002 4.871846e+001 0.000000e+000
      vertex   -1.453493e+002 4.903358e+001 0.000000e+000
      vertex   -1.454261e+002 4.871846e+001 0.000000e+000
    endloop
  endfacet
  facet normal 0.000000e+000 0.000000e+000 -9.531479e-001
    outer loop
      vertex   -1.545739e+002 4.871846e+001 0.000000e+000
      vertex   -1.454261e+002 4.871846e+001 0.000000e+000
      vertex   -1.544757e+002 4.840932e+001 0.000000e+000
    endloop
  endfacet
  facet normal 0.000000e+000 0.000000e+000 -3.414108e-002
    outer loop
      vertex   -1.544757e+002 4.840932e+001 0.000000e+000
      vertex   -1.454261e+002 4.871846e+001 0.000000e+000
      vertex   -1.455243e+002 4.840932e+001 0.000000e+000
    endloop
  endfacet
  facet normal 0.000000e+000 0.000000e+000 -9.302761e-001
    outer loop
      vertex   -1.544757e+002 4.840932e+001 0.000000e+000
      vertex   -1.455243e+002 4.840932e+001 0.000000e+000
      vertex   -1.543568e+002 4.810759e+001 0.000000e+000
    endloop
  endfacet
  facet normal 0.000000e+000 0.000000e+000 -3.414116e-002
    outer loop
      vertex   -1.543568e+002 4.810759e+001 0.000000e+000
      vertex   -1.455243e+002 4.840932e+001 0.000000e+000
      vertex   -1.456432e+002 4.810759e+001 0.000000e+000
    endloop
  endfacet
  facet normal 0.000000e+000 0.000000e+000 -9.030765e-001
    outer loop
      vertex   -1.543568e+002 4.810759e+001 0.000000e+000
      vertex   -1.456432e+002 4.810759e+001 0.000000e+000
      vertex   -1.542175e+002 4.781469e+001 0.000000e+000
    endloop
  endfacet
  facet normal 0.000000e+000 0.000000e+000 -3.414115e-002
    outer loop
      vertex   -1.542175e+002 4.781469e+001 0.000000e+000
      vertex   -1.456432e+002 4.810759e+001 0.000000e+000
      vertex   -1.457825e+002 4.781469e+001 0.000000e+000
    endloop
  endfacet
  facet normal 0.000000e+000 0.000000e+000 -8.716559e-001
    outer loop
      vertex   -1.542175e+002 4.781469e+001 0.000000e+000
      vertex   -1.457825e+002 4.781469e+001 0.000000e+000
      vertex   -1.540585e+002 4.753197e+001 0.000000e+000
    endloop
  endfacet
  facet normal 0.000000e+000 0.000000e+000 -3.414114e-002
    outer loop
      vertex   -1.540585e+002 4.753197e+001 0.000000e+000
      vertex   -1.457825e+002 4.781469e+001 0.000000e+000
      vertex   -1.459415e+002 4.753197e+001 0.000000e+000
    endloop
  endfacet
  facet normal 0.000000e+000 0.000000e+000 -8.361779e-001
    outer loop
      vertex   -1.540585e+002 4.753197e+001 0.000000e+000
      vertex   -1.459415e+002 4.753197e+001 0.000000e+000
      vertex   -1.538806e+002 4.726077e+001 0.000000e+000
    endloop
  endfacet
  facet normal 0.000000e+000 0.000000e+000 -3.414093e-002
    outer loop
      vertex   -1.538806e+002 4.726077e+001 0.000000e+000
      vertex   -1.459415e+002 4.753197e+001 0.000000e+000
      vertex   -1.461194e+002 4.726077e+001 0.000000e+000
    endloop
  endfacet
  facet normal 0.000000e+000 0.000000e+000 -7.968217e-001
    outer loop
      vertex   -1.538806e+002 4.726077e+001 0.000000e+000
      vertex   -1.461194e+002 4.726077e+001 0.000000e+000
      vertex   -1.536846e+002 4.700233e+001 0.000000e+000
    endloop
  endfacet
  facet normal 0.000000e+000 0.000000e+000 -3.414138e-002
    outer loop
      vertex   -1.536846e+002 4.700233e+001 0.000000e+000
      vertex   -1.461194e+002 4.726077e+001 0.000000e+000
      vertex   -1.463154e+002 4.700233e+001 0.000000e+000
    endloop
  endfacet
  facet normal 0.000000e+000 0.000000e+000 -7.536983e-001
    outer loop
      vertex   -1.536846e+002 4.700233e+001 0.000000e+000
      vertex   -1.463154e+002 4.700233e+001 0.000000e+000
      vertex   -1.534715e+002 4.675787e+001 0.000000e+000
    endloop
  endfacet
  facet normal 0.000000e+000 0.000000e+000 -3.414078e-002
    outer loop
      vertex   -1.534715e+002 4.675787e+001 0.000000e+000
      vertex   -1.463154e+002 4.700233e+001 0.000000e+000
      vertex   -1.465285e+002 4.675787e+001 0.000000e+000
    endloop
  endfacet
  facet normal 0.000000e+000 0.000000e+000 -7.071127e-001
    outer loop
      vertex   -1.534715e+002 4.675787e+001 0.000000e+000
      vertex   -1.465285e+002 4.675787e+001 0.000000e+000
      vertex   -1.532421e+002 4.652853e+001 0.000000e+000
    endloop
  endfacet
  facet normal 0.000000e+000 0.000000e+000 -3.414114e-002
    outer loop
      vertex   -1.532421e+002 4.652853e+001 0.000000e+000
      vertex   -1.465285e+002 4.675787e+001 0.000000e+000
      vertex   -1.467579e+002 4.652853e+001 0.000000e+000
    endloop
  endfacet
  facet normal 0.000000e+000 0.000000e+000 -6.572013e-001
    outer loop
      vertex   -1.532421e+002 4.652853e+001 0.000000e+000
      vertex   -1.467579e+002 4.652853e+001 0.000000e+000
      vertex   -1.529977e+002 4.631537e+001 0.000000e+000
    endloop
  endfacet
  facet normal 0.000000e+000 0.000000e+000 -3.414110e-002
    outer loop
      vertex   -1.529977e+002 4.631537e+001 0.000000e+000
      vertex   -1.467579e+002 4.652853e+001 0.000000e+000
      vertex   -1.470023e+002 4.631537e+001 0.000000e+000
    endloop
  endfacet
  facet normal 0.000000e+000 0.000000e+000 -6.042369e-001
    outer loop
      vertex   -1.529977e+002 4.631537e+001 0.000000e+000
      vertex   -1.470023e+002 4.631537e+001 0.000000e+000
      vertex   -1.527392e+002 4.611939e+001 0.000000e+000
    endloop
  endfacet
  facet normal 0.000000e+000 0.000000e+000 -3.414145e-002
    outer loop
      vertex   -1.527392e+002 4.611939e+001 0.000000e+000
      vertex   -1.470023e+002 4.631537e+001 0.000000e+000
      vertex   -1.472608e+002 4.611939e+001 0.000000e+000
    endloop
  endfacet
  facet normal 0.000000e+000 0.000000e+000 -5.484447e-001
    outer loop
      vertex   -1.527392e+002 4.611939e+001 0.000000e+000
      vertex   -1.472608e+002 4.611939e+001 0.000000e+000
      vertex   -1.524680e+002 4.594151e+001 0.000000e+000
    endloop
  endfacet
  facet normal 0.000000e+000 0.000000e+000 -3.414079e-002
    outer loop
      vertex   -1.524680e+002 4.594151e+001 0.000000e+000
      vertex   -1.472608e+002 4.611939e+001 0.000000e+000
      vertex   -1.475320e+002 4.594151e+001 0.000000e+000
    endloop
  endfacet
  facet normal 0.000000e+000 0.000000e+000 -4.901094e-001
    outer loop
      vertex   -1.524680e+002 4.594151e+001 0.000000e+000
      vertex   -1.475320e+002 4.594151e+001 0.000000e+000
      vertex   -1.521853e+002 4.578255e+001 0.000000e+000
    endloop
  endfacet
  facet normal 0.000000e+000 0.000000e+000 -3.414112e-002
    outer loop
      vertex   -1.521853e+002 4.578255e+001 0.000000e+000
      vertex   -1.475320e+002 4.594151e+001 0.000000e+000
      vertex   -1.478147e+002 4.578255e+001 0.000000e+000
    endloop
  endfacet
  facet normal 0.000000e+000 0.000000e+000 -4.295030e-001
    outer loop
      vertex   -1.521853e+002 4.578255e+001 0.000000e+000
      vertex   -1.478147e+002 4.578255e+001 0.000000e+000
      vertex   -1.518924e+002 4.564325e+001 0.000000e+000
    endloop
  endfacet
  facet normal 0.000000e+000 0.000000e+000 -3.414171e-002
    outer loop
      vertex   -1.518924e+002 4.564325e+001 0.000000e+000
      vertex   -1.478147e+002 4.578255e+001 0.000000e+000
      vertex   -1.481076e+002 4.564325e+001 0.000000e+000
    endloop
  endfacet
  facet normal 0.000000e+000 0.000000e+000 -3.668500e-001
    outer loop
      vertex   -1.518924e+002 4.564325e+001 0.000000e+000
      vertex   -1.481076e+002 4.564325e+001 0.000000e+000
      vertex   -1.515907e+002 4.552426e+001 0.000000e+000
    endloop
  endfacet
  facet normal 0.000000e+000 0.000000e+000 -3.414059e-002
    outer loop
      vertex   -1.515907e+002 4.552426e+001 0.000000e+000
      vertex   -1.481076e+002 4.564325e+001 0.000000e+000
      vertex   -1.484093e+002 4.552426e+001 0.000000e+000
    endloop
  endfacet
  facet normal 0.000000e+000 0.000000e+000 -3.025152e-001
    outer loop
      vertex   -1.515907e+002 4.552426e+001 0.000000e+000
      vertex   -1.484093e+002 4.552426e+001 0.000000e+000
      vertex   -1.512815e+002 4.542614e+001 0.000000e+000
    endloop
  endfacet
  facet normal 0.000000e+000 0.000000e+000 -3.414102e-002
    outer loop
      vertex   -1.512815e+002 4.542614e+001 0.000000e+000
      vertex   -1.484093e+002 4.552426e+001 0.000000e+000
      vertex   -1.487185e+002 4.542614e+001 0.000000e+000
    endloop
  endfacet
  facet normal 0.000000e+000 0.000000e+000 -2.367642e-001
    outer loop
      vertex   -1.512815e+002 4.542614e+001 0.000000e+000
      vertex   -1.487185e+002 4.542614e+001 0.000000e+000
      vertex   -1.509664e+002 4.534935e+001 0.000000e+000
    endloop
  endfacet
  facet normal 0.000000e+000 0.000000e+000 -3.414165e-002
    outer loop
      vertex   -1.509664e+002 4.534935e+001 0.000000e+000
      vertex   -1.487185e+002 4.542614e+001 0.000000e+000
      vertex   -1.490336e+002 4.534935e+001 0.000000e+000
    endloop
  endfacet
  facet normal 0.000000e+000 0.000000e+000 -1.699046e-001
    outer loop
      vertex   -1.509664e+002 4.534935e+001 0.000000e+000
      vertex   -1.490336e+002 4.534935e+001 0.000000e+000
      vertex   -1.506468e+002 4.529424e+001 0.000000e+000
    endloop
  endfacet
  facet normal 0.000000e+000 0.000000e+000 -3.414011e-002
    outer loop
      vertex   -1.506468e+002 4.529424e+001 0.000000e+000
      vertex   -1.490336e+002 4.534935e+001 0.000000e+000
      vertex   -1.493532e+002 4.529424e+001 0.000000e+000
    endloop
  endfacet
  facet normal 0.000000e+000 0.000000e+000 -1.022679e-001
    outer loop
      vertex   -1.506468e+002 4.529424e+001 0.000000e+000
      vertex   -1.493532e+002 4.529424e+001 0.000000e+000
      vertex   -1.503242e+002 4.526107e+001 0.000000e+000
    endloop
  endfacet
  facet normal 0.000000e+000 0.000000e+000 -3.414135e-002
    outer loop
      vertex   -1.503242e+002 4.526107e+001 0.000000e+000
      vertex   -1.493532e+002 4.529424e+001 0.000000e+000
      vertex   -1.496758e+002 4.526107e+001 0.000000e+000
    endloop
  endfacet
  facet normal 0.000000e+000 0.000000e+000 -3.414267e-002
    outer loop
      vertex   -1.503242e+002 4.526107e+001 0.000000e+000
      vertex   -1.496758e+002 4.526107e+001 0.000000e+000
      vertex   -1.500000e+002 4.525000e+001 0.000000e+000
    endloop
  endfacet
  facet normal 0.000000e+000 0.000000e+000 -9.947609e-001
    outer loop
      vertex   -1.452611e+002 5.032415e+001 0.000000e+000
      vertex   -1.547389e+002 5.032415e+001 0.000000e+000
      vertex   -1.452942e+002 5.064679e+001 0.000000e+000
    endloop
  endfacet
  facet normal -0.000000e+000 0.000000e+000 -3.414144e-002
    outer loop
      vertex   -1.452942e+002 5.064679e+001 0.000000e+000
      vertex   -1.547389e+002 5.032415e+001 0.000000e+000
      vertex   -1.547058e+002 5.064679e+001 0.000000e+000
    endloop
  endfacet
  facet normal 0.000000e+000 0.000000e+000 -9.854562e-001
    outer loop
      vertex   -1.452942e+002 5.064679e+001 0.000000e+000
      vertex   -1.547058e+002 5.064679e+001 0.000000e+000
      vertex   -1.453493e+002 5.096642e+001 0.000000e+000
    endloop
  endfacet
  facet normal -0.000000e+000 0.000000e+000 -3.414083e-002
    outer loop
      vertex   -1.453493e+002 5.096642e+001 0.000000e+000
      vertex   -1.547058e+002 5.064679e+001 0.000000e+000
      vertex   -1.546507e+002 5.096642e+001 0.000000e+000
    endloop
  endfacet
  facet normal 0.000000e+000 0.000000e+000 -9.715638e-001
    outer loop
      vertex   -1.453493e+002 5.096642e+001 0.000000e+000
      vertex   -1.546507e+002 5.096642e+001 0.000000e+000
      vertex   -1.454261e+002 5.128154e+001 0.000000e+000
    endloop
  endfacet
  facet normal -0.000000e+000 0.000000e+000 -3.414135e-002
    outer loop
      vertex   -1.454261e+002 5.128154e+001 0.000000e+000
      vertex   -1.546507e+002 5.096642e+001 0.000000e+000
      vertex   -1.545739e+002 5.128154e+001 0.000000e+000
    endloop
  endfacet
  facet normal 0.000000e+000 0.000000e+000 -9.531479e-001
    outer loop
      vertex   -1.454261e+002 5.128154e+001 0.000000e+000
      vertex   -1.545739e+002 5.128154e+001 0.000000e+000
      vertex   -1.455243e+002 5.159068e+001 0.000000e+000
    endloop
  endfacet
  facet normal -0.000000e+000 0.000000e+000 -3.414108e-002
    outer loop
      vertex   -1.455243e+002 5.159068e+001 0.000000e+000
      vertex   -1.545739e+002 5.128154e+001 0.000000e+000
      vertex   -1.544757e+002 5.159068e+001 0.000000e+000
    endloop
  endfacet
  facet normal 0.000000e+000 0.000000e+000 -9.302761e-001
    outer loop
      vertex   -1.455243e+002 5.159068e+001 0.000000e+000
      vertex   -1.544757e+002 5.159068e+001 0.000000e+000
      vertex   -1.456432e+002 5.189241e+001 0.000000e+000
    endloop
  endfacet
  facet normal -0.000000e+000 0.000000e+000 -3.414116e-002
    outer loop
      vertex   -1.456432e+002 5.189241e+001 0.000000e+000
      vertex   -1.544757e+002 5.159068e+001 0.000000e+000
      vertex   -1.543568e+002 5.189241e+001 0.000000e+000
    endloop
  endfacet
  facet normal 0.000000e+000 0.000000e+000 -9.030765e-001
    outer loop
      vertex   -1.456432e+002 5.189241e+001 0.000000e+000
      vertex   -1.543568e+002 5.189241e+001 0.000000e+000
      vertex   -1.457825e+002 5.218531e+001 0.000000e+000
    endloop
  endfacet
  facet normal -0.000000e+000 0.000000e+000 -3.414115e-002
    outer loop
      vertex   -1.457825e+002 5.218531e+001 0.000000e+000
      vertex   -1.543568e+002 5.189241e+001 0.000000e+000
      vertex   -1.542175e+002 5.218531e+001 0.000000e+000
    endloop
  endfacet
  facet normal 0.000000e+000 0.000000e+000 -8.716559e-001
    outer loop
      vertex   -1.457825e+002 5.218531e+001 0.000000e+000
      vertex   -1.542175e+002 5.218531e+001 0.000000e+000
      vertex   -1.459415e+002 5.246803e+001 0.000000e+000
    endloop
  endfacet
  facet normal -0.000000e+000 0.000000e+000 -3.414114e-002
    outer loop
      vertex   -1.459415e+002 5.246803e+001 0.000000e+000
      vertex   -1.542175e+002 5.218531e+001 0.000000e+000
      vertex   -1.540585e+002 5.246803e+001 0.000000e+000
    endloop
  endfacet
  facet normal 0.000000e+000 0.000000e+000 -8.361779e-001
    outer loop
      vertex   -1.459415e+002 5.246803e+001 0.000000e+000
      vertex   -1.540585e+002 5.246803e+001 0.000000e+000
      vertex   -1.461194e+002 5.273923e+001 0.000000e+000
    endloop
  endfacet
  facet normal -0.000000e+000 0.000000e+000 -3.414093e-002
    outer loop
      vertex   -1.461194e+002 5.273923e+001 0.000000e+000
      vertex   -1.540585e+002 5.246803e+001 0.000000e+000
      vertex   -1.538806e+002 5.273923e+001 0.000000e+000
    endloop
  endfacet
  facet normal 0.000000e+000 0.000000e+000 -7.968217e-001
    outer loop
      vertex   -1.461194e+002 5.273923e+001 0.000000e+000
      vertex   -1.538806e+002 5.273923e+001 0.000000e+000
      vertex   -1.463154e+002 5.299767e+001 0.000000e+000
    endloop
  endfacet
  facet normal -0.000000e+000 0.000000e+000 -3.414138e-002
    outer loop
      vertex   -1.463154e+002 5.299767e+001 0.000000e+000
      vertex   -1.538806e+002 5.273923e+001 0.000000e+000
      vertex   -1.536846e+002 5.299767e+001 0.000000e+000
    endloop
  endfacet
  facet normal 0.000000e+000 0.000000e+000 -7.536983e-001
    outer loop
      vertex   -1.463154e+002 5.299767e+001 0.000000e+000
      vertex   -1.536846e+002 5.299767e+001 0.000000e+000
      vertex   -1.465285e+002 5.324213e+001 0.000000e+000
    endloop
  endfacet
  facet normal -0.000000e+000 0.000000e+000 -3.414078e-002
    outer loop
      vertex   -1.465285e+002 5.324213e+001 0.000000e+000
      vertex   -1.536846e+002 5.299767e+001 0.000000e+000
      vertex   -1.534715e+002 5.324213e+001 0.000000e+000
    endloop
  endfacet
  facet normal 0.000000e+000 0.000000e+000 -7.071127e-001
    outer loop
      vertex   -1.465285e+002 5.324213e+001 0.000000e+000
      vertex   -1.534715e+002 5.324213e+001 0.000000e+000
      vertex   -1.467579e+002 5.347147e+001 0.000000e+000
    endloop
  endfacet
  facet normal -0.000000e+000 0.000000e+000 -3.414114e-002
    outer loop
      vertex   -1.467579e+002 5.347147e+001 0.000000e+000
      vertex   -1.534715e+002 5.324213e+001 0.000000e+000
      vertex   -1.532421e+002 5.347147e+001 0.000000e+000
    endloop
  endfacet
  facet normal 0.000000e+000 0.000000e+000 -6.572013e-001
    outer loop
      vertex   -1.467579e+002 5.347147e+001 0.000000e+000
      vertex   -1.532421e+002 5.347147e+001 0.000000e+000
      vertex   -1.470023e+002 5.368463e+001 0.000000e+000
    endloop
  endfacet
  facet normal -0.000000e+000 0.000000e+000 -3.414110e-002
    outer loop
      vertex   -1.470023e+002 5.368463e+001 0.000000e+000
      vertex   -1.532421e+002 5.347147e+001 0.000000e+000
      vertex   -1.529977e+002 5.368463e+001 0.000000e+000
    endloop
  endfacet
  facet normal 0.000000e+000 0.000000e+000 -6.042369e-001
    outer loop
      vertex   -1.470023e+002 5.368463e+001 0.000000e+000
      vertex   -1.529977e+002 5.368463e+001 0.000000e+000
      vertex   -1.472608e+002 5.388061e+001 0.000000e+000
    endloop
  endfacet
  facet normal -0.000000e+000 0.000000e+000 -3.414145e-002
    outer loop
      vertex   -1.472608e+002 5.388061e+001 0.000000e+000
      vertex   -1.529977e+002 5.368463e+001 0.000000e+000
      vertex   -1.527392e+002 5.388061e+001 0.000000e+000
    endloop
  endfacet
  facet normal 0.000000e+000 0.000000e+000 -5.484447e-001
    outer loop
      vertex   -1.472608e+002 5.388061e+001 0.000000e+000
      vertex   -1.527392e+002 5.388061e+001 0.000000e+000
      vertex   -1.475320e+002 5.405849e+001 0.000000e+000
    endloop
  endfacet
  facet normal -0.000000e+000 0.000000e+000 -3.414079e-002
    outer loop
      vertex   -1.475320e+002 5.405849e+001 0.000000e+000
      vertex   -1.527392e+002 5.388061e+001 0.000000e+000
      vertex   -1.524680e+002 5.405849e+001 0.000000e+000
    endloop
  endfacet
  facet normal 0.000000e+000 0.000000e+000 -4.901094e-001
    outer loop
      vertex   -1.475320e+002 5.405849e+001 0.000000e+000
      vertex   -1.524680e+002 5.405849e+001 0.000000e+000
      vertex   -1.478147e+002 5.421745e+001 0.000000e+000
    endloop
  endfacet
  facet normal -0.000000e+000 0.000000e+000 -3.414112e-002
    outer loop
      vertex   -1.478147e+002 5.421745e+001 0.000000e+000
      vertex   -1.524680e+002 5.405849e+001 0.000000e+000
      vertex   -1.521853e+002 5.421745e+001 0.000000e+000
    endloop
  endfacet
  facet normal 0.000000e+000 0.000000e+000 -4.295030e-001
    outer loop
      vertex   -1.478147e+002 5.421745e+001 0.000000e+000
      vertex   -1.521853e+002 5.421745e+001 0.000000e+000
      vertex   -1.481076e+002 5.435675e+001 0.000000e+000
    endloop
  endfacet
  facet normal -0.000000e+000 0.000000e+000 -3.414171e-002
    outer loop
      vertex   -1.481076e+002 5.435675e+001 0.000000e+000
      vertex   -1.521853e+002 5.421745e+001 0.000000e+000
      vertex   -1.518924e+002 5.435675e+001 0.000000e+000
    endloop
  endfacet
  facet normal 0.000000e+000 0.000000e+000 -3.668500e-001
    outer loop
      vertex   -1.481076e+002 5.435675e+001 0.000000e+000
      vertex   -1.518924e+002 5.435675e+001 0.000000e+000
      vertex   -1.484093e+002 5.447574e+001 0.000000e+000
    endloop
  endfacet
  facet normal -0.000000e+000 0.000000e+000 -3.414059e-002
    outer loop
      vertex   -1.484093e+002 5.447574e+001 0.000000e+000
      vertex   -1.518924e+002 5.435675e+001 0.000000e+000
      vertex   -1.515907e+002 5.447574e+001 0.000000e+000
    endloop
  endfacet
  facet normal 0.000000e+000 0.000000e+000 -3.025152e-001
    outer loop
      vertex   -1.484093e+002 5.447574e+001 0.000000e+000
      vertex   -1.515907e+002 5.447574e+001 0.000000e+000
      vertex   -1.487185e+002 5.457386e+001 0.000000e+000
    endloop
  endfacet
  facet normal -0.000000e+000 0.000000e+000 -3.414102e-002
    outer loop
      vertex   -1.487185e+002 5.457386e+001 0.000000e+000
      vertex   -1.515907e+002 5.447574e+001 0.000000e+000
      vertex   -1.512815e+002 5.457386e+001 0.000000e+000
    endloop
  endfacet
  facet normal 0.000000e+000 0.000000e+000 -2.367642e-001
    outer loop
      vertex   -1.487185e+002 5.457386e+001 0.000000e+000
      vertex   -1.512815e+002 5.457386e+001 0.000000e+000
      vertex   -1.490336e+002 5.465065e+001 0.000000e+000
    endloop
  endfacet
  facet normal -0.000000e+000 0.000000e+000 -3.414165e-002
    outer loop
      vertex   -1.490336e+002 5.465065e+001 0.000000e+000
      vertex   -1.512815e+002 5.457386e+001 0.000000e+000
      vertex   -1.509664e+002 5.465065e+001 0.000000e+000
    endloop
  endfacet
  facet normal 0.000000e+000 0.000000e+000 -1.699046e-001
    outer loop
      vertex   -1.490336e+002 5.465065e+001 0.000000e+000
      vertex   -1.509664e+002 5.465065e+001 0.000000e+000
      vertex   -1.493532e+002 5.470576e+001 0.000000e+000
    endloop
  endfacet
  facet normal -0.000000e+000 0.000000e+000 -3.414011e-002
    outer loop
      vertex   -1.493532e+002 5.470576e+001 0.000000e+000
      vertex   -1.509664e+002 5.465065e+001 0.000000e+000
      vertex   -1.506468e+002 5.470576e+001 0.000000e+000
    endloop
  endfacet
  facet normal 0.000000e+000 0.000000e+000 -1.022679e-001
    outer loop
      vertex   -1.493532e+002 5.470576e+001 0.000000e+000
      vertex   -1.506468e+002 5.470576e+001 0.000000e+000
      vertex   -1.496758e+002 5.473893e+001 0.000000e+000
    endloop
  endfacet
  facet normal -0.000000e+000 0.000000e+000 -3.414135e-002
    outer loop
      vertex   -1.496758e+002 5.473893e+001 0.000000e+000
      vertex   -1.506468e+002 5.470576e+001 0.000000e+000
      vertex   -1.503242e+002 5.473893e+001 0.000000e+000
    endloop
  endfacet
  facet normal 0.000000e+000 0.000000e+000 -3.414267e-002
    outer loop
      vertex   -1.496758e+002 5.473893e+001 0.000000e+000
      vertex   -1.503242e+002 5.473893e+001 0.000000e+000
      vertex   -1.500000e+002 5.475000e+001 0.000000e+000
    endloop
  endfacet
endsolid
