solid ascii
  facet normal -9.993773e-001 3.528542e-002 0.000000e+000
    outer loop
      vertex   -5.448879e+001 1.503174e+002 5.000000e+000
      vertex   -5.448879e+001 1.503174e+002 0.000000e+000
      vertex   -5.450000e+001 1.500000e+002 5.000000e+000
    endloop
  endfacet
  facet normal -6.335801e-002 2.237007e-003 0.000000e+000
    outer loop
      vertex   -5.450000e+001 1.500000e+002 5.000000e+000
      vertex   -5.448879e+001 1.503174e+002 0.000000e+000
      vertex   -5.450000e+001 1.500000e+002 0.000000e+000
    endloop
  endfacet
  facet normal -9.993773e-001 -3.528542e-002 -0.000000e+000
    outer loop
      vertex   -5.450000e+001 1.500000e+002 5.000000e+000
      vertex   -5.450000e+001 1.500000e+002 0.000000e+000
      vertex   -5.448879e+001 1.496826e+002 5.000000e+000
    endloop
  endfacet
  facet normal -6.335801e-002 -2.237007e-003 -0.000000e+000
    outer loop
      vertex   -5.448879e+001 1.496826e+002 5.000000e+000
      vertex   -5.450000e+001 1.500000e+002 0.000000e+000
      vertex   -5.448879e+001 1.496826e+002 0.000000e+000
    endloop
  endfacet
  facet normal -9.943979e-001 -1.057019e-001 -0.000000e+000
    outer loop
      vertex   -5.448879e+001 1.496826e+002 5.000000e+000
      vertex   -5.448879e+001 1.496826e+002 0.000000e+000
      vertex   -5.445522e+001 1.493667e+002 5.000000e+000
    endloop
  endfacet
  facet normal -6.304127e-002 -6.701123e-003 -0.000000e+000
    outer loop
      vertex   -5.445522e+001 1.493667e+002 5.000000e+000
      vertex   -5.448879e+001 1.496826e+002 0.000000e+000
      vertex   -5.445522e+001 1.493667e+002 0.000000e+000
    endloop
  endfacet
  facet normal -9.844652e-001 -1.755795e-001 -0.000000e+000
    outer loop
      vertex   -5.445522e+001 1.493667e+002 5.000000e+000
      vertex   -5.445522e+001 1.493667e+002 0.000000e+000
      vertex   -5.439945e+001 1.490540e+002 5.000000e+000
    endloop
  endfacet
  facet normal -6.241083e-002 -1.113098e-002 -0.000000e+000
    outer loop
      vertex   -5.439945e+001 1.490540e+002 5.000000e+000
      vertex   -5.445522e+001 1.493667e+002 0.000000e+000
      vertex   -5.439945e+001 1.490540e+002 0.000000e+000
    endloop
  endfacet
  facet normal -9.696289e-001 -2.445810e-001 -0.000000e+000
    outer loop
      vertex   -5.439945e+001 1.490540e+002 5.000000e+000
      vertex   -5.439945e+001 1.490540e+002 0.000000e+000
      vertex   -5.432177e+001 1.487461e+002 5.000000e+000
    endloop
  endfacet
  facet normal -6.147277e-002 -1.550601e-002 -0.000000e+000
    outer loop
      vertex   -5.432177e+001 1.487461e+002 5.000000e+000
      vertex   -5.439945e+001 1.490540e+002 0.000000e+000
      vertex   -5.432177e+001 1.487461e+002 0.000000e+000
    endloop
  endfacet
  facet normal -9.499594e-001 -3.123735e-001 -0.000000e+000
    outer loop
      vertex   -5.432177e+001 1.487461e+002 5.000000e+000
      vertex   -5.432177e+001 1.487461e+002 0.000000e+000
      vertex   -5.422255e+001 1.484443e+002 5.000000e+000
    endloop
  endfacet
  facet normal -6.022407e-002 -1.980338e-002 -0.000000e+000
    outer loop
      vertex   -5.422255e+001 1.484443e+002 5.000000e+000
      vertex   -5.432177e+001 1.487461e+002 0.000000e+000
      vertex   -5.422255e+001 1.484443e+002 0.000000e+000
    endloop
  endfacet
  facet normal -9.255561e-001 -3.786104e-001 -0.000000e+000
    outer loop
      vertex   -5.422255e+001 1.484443e+002 5.000000e+000
      vertex   -5.422255e+001 1.484443e+002 0.000000e+000
      vertex   -5.410229e+001 1.481504e+002 5.000000e+000
    endloop
  endfacet
  facet normal -5.867689e-002 -2.400252e-002 -0.000000e+000
    outer loop
      vertex   -5.410229e+001 1.481504e+002 5.000000e+000
      vertex   -5.422255e+001 1.484443e+002 0.000000e+000
      vertex   -5.410229e+001 1.481504e+002 0.000000e+000
    endloop
  endfacet
  facet normal -8.965453e-001 -4.429521e-001 -0.000000e+000
    outer loop
      vertex   -5.410229e+001 1.481504e+002 5.000000e+000
      vertex   -5.410229e+001 1.481504e+002 0.000000e+000
      vertex   -5.396161e+001 1.478656e+002 5.000000e+000
    endloop
  endfacet
  facet normal -5.683734e-002 -2.808137e-002 -0.000000e+000
    outer loop
      vertex   -5.396161e+001 1.478656e+002 5.000000e+000
      vertex   -5.410229e+001 1.481504e+002 0.000000e+000
      vertex   -5.396161e+001 1.478656e+002 0.000000e+000
    endloop
  endfacet
  facet normal -8.630759e-001 -5.050743e-001 -0.000000e+000
    outer loop
      vertex   -5.396161e+001 1.478656e+002 5.000000e+000
      vertex   -5.396161e+001 1.478656e+002 0.000000e+000
      vertex   -5.380118e+001 1.475915e+002 5.000000e+000
    endloop
  endfacet
  facet normal -5.471759e-002 -3.202087e-002 -0.000000e+000
    outer loop
      vertex   -5.380118e+001 1.475915e+002 5.000000e+000
      vertex   -5.396161e+001 1.478656e+002 0.000000e+000
      vertex   -5.380118e+001 1.475915e+002 0.000000e+000
    endloop
  endfacet
  facet normal -8.252860e-001 -5.647149e-001 -0.000000e+000
    outer loop
      vertex   -5.380118e+001 1.475915e+002 5.000000e+000
      vertex   -5.380118e+001 1.475915e+002 0.000000e+000
      vertex   -5.362181e+001 1.473293e+002 5.000000e+000
    endloop
  endfacet
  facet normal -5.232069e-002 -3.580125e-002 -0.000000e+000
    outer loop
      vertex   -5.362181e+001 1.473293e+002 5.000000e+000
      vertex   -5.380118e+001 1.475915e+002 0.000000e+000
      vertex   -5.362181e+001 1.473293e+002 0.000000e+000
    endloop
  endfacet
  facet normal -7.834015e-001 -6.215160e-001 -0.000000e+000
    outer loop
      vertex   -5.362181e+001 1.473293e+002 5.000000e+000
      vertex   -5.362181e+001 1.473293e+002 0.000000e+000
      vertex   -5.342440e+001 1.470805e+002 5.000000e+000
    endloop
  endfacet
  facet normal -4.966491e-002 -3.940193e-002 -0.000000e+000
    outer loop
      vertex   -5.342440e+001 1.470805e+002 5.000000e+000
      vertex   -5.362181e+001 1.473293e+002 0.000000e+000
      vertex   -5.342440e+001 1.470805e+002 0.000000e+000
    endloop
  endfacet
  facet normal -7.376146e-001 -6.752219e-001 -0.000000e+000
    outer loop
      vertex   -5.342440e+001 1.470805e+002 5.000000e+000
      vertex   -5.342440e+001 1.470805e+002 0.000000e+000
      vertex   -5.320994e+001 1.468462e+002 5.000000e+000
    endloop
  endfacet
  facet normal -4.676243e-002 -4.280693e-002 -0.000000e+000
    outer loop
      vertex   -5.320994e+001 1.468462e+002 5.000000e+000
      vertex   -5.342440e+001 1.470805e+002 0.000000e+000
      vertex   -5.320994e+001 1.468462e+002 0.000000e+000
    endloop
  endfacet
  facet normal -6.881350e-001 -7.255827e-001 -0.000000e+000
    outer loop
      vertex   -5.320994e+001 1.468462e+002 5.000000e+000
      vertex   -5.320994e+001 1.468462e+002 0.000000e+000
      vertex   -5.297948e+001 1.466277e+002 5.000000e+000
    endloop
  endfacet
  facet normal -4.362544e-002 -4.599950e-002 -0.000000e+000
    outer loop
      vertex   -5.297948e+001 1.466277e+002 5.000000e+000
      vertex   -5.320994e+001 1.468462e+002 0.000000e+000
      vertex   -5.297948e+001 1.466277e+002 0.000000e+000
    endloop
  endfacet
  facet normal -6.352416e-001 -7.723135e-001 -0.000000e+000
    outer loop
      vertex   -5.297948e+001 1.466277e+002 5.000000e+000
      vertex   -5.297948e+001 1.466277e+002 0.000000e+000
      vertex   -5.273417e+001 1.464259e+002 5.000000e+000
    endloop
  endfacet
  facet normal -4.027222e-002 -4.896213e-002 -0.000000e+000
    outer loop
      vertex   -5.273417e+001 1.464259e+002 5.000000e+000
      vertex   -5.297948e+001 1.466277e+002 0.000000e+000
      vertex   -5.273417e+001 1.464259e+002 0.000000e+000
    endloop
  endfacet
  facet normal -5.791777e-001 -8.152013e-001 -0.000000e+000
    outer loop
      vertex   -5.273417e+001 1.464259e+002 5.000000e+000
      vertex   -5.273417e+001 1.464259e+002 0.000000e+000
      vertex   -5.247525e+001 1.462419e+002 5.000000e+000
    endloop
  endfacet
  facet normal -3.671798e-002 -5.168111e-002 -0.000000e+000
    outer loop
      vertex   -5.247525e+001 1.462419e+002 5.000000e+000
      vertex   -5.273417e+001 1.464259e+002 0.000000e+000
      vertex   -5.247525e+001 1.462419e+002 0.000000e+000
    endloop
  endfacet
  facet normal -5.202700e-001 -8.540018e-001 -0.000000e+000
    outer loop
      vertex   -5.247525e+001 1.462419e+002 5.000000e+000
      vertex   -5.247525e+001 1.462419e+002 0.000000e+000
      vertex   -5.220399e+001 1.460767e+002 5.000000e+000
    endloop
  endfacet
  facet normal -3.298405e-002 -5.414196e-002 -0.000000e+000
    outer loop
      vertex   -5.220399e+001 1.460767e+002 5.000000e+000
      vertex   -5.247525e+001 1.462419e+002 0.000000e+000
      vertex   -5.220399e+001 1.460767e+002 0.000000e+000
    endloop
  endfacet
  facet normal -4.586919e-001 -8.885954e-001 -0.000000e+000
    outer loop
      vertex   -5.220399e+001 1.460767e+002 5.000000e+000
      vertex   -5.220399e+001 1.460767e+002 0.000000e+000
      vertex   -5.192175e+001 1.459310e+002 5.000000e+000
    endloop
  endfacet
  facet normal -2.907957e-002 -5.633405e-002 -0.000000e+000
    outer loop
      vertex   -5.192175e+001 1.459310e+002 5.000000e+000
      vertex   -5.220399e+001 1.460767e+002 0.000000e+000
      vertex   -5.192175e+001 1.459310e+002 0.000000e+000
    endloop
  endfacet
  facet normal -3.948526e-001 -9.187445e-001 -0.000000e+000
    outer loop
      vertex   -5.192175e+001 1.459310e+002 5.000000e+000
      vertex   -5.192175e+001 1.459310e+002 0.000000e+000
      vertex   -5.162994e+001 1.458056e+002 5.000000e+000
    endloop
  endfacet
  facet normal -2.503194e-002 -5.824442e-002 -0.000000e+000
    outer loop
      vertex   -5.162994e+001 1.458056e+002 5.000000e+000
      vertex   -5.192175e+001 1.459310e+002 0.000000e+000
      vertex   -5.162994e+001 1.458056e+002 0.000000e+000
    endloop
  endfacet
  facet normal -3.291224e-001 -9.442872e-001 -0.000000e+000
    outer loop
      vertex   -5.162994e+001 1.458056e+002 5.000000e+000
      vertex   -5.162994e+001 1.458056e+002 0.000000e+000
      vertex   -5.133001e+001 1.457010e+002 5.000000e+000
    endloop
  endfacet
  facet normal -2.086553e-002 -5.986544e-002 -0.000000e+000
    outer loop
      vertex   -5.133001e+001 1.457010e+002 5.000000e+000
      vertex   -5.162994e+001 1.458056e+002 0.000000e+000
      vertex   -5.133001e+001 1.457010e+002 0.000000e+000
    endloop
  endfacet
  facet normal -2.616283e-001 -9.651687e-001 -0.000000e+000
    outer loop
      vertex   -5.133001e+001 1.457010e+002 5.000000e+000
      vertex   -5.133001e+001 1.457010e+002 0.000000e+000
      vertex   -5.102345e+001 1.456179e+002 5.000000e+000
    endloop
  endfacet
  facet normal -1.658644e-002 -6.118877e-002 -0.000000e+000
    outer loop
      vertex   -5.102345e+001 1.456179e+002 5.000000e+000
      vertex   -5.133001e+001 1.457010e+002 0.000000e+000
      vertex   -5.102345e+001 1.456179e+002 0.000000e+000
    endloop
  endfacet
  facet normal -1.929324e-001 -9.812121e-001 -0.000000e+000
    outer loop
      vertex   -5.102345e+001 1.456179e+002 5.000000e+000
      vertex   -5.102345e+001 1.456179e+002 0.000000e+000
      vertex   -5.071180e+001 1.455567e+002 5.000000e+000
    endloop
  endfacet
  facet normal -1.223121e-002 -6.220524e-002 -0.000000e+000
    outer loop
      vertex   -5.071180e+001 1.455567e+002 5.000000e+000
      vertex   -5.102345e+001 1.456179e+002 0.000000e+000
      vertex   -5.071180e+001 1.455567e+002 0.000000e+000
    endloop
  endfacet
  facet normal -1.232232e-001 -9.923790e-001 -0.000000e+000
    outer loop
      vertex   -5.071180e+001 1.455567e+002 5.000000e+000
      vertex   -5.071180e+001 1.455567e+002 0.000000e+000
      vertex   -5.039660e+001 1.455175e+002 5.000000e+000
    endloop
  endfacet
  facet normal -7.812012e-003 -6.291411e-002 -0.000000e+000
    outer loop
      vertex   -5.039660e+001 1.455175e+002 5.000000e+000
      vertex   -5.071180e+001 1.455567e+002 0.000000e+000
      vertex   -5.039660e+001 1.455175e+002 0.000000e+000
    endloop
  endfacet
  facet normal -5.294083e-002 -9.985976e-001 -0.000000e+000
    outer loop
      vertex   -5.039660e+001 1.455175e+002 5.000000e+000
      vertex   -5.039660e+001 1.455175e+002 0.000000e+000
      vertex   -5.007942e+001 1.455007e+002 5.000000e+000
    endloop
  endfacet
  facet normal -3.356272e-003 -6.330775e-002 -0.000000e+000
    outer loop
      vertex   -5.007942e+001 1.455007e+002 5.000000e+000
      vertex   -5.039660e+001 1.455175e+002 0.000000e+000
      vertex   -5.007942e+001 1.455007e+002 0.000000e+000
    endloop
  endfacet
  facet normal 1.763089e-002 -9.998446e-001 0.000000e+000
    outer loop
      vertex   -5.007942e+001 1.455007e+002 5.000000e+000
      vertex   -5.007942e+001 1.455007e+002 0.000000e+000
      vertex   -4.976184e+001 1.455063e+002 5.000000e+000
    endloop
  endfacet
  facet normal 1.117742e-003 -6.338695e-002 0.000000e+000
    outer loop
      vertex   -4.976184e+001 1.455063e+002 5.000000e+000
      vertex   -5.007942e+001 1.455007e+002 0.000000e+000
      vertex   -4.976184e+001 1.455063e+002 0.000000e+000
    endloop
  endfacet
  facet normal 8.815423e-002 -9.961069e-001 0.000000e+000
    outer loop
      vertex   -4.976184e+001 1.455063e+002 5.000000e+000
      vertex   -4.976184e+001 1.455063e+002 0.000000e+000
      vertex   -4.944546e+001 1.455343e+002 5.000000e+000
    endloop
  endfacet
  facet normal 5.588711e-003 -6.315015e-002 0.000000e+000
    outer loop
      vertex   -4.944546e+001 1.455343e+002 5.000000e+000
      vertex   -4.976184e+001 1.455063e+002 0.000000e+000
      vertex   -4.944546e+001 1.455343e+002 0.000000e+000
    endloop
  endfacet
  facet normal 1.581498e-001 -9.874151e-001 0.000000e+000
    outer loop
      vertex   -4.944546e+001 1.455343e+002 5.000000e+000
      vertex   -4.944546e+001 1.455343e+002 0.000000e+000
      vertex   -4.913183e+001 1.455845e+002 5.000000e+000
    endloop
  endfacet
  facet normal 1.002618e-002 -6.259889e-002 0.000000e+000
    outer loop
      vertex   -4.913183e+001 1.455845e+002 5.000000e+000
      vertex   -4.944546e+001 1.455343e+002 0.000000e+000
      vertex   -4.913183e+001 1.455845e+002 0.000000e+000
    endloop
  endfacet
  facet normal 2.274699e-001 -9.737851e-001 0.000000e+000
    outer loop
      vertex   -4.913183e+001 1.455845e+002 5.000000e+000
      vertex   -4.913183e+001 1.455845e+002 0.000000e+000
      vertex   -4.882253e+001 1.456568e+002 5.000000e+000
    endloop
  endfacet
  facet normal 1.442100e-002 -6.173545e-002 0.000000e+000
    outer loop
      vertex   -4.882253e+001 1.456568e+002 5.000000e+000
      vertex   -4.913183e+001 1.455845e+002 0.000000e+000
      vertex   -4.882253e+001 1.456568e+002 0.000000e+000
    endloop
  endfacet
  facet normal 2.955472e-001 -9.553281e-001 0.000000e+000
    outer loop
      vertex   -4.882253e+001 1.456568e+002 5.000000e+000
      vertex   -4.882253e+001 1.456568e+002 0.000000e+000
      vertex   -4.851910e+001 1.457507e+002 5.000000e+000
    endloop
  endfacet
  facet normal 1.873665e-002 -6.056442e-002 0.000000e+000
    outer loop
      vertex   -4.851910e+001 1.457507e+002 5.000000e+000
      vertex   -4.882253e+001 1.456568e+002 0.000000e+000
      vertex   -4.851910e+001 1.457507e+002 0.000000e+000
    endloop
  endfacet
  facet normal 3.622243e-001 -9.320910e-001 0.000000e+000
    outer loop
      vertex   -4.851910e+001 1.457507e+002 5.000000e+000
      vertex   -4.851910e+001 1.457507e+002 0.000000e+000
      vertex   -4.822305e+001 1.458657e+002 5.000000e+000
    endloop
  endfacet
  facet normal 2.296397e-002 -5.909186e-002 0.000000e+000
    outer loop
      vertex   -4.822305e+001 1.458657e+002 5.000000e+000
      vertex   -4.851910e+001 1.457507e+002 0.000000e+000
      vertex   -4.822305e+001 1.458657e+002 0.000000e+000
    endloop
  endfacet
  facet normal 4.270344e-001 -9.042354e-001 0.000000e+000
    outer loop
      vertex   -4.822305e+001 1.458657e+002 5.000000e+000
      vertex   -4.822305e+001 1.458657e+002 0.000000e+000
      vertex   -4.793584e+001 1.460013e+002 5.000000e+000
    endloop
  endfacet
  facet normal 2.707251e-002 -5.732540e-002 0.000000e+000
    outer loop
      vertex   -4.793584e+001 1.460013e+002 5.000000e+000
      vertex   -4.822305e+001 1.458657e+002 0.000000e+000
      vertex   -4.793584e+001 1.460013e+002 0.000000e+000
    endloop
  endfacet
  facet normal 4.897776e-001 -8.718474e-001 0.000000e+000
    outer loop
      vertex   -4.793584e+001 1.460013e+002 5.000000e+000
      vertex   -4.793584e+001 1.460013e+002 0.000000e+000
      vertex   -4.765892e+001 1.461569e+002 5.000000e+000
    endloop
  endfacet
  facet normal 3.105009e-002 -5.527189e-002 0.000000e+000
    outer loop
      vertex   -4.765892e+001 1.461569e+002 5.000000e+000
      vertex   -4.793584e+001 1.460013e+002 0.000000e+000
      vertex   -4.765892e+001 1.461569e+002 0.000000e+000
    endloop
  endfacet
  facet normal 5.500576e-001 -8.351268e-001 0.000000e+000
    outer loop
      vertex   -4.765892e+001 1.461569e+002 5.000000e+000
      vertex   -4.765892e+001 1.461569e+002 0.000000e+000
      vertex   -4.739367e+001 1.463316e+002 5.000000e+000
    endloop
  endfacet
  facet normal 3.487233e-002 -5.294504e-002 0.000000e+000
    outer loop
      vertex   -4.739367e+001 1.463316e+002 5.000000e+000
      vertex   -4.765892e+001 1.461569e+002 0.000000e+000
      vertex   -4.739367e+001 1.463316e+002 0.000000e+000
    endloop
  endfacet
  facet normal 6.075807e-001 -7.942579e-001 0.000000e+000
    outer loop
      vertex   -4.739367e+001 1.463316e+002 5.000000e+000
      vertex   -4.739367e+001 1.463316e+002 0.000000e+000
      vertex   -4.714140e+001 1.465246e+002 5.000000e+000
    endloop
  endfacet
  facet normal 3.851794e-002 -5.035246e-002 0.000000e+000
    outer loop
      vertex   -4.714140e+001 1.465246e+002 5.000000e+000
      vertex   -4.739367e+001 1.463316e+002 0.000000e+000
      vertex   -4.714140e+001 1.465246e+002 0.000000e+000
    endloop
  endfacet
  facet normal 6.621276e-001 -7.493912e-001 0.000000e+000
    outer loop
      vertex   -4.714140e+001 1.465246e+002 5.000000e+000
      vertex   -4.714140e+001 1.465246e+002 0.000000e+000
      vertex   -4.690337e+001 1.467349e+002 5.000000e+000
    endloop
  endfacet
  facet normal 4.197776e-002 -4.751013e-002 0.000000e+000
    outer loop
      vertex   -4.690337e+001 1.467349e+002 5.000000e+000
      vertex   -4.714140e+001 1.465246e+002 0.000000e+000
      vertex   -4.690337e+001 1.467349e+002 0.000000e+000
    endloop
  endfacet
  facet normal 7.133126e-001 -7.008460e-001 0.000000e+000
    outer loop
      vertex   -4.690337e+001 1.467349e+002 5.000000e+000
      vertex   -4.690337e+001 1.467349e+002 0.000000e+000
      vertex   -4.668076e+001 1.469615e+002 5.000000e+000
    endloop
  endfacet
  facet normal 4.522135e-002 -4.443101e-002 0.000000e+000
    outer loop
      vertex   -4.668076e+001 1.469615e+002 5.000000e+000
      vertex   -4.690337e+001 1.467349e+002 0.000000e+000
      vertex   -4.668076e+001 1.469615e+002 0.000000e+000
    endloop
  endfacet
  facet normal 7.609724e-001 -6.487842e-001 0.000000e+000
    outer loop
      vertex   -4.668076e+001 1.469615e+002 5.000000e+000
      vertex   -4.668076e+001 1.469615e+002 0.000000e+000
      vertex   -4.647470e+001 1.472032e+002 5.000000e+000
    endloop
  endfacet
  facet normal 4.824261e-002 -4.113032e-002 0.000000e+000
    outer loop
      vertex   -4.647470e+001 1.472032e+002 5.000000e+000
      vertex   -4.668076e+001 1.469615e+002 0.000000e+000
      vertex   -4.647470e+001 1.472032e+002 0.000000e+000
    endloop
  endfacet
  facet normal 8.048505e-001 -5.934776e-001 0.000000e+000
    outer loop
      vertex   -4.647470e+001 1.472032e+002 5.000000e+000
      vertex   -4.647470e+001 1.472032e+002 0.000000e+000
      vertex   -4.628619e+001 1.474588e+002 5.000000e+000
    endloop
  endfacet
  facet normal 5.102629e-002 -3.762557e-002 0.000000e+000
    outer loop
      vertex   -4.628619e+001 1.474588e+002 5.000000e+000
      vertex   -4.647470e+001 1.472032e+002 0.000000e+000
      vertex   -4.628619e+001 1.474588e+002 0.000000e+000
    endloop
  endfacet
  facet normal 8.447083e-001 -5.352269e-001 0.000000e+000
    outer loop
      vertex   -4.628619e+001 1.474588e+002 5.000000e+000
      vertex   -4.628619e+001 1.474588e+002 0.000000e+000
      vertex   -4.611619e+001 1.477271e+002 5.000000e+000
    endloop
  endfacet
  facet normal 5.355112e-002 -3.393124e-002 0.000000e+000
    outer loop
      vertex   -4.611619e+001 1.477271e+002 5.000000e+000
      vertex   -4.628619e+001 1.474588e+002 0.000000e+000
      vertex   -4.611619e+001 1.477271e+002 0.000000e+000
    endloop
  endfacet
  facet normal 8.803519e-001 -4.743211e-001 0.000000e+000
    outer loop
      vertex   -4.611619e+001 1.477271e+002 5.000000e+000
      vertex   -4.611619e+001 1.477271e+002 0.000000e+000
      vertex   -4.596554e+001 1.480067e+002 5.000000e+000
    endloop
  endfacet
  facet normal 5.581097e-002 -3.007016e-002 0.000000e+000
    outer loop
      vertex   -4.596554e+001 1.480067e+002 5.000000e+000
      vertex   -4.611619e+001 1.477271e+002 0.000000e+000
      vertex   -4.596554e+001 1.480067e+002 0.000000e+000
    endloop
  endfacet
  facet normal 9.116192e-001 -4.110357e-001 0.000000e+000
    outer loop
      vertex   -4.596554e+001 1.480067e+002 5.000000e+000
      vertex   -4.596554e+001 1.480067e+002 0.000000e+000
      vertex   -4.583498e+001 1.482963e+002 5.000000e+000
    endloop
  endfacet
  facet normal 5.779367e-002 -2.605832e-002 0.000000e+000
    outer loop
      vertex   -4.583498e+001 1.482963e+002 5.000000e+000
      vertex   -4.596554e+001 1.480067e+002 0.000000e+000
      vertex   -4.583498e+001 1.482963e+002 0.000000e+000
    endloop
  endfacet
  facet normal 9.383488e-001 -3.456898e-001 0.000000e+000
    outer loop
      vertex   -4.583498e+001 1.482963e+002 5.000000e+000
      vertex   -4.583498e+001 1.482963e+002 0.000000e+000
      vertex   -4.572518e+001 1.485943e+002 5.000000e+000
    endloop
  endfacet
  facet normal 5.949007e-002 -2.191627e-002 0.000000e+000
    outer loop
      vertex   -4.572518e+001 1.485943e+002 5.000000e+000
      vertex   -4.583498e+001 1.482963e+002 0.000000e+000
      vertex   -4.572518e+001 1.485943e+002 0.000000e+000
    endloop
  endfacet
  facet normal 9.603891e-001 -2.786623e-001 0.000000e+000
    outer loop
      vertex   -4.572518e+001 1.485943e+002 5.000000e+000
      vertex   -4.572518e+001 1.485943e+002 0.000000e+000
      vertex   -4.563667e+001 1.488994e+002 5.000000e+000
    endloop
  endfacet
  facet normal 6.088497e-002 -1.766611e-002 0.000000e+000
    outer loop
      vertex   -4.563667e+001 1.488994e+002 5.000000e+000
      vertex   -4.572518e+001 1.485943e+002 0.000000e+000
      vertex   -4.563667e+001 1.488994e+002 0.000000e+000
    endloop
  endfacet
  facet normal 9.776563e-001 -2.102098e-001 0.000000e+000
    outer loop
      vertex   -4.563667e+001 1.488994e+002 5.000000e+000
      vertex   -4.563667e+001 1.488994e+002 0.000000e+000
      vertex   -4.556990e+001 1.492099e+002 5.000000e+000
    endloop
  endfacet
  facet normal 6.198139e-002 -1.332687e-002 0.000000e+000
    outer loop
      vertex   -4.556990e+001 1.492099e+002 5.000000e+000
      vertex   -4.563667e+001 1.488994e+002 0.000000e+000
      vertex   -4.556990e+001 1.492099e+002 0.000000e+000
    endloop
  endfacet
  facet normal 9.900485e-001 -1.407269e-001 0.000000e+000
    outer loop
      vertex   -4.556990e+001 1.492099e+002 5.000000e+000
      vertex   -4.556990e+001 1.492099e+002 0.000000e+000
      vertex   -4.552521e+001 1.495244e+002 5.000000e+000
    endloop
  endfacet
  facet normal 6.276412e-002 -8.921380e-003 0.000000e+000
    outer loop
      vertex   -4.552521e+001 1.495244e+002 5.000000e+000
      vertex   -4.556990e+001 1.492099e+002 0.000000e+000
      vertex   -4.552521e+001 1.495244e+002 0.000000e+000
    endloop
  endfacet
  facet normal 9.975093e-001 -7.053521e-002 0.000000e+000
    outer loop
      vertex   -4.552521e+001 1.495244e+002 5.000000e+000
      vertex   -4.552521e+001 1.495244e+002 0.000000e+000
      vertex   -4.550280e+001 1.498412e+002 5.000000e+000
    endloop
  endfacet
  facet normal 6.323923e-002 -4.471730e-003 0.000000e+000
    outer loop
      vertex   -4.550280e+001 1.498412e+002 5.000000e+000
      vertex   -4.552521e+001 1.495244e+002 0.000000e+000
      vertex   -4.550280e+001 1.498412e+002 0.000000e+000
    endloop
  endfacet
  facet normal 1.000000e+000 -0.000000e+000 0.000000e+000
    outer loop
      vertex   -4.550280e+001 1.498412e+002 5.000000e+000
      vertex   -4.550280e+001 1.498412e+002 0.000000e+000
      vertex   -4.550280e+001 1.501588e+002 5.000000e+000
    endloop
  endfacet
  facet normal 6.339760e-002 0.000000e+000 0.000000e+000
    outer loop
      vertex   -4.550280e+001 1.501588e+002 5.000000e+000
      vertex   -4.550280e+001 1.498412e+002 0.000000e+000
      vertex   -4.550280e+001 1.501588e+002 0.000000e+000
    endloop
  endfacet
  facet normal 9.975093e-001 7.053521e-002 0.000000e+000
    outer loop
      vertex   -4.550280e+001 1.501588e+002 5.000000e+000
      vertex   -4.550280e+001 1.501588e+002 0.000000e+000
      vertex   -4.552521e+001 1.504756e+002 5.000000e+000
    endloop
  endfacet
  facet normal 6.323923e-002 4.471730e-003 0.000000e+000
    outer loop
      vertex   -4.552521e+001 1.504756e+002 5.000000e+000
      vertex   -4.550280e+001 1.501588e+002 0.000000e+000
      vertex   -4.552521e+001 1.504756e+002 0.000000e+000
    endloop
  endfacet
  facet normal 9.900485e-001 1.407269e-001 0.000000e+000
    outer loop
      vertex   -4.552521e+001 1.504756e+002 5.000000e+000
      vertex   -4.552521e+001 1.504756e+002 0.000000e+000
      vertex   -4.556990e+001 1.507901e+002 5.000000e+000
    endloop
  endfacet
  facet normal 6.276412e-002 8.921380e-003 0.000000e+000
    outer loop
      vertex   -4.556990e+001 1.507901e+002 5.000000e+000
      vertex   -4.552521e+001 1.504756e+002 0.000000e+000
      vertex   -4.556990e+001 1.507901e+002 0.000000e+000
    endloop
  endfacet
  facet normal 9.776563e-001 2.102098e-001 0.000000e+000
    outer loop
      vertex   -4.556990e+001 1.507901e+002 5.000000e+000
      vertex   -4.556990e+001 1.507901e+002 0.000000e+000
      vertex   -4.563667e+001 1.511006e+002 5.000000e+000
    endloop
  endfacet
  facet normal 6.198139e-002 1.332687e-002 0.000000e+000
    outer loop
      vertex   -4.563667e+001 1.511006e+002 5.000000e+000
      vertex   -4.556990e+001 1.507901e+002 0.000000e+000
      vertex   -4.563667e+001 1.511006e+002 0.000000e+000
    endloop
  endfacet
  facet normal 9.603891e-001 2.786623e-001 0.000000e+000
    outer loop
      vertex   -4.563667e+001 1.511006e+002 5.000000e+000
      vertex   -4.563667e+001 1.511006e+002 0.000000e+000
      vertex   -4.572518e+001 1.514057e+002 5.000000e+000
    endloop
  endfacet
  facet normal 6.088497e-002 1.766611e-002 0.000000e+000
    outer loop
      vertex   -4.572518e+001 1.514057e+002 5.000000e+000
      vertex   -4.563667e+001 1.511006e+002 0.000000e+000
      vertex   -4.572518e+001 1.514057e+002 0.000000e+000
    endloop
  endfacet
  facet normal 9.383488e-001 3.456898e-001 0.000000e+000
    outer loop
      vertex   -4.572518e+001 1.514057e+002 5.000000e+000
      vertex   -4.572518e+001 1.514057e+002 0.000000e+000
      vertex   -4.583498e+001 1.517037e+002 5.000000e+000
    endloop
  endfacet
  facet normal 5.949007e-002 2.191627e-002 0.000000e+000
    outer loop
      vertex   -4.583498e+001 1.517037e+002 5.000000e+000
      vertex   -4.572518e+001 1.514057e+002 0.000000e+000
      vertex   -4.583498e+001 1.517037e+002 0.000000e+000
    endloop
  endfacet
  facet normal 9.116192e-001 4.110357e-001 0.000000e+000
    outer loop
      vertex   -4.583498e+001 1.517037e+002 5.000000e+000
      vertex   -4.583498e+001 1.517037e+002 0.000000e+000
      vertex   -4.596554e+001 1.519933e+002 5.000000e+000
    endloop
  endfacet
  facet normal 5.779367e-002 2.605832e-002 0.000000e+000
    outer loop
      vertex   -4.596554e+001 1.519933e+002 5.000000e+000
      vertex   -4.583498e+001 1.517037e+002 0.000000e+000
      vertex   -4.596554e+001 1.519933e+002 0.000000e+000
    endloop
  endfacet
  facet normal 8.803519e-001 4.743211e-001 0.000000e+000
    outer loop
      vertex   -4.596554e+001 1.519933e+002 5.000000e+000
      vertex   -4.596554e+001 1.519933e+002 0.000000e+000
      vertex   -4.611619e+001 1.522729e+002 5.000000e+000
    endloop
  endfacet
  facet normal 5.581097e-002 3.007016e-002 0.000000e+000
    outer loop
      vertex   -4.611619e+001 1.522729e+002 5.000000e+000
      vertex   -4.596554e+001 1.519933e+002 0.000000e+000
      vertex   -4.611619e+001 1.522729e+002 0.000000e+000
    endloop
  endfacet
  facet normal 8.447083e-001 5.352269e-001 0.000000e+000
    outer loop
      vertex   -4.611619e+001 1.522729e+002 5.000000e+000
      vertex   -4.611619e+001 1.522729e+002 0.000000e+000
      vertex   -4.628619e+001 1.525412e+002 5.000000e+000
    endloop
  endfacet
  facet normal 5.355112e-002 3.393124e-002 0.000000e+000
    outer loop
      vertex   -4.628619e+001 1.525412e+002 5.000000e+000
      vertex   -4.611619e+001 1.522729e+002 0.000000e+000
      vertex   -4.628619e+001 1.525412e+002 0.000000e+000
    endloop
  endfacet
  facet normal 8.048505e-001 5.934776e-001 0.000000e+000
    outer loop
      vertex   -4.628619e+001 1.525412e+002 5.000000e+000
      vertex   -4.628619e+001 1.525412e+002 0.000000e+000
      vertex   -4.647470e+001 1.527968e+002 5.000000e+000
    endloop
  endfacet
  facet normal 5.102629e-002 3.762557e-002 0.000000e+000
    outer loop
      vertex   -4.647470e+001 1.527968e+002 5.000000e+000
      vertex   -4.628619e+001 1.525412e+002 0.000000e+000
      vertex   -4.647470e+001 1.527968e+002 0.000000e+000
    endloop
  endfacet
  facet normal 7.609724e-001 6.487842e-001 0.000000e+000
    outer loop
      vertex   -4.647470e+001 1.527968e+002 5.000000e+000
      vertex   -4.647470e+001 1.527968e+002 0.000000e+000
      vertex   -4.668076e+001 1.530385e+002 5.000000e+000
    endloop
  endfacet
  facet normal 4.824261e-002 4.113032e-002 0.000000e+000
    outer loop
      vertex   -4.668076e+001 1.530385e+002 5.000000e+000
      vertex   -4.647470e+001 1.527968e+002 0.000000e+000
      vertex   -4.668076e+001 1.530385e+002 0.000000e+000
    endloop
  endfacet
  facet normal 7.133126e-001 7.008460e-001 0.000000e+000
    outer loop
      vertex   -4.668076e+001 1.530385e+002 5.000000e+000
      vertex   -4.668076e+001 1.530385e+002 0.000000e+000
      vertex   -4.690337e+001 1.532651e+002 5.000000e+000
    endloop
  endfacet
  facet normal 4.522135e-002 4.443101e-002 0.000000e+000
    outer loop
      vertex   -4.690337e+001 1.532651e+002 5.000000e+000
      vertex   -4.668076e+001 1.530385e+002 0.000000e+000
      vertex   -4.690337e+001 1.532651e+002 0.000000e+000
    endloop
  endfacet
  facet normal 6.621276e-001 7.493912e-001 0.000000e+000
    outer loop
      vertex   -4.690337e+001 1.532651e+002 5.000000e+000
      vertex   -4.690337e+001 1.532651e+002 0.000000e+000
      vertex   -4.714140e+001 1.534754e+002 5.000000e+000
    endloop
  endfacet
  facet normal 4.197776e-002 4.751013e-002 0.000000e+000
    outer loop
      vertex   -4.714140e+001 1.534754e+002 5.000000e+000
      vertex   -4.690337e+001 1.532651e+002 0.000000e+000
      vertex   -4.714140e+001 1.534754e+002 0.000000e+000
    endloop
  endfacet
  facet normal 6.075807e-001 7.942579e-001 0.000000e+000
    outer loop
      vertex   -4.714140e+001 1.534754e+002 5.000000e+000
      vertex   -4.714140e+001 1.534754e+002 0.000000e+000
      vertex   -4.739367e+001 1.536684e+002 5.000000e+000
    endloop
  endfacet
  facet normal 3.851794e-002 5.035246e-002 0.000000e+000
    outer loop
      vertex   -4.739367e+001 1.536684e+002 5.000000e+000
      vertex   -4.714140e+001 1.534754e+002 0.000000e+000
      vertex   -4.739367e+001 1.536684e+002 0.000000e+000
    endloop
  endfacet
  facet normal 5.500576e-001 8.351268e-001 0.000000e+000
    outer loop
      vertex   -4.739367e+001 1.536684e+002 5.000000e+000
      vertex   -4.739367e+001 1.536684e+002 0.000000e+000
      vertex   -4.765892e+001 1.538431e+002 5.000000e+000
    endloop
  endfacet
  facet normal 3.487233e-002 5.294504e-002 0.000000e+000
    outer loop
      vertex   -4.765892e+001 1.538431e+002 5.000000e+000
      vertex   -4.739367e+001 1.536684e+002 0.000000e+000
      vertex   -4.765892e+001 1.538431e+002 0.000000e+000
    endloop
  endfacet
  facet normal 4.897776e-001 8.718474e-001 0.000000e+000
    outer loop
      vertex   -4.765892e+001 1.538431e+002 5.000000e+000
      vertex   -4.765892e+001 1.538431e+002 0.000000e+000
      vertex   -4.793584e+001 1.539987e+002 5.000000e+000
    endloop
  endfacet
  facet normal 3.105009e-002 5.527189e-002 0.000000e+000
    outer loop
      vertex   -4.793584e+001 1.539987e+002 5.000000e+000
      vertex   -4.765892e+001 1.538431e+002 0.000000e+000
      vertex   -4.793584e+001 1.539987e+002 0.000000e+000
    endloop
  endfacet
  facet normal 4.270344e-001 9.042354e-001 0.000000e+000
    outer loop
      vertex   -4.793584e+001 1.539987e+002 5.000000e+000
      vertex   -4.793584e+001 1.539987e+002 0.000000e+000
      vertex   -4.822305e+001 1.541343e+002 5.000000e+000
    endloop
  endfacet
  facet normal 2.707251e-002 5.732540e-002 0.000000e+000
    outer loop
      vertex   -4.822305e+001 1.541343e+002 5.000000e+000
      vertex   -4.793584e+001 1.539987e+002 0.000000e+000
      vertex   -4.822305e+001 1.541343e+002 0.000000e+000
    endloop
  endfacet
  facet normal 3.622243e-001 9.320910e-001 0.000000e+000
    outer loop
      vertex   -4.822305e+001 1.541343e+002 5.000000e+000
      vertex   -4.822305e+001 1.541343e+002 0.000000e+000
      vertex   -4.851910e+001 1.542493e+002 5.000000e+000
    endloop
  endfacet
  facet normal 2.296397e-002 5.909186e-002 0.000000e+000
    outer loop
      vertex   -4.851910e+001 1.542493e+002 5.000000e+000
      vertex   -4.822305e+001 1.541343e+002 0.000000e+000
      vertex   -4.851910e+001 1.542493e+002 0.000000e+000
    endloop
  endfacet
  facet normal 2.955472e-001 9.553281e-001 0.000000e+000
    outer loop
      vertex   -4.851910e+001 1.542493e+002 5.000000e+000
      vertex   -4.851910e+001 1.542493e+002 0.000000e+000
      vertex   -4.882253e+001 1.543432e+002 5.000000e+000
    endloop
  endfacet
  facet normal 1.873665e-002 6.056442e-002 0.000000e+000
    outer loop
      vertex   -4.882253e+001 1.543432e+002 5.000000e+000
      vertex   -4.851910e+001 1.542493e+002 0.000000e+000
      vertex   -4.882253e+001 1.543432e+002 0.000000e+000
    endloop
  endfacet
  facet normal 2.274699e-001 9.737851e-001 0.000000e+000
    outer loop
      vertex   -4.882253e+001 1.543432e+002 5.000000e+000
      vertex   -4.882253e+001 1.543432e+002 0.000000e+000
      vertex   -4.913183e+001 1.544155e+002 5.000000e+000
    endloop
  endfacet
  facet normal 1.442100e-002 6.173545e-002 0.000000e+000
    outer loop
      vertex   -4.913183e+001 1.544155e+002 5.000000e+000
      vertex   -4.882253e+001 1.543432e+002 0.000000e+000
      vertex   -4.913183e+001 1.544155e+002 0.000000e+000
    endloop
  endfacet
  facet normal 1.581498e-001 9.874151e-001 0.000000e+000
    outer loop
      vertex   -4.913183e+001 1.544155e+002 5.000000e+000
      vertex   -4.913183e+001 1.544155e+002 0.000000e+000
      vertex   -4.944546e+001 1.544657e+002 5.000000e+000
    endloop
  endfacet
  facet normal 1.002618e-002 6.259889e-002 0.000000e+000
    outer loop
      vertex   -4.944546e+001 1.544657e+002 5.000000e+000
      vertex   -4.913183e+001 1.544155e+002 0.000000e+000
      vertex   -4.944546e+001 1.544657e+002 0.000000e+000
    endloop
  endfacet
  facet normal 8.815423e-002 9.961069e-001 0.000000e+000
    outer loop
      vertex   -4.944546e+001 1.544657e+002 5.000000e+000
      vertex   -4.944546e+001 1.544657e+002 0.000000e+000
      vertex   -4.976184e+001 1.544937e+002 5.000000e+000
    endloop
  endfacet
  facet normal 5.588711e-003 6.315015e-002 0.000000e+000
    outer loop
      vertex   -4.976184e+001 1.544937e+002 5.000000e+000
      vertex   -4.944546e+001 1.544657e+002 0.000000e+000
      vertex   -4.976184e+001 1.544937e+002 0.000000e+000
    endloop
  endfacet
  facet normal 1.763089e-002 9.998446e-001 0.000000e+000
    outer loop
      vertex   -4.976184e+001 1.544937e+002 5.000000e+000
      vertex   -4.976184e+001 1.544937e+002 0.000000e+000
      vertex   -5.007942e+001 1.544993e+002 5.000000e+000
    endloop
  endfacet
  facet normal 1.117742e-003 6.338695e-002 0.000000e+000
    outer loop
      vertex   -5.007942e+001 1.544993e+002 5.000000e+000
      vertex   -4.976184e+001 1.544937e+002 0.000000e+000
      vertex   -5.007942e+001 1.544993e+002 0.000000e+000
    endloop
  endfacet
  facet normal -5.294083e-002 9.985976e-001 0.000000e+000
    outer loop
      vertex   -5.007942e+001 1.544993e+002 5.000000e+000
      vertex   -5.007942e+001 1.544993e+002 0.000000e+000
      vertex   -5.039660e+001 1.544825e+002 5.000000e+000
    endloop
  endfacet
  facet normal -3.356272e-003 6.330775e-002 0.000000e+000
    outer loop
      vertex   -5.039660e+001 1.544825e+002 5.000000e+000
      vertex   -5.007942e+001 1.544993e+002 0.000000e+000
      vertex   -5.039660e+001 1.544825e+002 0.000000e+000
    endloop
  endfacet
  facet normal -1.232232e-001 9.923790e-001 0.000000e+000
    outer loop
      vertex   -5.039660e+001 1.544825e+002 5.000000e+000
      vertex   -5.039660e+001 1.544825e+002 0.000000e+000
      vertex   -5.071180e+001 1.544433e+002 5.000000e+000
    endloop
  endfacet
  facet normal -7.812012e-003 6.291411e-002 0.000000e+000
    outer loop
      vertex   -5.071180e+001 1.544433e+002 5.000000e+000
      vertex   -5.039660e+001 1.544825e+002 0.000000e+000
      vertex   -5.071180e+001 1.544433e+002 0.000000e+000
    endloop
  endfacet
  facet normal -1.929324e-001 9.812121e-001 0.000000e+000
    outer loop
      vertex   -5.071180e+001 1.544433e+002 5.000000e+000
      vertex   -5.071180e+001 1.544433e+002 0.000000e+000
      vertex   -5.102345e+001 1.543821e+002 5.000000e+000
    endloop
  endfacet
  facet normal -1.223121e-002 6.220524e-002 0.000000e+000
    outer loop
      vertex   -5.102345e+001 1.543821e+002 5.000000e+000
      vertex   -5.071180e+001 1.544433e+002 0.000000e+000
      vertex   -5.102345e+001 1.543821e+002 0.000000e+000
    endloop
  endfacet
  facet normal -2.616283e-001 9.651687e-001 0.000000e+000
    outer loop
      vertex   -5.102345e+001 1.543821e+002 5.000000e+000
      vertex   -5.102345e+001 1.543821e+002 0.000000e+000
      vertex   -5.133001e+001 1.542990e+002 5.000000e+000
    endloop
  endfacet
  facet normal -1.658644e-002 6.118877e-002 0.000000e+000
    outer loop
      vertex   -5.133001e+001 1.542990e+002 5.000000e+000
      vertex   -5.102345e+001 1.543821e+002 0.000000e+000
      vertex   -5.133001e+001 1.542990e+002 0.000000e+000
    endloop
  endfacet
  facet normal -3.291224e-001 9.442872e-001 0.000000e+000
    outer loop
      vertex   -5.133001e+001 1.542990e+002 5.000000e+000
      vertex   -5.133001e+001 1.542990e+002 0.000000e+000
      vertex   -5.162994e+001 1.541944e+002 5.000000e+000
    endloop
  endfacet
  facet normal -2.086553e-002 5.986544e-002 0.000000e+000
    outer loop
      vertex   -5.162994e+001 1.541944e+002 5.000000e+000
      vertex   -5.133001e+001 1.542990e+002 0.000000e+000
      vertex   -5.162994e+001 1.541944e+002 0.000000e+000
    endloop
  endfacet
  facet normal -3.948526e-001 9.187445e-001 0.000000e+000
    outer loop
      vertex   -5.162994e+001 1.541944e+002 5.000000e+000
      vertex   -5.162994e+001 1.541944e+002 0.000000e+000
      vertex   -5.192175e+001 1.540690e+002 5.000000e+000
    endloop
  endfacet
  facet normal -2.503194e-002 5.824442e-002 0.000000e+000
    outer loop
      vertex   -5.192175e+001 1.540690e+002 5.000000e+000
      vertex   -5.162994e+001 1.541944e+002 0.000000e+000
      vertex   -5.192175e+001 1.540690e+002 0.000000e+000
    endloop
  endfacet
  facet normal -4.586919e-001 8.885954e-001 0.000000e+000
    outer loop
      vertex   -5.192175e+001 1.540690e+002 5.000000e+000
      vertex   -5.192175e+001 1.540690e+002 0.000000e+000
      vertex   -5.220399e+001 1.539233e+002 5.000000e+000
    endloop
  endfacet
  facet normal -2.907957e-002 5.633405e-002 0.000000e+000
    outer loop
      vertex   -5.220399e+001 1.539233e+002 5.000000e+000
      vertex   -5.192175e+001 1.540690e+002 0.000000e+000
      vertex   -5.220399e+001 1.539233e+002 0.000000e+000
    endloop
  endfacet
  facet normal -5.202700e-001 8.540018e-001 0.000000e+000
    outer loop
      vertex   -5.220399e+001 1.539233e+002 5.000000e+000
      vertex   -5.220399e+001 1.539233e+002 0.000000e+000
      vertex   -5.247525e+001 1.537581e+002 5.000000e+000
    endloop
  endfacet
  facet normal -3.298405e-002 5.414196e-002 0.000000e+000
    outer loop
      vertex   -5.247525e+001 1.537581e+002 5.000000e+000
      vertex   -5.220399e+001 1.539233e+002 0.000000e+000
      vertex   -5.247525e+001 1.537581e+002 0.000000e+000
    endloop
  endfacet
  facet normal -5.791777e-001 8.152013e-001 0.000000e+000
    outer loop
      vertex   -5.247525e+001 1.537581e+002 5.000000e+000
      vertex   -5.247525e+001 1.537581e+002 0.000000e+000
      vertex   -5.273417e+001 1.535741e+002 5.000000e+000
    endloop
  endfacet
  facet normal -3.671798e-002 5.168111e-002 0.000000e+000
    outer loop
      vertex   -5.273417e+001 1.535741e+002 5.000000e+000
      vertex   -5.247525e+001 1.537581e+002 0.000000e+000
      vertex   -5.273417e+001 1.535741e+002 0.000000e+000
    endloop
  endfacet
  facet normal -6.352416e-001 7.723135e-001 0.000000e+000
    outer loop
      vertex   -5.273417e+001 1.535741e+002 5.000000e+000
      vertex   -5.273417e+001 1.535741e+002 0.000000e+000
      vertex   -5.297948e+001 1.533723e+002 5.000000e+000
    endloop
  endfacet
  facet normal -4.027222e-002 4.896213e-002 0.000000e+000
    outer loop
      vertex   -5.297948e+001 1.533723e+002 5.000000e+000
      vertex   -5.273417e+001 1.535741e+002 0.000000e+000
      vertex   -5.297948e+001 1.533723e+002 0.000000e+000
    endloop
  endfacet
  facet normal -6.881350e-001 7.255827e-001 0.000000e+000
    outer loop
      vertex   -5.297948e+001 1.533723e+002 5.000000e+000
      vertex   -5.297948e+001 1.533723e+002 0.000000e+000
      vertex   -5.320994e+001 1.531538e+002 5.000000e+000
    endloop
  endfacet
  facet normal -4.362544e-002 4.599950e-002 0.000000e+000
    outer loop
      vertex   -5.320994e+001 1.531538e+002 5.000000e+000
      vertex   -5.297948e+001 1.533723e+002 0.000000e+000
      vertex   -5.320994e+001 1.531538e+002 0.000000e+000
    endloop
  endfacet
  facet normal -7.376146e-001 6.752219e-001 0.000000e+000
    outer loop
      vertex   -5.320994e+001 1.531538e+002 5.000000e+000
      vertex   -5.320994e+001 1.531538e+002 0.000000e+000
      vertex   -5.342440e+001 1.529195e+002 5.000000e+000
    endloop
  endfacet
  facet normal -4.676243e-002 4.280693e-002 0.000000e+000
    outer loop
      vertex   -5.342440e+001 1.529195e+002 5.000000e+000
      vertex   -5.320994e+001 1.531538e+002 0.000000e+000
      vertex   -5.342440e+001 1.529195e+002 0.000000e+000
    endloop
  endfacet
  facet normal -7.834015e-001 6.215160e-001 0.000000e+000
    outer loop
      vertex   -5.342440e+001 1.529195e+002 5.000000e+000
      vertex   -5.342440e+001 1.529195e+002 0.000000e+000
      vertex   -5.362181e+001 1.526707e+002 5.000000e+000
    endloop
  endfacet
  facet normal -4.966491e-002 3.940193e-002 0.000000e+000
    outer loop
      vertex   -5.362181e+001 1.526707e+002 5.000000e+000
      vertex   -5.342440e+001 1.529195e+002 0.000000e+000
      vertex   -5.362181e+001 1.526707e+002 0.000000e+000
    endloop
  endfacet
  facet normal -8.252860e-001 5.647149e-001 0.000000e+000
    outer loop
      vertex   -5.362181e+001 1.526707e+002 5.000000e+000
      vertex   -5.362181e+001 1.526707e+002 0.000000e+000
      vertex   -5.380118e+001 1.524085e+002 5.000000e+000
    endloop
  endfacet
  facet normal -5.232069e-002 3.580125e-002 0.000000e+000
    outer loop
      vertex   -5.380118e+001 1.524085e+002 5.000000e+000
      vertex   -5.362181e+001 1.526707e+002 0.000000e+000
      vertex   -5.380118e+001 1.524085e+002 0.000000e+000
    endloop
  endfacet
  facet normal -8.630759e-001 5.050743e-001 0.000000e+000
    outer loop
      vertex   -5.380118e+001 1.524085e+002 5.000000e+000
      vertex   -5.380118e+001 1.524085e+002 0.000000e+000
      vertex   -5.396161e+001 1.521344e+002 5.000000e+000
    endloop
  endfacet
  facet normal -5.471759e-002 3.202087e-002 0.000000e+000
    outer loop
      vertex   -5.396161e+001 1.521344e+002 5.000000e+000
      vertex   -5.380118e+001 1.524085e+002 0.000000e+000
      vertex   -5.396161e+001 1.521344e+002 0.000000e+000
    endloop
  endfacet
  facet normal -8.965453e-001 4.429521e-001 0.000000e+000
    outer loop
      vertex   -5.396161e+001 1.521344e+002 5.000000e+000
      vertex   -5.396161e+001 1.521344e+002 0.000000e+000
      vertex   -5.410229e+001 1.518496e+002 5.000000e+000
    endloop
  endfacet
  facet normal -5.683734e-002 2.808137e-002 0.000000e+000
    outer loop
      vertex   -5.410229e+001 1.518496e+002 5.000000e+000
      vertex   -5.396161e+001 1.521344e+002 0.000000e+000
      vertex   -5.410229e+001 1.518496e+002 0.000000e+000
    endloop
  endfacet
  facet normal -9.255561e-001 3.786104e-001 0.000000e+000
    outer loop
      vertex   -5.410229e+001 1.518496e+002 5.000000e+000
      vertex   -5.410229e+001 1.518496e+002 0.000000e+000
      vertex   -5.422255e+001 1.515557e+002 5.000000e+000
    endloop
  endfacet
  facet normal -5.867689e-002 2.400252e-002 0.000000e+000
    outer loop
      vertex   -5.422255e+001 1.515557e+002 5.000000e+000
      vertex   -5.410229e+001 1.518496e+002 0.000000e+000
      vertex   -5.422255e+001 1.515557e+002 0.000000e+000
    endloop
  endfacet
  facet normal -9.499594e-001 3.123735e-001 0.000000e+000
    outer loop
      vertex   -5.422255e+001 1.515557e+002 5.000000e+000
      vertex   -5.422255e+001 1.515557e+002 0.000000e+000
      vertex   -5.432177e+001 1.512539e+002 5.000000e+000
    endloop
  endfacet
  facet normal -6.022407e-002 1.980338e-002 0.000000e+000
    outer loop
      vertex   -5.432177e+001 1.512539e+002 5.000000e+000
      vertex   -5.422255e+001 1.515557e+002 0.000000e+000
      vertex   -5.432177e+001 1.512539e+002 0.000000e+000
    endloop
  endfacet
  facet normal -9.696289e-001 2.445810e-001 0.000000e+000
    outer loop
      vertex   -5.432177e+001 1.512539e+002 5.000000e+000
      vertex   -5.432177e+001 1.512539e+002 0.000000e+000
      vertex   -5.439945e+001 1.509460e+002 5.000000e+000
    endloop
  endfacet
  facet normal -6.147277e-002 1.550601e-002 0.000000e+000
    outer loop
      vertex   -5.439945e+001 1.509460e+002 5.000000e+000
      vertex   -5.432177e+001 1.512539e+002 0.000000e+000
      vertex   -5.439945e+001 1.509460e+002 0.000000e+000
    endloop
  endfacet
  facet normal -9.844652e-001 1.755795e-001 0.000000e+000
    outer loop
      vertex   -5.439945e+001 1.509460e+002 5.000000e+000
      vertex   -5.439945e+001 1.509460e+002 0.000000e+000
      vertex   -5.445522e+001 1.506333e+002 5.000000e+000
    endloop
  endfacet
  facet normal -6.241083e-002 1.113098e-002 0.000000e+000
    outer loop
      vertex   -5.445522e+001 1.506333e+002 5.000000e+000
      vertex   -5.439945e+001 1.509460e+002 0.000000e+000
      vertex   -5.445522e+001 1.506333e+002 0.000000e+000
    endloop
  endfacet
  facet normal -9.943979e-001 1.057019e-001 0.000000e+000
    outer loop
      vertex   -5.445522e+001 1.506333e+002 5.000000e+000
      vertex   -5.445522e+001 1.506333e+002 0.000000e+000
      vertex   -5.448879e+001 1.503174e+002 5.000000e+000
    endloop
  endfacet
  facet normal -6.304127e-002 6.701123e-003 0.000000e+000
    outer loop
      vertex   -5.448879e+001 1.503174e+002 5.000000e+000
      vertex   -5.445522e+001 1.506333e+002 0.000000e+000
      vertex   -5.448879e+001 1.503174e+002 0.000000e+000
    endloop
  endfacet
  facet normal 0.000000e+000 -0.000000e+000 9.998444e-001
    outer loop
      vertex   -5.448879e+001 1.496826e+002 5.000000e+000
      vertex   -4.550280e+001 1.498412e+002 5.000000e+000
      vertex   -5.450000e+001 1.500000e+002 5.000000e+000
    endloop
  endfacet
  facet normal -0.000000e+000 0.000000e+000 3.529188e-002
    outer loop
      vertex   -5.450000e+001 1.500000e+002 5.000000e+000
      vertex   -4.550280e+001 1.498412e+002 5.000000e+000
      vertex   -4.550280e+001 1.501588e+002 5.000000e+000
    endloop
  endfacet
  facet normal 0.000000e+000 0.000000e+000 9.985989e-001
    outer loop
      vertex   -5.450000e+001 1.500000e+002 5.000000e+000
      vertex   -4.550280e+001 1.501588e+002 5.000000e+000
      vertex   -5.448879e+001 1.503174e+002 5.000000e+000
    endloop
  endfacet
  facet normal -0.000000e+000 0.000000e+000 3.529162e-002
    outer loop
      vertex   -5.448879e+001 1.503174e+002 5.000000e+000
      vertex   -4.550280e+001 1.501588e+002 5.000000e+000
      vertex   -4.552521e+001 1.504756e+002 5.000000e+000
    endloop
  endfacet
  facet normal 0.000000e+000 0.000000e+000 9.923775e-001
    outer loop
      vertex   -5.448879e+001 1.503174e+002 5.000000e+000
      vertex   -4.552521e+001 1.504756e+002 5.000000e+000
      vertex   -5.445522e+001 1.506333e+002 5.000000e+000
    endloop
  endfacet
  facet normal -0.000000e+000 0.000000e+000 3.529042e-002
    outer loop
      vertex   -5.445522e+001 1.506333e+002 5.000000e+000
      vertex   -4.552521e+001 1.504756e+002 5.000000e+000
      vertex   -4.556990e+001 1.507901e+002 5.000000e+000
    endloop
  endfacet
  facet normal 0.000000e+000 0.000000e+000 9.812134e-001
    outer loop
      vertex   -5.445522e+001 1.506333e+002 5.000000e+000
      vertex   -4.556990e+001 1.507901e+002 5.000000e+000
      vertex   -5.439945e+001 1.509460e+002 5.000000e+000
    endloop
  endfacet
  facet normal -0.000000e+000 0.000000e+000 3.529208e-002
    outer loop
      vertex   -5.439945e+001 1.509460e+002 5.000000e+000
      vertex   -4.556990e+001 1.507901e+002 5.000000e+000
      vertex   -4.563667e+001 1.511006e+002 5.000000e+000
    endloop
  endfacet
  facet normal 0.000000e+000 0.000000e+000 9.651612e-001
    outer loop
      vertex   -5.439945e+001 1.509460e+002 5.000000e+000
      vertex   -4.563667e+001 1.511006e+002 5.000000e+000
      vertex   -5.432177e+001 1.512539e+002 5.000000e+000
    endloop
  endfacet
  facet normal -0.000000e+000 0.000000e+000 3.529095e-002
    outer loop
      vertex   -5.432177e+001 1.512539e+002 5.000000e+000
      vertex   -4.563667e+001 1.511006e+002 5.000000e+000
      vertex   -4.572518e+001 1.514057e+002 5.000000e+000
    endloop
  endfacet
  facet normal 0.000000e+000 0.000000e+000 9.442987e-001
    outer loop
      vertex   -5.432177e+001 1.512539e+002 5.000000e+000
      vertex   -4.572518e+001 1.514057e+002 5.000000e+000
      vertex   -5.422255e+001 1.515557e+002 5.000000e+000
    endloop
  endfacet
  facet normal -0.000000e+000 0.000000e+000 3.529266e-002
    outer loop
      vertex   -5.422255e+001 1.515557e+002 5.000000e+000
      vertex   -4.572518e+001 1.514057e+002 5.000000e+000
      vertex   -4.583498e+001 1.517037e+002 5.000000e+000
    endloop
  endfacet
  facet normal 0.000000e+000 0.000000e+000 9.187298e-001
    outer loop
      vertex   -5.422255e+001 1.515557e+002 5.000000e+000
      vertex   -4.583498e+001 1.517037e+002 5.000000e+000
      vertex   -5.410229e+001 1.518496e+002 5.000000e+000
    endloop
  endfacet
  facet normal -0.000000e+000 0.000000e+000 3.529133e-002
    outer loop
      vertex   -5.410229e+001 1.518496e+002 5.000000e+000
      vertex   -4.583498e+001 1.517037e+002 5.000000e+000
      vertex   -4.596554e+001 1.519933e+002 5.000000e+000
    endloop
  endfacet
  facet normal 0.000000e+000 0.000000e+000 8.885878e-001
    outer loop
      vertex   -5.410229e+001 1.518496e+002 5.000000e+000
      vertex   -4.596554e+001 1.519933e+002 5.000000e+000
      vertex   -5.396161e+001 1.521344e+002 5.000000e+000
    endloop
  endfacet
  facet normal -0.000000e+000 0.000000e+000 3.529095e-002
    outer loop
      vertex   -5.396161e+001 1.521344e+002 5.000000e+000
      vertex   -4.596554e+001 1.519933e+002 5.000000e+000
      vertex   -4.611619e+001 1.522729e+002 5.000000e+000
    endloop
  endfacet
  facet normal 0.000000e+000 0.000000e+000 8.540272e-001
    outer loop
      vertex   -5.396161e+001 1.521344e+002 5.000000e+000
      vertex   -4.611619e+001 1.522729e+002 5.000000e+000
      vertex   -5.380118e+001 1.524085e+002 5.000000e+000
    endloop
  endfacet
  facet normal -0.000000e+000 0.000000e+000 3.529107e-002
    outer loop
      vertex   -5.380118e+001 1.524085e+002 5.000000e+000
      vertex   -4.611619e+001 1.522729e+002 5.000000e+000
      vertex   -4.628619e+001 1.525412e+002 5.000000e+000
    endloop
  endfacet
  facet normal 0.000000e+000 0.000000e+000 8.151914e-001
    outer loop
      vertex   -5.380118e+001 1.524085e+002 5.000000e+000
      vertex   -4.628619e+001 1.525412e+002 5.000000e+000
      vertex   -5.362181e+001 1.526707e+002 5.000000e+000
    endloop
  endfacet
  facet normal -0.000000e+000 0.000000e+000 3.529252e-002
    outer loop
      vertex   -5.362181e+001 1.526707e+002 5.000000e+000
      vertex   -4.628619e+001 1.525412e+002 5.000000e+000
      vertex   -4.647470e+001 1.527968e+002 5.000000e+000
    endloop
  endfacet
  facet normal 0.000000e+000 0.000000e+000 7.723103e-001
    outer loop
      vertex   -5.362181e+001 1.526707e+002 5.000000e+000
      vertex   -4.647470e+001 1.527968e+002 5.000000e+000
      vertex   -5.342440e+001 1.529195e+002 5.000000e+000
    endloop
  endfacet
  facet normal -0.000000e+000 0.000000e+000 3.529071e-002
    outer loop
      vertex   -5.342440e+001 1.529195e+002 5.000000e+000
      vertex   -4.647470e+001 1.527968e+002 5.000000e+000
      vertex   -4.668076e+001 1.530385e+002 5.000000e+000
    endloop
  endfacet
  facet normal 0.000000e+000 0.000000e+000 7.255831e-001
    outer loop
      vertex   -5.342440e+001 1.529195e+002 5.000000e+000
      vertex   -4.668076e+001 1.530385e+002 5.000000e+000
      vertex   -5.320994e+001 1.531538e+002 5.000000e+000
    endloop
  endfacet
  facet normal -0.000000e+000 0.000000e+000 3.529079e-002
    outer loop
      vertex   -5.320994e+001 1.531538e+002 5.000000e+000
      vertex   -4.668076e+001 1.530385e+002 5.000000e+000
      vertex   -4.690337e+001 1.532651e+002 5.000000e+000
    endloop
  endfacet
  facet normal 0.000000e+000 0.000000e+000 6.752231e-001
    outer loop
      vertex   -5.320994e+001 1.531538e+002 5.000000e+000
      vertex   -4.690337e+001 1.532651e+002 5.000000e+000
      vertex   -5.297948e+001 1.533723e+002 5.000000e+000
    endloop
  endfacet
  facet normal -0.000000e+000 0.000000e+000 3.529345e-002
    outer loop
      vertex   -5.297948e+001 1.533723e+002 5.000000e+000
      vertex   -4.690337e+001 1.532651e+002 5.000000e+000
      vertex   -4.714140e+001 1.534754e+002 5.000000e+000
    endloop
  endfacet
  facet normal 0.000000e+000 0.000000e+000 6.215113e-001
    outer loop
      vertex   -5.297948e+001 1.533723e+002 5.000000e+000
      vertex   -4.714140e+001 1.534754e+002 5.000000e+000
      vertex   -5.273417e+001 1.535741e+002 5.000000e+000
    endloop
  endfacet
  facet normal -0.000000e+000 0.000000e+000 3.529005e-002
    outer loop
      vertex   -5.273417e+001 1.535741e+002 5.000000e+000
      vertex   -4.714140e+001 1.534754e+002 5.000000e+000
      vertex   -4.739367e+001 1.536684e+002 5.000000e+000
    endloop
  endfacet
  facet normal 0.000000e+000 0.000000e+000 5.647001e-001
    outer loop
      vertex   -5.273417e+001 1.535741e+002 5.000000e+000
      vertex   -4.739367e+001 1.536684e+002 5.000000e+000
      vertex   -5.247525e+001 1.537581e+002 5.000000e+000
    endloop
  endfacet
  facet normal -0.000000e+000 0.000000e+000 3.529213e-002
    outer loop
      vertex   -5.247525e+001 1.537581e+002 5.000000e+000
      vertex   -4.739367e+001 1.536684e+002 5.000000e+000
      vertex   -4.765892e+001 1.538431e+002 5.000000e+000
    endloop
  endfacet
  facet normal 0.000000e+000 0.000000e+000 5.051157e-001
    outer loop
      vertex   -5.247525e+001 1.537581e+002 5.000000e+000
      vertex   -4.765892e+001 1.538431e+002 5.000000e+000
      vertex   -5.220399e+001 1.539233e+002 5.000000e+000
    endloop
  endfacet
  facet normal -0.000000e+000 0.000000e+000 3.529122e-002
    outer loop
      vertex   -5.220399e+001 1.539233e+002 5.000000e+000
      vertex   -4.765892e+001 1.538431e+002 5.000000e+000
      vertex   -4.793584e+001 1.539987e+002 5.000000e+000
    endloop
  endfacet
  facet normal 0.000000e+000 0.000000e+000 4.429392e-001
    outer loop
      vertex   -5.220399e+001 1.539233e+002 5.000000e+000
      vertex   -4.793584e+001 1.539987e+002 5.000000e+000
      vertex   -5.192175e+001 1.540690e+002 5.000000e+000
    endloop
  endfacet
  facet normal -0.000000e+000 0.000000e+000 3.528937e-002
    outer loop
      vertex   -5.192175e+001 1.540690e+002 5.000000e+000
      vertex   -4.793584e+001 1.539987e+002 5.000000e+000
      vertex   -4.822305e+001 1.541343e+002 5.000000e+000
    endloop
  endfacet
  facet normal 0.000000e+000 0.000000e+000 3.785791e-001
    outer loop
      vertex   -5.192175e+001 1.540690e+002 5.000000e+000
      vertex   -4.822305e+001 1.541343e+002 5.000000e+000
      vertex   -5.162994e+001 1.541944e+002 5.000000e+000
    endloop
  endfacet
  facet normal -0.000000e+000 0.000000e+000 3.529313e-002
    outer loop
      vertex   -5.162994e+001 1.541944e+002 5.000000e+000
      vertex   -4.822305e+001 1.541343e+002 5.000000e+000
      vertex   -4.851910e+001 1.542493e+002 5.000000e+000
    endloop
  endfacet
  facet normal 0.000000e+000 0.000000e+000 3.124040e-001
    outer loop
      vertex   -5.162994e+001 1.541944e+002 5.000000e+000
      vertex   -4.851910e+001 1.542493e+002 5.000000e+000
      vertex   -5.133001e+001 1.542990e+002 5.000000e+000
    endloop
  endfacet
  facet normal -0.000000e+000 0.000000e+000 3.528959e-002
    outer loop
      vertex   -5.133001e+001 1.542990e+002 5.000000e+000
      vertex   -4.851910e+001 1.542493e+002 5.000000e+000
      vertex   -4.882253e+001 1.543432e+002 5.000000e+000
    endloop
  endfacet
  facet normal 0.000000e+000 0.000000e+000 2.445575e-001
    outer loop
      vertex   -5.133001e+001 1.542990e+002 5.000000e+000
      vertex   -4.882253e+001 1.543432e+002 5.000000e+000
      vertex   -5.102345e+001 1.543821e+002 5.000000e+000
    endloop
  endfacet
  facet normal -0.000000e+000 0.000000e+000 3.529780e-002
    outer loop
      vertex   -5.102345e+001 1.543821e+002 5.000000e+000
      vertex   -4.882253e+001 1.543432e+002 5.000000e+000
      vertex   -4.913183e+001 1.544155e+002 5.000000e+000
    endloop
  endfacet
  facet normal 0.000000e+000 0.000000e+000 1.755792e-001
    outer loop
      vertex   -5.102345e+001 1.543821e+002 5.000000e+000
      vertex   -4.913183e+001 1.544155e+002 5.000000e+000
      vertex   -5.071180e+001 1.544433e+002 5.000000e+000
    endloop
  endfacet
  facet normal -0.000000e+000 0.000000e+000 3.528607e-002
    outer loop
      vertex   -5.071180e+001 1.544433e+002 5.000000e+000
      vertex   -4.913183e+001 1.544155e+002 5.000000e+000
      vertex   -4.944546e+001 1.544657e+002 5.000000e+000
    endloop
  endfacet
  facet normal 0.000000e+000 0.000000e+000 1.056887e-001
    outer loop
      vertex   -5.071180e+001 1.544433e+002 5.000000e+000
      vertex   -4.944546e+001 1.544657e+002 5.000000e+000
      vertex   -5.039660e+001 1.544825e+002 5.000000e+000
    endloop
  endfacet
  facet normal -0.000000e+000 0.000000e+000 3.530463e-002
    outer loop
      vertex   -5.039660e+001 1.544825e+002 5.000000e+000
      vertex   -4.944546e+001 1.544657e+002 5.000000e+000
      vertex   -4.976184e+001 1.544937e+002 5.000000e+000
    endloop
  endfacet
  facet normal 0.000000e+000 0.000000e+000 3.529141e-002
    outer loop
      vertex   -5.039660e+001 1.544825e+002 5.000000e+000
      vertex   -4.976184e+001 1.544937e+002 5.000000e+000
      vertex   -5.007942e+001 1.544993e+002 5.000000e+000
    endloop
  endfacet
  facet normal 0.000000e+000 0.000000e+000 9.961091e-001
    outer loop
      vertex   -4.550280e+001 1.498412e+002 5.000000e+000
      vertex   -5.448879e+001 1.496826e+002 5.000000e+000
      vertex   -4.552521e+001 1.495244e+002 5.000000e+000
    endloop
  endfacet
  facet normal 0.000000e+000 0.000000e+000 3.529121e-002
    outer loop
      vertex   -4.552521e+001 1.495244e+002 5.000000e+000
      vertex   -5.448879e+001 1.496826e+002 5.000000e+000
      vertex   -5.445522e+001 1.493667e+002 5.000000e+000
    endloop
  endfacet
  facet normal 0.000000e+000 0.000000e+000 9.874107e-001
    outer loop
      vertex   -4.552521e+001 1.495244e+002 5.000000e+000
      vertex   -5.445522e+001 1.493667e+002 5.000000e+000
      vertex   -4.556990e+001 1.492099e+002 5.000000e+000
    endloop
  endfacet
  facet normal 0.000000e+000 0.000000e+000 3.529079e-002
    outer loop
      vertex   -4.556990e+001 1.492099e+002 5.000000e+000
      vertex   -5.445522e+001 1.493667e+002 5.000000e+000
      vertex   -5.439945e+001 1.490540e+002 5.000000e+000
    endloop
  endfacet
  facet normal 0.000000e+000 0.000000e+000 9.737941e-001
    outer loop
      vertex   -4.556990e+001 1.492099e+002 5.000000e+000
      vertex   -5.439945e+001 1.490540e+002 5.000000e+000
      vertex   -4.563667e+001 1.488994e+002 5.000000e+000
    endloop
  endfacet
  facet normal 0.000000e+000 0.000000e+000 3.529226e-002
    outer loop
      vertex   -4.563667e+001 1.488994e+002 5.000000e+000
      vertex   -5.439945e+001 1.490540e+002 5.000000e+000
      vertex   -5.432177e+001 1.487461e+002 5.000000e+000
    endloop
  endfacet
  facet normal 0.000000e+000 0.000000e+000 9.553216e-001
    outer loop
      vertex   -4.563667e+001 1.488994e+002 5.000000e+000
      vertex   -5.432177e+001 1.487461e+002 5.000000e+000
      vertex   -4.572518e+001 1.485943e+002 5.000000e+000
    endloop
  endfacet
  facet normal 0.000000e+000 0.000000e+000 3.529124e-002
    outer loop
      vertex   -4.572518e+001 1.485943e+002 5.000000e+000
      vertex   -5.432177e+001 1.487461e+002 5.000000e+000
      vertex   -5.422255e+001 1.484443e+002 5.000000e+000
    endloop
  endfacet
  facet normal 0.000000e+000 0.000000e+000 9.321016e-001
    outer loop
      vertex   -4.572518e+001 1.485943e+002 5.000000e+000
      vertex   -5.422255e+001 1.484443e+002 5.000000e+000
      vertex   -4.583498e+001 1.482963e+002 5.000000e+000
    endloop
  endfacet
  facet normal 0.000000e+000 0.000000e+000 3.529106e-002
    outer loop
      vertex   -4.583498e+001 1.482963e+002 5.000000e+000
      vertex   -5.422255e+001 1.484443e+002 5.000000e+000
      vertex   -5.410229e+001 1.481504e+002 5.000000e+000
    endloop
  endfacet
  facet normal 0.000000e+000 0.000000e+000 9.042235e-001
    outer loop
      vertex   -4.583498e+001 1.482963e+002 5.000000e+000
      vertex   -5.410229e+001 1.481504e+002 5.000000e+000
      vertex   -4.596554e+001 1.480067e+002 5.000000e+000
    endloop
  endfacet
  facet normal 0.000000e+000 0.000000e+000 3.529087e-002
    outer loop
      vertex   -4.596554e+001 1.480067e+002 5.000000e+000
      vertex   -5.410229e+001 1.481504e+002 5.000000e+000
      vertex   -5.396161e+001 1.478656e+002 5.000000e+000
    endloop
  endfacet
  facet normal 0.000000e+000 0.000000e+000 8.718445e-001
    outer loop
      vertex   -4.596554e+001 1.480067e+002 5.000000e+000
      vertex   -5.396161e+001 1.478656e+002 5.000000e+000
      vertex   -4.611619e+001 1.477271e+002 5.000000e+000
    endloop
  endfacet
  facet normal 0.000000e+000 0.000000e+000 3.529258e-002
    outer loop
      vertex   -4.611619e+001 1.477271e+002 5.000000e+000
      vertex   -5.396161e+001 1.478656e+002 5.000000e+000
      vertex   -5.380118e+001 1.475915e+002 5.000000e+000
    endloop
  endfacet
  facet normal 0.000000e+000 0.000000e+000 8.351307e-001
    outer loop
      vertex   -4.611619e+001 1.477271e+002 5.000000e+000
      vertex   -5.380118e+001 1.475915e+002 5.000000e+000
      vertex   -4.628619e+001 1.474588e+002 5.000000e+000
    endloop
  endfacet
  facet normal 0.000000e+000 0.000000e+000 3.529137e-002
    outer loop
      vertex   -4.628619e+001 1.474588e+002 5.000000e+000
      vertex   -5.380118e+001 1.475915e+002 5.000000e+000
      vertex   -5.362181e+001 1.473293e+002 5.000000e+000
    endloop
  endfacet
  facet normal 0.000000e+000 0.000000e+000 7.942509e-001
    outer loop
      vertex   -4.628619e+001 1.474588e+002 5.000000e+000
      vertex   -5.362181e+001 1.473293e+002 5.000000e+000
      vertex   -4.647470e+001 1.472032e+002 5.000000e+000
    endloop
  endfacet
  facet normal 0.000000e+000 0.000000e+000 3.529128e-002
    outer loop
      vertex   -4.647470e+001 1.472032e+002 5.000000e+000
      vertex   -5.362181e+001 1.473293e+002 5.000000e+000
      vertex   -5.342440e+001 1.470805e+002 5.000000e+000
    endloop
  endfacet
  facet normal 0.000000e+000 0.000000e+000 7.494044e-001
    outer loop
      vertex   -4.647470e+001 1.472032e+002 5.000000e+000
      vertex   -5.342440e+001 1.470805e+002 5.000000e+000
      vertex   -4.668076e+001 1.469615e+002 5.000000e+000
    endloop
  endfacet
  facet normal 0.000000e+000 0.000000e+000 3.529176e-002
    outer loop
      vertex   -4.668076e+001 1.469615e+002 5.000000e+000
      vertex   -5.342440e+001 1.470805e+002 5.000000e+000
      vertex   -5.320994e+001 1.468462e+002 5.000000e+000
    endloop
  endfacet
  facet normal 0.000000e+000 0.000000e+000 7.008325e-001
    outer loop
      vertex   -4.668076e+001 1.469615e+002 5.000000e+000
      vertex   -5.320994e+001 1.468462e+002 5.000000e+000
      vertex   -4.690337e+001 1.467349e+002 5.000000e+000
    endloop
  endfacet
  facet normal 0.000000e+000 0.000000e+000 3.529106e-002
    outer loop
      vertex   -4.690337e+001 1.467349e+002 5.000000e+000
      vertex   -5.320994e+001 1.468462e+002 5.000000e+000
      vertex   -5.297948e+001 1.466277e+002 5.000000e+000
    endloop
  endfacet
  facet normal 0.000000e+000 0.000000e+000 6.487984e-001
    outer loop
      vertex   -4.690337e+001 1.467349e+002 5.000000e+000
      vertex   -5.297948e+001 1.466277e+002 5.000000e+000
      vertex   -4.714140e+001 1.465246e+002 5.000000e+000
    endloop
  endfacet
  facet normal 0.000000e+000 0.000000e+000 3.529109e-002
    outer loop
      vertex   -4.714140e+001 1.465246e+002 5.000000e+000
      vertex   -5.297948e+001 1.466277e+002 5.000000e+000
      vertex   -5.273417e+001 1.464259e+002 5.000000e+000
    endloop
  endfacet
  facet normal 0.000000e+000 0.000000e+000 5.934701e-001
    outer loop
      vertex   -4.714140e+001 1.465246e+002 5.000000e+000
      vertex   -5.273417e+001 1.464259e+002 5.000000e+000
      vertex   -4.739367e+001 1.463316e+002 5.000000e+000
    endloop
  endfacet
  facet normal 0.000000e+000 0.000000e+000 3.529091e-002
    outer loop
      vertex   -4.739367e+001 1.463316e+002 5.000000e+000
      vertex   -5.273417e+001 1.464259e+002 5.000000e+000
      vertex   -5.247525e+001 1.462419e+002 5.000000e+000
    endloop
  endfacet
  facet normal 0.000000e+000 0.000000e+000 5.352340e-001
    outer loop
      vertex   -4.739367e+001 1.463316e+002 5.000000e+000
      vertex   -5.247525e+001 1.462419e+002 5.000000e+000
      vertex   -4.765892e+001 1.461569e+002 5.000000e+000
    endloop
  endfacet
  facet normal 0.000000e+000 0.000000e+000 3.529415e-002
    outer loop
      vertex   -4.765892e+001 1.461569e+002 5.000000e+000
      vertex   -5.247525e+001 1.462419e+002 5.000000e+000
      vertex   -5.220399e+001 1.460767e+002 5.000000e+000
    endloop
  endfacet
  facet normal 0.000000e+000 0.000000e+000 4.743136e-001
    outer loop
      vertex   -4.765892e+001 1.461569e+002 5.000000e+000
      vertex   -5.220399e+001 1.460767e+002 5.000000e+000
      vertex   -4.793584e+001 1.460013e+002 5.000000e+000
    endloop
  endfacet
  facet normal 0.000000e+000 0.000000e+000 3.529069e-002
    outer loop
      vertex   -4.793584e+001 1.460013e+002 5.000000e+000
      vertex   -5.220399e+001 1.460767e+002 5.000000e+000
      vertex   -5.192175e+001 1.459310e+002 5.000000e+000
    endloop
  endfacet
  facet normal 0.000000e+000 0.000000e+000 4.110090e-001
    outer loop
      vertex   -4.793584e+001 1.460013e+002 5.000000e+000
      vertex   -5.192175e+001 1.459310e+002 5.000000e+000
      vertex   -4.822305e+001 1.458657e+002 5.000000e+000
    endloop
  endfacet
  facet normal 0.000000e+000 0.000000e+000 3.528855e-002
    outer loop
      vertex   -4.822305e+001 1.458657e+002 5.000000e+000
      vertex   -5.192175e+001 1.459310e+002 5.000000e+000
      vertex   -5.162994e+001 1.458056e+002 5.000000e+000
    endloop
  endfacet
  facet normal 0.000000e+000 0.000000e+000 3.457182e-001
    outer loop
      vertex   -4.822305e+001 1.458657e+002 5.000000e+000
      vertex   -5.162994e+001 1.458056e+002 5.000000e+000
      vertex   -4.851910e+001 1.457507e+002 5.000000e+000
    endloop
  endfacet
  facet normal 0.000000e+000 0.000000e+000 3.529540e-002
    outer loop
      vertex   -4.851910e+001 1.457507e+002 5.000000e+000
      vertex   -5.162994e+001 1.458056e+002 5.000000e+000
      vertex   -5.133001e+001 1.457010e+002 5.000000e+000
    endloop
  endfacet
  facet normal 0.000000e+000 0.000000e+000 2.786393e-001
    outer loop
      vertex   -4.851910e+001 1.457507e+002 5.000000e+000
      vertex   -5.133001e+001 1.457010e+002 5.000000e+000
      vertex   -4.882253e+001 1.456568e+002 5.000000e+000
    endloop
  endfacet
  facet normal 0.000000e+000 0.000000e+000 3.528760e-002
    outer loop
      vertex   -4.882253e+001 1.456568e+002 5.000000e+000
      vertex   -5.133001e+001 1.457010e+002 5.000000e+000
      vertex   -5.102345e+001 1.456179e+002 5.000000e+000
    endloop
  endfacet
  facet normal 0.000000e+000 0.000000e+000 2.102487e-001
    outer loop
      vertex   -4.882253e+001 1.456568e+002 5.000000e+000
      vertex   -5.102345e+001 1.456179e+002 5.000000e+000
      vertex   -4.913183e+001 1.455845e+002 5.000000e+000
    endloop
  endfacet
  facet normal 0.000000e+000 0.000000e+000 3.529115e-002
    outer loop
      vertex   -4.913183e+001 1.455845e+002 5.000000e+000
      vertex   -5.102345e+001 1.456179e+002 5.000000e+000
      vertex   -5.071180e+001 1.455567e+002 5.000000e+000
    endloop
  endfacet
  facet normal 0.000000e+000 0.000000e+000 1.407054e-001
    outer loop
      vertex   -4.913183e+001 1.455845e+002 5.000000e+000
      vertex   -5.071180e+001 1.455567e+002 5.000000e+000
      vertex   -4.944546e+001 1.455343e+002 5.000000e+000
    endloop
  endfacet
  facet normal 0.000000e+000 0.000000e+000 3.528846e-002
    outer loop
      vertex   -4.944546e+001 1.455343e+002 5.000000e+000
      vertex   -5.071180e+001 1.455567e+002 5.000000e+000
      vertex   -5.039660e+001 1.455175e+002 5.000000e+000
    endloop
  endfacet
  facet normal 0.000000e+000 0.000000e+000 7.056501e-002
    outer loop
      vertex   -4.944546e+001 1.455343e+002 5.000000e+000
      vertex   -5.039660e+001 1.455175e+002 5.000000e+000
      vertex   -4.976184e+001 1.455063e+002 5.000000e+000
    endloop
  endfacet
  facet normal 0.000000e+000 0.000000e+000 3.529133e-002
    outer loop
      vertex   -4.976184e+001 1.455063e+002 5.000000e+000
      vertex   -5.039660e+001 1.455175e+002 5.000000e+000
      vertex   -5.007942e+001 1.455007e+002 5.000000e+000
    endloop
  endfacet
  facet normal 0.000000e+000 -0.000000e+000 -9.998444e-001
    outer loop
      vertex   -5.448879e+001 1.503174e+002 0.000000e+000
      vertex   -4.550280e+001 1.501588e+002 0.000000e+000
      vertex   -5.450000e+001 1.500000e+002 0.000000e+000
    endloop
  endfacet
  facet normal 0.000000e+000 0.000000e+000 -3.529188e-002
    outer loop
      vertex   -5.450000e+001 1.500000e+002 0.000000e+000
      vertex   -4.550280e+001 1.501588e+002 0.000000e+000
      vertex   -4.550280e+001 1.498412e+002 0.000000e+000
    endloop
  endfacet
  facet normal 0.000000e+000 0.000000e+000 -9.985989e-001
    outer loop
      vertex   -5.450000e+001 1.500000e+002 0.000000e+000
      vertex   -4.550280e+001 1.498412e+002 0.000000e+000
      vertex   -5.448879e+001 1.496826e+002 0.000000e+000
    endloop
  endfacet
  facet normal 0.000000e+000 0.000000e+000 -3.529162e-002
    outer loop
      vertex   -5.448879e+001 1.496826e+002 0.000000e+000
      vertex   -4.550280e+001 1.498412e+002 0.000000e+000
      vertex   -4.552521e+001 1.495244e+002 0.000000e+000
    endloop
  endfacet
  facet normal 0.000000e+000 0.000000e+000 -9.923775e-001
    outer loop
      vertex   -5.448879e+001 1.496826e+002 0.000000e+000
      vertex   -4.552521e+001 1.495244e+002 0.000000e+000
      vertex   -5.445522e+001 1.493667e+002 0.000000e+000
    endloop
  endfacet
  facet normal 0.000000e+000 0.000000e+000 -3.529042e-002
    outer loop
      vertex   -5.445522e+001 1.493667e+002 0.000000e+000
      vertex   -4.552521e+001 1.495244e+002 0.000000e+000
      vertex   -4.556990e+001 1.492099e+002 0.000000e+000
    endloop
  endfacet
  facet normal 0.000000e+000 0.000000e+000 -9.812134e-001
    outer loop
      vertex   -5.445522e+001 1.493667e+002 0.000000e+000
      vertex   -4.556990e+001 1.492099e+002 0.000000e+000
      vertex   -5.439945e+001 1.490540e+002 0.000000e+000
    endloop
  endfacet
  facet normal 0.000000e+000 0.000000e+000 -3.529208e-002
    outer loop
      vertex   -5.439945e+001 1.490540e+002 0.000000e+000
      vertex   -4.556990e+001 1.492099e+002 0.000000e+000
      vertex   -4.563667e+001 1.488994e+002 0.000000e+000
    endloop
  endfacet
  facet normal 0.000000e+000 0.000000e+000 -9.651612e-001
    outer loop
      vertex   -5.439945e+001 1.490540e+002 0.000000e+000
      vertex   -4.563667e+001 1.488994e+002 0.000000e+000
      vertex   -5.432177e+001 1.487461e+002 0.000000e+000
    endloop
  endfacet
  facet normal 0.000000e+000 0.000000e+000 -3.529095e-002
    outer loop
      vertex   -5.432177e+001 1.487461e+002 0.000000e+000
      vertex   -4.563667e+001 1.488994e+002 0.000000e+000
      vertex   -4.572518e+001 1.485943e+002 0.000000e+000
    endloop
  endfacet
  facet normal 0.000000e+000 0.000000e+000 -9.442987e-001
    outer loop
      vertex   -5.432177e+001 1.487461e+002 0.000000e+000
      vertex   -4.572518e+001 1.485943e+002 0.000000e+000
      vertex   -5.422255e+001 1.484443e+002 0.000000e+000
    endloop
  endfacet
  facet normal 0.000000e+000 0.000000e+000 -3.529266e-002
    outer loop
      vertex   -5.422255e+001 1.484443e+002 0.000000e+000
      vertex   -4.572518e+001 1.485943e+002 0.000000e+000
      vertex   -4.583498e+001 1.482963e+002 0.000000e+000
    endloop
  endfacet
  facet normal 0.000000e+000 0.000000e+000 -9.187298e-001
    outer loop
      vertex   -5.422255e+001 1.484443e+002 0.000000e+000
      vertex   -4.583498e+001 1.482963e+002 0.000000e+000
      vertex   -5.410229e+001 1.481504e+002 0.000000e+000
    endloop
  endfacet
  facet normal 0.000000e+000 0.000000e+000 -3.529133e-002
    outer loop
      vertex   -5.410229e+001 1.481504e+002 0.000000e+000
      vertex   -4.583498e+001 1.482963e+002 0.000000e+000
      vertex   -4.596554e+001 1.480067e+002 0.000000e+000
    endloop
  endfacet
  facet normal 0.000000e+000 0.000000e+000 -8.885878e-001
    outer loop
      vertex   -5.410229e+001 1.481504e+002 0.000000e+000
      vertex   -4.596554e+001 1.480067e+002 0.000000e+000
      vertex   -5.396161e+001 1.478656e+002 0.000000e+000
    endloop
  endfacet
  facet normal 0.000000e+000 0.000000e+000 -3.529095e-002
    outer loop
      vertex   -5.396161e+001 1.478656e+002 0.000000e+000
      vertex   -4.596554e+001 1.480067e+002 0.000000e+000
      vertex   -4.611619e+001 1.477271e+002 0.000000e+000
    endloop
  endfacet
  facet normal 0.000000e+000 0.000000e+000 -8.540272e-001
    outer loop
      vertex   -5.396161e+001 1.478656e+002 0.000000e+000
      vertex   -4.611619e+001 1.477271e+002 0.000000e+000
      vertex   -5.380118e+001 1.475915e+002 0.000000e+000
    endloop
  endfacet
  facet normal 0.000000e+000 0.000000e+000 -3.529107e-002
    outer loop
      vertex   -5.380118e+001 1.475915e+002 0.000000e+000
      vertex   -4.611619e+001 1.477271e+002 0.000000e+000
      vertex   -4.628619e+001 1.474588e+002 0.000000e+000
    endloop
  endfacet
  facet normal 0.000000e+000 0.000000e+000 -8.151914e-001
    outer loop
      vertex   -5.380118e+001 1.475915e+002 0.000000e+000
      vertex   -4.628619e+001 1.474588e+002 0.000000e+000
      vertex   -5.362181e+001 1.473293e+002 0.000000e+000
    endloop
  endfacet
  facet normal 0.000000e+000 0.000000e+000 -3.529252e-002
    outer loop
      vertex   -5.362181e+001 1.473293e+002 0.000000e+000
      vertex   -4.628619e+001 1.474588e+002 0.000000e+000
      vertex   -4.647470e+001 1.472032e+002 0.000000e+000
    endloop
  endfacet
  facet normal 0.000000e+000 0.000000e+000 -7.723103e-001
    outer loop
      vertex   -5.362181e+001 1.473293e+002 0.000000e+000
      vertex   -4.647470e+001 1.472032e+002 0.000000e+000
      vertex   -5.342440e+001 1.470805e+002 0.000000e+000
    endloop
  endfacet
  facet normal 0.000000e+000 0.000000e+000 -3.529071e-002
    outer loop
      vertex   -5.342440e+001 1.470805e+002 0.000000e+000
      vertex   -4.647470e+001 1.472032e+002 0.000000e+000
      vertex   -4.668076e+001 1.469615e+002 0.000000e+000
    endloop
  endfacet
  facet normal 0.000000e+000 0.000000e+000 -7.255831e-001
    outer loop
      vertex   -5.342440e+001 1.470805e+002 0.000000e+000
      vertex   -4.668076e+001 1.469615e+002 0.000000e+000
      vertex   -5.320994e+001 1.468462e+002 0.000000e+000
    endloop
  endfacet
  facet normal 0.000000e+000 0.000000e+000 -3.529079e-002
    outer loop
      vertex   -5.320994e+001 1.468462e+002 0.000000e+000
      vertex   -4.668076e+001 1.469615e+002 0.000000e+000
      vertex   -4.690337e+001 1.467349e+002 0.000000e+000
    endloop
  endfacet
  facet normal 0.000000e+000 0.000000e+000 -6.752231e-001
    outer loop
      vertex   -5.320994e+001 1.468462e+002 0.000000e+000
      vertex   -4.690337e+001 1.467349e+002 0.000000e+000
      vertex   -5.297948e+001 1.466277e+002 0.000000e+000
    endloop
  endfacet
  facet normal 0.000000e+000 0.000000e+000 -3.529345e-002
    outer loop
      vertex   -5.297948e+001 1.466277e+002 0.000000e+000
      vertex   -4.690337e+001 1.467349e+002 0.000000e+000
      vertex   -4.714140e+001 1.465246e+002 0.000000e+000
    endloop
  endfacet
  facet normal 0.000000e+000 0.000000e+000 -6.215113e-001
    outer loop
      vertex   -5.297948e+001 1.466277e+002 0.000000e+000
      vertex   -4.714140e+001 1.465246e+002 0.000000e+000
      vertex   -5.273417e+001 1.464259e+002 0.000000e+000
    endloop
  endfacet
  facet normal 0.000000e+000 0.000000e+000 -3.529005e-002
    outer loop
      vertex   -5.273417e+001 1.464259e+002 0.000000e+000
      vertex   -4.714140e+001 1.465246e+002 0.000000e+000
      vertex   -4.739367e+001 1.463316e+002 0.000000e+000
    endloop
  endfacet
  facet normal 0.000000e+000 0.000000e+000 -5.647001e-001
    outer loop
      vertex   -5.273417e+001 1.464259e+002 0.000000e+000
      vertex   -4.739367e+001 1.463316e+002 0.000000e+000
      vertex   -5.247525e+001 1.462419e+002 0.000000e+000
    endloop
  endfacet
  facet normal 0.000000e+000 0.000000e+000 -3.529213e-002
    outer loop
      vertex   -5.247525e+001 1.462419e+002 0.000000e+000
      vertex   -4.739367e+001 1.463316e+002 0.000000e+000
      vertex   -4.765892e+001 1.461569e+002 0.000000e+000
    endloop
  endfacet
  facet normal 0.000000e+000 0.000000e+000 -5.051157e-001
    outer loop
      vertex   -5.247525e+001 1.462419e+002 0.000000e+000
      vertex   -4.765892e+001 1.461569e+002 0.000000e+000
      vertex   -5.220399e+001 1.460767e+002 0.000000e+000
    endloop
  endfacet
  facet normal 0.000000e+000 0.000000e+000 -3.529122e-002
    outer loop
      vertex   -5.220399e+001 1.460767e+002 0.000000e+000
      vertex   -4.765892e+001 1.461569e+002 0.000000e+000
      vertex   -4.793584e+001 1.460013e+002 0.000000e+000
    endloop
  endfacet
  facet normal 0.000000e+000 0.000000e+000 -4.429392e-001
    outer loop
      vertex   -5.220399e+001 1.460767e+002 0.000000e+000
      vertex   -4.793584e+001 1.460013e+002 0.000000e+000
      vertex   -5.192175e+001 1.459310e+002 0.000000e+000
    endloop
  endfacet
  facet normal 0.000000e+000 0.000000e+000 -3.528937e-002
    outer loop
      vertex   -5.192175e+001 1.459310e+002 0.000000e+000
      vertex   -4.793584e+001 1.460013e+002 0.000000e+000
      vertex   -4.822305e+001 1.458657e+002 0.000000e+000
    endloop
  endfacet
  facet normal 0.000000e+000 0.000000e+000 -3.785791e-001
    outer loop
      vertex   -5.192175e+001 1.459310e+002 0.000000e+000
      vertex   -4.822305e+001 1.458657e+002 0.000000e+000
      vertex   -5.162994e+001 1.458056e+002 0.000000e+000
    endloop
  endfacet
  facet normal 0.000000e+000 0.000000e+000 -3.529313e-002
    outer loop
      vertex   -5.162994e+001 1.458056e+002 0.000000e+000
      vertex   -4.822305e+001 1.458657e+002 0.000000e+000
      vertex   -4.851910e+001 1.457507e+002 0.000000e+000
    endloop
  endfacet
  facet normal 0.000000e+000 0.000000e+000 -3.124040e-001
    outer loop
      vertex   -5.162994e+001 1.458056e+002 0.000000e+000
      vertex   -4.851910e+001 1.457507e+002 0.000000e+000
      vertex   -5.133001e+001 1.457010e+002 0.000000e+000
    endloop
  endfacet
  facet normal 0.000000e+000 0.000000e+000 -3.528959e-002
    outer loop
      vertex   -5.133001e+001 1.457010e+002 0.000000e+000
      vertex   -4.851910e+001 1.457507e+002 0.000000e+000
      vertex   -4.882253e+001 1.456568e+002 0.000000e+000
    endloop
  endfacet
  facet normal 0.000000e+000 0.000000e+000 -2.445575e-001
    outer loop
      vertex   -5.133001e+001 1.457010e+002 0.000000e+000
      vertex   -4.882253e+001 1.456568e+002 0.000000e+000
      vertex   -5.102345e+001 1.456179e+002 0.000000e+000
    endloop
  endfacet
  facet normal 0.000000e+000 0.000000e+000 -3.529780e-002
    outer loop
      vertex   -5.102345e+001 1.456179e+002 0.000000e+000
      vertex   -4.882253e+001 1.456568e+002 0.000000e+000
      vertex   -4.913183e+001 1.455845e+002 0.000000e+000
    endloop
  endfacet
  facet normal 0.000000e+000 0.000000e+000 -1.755792e-001
    outer loop
      vertex   -5.102345e+001 1.456179e+002 0.000000e+000
      vertex   -4.913183e+001 1.455845e+002 0.000000e+000
      vertex   -5.071180e+001 1.455567e+002 0.000000e+000
    endloop
  endfacet
  facet normal 0.000000e+000 0.000000e+000 -3.528607e-002
    outer loop
      vertex   -5.071180e+001 1.455567e+002 0.000000e+000
      vertex   -4.913183e+001 1.455845e+002 0.000000e+000
      vertex   -4.944546e+001 1.455343e+002 0.000000e+000
    endloop
  endfacet
  facet normal 0.000000e+000 0.000000e+000 -1.056887e-001
    outer loop
      vertex   -5.071180e+001 1.455567e+002 0.000000e+000
      vertex   -4.944546e+001 1.455343e+002 0.000000e+000
      vertex   -5.039660e+001 1.455175e+002 0.000000e+000
    endloop
  endfacet
  facet normal 0.000000e+000 0.000000e+000 -3.530463e-002
    outer loop
      vertex   -5.039660e+001 1.455175e+002 0.000000e+000
      vertex   -4.944546e+001 1.455343e+002 0.000000e+000
      vertex   -4.976184e+001 1.455063e+002 0.000000e+000
    endloop
  endfacet
  facet normal 0.000000e+000 0.000000e+000 -3.529141e-002
    outer loop
      vertex   -5.039660e+001 1.455175e+002 0.000000e+000
      vertex   -4.976184e+001 1.455063e+002 0.000000e+000
      vertex   -5.007942e+001 1.455007e+002 0.000000e+000
    endloop
  endfacet
  facet normal 0.000000e+000 0.000000e+000 -9.961091e-001
    outer loop
      vertex   -4.550280e+001 1.501588e+002 0.000000e+000
      vertex   -5.448879e+001 1.503174e+002 0.000000e+000
      vertex   -4.552521e+001 1.504756e+002 0.000000e+000
    endloop
  endfacet
  facet normal -0.000000e+000 0.000000e+000 -3.529121e-002
    outer loop
      vertex   -4.552521e+001 1.504756e+002 0.000000e+000
      vertex   -5.448879e+001 1.503174e+002 0.000000e+000
      vertex   -5.445522e+001 1.506333e+002 0.000000e+000
    endloop
  endfacet
  facet normal 0.000000e+000 0.000000e+000 -9.874107e-001
    outer loop
      vertex   -4.552521e+001 1.504756e+002 0.000000e+000
      vertex   -5.445522e+001 1.506333e+002 0.000000e+000
      vertex   -4.556990e+001 1.507901e+002 0.000000e+000
    endloop
  endfacet
  facet normal -0.000000e+000 0.000000e+000 -3.529079e-002
    outer loop
      vertex   -4.556990e+001 1.507901e+002 0.000000e+000
      vertex   -5.445522e+001 1.506333e+002 0.000000e+000
      vertex   -5.439945e+001 1.509460e+002 0.000000e+000
    endloop
  endfacet
  facet normal 0.000000e+000 0.000000e+000 -9.737941e-001
    outer loop
      vertex   -4.556990e+001 1.507901e+002 0.000000e+000
      vertex   -5.439945e+001 1.509460e+002 0.000000e+000
      vertex   -4.563667e+001 1.511006e+002 0.000000e+000
    endloop
  endfacet
  facet normal -0.000000e+000 0.000000e+000 -3.529226e-002
    outer loop
      vertex   -4.563667e+001 1.511006e+002 0.000000e+000
      vertex   -5.439945e+001 1.509460e+002 0.000000e+000
      vertex   -5.432177e+001 1.512539e+002 0.000000e+000
    endloop
  endfacet
  facet normal 0.000000e+000 0.000000e+000 -9.553216e-001
    outer loop
      vertex   -4.563667e+001 1.511006e+002 0.000000e+000
      vertex   -5.432177e+001 1.512539e+002 0.000000e+000
      vertex   -4.572518e+001 1.514057e+002 0.000000e+000
    endloop
  endfacet
  facet normal -0.000000e+000 0.000000e+000 -3.529124e-002
    outer loop
      vertex   -4.572518e+001 1.514057e+002 0.000000e+000
      vertex   -5.432177e+001 1.512539e+002 0.000000e+000
      vertex   -5.422255e+001 1.515557e+002 0.000000e+000
    endloop
  endfacet
  facet normal 0.000000e+000 0.000000e+000 -9.321016e-001
    outer loop
      vertex   -4.572518e+001 1.514057e+002 0.000000e+000
      vertex   -5.422255e+001 1.515557e+002 0.000000e+000
      vertex   -4.583498e+001 1.517037e+002 0.000000e+000
    endloop
  endfacet
  facet normal -0.000000e+000 0.000000e+000 -3.529106e-002
    outer loop
      vertex   -4.583498e+001 1.517037e+002 0.000000e+000
      vertex   -5.422255e+001 1.515557e+002 0.000000e+000
      vertex   -5.410229e+001 1.518496e+002 0.000000e+000
    endloop
  endfacet
  facet normal 0.000000e+000 0.000000e+000 -9.042235e-001
    outer loop
      vertex   -4.583498e+001 1.517037e+002 0.000000e+000
      vertex   -5.410229e+001 1.518496e+002 0.000000e+000
      vertex   -4.596554e+001 1.519933e+002 0.000000e+000
    endloop
  endfacet
  facet normal -0.000000e+000 0.000000e+000 -3.529087e-002
    outer loop
      vertex   -4.596554e+001 1.519933e+002 0.000000e+000
      vertex   -5.410229e+001 1.518496e+002 0.000000e+000
      vertex   -5.396161e+001 1.521344e+002 0.000000e+000
    endloop
  endfacet
  facet normal 0.000000e+000 0.000000e+000 -8.718445e-001
    outer loop
      vertex   -4.596554e+001 1.519933e+002 0.000000e+000
      vertex   -5.396161e+001 1.521344e+002 0.000000e+000
      vertex   -4.611619e+001 1.522729e+002 0.000000e+000
    endloop
  endfacet
  facet normal -0.000000e+000 0.000000e+000 -3.529258e-002
    outer loop
      vertex   -4.611619e+001 1.522729e+002 0.000000e+000
      vertex   -5.396161e+001 1.521344e+002 0.000000e+000
      vertex   -5.380118e+001 1.524085e+002 0.000000e+000
    endloop
  endfacet
  facet normal 0.000000e+000 0.000000e+000 -8.351307e-001
    outer loop
      vertex   -4.611619e+001 1.522729e+002 0.000000e+000
      vertex   -5.380118e+001 1.524085e+002 0.000000e+000
      vertex   -4.628619e+001 1.525412e+002 0.000000e+000
    endloop
  endfacet
  facet normal -0.000000e+000 0.000000e+000 -3.529137e-002
    outer loop
      vertex   -4.628619e+001 1.525412e+002 0.000000e+000
      vertex   -5.380118e+001 1.524085e+002 0.000000e+000
      vertex   -5.362181e+001 1.526707e+002 0.000000e+000
    endloop
  endfacet
  facet normal 0.000000e+000 0.000000e+000 -7.942509e-001
    outer loop
      vertex   -4.628619e+001 1.525412e+002 0.000000e+000
      vertex   -5.362181e+001 1.526707e+002 0.000000e+000
      vertex   -4.647470e+001 1.527968e+002 0.000000e+000
    endloop
  endfacet
  facet normal -0.000000e+000 0.000000e+000 -3.529128e-002
    outer loop
      vertex   -4.647470e+001 1.527968e+002 0.000000e+000
      vertex   -5.362181e+001 1.526707e+002 0.000000e+000
      vertex   -5.342440e+001 1.529195e+002 0.000000e+000
    endloop
  endfacet
  facet normal 0.000000e+000 0.000000e+000 -7.494044e-001
    outer loop
      vertex   -4.647470e+001 1.527968e+002 0.000000e+000
      vertex   -5.342440e+001 1.529195e+002 0.000000e+000
      vertex   -4.668076e+001 1.530385e+002 0.000000e+000
    endloop
  endfacet
  facet normal -0.000000e+000 0.000000e+000 -3.529176e-002
    outer loop
      vertex   -4.668076e+001 1.530385e+002 0.000000e+000
      vertex   -5.342440e+001 1.529195e+002 0.000000e+000
      vertex   -5.320994e+001 1.531538e+002 0.000000e+000
    endloop
  endfacet
  facet normal 0.000000e+000 0.000000e+000 -7.008325e-001
    outer loop
      vertex   -4.668076e+001 1.530385e+002 0.000000e+000
      vertex   -5.320994e+001 1.531538e+002 0.000000e+000
      vertex   -4.690337e+001 1.532651e+002 0.000000e+000
    endloop
  endfacet
  facet normal -0.000000e+000 0.000000e+000 -3.529106e-002
    outer loop
      vertex   -4.690337e+001 1.532651e+002 0.000000e+000
      vertex   -5.320994e+001 1.531538e+002 0.000000e+000
      vertex   -5.297948e+001 1.533723e+002 0.000000e+000
    endloop
  endfacet
  facet normal 0.000000e+000 0.000000e+000 -6.487984e-001
    outer loop
      vertex   -4.690337e+001 1.532651e+002 0.000000e+000
      vertex   -5.297948e+001 1.533723e+002 0.000000e+000
      vertex   -4.714140e+001 1.534754e+002 0.000000e+000
    endloop
  endfacet
  facet normal -0.000000e+000 0.000000e+000 -3.529109e-002
    outer loop
      vertex   -4.714140e+001 1.534754e+002 0.000000e+000
      vertex   -5.297948e+001 1.533723e+002 0.000000e+000
      vertex   -5.273417e+001 1.535741e+002 0.000000e+000
    endloop
  endfacet
  facet normal 0.000000e+000 0.000000e+000 -5.934701e-001
    outer loop
      vertex   -4.714140e+001 1.534754e+002 0.000000e+000
      vertex   -5.273417e+001 1.535741e+002 0.000000e+000
      vertex   -4.739367e+001 1.536684e+002 0.000000e+000
    endloop
  endfacet
  facet normal -0.000000e+000 0.000000e+000 -3.529091e-002
    outer loop
      vertex   -4.739367e+001 1.536684e+002 0.000000e+000
      vertex   -5.273417e+001 1.535741e+002 0.000000e+000
      vertex   -5.247525e+001 1.537581e+002 0.000000e+000
    endloop
  endfacet
  facet normal 0.000000e+000 0.000000e+000 -5.352340e-001
    outer loop
      vertex   -4.739367e+001 1.536684e+002 0.000000e+000
      vertex   -5.247525e+001 1.537581e+002 0.000000e+000
      vertex   -4.765892e+001 1.538431e+002 0.000000e+000
    endloop
  endfacet
  facet normal -0.000000e+000 0.000000e+000 -3.529415e-002
    outer loop
      vertex   -4.765892e+001 1.538431e+002 0.000000e+000
      vertex   -5.247525e+001 1.537581e+002 0.000000e+000
      vertex   -5.220399e+001 1.539233e+002 0.000000e+000
    endloop
  endfacet
  facet normal 0.000000e+000 0.000000e+000 -4.743136e-001
    outer loop
      vertex   -4.765892e+001 1.538431e+002 0.000000e+000
      vertex   -5.220399e+001 1.539233e+002 0.000000e+000
      vertex   -4.793584e+001 1.539987e+002 0.000000e+000
    endloop
  endfacet
  facet normal -0.000000e+000 0.000000e+000 -3.529069e-002
    outer loop
      vertex   -4.793584e+001 1.539987e+002 0.000000e+000
      vertex   -5.220399e+001 1.539233e+002 0.000000e+000
      vertex   -5.192175e+001 1.540690e+002 0.000000e+000
    endloop
  endfacet
  facet normal 0.000000e+000 0.000000e+000 -4.110090e-001
    outer loop
      vertex   -4.793584e+001 1.539987e+002 0.000000e+000
      vertex   -5.192175e+001 1.540690e+002 0.000000e+000
      vertex   -4.822305e+001 1.541343e+002 0.000000e+000
    endloop
  endfacet
  facet normal -0.000000e+000 0.000000e+000 -3.528855e-002
    outer loop
      vertex   -4.822305e+001 1.541343e+002 0.000000e+000
      vertex   -5.192175e+001 1.540690e+002 0.000000e+000
      vertex   -5.162994e+001 1.541944e+002 0.000000e+000
    endloop
  endfacet
  facet normal 0.000000e+000 0.000000e+000 -3.457182e-001
    outer loop
      vertex   -4.822305e+001 1.541343e+002 0.000000e+000
      vertex   -5.162994e+001 1.541944e+002 0.000000e+000
      vertex   -4.851910e+001 1.542493e+002 0.000000e+000
    endloop
  endfacet
  facet normal -0.000000e+000 0.000000e+000 -3.529540e-002
    outer loop
      vertex   -4.851910e+001 1.542493e+002 0.000000e+000
      vertex   -5.162994e+001 1.541944e+002 0.000000e+000
      vertex   -5.133001e+001 1.542990e+002 0.000000e+000
    endloop
  endfacet
  facet normal 0.000000e+000 0.000000e+000 -2.786393e-001
    outer loop
      vertex   -4.851910e+001 1.542493e+002 0.000000e+000
      vertex   -5.133001e+001 1.542990e+002 0.000000e+000
      vertex   -4.882253e+001 1.543432e+002 0.000000e+000
    endloop
  endfacet
  facet normal -0.000000e+000 0.000000e+000 -3.528760e-002
    outer loop
      vertex   -4.882253e+001 1.543432e+002 0.000000e+000
      vertex   -5.133001e+001 1.542990e+002 0.000000e+000
      vertex   -5.102345e+001 1.543821e+002 0.000000e+000
    endloop
  endfacet
  facet normal 0.000000e+000 0.000000e+000 -2.102487e-001
    outer loop
      vertex   -4.882253e+001 1.543432e+002 0.000000e+000
      vertex   -5.102345e+001 1.543821e+002 0.000000e+000
      vertex   -4.913183e+001 1.544155e+002 0.000000e+000
    endloop
  endfacet
  facet normal -0.000000e+000 0.000000e+000 -3.529115e-002
    outer loop
      vertex   -4.913183e+001 1.544155e+002 0.000000e+000
      vertex   -5.102345e+001 1.543821e+002 0.000000e+000
      vertex   -5.071180e+001 1.544433e+002 0.000000e+000
    endloop
  endfacet
  facet normal 0.000000e+000 0.000000e+000 -1.407054e-001
    outer loop
      vertex   -4.913183e+001 1.544155e+002 0.000000e+000
      vertex   -5.071180e+001 1.544433e+002 0.000000e+000
      vertex   -4.944546e+001 1.544657e+002 0.000000e+000
    endloop
  endfacet
  facet normal -0.000000e+000 0.000000e+000 -3.528846e-002
    outer loop
      vertex   -4.944546e+001 1.544657e+002 0.000000e+000
      vertex   -5.071180e+001 1.544433e+002 0.000000e+000
      vertex   -5.039660e+001 1.544825e+002 0.000000e+000
    endloop
  endfacet
  facet normal 0.000000e+000 0.000000e+000 -7.056501e-002
    outer loop
      vertex   -4.944546e+001 1.544657e+002 0.000000e+000
      vertex   -5.039660e+001 1.544825e+002 0.000000e+000
      vertex   -4.976184e+001 1.544937e+002 0.000000e+000
    endloop
  endfacet
  facet normal -0.000000e+000 0.000000e+000 -3.529133e-002
    outer loop
      vertex   -4.976184e+001 1.544937e+002 0.000000e+000
      vertex   -5.039660e+001 1.544825e+002 0.000000e+000
      vertex   -5.007942e+001 1.544993e+002 0.000000e+000
    endloop
  endfacet
endsolid
