solid ascii
  facet normal -9.993764e-001 3.530984e-002 0.000000e+000
    outer loop
      vertex   -1.294888e+002 5.031742e+001 5.000000e+000
      vertex   -1.294888e+002 5.031742e+001 0.000000e+000
      vertex   -1.295000e+002 5.000000e+001 5.000000e+000
    endloop
  endfacet
  facet normal -6.335725e-002 2.238530e-003 0.000000e+000
    outer loop
      vertex   -1.295000e+002 5.000000e+001 5.000000e+000
      vertex   -1.294888e+002 5.031742e+001 0.000000e+000
      vertex   -1.295000e+002 5.000000e+001 0.000000e+000
    endloop
  endfacet
  facet normal -9.993764e-001 -3.530984e-002 -0.000000e+000
    outer loop
      vertex   -1.295000e+002 5.000000e+001 5.000000e+000
      vertex   -1.295000e+002 5.000000e+001 0.000000e+000
      vertex   -1.294888e+002 4.968258e+001 5.000000e+000
    endloop
  endfacet
  facet normal -6.335725e-002 -2.238530e-003 -0.000000e+000
    outer loop
      vertex   -1.294888e+002 4.968258e+001 5.000000e+000
      vertex   -1.295000e+002 5.000000e+001 0.000000e+000
      vertex   -1.294888e+002 4.968258e+001 0.000000e+000
    endloop
  endfacet
  facet normal -9.943992e-001 -1.056888e-001 -0.000000e+000
    outer loop
      vertex   -1.294888e+002 4.968258e+001 5.000000e+000
      vertex   -1.294888e+002 4.968258e+001 0.000000e+000
      vertex   -1.294552e+002 4.936673e+001 5.000000e+000
    endloop
  endfacet
  facet normal -6.304202e-002 -6.700362e-003 -0.000000e+000
    outer loop
      vertex   -1.294552e+002 4.936673e+001 5.000000e+000
      vertex   -1.294888e+002 4.968258e+001 0.000000e+000
      vertex   -1.294552e+002 4.936673e+001 0.000000e+000
    endloop
  endfacet
  facet normal -9.844636e-001 -1.755890e-001 -0.000000e+000
    outer loop
      vertex   -1.294552e+002 4.936673e+001 5.000000e+000
      vertex   -1.294552e+002 4.936673e+001 0.000000e+000
      vertex   -1.293994e+002 4.905404e+001 5.000000e+000
    endloop
  endfacet
  facet normal -6.241158e-002 -1.113174e-002 -0.000000e+000
    outer loop
      vertex   -1.293994e+002 4.905404e+001 5.000000e+000
      vertex   -1.294552e+002 4.936673e+001 0.000000e+000
      vertex   -1.293994e+002 4.905404e+001 0.000000e+000
    endloop
  endfacet
  facet normal -9.696303e-001 -2.445754e-001 -0.000000e+000
    outer loop
      vertex   -1.293994e+002 4.905404e+001 5.000000e+000
      vertex   -1.293994e+002 4.905404e+001 0.000000e+000
      vertex   -1.293218e+002 4.874607e+001 5.000000e+000
    endloop
  endfacet
  facet normal -6.147125e-002 -1.550525e-002 -0.000000e+000
    outer loop
      vertex   -1.293218e+002 4.874607e+001 5.000000e+000
      vertex   -1.293994e+002 4.905404e+001 0.000000e+000
      vertex   -1.293218e+002 4.874607e+001 0.000000e+000
    endloop
  endfacet
  facet normal -9.499641e-001 -3.123591e-001 -0.000000e+000
    outer loop
      vertex   -1.293218e+002 4.874607e+001 5.000000e+000
      vertex   -1.293218e+002 4.874607e+001 0.000000e+000
      vertex   -1.292225e+002 4.844434e+001 5.000000e+000
    endloop
  endfacet
  facet normal -6.022483e-002 -1.980261e-002 -0.000000e+000
    outer loop
      vertex   -1.292225e+002 4.844434e+001 5.000000e+000
      vertex   -1.293218e+002 4.874607e+001 0.000000e+000
      vertex   -1.292225e+002 4.844434e+001 0.000000e+000
    endloop
  endfacet
  facet normal -9.255579e-001 -3.786062e-001 -0.000000e+000
    outer loop
      vertex   -1.292225e+002 4.844434e+001 5.000000e+000
      vertex   -1.292225e+002 4.844434e+001 0.000000e+000
      vertex   -1.291023e+002 4.815036e+001 5.000000e+000
    endloop
  endfacet
  facet normal -5.867765e-002 -2.400252e-002 -0.000000e+000
    outer loop
      vertex   -1.291023e+002 4.815036e+001 5.000000e+000
      vertex   -1.292225e+002 4.844434e+001 0.000000e+000
      vertex   -1.291023e+002 4.815036e+001 0.000000e+000
    endloop
  endfacet
  facet normal -8.965524e-001 -4.429376e-001 -0.000000e+000
    outer loop
      vertex   -1.291023e+002 4.815036e+001 5.000000e+000
      vertex   -1.291023e+002 4.815036e+001 0.000000e+000
      vertex   -1.289616e+002 4.786559e+001 5.000000e+000
    endloop
  endfacet
  facet normal -5.683810e-002 -2.808061e-002 -0.000000e+000
    outer loop
      vertex   -1.289616e+002 4.786559e+001 5.000000e+000
      vertex   -1.291023e+002 4.815036e+001 0.000000e+000
      vertex   -1.289616e+002 4.786559e+001 0.000000e+000
    endloop
  endfacet
  facet normal -8.630645e-001 -5.050937e-001 -0.000000e+000
    outer loop
      vertex   -1.289616e+002 4.786559e+001 5.000000e+000
      vertex   -1.289616e+002 4.786559e+001 0.000000e+000
      vertex   -1.288012e+002 4.759146e+001 5.000000e+000
    endloop
  endfacet
  facet normal -5.471607e-002 -3.202163e-002 -0.000000e+000
    outer loop
      vertex   -1.288012e+002 4.759146e+001 5.000000e+000
      vertex   -1.289616e+002 4.786559e+001 0.000000e+000
      vertex   -1.288012e+002 4.759146e+001 0.000000e+000
    endloop
  endfacet
  facet normal -8.252860e-001 -5.647149e-001 -0.000000e+000
    outer loop
      vertex   -1.288012e+002 4.759146e+001 5.000000e+000
      vertex   -1.288012e+002 4.759146e+001 0.000000e+000
      vertex   -1.286218e+002 4.732933e+001 5.000000e+000
    endloop
  endfacet
  facet normal -5.232069e-002 -3.580125e-002 -0.000000e+000
    outer loop
      vertex   -1.286218e+002 4.732933e+001 5.000000e+000
      vertex   -1.288012e+002 4.759146e+001 0.000000e+000
      vertex   -1.286218e+002 4.732933e+001 0.000000e+000
    endloop
  endfacet
  facet normal -7.834073e-001 -6.215086e-001 -0.000000e+000
    outer loop
      vertex   -1.286218e+002 4.732933e+001 5.000000e+000
      vertex   -1.286218e+002 4.732933e+001 0.000000e+000
      vertex   -1.284244e+002 4.708051e+001 5.000000e+000
    endloop
  endfacet
  facet normal -4.966491e-002 -3.940117e-002 -0.000000e+000
    outer loop
      vertex   -1.284244e+002 4.708051e+001 5.000000e+000
      vertex   -1.286218e+002 4.732933e+001 0.000000e+000
      vertex   -1.284244e+002 4.708051e+001 0.000000e+000
    endloop
  endfacet
  facet normal -7.375967e-001 -6.752415e-001 -0.000000e+000
    outer loop
      vertex   -1.284244e+002 4.708051e+001 5.000000e+000
      vertex   -1.284244e+002 4.708051e+001 0.000000e+000
      vertex   -1.282099e+002 4.684622e+001 5.000000e+000
    endloop
  endfacet
  facet normal -4.676243e-002 -4.280921e-002 -0.000000e+000
    outer loop
      vertex   -1.282099e+002 4.684622e+001 5.000000e+000
      vertex   -1.284244e+002 4.708051e+001 0.000000e+000
      vertex   -1.282099e+002 4.684622e+001 0.000000e+000
    endloop
  endfacet
  facet normal -6.881469e-001 -7.255713e-001 -0.000000e+000
    outer loop
      vertex   -1.282099e+002 4.684622e+001 5.000000e+000
      vertex   -1.282099e+002 4.684622e+001 0.000000e+000
      vertex   -1.279795e+002 4.662766e+001 5.000000e+000
    endloop
  endfacet
  facet normal -4.362545e-002 -4.599798e-002 -0.000000e+000
    outer loop
      vertex   -1.279795e+002 4.662766e+001 5.000000e+000
      vertex   -1.282099e+002 4.684622e+001 0.000000e+000
      vertex   -1.279795e+002 4.662766e+001 0.000000e+000
    endloop
  endfacet
  facet normal -6.352428e-001 -7.723125e-001 -0.000000e+000
    outer loop
      vertex   -1.279795e+002 4.662766e+001 5.000000e+000
      vertex   -1.279795e+002 4.662766e+001 0.000000e+000
      vertex   -1.277342e+002 4.642588e+001 5.000000e+000
    endloop
  endfacet
  facet normal -4.027298e-002 -4.896289e-002 -0.000000e+000
    outer loop
      vertex   -1.277342e+002 4.642588e+001 5.000000e+000
      vertex   -1.279795e+002 4.662766e+001 0.000000e+000
      vertex   -1.277342e+002 4.642588e+001 0.000000e+000
    endloop
  endfacet
  facet normal -5.791970e-001 -8.151876e-001 -0.000000e+000
    outer loop
      vertex   -1.277342e+002 4.642588e+001 5.000000e+000
      vertex   -1.277342e+002 4.642588e+001 0.000000e+000
      vertex   -1.274753e+002 4.624192e+001 5.000000e+000
    endloop
  endfacet
  facet normal -3.671874e-002 -5.167959e-002 -0.000000e+000
    outer loop
      vertex   -1.274753e+002 4.624192e+001 5.000000e+000
      vertex   -1.277342e+002 4.642588e+001 0.000000e+000
      vertex   -1.274753e+002 4.624192e+001 0.000000e+000
    endloop
  endfacet
  facet normal -5.202243e-001 -8.540297e-001 -0.000000e+000
    outer loop
      vertex   -1.274753e+002 4.624192e+001 5.000000e+000
      vertex   -1.274753e+002 4.624192e+001 0.000000e+000
      vertex   -1.272040e+002 4.607668e+001 5.000000e+000
    endloop
  endfacet
  facet normal -3.298100e-002 -5.414349e-002 -0.000000e+000
    outer loop
      vertex   -1.272040e+002 4.607668e+001 5.000000e+000
      vertex   -1.274753e+002 4.624192e+001 0.000000e+000
      vertex   -1.272040e+002 4.607668e+001 0.000000e+000
    endloop
  endfacet
  facet normal -4.587063e-001 -8.885880e-001 -0.000000e+000
    outer loop
      vertex   -1.272040e+002 4.607668e+001 5.000000e+000
      vertex   -1.272040e+002 4.607668e+001 0.000000e+000
      vertex   -1.269218e+002 4.593099e+001 5.000000e+000
    endloop
  endfacet
  facet normal -2.908033e-002 -5.633329e-002 -0.000000e+000
    outer loop
      vertex   -1.269218e+002 4.593099e+001 5.000000e+000
      vertex   -1.272040e+002 4.607668e+001 0.000000e+000
      vertex   -1.269218e+002 4.593099e+001 0.000000e+000
    endloop
  endfacet
  facet normal -3.948830e-001 -9.187314e-001 -0.000000e+000
    outer loop
      vertex   -1.269218e+002 4.593099e+001 5.000000e+000
      vertex   -1.269218e+002 4.593099e+001 0.000000e+000
      vertex   -1.266299e+002 4.580556e+001 5.000000e+000
    endloop
  endfacet
  facet normal -2.503423e-002 -5.824442e-002 -0.000000e+000
    outer loop
      vertex   -1.266299e+002 4.580556e+001 5.000000e+000
      vertex   -1.269218e+002 4.593099e+001 0.000000e+000
      vertex   -1.266299e+002 4.580556e+001 0.000000e+000
    endloop
  endfacet
  facet normal -3.290865e-001 -9.442998e-001 -0.000000e+000
    outer loop
      vertex   -1.266299e+002 4.580556e+001 5.000000e+000
      vertex   -1.266299e+002 4.580556e+001 0.000000e+000
      vertex   -1.263300e+002 4.570104e+001 5.000000e+000
    endloop
  endfacet
  facet normal -2.086325e-002 -5.986620e-002 -0.000000e+000
    outer loop
      vertex   -1.263300e+002 4.570104e+001 5.000000e+000
      vertex   -1.266299e+002 4.580556e+001 0.000000e+000
      vertex   -1.263300e+002 4.570104e+001 0.000000e+000
    endloop
  endfacet
  facet normal -2.616537e-001 -9.651618e-001 -0.000000e+000
    outer loop
      vertex   -1.263300e+002 4.570104e+001 5.000000e+000
      vertex   -1.263300e+002 4.570104e+001 0.000000e+000
      vertex   -1.260235e+002 4.561793e+001 5.000000e+000
    endloop
  endfacet
  facet normal -1.658796e-002 -6.118801e-002 -0.000000e+000
    outer loop
      vertex   -1.260235e+002 4.561793e+001 5.000000e+000
      vertex   -1.263300e+002 4.570104e+001 0.000000e+000
      vertex   -1.260235e+002 4.561793e+001 0.000000e+000
    endloop
  endfacet
  facet normal -1.929324e-001 -9.812121e-001 -0.000000e+000
    outer loop
      vertex   -1.260235e+002 4.561793e+001 5.000000e+000
      vertex   -1.260235e+002 4.561793e+001 0.000000e+000
      vertex   -1.257118e+002 4.555665e+001 5.000000e+000
    endloop
  endfacet
  facet normal -1.223121e-002 -6.220524e-002 -0.000000e+000
    outer loop
      vertex   -1.257118e+002 4.555665e+001 5.000000e+000
      vertex   -1.260235e+002 4.561793e+001 0.000000e+000
      vertex   -1.257118e+002 4.555665e+001 0.000000e+000
    endloop
  endfacet
  facet normal -1.232365e-001 -9.923773e-001 -0.000000e+000
    outer loop
      vertex   -1.257118e+002 4.555665e+001 5.000000e+000
      vertex   -1.257118e+002 4.555665e+001 0.000000e+000
      vertex   -1.253966e+002 4.551751e+001 5.000000e+000
    endloop
  endfacet
  facet normal -7.812774e-003 -6.291335e-002 -0.000000e+000
    outer loop
      vertex   -1.253966e+002 4.551751e+001 5.000000e+000
      vertex   -1.257118e+002 4.555665e+001 0.000000e+000
      vertex   -1.253966e+002 4.551751e+001 0.000000e+000
    endloop
  endfacet
  facet normal -5.291561e-002 -9.985990e-001 -0.000000e+000
    outer loop
      vertex   -1.253966e+002 4.551751e+001 5.000000e+000
      vertex   -1.253966e+002 4.551751e+001 0.000000e+000
      vertex   -1.250794e+002 4.550070e+001 5.000000e+000
    endloop
  endfacet
  facet normal -3.354749e-003 -6.330927e-002 -0.000000e+000
    outer loop
      vertex   -1.250794e+002 4.550070e+001 5.000000e+000
      vertex   -1.253966e+002 4.551751e+001 0.000000e+000
      vertex   -1.250794e+002 4.550070e+001 0.000000e+000
    endloop
  endfacet
  facet normal 1.764290e-002 -9.998444e-001 0.000000e+000
    outer loop
      vertex   -1.250794e+002 4.550070e+001 5.000000e+000
      vertex   -1.250794e+002 4.550070e+001 0.000000e+000
      vertex   -1.247618e+002 4.550631e+001 5.000000e+000
    endloop
  endfacet
  facet normal 1.118504e-003 -6.338695e-002 0.000000e+000
    outer loop
      vertex   -1.247618e+002 4.550631e+001 5.000000e+000
      vertex   -1.250794e+002 4.550070e+001 0.000000e+000
      vertex   -1.247618e+002 4.550631e+001 0.000000e+000
    endloop
  endfacet
  facet normal 8.813146e-002 -9.961088e-001 0.000000e+000
    outer loop
      vertex   -1.247618e+002 4.550631e+001 5.000000e+000
      vertex   -1.247618e+002 4.550631e+001 0.000000e+000
      vertex   -1.244455e+002 4.553430e+001 5.000000e+000
    endloop
  endfacet
  facet normal 5.587188e-003 -6.314939e-002 0.000000e+000
    outer loop
      vertex   -1.244455e+002 4.553430e+001 5.000000e+000
      vertex   -1.247618e+002 4.550631e+001 0.000000e+000
      vertex   -1.244455e+002 4.553430e+001 0.000000e+000
    endloop
  endfacet
  facet normal 1.581868e-001 -9.874092e-001 0.000000e+000
    outer loop
      vertex   -1.244455e+002 4.553430e+001 5.000000e+000
      vertex   -1.244455e+002 4.553430e+001 0.000000e+000
      vertex   -1.241318e+002 4.558454e+001 5.000000e+000
    endloop
  endfacet
  facet normal 1.002846e-002 -6.259813e-002 0.000000e+000
    outer loop
      vertex   -1.241318e+002 4.558454e+001 5.000000e+000
      vertex   -1.244455e+002 4.553430e+001 0.000000e+000
      vertex   -1.241318e+002 4.558454e+001 0.000000e+000
    endloop
  endfacet
  facet normal 2.274331e-001 -9.737937e-001 0.000000e+000
    outer loop
      vertex   -1.241318e+002 4.558454e+001 5.000000e+000
      vertex   -1.241318e+002 4.558454e+001 0.000000e+000
      vertex   -1.238225e+002 4.565678e+001 5.000000e+000
    endloop
  endfacet
  facet normal 1.441872e-002 -6.173621e-002 0.000000e+000
    outer loop
      vertex   -1.238225e+002 4.565678e+001 5.000000e+000
      vertex   -1.241318e+002 4.558454e+001 0.000000e+000
      vertex   -1.238225e+002 4.565678e+001 0.000000e+000
    endloop
  endfacet
  facet normal 2.955548e-001 -9.553258e-001 0.000000e+000
    outer loop
      vertex   -1.238225e+002 4.565678e+001 5.000000e+000
      vertex   -1.238225e+002 4.565678e+001 0.000000e+000
      vertex   -1.235191e+002 4.575066e+001 5.000000e+000
    endloop
  endfacet
  facet normal 1.873741e-002 -6.056517e-002 0.000000e+000
    outer loop
      vertex   -1.235191e+002 4.575066e+001 5.000000e+000
      vertex   -1.238225e+002 4.565678e+001 0.000000e+000
      vertex   -1.235191e+002 4.575066e+001 0.000000e+000
    endloop
  endfacet
  facet normal 3.622075e-001 -9.320975e-001 0.000000e+000
    outer loop
      vertex   -1.235191e+002 4.575066e+001 5.000000e+000
      vertex   -1.235191e+002 4.575066e+001 0.000000e+000
      vertex   -1.232230e+002 4.586570e+001 5.000000e+000
    endloop
  endfacet
  facet normal 2.296245e-002 -5.909110e-002 0.000000e+000
    outer loop
      vertex   -1.232230e+002 4.586570e+001 5.000000e+000
      vertex   -1.235191e+002 4.575066e+001 0.000000e+000
      vertex   -1.232230e+002 4.586570e+001 0.000000e+000
    endloop
  endfacet
  facet normal 4.270587e-001 -9.042239e-001 0.000000e+000
    outer loop
      vertex   -1.232230e+002 4.586570e+001 5.000000e+000
      vertex   -1.232230e+002 4.586570e+001 0.000000e+000
      vertex   -1.229358e+002 4.600134e+001 5.000000e+000
    endloop
  endfacet
  facet normal 2.707403e-002 -5.732464e-002 0.000000e+000
    outer loop
      vertex   -1.229358e+002 4.600134e+001 5.000000e+000
      vertex   -1.232230e+002 4.586570e+001 0.000000e+000
      vertex   -1.229358e+002 4.600134e+001 0.000000e+000
    endloop
  endfacet
  facet normal 4.897674e-001 -8.718532e-001 0.000000e+000
    outer loop
      vertex   -1.229358e+002 4.600134e+001 5.000000e+000
      vertex   -1.229358e+002 4.600134e+001 0.000000e+000
      vertex   -1.226589e+002 4.615691e+001 5.000000e+000
    endloop
  endfacet
  facet normal 3.105008e-002 -5.527341e-002 0.000000e+000
    outer loop
      vertex   -1.226589e+002 4.615691e+001 5.000000e+000
      vertex   -1.229358e+002 4.600134e+001 0.000000e+000
      vertex   -1.226589e+002 4.615691e+001 0.000000e+000
    endloop
  endfacet
  facet normal 5.500686e-001 -8.351195e-001 0.000000e+000
    outer loop
      vertex   -1.226589e+002 4.615691e+001 5.000000e+000
      vertex   -1.226589e+002 4.615691e+001 0.000000e+000
      vertex   -1.223937e+002 4.633162e+001 5.000000e+000
    endloop
  endfacet
  facet normal 3.487234e-002 -5.294352e-002 0.000000e+000
    outer loop
      vertex   -1.223937e+002 4.633162e+001 5.000000e+000
      vertex   -1.226589e+002 4.615691e+001 0.000000e+000
      vertex   -1.223937e+002 4.633162e+001 0.000000e+000
    endloop
  endfacet
  facet normal 6.075901e-001 -7.942508e-001 0.000000e+000
    outer loop
      vertex   -1.223937e+002 4.633162e+001 5.000000e+000
      vertex   -1.223937e+002 4.633162e+001 0.000000e+000
      vertex   -1.221414e+002 4.652460e+001 5.000000e+000
    endloop
  endfacet
  facet normal 3.851946e-002 -5.035322e-002 0.000000e+000
    outer loop
      vertex   -1.221414e+002 4.652460e+001 5.000000e+000
      vertex   -1.223937e+002 4.633162e+001 0.000000e+000
      vertex   -1.221414e+002 4.652460e+001 0.000000e+000
    endloop
  endfacet
  facet normal 6.621073e-001 -7.494090e-001 0.000000e+000
    outer loop
      vertex   -1.221414e+002 4.652460e+001 5.000000e+000
      vertex   -1.221414e+002 4.652460e+001 0.000000e+000
      vertex   -1.219034e+002 4.673491e+001 5.000000e+000
    endloop
  endfacet
  facet normal 4.197548e-002 -4.751013e-002 0.000000e+000
    outer loop
      vertex   -1.219034e+002 4.673491e+001 5.000000e+000
      vertex   -1.221414e+002 4.652460e+001 0.000000e+000
      vertex   -1.219034e+002 4.673491e+001 0.000000e+000
    endloop
  endfacet
  facet normal 7.133185e-001 -7.008400e-001 0.000000e+000
    outer loop
      vertex   -1.219034e+002 4.673491e+001 5.000000e+000
      vertex   -1.219034e+002 4.673491e+001 0.000000e+000
      vertex   -1.216808e+002 4.696147e+001 5.000000e+000
    endloop
  endfacet
  facet normal 4.522211e-002 -4.443101e-002 0.000000e+000
    outer loop
      vertex   -1.216808e+002 4.696147e+001 5.000000e+000
      vertex   -1.219034e+002 4.673491e+001 0.000000e+000
      vertex   -1.216808e+002 4.696147e+001 0.000000e+000
    endloop
  endfacet
  facet normal 7.609715e-001 -6.487852e-001 0.000000e+000
    outer loop
      vertex   -1.216808e+002 4.696147e+001 5.000000e+000
      vertex   -1.216808e+002 4.696147e+001 0.000000e+000
      vertex   -1.214747e+002 4.720317e+001 5.000000e+000
    endloop
  endfacet
  facet normal 4.824336e-002 -4.113108e-002 0.000000e+000
    outer loop
      vertex   -1.214747e+002 4.720317e+001 5.000000e+000
      vertex   -1.216808e+002 4.696147e+001 0.000000e+000
      vertex   -1.214747e+002 4.720317e+001 0.000000e+000
    endloop
  endfacet
  facet normal 8.048536e-001 -5.934735e-001 0.000000e+000
    outer loop
      vertex   -1.214747e+002 4.720317e+001 5.000000e+000
      vertex   -1.214747e+002 4.720317e+001 0.000000e+000
      vertex   -1.212862e+002 4.745881e+001 5.000000e+000
    endloop
  endfacet
  facet normal 5.102478e-002 -3.762405e-002 0.000000e+000
    outer loop
      vertex   -1.212862e+002 4.745881e+001 5.000000e+000
      vertex   -1.214747e+002 4.720317e+001 0.000000e+000
      vertex   -1.212862e+002 4.745881e+001 0.000000e+000
    endloop
  endfacet
  facet normal 8.447009e-001 -5.352386e-001 0.000000e+000
    outer loop
      vertex   -1.212862e+002 4.745881e+001 5.000000e+000
      vertex   -1.212862e+002 4.745881e+001 0.000000e+000
      vertex   -1.211162e+002 4.772711e+001 5.000000e+000
    endloop
  endfacet
  facet normal 5.355188e-002 -3.393276e-002 0.000000e+000
    outer loop
      vertex   -1.211162e+002 4.772711e+001 5.000000e+000
      vertex   -1.212862e+002 4.745881e+001 0.000000e+000
      vertex   -1.211162e+002 4.772711e+001 0.000000e+000
    endloop
  endfacet
  facet normal 8.803596e-001 -4.743068e-001 0.000000e+000
    outer loop
      vertex   -1.211162e+002 4.772711e+001 5.000000e+000
      vertex   -1.211162e+002 4.772711e+001 0.000000e+000
      vertex   -1.209655e+002 4.800673e+001 5.000000e+000
    endloop
  endfacet
  facet normal 5.581173e-002 -3.006940e-002 0.000000e+000
    outer loop
      vertex   -1.209655e+002 4.800673e+001 5.000000e+000
      vertex   -1.211162e+002 4.772711e+001 0.000000e+000
      vertex   -1.209655e+002 4.800673e+001 0.000000e+000
    endloop
  endfacet
  facet normal 9.116192e-001 -4.110357e-001 0.000000e+000
    outer loop
      vertex   -1.209655e+002 4.800673e+001 5.000000e+000
      vertex   -1.209655e+002 4.800673e+001 0.000000e+000
      vertex   -1.208350e+002 4.829628e+001 5.000000e+000
    endloop
  endfacet
  facet normal 5.779367e-002 -2.605832e-002 0.000000e+000
    outer loop
      vertex   -1.208350e+002 4.829628e+001 5.000000e+000
      vertex   -1.209655e+002 4.800673e+001 0.000000e+000
      vertex   -1.208350e+002 4.829628e+001 0.000000e+000
    endloop
  endfacet
  facet normal 9.383460e-001 -3.456976e-001 0.000000e+000
    outer loop
      vertex   -1.208350e+002 4.829628e+001 5.000000e+000
      vertex   -1.208350e+002 4.829628e+001 0.000000e+000
      vertex   -1.207252e+002 4.859433e+001 5.000000e+000
    endloop
  endfacet
  facet normal 5.948855e-002 -2.191627e-002 0.000000e+000
    outer loop
      vertex   -1.207252e+002 4.859433e+001 5.000000e+000
      vertex   -1.208350e+002 4.829628e+001 0.000000e+000
      vertex   -1.207252e+002 4.859433e+001 0.000000e+000
    endloop
  endfacet
  facet normal 9.603901e-001 -2.786590e-001 0.000000e+000
    outer loop
      vertex   -1.207252e+002 4.859433e+001 5.000000e+000
      vertex   -1.207252e+002 4.859433e+001 0.000000e+000
      vertex   -1.206367e+002 4.889937e+001 5.000000e+000
    endloop
  endfacet
  facet normal 6.088573e-002 -1.766611e-002 0.000000e+000
    outer loop
      vertex   -1.206367e+002 4.889937e+001 5.000000e+000
      vertex   -1.207252e+002 4.859433e+001 0.000000e+000
      vertex   -1.206367e+002 4.889937e+001 0.000000e+000
    endloop
  endfacet
  facet normal 9.776577e-001 -2.102033e-001 0.000000e+000
    outer loop
      vertex   -1.206367e+002 4.889937e+001 5.000000e+000
      vertex   -1.206367e+002 4.889937e+001 0.000000e+000
      vertex   -1.205699e+002 4.920989e+001 5.000000e+000
    endloop
  endfacet
  facet normal 6.197987e-002 -1.332611e-002 0.000000e+000
    outer loop
      vertex   -1.205699e+002 4.920989e+001 5.000000e+000
      vertex   -1.206367e+002 4.889937e+001 0.000000e+000
      vertex   -1.205699e+002 4.920989e+001 0.000000e+000
    endloop
  endfacet
  facet normal 9.900475e-001 -1.407336e-001 0.000000e+000
    outer loop
      vertex   -1.205699e+002 4.920989e+001 5.000000e+000
      vertex   -1.205699e+002 4.920989e+001 0.000000e+000
      vertex   -1.205252e+002 4.952436e+001 5.000000e+000
    endloop
  endfacet
  facet normal 6.276640e-002 -8.922140e-003 0.000000e+000
    outer loop
      vertex   -1.205252e+002 4.952436e+001 5.000000e+000
      vertex   -1.205699e+002 4.920989e+001 0.000000e+000
      vertex   -1.205252e+002 4.952436e+001 0.000000e+000
    endloop
  endfacet
  facet normal 9.975084e-001 -7.054800e-002 0.000000e+000
    outer loop
      vertex   -1.205252e+002 4.952436e+001 5.000000e+000
      vertex   -1.205252e+002 4.952436e+001 0.000000e+000
      vertex   -1.205028e+002 4.984119e+001 5.000000e+000
    endloop
  endfacet
  facet normal 6.323847e-002 -4.472491e-003 0.000000e+000
    outer loop
      vertex   -1.205028e+002 4.984119e+001 5.000000e+000
      vertex   -1.205252e+002 4.952436e+001 0.000000e+000
      vertex   -1.205028e+002 4.984119e+001 0.000000e+000
    endloop
  endfacet
  facet normal 1.000000e+000 -0.000000e+000 0.000000e+000
    outer loop
      vertex   -1.205028e+002 4.984119e+001 5.000000e+000
      vertex   -1.205028e+002 4.984119e+001 0.000000e+000
      vertex   -1.205028e+002 5.015881e+001 5.000000e+000
    endloop
  endfacet
  facet normal 6.339760e-002 0.000000e+000 0.000000e+000
    outer loop
      vertex   -1.205028e+002 5.015881e+001 5.000000e+000
      vertex   -1.205028e+002 4.984119e+001 0.000000e+000
      vertex   -1.205028e+002 5.015881e+001 0.000000e+000
    endloop
  endfacet
  facet normal 9.975084e-001 7.054800e-002 0.000000e+000
    outer loop
      vertex   -1.205028e+002 5.015881e+001 5.000000e+000
      vertex   -1.205028e+002 5.015881e+001 0.000000e+000
      vertex   -1.205252e+002 5.047564e+001 5.000000e+000
    endloop
  endfacet
  facet normal 6.323847e-002 4.472491e-003 0.000000e+000
    outer loop
      vertex   -1.205252e+002 5.047564e+001 5.000000e+000
      vertex   -1.205028e+002 5.015881e+001 0.000000e+000
      vertex   -1.205252e+002 5.047564e+001 0.000000e+000
    endloop
  endfacet
  facet normal 9.900475e-001 1.407336e-001 0.000000e+000
    outer loop
      vertex   -1.205252e+002 5.047564e+001 5.000000e+000
      vertex   -1.205252e+002 5.047564e+001 0.000000e+000
      vertex   -1.205699e+002 5.079011e+001 5.000000e+000
    endloop
  endfacet
  facet normal 6.276640e-002 8.922140e-003 0.000000e+000
    outer loop
      vertex   -1.205699e+002 5.079011e+001 5.000000e+000
      vertex   -1.205252e+002 5.047564e+001 0.000000e+000
      vertex   -1.205699e+002 5.079011e+001 0.000000e+000
    endloop
  endfacet
  facet normal 9.776577e-001 2.102033e-001 0.000000e+000
    outer loop
      vertex   -1.205699e+002 5.079011e+001 5.000000e+000
      vertex   -1.205699e+002 5.079011e+001 0.000000e+000
      vertex   -1.206367e+002 5.110063e+001 5.000000e+000
    endloop
  endfacet
  facet normal 6.197987e-002 1.332611e-002 0.000000e+000
    outer loop
      vertex   -1.206367e+002 5.110063e+001 5.000000e+000
      vertex   -1.205699e+002 5.079011e+001 0.000000e+000
      vertex   -1.206367e+002 5.110063e+001 0.000000e+000
    endloop
  endfacet
  facet normal 9.603901e-001 2.786590e-001 0.000000e+000
    outer loop
      vertex   -1.206367e+002 5.110063e+001 5.000000e+000
      vertex   -1.206367e+002 5.110063e+001 0.000000e+000
      vertex   -1.207252e+002 5.140567e+001 5.000000e+000
    endloop
  endfacet
  facet normal 6.088573e-002 1.766611e-002 0.000000e+000
    outer loop
      vertex   -1.207252e+002 5.140567e+001 5.000000e+000
      vertex   -1.206367e+002 5.110063e+001 0.000000e+000
      vertex   -1.207252e+002 5.140567e+001 0.000000e+000
    endloop
  endfacet
  facet normal 9.383460e-001 3.456976e-001 0.000000e+000
    outer loop
      vertex   -1.207252e+002 5.140567e+001 5.000000e+000
      vertex   -1.207252e+002 5.140567e+001 0.000000e+000
      vertex   -1.208350e+002 5.170372e+001 5.000000e+000
    endloop
  endfacet
  facet normal 5.948855e-002 2.191627e-002 0.000000e+000
    outer loop
      vertex   -1.208350e+002 5.170372e+001 5.000000e+000
      vertex   -1.207252e+002 5.140567e+001 0.000000e+000
      vertex   -1.208350e+002 5.170372e+001 0.000000e+000
    endloop
  endfacet
  facet normal 9.116192e-001 4.110357e-001 0.000000e+000
    outer loop
      vertex   -1.208350e+002 5.170372e+001 5.000000e+000
      vertex   -1.208350e+002 5.170372e+001 0.000000e+000
      vertex   -1.209655e+002 5.199327e+001 5.000000e+000
    endloop
  endfacet
  facet normal 5.779367e-002 2.605832e-002 0.000000e+000
    outer loop
      vertex   -1.209655e+002 5.199327e+001 5.000000e+000
      vertex   -1.208350e+002 5.170372e+001 0.000000e+000
      vertex   -1.209655e+002 5.199327e+001 0.000000e+000
    endloop
  endfacet
  facet normal 8.803596e-001 4.743068e-001 0.000000e+000
    outer loop
      vertex   -1.209655e+002 5.199327e+001 5.000000e+000
      vertex   -1.209655e+002 5.199327e+001 0.000000e+000
      vertex   -1.211162e+002 5.227289e+001 5.000000e+000
    endloop
  endfacet
  facet normal 5.581173e-002 3.006940e-002 0.000000e+000
    outer loop
      vertex   -1.211162e+002 5.227289e+001 5.000000e+000
      vertex   -1.209655e+002 5.199327e+001 0.000000e+000
      vertex   -1.211162e+002 5.227289e+001 0.000000e+000
    endloop
  endfacet
  facet normal 8.447009e-001 5.352386e-001 0.000000e+000
    outer loop
      vertex   -1.211162e+002 5.227289e+001 5.000000e+000
      vertex   -1.211162e+002 5.227289e+001 0.000000e+000
      vertex   -1.212862e+002 5.254119e+001 5.000000e+000
    endloop
  endfacet
  facet normal 5.355188e-002 3.393276e-002 0.000000e+000
    outer loop
      vertex   -1.212862e+002 5.254119e+001 5.000000e+000
      vertex   -1.211162e+002 5.227289e+001 0.000000e+000
      vertex   -1.212862e+002 5.254119e+001 0.000000e+000
    endloop
  endfacet
  facet normal 8.048536e-001 5.934735e-001 0.000000e+000
    outer loop
      vertex   -1.212862e+002 5.254119e+001 5.000000e+000
      vertex   -1.212862e+002 5.254119e+001 0.000000e+000
      vertex   -1.214747e+002 5.279683e+001 5.000000e+000
    endloop
  endfacet
  facet normal 5.102478e-002 3.762405e-002 0.000000e+000
    outer loop
      vertex   -1.214747e+002 5.279683e+001 5.000000e+000
      vertex   -1.212862e+002 5.254119e+001 0.000000e+000
      vertex   -1.214747e+002 5.279683e+001 0.000000e+000
    endloop
  endfacet
  facet normal 7.609715e-001 6.487852e-001 0.000000e+000
    outer loop
      vertex   -1.214747e+002 5.279683e+001 5.000000e+000
      vertex   -1.214747e+002 5.279683e+001 0.000000e+000
      vertex   -1.216808e+002 5.303853e+001 5.000000e+000
    endloop
  endfacet
  facet normal 4.824336e-002 4.113108e-002 0.000000e+000
    outer loop
      vertex   -1.216808e+002 5.303853e+001 5.000000e+000
      vertex   -1.214747e+002 5.279683e+001 0.000000e+000
      vertex   -1.216808e+002 5.303853e+001 0.000000e+000
    endloop
  endfacet
  facet normal 7.133185e-001 7.008400e-001 0.000000e+000
    outer loop
      vertex   -1.216808e+002 5.303853e+001 5.000000e+000
      vertex   -1.216808e+002 5.303853e+001 0.000000e+000
      vertex   -1.219034e+002 5.326509e+001 5.000000e+000
    endloop
  endfacet
  facet normal 4.522211e-002 4.443101e-002 0.000000e+000
    outer loop
      vertex   -1.219034e+002 5.326509e+001 5.000000e+000
      vertex   -1.216808e+002 5.303853e+001 0.000000e+000
      vertex   -1.219034e+002 5.326509e+001 0.000000e+000
    endloop
  endfacet
  facet normal 6.621073e-001 7.494090e-001 0.000000e+000
    outer loop
      vertex   -1.219034e+002 5.326509e+001 5.000000e+000
      vertex   -1.219034e+002 5.326509e+001 0.000000e+000
      vertex   -1.221414e+002 5.347540e+001 5.000000e+000
    endloop
  endfacet
  facet normal 4.197548e-002 4.751013e-002 0.000000e+000
    outer loop
      vertex   -1.221414e+002 5.347540e+001 5.000000e+000
      vertex   -1.219034e+002 5.326509e+001 0.000000e+000
      vertex   -1.221414e+002 5.347540e+001 0.000000e+000
    endloop
  endfacet
  facet normal 6.075901e-001 7.942508e-001 0.000000e+000
    outer loop
      vertex   -1.221414e+002 5.347540e+001 5.000000e+000
      vertex   -1.221414e+002 5.347540e+001 0.000000e+000
      vertex   -1.223937e+002 5.366838e+001 5.000000e+000
    endloop
  endfacet
  facet normal 3.851946e-002 5.035322e-002 0.000000e+000
    outer loop
      vertex   -1.223937e+002 5.366838e+001 5.000000e+000
      vertex   -1.221414e+002 5.347540e+001 0.000000e+000
      vertex   -1.223937e+002 5.366838e+001 0.000000e+000
    endloop
  endfacet
  facet normal 5.500686e-001 8.351195e-001 0.000000e+000
    outer loop
      vertex   -1.223937e+002 5.366838e+001 5.000000e+000
      vertex   -1.223937e+002 5.366838e+001 0.000000e+000
      vertex   -1.226589e+002 5.384309e+001 5.000000e+000
    endloop
  endfacet
  facet normal 3.487234e-002 5.294352e-002 0.000000e+000
    outer loop
      vertex   -1.226589e+002 5.384309e+001 5.000000e+000
      vertex   -1.223937e+002 5.366838e+001 0.000000e+000
      vertex   -1.226589e+002 5.384309e+001 0.000000e+000
    endloop
  endfacet
  facet normal 4.897674e-001 8.718532e-001 0.000000e+000
    outer loop
      vertex   -1.226589e+002 5.384309e+001 5.000000e+000
      vertex   -1.226589e+002 5.384309e+001 0.000000e+000
      vertex   -1.229358e+002 5.399866e+001 5.000000e+000
    endloop
  endfacet
  facet normal 3.105008e-002 5.527341e-002 0.000000e+000
    outer loop
      vertex   -1.229358e+002 5.399866e+001 5.000000e+000
      vertex   -1.226589e+002 5.384309e+001 0.000000e+000
      vertex   -1.229358e+002 5.399866e+001 0.000000e+000
    endloop
  endfacet
  facet normal 4.270587e-001 9.042239e-001 0.000000e+000
    outer loop
      vertex   -1.229358e+002 5.399866e+001 5.000000e+000
      vertex   -1.229358e+002 5.399866e+001 0.000000e+000
      vertex   -1.232230e+002 5.413430e+001 5.000000e+000
    endloop
  endfacet
  facet normal 2.707403e-002 5.732464e-002 0.000000e+000
    outer loop
      vertex   -1.232230e+002 5.413430e+001 5.000000e+000
      vertex   -1.229358e+002 5.399866e+001 0.000000e+000
      vertex   -1.232230e+002 5.413430e+001 0.000000e+000
    endloop
  endfacet
  facet normal 3.622075e-001 9.320975e-001 0.000000e+000
    outer loop
      vertex   -1.232230e+002 5.413430e+001 5.000000e+000
      vertex   -1.232230e+002 5.413430e+001 0.000000e+000
      vertex   -1.235191e+002 5.424934e+001 5.000000e+000
    endloop
  endfacet
  facet normal 2.296245e-002 5.909110e-002 0.000000e+000
    outer loop
      vertex   -1.235191e+002 5.424934e+001 5.000000e+000
      vertex   -1.232230e+002 5.413430e+001 0.000000e+000
      vertex   -1.235191e+002 5.424934e+001 0.000000e+000
    endloop
  endfacet
  facet normal 2.955548e-001 9.553258e-001 0.000000e+000
    outer loop
      vertex   -1.235191e+002 5.424934e+001 5.000000e+000
      vertex   -1.235191e+002 5.424934e+001 0.000000e+000
      vertex   -1.238225e+002 5.434322e+001 5.000000e+000
    endloop
  endfacet
  facet normal 1.873741e-002 6.056517e-002 0.000000e+000
    outer loop
      vertex   -1.238225e+002 5.434322e+001 5.000000e+000
      vertex   -1.235191e+002 5.424934e+001 0.000000e+000
      vertex   -1.238225e+002 5.434322e+001 0.000000e+000
    endloop
  endfacet
  facet normal 2.274331e-001 9.737937e-001 0.000000e+000
    outer loop
      vertex   -1.238225e+002 5.434322e+001 5.000000e+000
      vertex   -1.238225e+002 5.434322e+001 0.000000e+000
      vertex   -1.241318e+002 5.441546e+001 5.000000e+000
    endloop
  endfacet
  facet normal 1.441872e-002 6.173621e-002 0.000000e+000
    outer loop
      vertex   -1.241318e+002 5.441546e+001 5.000000e+000
      vertex   -1.238225e+002 5.434322e+001 0.000000e+000
      vertex   -1.241318e+002 5.441546e+001 0.000000e+000
    endloop
  endfacet
  facet normal 1.581868e-001 9.874092e-001 0.000000e+000
    outer loop
      vertex   -1.241318e+002 5.441546e+001 5.000000e+000
      vertex   -1.241318e+002 5.441546e+001 0.000000e+000
      vertex   -1.244455e+002 5.446570e+001 5.000000e+000
    endloop
  endfacet
  facet normal 1.002846e-002 6.259813e-002 0.000000e+000
    outer loop
      vertex   -1.244455e+002 5.446570e+001 5.000000e+000
      vertex   -1.241318e+002 5.441546e+001 0.000000e+000
      vertex   -1.244455e+002 5.446570e+001 0.000000e+000
    endloop
  endfacet
  facet normal 8.813146e-002 9.961088e-001 0.000000e+000
    outer loop
      vertex   -1.244455e+002 5.446570e+001 5.000000e+000
      vertex   -1.244455e+002 5.446570e+001 0.000000e+000
      vertex   -1.247618e+002 5.449369e+001 5.000000e+000
    endloop
  endfacet
  facet normal 5.587188e-003 6.314939e-002 0.000000e+000
    outer loop
      vertex   -1.247618e+002 5.449369e+001 5.000000e+000
      vertex   -1.244455e+002 5.446570e+001 0.000000e+000
      vertex   -1.247618e+002 5.449369e+001 0.000000e+000
    endloop
  endfacet
  facet normal 1.764290e-002 9.998444e-001 0.000000e+000
    outer loop
      vertex   -1.247618e+002 5.449369e+001 5.000000e+000
      vertex   -1.247618e+002 5.449369e+001 0.000000e+000
      vertex   -1.250794e+002 5.449930e+001 5.000000e+000
    endloop
  endfacet
  facet normal 1.118504e-003 6.338695e-002 0.000000e+000
    outer loop
      vertex   -1.250794e+002 5.449930e+001 5.000000e+000
      vertex   -1.247618e+002 5.449369e+001 0.000000e+000
      vertex   -1.250794e+002 5.449930e+001 0.000000e+000
    endloop
  endfacet
  facet normal -5.291561e-002 9.985990e-001 0.000000e+000
    outer loop
      vertex   -1.250794e+002 5.449930e+001 5.000000e+000
      vertex   -1.250794e+002 5.449930e+001 0.000000e+000
      vertex   -1.253966e+002 5.448249e+001 5.000000e+000
    endloop
  endfacet
  facet normal -3.354749e-003 6.330927e-002 0.000000e+000
    outer loop
      vertex   -1.253966e+002 5.448249e+001 5.000000e+000
      vertex   -1.250794e+002 5.449930e+001 0.000000e+000
      vertex   -1.253966e+002 5.448249e+001 0.000000e+000
    endloop
  endfacet
  facet normal -1.232365e-001 9.923773e-001 0.000000e+000
    outer loop
      vertex   -1.253966e+002 5.448249e+001 5.000000e+000
      vertex   -1.253966e+002 5.448249e+001 0.000000e+000
      vertex   -1.257118e+002 5.444335e+001 5.000000e+000
    endloop
  endfacet
  facet normal -7.812774e-003 6.291335e-002 0.000000e+000
    outer loop
      vertex   -1.257118e+002 5.444335e+001 5.000000e+000
      vertex   -1.253966e+002 5.448249e+001 0.000000e+000
      vertex   -1.257118e+002 5.444335e+001 0.000000e+000
    endloop
  endfacet
  facet normal -1.929324e-001 9.812121e-001 0.000000e+000
    outer loop
      vertex   -1.257118e+002 5.444335e+001 5.000000e+000
      vertex   -1.257118e+002 5.444335e+001 0.000000e+000
      vertex   -1.260235e+002 5.438207e+001 5.000000e+000
    endloop
  endfacet
  facet normal -1.223121e-002 6.220524e-002 0.000000e+000
    outer loop
      vertex   -1.260235e+002 5.438207e+001 5.000000e+000
      vertex   -1.257118e+002 5.444335e+001 0.000000e+000
      vertex   -1.260235e+002 5.438207e+001 0.000000e+000
    endloop
  endfacet
  facet normal -2.616537e-001 9.651618e-001 0.000000e+000
    outer loop
      vertex   -1.260235e+002 5.438207e+001 5.000000e+000
      vertex   -1.260235e+002 5.438207e+001 0.000000e+000
      vertex   -1.263300e+002 5.429896e+001 5.000000e+000
    endloop
  endfacet
  facet normal -1.658796e-002 6.118801e-002 0.000000e+000
    outer loop
      vertex   -1.263300e+002 5.429896e+001 5.000000e+000
      vertex   -1.260235e+002 5.438207e+001 0.000000e+000
      vertex   -1.263300e+002 5.429896e+001 0.000000e+000
    endloop
  endfacet
  facet normal -3.290865e-001 9.442998e-001 0.000000e+000
    outer loop
      vertex   -1.263300e+002 5.429896e+001 5.000000e+000
      vertex   -1.263300e+002 5.429896e+001 0.000000e+000
      vertex   -1.266299e+002 5.419444e+001 5.000000e+000
    endloop
  endfacet
  facet normal -2.086325e-002 5.986620e-002 0.000000e+000
    outer loop
      vertex   -1.266299e+002 5.419444e+001 5.000000e+000
      vertex   -1.263300e+002 5.429896e+001 0.000000e+000
      vertex   -1.266299e+002 5.419444e+001 0.000000e+000
    endloop
  endfacet
  facet normal -3.948830e-001 9.187314e-001 0.000000e+000
    outer loop
      vertex   -1.266299e+002 5.419444e+001 5.000000e+000
      vertex   -1.266299e+002 5.419444e+001 0.000000e+000
      vertex   -1.269218e+002 5.406901e+001 5.000000e+000
    endloop
  endfacet
  facet normal -2.503423e-002 5.824442e-002 0.000000e+000
    outer loop
      vertex   -1.269218e+002 5.406901e+001 5.000000e+000
      vertex   -1.266299e+002 5.419444e+001 0.000000e+000
      vertex   -1.269218e+002 5.406901e+001 0.000000e+000
    endloop
  endfacet
  facet normal -4.587063e-001 8.885880e-001 0.000000e+000
    outer loop
      vertex   -1.269218e+002 5.406901e+001 5.000000e+000
      vertex   -1.269218e+002 5.406901e+001 0.000000e+000
      vertex   -1.272040e+002 5.392332e+001 5.000000e+000
    endloop
  endfacet
  facet normal -2.908033e-002 5.633329e-002 0.000000e+000
    outer loop
      vertex   -1.272040e+002 5.392332e+001 5.000000e+000
      vertex   -1.269218e+002 5.406901e+001 0.000000e+000
      vertex   -1.272040e+002 5.392332e+001 0.000000e+000
    endloop
  endfacet
  facet normal -5.202243e-001 8.540297e-001 0.000000e+000
    outer loop
      vertex   -1.272040e+002 5.392332e+001 5.000000e+000
      vertex   -1.272040e+002 5.392332e+001 0.000000e+000
      vertex   -1.274753e+002 5.375808e+001 5.000000e+000
    endloop
  endfacet
  facet normal -3.298100e-002 5.414349e-002 0.000000e+000
    outer loop
      vertex   -1.274753e+002 5.375808e+001 5.000000e+000
      vertex   -1.272040e+002 5.392332e+001 0.000000e+000
      vertex   -1.274753e+002 5.375808e+001 0.000000e+000
    endloop
  endfacet
  facet normal -5.791970e-001 8.151876e-001 0.000000e+000
    outer loop
      vertex   -1.274753e+002 5.375808e+001 5.000000e+000
      vertex   -1.274753e+002 5.375808e+001 0.000000e+000
      vertex   -1.277342e+002 5.357412e+001 5.000000e+000
    endloop
  endfacet
  facet normal -3.671874e-002 5.167959e-002 0.000000e+000
    outer loop
      vertex   -1.277342e+002 5.357412e+001 5.000000e+000
      vertex   -1.274753e+002 5.375808e+001 0.000000e+000
      vertex   -1.277342e+002 5.357412e+001 0.000000e+000
    endloop
  endfacet
  facet normal -6.352428e-001 7.723125e-001 0.000000e+000
    outer loop
      vertex   -1.277342e+002 5.357412e+001 5.000000e+000
      vertex   -1.277342e+002 5.357412e+001 0.000000e+000
      vertex   -1.279795e+002 5.337234e+001 5.000000e+000
    endloop
  endfacet
  facet normal -4.027298e-002 4.896289e-002 0.000000e+000
    outer loop
      vertex   -1.279795e+002 5.337234e+001 5.000000e+000
      vertex   -1.277342e+002 5.357412e+001 0.000000e+000
      vertex   -1.279795e+002 5.337234e+001 0.000000e+000
    endloop
  endfacet
  facet normal -6.881469e-001 7.255713e-001 0.000000e+000
    outer loop
      vertex   -1.279795e+002 5.337234e+001 5.000000e+000
      vertex   -1.279795e+002 5.337234e+001 0.000000e+000
      vertex   -1.282099e+002 5.315378e+001 5.000000e+000
    endloop
  endfacet
  facet normal -4.362545e-002 4.599798e-002 0.000000e+000
    outer loop
      vertex   -1.282099e+002 5.315378e+001 5.000000e+000
      vertex   -1.279795e+002 5.337234e+001 0.000000e+000
      vertex   -1.282099e+002 5.315378e+001 0.000000e+000
    endloop
  endfacet
  facet normal -7.375967e-001 6.752415e-001 0.000000e+000
    outer loop
      vertex   -1.282099e+002 5.315378e+001 5.000000e+000
      vertex   -1.282099e+002 5.315378e+001 0.000000e+000
      vertex   -1.284244e+002 5.291949e+001 5.000000e+000
    endloop
  endfacet
  facet normal -4.676243e-002 4.280921e-002 0.000000e+000
    outer loop
      vertex   -1.284244e+002 5.291949e+001 5.000000e+000
      vertex   -1.282099e+002 5.315378e+001 0.000000e+000
      vertex   -1.284244e+002 5.291949e+001 0.000000e+000
    endloop
  endfacet
  facet normal -7.834073e-001 6.215086e-001 0.000000e+000
    outer loop
      vertex   -1.284244e+002 5.291949e+001 5.000000e+000
      vertex   -1.284244e+002 5.291949e+001 0.000000e+000
      vertex   -1.286218e+002 5.267067e+001 5.000000e+000
    endloop
  endfacet
  facet normal -4.966491e-002 3.940117e-002 0.000000e+000
    outer loop
      vertex   -1.286218e+002 5.267067e+001 5.000000e+000
      vertex   -1.284244e+002 5.291949e+001 0.000000e+000
      vertex   -1.286218e+002 5.267067e+001 0.000000e+000
    endloop
  endfacet
  facet normal -8.252860e-001 5.647149e-001 0.000000e+000
    outer loop
      vertex   -1.286218e+002 5.267067e+001 5.000000e+000
      vertex   -1.286218e+002 5.267067e+001 0.000000e+000
      vertex   -1.288012e+002 5.240854e+001 5.000000e+000
    endloop
  endfacet
  facet normal -5.232069e-002 3.580125e-002 0.000000e+000
    outer loop
      vertex   -1.288012e+002 5.240854e+001 5.000000e+000
      vertex   -1.286218e+002 5.267067e+001 0.000000e+000
      vertex   -1.288012e+002 5.240854e+001 0.000000e+000
    endloop
  endfacet
  facet normal -8.630645e-001 5.050937e-001 0.000000e+000
    outer loop
      vertex   -1.288012e+002 5.240854e+001 5.000000e+000
      vertex   -1.288012e+002 5.240854e+001 0.000000e+000
      vertex   -1.289616e+002 5.213441e+001 5.000000e+000
    endloop
  endfacet
  facet normal -5.471607e-002 3.202163e-002 0.000000e+000
    outer loop
      vertex   -1.289616e+002 5.213441e+001 5.000000e+000
      vertex   -1.288012e+002 5.240854e+001 0.000000e+000
      vertex   -1.289616e+002 5.213441e+001 0.000000e+000
    endloop
  endfacet
  facet normal -8.965524e-001 4.429376e-001 0.000000e+000
    outer loop
      vertex   -1.289616e+002 5.213441e+001 5.000000e+000
      vertex   -1.289616e+002 5.213441e+001 0.000000e+000
      vertex   -1.291023e+002 5.184964e+001 5.000000e+000
    endloop
  endfacet
  facet normal -5.683810e-002 2.808061e-002 0.000000e+000
    outer loop
      vertex   -1.291023e+002 5.184964e+001 5.000000e+000
      vertex   -1.289616e+002 5.213441e+001 0.000000e+000
      vertex   -1.291023e+002 5.184964e+001 0.000000e+000
    endloop
  endfacet
  facet normal -9.255579e-001 3.786062e-001 0.000000e+000
    outer loop
      vertex   -1.291023e+002 5.184964e+001 5.000000e+000
      vertex   -1.291023e+002 5.184964e+001 0.000000e+000
      vertex   -1.292225e+002 5.155566e+001 5.000000e+000
    endloop
  endfacet
  facet normal -5.867765e-002 2.400252e-002 0.000000e+000
    outer loop
      vertex   -1.292225e+002 5.155566e+001 5.000000e+000
      vertex   -1.291023e+002 5.184964e+001 0.000000e+000
      vertex   -1.292225e+002 5.155566e+001 0.000000e+000
    endloop
  endfacet
  facet normal -9.499641e-001 3.123591e-001 0.000000e+000
    outer loop
      vertex   -1.292225e+002 5.155566e+001 5.000000e+000
      vertex   -1.292225e+002 5.155566e+001 0.000000e+000
      vertex   -1.293218e+002 5.125393e+001 5.000000e+000
    endloop
  endfacet
  facet normal -6.022483e-002 1.980261e-002 0.000000e+000
    outer loop
      vertex   -1.293218e+002 5.125393e+001 5.000000e+000
      vertex   -1.292225e+002 5.155566e+001 0.000000e+000
      vertex   -1.293218e+002 5.125393e+001 0.000000e+000
    endloop
  endfacet
  facet normal -9.696303e-001 2.445754e-001 0.000000e+000
    outer loop
      vertex   -1.293218e+002 5.125393e+001 5.000000e+000
      vertex   -1.293218e+002 5.125393e+001 0.000000e+000
      vertex   -1.293994e+002 5.094596e+001 5.000000e+000
    endloop
  endfacet
  facet normal -6.147125e-002 1.550525e-002 0.000000e+000
    outer loop
      vertex   -1.293994e+002 5.094596e+001 5.000000e+000
      vertex   -1.293218e+002 5.125393e+001 0.000000e+000
      vertex   -1.293994e+002 5.094596e+001 0.000000e+000
    endloop
  endfacet
  facet normal -9.844636e-001 1.755890e-001 0.000000e+000
    outer loop
      vertex   -1.293994e+002 5.094596e+001 5.000000e+000
      vertex   -1.293994e+002 5.094596e+001 0.000000e+000
      vertex   -1.294552e+002 5.063327e+001 5.000000e+000
    endloop
  endfacet
  facet normal -6.241158e-002 1.113174e-002 0.000000e+000
    outer loop
      vertex   -1.294552e+002 5.063327e+001 5.000000e+000
      vertex   -1.293994e+002 5.094596e+001 0.000000e+000
      vertex   -1.294552e+002 5.063327e+001 0.000000e+000
    endloop
  endfacet
  facet normal -9.943992e-001 1.056888e-001 0.000000e+000
    outer loop
      vertex   -1.294552e+002 5.063327e+001 5.000000e+000
      vertex   -1.294552e+002 5.063327e+001 0.000000e+000
      vertex   -1.294888e+002 5.031742e+001 5.000000e+000
    endloop
  endfacet
  facet normal -6.304202e-002 6.700362e-003 0.000000e+000
    outer loop
      vertex   -1.294888e+002 5.031742e+001 5.000000e+000
      vertex   -1.294552e+002 5.063327e+001 0.000000e+000
      vertex   -1.294888e+002 5.031742e+001 0.000000e+000
    endloop
  endfacet
  facet normal 0.000000e+000 -0.000000e+000 9.998439e-001
    outer loop
      vertex   -1.294888e+002 4.968258e+001 5.000000e+000
      vertex   -1.205028e+002 4.984119e+001 5.000000e+000
      vertex   -1.295000e+002 5.000000e+001 5.000000e+000
    endloop
  endfacet
  facet normal -0.000000e+000 0.000000e+000 3.529187e-002
    outer loop
      vertex   -1.295000e+002 5.000000e+001 5.000000e+000
      vertex   -1.205028e+002 4.984119e+001 5.000000e+000
      vertex   -1.205028e+002 5.015881e+001 5.000000e+000
    endloop
  endfacet
  facet normal 0.000000e+000 0.000000e+000 9.985976e-001
    outer loop
      vertex   -1.295000e+002 5.000000e+001 5.000000e+000
      vertex   -1.205028e+002 5.015881e+001 5.000000e+000
      vertex   -1.294888e+002 5.031742e+001 5.000000e+000
    endloop
  endfacet
  facet normal -0.000000e+000 0.000000e+000 3.529122e-002
    outer loop
      vertex   -1.294888e+002 5.031742e+001 5.000000e+000
      vertex   -1.205028e+002 5.015881e+001 5.000000e+000
      vertex   -1.205252e+002 5.047564e+001 5.000000e+000
    endloop
  endfacet
  facet normal 0.000000e+000 0.000000e+000 9.923791e-001
    outer loop
      vertex   -1.294888e+002 5.031742e+001 5.000000e+000
      vertex   -1.205252e+002 5.047564e+001 5.000000e+000
      vertex   -1.294552e+002 5.063327e+001 5.000000e+000
    endloop
  endfacet
  facet normal -0.000000e+000 0.000000e+000 3.529173e-002
    outer loop
      vertex   -1.294552e+002 5.063327e+001 5.000000e+000
      vertex   -1.205252e+002 5.047564e+001 5.000000e+000
      vertex   -1.205699e+002 5.079011e+001 5.000000e+000
    endloop
  endfacet
  facet normal 0.000000e+000 0.000000e+000 9.812113e-001
    outer loop
      vertex   -1.294552e+002 5.063327e+001 5.000000e+000
      vertex   -1.205699e+002 5.079011e+001 5.000000e+000
      vertex   -1.293994e+002 5.094596e+001 5.000000e+000
    endloop
  endfacet
  facet normal -0.000000e+000 0.000000e+000 3.529125e-002
    outer loop
      vertex   -1.293994e+002 5.094596e+001 5.000000e+000
      vertex   -1.205699e+002 5.079011e+001 5.000000e+000
      vertex   -1.206367e+002 5.110063e+001 5.000000e+000
    endloop
  endfacet
  facet normal 0.000000e+000 0.000000e+000 9.651629e-001
    outer loop
      vertex   -1.293994e+002 5.094596e+001 5.000000e+000
      vertex   -1.206367e+002 5.110063e+001 5.000000e+000
      vertex   -1.293218e+002 5.125393e+001 5.000000e+000
    endloop
  endfacet
  facet normal -0.000000e+000 0.000000e+000 3.529141e-002
    outer loop
      vertex   -1.293218e+002 5.125393e+001 5.000000e+000
      vertex   -1.206367e+002 5.110063e+001 5.000000e+000
      vertex   -1.207252e+002 5.140567e+001 5.000000e+000
    endloop
  endfacet
  facet normal 0.000000e+000 0.000000e+000 9.443035e-001
    outer loop
      vertex   -1.293218e+002 5.125393e+001 5.000000e+000
      vertex   -1.207252e+002 5.140567e+001 5.000000e+000
      vertex   -1.292225e+002 5.155566e+001 5.000000e+000
    endloop
  endfacet
  facet normal -0.000000e+000 0.000000e+000 3.529175e-002
    outer loop
      vertex   -1.292225e+002 5.155566e+001 5.000000e+000
      vertex   -1.207252e+002 5.140567e+001 5.000000e+000
      vertex   -1.208350e+002 5.170372e+001 5.000000e+000
    endloop
  endfacet
  facet normal 0.000000e+000 0.000000e+000 9.187318e-001
    outer loop
      vertex   -1.292225e+002 5.155566e+001 5.000000e+000
      vertex   -1.208350e+002 5.170372e+001 5.000000e+000
      vertex   -1.291023e+002 5.184964e+001 5.000000e+000
    endloop
  endfacet
  facet normal -0.000000e+000 0.000000e+000 3.529132e-002
    outer loop
      vertex   -1.291023e+002 5.184964e+001 5.000000e+000
      vertex   -1.208350e+002 5.170372e+001 5.000000e+000
      vertex   -1.209655e+002 5.199327e+001 5.000000e+000
    endloop
  endfacet
  facet normal 0.000000e+000 0.000000e+000 8.885956e-001
    outer loop
      vertex   -1.291023e+002 5.184964e+001 5.000000e+000
      vertex   -1.209655e+002 5.199327e+001 5.000000e+000
      vertex   -1.289616e+002 5.213441e+001 5.000000e+000
    endloop
  endfacet
  facet normal -0.000000e+000 0.000000e+000 3.529138e-002
    outer loop
      vertex   -1.289616e+002 5.213441e+001 5.000000e+000
      vertex   -1.209655e+002 5.199327e+001 5.000000e+000
      vertex   -1.211162e+002 5.227289e+001 5.000000e+000
    endloop
  endfacet
  facet normal 0.000000e+000 0.000000e+000 8.540160e-001
    outer loop
      vertex   -1.289616e+002 5.213441e+001 5.000000e+000
      vertex   -1.211162e+002 5.227289e+001 5.000000e+000
      vertex   -1.288012e+002 5.240854e+001 5.000000e+000
    endloop
  endfacet
  facet normal -0.000000e+000 0.000000e+000 3.529157e-002
    outer loop
      vertex   -1.288012e+002 5.240854e+001 5.000000e+000
      vertex   -1.211162e+002 5.227289e+001 5.000000e+000
      vertex   -1.212862e+002 5.254119e+001 5.000000e+000
    endloop
  endfacet
  facet normal 0.000000e+000 0.000000e+000 8.151911e-001
    outer loop
      vertex   -1.288012e+002 5.240854e+001 5.000000e+000
      vertex   -1.212862e+002 5.254119e+001 5.000000e+000
      vertex   -1.286218e+002 5.267067e+001 5.000000e+000
    endloop
  endfacet
  facet normal -0.000000e+000 0.000000e+000 3.529147e-002
    outer loop
      vertex   -1.286218e+002 5.267067e+001 5.000000e+000
      vertex   -1.212862e+002 5.254119e+001 5.000000e+000
      vertex   -1.214747e+002 5.279683e+001 5.000000e+000
    endloop
  endfacet
  facet normal 0.000000e+000 0.000000e+000 7.723166e-001
    outer loop
      vertex   -1.286218e+002 5.267067e+001 5.000000e+000
      vertex   -1.214747e+002 5.279683e+001 5.000000e+000
      vertex   -1.284244e+002 5.291949e+001 5.000000e+000
    endloop
  endfacet
  facet normal -0.000000e+000 0.000000e+000 3.529124e-002
    outer loop
      vertex   -1.284244e+002 5.291949e+001 5.000000e+000
      vertex   -1.214747e+002 5.279683e+001 5.000000e+000
      vertex   -1.216808e+002 5.303853e+001 5.000000e+000
    endloop
  endfacet
  facet normal 0.000000e+000 0.000000e+000 7.255648e-001
    outer loop
      vertex   -1.284244e+002 5.291949e+001 5.000000e+000
      vertex   -1.216808e+002 5.303853e+001 5.000000e+000
      vertex   -1.282099e+002 5.315378e+001 5.000000e+000
    endloop
  endfacet
  facet normal -0.000000e+000 0.000000e+000 3.529143e-002
    outer loop
      vertex   -1.282099e+002 5.315378e+001 5.000000e+000
      vertex   -1.216808e+002 5.303853e+001 5.000000e+000
      vertex   -1.219034e+002 5.326509e+001 5.000000e+000
    endloop
  endfacet
  facet normal 0.000000e+000 0.000000e+000 6.752348e-001
    outer loop
      vertex   -1.282099e+002 5.315378e+001 5.000000e+000
      vertex   -1.219034e+002 5.326509e+001 5.000000e+000
      vertex   -1.279795e+002 5.337234e+001 5.000000e+000
    endloop
  endfacet
  facet normal -0.000000e+000 0.000000e+000 3.529152e-002
    outer loop
      vertex   -1.279795e+002 5.337234e+001 5.000000e+000
      vertex   -1.219034e+002 5.326509e+001 5.000000e+000
      vertex   -1.221414e+002 5.347540e+001 5.000000e+000
    endloop
  endfacet
  facet normal 0.000000e+000 0.000000e+000 6.215136e-001
    outer loop
      vertex   -1.279795e+002 5.337234e+001 5.000000e+000
      vertex   -1.221414e+002 5.347540e+001 5.000000e+000
      vertex   -1.277342e+002 5.357412e+001 5.000000e+000
    endloop
  endfacet
  facet normal -0.000000e+000 0.000000e+000 3.529142e-002
    outer loop
      vertex   -1.277342e+002 5.357412e+001 5.000000e+000
      vertex   -1.221414e+002 5.347540e+001 5.000000e+000
      vertex   -1.223937e+002 5.366838e+001 5.000000e+000
    endloop
  endfacet
  facet normal 0.000000e+000 0.000000e+000 5.647202e-001
    outer loop
      vertex   -1.277342e+002 5.357412e+001 5.000000e+000
      vertex   -1.223937e+002 5.366838e+001 5.000000e+000
      vertex   -1.274753e+002 5.375808e+001 5.000000e+000
    endloop
  endfacet
  facet normal -0.000000e+000 0.000000e+000 3.529202e-002
    outer loop
      vertex   -1.274753e+002 5.375808e+001 5.000000e+000
      vertex   -1.223937e+002 5.366838e+001 5.000000e+000
      vertex   -1.226589e+002 5.384309e+001 5.000000e+000
    endloop
  endfacet
  facet normal 0.000000e+000 0.000000e+000 5.050709e-001
    outer loop
      vertex   -1.274753e+002 5.375808e+001 5.000000e+000
      vertex   -1.226589e+002 5.384309e+001 5.000000e+000
      vertex   -1.272040e+002 5.392332e+001 5.000000e+000
    endloop
  endfacet
  facet normal -0.000000e+000 0.000000e+000 3.529136e-002
    outer loop
      vertex   -1.272040e+002 5.392332e+001 5.000000e+000
      vertex   -1.226589e+002 5.384309e+001 5.000000e+000
      vertex   -1.229358e+002 5.399866e+001 5.000000e+000
    endloop
  endfacet
  facet normal 0.000000e+000 0.000000e+000 4.429521e-001
    outer loop
      vertex   -1.272040e+002 5.392332e+001 5.000000e+000
      vertex   -1.229358e+002 5.399866e+001 5.000000e+000
      vertex   -1.269218e+002 5.406901e+001 5.000000e+000
    endloop
  endfacet
  facet normal -0.000000e+000 0.000000e+000 3.529152e-002
    outer loop
      vertex   -1.269218e+002 5.406901e+001 5.000000e+000
      vertex   -1.229358e+002 5.399866e+001 5.000000e+000
      vertex   -1.232230e+002 5.413430e+001 5.000000e+000
    endloop
  endfacet
  facet normal 0.000000e+000 0.000000e+000 3.786068e-001
    outer loop
      vertex   -1.269218e+002 5.406901e+001 5.000000e+000
      vertex   -1.232230e+002 5.413430e+001 5.000000e+000
      vertex   -1.266299e+002 5.419444e+001 5.000000e+000
    endloop
  endfacet
  facet normal -0.000000e+000 0.000000e+000 3.529066e-002
    outer loop
      vertex   -1.266299e+002 5.419444e+001 5.000000e+000
      vertex   -1.232230e+002 5.413430e+001 5.000000e+000
      vertex   -1.235191e+002 5.424934e+001 5.000000e+000
    endloop
  endfacet
  facet normal 0.000000e+000 0.000000e+000 3.123703e-001
    outer loop
      vertex   -1.266299e+002 5.419444e+001 5.000000e+000
      vertex   -1.235191e+002 5.424934e+001 5.000000e+000
      vertex   -1.263300e+002 5.429896e+001 5.000000e+000
    endloop
  endfacet
  facet normal -0.000000e+000 0.000000e+000 3.529130e-002
    outer loop
      vertex   -1.263300e+002 5.429896e+001 5.000000e+000
      vertex   -1.235191e+002 5.424934e+001 5.000000e+000
      vertex   -1.238225e+002 5.434322e+001 5.000000e+000
    endloop
  endfacet
  facet normal 0.000000e+000 0.000000e+000 2.445801e-001
    outer loop
      vertex   -1.263300e+002 5.429896e+001 5.000000e+000
      vertex   -1.238225e+002 5.434322e+001 5.000000e+000
      vertex   -1.260235e+002 5.438207e+001 5.000000e+000
    endloop
  endfacet
  facet normal -0.000000e+000 0.000000e+000 3.529179e-002
    outer loop
      vertex   -1.260235e+002 5.438207e+001 5.000000e+000
      vertex   -1.238225e+002 5.434322e+001 5.000000e+000
      vertex   -1.241318e+002 5.441546e+001 5.000000e+000
    endloop
  endfacet
  facet normal 0.000000e+000 0.000000e+000 1.755851e-001
    outer loop
      vertex   -1.260235e+002 5.438207e+001 5.000000e+000
      vertex   -1.241318e+002 5.441546e+001 5.000000e+000
      vertex   -1.257118e+002 5.444335e+001 5.000000e+000
    endloop
  endfacet
  facet normal -0.000000e+000 0.000000e+000 3.529335e-002
    outer loop
      vertex   -1.257118e+002 5.444335e+001 5.000000e+000
      vertex   -1.241318e+002 5.441546e+001 5.000000e+000
      vertex   -1.244455e+002 5.446570e+001 5.000000e+000
    endloop
  endfacet
  facet normal 0.000000e+000 0.000000e+000 1.057021e-001
    outer loop
      vertex   -1.257118e+002 5.444335e+001 5.000000e+000
      vertex   -1.244455e+002 5.446570e+001 5.000000e+000
      vertex   -1.253966e+002 5.448249e+001 5.000000e+000
    endloop
  endfacet
  facet normal -0.000000e+000 0.000000e+000 3.529034e-002
    outer loop
      vertex   -1.253966e+002 5.448249e+001 5.000000e+000
      vertex   -1.244455e+002 5.446570e+001 5.000000e+000
      vertex   -1.247618e+002 5.449369e+001 5.000000e+000
    endloop
  endfacet
  facet normal 0.000000e+000 0.000000e+000 3.528439e-002
    outer loop
      vertex   -1.253966e+002 5.448249e+001 5.000000e+000
      vertex   -1.247618e+002 5.449369e+001 5.000000e+000
      vertex   -1.250794e+002 5.449930e+001 5.000000e+000
    endloop
  endfacet
  facet normal 0.000000e+000 0.000000e+000 9.961080e-001
    outer loop
      vertex   -1.205028e+002 4.984119e+001 5.000000e+000
      vertex   -1.294888e+002 4.968258e+001 5.000000e+000
      vertex   -1.205252e+002 4.952436e+001 5.000000e+000
    endloop
  endfacet
  facet normal 0.000000e+000 0.000000e+000 3.529165e-002
    outer loop
      vertex   -1.205252e+002 4.952436e+001 5.000000e+000
      vertex   -1.294888e+002 4.968258e+001 5.000000e+000
      vertex   -1.294552e+002 4.936673e+001 5.000000e+000
    endloop
  endfacet
  facet normal 0.000000e+000 0.000000e+000 9.874095e-001
    outer loop
      vertex   -1.205252e+002 4.952436e+001 5.000000e+000
      vertex   -1.294552e+002 4.936673e+001 5.000000e+000
      vertex   -1.205699e+002 4.920989e+001 5.000000e+000
    endloop
  endfacet
  facet normal 0.000000e+000 0.000000e+000 3.529125e-002
    outer loop
      vertex   -1.205699e+002 4.920989e+001 5.000000e+000
      vertex   -1.294552e+002 4.936673e+001 5.000000e+000
      vertex   -1.293994e+002 4.905404e+001 5.000000e+000
    endloop
  endfacet
  facet normal 0.000000e+000 0.000000e+000 9.737958e-001
    outer loop
      vertex   -1.205699e+002 4.920989e+001 5.000000e+000
      vertex   -1.293994e+002 4.905404e+001 5.000000e+000
      vertex   -1.206367e+002 4.889937e+001 5.000000e+000
    endloop
  endfacet
  facet normal 0.000000e+000 0.000000e+000 3.529141e-002
    outer loop
      vertex   -1.206367e+002 4.889937e+001 5.000000e+000
      vertex   -1.293994e+002 4.905404e+001 5.000000e+000
      vertex   -1.293218e+002 4.874607e+001 5.000000e+000
    endloop
  endfacet
  facet normal 0.000000e+000 0.000000e+000 9.553226e-001
    outer loop
      vertex   -1.206367e+002 4.889937e+001 5.000000e+000
      vertex   -1.293218e+002 4.874607e+001 5.000000e+000
      vertex   -1.207252e+002 4.859433e+001 5.000000e+000
    endloop
  endfacet
  facet normal 0.000000e+000 0.000000e+000 3.529169e-002
    outer loop
      vertex   -1.207252e+002 4.859433e+001 5.000000e+000
      vertex   -1.293218e+002 4.874607e+001 5.000000e+000
      vertex   -1.292225e+002 4.844434e+001 5.000000e+000
    endloop
  endfacet
  facet normal 0.000000e+000 0.000000e+000 9.320987e-001
    outer loop
      vertex   -1.207252e+002 4.859433e+001 5.000000e+000
      vertex   -1.292225e+002 4.844434e+001 5.000000e+000
      vertex   -1.208350e+002 4.829628e+001 5.000000e+000
    endloop
  endfacet
  facet normal 0.000000e+000 0.000000e+000 3.529153e-002
    outer loop
      vertex   -1.208350e+002 4.829628e+001 5.000000e+000
      vertex   -1.292225e+002 4.844434e+001 5.000000e+000
      vertex   -1.291023e+002 4.815036e+001 5.000000e+000
    endloop
  endfacet
  facet normal 0.000000e+000 0.000000e+000 9.042231e-001
    outer loop
      vertex   -1.208350e+002 4.829628e+001 5.000000e+000
      vertex   -1.291023e+002 4.815036e+001 5.000000e+000
      vertex   -1.209655e+002 4.800673e+001 5.000000e+000
    endloop
  endfacet
  facet normal 0.000000e+000 0.000000e+000 3.529135e-002
    outer loop
      vertex   -1.209655e+002 4.800673e+001 5.000000e+000
      vertex   -1.291023e+002 4.815036e+001 5.000000e+000
      vertex   -1.289616e+002 4.786559e+001 5.000000e+000
    endloop
  endfacet
  facet normal 0.000000e+000 0.000000e+000 8.718517e-001
    outer loop
      vertex   -1.209655e+002 4.800673e+001 5.000000e+000
      vertex   -1.289616e+002 4.786559e+001 5.000000e+000
      vertex   -1.211162e+002 4.772711e+001 5.000000e+000
    endloop
  endfacet
  facet normal 0.000000e+000 0.000000e+000 3.529159e-002
    outer loop
      vertex   -1.211162e+002 4.772711e+001 5.000000e+000
      vertex   -1.289616e+002 4.786559e+001 5.000000e+000
      vertex   -1.288012e+002 4.759146e+001 5.000000e+000
    endloop
  endfacet
  facet normal 0.000000e+000 0.000000e+000 8.351231e-001
    outer loop
      vertex   -1.211162e+002 4.772711e+001 5.000000e+000
      vertex   -1.288012e+002 4.759146e+001 5.000000e+000
      vertex   -1.212862e+002 4.745881e+001 5.000000e+000
    endloop
  endfacet
  facet normal 0.000000e+000 0.000000e+000 3.529138e-002
    outer loop
      vertex   -1.212862e+002 4.745881e+001 5.000000e+000
      vertex   -1.288012e+002 4.759146e+001 5.000000e+000
      vertex   -1.286218e+002 4.732933e+001 5.000000e+000
    endloop
  endfacet
  facet normal 0.000000e+000 0.000000e+000 7.942543e-001
    outer loop
      vertex   -1.212862e+002 4.745881e+001 5.000000e+000
      vertex   -1.286218e+002 4.732933e+001 5.000000e+000
      vertex   -1.214747e+002 4.720317e+001 5.000000e+000
    endloop
  endfacet
  facet normal 0.000000e+000 0.000000e+000 3.529127e-002
    outer loop
      vertex   -1.214747e+002 4.720317e+001 5.000000e+000
      vertex   -1.286218e+002 4.732933e+001 5.000000e+000
      vertex   -1.284244e+002 4.708051e+001 5.000000e+000
    endloop
  endfacet
  facet normal 0.000000e+000 0.000000e+000 7.494031e-001
    outer loop
      vertex   -1.214747e+002 4.720317e+001 5.000000e+000
      vertex   -1.284244e+002 4.708051e+001 5.000000e+000
      vertex   -1.216808e+002 4.696147e+001 5.000000e+000
    endloop
  endfacet
  facet normal 0.000000e+000 0.000000e+000 3.529177e-002
    outer loop
      vertex   -1.216808e+002 4.696147e+001 5.000000e+000
      vertex   -1.284244e+002 4.708051e+001 5.000000e+000
      vertex   -1.282099e+002 4.684622e+001 5.000000e+000
    endloop
  endfacet
  facet normal 0.000000e+000 0.000000e+000 7.008384e-001
    outer loop
      vertex   -1.216808e+002 4.696147e+001 5.000000e+000
      vertex   -1.282099e+002 4.684622e+001 5.000000e+000
      vertex   -1.219034e+002 4.673491e+001 5.000000e+000
    endloop
  endfacet
  facet normal 0.000000e+000 0.000000e+000 3.529106e-002
    outer loop
      vertex   -1.219034e+002 4.673491e+001 5.000000e+000
      vertex   -1.282099e+002 4.684622e+001 5.000000e+000
      vertex   -1.279795e+002 4.662766e+001 5.000000e+000
    endloop
  endfacet
  facet normal 0.000000e+000 0.000000e+000 6.487783e-001
    outer loop
      vertex   -1.219034e+002 4.673491e+001 5.000000e+000
      vertex   -1.279795e+002 4.662766e+001 5.000000e+000
      vertex   -1.221414e+002 4.652460e+001 5.000000e+000
    endloop
  endfacet
  facet normal 0.000000e+000 0.000000e+000 3.529184e-002
    outer loop
      vertex   -1.221414e+002 4.652460e+001 5.000000e+000
      vertex   -1.279795e+002 4.662766e+001 5.000000e+000
      vertex   -1.277342e+002 4.642588e+001 5.000000e+000
    endloop
  endfacet
  facet normal 0.000000e+000 0.000000e+000 5.934780e-001
    outer loop
      vertex   -1.221414e+002 4.652460e+001 5.000000e+000
      vertex   -1.277342e+002 4.642588e+001 5.000000e+000
      vertex   -1.223937e+002 4.633162e+001 5.000000e+000
    endloop
  endfacet
  facet normal 0.000000e+000 0.000000e+000 3.529172e-002
    outer loop
      vertex   -1.223937e+002 4.633162e+001 5.000000e+000
      vertex   -1.277342e+002 4.642588e+001 5.000000e+000
      vertex   -1.274753e+002 4.624192e+001 5.000000e+000
    endloop
  endfacet
  facet normal 0.000000e+000 0.000000e+000 5.352439e-001
    outer loop
      vertex   -1.223937e+002 4.633162e+001 5.000000e+000
      vertex   -1.274753e+002 4.624192e+001 5.000000e+000
      vertex   -1.226589e+002 4.615691e+001 5.000000e+000
    endloop
  endfacet
  facet normal 0.000000e+000 0.000000e+000 3.529086e-002
    outer loop
      vertex   -1.226589e+002 4.615691e+001 5.000000e+000
      vertex   -1.274753e+002 4.624192e+001 5.000000e+000
      vertex   -1.272040e+002 4.607668e+001 5.000000e+000
    endloop
  endfacet
  facet normal 0.000000e+000 0.000000e+000 4.743048e-001
    outer loop
      vertex   -1.226589e+002 4.615691e+001 5.000000e+000
      vertex   -1.272040e+002 4.607668e+001 5.000000e+000
      vertex   -1.229358e+002 4.600134e+001 5.000000e+000
    endloop
  endfacet
  facet normal 0.000000e+000 0.000000e+000 3.529157e-002
    outer loop
      vertex   -1.229358e+002 4.600134e+001 5.000000e+000
      vertex   -1.272040e+002 4.607668e+001 5.000000e+000
      vertex   -1.269218e+002 4.593099e+001 5.000000e+000
    endloop
  endfacet
  facet normal 0.000000e+000 0.000000e+000 4.110344e-001
    outer loop
      vertex   -1.229358e+002 4.600134e+001 5.000000e+000
      vertex   -1.269218e+002 4.593099e+001 5.000000e+000
      vertex   -1.232230e+002 4.586570e+001 5.000000e+000
    endloop
  endfacet
  facet normal 0.000000e+000 0.000000e+000 3.529164e-002
    outer loop
      vertex   -1.232230e+002 4.586570e+001 5.000000e+000
      vertex   -1.269218e+002 4.593099e+001 5.000000e+000
      vertex   -1.266299e+002 4.580556e+001 5.000000e+000
    endloop
  endfacet
  facet normal 0.000000e+000 0.000000e+000 3.457012e-001
    outer loop
      vertex   -1.232230e+002 4.586570e+001 5.000000e+000
      vertex   -1.266299e+002 4.580556e+001 5.000000e+000
      vertex   -1.235191e+002 4.575066e+001 5.000000e+000
    endloop
  endfacet
  facet normal 0.000000e+000 0.000000e+000 3.529157e-002
    outer loop
      vertex   -1.235191e+002 4.575066e+001 5.000000e+000
      vertex   -1.266299e+002 4.580556e+001 5.000000e+000
      vertex   -1.263300e+002 4.570104e+001 5.000000e+000
    endloop
  endfacet
  facet normal 0.000000e+000 0.000000e+000 2.786482e-001
    outer loop
      vertex   -1.235191e+002 4.575066e+001 5.000000e+000
      vertex   -1.263300e+002 4.570104e+001 5.000000e+000
      vertex   -1.238225e+002 4.565678e+001 5.000000e+000
    endloop
  endfacet
  facet normal 0.000000e+000 0.000000e+000 3.529066e-002
    outer loop
      vertex   -1.238225e+002 4.565678e+001 5.000000e+000
      vertex   -1.263300e+002 4.570104e+001 5.000000e+000
      vertex   -1.260235e+002 4.561793e+001 5.000000e+000
    endloop
  endfacet
  facet normal 0.000000e+000 0.000000e+000 2.102117e-001
    outer loop
      vertex   -1.238225e+002 4.565678e+001 5.000000e+000
      vertex   -1.260235e+002 4.561793e+001 5.000000e+000
      vertex   -1.241318e+002 4.558454e+001 5.000000e+000
    endloop
  endfacet
  facet normal 0.000000e+000 0.000000e+000 3.529242e-002
    outer loop
      vertex   -1.241318e+002 4.558454e+001 5.000000e+000
      vertex   -1.260235e+002 4.561793e+001 5.000000e+000
      vertex   -1.257118e+002 4.555665e+001 5.000000e+000
    endloop
  endfacet
  facet normal 0.000000e+000 0.000000e+000 1.407353e-001
    outer loop
      vertex   -1.241318e+002 4.558454e+001 5.000000e+000
      vertex   -1.257118e+002 4.555665e+001 5.000000e+000
      vertex   -1.244455e+002 4.553430e+001 5.000000e+000
    endloop
  endfacet
  facet normal 0.000000e+000 0.000000e+000 3.529240e-002
    outer loop
      vertex   -1.244455e+002 4.553430e+001 5.000000e+000
      vertex   -1.257118e+002 4.555665e+001 5.000000e+000
      vertex   -1.253966e+002 4.551751e+001 5.000000e+000
    endloop
  endfacet
  facet normal 0.000000e+000 0.000000e+000 7.053827e-002
    outer loop
      vertex   -1.244455e+002 4.553430e+001 5.000000e+000
      vertex   -1.253966e+002 4.551751e+001 5.000000e+000
      vertex   -1.247618e+002 4.550631e+001 5.000000e+000
    endloop
  endfacet
  facet normal 0.000000e+000 0.000000e+000 3.528511e-002
    outer loop
      vertex   -1.247618e+002 4.550631e+001 5.000000e+000
      vertex   -1.253966e+002 4.551751e+001 5.000000e+000
      vertex   -1.250794e+002 4.550070e+001 5.000000e+000
    endloop
  endfacet
  facet normal 0.000000e+000 -0.000000e+000 -9.998439e-001
    outer loop
      vertex   -1.294888e+002 5.031742e+001 0.000000e+000
      vertex   -1.205028e+002 5.015881e+001 0.000000e+000
      vertex   -1.295000e+002 5.000000e+001 0.000000e+000
    endloop
  endfacet
  facet normal 0.000000e+000 0.000000e+000 -3.529187e-002
    outer loop
      vertex   -1.295000e+002 5.000000e+001 0.000000e+000
      vertex   -1.205028e+002 5.015881e+001 0.000000e+000
      vertex   -1.205028e+002 4.984119e+001 0.000000e+000
    endloop
  endfacet
  facet normal 0.000000e+000 0.000000e+000 -9.985976e-001
    outer loop
      vertex   -1.295000e+002 5.000000e+001 0.000000e+000
      vertex   -1.205028e+002 4.984119e+001 0.000000e+000
      vertex   -1.294888e+002 4.968258e+001 0.000000e+000
    endloop
  endfacet
  facet normal 0.000000e+000 0.000000e+000 -3.529122e-002
    outer loop
      vertex   -1.294888e+002 4.968258e+001 0.000000e+000
      vertex   -1.205028e+002 4.984119e+001 0.000000e+000
      vertex   -1.205252e+002 4.952436e+001 0.000000e+000
    endloop
  endfacet
  facet normal 0.000000e+000 0.000000e+000 -9.923791e-001
    outer loop
      vertex   -1.294888e+002 4.968258e+001 0.000000e+000
      vertex   -1.205252e+002 4.952436e+001 0.000000e+000
      vertex   -1.294552e+002 4.936673e+001 0.000000e+000
    endloop
  endfacet
  facet normal 0.000000e+000 0.000000e+000 -3.529173e-002
    outer loop
      vertex   -1.294552e+002 4.936673e+001 0.000000e+000
      vertex   -1.205252e+002 4.952436e+001 0.000000e+000
      vertex   -1.205699e+002 4.920989e+001 0.000000e+000
    endloop
  endfacet
  facet normal 0.000000e+000 0.000000e+000 -9.812113e-001
    outer loop
      vertex   -1.294552e+002 4.936673e+001 0.000000e+000
      vertex   -1.205699e+002 4.920989e+001 0.000000e+000
      vertex   -1.293994e+002 4.905404e+001 0.000000e+000
    endloop
  endfacet
  facet normal 0.000000e+000 0.000000e+000 -3.529125e-002
    outer loop
      vertex   -1.293994e+002 4.905404e+001 0.000000e+000
      vertex   -1.205699e+002 4.920989e+001 0.000000e+000
      vertex   -1.206367e+002 4.889937e+001 0.000000e+000
    endloop
  endfacet
  facet normal 0.000000e+000 0.000000e+000 -9.651629e-001
    outer loop
      vertex   -1.293994e+002 4.905404e+001 0.000000e+000
      vertex   -1.206367e+002 4.889937e+001 0.000000e+000
      vertex   -1.293218e+002 4.874607e+001 0.000000e+000
    endloop
  endfacet
  facet normal 0.000000e+000 0.000000e+000 -3.529141e-002
    outer loop
      vertex   -1.293218e+002 4.874607e+001 0.000000e+000
      vertex   -1.206367e+002 4.889937e+001 0.000000e+000
      vertex   -1.207252e+002 4.859433e+001 0.000000e+000
    endloop
  endfacet
  facet normal 0.000000e+000 0.000000e+000 -9.443035e-001
    outer loop
      vertex   -1.293218e+002 4.874607e+001 0.000000e+000
      vertex   -1.207252e+002 4.859433e+001 0.000000e+000
      vertex   -1.292225e+002 4.844434e+001 0.000000e+000
    endloop
  endfacet
  facet normal 0.000000e+000 0.000000e+000 -3.529175e-002
    outer loop
      vertex   -1.292225e+002 4.844434e+001 0.000000e+000
      vertex   -1.207252e+002 4.859433e+001 0.000000e+000
      vertex   -1.208350e+002 4.829628e+001 0.000000e+000
    endloop
  endfacet
  facet normal 0.000000e+000 0.000000e+000 -9.187318e-001
    outer loop
      vertex   -1.292225e+002 4.844434e+001 0.000000e+000
      vertex   -1.208350e+002 4.829628e+001 0.000000e+000
      vertex   -1.291023e+002 4.815036e+001 0.000000e+000
    endloop
  endfacet
  facet normal 0.000000e+000 0.000000e+000 -3.529132e-002
    outer loop
      vertex   -1.291023e+002 4.815036e+001 0.000000e+000
      vertex   -1.208350e+002 4.829628e+001 0.000000e+000
      vertex   -1.209655e+002 4.800673e+001 0.000000e+000
    endloop
  endfacet
  facet normal 0.000000e+000 0.000000e+000 -8.885956e-001
    outer loop
      vertex   -1.291023e+002 4.815036e+001 0.000000e+000
      vertex   -1.209655e+002 4.800673e+001 0.000000e+000
      vertex   -1.289616e+002 4.786559e+001 0.000000e+000
    endloop
  endfacet
  facet normal 0.000000e+000 0.000000e+000 -3.529138e-002
    outer loop
      vertex   -1.289616e+002 4.786559e+001 0.000000e+000
      vertex   -1.209655e+002 4.800673e+001 0.000000e+000
      vertex   -1.211162e+002 4.772711e+001 0.000000e+000
    endloop
  endfacet
  facet normal 0.000000e+000 0.000000e+000 -8.540160e-001
    outer loop
      vertex   -1.289616e+002 4.786559e+001 0.000000e+000
      vertex   -1.211162e+002 4.772711e+001 0.000000e+000
      vertex   -1.288012e+002 4.759146e+001 0.000000e+000
    endloop
  endfacet
  facet normal 0.000000e+000 0.000000e+000 -3.529157e-002
    outer loop
      vertex   -1.288012e+002 4.759146e+001 0.000000e+000
      vertex   -1.211162e+002 4.772711e+001 0.000000e+000
      vertex   -1.212862e+002 4.745881e+001 0.000000e+000
    endloop
  endfacet
  facet normal 0.000000e+000 0.000000e+000 -8.151911e-001
    outer loop
      vertex   -1.288012e+002 4.759146e+001 0.000000e+000
      vertex   -1.212862e+002 4.745881e+001 0.000000e+000
      vertex   -1.286218e+002 4.732933e+001 0.000000e+000
    endloop
  endfacet
  facet normal 0.000000e+000 0.000000e+000 -3.529147e-002
    outer loop
      vertex   -1.286218e+002 4.732933e+001 0.000000e+000
      vertex   -1.212862e+002 4.745881e+001 0.000000e+000
      vertex   -1.214747e+002 4.720317e+001 0.000000e+000
    endloop
  endfacet
  facet normal 0.000000e+000 0.000000e+000 -7.723166e-001
    outer loop
      vertex   -1.286218e+002 4.732933e+001 0.000000e+000
      vertex   -1.214747e+002 4.720317e+001 0.000000e+000
      vertex   -1.284244e+002 4.708051e+001 0.000000e+000
    endloop
  endfacet
  facet normal 0.000000e+000 0.000000e+000 -3.529124e-002
    outer loop
      vertex   -1.284244e+002 4.708051e+001 0.000000e+000
      vertex   -1.214747e+002 4.720317e+001 0.000000e+000
      vertex   -1.216808e+002 4.696147e+001 0.000000e+000
    endloop
  endfacet
  facet normal 0.000000e+000 0.000000e+000 -7.255648e-001
    outer loop
      vertex   -1.284244e+002 4.708051e+001 0.000000e+000
      vertex   -1.216808e+002 4.696147e+001 0.000000e+000
      vertex   -1.282099e+002 4.684622e+001 0.000000e+000
    endloop
  endfacet
  facet normal 0.000000e+000 0.000000e+000 -3.529143e-002
    outer loop
      vertex   -1.282099e+002 4.684622e+001 0.000000e+000
      vertex   -1.216808e+002 4.696147e+001 0.000000e+000
      vertex   -1.219034e+002 4.673491e+001 0.000000e+000
    endloop
  endfacet
  facet normal 0.000000e+000 0.000000e+000 -6.752348e-001
    outer loop
      vertex   -1.282099e+002 4.684622e+001 0.000000e+000
      vertex   -1.219034e+002 4.673491e+001 0.000000e+000
      vertex   -1.279795e+002 4.662766e+001 0.000000e+000
    endloop
  endfacet
  facet normal 0.000000e+000 0.000000e+000 -3.529152e-002
    outer loop
      vertex   -1.279795e+002 4.662766e+001 0.000000e+000
      vertex   -1.219034e+002 4.673491e+001 0.000000e+000
      vertex   -1.221414e+002 4.652460e+001 0.000000e+000
    endloop
  endfacet
  facet normal 0.000000e+000 0.000000e+000 -6.215136e-001
    outer loop
      vertex   -1.279795e+002 4.662766e+001 0.000000e+000
      vertex   -1.221414e+002 4.652460e+001 0.000000e+000
      vertex   -1.277342e+002 4.642588e+001 0.000000e+000
    endloop
  endfacet
  facet normal 0.000000e+000 0.000000e+000 -3.529142e-002
    outer loop
      vertex   -1.277342e+002 4.642588e+001 0.000000e+000
      vertex   -1.221414e+002 4.652460e+001 0.000000e+000
      vertex   -1.223937e+002 4.633162e+001 0.000000e+000
    endloop
  endfacet
  facet normal 0.000000e+000 0.000000e+000 -5.647202e-001
    outer loop
      vertex   -1.277342e+002 4.642588e+001 0.000000e+000
      vertex   -1.223937e+002 4.633162e+001 0.000000e+000
      vertex   -1.274753e+002 4.624192e+001 0.000000e+000
    endloop
  endfacet
  facet normal 0.000000e+000 0.000000e+000 -3.529202e-002
    outer loop
      vertex   -1.274753e+002 4.624192e+001 0.000000e+000
      vertex   -1.223937e+002 4.633162e+001 0.000000e+000
      vertex   -1.226589e+002 4.615691e+001 0.000000e+000
    endloop
  endfacet
  facet normal 0.000000e+000 0.000000e+000 -5.050709e-001
    outer loop
      vertex   -1.274753e+002 4.624192e+001 0.000000e+000
      vertex   -1.226589e+002 4.615691e+001 0.000000e+000
      vertex   -1.272040e+002 4.607668e+001 0.000000e+000
    endloop
  endfacet
  facet normal 0.000000e+000 0.000000e+000 -3.529136e-002
    outer loop
      vertex   -1.272040e+002 4.607668e+001 0.000000e+000
      vertex   -1.226589e+002 4.615691e+001 0.000000e+000
      vertex   -1.229358e+002 4.600134e+001 0.000000e+000
    endloop
  endfacet
  facet normal 0.000000e+000 0.000000e+000 -4.429521e-001
    outer loop
      vertex   -1.272040e+002 4.607668e+001 0.000000e+000
      vertex   -1.229358e+002 4.600134e+001 0.000000e+000
      vertex   -1.269218e+002 4.593099e+001 0.000000e+000
    endloop
  endfacet
  facet normal 0.000000e+000 0.000000e+000 -3.529152e-002
    outer loop
      vertex   -1.269218e+002 4.593099e+001 0.000000e+000
      vertex   -1.229358e+002 4.600134e+001 0.000000e+000
      vertex   -1.232230e+002 4.586570e+001 0.000000e+000
    endloop
  endfacet
  facet normal 0.000000e+000 0.000000e+000 -3.786068e-001
    outer loop
      vertex   -1.269218e+002 4.593099e+001 0.000000e+000
      vertex   -1.232230e+002 4.586570e+001 0.000000e+000
      vertex   -1.266299e+002 4.580556e+001 0.000000e+000
    endloop
  endfacet
  facet normal 0.000000e+000 0.000000e+000 -3.529066e-002
    outer loop
      vertex   -1.266299e+002 4.580556e+001 0.000000e+000
      vertex   -1.232230e+002 4.586570e+001 0.000000e+000
      vertex   -1.235191e+002 4.575066e+001 0.000000e+000
    endloop
  endfacet
  facet normal 0.000000e+000 0.000000e+000 -3.123703e-001
    outer loop
      vertex   -1.266299e+002 4.580556e+001 0.000000e+000
      vertex   -1.235191e+002 4.575066e+001 0.000000e+000
      vertex   -1.263300e+002 4.570104e+001 0.000000e+000
    endloop
  endfacet
  facet normal 0.000000e+000 0.000000e+000 -3.529130e-002
    outer loop
      vertex   -1.263300e+002 4.570104e+001 0.000000e+000
      vertex   -1.235191e+002 4.575066e+001 0.000000e+000
      vertex   -1.238225e+002 4.565678e+001 0.000000e+000
    endloop
  endfacet
  facet normal 0.000000e+000 0.000000e+000 -2.445801e-001
    outer loop
      vertex   -1.263300e+002 4.570104e+001 0.000000e+000
      vertex   -1.238225e+002 4.565678e+001 0.000000e+000
      vertex   -1.260235e+002 4.561793e+001 0.000000e+000
    endloop
  endfacet
  facet normal 0.000000e+000 0.000000e+000 -3.529179e-002
    outer loop
      vertex   -1.260235e+002 4.561793e+001 0.000000e+000
      vertex   -1.238225e+002 4.565678e+001 0.000000e+000
      vertex   -1.241318e+002 4.558454e+001 0.000000e+000
    endloop
  endfacet
  facet normal 0.000000e+000 0.000000e+000 -1.755851e-001
    outer loop
      vertex   -1.260235e+002 4.561793e+001 0.000000e+000
      vertex   -1.241318e+002 4.558454e+001 0.000000e+000
      vertex   -1.257118e+002 4.555665e+001 0.000000e+000
    endloop
  endfacet
  facet normal 0.000000e+000 0.000000e+000 -3.529335e-002
    outer loop
      vertex   -1.257118e+002 4.555665e+001 0.000000e+000
      vertex   -1.241318e+002 4.558454e+001 0.000000e+000
      vertex   -1.244455e+002 4.553430e+001 0.000000e+000
    endloop
  endfacet
  facet normal 0.000000e+000 0.000000e+000 -1.057021e-001
    outer loop
      vertex   -1.257118e+002 4.555665e+001 0.000000e+000
      vertex   -1.244455e+002 4.553430e+001 0.000000e+000
      vertex   -1.253966e+002 4.551751e+001 0.000000e+000
    endloop
  endfacet
  facet normal 0.000000e+000 0.000000e+000 -3.529034e-002
    outer loop
      vertex   -1.253966e+002 4.551751e+001 0.000000e+000
      vertex   -1.244455e+002 4.553430e+001 0.000000e+000
      vertex   -1.247618e+002 4.550631e+001 0.000000e+000
    endloop
  endfacet
  facet normal 0.000000e+000 0.000000e+000 -3.528439e-002
    outer loop
      vertex   -1.253966e+002 4.551751e+001 0.000000e+000
      vertex   -1.247618e+002 4.550631e+001 0.000000e+000
      vertex   -1.250794e+002 4.550070e+001 0.000000e+000
    endloop
  endfacet
  facet normal 0.000000e+000 0.000000e+000 -9.961080e-001
    outer loop
      vertex   -1.205028e+002 5.015881e+001 0.000000e+000
      vertex   -1.294888e+002 5.031742e+001 0.000000e+000
      vertex   -1.205252e+002 5.047564e+001 0.000000e+000
    endloop
  endfacet
  facet normal -0.000000e+000 0.000000e+000 -3.529165e-002
    outer loop
      vertex   -1.205252e+002 5.047564e+001 0.000000e+000
      vertex   -1.294888e+002 5.031742e+001 0.000000e+000
      vertex   -1.294552e+002 5.063327e+001 0.000000e+000
    endloop
  endfacet
  facet normal 0.000000e+000 0.000000e+000 -9.874095e-001
    outer loop
      vertex   -1.205252e+002 5.047564e+001 0.000000e+000
      vertex   -1.294552e+002 5.063327e+001 0.000000e+000
      vertex   -1.205699e+002 5.079011e+001 0.000000e+000
    endloop
  endfacet
  facet normal -0.000000e+000 0.000000e+000 -3.529125e-002
    outer loop
      vertex   -1.205699e+002 5.079011e+001 0.000000e+000
      vertex   -1.294552e+002 5.063327e+001 0.000000e+000
      vertex   -1.293994e+002 5.094596e+001 0.000000e+000
    endloop
  endfacet
  facet normal 0.000000e+000 0.000000e+000 -9.737958e-001
    outer loop
      vertex   -1.205699e+002 5.079011e+001 0.000000e+000
      vertex   -1.293994e+002 5.094596e+001 0.000000e+000
      vertex   -1.206367e+002 5.110063e+001 0.000000e+000
    endloop
  endfacet
  facet normal -0.000000e+000 0.000000e+000 -3.529141e-002
    outer loop
      vertex   -1.206367e+002 5.110063e+001 0.000000e+000
      vertex   -1.293994e+002 5.094596e+001 0.000000e+000
      vertex   -1.293218e+002 5.125393e+001 0.000000e+000
    endloop
  endfacet
  facet normal 0.000000e+000 0.000000e+000 -9.553226e-001
    outer loop
      vertex   -1.206367e+002 5.110063e+001 0.000000e+000
      vertex   -1.293218e+002 5.125393e+001 0.000000e+000
      vertex   -1.207252e+002 5.140567e+001 0.000000e+000
    endloop
  endfacet
  facet normal -0.000000e+000 0.000000e+000 -3.529169e-002
    outer loop
      vertex   -1.207252e+002 5.140567e+001 0.000000e+000
      vertex   -1.293218e+002 5.125393e+001 0.000000e+000
      vertex   -1.292225e+002 5.155566e+001 0.000000e+000
    endloop
  endfacet
  facet normal 0.000000e+000 0.000000e+000 -9.320987e-001
    outer loop
      vertex   -1.207252e+002 5.140567e+001 0.000000e+000
      vertex   -1.292225e+002 5.155566e+001 0.000000e+000
      vertex   -1.208350e+002 5.170372e+001 0.000000e+000
    endloop
  endfacet
  facet normal -0.000000e+000 0.000000e+000 -3.529153e-002
    outer loop
      vertex   -1.208350e+002 5.170372e+001 0.000000e+000
      vertex   -1.292225e+002 5.155566e+001 0.000000e+000
      vertex   -1.291023e+002 5.184964e+001 0.000000e+000
    endloop
  endfacet
  facet normal 0.000000e+000 0.000000e+000 -9.042231e-001
    outer loop
      vertex   -1.208350e+002 5.170372e+001 0.000000e+000
      vertex   -1.291023e+002 5.184964e+001 0.000000e+000
      vertex   -1.209655e+002 5.199327e+001 0.000000e+000
    endloop
  endfacet
  facet normal -0.000000e+000 0.000000e+000 -3.529135e-002
    outer loop
      vertex   -1.209655e+002 5.199327e+001 0.000000e+000
      vertex   -1.291023e+002 5.184964e+001 0.000000e+000
      vertex   -1.289616e+002 5.213441e+001 0.000000e+000
    endloop
  endfacet
  facet normal 0.000000e+000 0.000000e+000 -8.718517e-001
    outer loop
      vertex   -1.209655e+002 5.199327e+001 0.000000e+000
      vertex   -1.289616e+002 5.213441e+001 0.000000e+000
      vertex   -1.211162e+002 5.227289e+001 0.000000e+000
    endloop
  endfacet
  facet normal -0.000000e+000 0.000000e+000 -3.529159e-002
    outer loop
      vertex   -1.211162e+002 5.227289e+001 0.000000e+000
      vertex   -1.289616e+002 5.213441e+001 0.000000e+000
      vertex   -1.288012e+002 5.240854e+001 0.000000e+000
    endloop
  endfacet
  facet normal 0.000000e+000 0.000000e+000 -8.351231e-001
    outer loop
      vertex   -1.211162e+002 5.227289e+001 0.000000e+000
      vertex   -1.288012e+002 5.240854e+001 0.000000e+000
      vertex   -1.212862e+002 5.254119e+001 0.000000e+000
    endloop
  endfacet
  facet normal -0.000000e+000 0.000000e+000 -3.529138e-002
    outer loop
      vertex   -1.212862e+002 5.254119e+001 0.000000e+000
      vertex   -1.288012e+002 5.240854e+001 0.000000e+000
      vertex   -1.286218e+002 5.267067e+001 0.000000e+000
    endloop
  endfacet
  facet normal 0.000000e+000 0.000000e+000 -7.942543e-001
    outer loop
      vertex   -1.212862e+002 5.254119e+001 0.000000e+000
      vertex   -1.286218e+002 5.267067e+001 0.000000e+000
      vertex   -1.214747e+002 5.279683e+001 0.000000e+000
    endloop
  endfacet
  facet normal -0.000000e+000 0.000000e+000 -3.529127e-002
    outer loop
      vertex   -1.214747e+002 5.279683e+001 0.000000e+000
      vertex   -1.286218e+002 5.267067e+001 0.000000e+000
      vertex   -1.284244e+002 5.291949e+001 0.000000e+000
    endloop
  endfacet
  facet normal 0.000000e+000 0.000000e+000 -7.494031e-001
    outer loop
      vertex   -1.214747e+002 5.279683e+001 0.000000e+000
      vertex   -1.284244e+002 5.291949e+001 0.000000e+000
      vertex   -1.216808e+002 5.303853e+001 0.000000e+000
    endloop
  endfacet
  facet normal -0.000000e+000 0.000000e+000 -3.529177e-002
    outer loop
      vertex   -1.216808e+002 5.303853e+001 0.000000e+000
      vertex   -1.284244e+002 5.291949e+001 0.000000e+000
      vertex   -1.282099e+002 5.315378e+001 0.000000e+000
    endloop
  endfacet
  facet normal 0.000000e+000 0.000000e+000 -7.008384e-001
    outer loop
      vertex   -1.216808e+002 5.303853e+001 0.000000e+000
      vertex   -1.282099e+002 5.315378e+001 0.000000e+000
      vertex   -1.219034e+002 5.326509e+001 0.000000e+000
    endloop
  endfacet
  facet normal -0.000000e+000 0.000000e+000 -3.529106e-002
    outer loop
      vertex   -1.219034e+002 5.326509e+001 0.000000e+000
      vertex   -1.282099e+002 5.315378e+001 0.000000e+000
      vertex   -1.279795e+002 5.337234e+001 0.000000e+000
    endloop
  endfacet
  facet normal 0.000000e+000 0.000000e+000 -6.487783e-001
    outer loop
      vertex   -1.219034e+002 5.326509e+001 0.000000e+000
      vertex   -1.279795e+002 5.337234e+001 0.000000e+000
      vertex   -1.221414e+002 5.347540e+001 0.000000e+000
    endloop
  endfacet
  facet normal -0.000000e+000 0.000000e+000 -3.529184e-002
    outer loop
      vertex   -1.221414e+002 5.347540e+001 0.000000e+000
      vertex   -1.279795e+002 5.337234e+001 0.000000e+000
      vertex   -1.277342e+002 5.357412e+001 0.000000e+000
    endloop
  endfacet
  facet normal 0.000000e+000 0.000000e+000 -5.934780e-001
    outer loop
      vertex   -1.221414e+002 5.347540e+001 0.000000e+000
      vertex   -1.277342e+002 5.357412e+001 0.000000e+000
      vertex   -1.223937e+002 5.366838e+001 0.000000e+000
    endloop
  endfacet
  facet normal -0.000000e+000 0.000000e+000 -3.529172e-002
    outer loop
      vertex   -1.223937e+002 5.366838e+001 0.000000e+000
      vertex   -1.277342e+002 5.357412e+001 0.000000e+000
      vertex   -1.274753e+002 5.375808e+001 0.000000e+000
    endloop
  endfacet
  facet normal 0.000000e+000 0.000000e+000 -5.352439e-001
    outer loop
      vertex   -1.223937e+002 5.366838e+001 0.000000e+000
      vertex   -1.274753e+002 5.375808e+001 0.000000e+000
      vertex   -1.226589e+002 5.384309e+001 0.000000e+000
    endloop
  endfacet
  facet normal -0.000000e+000 0.000000e+000 -3.529086e-002
    outer loop
      vertex   -1.226589e+002 5.384309e+001 0.000000e+000
      vertex   -1.274753e+002 5.375808e+001 0.000000e+000
      vertex   -1.272040e+002 5.392332e+001 0.000000e+000
    endloop
  endfacet
  facet normal 0.000000e+000 0.000000e+000 -4.743048e-001
    outer loop
      vertex   -1.226589e+002 5.384309e+001 0.000000e+000
      vertex   -1.272040e+002 5.392332e+001 0.000000e+000
      vertex   -1.229358e+002 5.399866e+001 0.000000e+000
    endloop
  endfacet
  facet normal -0.000000e+000 0.000000e+000 -3.529157e-002
    outer loop
      vertex   -1.229358e+002 5.399866e+001 0.000000e+000
      vertex   -1.272040e+002 5.392332e+001 0.000000e+000
      vertex   -1.269218e+002 5.406901e+001 0.000000e+000
    endloop
  endfacet
  facet normal 0.000000e+000 0.000000e+000 -4.110344e-001
    outer loop
      vertex   -1.229358e+002 5.399866e+001 0.000000e+000
      vertex   -1.269218e+002 5.406901e+001 0.000000e+000
      vertex   -1.232230e+002 5.413430e+001 0.000000e+000
    endloop
  endfacet
  facet normal -0.000000e+000 0.000000e+000 -3.529164e-002
    outer loop
      vertex   -1.232230e+002 5.413430e+001 0.000000e+000
      vertex   -1.269218e+002 5.406901e+001 0.000000e+000
      vertex   -1.266299e+002 5.419444e+001 0.000000e+000
    endloop
  endfacet
  facet normal 0.000000e+000 0.000000e+000 -3.457012e-001
    outer loop
      vertex   -1.232230e+002 5.413430e+001 0.000000e+000
      vertex   -1.266299e+002 5.419444e+001 0.000000e+000
      vertex   -1.235191e+002 5.424934e+001 0.000000e+000
    endloop
  endfacet
  facet normal -0.000000e+000 0.000000e+000 -3.529157e-002
    outer loop
      vertex   -1.235191e+002 5.424934e+001 0.000000e+000
      vertex   -1.266299e+002 5.419444e+001 0.000000e+000
      vertex   -1.263300e+002 5.429896e+001 0.000000e+000
    endloop
  endfacet
  facet normal 0.000000e+000 0.000000e+000 -2.786482e-001
    outer loop
      vertex   -1.235191e+002 5.424934e+001 0.000000e+000
      vertex   -1.263300e+002 5.429896e+001 0.000000e+000
      vertex   -1.238225e+002 5.434322e+001 0.000000e+000
    endloop
  endfacet
  facet normal -0.000000e+000 0.000000e+000 -3.529066e-002
    outer loop
      vertex   -1.238225e+002 5.434322e+001 0.000000e+000
      vertex   -1.263300e+002 5.429896e+001 0.000000e+000
      vertex   -1.260235e+002 5.438207e+001 0.000000e+000
    endloop
  endfacet
  facet normal 0.000000e+000 0.000000e+000 -2.102117e-001
    outer loop
      vertex   -1.238225e+002 5.434322e+001 0.000000e+000
      vertex   -1.260235e+002 5.438207e+001 0.000000e+000
      vertex   -1.241318e+002 5.441546e+001 0.000000e+000
    endloop
  endfacet
  facet normal -0.000000e+000 0.000000e+000 -3.529242e-002
    outer loop
      vertex   -1.241318e+002 5.441546e+001 0.000000e+000
      vertex   -1.260235e+002 5.438207e+001 0.000000e+000
      vertex   -1.257118e+002 5.444335e+001 0.000000e+000
    endloop
  endfacet
  facet normal 0.000000e+000 0.000000e+000 -1.407353e-001
    outer loop
      vertex   -1.241318e+002 5.441546e+001 0.000000e+000
      vertex   -1.257118e+002 5.444335e+001 0.000000e+000
      vertex   -1.244455e+002 5.446570e+001 0.000000e+000
    endloop
  endfacet
  facet normal -0.000000e+000 0.000000e+000 -3.529240e-002
    outer loop
      vertex   -1.244455e+002 5.446570e+001 0.000000e+000
      vertex   -1.257118e+002 5.444335e+001 0.000000e+000
      vertex   -1.253966e+002 5.448249e+001 0.000000e+000
    endloop
  endfacet
  facet normal 0.000000e+000 0.000000e+000 -7.053827e-002
    outer loop
      vertex   -1.244455e+002 5.446570e+001 0.000000e+000
      vertex   -1.253966e+002 5.448249e+001 0.000000e+000
      vertex   -1.247618e+002 5.449369e+001 0.000000e+000
    endloop
  endfacet
  facet normal -0.000000e+000 0.000000e+000 -3.528511e-002
    outer loop
      vertex   -1.247618e+002 5.449369e+001 0.000000e+000
      vertex   -1.253966e+002 5.448249e+001 0.000000e+000
      vertex   -1.250794e+002 5.449930e+001 0.000000e+000
    endloop
  endfacet
endsolid
