solid ascii
  facet normal -9.994169e-001 3.414347e-002 0.000000e+000
    outer loop
      vertex   -2.973893e+001 1.253242e+002 5.000000e+000
      vertex   -2.973893e+001 1.253242e+002 0.000000e+000
      vertex   -2.975000e+001 1.250000e+002 5.000000e+000
    endloop
  endfacet
  facet normal -6.469405e-002 2.210168e-003 0.000000e+000
    outer loop
      vertex   -2.975000e+001 1.250000e+002 5.000000e+000
      vertex   -2.973893e+001 1.253242e+002 0.000000e+000
      vertex   -2.975000e+001 1.250000e+002 0.000000e+000
    endloop
  endfacet
  facet normal -9.994169e-001 -3.414347e-002 -0.000000e+000
    outer loop
      vertex   -2.975000e+001 1.250000e+002 5.000000e+000
      vertex   -2.975000e+001 1.250000e+002 0.000000e+000
      vertex   -2.973893e+001 1.246758e+002 5.000000e+000
    endloop
  endfacet
  facet normal -6.469405e-002 -2.210168e-003 -0.000000e+000
    outer loop
      vertex   -2.973893e+001 1.246758e+002 5.000000e+000
      vertex   -2.975000e+001 1.250000e+002 0.000000e+000
      vertex   -2.973893e+001 1.246758e+002 0.000000e+000
    endloop
  endfacet
  facet normal -6.439256e-002 -6.619465e-003 -0.000000e+000
    outer loop
      vertex   -2.973893e+001 1.246758e+002 5.000000e+000
      vertex   -2.973893e+001 1.246758e+002 0.000000e+000
      vertex   -2.970576e+001 1.243532e+002 0.000000e+000
    endloop
  endfacet
  facet normal -9.947577e-001 1.022597e-001 0.000000e+000
    outer loop
      vertex   -2.973893e+001 1.253242e+002 5.000000e+000
      vertex   -2.970576e+001 1.256468e+002 5.000000e+000
      vertex   -2.973893e+001 1.253242e+002 0.000000e+000
    endloop
  endfacet
  facet normal -9.926714e-001 1.020452e-001 0.000000e+000
    outer loop
      vertex   -2.973893e+001 1.253242e+002 0.000000e+000
      vertex   -2.970576e+001 1.256468e+002 5.000000e+000
      vertex   -2.970576e+001 1.256468e+002 0.000000e+000
    endloop
  endfacet
  facet normal -6.379110e-002 1.099869e-002 0.000000e+000
    outer loop
      vertex   -2.970576e+001 1.256468e+002 0.000000e+000
      vertex   -2.970576e+001 1.256468e+002 5.000000e+000
      vertex   -2.965065e+001 1.259664e+002 5.000000e+000
    endloop
  endfacet
  facet normal -9.833927e-001 1.695539e-001 -1.734723e-018
    outer loop
      vertex   -2.970576e+001 1.256468e+002 0.000000e+000
      vertex   -2.965065e+001 1.259664e+002 5.000000e+000
      vertex   -2.965065e+001 1.259664e+002 0.000000e+000
    endloop
  endfacet
  facet normal -6.289120e-002 1.532652e-002 0.000000e+000
    outer loop
      vertex   -2.965065e+001 1.259664e+002 0.000000e+000
      vertex   -2.965065e+001 1.259664e+002 5.000000e+000
      vertex   -2.957386e+001 1.262815e+002 5.000000e+000
    endloop
  endfacet
  facet normal -9.695281e-001 2.362731e-001 -1.734723e-018
    outer loop
      vertex   -2.965065e+001 1.259664e+002 0.000000e+000
      vertex   -2.957386e+001 1.262815e+002 5.000000e+000
      vertex   -2.957386e+001 1.262815e+002 0.000000e+000
    endloop
  endfacet
  facet normal -6.169894e-002 1.958241e-002 0.000000e+000
    outer loop
      vertex   -2.957386e+001 1.262815e+002 0.000000e+000
      vertex   -2.957386e+001 1.262815e+002 5.000000e+000
      vertex   -2.947574e+001 1.265907e+002 5.000000e+000
    endloop
  endfacet
  facet normal -9.511455e-001 3.018807e-001 3.469447e-018
    outer loop
      vertex   -2.957386e+001 1.262815e+002 0.000000e+000
      vertex   -2.947574e+001 1.265907e+002 5.000000e+000
      vertex   -2.947574e+001 1.265907e+002 0.000000e+000
    endloop
  endfacet
  facet normal -6.021890e-002 2.374694e-002 0.000000e+000
    outer loop
      vertex   -2.947574e+001 1.265907e+002 0.000000e+000
      vertex   -2.947574e+001 1.265907e+002 5.000000e+000
      vertex   -2.935675e+001 1.268924e+002 5.000000e+000
    endloop
  endfacet
  facet normal -9.283290e-001 3.660806e-001 0.000000e+000
    outer loop
      vertex   -2.947574e+001 1.265907e+002 0.000000e+000
      vertex   -2.935675e+001 1.268924e+002 5.000000e+000
      vertex   -2.935675e+001 1.268924e+002 0.000000e+000
    endloop
  endfacet
  facet normal -5.845867e-002 2.780145e-002 0.000000e+000
    outer loop
      vertex   -2.935675e+001 1.268924e+002 0.000000e+000
      vertex   -2.935675e+001 1.268924e+002 5.000000e+000
      vertex   -2.921745e+001 1.271853e+002 5.000000e+000
    endloop
  endfacet
  facet normal -9.011823e-001 4.285792e-001 3.469447e-018
    outer loop
      vertex   -2.935675e+001 1.268924e+002 0.000000e+000
      vertex   -2.921745e+001 1.271853e+002 5.000000e+000
      vertex   -2.921745e+001 1.271853e+002 0.000000e+000
    endloop
  endfacet
  facet normal -5.642438e-002 3.172577e-002 0.000000e+000
    outer loop
      vertex   -2.921745e+001 1.271853e+002 0.000000e+000
      vertex   -2.921745e+001 1.271853e+002 5.000000e+000
      vertex   -2.905849e+001 1.274680e+002 5.000000e+000
    endloop
  endfacet
  facet normal -8.698328e-001 4.890814e-001 3.469447e-018
    outer loop
      vertex   -2.921745e+001 1.271853e+002 0.000000e+000
      vertex   -2.905849e+001 1.274680e+002 5.000000e+000
      vertex   -2.905849e+001 1.274680e+002 0.000000e+000
    endloop
  endfacet
  facet normal -5.412818e-002 3.550239e-002 0.000000e+000
    outer loop
      vertex   -2.905849e+001 1.274680e+002 0.000000e+000
      vertex   -2.905849e+001 1.274680e+002 5.000000e+000
      vertex   -2.888061e+001 1.277392e+002 5.000000e+000
    endloop
  endfacet
  facet normal -8.344303e-001 5.472986e-001 -3.469447e-018
    outer loop
      vertex   -2.905849e+001 1.274680e+002 0.000000e+000
      vertex   -2.888061e+001 1.277392e+002 5.000000e+000
      vertex   -2.888061e+001 1.277392e+002 0.000000e+000
    endloop
  endfacet
  facet normal -5.157770e-002 3.911343e-002 0.000000e+000
    outer loop
      vertex   -2.888061e+001 1.277392e+002 0.000000e+000
      vertex   -2.888061e+001 1.277392e+002 5.000000e+000
      vertex   -2.868463e+001 1.279977e+002 5.000000e+000
    endloop
  endfacet
  facet normal -7.951279e-001 6.029772e-001 0.000000e+000
    outer loop
      vertex   -2.888061e+001 1.277392e+002 0.000000e+000
      vertex   -2.868463e+001 1.279977e+002 5.000000e+000
      vertex   -2.868463e+001 1.279977e+002 0.000000e+000
    endloop
  endfacet
  facet normal -4.878967e-002 4.254250e-002 0.000000e+000
    outer loop
      vertex   -2.868463e+001 1.279977e+002 0.000000e+000
      vertex   -2.868463e+001 1.279977e+002 5.000000e+000
      vertex   -2.847147e+001 1.282421e+002 5.000000e+000
    endloop
  endfacet
  facet normal -7.521313e-001 6.558263e-001 -6.938894e-018
    outer loop
      vertex   -2.868463e+001 1.279977e+002 0.000000e+000
      vertex   -2.847147e+001 1.282421e+002 5.000000e+000
      vertex   -2.847147e+001 1.282421e+002 0.000000e+000
    endloop
  endfacet
  facet normal -4.577172e-002 4.577210e-002 0.000000e+000
    outer loop
      vertex   -2.847147e+001 1.282421e+002 0.000000e+000
      vertex   -2.847147e+001 1.282421e+002 5.000000e+000
      vertex   -2.824213e+001 1.284715e+002 5.000000e+000
    endloop
  endfacet
  facet normal -7.056208e-001 7.056267e-001 0.000000e+000
    outer loop
      vertex   -2.847147e+001 1.282421e+002 0.000000e+000
      vertex   -2.824213e+001 1.284715e+002 5.000000e+000
      vertex   -2.824213e+001 1.284715e+002 0.000000e+000
    endloop
  endfacet
  facet normal -4.254364e-002 4.878967e-002 0.000000e+000
    outer loop
      vertex   -2.824213e+001 1.284715e+002 0.000000e+000
      vertex   -2.824213e+001 1.284715e+002 5.000000e+000
      vertex   -2.799767e+001 1.286846e+002 5.000000e+000
    endloop
  endfacet
  facet normal -6.558363e-001 7.521226e-001 0.000000e+000
    outer loop
      vertex   -2.824213e+001 1.284715e+002 0.000000e+000
      vertex   -2.799767e+001 1.286846e+002 5.000000e+000
      vertex   -2.799767e+001 1.286846e+002 0.000000e+000
    endloop
  endfacet
  facet normal -3.911153e-002 5.157884e-002 0.000000e+000
    outer loop
      vertex   -2.799767e+001 1.286846e+002 0.000000e+000
      vertex   -2.799767e+001 1.286846e+002 5.000000e+000
      vertex   -2.773923e+001 1.288806e+002 5.000000e+000
    endloop
  endfacet
  facet normal -6.029502e-001 7.951484e-001 0.000000e+000
    outer loop
      vertex   -2.799767e+001 1.286846e+002 0.000000e+000
      vertex   -2.773923e+001 1.288806e+002 5.000000e+000
      vertex   -2.773923e+001 1.288806e+002 0.000000e+000
    endloop
  endfacet
  facet normal -3.550278e-002 5.412780e-002 0.000000e+000
    outer loop
      vertex   -2.773923e+001 1.288806e+002 0.000000e+000
      vertex   -2.773923e+001 1.288806e+002 5.000000e+000
      vertex   -2.746802e+001 1.290585e+002 5.000000e+000
    endloop
  endfacet
  facet normal -5.473053e-001 8.344259e-001 3.469447e-018
    outer loop
      vertex   -2.773923e+001 1.288806e+002 0.000000e+000
      vertex   -2.746802e+001 1.290585e+002 5.000000e+000
      vertex   -2.746802e+001 1.290585e+002 0.000000e+000
    endloop
  endfacet
  facet normal -3.172653e-002 5.642438e-002 0.000000e+000
    outer loop
      vertex   -2.746802e+001 1.290585e+002 0.000000e+000
      vertex   -2.746802e+001 1.290585e+002 5.000000e+000
      vertex   -2.718531e+001 1.292175e+002 5.000000e+000
    endloop
  endfacet
  facet normal -4.890903e-001 8.698277e-001 3.469447e-018
    outer loop
      vertex   -2.746802e+001 1.290585e+002 0.000000e+000
      vertex   -2.718531e+001 1.292175e+002 5.000000e+000
      vertex   -2.718531e+001 1.292175e+002 0.000000e+000
    endloop
  endfacet
  facet normal -2.780107e-002 5.845792e-002 0.000000e+000
    outer loop
      vertex   -2.718531e+001 1.292175e+002 0.000000e+000
      vertex   -2.718531e+001 1.292175e+002 5.000000e+000
      vertex   -2.689240e+001 1.293568e+002 5.000000e+000
    endloop
  endfacet
  facet normal -4.285790e-001 9.011825e-001 -3.469447e-018
    outer loop
      vertex   -2.718531e+001 1.292175e+002 0.000000e+000
      vertex   -2.689240e+001 1.293568e+002 5.000000e+000
      vertex   -2.689240e+001 1.293568e+002 0.000000e+000
    endloop
  endfacet
  facet normal -2.374770e-002 6.021889e-002 0.000000e+000
    outer loop
      vertex   -2.689240e+001 1.293568e+002 0.000000e+000
      vertex   -2.689240e+001 1.293568e+002 5.000000e+000
      vertex   -2.659068e+001 1.294757e+002 5.000000e+000
    endloop
  endfacet
  facet normal -3.660907e-001 9.283250e-001 0.000000e+000
    outer loop
      vertex   -2.689240e+001 1.293568e+002 0.000000e+000
      vertex   -2.659068e+001 1.294757e+002 5.000000e+000
      vertex   -2.659068e+001 1.294757e+002 0.000000e+000
    endloop
  endfacet
  facet normal -1.958165e-002 6.169894e-002 0.000000e+000
    outer loop
      vertex   -2.659068e+001 1.294757e+002 0.000000e+000
      vertex   -2.659068e+001 1.294757e+002 5.000000e+000
      vertex   -2.628153e+001 1.295739e+002 5.000000e+000
    endloop
  endfacet
  facet normal -3.018701e-001 9.511489e-001 -3.469447e-018
    outer loop
      vertex   -2.659068e+001 1.294757e+002 0.000000e+000
      vertex   -2.628153e+001 1.295739e+002 5.000000e+000
      vertex   -2.628153e+001 1.295739e+002 0.000000e+000
    endloop
  endfacet
  facet normal -1.532728e-002 6.289157e-002 0.000000e+000
    outer loop
      vertex   -2.628153e+001 1.295739e+002 0.000000e+000
      vertex   -2.628153e+001 1.295739e+002 5.000000e+000
      vertex   -2.596642e+001 1.296507e+002 5.000000e+000
    endloop
  endfacet
  facet normal -2.362828e-001 9.695258e-001 0.000000e+000
    outer loop
      vertex   -2.628153e+001 1.295739e+002 0.000000e+000
      vertex   -2.596642e+001 1.296507e+002 5.000000e+000
      vertex   -2.596642e+001 1.296507e+002 0.000000e+000
    endloop
  endfacet
  facet normal -1.099983e-002 6.379072e-002 0.000000e+000
    outer loop
      vertex   -2.596642e+001 1.296507e+002 0.000000e+000
      vertex   -2.596642e+001 1.296507e+002 5.000000e+000
      vertex   -2.564679e+001 1.297058e+002 5.000000e+000
    endloop
  endfacet
  facet normal -1.695720e-001 9.833896e-001 0.000000e+000
    outer loop
      vertex   -2.596642e+001 1.296507e+002 0.000000e+000
      vertex   -2.564679e+001 1.297058e+002 5.000000e+000
      vertex   -2.564679e+001 1.297058e+002 0.000000e+000
    endloop
  endfacet
  facet normal -6.617561e-003 6.439256e-002 0.000000e+000
    outer loop
      vertex   -2.564679e+001 1.297058e+002 0.000000e+000
      vertex   -2.564679e+001 1.297058e+002 5.000000e+000
      vertex   -2.532415e+001 1.297389e+002 5.000000e+000
    endloop
  endfacet
  facet normal -1.020162e-001 9.926744e-001 8.673617e-019
    outer loop
      vertex   -2.564679e+001 1.297058e+002 0.000000e+000
      vertex   -2.532415e+001 1.297389e+002 5.000000e+000
      vertex   -2.532415e+001 1.297389e+002 0.000000e+000
    endloop
  endfacet
  facet normal -2.210929e-003 6.469443e-002 0.000000e+000
    outer loop
      vertex   -2.532415e+001 1.297389e+002 0.000000e+000
      vertex   -2.532415e+001 1.297389e+002 5.000000e+000
      vertex   -2.500000e+001 1.297500e+002 5.000000e+000
    endloop
  endfacet
  facet normal -3.408339e-002 9.973204e-001 0.000000e+000
    outer loop
      vertex   -2.532415e+001 1.297389e+002 0.000000e+000
      vertex   -2.500000e+001 1.297500e+002 5.000000e+000
      vertex   -2.500000e+001 1.297500e+002 0.000000e+000
    endloop
  endfacet
  facet normal 2.210929e-003 6.469443e-002 -0.000000e+000
    outer loop
      vertex   -2.500000e+001 1.297500e+002 0.000000e+000
      vertex   -2.500000e+001 1.297500e+002 5.000000e+000
      vertex   -2.467585e+001 1.297389e+002 5.000000e+000
    endloop
  endfacet
  facet normal 3.408339e-002 9.973204e-001 0.000000e+000
    outer loop
      vertex   -2.500000e+001 1.297500e+002 0.000000e+000
      vertex   -2.467585e+001 1.297389e+002 5.000000e+000
      vertex   -2.467585e+001 1.297389e+002 0.000000e+000
    endloop
  endfacet
  facet normal 6.617561e-003 6.439256e-002 -0.000000e+000
    outer loop
      vertex   -2.467585e+001 1.297389e+002 0.000000e+000
      vertex   -2.467585e+001 1.297389e+002 5.000000e+000
      vertex   -2.435321e+001 1.297058e+002 5.000000e+000
    endloop
  endfacet
  facet normal 1.020162e-001 9.926744e-001 -8.673617e-019
    outer loop
      vertex   -2.467585e+001 1.297389e+002 0.000000e+000
      vertex   -2.435321e+001 1.297058e+002 5.000000e+000
      vertex   -2.435321e+001 1.297058e+002 0.000000e+000
    endloop
  endfacet
  facet normal 1.099983e-002 6.379072e-002 -0.000000e+000
    outer loop
      vertex   -2.435321e+001 1.297058e+002 0.000000e+000
      vertex   -2.435321e+001 1.297058e+002 5.000000e+000
      vertex   -2.403358e+001 1.296507e+002 5.000000e+000
    endloop
  endfacet
  facet normal 1.695720e-001 9.833896e-001 0.000000e+000
    outer loop
      vertex   -2.435321e+001 1.297058e+002 0.000000e+000
      vertex   -2.403358e+001 1.296507e+002 5.000000e+000
      vertex   -2.403358e+001 1.296507e+002 0.000000e+000
    endloop
  endfacet
  facet normal 1.532728e-002 6.289157e-002 -0.000000e+000
    outer loop
      vertex   -2.403358e+001 1.296507e+002 0.000000e+000
      vertex   -2.403358e+001 1.296507e+002 5.000000e+000
      vertex   -2.371847e+001 1.295739e+002 5.000000e+000
    endloop
  endfacet
  facet normal 2.362828e-001 9.695258e-001 0.000000e+000
    outer loop
      vertex   -2.403358e+001 1.296507e+002 0.000000e+000
      vertex   -2.371847e+001 1.295739e+002 5.000000e+000
      vertex   -2.371847e+001 1.295739e+002 0.000000e+000
    endloop
  endfacet
  facet normal 1.958165e-002 6.169894e-002 -0.000000e+000
    outer loop
      vertex   -2.371847e+001 1.295739e+002 0.000000e+000
      vertex   -2.371847e+001 1.295739e+002 5.000000e+000
      vertex   -2.340932e+001 1.294757e+002 5.000000e+000
    endloop
  endfacet
  facet normal 3.018701e-001 9.511489e-001 3.469447e-018
    outer loop
      vertex   -2.371847e+001 1.295739e+002 0.000000e+000
      vertex   -2.340932e+001 1.294757e+002 5.000000e+000
      vertex   -2.340932e+001 1.294757e+002 0.000000e+000
    endloop
  endfacet
  facet normal 2.374770e-002 6.021889e-002 -0.000000e+000
    outer loop
      vertex   -2.340932e+001 1.294757e+002 0.000000e+000
      vertex   -2.340932e+001 1.294757e+002 5.000000e+000
      vertex   -2.310760e+001 1.293568e+002 5.000000e+000
    endloop
  endfacet
  facet normal 3.660907e-001 9.283250e-001 0.000000e+000
    outer loop
      vertex   -2.340932e+001 1.294757e+002 0.000000e+000
      vertex   -2.310760e+001 1.293568e+002 5.000000e+000
      vertex   -2.310760e+001 1.293568e+002 0.000000e+000
    endloop
  endfacet
  facet normal 2.780107e-002 5.845792e-002 -0.000000e+000
    outer loop
      vertex   -2.310760e+001 1.293568e+002 0.000000e+000
      vertex   -2.310760e+001 1.293568e+002 5.000000e+000
      vertex   -2.281469e+001 1.292175e+002 5.000000e+000
    endloop
  endfacet
  facet normal 4.285790e-001 9.011825e-001 3.469447e-018
    outer loop
      vertex   -2.310760e+001 1.293568e+002 0.000000e+000
      vertex   -2.281469e+001 1.292175e+002 5.000000e+000
      vertex   -2.281469e+001 1.292175e+002 0.000000e+000
    endloop
  endfacet
  facet normal 3.172653e-002 5.642438e-002 -0.000000e+000
    outer loop
      vertex   -2.281469e+001 1.292175e+002 0.000000e+000
      vertex   -2.281469e+001 1.292175e+002 5.000000e+000
      vertex   -2.253198e+001 1.290585e+002 5.000000e+000
    endloop
  endfacet
  facet normal 4.890903e-001 8.698277e-001 -3.469447e-018
    outer loop
      vertex   -2.281469e+001 1.292175e+002 0.000000e+000
      vertex   -2.253198e+001 1.290585e+002 5.000000e+000
      vertex   -2.253198e+001 1.290585e+002 0.000000e+000
    endloop
  endfacet
  facet normal 3.550278e-002 5.412780e-002 -0.000000e+000
    outer loop
      vertex   -2.253198e+001 1.290585e+002 0.000000e+000
      vertex   -2.253198e+001 1.290585e+002 5.000000e+000
      vertex   -2.226077e+001 1.288806e+002 5.000000e+000
    endloop
  endfacet
  facet normal 5.473053e-001 8.344259e-001 -3.469447e-018
    outer loop
      vertex   -2.253198e+001 1.290585e+002 0.000000e+000
      vertex   -2.226077e+001 1.288806e+002 5.000000e+000
      vertex   -2.226077e+001 1.288806e+002 0.000000e+000
    endloop
  endfacet
  facet normal 3.911153e-002 5.157884e-002 -0.000000e+000
    outer loop
      vertex   -2.226077e+001 1.288806e+002 0.000000e+000
      vertex   -2.226077e+001 1.288806e+002 5.000000e+000
      vertex   -2.200233e+001 1.286846e+002 5.000000e+000
    endloop
  endfacet
  facet normal 6.029502e-001 7.951484e-001 0.000000e+000
    outer loop
      vertex   -2.226077e+001 1.288806e+002 0.000000e+000
      vertex   -2.200233e+001 1.286846e+002 5.000000e+000
      vertex   -2.200233e+001 1.286846e+002 0.000000e+000
    endloop
  endfacet
  facet normal 4.254364e-002 4.878967e-002 -0.000000e+000
    outer loop
      vertex   -2.200233e+001 1.286846e+002 0.000000e+000
      vertex   -2.200233e+001 1.286846e+002 5.000000e+000
      vertex   -2.175787e+001 1.284715e+002 5.000000e+000
    endloop
  endfacet
  facet normal 6.558363e-001 7.521226e-001 0.000000e+000
    outer loop
      vertex   -2.200233e+001 1.286846e+002 0.000000e+000
      vertex   -2.175787e+001 1.284715e+002 5.000000e+000
      vertex   -2.175787e+001 1.284715e+002 0.000000e+000
    endloop
  endfacet
  facet normal 4.577172e-002 4.577210e-002 -0.000000e+000
    outer loop
      vertex   -2.175787e+001 1.284715e+002 0.000000e+000
      vertex   -2.175787e+001 1.284715e+002 5.000000e+000
      vertex   -2.152853e+001 1.282421e+002 5.000000e+000
    endloop
  endfacet
  facet normal 7.056208e-001 7.056267e-001 0.000000e+000
    outer loop
      vertex   -2.175787e+001 1.284715e+002 0.000000e+000
      vertex   -2.152853e+001 1.282421e+002 5.000000e+000
      vertex   -2.152853e+001 1.282421e+002 0.000000e+000
    endloop
  endfacet
  facet normal 4.878967e-002 4.254250e-002 -0.000000e+000
    outer loop
      vertex   -2.152853e+001 1.282421e+002 0.000000e+000
      vertex   -2.152853e+001 1.282421e+002 5.000000e+000
      vertex   -2.131537e+001 1.279977e+002 5.000000e+000
    endloop
  endfacet
  facet normal 7.521313e-001 6.558263e-001 6.938894e-018
    outer loop
      vertex   -2.152853e+001 1.282421e+002 0.000000e+000
      vertex   -2.131537e+001 1.279977e+002 5.000000e+000
      vertex   -2.131537e+001 1.279977e+002 0.000000e+000
    endloop
  endfacet
  facet normal 5.157770e-002 3.911343e-002 -0.000000e+000
    outer loop
      vertex   -2.131537e+001 1.279977e+002 0.000000e+000
      vertex   -2.131537e+001 1.279977e+002 5.000000e+000
      vertex   -2.111939e+001 1.277392e+002 5.000000e+000
    endloop
  endfacet
  facet normal 7.951279e-001 6.029772e-001 0.000000e+000
    outer loop
      vertex   -2.131537e+001 1.279977e+002 0.000000e+000
      vertex   -2.111939e+001 1.277392e+002 5.000000e+000
      vertex   -2.111939e+001 1.277392e+002 0.000000e+000
    endloop
  endfacet
  facet normal 5.412818e-002 3.550239e-002 -0.000000e+000
    outer loop
      vertex   -2.111939e+001 1.277392e+002 0.000000e+000
      vertex   -2.111939e+001 1.277392e+002 5.000000e+000
      vertex   -2.094151e+001 1.274680e+002 5.000000e+000
    endloop
  endfacet
  facet normal 8.344303e-001 5.472986e-001 3.469447e-018
    outer loop
      vertex   -2.111939e+001 1.277392e+002 0.000000e+000
      vertex   -2.094151e+001 1.274680e+002 5.000000e+000
      vertex   -2.094151e+001 1.274680e+002 0.000000e+000
    endloop
  endfacet
  facet normal 5.642438e-002 3.172577e-002 -0.000000e+000
    outer loop
      vertex   -2.094151e+001 1.274680e+002 0.000000e+000
      vertex   -2.094151e+001 1.274680e+002 5.000000e+000
      vertex   -2.078255e+001 1.271853e+002 5.000000e+000
    endloop
  endfacet
  facet normal 8.698328e-001 4.890814e-001 -3.469447e-018
    outer loop
      vertex   -2.094151e+001 1.274680e+002 0.000000e+000
      vertex   -2.078255e+001 1.271853e+002 5.000000e+000
      vertex   -2.078255e+001 1.271853e+002 0.000000e+000
    endloop
  endfacet
  facet normal 5.845867e-002 2.780145e-002 -0.000000e+000
    outer loop
      vertex   -2.078255e+001 1.271853e+002 0.000000e+000
      vertex   -2.078255e+001 1.271853e+002 5.000000e+000
      vertex   -2.064325e+001 1.268924e+002 5.000000e+000
    endloop
  endfacet
  facet normal 9.011823e-001 4.285792e-001 -3.469447e-018
    outer loop
      vertex   -2.078255e+001 1.271853e+002 0.000000e+000
      vertex   -2.064325e+001 1.268924e+002 5.000000e+000
      vertex   -2.064325e+001 1.268924e+002 0.000000e+000
    endloop
  endfacet
  facet normal 6.021890e-002 2.374694e-002 -0.000000e+000
    outer loop
      vertex   -2.064325e+001 1.268924e+002 0.000000e+000
      vertex   -2.064325e+001 1.268924e+002 5.000000e+000
      vertex   -2.052426e+001 1.265907e+002 5.000000e+000
    endloop
  endfacet
  facet normal 9.283290e-001 3.660806e-001 0.000000e+000
    outer loop
      vertex   -2.064325e+001 1.268924e+002 0.000000e+000
      vertex   -2.052426e+001 1.265907e+002 5.000000e+000
      vertex   -2.052426e+001 1.265907e+002 0.000000e+000
    endloop
  endfacet
  facet normal 6.169894e-002 1.958241e-002 -0.000000e+000
    outer loop
      vertex   -2.052426e+001 1.265907e+002 0.000000e+000
      vertex   -2.052426e+001 1.265907e+002 5.000000e+000
      vertex   -2.042614e+001 1.262815e+002 5.000000e+000
    endloop
  endfacet
  facet normal 9.511455e-001 3.018807e-001 -3.469447e-018
    outer loop
      vertex   -2.052426e+001 1.265907e+002 0.000000e+000
      vertex   -2.042614e+001 1.262815e+002 5.000000e+000
      vertex   -2.042614e+001 1.262815e+002 0.000000e+000
    endloop
  endfacet
  facet normal 6.289120e-002 1.532652e-002 -0.000000e+000
    outer loop
      vertex   -2.042614e+001 1.262815e+002 0.000000e+000
      vertex   -2.042614e+001 1.262815e+002 5.000000e+000
      vertex   -2.034935e+001 1.259664e+002 5.000000e+000
    endloop
  endfacet
  facet normal 9.695281e-001 2.362731e-001 1.734723e-018
    outer loop
      vertex   -2.042614e+001 1.262815e+002 0.000000e+000
      vertex   -2.034935e+001 1.259664e+002 5.000000e+000
      vertex   -2.034935e+001 1.259664e+002 0.000000e+000
    endloop
  endfacet
  facet normal 6.379110e-002 1.099869e-002 -0.000000e+000
    outer loop
      vertex   -2.034935e+001 1.259664e+002 0.000000e+000
      vertex   -2.034935e+001 1.259664e+002 5.000000e+000
      vertex   -2.029424e+001 1.256468e+002 5.000000e+000
    endloop
  endfacet
  facet normal 9.833927e-001 1.695539e-001 1.734723e-018
    outer loop
      vertex   -2.034935e+001 1.259664e+002 0.000000e+000
      vertex   -2.029424e+001 1.256468e+002 5.000000e+000
      vertex   -2.029424e+001 1.256468e+002 0.000000e+000
    endloop
  endfacet
  facet normal 6.439256e-002 6.619465e-003 -0.000000e+000
    outer loop
      vertex   -2.029424e+001 1.256468e+002 0.000000e+000
      vertex   -2.029424e+001 1.256468e+002 5.000000e+000
      vertex   -2.026107e+001 1.253242e+002 5.000000e+000
    endloop
  endfacet
  facet normal 9.926714e-001 1.020452e-001 0.000000e+000
    outer loop
      vertex   -2.029424e+001 1.256468e+002 0.000000e+000
      vertex   -2.026107e+001 1.253242e+002 5.000000e+000
      vertex   -2.026107e+001 1.253242e+002 0.000000e+000
    endloop
  endfacet
  facet normal 6.469405e-002 2.210168e-003 -0.000000e+000
    outer loop
      vertex   -2.026107e+001 1.253242e+002 0.000000e+000
      vertex   -2.026107e+001 1.253242e+002 5.000000e+000
      vertex   -2.025000e+001 1.250000e+002 5.000000e+000
    endloop
  endfacet
  facet normal 9.973209e-001 3.407186e-002 -4.336809e-019
    outer loop
      vertex   -2.026107e+001 1.253242e+002 0.000000e+000
      vertex   -2.025000e+001 1.250000e+002 5.000000e+000
      vertex   -2.025000e+001 1.250000e+002 0.000000e+000
    endloop
  endfacet
  facet normal 6.469405e-002 -2.210168e-003 0.000000e+000
    outer loop
      vertex   -2.025000e+001 1.250000e+002 0.000000e+000
      vertex   -2.025000e+001 1.250000e+002 5.000000e+000
      vertex   -2.026107e+001 1.246758e+002 5.000000e+000
    endloop
  endfacet
  facet normal 9.973209e-001 -3.407186e-002 4.336809e-019
    outer loop
      vertex   -2.025000e+001 1.250000e+002 0.000000e+000
      vertex   -2.026107e+001 1.246758e+002 5.000000e+000
      vertex   -2.026107e+001 1.246758e+002 0.000000e+000
    endloop
  endfacet
  facet normal 6.439256e-002 -6.619465e-003 0.000000e+000
    outer loop
      vertex   -2.026107e+001 1.246758e+002 0.000000e+000
      vertex   -2.026107e+001 1.246758e+002 5.000000e+000
      vertex   -2.029424e+001 1.243532e+002 5.000000e+000
    endloop
  endfacet
  facet normal 9.926714e-001 -1.020452e-001 0.000000e+000
    outer loop
      vertex   -2.026107e+001 1.246758e+002 0.000000e+000
      vertex   -2.029424e+001 1.243532e+002 5.000000e+000
      vertex   -2.029424e+001 1.243532e+002 0.000000e+000
    endloop
  endfacet
  facet normal 6.379110e-002 -1.099869e-002 0.000000e+000
    outer loop
      vertex   -2.029424e+001 1.243532e+002 0.000000e+000
      vertex   -2.029424e+001 1.243532e+002 5.000000e+000
      vertex   -2.034935e+001 1.240336e+002 5.000000e+000
    endloop
  endfacet
  facet normal 9.833927e-001 -1.695539e-001 -1.734723e-018
    outer loop
      vertex   -2.029424e+001 1.243532e+002 0.000000e+000
      vertex   -2.034935e+001 1.240336e+002 5.000000e+000
      vertex   -2.034935e+001 1.240336e+002 0.000000e+000
    endloop
  endfacet
  facet normal 6.289120e-002 -1.532652e-002 0.000000e+000
    outer loop
      vertex   -2.034935e+001 1.240336e+002 0.000000e+000
      vertex   -2.034935e+001 1.240336e+002 5.000000e+000
      vertex   -2.042614e+001 1.237185e+002 5.000000e+000
    endloop
  endfacet
  facet normal 9.695281e-001 -2.362731e-001 -1.734723e-018
    outer loop
      vertex   -2.034935e+001 1.240336e+002 0.000000e+000
      vertex   -2.042614e+001 1.237185e+002 5.000000e+000
      vertex   -2.042614e+001 1.237185e+002 0.000000e+000
    endloop
  endfacet
  facet normal 6.169894e-002 -1.958241e-002 0.000000e+000
    outer loop
      vertex   -2.042614e+001 1.237185e+002 0.000000e+000
      vertex   -2.042614e+001 1.237185e+002 5.000000e+000
      vertex   -2.052426e+001 1.234093e+002 5.000000e+000
    endloop
  endfacet
  facet normal 9.511455e-001 -3.018807e-001 3.469447e-018
    outer loop
      vertex   -2.042614e+001 1.237185e+002 0.000000e+000
      vertex   -2.052426e+001 1.234093e+002 5.000000e+000
      vertex   -2.052426e+001 1.234093e+002 0.000000e+000
    endloop
  endfacet
  facet normal 6.021890e-002 -2.374694e-002 0.000000e+000
    outer loop
      vertex   -2.052426e+001 1.234093e+002 0.000000e+000
      vertex   -2.052426e+001 1.234093e+002 5.000000e+000
      vertex   -2.064325e+001 1.231076e+002 5.000000e+000
    endloop
  endfacet
  facet normal 9.283290e-001 -3.660806e-001 0.000000e+000
    outer loop
      vertex   -2.052426e+001 1.234093e+002 0.000000e+000
      vertex   -2.064325e+001 1.231076e+002 5.000000e+000
      vertex   -2.064325e+001 1.231076e+002 0.000000e+000
    endloop
  endfacet
  facet normal 5.845867e-002 -2.780145e-002 0.000000e+000
    outer loop
      vertex   -2.064325e+001 1.231076e+002 0.000000e+000
      vertex   -2.064325e+001 1.231076e+002 5.000000e+000
      vertex   -2.078255e+001 1.228147e+002 5.000000e+000
    endloop
  endfacet
  facet normal 9.011823e-001 -4.285792e-001 3.469447e-018
    outer loop
      vertex   -2.064325e+001 1.231076e+002 0.000000e+000
      vertex   -2.078255e+001 1.228147e+002 5.000000e+000
      vertex   -2.078255e+001 1.228147e+002 0.000000e+000
    endloop
  endfacet
  facet normal 5.642438e-002 -3.172577e-002 0.000000e+000
    outer loop
      vertex   -2.078255e+001 1.228147e+002 0.000000e+000
      vertex   -2.078255e+001 1.228147e+002 5.000000e+000
      vertex   -2.094151e+001 1.225320e+002 5.000000e+000
    endloop
  endfacet
  facet normal 8.698328e-001 -4.890814e-001 3.469447e-018
    outer loop
      vertex   -2.078255e+001 1.228147e+002 0.000000e+000
      vertex   -2.094151e+001 1.225320e+002 5.000000e+000
      vertex   -2.094151e+001 1.225320e+002 0.000000e+000
    endloop
  endfacet
  facet normal 5.412818e-002 -3.550239e-002 0.000000e+000
    outer loop
      vertex   -2.094151e+001 1.225320e+002 0.000000e+000
      vertex   -2.094151e+001 1.225320e+002 5.000000e+000
      vertex   -2.111939e+001 1.222608e+002 5.000000e+000
    endloop
  endfacet
  facet normal 8.344303e-001 -5.472986e-001 -3.469447e-018
    outer loop
      vertex   -2.094151e+001 1.225320e+002 0.000000e+000
      vertex   -2.111939e+001 1.222608e+002 5.000000e+000
      vertex   -2.111939e+001 1.222608e+002 0.000000e+000
    endloop
  endfacet
  facet normal 5.157770e-002 -3.911343e-002 0.000000e+000
    outer loop
      vertex   -2.111939e+001 1.222608e+002 0.000000e+000
      vertex   -2.111939e+001 1.222608e+002 5.000000e+000
      vertex   -2.131537e+001 1.220023e+002 5.000000e+000
    endloop
  endfacet
  facet normal 7.951279e-001 -6.029772e-001 0.000000e+000
    outer loop
      vertex   -2.111939e+001 1.222608e+002 0.000000e+000
      vertex   -2.131537e+001 1.220023e+002 5.000000e+000
      vertex   -2.131537e+001 1.220023e+002 0.000000e+000
    endloop
  endfacet
  facet normal 4.878967e-002 -4.254250e-002 0.000000e+000
    outer loop
      vertex   -2.131537e+001 1.220023e+002 0.000000e+000
      vertex   -2.131537e+001 1.220023e+002 5.000000e+000
      vertex   -2.152853e+001 1.217579e+002 5.000000e+000
    endloop
  endfacet
  facet normal 7.521313e-001 -6.558263e-001 -6.938894e-018
    outer loop
      vertex   -2.131537e+001 1.220023e+002 0.000000e+000
      vertex   -2.152853e+001 1.217579e+002 5.000000e+000
      vertex   -2.152853e+001 1.217579e+002 0.000000e+000
    endloop
  endfacet
  facet normal 4.577324e-002 -4.577210e-002 0.000000e+000
    outer loop
      vertex   -2.152853e+001 1.217579e+002 0.000000e+000
      vertex   -2.152853e+001 1.217579e+002 5.000000e+000
      vertex   -2.175787e+001 1.215285e+002 5.000000e+000
    endloop
  endfacet
  facet normal 7.056326e-001 -7.056149e-001 6.938894e-018
    outer loop
      vertex   -2.152853e+001 1.217579e+002 0.000000e+000
      vertex   -2.175787e+001 1.215285e+002 5.000000e+000
      vertex   -2.175787e+001 1.215285e+002 0.000000e+000
    endloop
  endfacet
  facet normal 4.254212e-002 -4.878967e-002 0.000000e+000
    outer loop
      vertex   -2.175787e+001 1.215285e+002 0.000000e+000
      vertex   -2.175787e+001 1.215285e+002 5.000000e+000
      vertex   -2.200233e+001 1.213154e+002 5.000000e+000
    endloop
  endfacet
  facet normal 6.558230e-001 -7.521343e-001 0.000000e+000
    outer loop
      vertex   -2.175787e+001 1.215285e+002 0.000000e+000
      vertex   -2.200233e+001 1.213154e+002 5.000000e+000
      vertex   -2.200233e+001 1.213154e+002 0.000000e+000
    endloop
  endfacet
  facet normal 3.911305e-002 -5.157884e-002 0.000000e+000
    outer loop
      vertex   -2.200233e+001 1.213154e+002 0.000000e+000
      vertex   -2.200233e+001 1.213154e+002 5.000000e+000
      vertex   -2.226077e+001 1.211194e+002 5.000000e+000
    endloop
  endfacet
  facet normal 6.029650e-001 -7.951371e-001 0.000000e+000
    outer loop
      vertex   -2.200233e+001 1.213154e+002 0.000000e+000
      vertex   -2.226077e+001 1.211194e+002 5.000000e+000
      vertex   -2.226077e+001 1.211194e+002 0.000000e+000
    endloop
  endfacet
  facet normal 3.550278e-002 -5.412780e-002 0.000000e+000
    outer loop
      vertex   -2.226077e+001 1.211194e+002 0.000000e+000
      vertex   -2.226077e+001 1.211194e+002 5.000000e+000
      vertex   -2.253198e+001 1.209415e+002 5.000000e+000
    endloop
  endfacet
  facet normal 5.473053e-001 -8.344259e-001 3.469447e-018
    outer loop
      vertex   -2.226077e+001 1.211194e+002 0.000000e+000
      vertex   -2.253198e+001 1.209415e+002 5.000000e+000
      vertex   -2.253198e+001 1.209415e+002 0.000000e+000
    endloop
  endfacet
  facet normal 3.172501e-002 -5.642438e-002 0.000000e+000
    outer loop
      vertex   -2.253198e+001 1.209415e+002 0.000000e+000
      vertex   -2.253198e+001 1.209415e+002 5.000000e+000
      vertex   -2.281469e+001 1.207825e+002 5.000000e+000
    endloop
  endfacet
  facet normal 4.890725e-001 -8.698378e-001 0.000000e+000
    outer loop
      vertex   -2.253198e+001 1.209415e+002 0.000000e+000
      vertex   -2.281469e+001 1.207825e+002 5.000000e+000
      vertex   -2.281469e+001 1.207825e+002 0.000000e+000
    endloop
  endfacet
  facet normal 2.780107e-002 -5.845792e-002 0.000000e+000
    outer loop
      vertex   -2.281469e+001 1.207825e+002 0.000000e+000
      vertex   -2.281469e+001 1.207825e+002 5.000000e+000
      vertex   -2.310760e+001 1.206432e+002 5.000000e+000
    endloop
  endfacet
  facet normal 4.285790e-001 -9.011825e-001 -3.469447e-018
    outer loop
      vertex   -2.281469e+001 1.207825e+002 0.000000e+000
      vertex   -2.310760e+001 1.206432e+002 5.000000e+000
      vertex   -2.310760e+001 1.206432e+002 0.000000e+000
    endloop
  endfacet
  facet normal 2.374770e-002 -6.021889e-002 0.000000e+000
    outer loop
      vertex   -2.310760e+001 1.206432e+002 0.000000e+000
      vertex   -2.310760e+001 1.206432e+002 5.000000e+000
      vertex   -2.340932e+001 1.205243e+002 5.000000e+000
    endloop
  endfacet
  facet normal 3.660907e-001 -9.283250e-001 0.000000e+000
    outer loop
      vertex   -2.310760e+001 1.206432e+002 0.000000e+000
      vertex   -2.340932e+001 1.205243e+002 5.000000e+000
      vertex   -2.340932e+001 1.205243e+002 0.000000e+000
    endloop
  endfacet
  facet normal 1.958317e-002 -6.169894e-002 0.000000e+000
    outer loop
      vertex   -2.340932e+001 1.205243e+002 0.000000e+000
      vertex   -2.340932e+001 1.205243e+002 5.000000e+000
      vertex   -2.371847e+001 1.204261e+002 5.000000e+000
    endloop
  endfacet
  facet normal 3.018914e-001 -9.511421e-001 0.000000e+000
    outer loop
      vertex   -2.340932e+001 1.205243e+002 0.000000e+000
      vertex   -2.371847e+001 1.204261e+002 5.000000e+000
      vertex   -2.371847e+001 1.204261e+002 0.000000e+000
    endloop
  endfacet
  facet normal 1.532576e-002 -6.289158e-002 0.000000e+000
    outer loop
      vertex   -2.371847e+001 1.204261e+002 0.000000e+000
      vertex   -2.371847e+001 1.204261e+002 5.000000e+000
      vertex   -2.403358e+001 1.203493e+002 5.000000e+000
    endloop
  endfacet
  facet normal 2.362606e-001 -9.695312e-001 0.000000e+000
    outer loop
      vertex   -2.371847e+001 1.204261e+002 0.000000e+000
      vertex   -2.403358e+001 1.203493e+002 5.000000e+000
      vertex   -2.403358e+001 1.203493e+002 0.000000e+000
    endloop
  endfacet
  facet normal 1.099831e-002 -6.379072e-002 0.000000e+000
    outer loop
      vertex   -2.403358e+001 1.203493e+002 0.000000e+000
      vertex   -2.403358e+001 1.203493e+002 5.000000e+000
      vertex   -2.435321e+001 1.202942e+002 5.000000e+000
    endloop
  endfacet
  facet normal 1.695492e-001 -9.833935e-001 0.000000e+000
    outer loop
      vertex   -2.403358e+001 1.203493e+002 0.000000e+000
      vertex   -2.435321e+001 1.202942e+002 5.000000e+000
      vertex   -2.435321e+001 1.202942e+002 0.000000e+000
    endloop
  endfacet
  facet normal 6.620607e-003 -6.439256e-002 0.000000e+000
    outer loop
      vertex   -2.435321e+001 1.202942e+002 0.000000e+000
      vertex   -2.435321e+001 1.202942e+002 5.000000e+000
      vertex   -2.467585e+001 1.202611e+002 5.000000e+000
    endloop
  endfacet
  facet normal 1.020627e-001 -9.926696e-001 8.673617e-019
    outer loop
      vertex   -2.435321e+001 1.202942e+002 0.000000e+000
      vertex   -2.467585e+001 1.202611e+002 5.000000e+000
      vertex   -2.467585e+001 1.202611e+002 0.000000e+000
    endloop
  endfacet
  facet normal 2.209407e-003 -6.469443e-002 0.000000e+000
    outer loop
      vertex   -2.467585e+001 1.202611e+002 0.000000e+000
      vertex   -2.467585e+001 1.202611e+002 5.000000e+000
      vertex   -2.500000e+001 1.202500e+002 5.000000e+000
    endloop
  endfacet
  facet normal 3.405994e-002 -9.973212e-001 0.000000e+000
    outer loop
      vertex   -2.467585e+001 1.202611e+002 0.000000e+000
      vertex   -2.500000e+001 1.202500e+002 5.000000e+000
      vertex   -2.500000e+001 1.202500e+002 0.000000e+000
    endloop
  endfacet
  facet normal -2.209407e-003 -6.469443e-002 0.000000e+000
    outer loop
      vertex   -2.500000e+001 1.202500e+002 0.000000e+000
      vertex   -2.500000e+001 1.202500e+002 5.000000e+000
      vertex   -2.532415e+001 1.202611e+002 5.000000e+000
    endloop
  endfacet
  facet normal -3.405994e-002 -9.973212e-001 0.000000e+000
    outer loop
      vertex   -2.500000e+001 1.202500e+002 0.000000e+000
      vertex   -2.532415e+001 1.202611e+002 5.000000e+000
      vertex   -2.532415e+001 1.202611e+002 0.000000e+000
    endloop
  endfacet
  facet normal -6.620607e-003 -6.439256e-002 0.000000e+000
    outer loop
      vertex   -2.532415e+001 1.202611e+002 0.000000e+000
      vertex   -2.532415e+001 1.202611e+002 5.000000e+000
      vertex   -2.564679e+001 1.202942e+002 5.000000e+000
    endloop
  endfacet
  facet normal -1.020627e-001 -9.926696e-001 -8.673617e-019
    outer loop
      vertex   -2.532415e+001 1.202611e+002 0.000000e+000
      vertex   -2.564679e+001 1.202942e+002 5.000000e+000
      vertex   -2.564679e+001 1.202942e+002 0.000000e+000
    endloop
  endfacet
  facet normal -1.099831e-002 -6.379072e-002 0.000000e+000
    outer loop
      vertex   -2.564679e+001 1.202942e+002 0.000000e+000
      vertex   -2.564679e+001 1.202942e+002 5.000000e+000
      vertex   -2.596642e+001 1.203493e+002 5.000000e+000
    endloop
  endfacet
  facet normal -1.695492e-001 -9.833935e-001 0.000000e+000
    outer loop
      vertex   -2.564679e+001 1.202942e+002 0.000000e+000
      vertex   -2.596642e+001 1.203493e+002 5.000000e+000
      vertex   -2.596642e+001 1.203493e+002 0.000000e+000
    endloop
  endfacet
  facet normal -1.532576e-002 -6.289158e-002 0.000000e+000
    outer loop
      vertex   -2.596642e+001 1.203493e+002 0.000000e+000
      vertex   -2.596642e+001 1.203493e+002 5.000000e+000
      vertex   -2.628153e+001 1.204261e+002 5.000000e+000
    endloop
  endfacet
  facet normal -2.362606e-001 -9.695312e-001 0.000000e+000
    outer loop
      vertex   -2.596642e+001 1.203493e+002 0.000000e+000
      vertex   -2.628153e+001 1.204261e+002 5.000000e+000
      vertex   -2.628153e+001 1.204261e+002 0.000000e+000
    endloop
  endfacet
  facet normal -1.958317e-002 -6.169894e-002 0.000000e+000
    outer loop
      vertex   -2.628153e+001 1.204261e+002 0.000000e+000
      vertex   -2.628153e+001 1.204261e+002 5.000000e+000
      vertex   -2.659068e+001 1.205243e+002 5.000000e+000
    endloop
  endfacet
  facet normal -3.018914e-001 -9.511421e-001 0.000000e+000
    outer loop
      vertex   -2.628153e+001 1.204261e+002 0.000000e+000
      vertex   -2.659068e+001 1.205243e+002 5.000000e+000
      vertex   -2.659068e+001 1.205243e+002 0.000000e+000
    endloop
  endfacet
  facet normal -2.374770e-002 -6.021889e-002 0.000000e+000
    outer loop
      vertex   -2.659068e+001 1.205243e+002 0.000000e+000
      vertex   -2.659068e+001 1.205243e+002 5.000000e+000
      vertex   -2.689240e+001 1.206432e+002 5.000000e+000
    endloop
  endfacet
  facet normal -3.660907e-001 -9.283250e-001 0.000000e+000
    outer loop
      vertex   -2.659068e+001 1.205243e+002 0.000000e+000
      vertex   -2.689240e+001 1.206432e+002 5.000000e+000
      vertex   -2.689240e+001 1.206432e+002 0.000000e+000
    endloop
  endfacet
  facet normal -2.780107e-002 -5.845792e-002 0.000000e+000
    outer loop
      vertex   -2.689240e+001 1.206432e+002 0.000000e+000
      vertex   -2.689240e+001 1.206432e+002 5.000000e+000
      vertex   -2.718531e+001 1.207825e+002 5.000000e+000
    endloop
  endfacet
  facet normal -4.285790e-001 -9.011825e-001 3.469447e-018
    outer loop
      vertex   -2.689240e+001 1.206432e+002 0.000000e+000
      vertex   -2.718531e+001 1.207825e+002 5.000000e+000
      vertex   -2.718531e+001 1.207825e+002 0.000000e+000
    endloop
  endfacet
  facet normal -3.172501e-002 -5.642438e-002 0.000000e+000
    outer loop
      vertex   -2.718531e+001 1.207825e+002 0.000000e+000
      vertex   -2.718531e+001 1.207825e+002 5.000000e+000
      vertex   -2.746802e+001 1.209415e+002 5.000000e+000
    endloop
  endfacet
  facet normal -4.890725e-001 -8.698378e-001 0.000000e+000
    outer loop
      vertex   -2.718531e+001 1.207825e+002 0.000000e+000
      vertex   -2.746802e+001 1.209415e+002 5.000000e+000
      vertex   -2.746802e+001 1.209415e+002 0.000000e+000
    endloop
  endfacet
  facet normal -3.550278e-002 -5.412780e-002 0.000000e+000
    outer loop
      vertex   -2.746802e+001 1.209415e+002 0.000000e+000
      vertex   -2.746802e+001 1.209415e+002 5.000000e+000
      vertex   -2.773923e+001 1.211194e+002 5.000000e+000
    endloop
  endfacet
  facet normal -5.473053e-001 -8.344259e-001 -3.469447e-018
    outer loop
      vertex   -2.746802e+001 1.209415e+002 0.000000e+000
      vertex   -2.773923e+001 1.211194e+002 5.000000e+000
      vertex   -2.773923e+001 1.211194e+002 0.000000e+000
    endloop
  endfacet
  facet normal -3.911305e-002 -5.157884e-002 0.000000e+000
    outer loop
      vertex   -2.773923e+001 1.211194e+002 0.000000e+000
      vertex   -2.773923e+001 1.211194e+002 5.000000e+000
      vertex   -2.799767e+001 1.213154e+002 5.000000e+000
    endloop
  endfacet
  facet normal -6.029650e-001 -7.951371e-001 0.000000e+000
    outer loop
      vertex   -2.773923e+001 1.211194e+002 0.000000e+000
      vertex   -2.799767e+001 1.213154e+002 5.000000e+000
      vertex   -2.799767e+001 1.213154e+002 0.000000e+000
    endloop
  endfacet
  facet normal -4.254212e-002 -4.878967e-002 0.000000e+000
    outer loop
      vertex   -2.799767e+001 1.213154e+002 0.000000e+000
      vertex   -2.799767e+001 1.213154e+002 5.000000e+000
      vertex   -2.824213e+001 1.215285e+002 5.000000e+000
    endloop
  endfacet
  facet normal -6.558230e-001 -7.521343e-001 0.000000e+000
    outer loop
      vertex   -2.799767e+001 1.213154e+002 0.000000e+000
      vertex   -2.824213e+001 1.215285e+002 5.000000e+000
      vertex   -2.824213e+001 1.215285e+002 0.000000e+000
    endloop
  endfacet
  facet normal -4.577324e-002 -4.577210e-002 0.000000e+000
    outer loop
      vertex   -2.824213e+001 1.215285e+002 0.000000e+000
      vertex   -2.824213e+001 1.215285e+002 5.000000e+000
      vertex   -2.847147e+001 1.217579e+002 5.000000e+000
    endloop
  endfacet
  facet normal -7.056326e-001 -7.056149e-001 -6.938894e-018
    outer loop
      vertex   -2.824213e+001 1.215285e+002 0.000000e+000
      vertex   -2.847147e+001 1.217579e+002 5.000000e+000
      vertex   -2.847147e+001 1.217579e+002 0.000000e+000
    endloop
  endfacet
  facet normal -4.878967e-002 -4.254250e-002 0.000000e+000
    outer loop
      vertex   -2.847147e+001 1.217579e+002 0.000000e+000
      vertex   -2.847147e+001 1.217579e+002 5.000000e+000
      vertex   -2.868463e+001 1.220023e+002 5.000000e+000
    endloop
  endfacet
  facet normal -7.521313e-001 -6.558263e-001 6.938894e-018
    outer loop
      vertex   -2.847147e+001 1.217579e+002 0.000000e+000
      vertex   -2.868463e+001 1.220023e+002 5.000000e+000
      vertex   -2.868463e+001 1.220023e+002 0.000000e+000
    endloop
  endfacet
  facet normal -5.157770e-002 -3.911343e-002 0.000000e+000
    outer loop
      vertex   -2.868463e+001 1.220023e+002 0.000000e+000
      vertex   -2.868463e+001 1.220023e+002 5.000000e+000
      vertex   -2.888061e+001 1.222608e+002 5.000000e+000
    endloop
  endfacet
  facet normal -7.951279e-001 -6.029772e-001 0.000000e+000
    outer loop
      vertex   -2.868463e+001 1.220023e+002 0.000000e+000
      vertex   -2.888061e+001 1.222608e+002 5.000000e+000
      vertex   -2.888061e+001 1.222608e+002 0.000000e+000
    endloop
  endfacet
  facet normal -5.412818e-002 -3.550239e-002 0.000000e+000
    outer loop
      vertex   -2.888061e+001 1.222608e+002 0.000000e+000
      vertex   -2.888061e+001 1.222608e+002 5.000000e+000
      vertex   -2.905849e+001 1.225320e+002 5.000000e+000
    endloop
  endfacet
  facet normal -8.344303e-001 -5.472986e-001 3.469447e-018
    outer loop
      vertex   -2.888061e+001 1.222608e+002 0.000000e+000
      vertex   -2.905849e+001 1.225320e+002 5.000000e+000
      vertex   -2.905849e+001 1.225320e+002 0.000000e+000
    endloop
  endfacet
  facet normal -5.642438e-002 -3.172577e-002 0.000000e+000
    outer loop
      vertex   -2.905849e+001 1.225320e+002 0.000000e+000
      vertex   -2.905849e+001 1.225320e+002 5.000000e+000
      vertex   -2.921745e+001 1.228147e+002 5.000000e+000
    endloop
  endfacet
  facet normal -8.698328e-001 -4.890814e-001 -3.469447e-018
    outer loop
      vertex   -2.905849e+001 1.225320e+002 0.000000e+000
      vertex   -2.921745e+001 1.228147e+002 5.000000e+000
      vertex   -2.921745e+001 1.228147e+002 0.000000e+000
    endloop
  endfacet
  facet normal -5.845867e-002 -2.780145e-002 0.000000e+000
    outer loop
      vertex   -2.921745e+001 1.228147e+002 0.000000e+000
      vertex   -2.921745e+001 1.228147e+002 5.000000e+000
      vertex   -2.935675e+001 1.231076e+002 5.000000e+000
    endloop
  endfacet
  facet normal -9.011823e-001 -4.285792e-001 -3.469447e-018
    outer loop
      vertex   -2.921745e+001 1.228147e+002 0.000000e+000
      vertex   -2.935675e+001 1.231076e+002 5.000000e+000
      vertex   -2.935675e+001 1.231076e+002 0.000000e+000
    endloop
  endfacet
  facet normal -6.021890e-002 -2.374694e-002 0.000000e+000
    outer loop
      vertex   -2.935675e+001 1.231076e+002 0.000000e+000
      vertex   -2.935675e+001 1.231076e+002 5.000000e+000
      vertex   -2.947574e+001 1.234093e+002 5.000000e+000
    endloop
  endfacet
  facet normal -9.283290e-001 -3.660806e-001 0.000000e+000
    outer loop
      vertex   -2.935675e+001 1.231076e+002 0.000000e+000
      vertex   -2.947574e+001 1.234093e+002 5.000000e+000
      vertex   -2.947574e+001 1.234093e+002 0.000000e+000
    endloop
  endfacet
  facet normal -6.169894e-002 -1.958241e-002 0.000000e+000
    outer loop
      vertex   -2.947574e+001 1.234093e+002 0.000000e+000
      vertex   -2.947574e+001 1.234093e+002 5.000000e+000
      vertex   -2.957386e+001 1.237185e+002 5.000000e+000
    endloop
  endfacet
  facet normal -9.511455e-001 -3.018807e-001 -3.469447e-018
    outer loop
      vertex   -2.947574e+001 1.234093e+002 0.000000e+000
      vertex   -2.957386e+001 1.237185e+002 5.000000e+000
      vertex   -2.957386e+001 1.237185e+002 0.000000e+000
    endloop
  endfacet
  facet normal -6.289120e-002 -1.532652e-002 0.000000e+000
    outer loop
      vertex   -2.957386e+001 1.237185e+002 0.000000e+000
      vertex   -2.957386e+001 1.237185e+002 5.000000e+000
      vertex   -2.965065e+001 1.240336e+002 5.000000e+000
    endloop
  endfacet
  facet normal -9.695281e-001 -2.362731e-001 1.734723e-018
    outer loop
      vertex   -2.957386e+001 1.237185e+002 0.000000e+000
      vertex   -2.965065e+001 1.240336e+002 5.000000e+000
      vertex   -2.965065e+001 1.240336e+002 0.000000e+000
    endloop
  endfacet
  facet normal -6.379110e-002 -1.099869e-002 0.000000e+000
    outer loop
      vertex   -2.965065e+001 1.240336e+002 0.000000e+000
      vertex   -2.965065e+001 1.240336e+002 5.000000e+000
      vertex   -2.970576e+001 1.243532e+002 5.000000e+000
    endloop
  endfacet
  facet normal -9.833927e-001 -1.695539e-001 1.734723e-018
    outer loop
      vertex   -2.965065e+001 1.240336e+002 0.000000e+000
      vertex   -2.970576e+001 1.243532e+002 5.000000e+000
      vertex   -2.970576e+001 1.243532e+002 0.000000e+000
    endloop
  endfacet
  facet normal -6.439256e-002 -6.619465e-003 0.000000e+000
    outer loop
      vertex   -2.970576e+001 1.243532e+002 0.000000e+000
      vertex   -2.970576e+001 1.243532e+002 5.000000e+000
      vertex   -2.973893e+001 1.246758e+002 5.000000e+000
    endloop
  endfacet
  facet normal 0.000000e+000 -0.000000e+000 9.994169e-001
    outer loop
      vertex   -2.973893e+001 1.246758e+002 5.000000e+000
      vertex   -2.026107e+001 1.246758e+002 5.000000e+000
      vertex   -2.975000e+001 1.250000e+002 5.000000e+000
    endloop
  endfacet
  facet normal -0.000000e+000 0.000000e+000 3.414097e-002
    outer loop
      vertex   -2.975000e+001 1.250000e+002 5.000000e+000
      vertex   -2.026107e+001 1.246758e+002 5.000000e+000
      vertex   -2.025000e+001 1.250000e+002 5.000000e+000
    endloop
  endfacet
  facet normal 0.000000e+000 0.000000e+000 9.994169e-001
    outer loop
      vertex   -2.975000e+001 1.250000e+002 5.000000e+000
      vertex   -2.025000e+001 1.250000e+002 5.000000e+000
      vertex   -2.973893e+001 1.253242e+002 5.000000e+000
    endloop
  endfacet
  facet normal -0.000000e+000 0.000000e+000 3.414097e-002
    outer loop
      vertex   -2.973893e+001 1.253242e+002 5.000000e+000
      vertex   -2.025000e+001 1.250000e+002 5.000000e+000
      vertex   -2.026107e+001 1.253242e+002 5.000000e+000
    endloop
  endfacet
  facet normal 0.000000e+000 0.000000e+000 9.947577e-001
    outer loop
      vertex   -2.973893e+001 1.253242e+002 5.000000e+000
      vertex   -2.026107e+001 1.253242e+002 5.000000e+000
      vertex   -2.970576e+001 1.256468e+002 5.000000e+000
    endloop
  endfacet
  facet normal -0.000000e+000 0.000000e+000 3.414104e-002
    outer loop
      vertex   -2.970576e+001 1.256468e+002 5.000000e+000
      vertex   -2.026107e+001 1.253242e+002 5.000000e+000
      vertex   -2.029424e+001 1.256468e+002 5.000000e+000
    endloop
  endfacet
  facet normal 0.000000e+000 0.000000e+000 9.854596e-001
    outer loop
      vertex   -2.970576e+001 1.256468e+002 5.000000e+000
      vertex   -2.029424e+001 1.256468e+002 5.000000e+000
      vertex   -2.965065e+001 1.259664e+002 5.000000e+000
    endloop
  endfacet
  facet normal -0.000000e+000 0.000000e+000 3.414125e-002
    outer loop
      vertex   -2.965065e+001 1.259664e+002 5.000000e+000
      vertex   -2.029424e+001 1.256468e+002 5.000000e+000
      vertex   -2.034935e+001 1.259664e+002 5.000000e+000
    endloop
  endfacet
  facet normal 0.000000e+000 0.000000e+000 9.715658e-001
    outer loop
      vertex   -2.965065e+001 1.259664e+002 5.000000e+000
      vertex   -2.034935e+001 1.259664e+002 5.000000e+000
      vertex   -2.957386e+001 1.262815e+002 5.000000e+000
    endloop
  endfacet
  facet normal -0.000000e+000 0.000000e+000 3.414093e-002
    outer loop
      vertex   -2.957386e+001 1.262815e+002 5.000000e+000
      vertex   -2.034935e+001 1.259664e+002 5.000000e+000
      vertex   -2.042614e+001 1.262815e+002 5.000000e+000
    endloop
  endfacet
  facet normal 0.000000e+000 0.000000e+000 9.531446e-001
    outer loop
      vertex   -2.957386e+001 1.262815e+002 5.000000e+000
      vertex   -2.042614e+001 1.262815e+002 5.000000e+000
      vertex   -2.947574e+001 1.265907e+002 5.000000e+000
    endloop
  endfacet
  facet normal -0.000000e+000 0.000000e+000 3.414107e-002
    outer loop
      vertex   -2.947574e+001 1.265907e+002 5.000000e+000
      vertex   -2.042614e+001 1.262815e+002 5.000000e+000
      vertex   -2.052426e+001 1.265907e+002 5.000000e+000
    endloop
  endfacet
  facet normal 0.000000e+000 0.000000e+000 9.302801e-001
    outer loop
      vertex   -2.947574e+001 1.265907e+002 5.000000e+000
      vertex   -2.052426e+001 1.265907e+002 5.000000e+000
      vertex   -2.935675e+001 1.268924e+002 5.000000e+000
    endloop
  endfacet
  facet normal -0.000000e+000 0.000000e+000 3.414114e-002
    outer loop
      vertex   -2.935675e+001 1.268924e+002 5.000000e+000
      vertex   -2.052426e+001 1.265907e+002 5.000000e+000
      vertex   -2.064325e+001 1.268924e+002 5.000000e+000
    endloop
  endfacet
  facet normal 0.000000e+000 0.000000e+000 9.030764e-001
    outer loop
      vertex   -2.935675e+001 1.268924e+002 5.000000e+000
      vertex   -2.064325e+001 1.268924e+002 5.000000e+000
      vertex   -2.921745e+001 1.271853e+002 5.000000e+000
    endloop
  endfacet
  facet normal -0.000000e+000 0.000000e+000 3.414157e-002
    outer loop
      vertex   -2.921745e+001 1.271853e+002 5.000000e+000
      vertex   -2.064325e+001 1.268924e+002 5.000000e+000
      vertex   -2.078255e+001 1.271853e+002 5.000000e+000
    endloop
  endfacet
  facet normal 0.000000e+000 0.000000e+000 8.716609e-001
    outer loop
      vertex   -2.921745e+001 1.271853e+002 5.000000e+000
      vertex   -2.078255e+001 1.271853e+002 5.000000e+000
      vertex   -2.905849e+001 1.274680e+002 5.000000e+000
    endloop
  endfacet
  facet normal -0.000000e+000 0.000000e+000 3.414111e-002
    outer loop
      vertex   -2.905849e+001 1.274680e+002 5.000000e+000
      vertex   -2.078255e+001 1.271853e+002 5.000000e+000
      vertex   -2.094151e+001 1.274680e+002 5.000000e+000
    endloop
  endfacet
  facet normal 0.000000e+000 0.000000e+000 8.361841e-001
    outer loop
      vertex   -2.905849e+001 1.274680e+002 5.000000e+000
      vertex   -2.094151e+001 1.274680e+002 5.000000e+000
      vertex   -2.888061e+001 1.277392e+002 5.000000e+000
    endloop
  endfacet
  facet normal -0.000000e+000 0.000000e+000 3.414135e-002
    outer loop
      vertex   -2.888061e+001 1.277392e+002 5.000000e+000
      vertex   -2.094151e+001 1.274680e+002 5.000000e+000
      vertex   -2.111939e+001 1.277392e+002 5.000000e+000
    endloop
  endfacet
  facet normal 0.000000e+000 0.000000e+000 7.967989e-001
    outer loop
      vertex   -2.888061e+001 1.277392e+002 5.000000e+000
      vertex   -2.111939e+001 1.277392e+002 5.000000e+000
      vertex   -2.868463e+001 1.279977e+002 5.000000e+000
    endloop
  endfacet
  facet normal -0.000000e+000 0.000000e+000 3.414035e-002
    outer loop
      vertex   -2.868463e+001 1.279977e+002 5.000000e+000
      vertex   -2.111939e+001 1.277392e+002 5.000000e+000
      vertex   -2.131537e+001 1.279977e+002 5.000000e+000
    endloop
  endfacet
  facet normal 0.000000e+000 0.000000e+000 7.537122e-001
    outer loop
      vertex   -2.868463e+001 1.279977e+002 5.000000e+000
      vertex   -2.131537e+001 1.279977e+002 5.000000e+000
      vertex   -2.847147e+001 1.282421e+002 5.000000e+000
    endloop
  endfacet
  facet normal -0.000000e+000 0.000000e+000 3.414130e-002
    outer loop
      vertex   -2.847147e+001 1.282421e+002 5.000000e+000
      vertex   -2.131537e+001 1.279977e+002 5.000000e+000
      vertex   -2.152853e+001 1.282421e+002 5.000000e+000
    endloop
  endfacet
  facet normal 0.000000e+000 0.000000e+000 7.071038e-001
    outer loop
      vertex   -2.847147e+001 1.282421e+002 5.000000e+000
      vertex   -2.152853e+001 1.282421e+002 5.000000e+000
      vertex   -2.824213e+001 1.284715e+002 5.000000e+000
    endloop
  endfacet
  facet normal -0.000000e+000 0.000000e+000 3.414055e-002
    outer loop
      vertex   -2.824213e+001 1.284715e+002 5.000000e+000
      vertex   -2.152853e+001 1.282421e+002 5.000000e+000
      vertex   -2.175787e+001 1.284715e+002 5.000000e+000
    endloop
  endfacet
  facet normal 0.000000e+000 0.000000e+000 6.572147e-001
    outer loop
      vertex   -2.824213e+001 1.284715e+002 5.000000e+000
      vertex   -2.175787e+001 1.284715e+002 5.000000e+000
      vertex   -2.799767e+001 1.286846e+002 5.000000e+000
    endloop
  endfacet
  facet normal -0.000000e+000 0.000000e+000 3.414230e-002
    outer loop
      vertex   -2.799767e+001 1.286846e+002 5.000000e+000
      vertex   -2.175787e+001 1.284715e+002 5.000000e+000
      vertex   -2.200233e+001 1.286846e+002 5.000000e+000
    endloop
  endfacet
  facet normal 0.000000e+000 0.000000e+000 6.042174e-001
    outer loop
      vertex   -2.799767e+001 1.286846e+002 5.000000e+000
      vertex   -2.200233e+001 1.286846e+002 5.000000e+000
      vertex   -2.773923e+001 1.288806e+002 5.000000e+000
    endloop
  endfacet
  facet normal -0.000000e+000 0.000000e+000 3.413942e-002
    outer loop
      vertex   -2.773923e+001 1.288806e+002 5.000000e+000
      vertex   -2.200233e+001 1.286846e+002 5.000000e+000
      vertex   -2.226077e+001 1.288806e+002 5.000000e+000
    endloop
  endfacet
  facet normal 0.000000e+000 0.000000e+000 5.484557e-001
    outer loop
      vertex   -2.773923e+001 1.288806e+002 5.000000e+000
      vertex   -2.226077e+001 1.288806e+002 5.000000e+000
      vertex   -2.746802e+001 1.290585e+002 5.000000e+000
    endloop
  endfacet
  facet normal -0.000000e+000 0.000000e+000 3.414146e-002
    outer loop
      vertex   -2.746802e+001 1.290585e+002 5.000000e+000
      vertex   -2.226077e+001 1.288806e+002 5.000000e+000
      vertex   -2.253198e+001 1.290585e+002 5.000000e+000
    endloop
  endfacet
  facet normal 0.000000e+000 0.000000e+000 4.901183e-001
    outer loop
      vertex   -2.746802e+001 1.290585e+002 5.000000e+000
      vertex   -2.253198e+001 1.290585e+002 5.000000e+000
      vertex   -2.718531e+001 1.292175e+002 5.000000e+000
    endloop
  endfacet
  facet normal -0.000000e+000 0.000000e+000 3.414186e-002
    outer loop
      vertex   -2.718531e+001 1.292175e+002 5.000000e+000
      vertex   -2.253198e+001 1.290585e+002 5.000000e+000
      vertex   -2.281469e+001 1.292175e+002 5.000000e+000
    endloop
  endfacet
  facet normal 0.000000e+000 0.000000e+000 4.294797e-001
    outer loop
      vertex   -2.718531e+001 1.292175e+002 5.000000e+000
      vertex   -2.281469e+001 1.292175e+002 5.000000e+000
      vertex   -2.689240e+001 1.293568e+002 5.000000e+000
    endloop
  endfacet
  facet normal -0.000000e+000 0.000000e+000 3.414077e-002
    outer loop
      vertex   -2.689240e+001 1.293568e+002 5.000000e+000
      vertex   -2.281469e+001 1.292175e+002 5.000000e+000
      vertex   -2.310760e+001 1.293568e+002 5.000000e+000
    endloop
  endfacet
  facet normal 0.000000e+000 0.000000e+000 3.668602e-001
    outer loop
      vertex   -2.689240e+001 1.293568e+002 5.000000e+000
      vertex   -2.310760e+001 1.293568e+002 5.000000e+000
      vertex   -2.659068e+001 1.294757e+002 5.000000e+000
    endloop
  endfacet
  facet normal -0.000000e+000 0.000000e+000 3.414179e-002
    outer loop
      vertex   -2.659068e+001 1.294757e+002 5.000000e+000
      vertex   -2.310760e+001 1.293568e+002 5.000000e+000
      vertex   -2.340932e+001 1.294757e+002 5.000000e+000
    endloop
  endfacet
  facet normal 0.000000e+000 0.000000e+000 3.025045e-001
    outer loop
      vertex   -2.659068e+001 1.294757e+002 5.000000e+000
      vertex   -2.340932e+001 1.294757e+002 5.000000e+000
      vertex   -2.628153e+001 1.295739e+002 5.000000e+000
    endloop
  endfacet
  facet normal -0.000000e+000 0.000000e+000 3.413983e-002
    outer loop
      vertex   -2.628153e+001 1.295739e+002 5.000000e+000
      vertex   -2.340932e+001 1.294757e+002 5.000000e+000
      vertex   -2.371847e+001 1.295739e+002 5.000000e+000
    endloop
  endfacet
  facet normal 0.000000e+000 0.000000e+000 2.367794e-001
    outer loop
      vertex   -2.628153e+001 1.295739e+002 5.000000e+000
      vertex   -2.371847e+001 1.295739e+002 5.000000e+000
      vertex   -2.596642e+001 1.296507e+002 5.000000e+000
    endloop
  endfacet
  facet normal -0.000000e+000 0.000000e+000 3.414343e-002
    outer loop
      vertex   -2.596642e+001 1.296507e+002 5.000000e+000
      vertex   -2.371847e+001 1.295739e+002 5.000000e+000
      vertex   -2.403358e+001 1.296507e+002 5.000000e+000
    endloop
  endfacet
  facet normal 0.000000e+000 0.000000e+000 1.699284e-001
    outer loop
      vertex   -2.596642e+001 1.296507e+002 5.000000e+000
      vertex   -2.403358e+001 1.296507e+002 5.000000e+000
      vertex   -2.564679e+001 1.297058e+002 5.000000e+000
    endloop
  endfacet
  facet normal -0.000000e+000 0.000000e+000 3.414479e-002
    outer loop
      vertex   -2.564679e+001 1.297058e+002 5.000000e+000
      vertex   -2.403358e+001 1.296507e+002 5.000000e+000
      vertex   -2.435321e+001 1.297058e+002 5.000000e+000
    endloop
  endfacet
  facet normal 0.000000e+000 0.000000e+000 1.022306e-001
    outer loop
      vertex   -2.564679e+001 1.297058e+002 5.000000e+000
      vertex   -2.435321e+001 1.297058e+002 5.000000e+000
      vertex   -2.532415e+001 1.297389e+002 5.000000e+000
    endloop
  endfacet
  facet normal -0.000000e+000 0.000000e+000 3.412972e-002
    outer loop
      vertex   -2.532415e+001 1.297389e+002 5.000000e+000
      vertex   -2.435321e+001 1.297058e+002 5.000000e+000
      vertex   -2.467585e+001 1.297389e+002 5.000000e+000
    endloop
  endfacet
  facet normal 0.000000e+000 0.000000e+000 3.415502e-002
    outer loop
      vertex   -2.532415e+001 1.297389e+002 5.000000e+000
      vertex   -2.467585e+001 1.297389e+002 5.000000e+000
      vertex   -2.500000e+001 1.297500e+002 5.000000e+000
    endloop
  endfacet
  facet normal 0.000000e+000 0.000000e+000 9.947577e-001
    outer loop
      vertex   -2.026107e+001 1.246758e+002 5.000000e+000
      vertex   -2.973893e+001 1.246758e+002 5.000000e+000
      vertex   -2.029424e+001 1.243532e+002 5.000000e+000
    endloop
  endfacet
  facet normal 0.000000e+000 0.000000e+000 3.414104e-002
    outer loop
      vertex   -2.029424e+001 1.243532e+002 5.000000e+000
      vertex   -2.973893e+001 1.246758e+002 5.000000e+000
      vertex   -2.970576e+001 1.243532e+002 5.000000e+000
    endloop
  endfacet
  facet normal 0.000000e+000 0.000000e+000 9.854596e-001
    outer loop
      vertex   -2.029424e+001 1.243532e+002 5.000000e+000
      vertex   -2.970576e+001 1.243532e+002 5.000000e+000
      vertex   -2.034935e+001 1.240336e+002 5.000000e+000
    endloop
  endfacet
  facet normal 0.000000e+000 0.000000e+000 3.414125e-002
    outer loop
      vertex   -2.034935e+001 1.240336e+002 5.000000e+000
      vertex   -2.970576e+001 1.243532e+002 5.000000e+000
      vertex   -2.965065e+001 1.240336e+002 5.000000e+000
    endloop
  endfacet
  facet normal 0.000000e+000 0.000000e+000 9.715658e-001
    outer loop
      vertex   -2.034935e+001 1.240336e+002 5.000000e+000
      vertex   -2.965065e+001 1.240336e+002 5.000000e+000
      vertex   -2.042614e+001 1.237185e+002 5.000000e+000
    endloop
  endfacet
  facet normal 0.000000e+000 0.000000e+000 3.414093e-002
    outer loop
      vertex   -2.042614e+001 1.237185e+002 5.000000e+000
      vertex   -2.965065e+001 1.240336e+002 5.000000e+000
      vertex   -2.957386e+001 1.237185e+002 5.000000e+000
    endloop
  endfacet
  facet normal 0.000000e+000 0.000000e+000 9.531446e-001
    outer loop
      vertex   -2.042614e+001 1.237185e+002 5.000000e+000
      vertex   -2.957386e+001 1.237185e+002 5.000000e+000
      vertex   -2.052426e+001 1.234093e+002 5.000000e+000
    endloop
  endfacet
  facet normal 0.000000e+000 0.000000e+000 3.414107e-002
    outer loop
      vertex   -2.052426e+001 1.234093e+002 5.000000e+000
      vertex   -2.957386e+001 1.237185e+002 5.000000e+000
      vertex   -2.947574e+001 1.234093e+002 5.000000e+000
    endloop
  endfacet
  facet normal 0.000000e+000 0.000000e+000 9.302801e-001
    outer loop
      vertex   -2.052426e+001 1.234093e+002 5.000000e+000
      vertex   -2.947574e+001 1.234093e+002 5.000000e+000
      vertex   -2.064325e+001 1.231076e+002 5.000000e+000
    endloop
  endfacet
  facet normal 0.000000e+000 0.000000e+000 3.414114e-002
    outer loop
      vertex   -2.064325e+001 1.231076e+002 5.000000e+000
      vertex   -2.947574e+001 1.234093e+002 5.000000e+000
      vertex   -2.935675e+001 1.231076e+002 5.000000e+000
    endloop
  endfacet
  facet normal 0.000000e+000 0.000000e+000 9.030764e-001
    outer loop
      vertex   -2.064325e+001 1.231076e+002 5.000000e+000
      vertex   -2.935675e+001 1.231076e+002 5.000000e+000
      vertex   -2.078255e+001 1.228147e+002 5.000000e+000
    endloop
  endfacet
  facet normal 0.000000e+000 0.000000e+000 3.414157e-002
    outer loop
      vertex   -2.078255e+001 1.228147e+002 5.000000e+000
      vertex   -2.935675e+001 1.231076e+002 5.000000e+000
      vertex   -2.921745e+001 1.228147e+002 5.000000e+000
    endloop
  endfacet
  facet normal 0.000000e+000 0.000000e+000 8.716609e-001
    outer loop
      vertex   -2.078255e+001 1.228147e+002 5.000000e+000
      vertex   -2.921745e+001 1.228147e+002 5.000000e+000
      vertex   -2.094151e+001 1.225320e+002 5.000000e+000
    endloop
  endfacet
  facet normal 0.000000e+000 0.000000e+000 3.414111e-002
    outer loop
      vertex   -2.094151e+001 1.225320e+002 5.000000e+000
      vertex   -2.921745e+001 1.228147e+002 5.000000e+000
      vertex   -2.905849e+001 1.225320e+002 5.000000e+000
    endloop
  endfacet
  facet normal 0.000000e+000 0.000000e+000 8.361841e-001
    outer loop
      vertex   -2.094151e+001 1.225320e+002 5.000000e+000
      vertex   -2.905849e+001 1.225320e+002 5.000000e+000
      vertex   -2.111939e+001 1.222608e+002 5.000000e+000
    endloop
  endfacet
  facet normal 0.000000e+000 0.000000e+000 3.414135e-002
    outer loop
      vertex   -2.111939e+001 1.222608e+002 5.000000e+000
      vertex   -2.905849e+001 1.225320e+002 5.000000e+000
      vertex   -2.888061e+001 1.222608e+002 5.000000e+000
    endloop
  endfacet
  facet normal 0.000000e+000 0.000000e+000 7.967989e-001
    outer loop
      vertex   -2.111939e+001 1.222608e+002 5.000000e+000
      vertex   -2.888061e+001 1.222608e+002 5.000000e+000
      vertex   -2.131537e+001 1.220023e+002 5.000000e+000
    endloop
  endfacet
  facet normal 0.000000e+000 0.000000e+000 3.414035e-002
    outer loop
      vertex   -2.131537e+001 1.220023e+002 5.000000e+000
      vertex   -2.888061e+001 1.222608e+002 5.000000e+000
      vertex   -2.868463e+001 1.220023e+002 5.000000e+000
    endloop
  endfacet
  facet normal 0.000000e+000 0.000000e+000 7.537122e-001
    outer loop
      vertex   -2.131537e+001 1.220023e+002 5.000000e+000
      vertex   -2.868463e+001 1.220023e+002 5.000000e+000
      vertex   -2.152853e+001 1.217579e+002 5.000000e+000
    endloop
  endfacet
  facet normal 0.000000e+000 0.000000e+000 3.414130e-002
    outer loop
      vertex   -2.152853e+001 1.217579e+002 5.000000e+000
      vertex   -2.868463e+001 1.220023e+002 5.000000e+000
      vertex   -2.847147e+001 1.217579e+002 5.000000e+000
    endloop
  endfacet
  facet normal 0.000000e+000 0.000000e+000 7.071156e-001
    outer loop
      vertex   -2.152853e+001 1.217579e+002 5.000000e+000
      vertex   -2.847147e+001 1.217579e+002 5.000000e+000
      vertex   -2.175787e+001 1.215285e+002 5.000000e+000
    endloop
  endfacet
  facet normal 0.000000e+000 0.000000e+000 3.414168e-002
    outer loop
      vertex   -2.175787e+001 1.215285e+002 5.000000e+000
      vertex   -2.847147e+001 1.217579e+002 5.000000e+000
      vertex   -2.824213e+001 1.215285e+002 5.000000e+000
    endloop
  endfacet
  facet normal 0.000000e+000 0.000000e+000 6.572013e-001
    outer loop
      vertex   -2.175787e+001 1.215285e+002 5.000000e+000
      vertex   -2.824213e+001 1.215285e+002 5.000000e+000
      vertex   -2.200233e+001 1.213154e+002 5.000000e+000
    endloop
  endfacet
  facet normal 0.000000e+000 0.000000e+000 3.414108e-002
    outer loop
      vertex   -2.200233e+001 1.213154e+002 5.000000e+000
      vertex   -2.824213e+001 1.215285e+002 5.000000e+000
      vertex   -2.799767e+001 1.213154e+002 5.000000e+000
    endloop
  endfacet
  facet normal 0.000000e+000 0.000000e+000 6.042323e-001
    outer loop
      vertex   -2.200233e+001 1.213154e+002 5.000000e+000
      vertex   -2.799767e+001 1.213154e+002 5.000000e+000
      vertex   -2.226077e+001 1.211194e+002 5.000000e+000
    endloop
  endfacet
  facet normal 0.000000e+000 0.000000e+000 3.414075e-002
    outer loop
      vertex   -2.226077e+001 1.211194e+002 5.000000e+000
      vertex   -2.799767e+001 1.213154e+002 5.000000e+000
      vertex   -2.773923e+001 1.211194e+002 5.000000e+000
    endloop
  endfacet
  facet normal 0.000000e+000 0.000000e+000 5.484557e-001
    outer loop
      vertex   -2.226077e+001 1.211194e+002 5.000000e+000
      vertex   -2.773923e+001 1.211194e+002 5.000000e+000
      vertex   -2.253198e+001 1.209415e+002 5.000000e+000
    endloop
  endfacet
  facet normal 0.000000e+000 0.000000e+000 3.414146e-002
    outer loop
      vertex   -2.253198e+001 1.209415e+002 5.000000e+000
      vertex   -2.773923e+001 1.211194e+002 5.000000e+000
      vertex   -2.746802e+001 1.209415e+002 5.000000e+000
    endloop
  endfacet
  facet normal 0.000000e+000 0.000000e+000 4.901004e-001
    outer loop
      vertex   -2.253198e+001 1.209415e+002 5.000000e+000
      vertex   -2.746802e+001 1.209415e+002 5.000000e+000
      vertex   -2.281469e+001 1.207825e+002 5.000000e+000
    endloop
  endfacet
  facet normal 0.000000e+000 0.000000e+000 3.414022e-002
    outer loop
      vertex   -2.281469e+001 1.207825e+002 5.000000e+000
      vertex   -2.746802e+001 1.209415e+002 5.000000e+000
      vertex   -2.718531e+001 1.207825e+002 5.000000e+000
    endloop
  endfacet
  facet normal 0.000000e+000 0.000000e+000 4.294797e-001
    outer loop
      vertex   -2.281469e+001 1.207825e+002 5.000000e+000
      vertex   -2.718531e+001 1.207825e+002 5.000000e+000
      vertex   -2.310760e+001 1.206432e+002 5.000000e+000
    endloop
  endfacet
  facet normal 0.000000e+000 0.000000e+000 3.414077e-002
    outer loop
      vertex   -2.310760e+001 1.206432e+002 5.000000e+000
      vertex   -2.718531e+001 1.207825e+002 5.000000e+000
      vertex   -2.689240e+001 1.206432e+002 5.000000e+000
    endloop
  endfacet
  facet normal 0.000000e+000 0.000000e+000 3.668602e-001
    outer loop
      vertex   -2.310760e+001 1.206432e+002 5.000000e+000
      vertex   -2.689240e+001 1.206432e+002 5.000000e+000
      vertex   -2.340932e+001 1.205243e+002 5.000000e+000
    endloop
  endfacet
  facet normal 0.000000e+000 0.000000e+000 3.414179e-002
    outer loop
      vertex   -2.340932e+001 1.205243e+002 5.000000e+000
      vertex   -2.689240e+001 1.206432e+002 5.000000e+000
      vertex   -2.659068e+001 1.205243e+002 5.000000e+000
    endloop
  endfacet
  facet normal 0.000000e+000 0.000000e+000 3.025259e-001
    outer loop
      vertex   -2.340932e+001 1.205243e+002 5.000000e+000
      vertex   -2.659068e+001 1.205243e+002 5.000000e+000
      vertex   -2.371847e+001 1.204261e+002 5.000000e+000
    endloop
  endfacet
  facet normal 0.000000e+000 0.000000e+000 3.414248e-002
    outer loop
      vertex   -2.371847e+001 1.204261e+002 5.000000e+000
      vertex   -2.659068e+001 1.205243e+002 5.000000e+000
      vertex   -2.628153e+001 1.204261e+002 5.000000e+000
    endloop
  endfacet
  facet normal 0.000000e+000 0.000000e+000 2.367572e-001
    outer loop
      vertex   -2.371847e+001 1.204261e+002 5.000000e+000
      vertex   -2.628153e+001 1.204261e+002 5.000000e+000
      vertex   -2.403358e+001 1.203493e+002 5.000000e+000
    endloop
  endfacet
  facet normal 0.000000e+000 0.000000e+000 3.414004e-002
    outer loop
      vertex   -2.403358e+001 1.203493e+002 5.000000e+000
      vertex   -2.628153e+001 1.204261e+002 5.000000e+000
      vertex   -2.596642e+001 1.203493e+002 5.000000e+000
    endloop
  endfacet
  facet normal 0.000000e+000 0.000000e+000 1.699055e-001
    outer loop
      vertex   -2.403358e+001 1.203493e+002 5.000000e+000
      vertex   -2.596642e+001 1.203493e+002 5.000000e+000
      vertex   -2.435321e+001 1.202942e+002 5.000000e+000
    endloop
  endfacet
  facet normal 0.000000e+000 0.000000e+000 3.414007e-002
    outer loop
      vertex   -2.435321e+001 1.202942e+002 5.000000e+000
      vertex   -2.596642e+001 1.203493e+002 5.000000e+000
      vertex   -2.564679e+001 1.202942e+002 5.000000e+000
    endloop
  endfacet
  facet normal 0.000000e+000 0.000000e+000 1.022772e-001
    outer loop
      vertex   -2.435321e+001 1.202942e+002 5.000000e+000
      vertex   -2.564679e+001 1.202942e+002 5.000000e+000
      vertex   -2.467585e+001 1.202611e+002 5.000000e+000
    endloop
  endfacet
  facet normal 0.000000e+000 0.000000e+000 3.414541e-002
    outer loop
      vertex   -2.467585e+001 1.202611e+002 5.000000e+000
      vertex   -2.564679e+001 1.202942e+002 5.000000e+000
      vertex   -2.532415e+001 1.202611e+002 5.000000e+000
    endloop
  endfacet
  facet normal 0.000000e+000 0.000000e+000 3.413152e-002
    outer loop
      vertex   -2.467585e+001 1.202611e+002 5.000000e+000
      vertex   -2.532415e+001 1.202611e+002 5.000000e+000
      vertex   -2.500000e+001 1.202500e+002 5.000000e+000
    endloop
  endfacet
  facet normal 0.000000e+000 -0.000000e+000 -9.994169e-001
    outer loop
      vertex   -2.973893e+001 1.253242e+002 0.000000e+000
      vertex   -2.026107e+001 1.253242e+002 0.000000e+000
      vertex   -2.975000e+001 1.250000e+002 0.000000e+000
    endloop
  endfacet
  facet normal 0.000000e+000 0.000000e+000 -3.414097e-002
    outer loop
      vertex   -2.975000e+001 1.250000e+002 0.000000e+000
      vertex   -2.026107e+001 1.253242e+002 0.000000e+000
      vertex   -2.025000e+001 1.250000e+002 0.000000e+000
    endloop
  endfacet
  facet normal 0.000000e+000 0.000000e+000 -9.994169e-001
    outer loop
      vertex   -2.975000e+001 1.250000e+002 0.000000e+000
      vertex   -2.025000e+001 1.250000e+002 0.000000e+000
      vertex   -2.973893e+001 1.246758e+002 0.000000e+000
    endloop
  endfacet
  facet normal 0.000000e+000 0.000000e+000 -3.414097e-002
    outer loop
      vertex   -2.973893e+001 1.246758e+002 0.000000e+000
      vertex   -2.025000e+001 1.250000e+002 0.000000e+000
      vertex   -2.026107e+001 1.246758e+002 0.000000e+000
    endloop
  endfacet
  facet normal 0.000000e+000 0.000000e+000 -9.947577e-001
    outer loop
      vertex   -2.973893e+001 1.246758e+002 0.000000e+000
      vertex   -2.026107e+001 1.246758e+002 0.000000e+000
      vertex   -2.970576e+001 1.243532e+002 0.000000e+000
    endloop
  endfacet
  facet normal 0.000000e+000 0.000000e+000 -3.414104e-002
    outer loop
      vertex   -2.970576e+001 1.243532e+002 0.000000e+000
      vertex   -2.026107e+001 1.246758e+002 0.000000e+000
      vertex   -2.029424e+001 1.243532e+002 0.000000e+000
    endloop
  endfacet
  facet normal 0.000000e+000 0.000000e+000 -9.854596e-001
    outer loop
      vertex   -2.970576e+001 1.243532e+002 0.000000e+000
      vertex   -2.029424e+001 1.243532e+002 0.000000e+000
      vertex   -2.965065e+001 1.240336e+002 0.000000e+000
    endloop
  endfacet
  facet normal 0.000000e+000 0.000000e+000 -3.414125e-002
    outer loop
      vertex   -2.965065e+001 1.240336e+002 0.000000e+000
      vertex   -2.029424e+001 1.243532e+002 0.000000e+000
      vertex   -2.034935e+001 1.240336e+002 0.000000e+000
    endloop
  endfacet
  facet normal 0.000000e+000 0.000000e+000 -9.715658e-001
    outer loop
      vertex   -2.965065e+001 1.240336e+002 0.000000e+000
      vertex   -2.034935e+001 1.240336e+002 0.000000e+000
      vertex   -2.957386e+001 1.237185e+002 0.000000e+000
    endloop
  endfacet
  facet normal 0.000000e+000 0.000000e+000 -3.414093e-002
    outer loop
      vertex   -2.957386e+001 1.237185e+002 0.000000e+000
      vertex   -2.034935e+001 1.240336e+002 0.000000e+000
      vertex   -2.042614e+001 1.237185e+002 0.000000e+000
    endloop
  endfacet
  facet normal 0.000000e+000 0.000000e+000 -9.531446e-001
    outer loop
      vertex   -2.957386e+001 1.237185e+002 0.000000e+000
      vertex   -2.042614e+001 1.237185e+002 0.000000e+000
      vertex   -2.947574e+001 1.234093e+002 0.000000e+000
    endloop
  endfacet
  facet normal 0.000000e+000 0.000000e+000 -3.414107e-002
    outer loop
      vertex   -2.947574e+001 1.234093e+002 0.000000e+000
      vertex   -2.042614e+001 1.237185e+002 0.000000e+000
      vertex   -2.052426e+001 1.234093e+002 0.000000e+000
    endloop
  endfacet
  facet normal 0.000000e+000 0.000000e+000 -9.302801e-001
    outer loop
      vertex   -2.947574e+001 1.234093e+002 0.000000e+000
      vertex   -2.052426e+001 1.234093e+002 0.000000e+000
      vertex   -2.935675e+001 1.231076e+002 0.000000e+000
    endloop
  endfacet
  facet normal 0.000000e+000 0.000000e+000 -3.414114e-002
    outer loop
      vertex   -2.935675e+001 1.231076e+002 0.000000e+000
      vertex   -2.052426e+001 1.234093e+002 0.000000e+000
      vertex   -2.064325e+001 1.231076e+002 0.000000e+000
    endloop
  endfacet
  facet normal 0.000000e+000 0.000000e+000 -9.030764e-001
    outer loop
      vertex   -2.935675e+001 1.231076e+002 0.000000e+000
      vertex   -2.064325e+001 1.231076e+002 0.000000e+000
      vertex   -2.921745e+001 1.228147e+002 0.000000e+000
    endloop
  endfacet
  facet normal 0.000000e+000 0.000000e+000 -3.414157e-002
    outer loop
      vertex   -2.921745e+001 1.228147e+002 0.000000e+000
      vertex   -2.064325e+001 1.231076e+002 0.000000e+000
      vertex   -2.078255e+001 1.228147e+002 0.000000e+000
    endloop
  endfacet
  facet normal 0.000000e+000 0.000000e+000 -8.716609e-001
    outer loop
      vertex   -2.921745e+001 1.228147e+002 0.000000e+000
      vertex   -2.078255e+001 1.228147e+002 0.000000e+000
      vertex   -2.905849e+001 1.225320e+002 0.000000e+000
    endloop
  endfacet
  facet normal 0.000000e+000 0.000000e+000 -3.414111e-002
    outer loop
      vertex   -2.905849e+001 1.225320e+002 0.000000e+000
      vertex   -2.078255e+001 1.228147e+002 0.000000e+000
      vertex   -2.094151e+001 1.225320e+002 0.000000e+000
    endloop
  endfacet
  facet normal 0.000000e+000 0.000000e+000 -8.361841e-001
    outer loop
      vertex   -2.905849e+001 1.225320e+002 0.000000e+000
      vertex   -2.094151e+001 1.225320e+002 0.000000e+000
      vertex   -2.888061e+001 1.222608e+002 0.000000e+000
    endloop
  endfacet
  facet normal 0.000000e+000 0.000000e+000 -3.414135e-002
    outer loop
      vertex   -2.888061e+001 1.222608e+002 0.000000e+000
      vertex   -2.094151e+001 1.225320e+002 0.000000e+000
      vertex   -2.111939e+001 1.222608e+002 0.000000e+000
    endloop
  endfacet
  facet normal 0.000000e+000 0.000000e+000 -7.967989e-001
    outer loop
      vertex   -2.888061e+001 1.222608e+002 0.000000e+000
      vertex   -2.111939e+001 1.222608e+002 0.000000e+000
      vertex   -2.868463e+001 1.220023e+002 0.000000e+000
    endloop
  endfacet
  facet normal 0.000000e+000 0.000000e+000 -3.414035e-002
    outer loop
      vertex   -2.868463e+001 1.220023e+002 0.000000e+000
      vertex   -2.111939e+001 1.222608e+002 0.000000e+000
      vertex   -2.131537e+001 1.220023e+002 0.000000e+000
    endloop
  endfacet
  facet normal 0.000000e+000 0.000000e+000 -7.537122e-001
    outer loop
      vertex   -2.868463e+001 1.220023e+002 0.000000e+000
      vertex   -2.131537e+001 1.220023e+002 0.000000e+000
      vertex   -2.847147e+001 1.217579e+002 0.000000e+000
    endloop
  endfacet
  facet normal 0.000000e+000 0.000000e+000 -3.414130e-002
    outer loop
      vertex   -2.847147e+001 1.217579e+002 0.000000e+000
      vertex   -2.131537e+001 1.220023e+002 0.000000e+000
      vertex   -2.152853e+001 1.217579e+002 0.000000e+000
    endloop
  endfacet
  facet normal 0.000000e+000 0.000000e+000 -7.071156e-001
    outer loop
      vertex   -2.847147e+001 1.217579e+002 0.000000e+000
      vertex   -2.152853e+001 1.217579e+002 0.000000e+000
      vertex   -2.824213e+001 1.215285e+002 0.000000e+000
    endloop
  endfacet
  facet normal 0.000000e+000 0.000000e+000 -3.414168e-002
    outer loop
      vertex   -2.824213e+001 1.215285e+002 0.000000e+000
      vertex   -2.152853e+001 1.217579e+002 0.000000e+000
      vertex   -2.175787e+001 1.215285e+002 0.000000e+000
    endloop
  endfacet
  facet normal 0.000000e+000 0.000000e+000 -6.572013e-001
    outer loop
      vertex   -2.824213e+001 1.215285e+002 0.000000e+000
      vertex   -2.175787e+001 1.215285e+002 0.000000e+000
      vertex   -2.799767e+001 1.213154e+002 0.000000e+000
    endloop
  endfacet
  facet normal 0.000000e+000 0.000000e+000 -3.414108e-002
    outer loop
      vertex   -2.799767e+001 1.213154e+002 0.000000e+000
      vertex   -2.175787e+001 1.215285e+002 0.000000e+000
      vertex   -2.200233e+001 1.213154e+002 0.000000e+000
    endloop
  endfacet
  facet normal 0.000000e+000 0.000000e+000 -6.042323e-001
    outer loop
      vertex   -2.799767e+001 1.213154e+002 0.000000e+000
      vertex   -2.200233e+001 1.213154e+002 0.000000e+000
      vertex   -2.773923e+001 1.211194e+002 0.000000e+000
    endloop
  endfacet
  facet normal 0.000000e+000 0.000000e+000 -3.414075e-002
    outer loop
      vertex   -2.773923e+001 1.211194e+002 0.000000e+000
      vertex   -2.200233e+001 1.213154e+002 0.000000e+000
      vertex   -2.226077e+001 1.211194e+002 0.000000e+000
    endloop
  endfacet
  facet normal 0.000000e+000 0.000000e+000 -5.484557e-001
    outer loop
      vertex   -2.773923e+001 1.211194e+002 0.000000e+000
      vertex   -2.226077e+001 1.211194e+002 0.000000e+000
      vertex   -2.746802e+001 1.209415e+002 0.000000e+000
    endloop
  endfacet
  facet normal 0.000000e+000 0.000000e+000 -3.414146e-002
    outer loop
      vertex   -2.746802e+001 1.209415e+002 0.000000e+000
      vertex   -2.226077e+001 1.211194e+002 0.000000e+000
      vertex   -2.253198e+001 1.209415e+002 0.000000e+000
    endloop
  endfacet
  facet normal 0.000000e+000 0.000000e+000 -4.901004e-001
    outer loop
      vertex   -2.746802e+001 1.209415e+002 0.000000e+000
      vertex   -2.253198e+001 1.209415e+002 0.000000e+000
      vertex   -2.718531e+001 1.207825e+002 0.000000e+000
    endloop
  endfacet
  facet normal 0.000000e+000 0.000000e+000 -3.414022e-002
    outer loop
      vertex   -2.718531e+001 1.207825e+002 0.000000e+000
      vertex   -2.253198e+001 1.209415e+002 0.000000e+000
      vertex   -2.281469e+001 1.207825e+002 0.000000e+000
    endloop
  endfacet
  facet normal 0.000000e+000 0.000000e+000 -4.294797e-001
    outer loop
      vertex   -2.718531e+001 1.207825e+002 0.000000e+000
      vertex   -2.281469e+001 1.207825e+002 0.000000e+000
      vertex   -2.689240e+001 1.206432e+002 0.000000e+000
    endloop
  endfacet
  facet normal 0.000000e+000 0.000000e+000 -3.414077e-002
    outer loop
      vertex   -2.689240e+001 1.206432e+002 0.000000e+000
      vertex   -2.281469e+001 1.207825e+002 0.000000e+000
      vertex   -2.310760e+001 1.206432e+002 0.000000e+000
    endloop
  endfacet
  facet normal 0.000000e+000 0.000000e+000 -3.668602e-001
    outer loop
      vertex   -2.689240e+001 1.206432e+002 0.000000e+000
      vertex   -2.310760e+001 1.206432e+002 0.000000e+000
      vertex   -2.659068e+001 1.205243e+002 0.000000e+000
    endloop
  endfacet
  facet normal 0.000000e+000 0.000000e+000 -3.414179e-002
    outer loop
      vertex   -2.659068e+001 1.205243e+002 0.000000e+000
      vertex   -2.310760e+001 1.206432e+002 0.000000e+000
      vertex   -2.340932e+001 1.205243e+002 0.000000e+000
    endloop
  endfacet
  facet normal 0.000000e+000 0.000000e+000 -3.025259e-001
    outer loop
      vertex   -2.659068e+001 1.205243e+002 0.000000e+000
      vertex   -2.340932e+001 1.205243e+002 0.000000e+000
      vertex   -2.628153e+001 1.204261e+002 0.000000e+000
    endloop
  endfacet
  facet normal 0.000000e+000 0.000000e+000 -3.414248e-002
    outer loop
      vertex   -2.628153e+001 1.204261e+002 0.000000e+000
      vertex   -2.340932e+001 1.205243e+002 0.000000e+000
      vertex   -2.371847e+001 1.204261e+002 0.000000e+000
    endloop
  endfacet
  facet normal 0.000000e+000 0.000000e+000 -2.367572e-001
    outer loop
      vertex   -2.628153e+001 1.204261e+002 0.000000e+000
      vertex   -2.371847e+001 1.204261e+002 0.000000e+000
      vertex   -2.596642e+001 1.203493e+002 0.000000e+000
    endloop
  endfacet
  facet normal 0.000000e+000 0.000000e+000 -3.414004e-002
    outer loop
      vertex   -2.596642e+001 1.203493e+002 0.000000e+000
      vertex   -2.371847e+001 1.204261e+002 0.000000e+000
      vertex   -2.403358e+001 1.203493e+002 0.000000e+000
    endloop
  endfacet
  facet normal 0.000000e+000 0.000000e+000 -1.699055e-001
    outer loop
      vertex   -2.596642e+001 1.203493e+002 0.000000e+000
      vertex   -2.403358e+001 1.203493e+002 0.000000e+000
      vertex   -2.564679e+001 1.202942e+002 0.000000e+000
    endloop
  endfacet
  facet normal 0.000000e+000 0.000000e+000 -3.414007e-002
    outer loop
      vertex   -2.564679e+001 1.202942e+002 0.000000e+000
      vertex   -2.403358e+001 1.203493e+002 0.000000e+000
      vertex   -2.435321e+001 1.202942e+002 0.000000e+000
    endloop
  endfacet
  facet normal 0.000000e+000 0.000000e+000 -1.022772e-001
    outer loop
      vertex   -2.564679e+001 1.202942e+002 0.000000e+000
      vertex   -2.435321e+001 1.202942e+002 0.000000e+000
      vertex   -2.532415e+001 1.202611e+002 0.000000e+000
    endloop
  endfacet
  facet normal 0.000000e+000 0.000000e+000 -3.414541e-002
    outer loop
      vertex   -2.532415e+001 1.202611e+002 0.000000e+000
      vertex   -2.435321e+001 1.202942e+002 0.000000e+000
      vertex   -2.467585e+001 1.202611e+002 0.000000e+000
    endloop
  endfacet
  facet normal 0.000000e+000 0.000000e+000 -3.413152e-002
    outer loop
      vertex   -2.532415e+001 1.202611e+002 0.000000e+000
      vertex   -2.467585e+001 1.202611e+002 0.000000e+000
      vertex   -2.500000e+001 1.202500e+002 0.000000e+000
    endloop
  endfacet
  facet normal 0.000000e+000 0.000000e+000 -9.947577e-001
    outer loop
      vertex   -2.026107e+001 1.253242e+002 0.000000e+000
      vertex   -2.973893e+001 1.253242e+002 0.000000e+000
      vertex   -2.029424e+001 1.256468e+002 0.000000e+000
    endloop
  endfacet
  facet normal -0.000000e+000 0.000000e+000 -3.414104e-002
    outer loop
      vertex   -2.029424e+001 1.256468e+002 0.000000e+000
      vertex   -2.973893e+001 1.253242e+002 0.000000e+000
      vertex   -2.970576e+001 1.256468e+002 0.000000e+000
    endloop
  endfacet
  facet normal 0.000000e+000 0.000000e+000 -9.854596e-001
    outer loop
      vertex   -2.029424e+001 1.256468e+002 0.000000e+000
      vertex   -2.970576e+001 1.256468e+002 0.000000e+000
      vertex   -2.034935e+001 1.259664e+002 0.000000e+000
    endloop
  endfacet
  facet normal -0.000000e+000 0.000000e+000 -3.414125e-002
    outer loop
      vertex   -2.034935e+001 1.259664e+002 0.000000e+000
      vertex   -2.970576e+001 1.256468e+002 0.000000e+000
      vertex   -2.965065e+001 1.259664e+002 0.000000e+000
    endloop
  endfacet
  facet normal 0.000000e+000 0.000000e+000 -9.715658e-001
    outer loop
      vertex   -2.034935e+001 1.259664e+002 0.000000e+000
      vertex   -2.965065e+001 1.259664e+002 0.000000e+000
      vertex   -2.042614e+001 1.262815e+002 0.000000e+000
    endloop
  endfacet
  facet normal -0.000000e+000 0.000000e+000 -3.414093e-002
    outer loop
      vertex   -2.042614e+001 1.262815e+002 0.000000e+000
      vertex   -2.965065e+001 1.259664e+002 0.000000e+000
      vertex   -2.957386e+001 1.262815e+002 0.000000e+000
    endloop
  endfacet
  facet normal 0.000000e+000 0.000000e+000 -9.531446e-001
    outer loop
      vertex   -2.042614e+001 1.262815e+002 0.000000e+000
      vertex   -2.957386e+001 1.262815e+002 0.000000e+000
      vertex   -2.052426e+001 1.265907e+002 0.000000e+000
    endloop
  endfacet
  facet normal -0.000000e+000 0.000000e+000 -3.414107e-002
    outer loop
      vertex   -2.052426e+001 1.265907e+002 0.000000e+000
      vertex   -2.957386e+001 1.262815e+002 0.000000e+000
      vertex   -2.947574e+001 1.265907e+002 0.000000e+000
    endloop
  endfacet
  facet normal 0.000000e+000 0.000000e+000 -9.302801e-001
    outer loop
      vertex   -2.052426e+001 1.265907e+002 0.000000e+000
      vertex   -2.947574e+001 1.265907e+002 0.000000e+000
      vertex   -2.064325e+001 1.268924e+002 0.000000e+000
    endloop
  endfacet
  facet normal -0.000000e+000 0.000000e+000 -3.414114e-002
    outer loop
      vertex   -2.064325e+001 1.268924e+002 0.000000e+000
      vertex   -2.947574e+001 1.265907e+002 0.000000e+000
      vertex   -2.935675e+001 1.268924e+002 0.000000e+000
    endloop
  endfacet
  facet normal 0.000000e+000 0.000000e+000 -9.030764e-001
    outer loop
      vertex   -2.064325e+001 1.268924e+002 0.000000e+000
      vertex   -2.935675e+001 1.268924e+002 0.000000e+000
      vertex   -2.078255e+001 1.271853e+002 0.000000e+000
    endloop
  endfacet
  facet normal -0.000000e+000 0.000000e+000 -3.414157e-002
    outer loop
      vertex   -2.078255e+001 1.271853e+002 0.000000e+000
      vertex   -2.935675e+001 1.268924e+002 0.000000e+000
      vertex   -2.921745e+001 1.271853e+002 0.000000e+000
    endloop
  endfacet
  facet normal 0.000000e+000 0.000000e+000 -8.716609e-001
    outer loop
      vertex   -2.078255e+001 1.271853e+002 0.000000e+000
      vertex   -2.921745e+001 1.271853e+002 0.000000e+000
      vertex   -2.094151e+001 1.274680e+002 0.000000e+000
    endloop
  endfacet
  facet normal -0.000000e+000 0.000000e+000 -3.414111e-002
    outer loop
      vertex   -2.094151e+001 1.274680e+002 0.000000e+000
      vertex   -2.921745e+001 1.271853e+002 0.000000e+000
      vertex   -2.905849e+001 1.274680e+002 0.000000e+000
    endloop
  endfacet
  facet normal 0.000000e+000 0.000000e+000 -8.361841e-001
    outer loop
      vertex   -2.094151e+001 1.274680e+002 0.000000e+000
      vertex   -2.905849e+001 1.274680e+002 0.000000e+000
      vertex   -2.111939e+001 1.277392e+002 0.000000e+000
    endloop
  endfacet
  facet normal -0.000000e+000 0.000000e+000 -3.414135e-002
    outer loop
      vertex   -2.111939e+001 1.277392e+002 0.000000e+000
      vertex   -2.905849e+001 1.274680e+002 0.000000e+000
      vertex   -2.888061e+001 1.277392e+002 0.000000e+000
    endloop
  endfacet
  facet normal 0.000000e+000 0.000000e+000 -7.967989e-001
    outer loop
      vertex   -2.111939e+001 1.277392e+002 0.000000e+000
      vertex   -2.888061e+001 1.277392e+002 0.000000e+000
      vertex   -2.131537e+001 1.279977e+002 0.000000e+000
    endloop
  endfacet
  facet normal -0.000000e+000 0.000000e+000 -3.414035e-002
    outer loop
      vertex   -2.131537e+001 1.279977e+002 0.000000e+000
      vertex   -2.888061e+001 1.277392e+002 0.000000e+000
      vertex   -2.868463e+001 1.279977e+002 0.000000e+000
    endloop
  endfacet
  facet normal 0.000000e+000 0.000000e+000 -7.537122e-001
    outer loop
      vertex   -2.131537e+001 1.279977e+002 0.000000e+000
      vertex   -2.868463e+001 1.279977e+002 0.000000e+000
      vertex   -2.152853e+001 1.282421e+002 0.000000e+000
    endloop
  endfacet
  facet normal -0.000000e+000 0.000000e+000 -3.414130e-002
    outer loop
      vertex   -2.152853e+001 1.282421e+002 0.000000e+000
      vertex   -2.868463e+001 1.279977e+002 0.000000e+000
      vertex   -2.847147e+001 1.282421e+002 0.000000e+000
    endloop
  endfacet
  facet normal 0.000000e+000 0.000000e+000 -7.071038e-001
    outer loop
      vertex   -2.152853e+001 1.282421e+002 0.000000e+000
      vertex   -2.847147e+001 1.282421e+002 0.000000e+000
      vertex   -2.175787e+001 1.284715e+002 0.000000e+000
    endloop
  endfacet
  facet normal -0.000000e+000 0.000000e+000 -3.414055e-002
    outer loop
      vertex   -2.175787e+001 1.284715e+002 0.000000e+000
      vertex   -2.847147e+001 1.282421e+002 0.000000e+000
      vertex   -2.824213e+001 1.284715e+002 0.000000e+000
    endloop
  endfacet
  facet normal 0.000000e+000 0.000000e+000 -6.572147e-001
    outer loop
      vertex   -2.175787e+001 1.284715e+002 0.000000e+000
      vertex   -2.824213e+001 1.284715e+002 0.000000e+000
      vertex   -2.200233e+001 1.286846e+002 0.000000e+000
    endloop
  endfacet
  facet normal -0.000000e+000 0.000000e+000 -3.414230e-002
    outer loop
      vertex   -2.200233e+001 1.286846e+002 0.000000e+000
      vertex   -2.824213e+001 1.284715e+002 0.000000e+000
      vertex   -2.799767e+001 1.286846e+002 0.000000e+000
    endloop
  endfacet
  facet normal 0.000000e+000 0.000000e+000 -6.042174e-001
    outer loop
      vertex   -2.200233e+001 1.286846e+002 0.000000e+000
      vertex   -2.799767e+001 1.286846e+002 0.000000e+000
      vertex   -2.226077e+001 1.288806e+002 0.000000e+000
    endloop
  endfacet
  facet normal -0.000000e+000 0.000000e+000 -3.413942e-002
    outer loop
      vertex   -2.226077e+001 1.288806e+002 0.000000e+000
      vertex   -2.799767e+001 1.286846e+002 0.000000e+000
      vertex   -2.773923e+001 1.288806e+002 0.000000e+000
    endloop
  endfacet
  facet normal 0.000000e+000 0.000000e+000 -5.484557e-001
    outer loop
      vertex   -2.226077e+001 1.288806e+002 0.000000e+000
      vertex   -2.773923e+001 1.288806e+002 0.000000e+000
      vertex   -2.253198e+001 1.290585e+002 0.000000e+000
    endloop
  endfacet
  facet normal -0.000000e+000 0.000000e+000 -3.414146e-002
    outer loop
      vertex   -2.253198e+001 1.290585e+002 0.000000e+000
      vertex   -2.773923e+001 1.288806e+002 0.000000e+000
      vertex   -2.746802e+001 1.290585e+002 0.000000e+000
    endloop
  endfacet
  facet normal 0.000000e+000 0.000000e+000 -4.901183e-001
    outer loop
      vertex   -2.253198e+001 1.290585e+002 0.000000e+000
      vertex   -2.746802e+001 1.290585e+002 0.000000e+000
      vertex   -2.281469e+001 1.292175e+002 0.000000e+000
    endloop
  endfacet
  facet normal -0.000000e+000 0.000000e+000 -3.414186e-002
    outer loop
      vertex   -2.281469e+001 1.292175e+002 0.000000e+000
      vertex   -2.746802e+001 1.290585e+002 0.000000e+000
      vertex   -2.718531e+001 1.292175e+002 0.000000e+000
    endloop
  endfacet
  facet normal 0.000000e+000 0.000000e+000 -4.294797e-001
    outer loop
      vertex   -2.281469e+001 1.292175e+002 0.000000e+000
      vertex   -2.718531e+001 1.292175e+002 0.000000e+000
      vertex   -2.310760e+001 1.293568e+002 0.000000e+000
    endloop
  endfacet
  facet normal -0.000000e+000 0.000000e+000 -3.414077e-002
    outer loop
      vertex   -2.310760e+001 1.293568e+002 0.000000e+000
      vertex   -2.718531e+001 1.292175e+002 0.000000e+000
      vertex   -2.689240e+001 1.293568e+002 0.000000e+000
    endloop
  endfacet
  facet normal 0.000000e+000 0.000000e+000 -3.668602e-001
    outer loop
      vertex   -2.310760e+001 1.293568e+002 0.000000e+000
      vertex   -2.689240e+001 1.293568e+002 0.000000e+000
      vertex   -2.340932e+001 1.294757e+002 0.000000e+000
    endloop
  endfacet
  facet normal -0.000000e+000 0.000000e+000 -3.414179e-002
    outer loop
      vertex   -2.340932e+001 1.294757e+002 0.000000e+000
      vertex   -2.689240e+001 1.293568e+002 0.000000e+000
      vertex   -2.659068e+001 1.294757e+002 0.000000e+000
    endloop
  endfacet
  facet normal 0.000000e+000 0.000000e+000 -3.025045e-001
    outer loop
      vertex   -2.340932e+001 1.294757e+002 0.000000e+000
      vertex   -2.659068e+001 1.294757e+002 0.000000e+000
      vertex   -2.371847e+001 1.295739e+002 0.000000e+000
    endloop
  endfacet
  facet normal -0.000000e+000 0.000000e+000 -3.413983e-002
    outer loop
      vertex   -2.371847e+001 1.295739e+002 0.000000e+000
      vertex   -2.659068e+001 1.294757e+002 0.000000e+000
      vertex   -2.628153e+001 1.295739e+002 0.000000e+000
    endloop
  endfacet
  facet normal 0.000000e+000 0.000000e+000 -2.367794e-001
    outer loop
      vertex   -2.371847e+001 1.295739e+002 0.000000e+000
      vertex   -2.628153e+001 1.295739e+002 0.000000e+000
      vertex   -2.403358e+001 1.296507e+002 0.000000e+000
    endloop
  endfacet
  facet normal -0.000000e+000 0.000000e+000 -3.414343e-002
    outer loop
      vertex   -2.403358e+001 1.296507e+002 0.000000e+000
      vertex   -2.628153e+001 1.295739e+002 0.000000e+000
      vertex   -2.596642e+001 1.296507e+002 0.000000e+000
    endloop
  endfacet
  facet normal 0.000000e+000 0.000000e+000 -1.699284e-001
    outer loop
      vertex   -2.403358e+001 1.296507e+002 0.000000e+000
      vertex   -2.596642e+001 1.296507e+002 0.000000e+000
      vertex   -2.435321e+001 1.297058e+002 0.000000e+000
    endloop
  endfacet
  facet normal -0.000000e+000 0.000000e+000 -3.414479e-002
    outer loop
      vertex   -2.435321e+001 1.297058e+002 0.000000e+000
      vertex   -2.596642e+001 1.296507e+002 0.000000e+000
      vertex   -2.564679e+001 1.297058e+002 0.000000e+000
    endloop
  endfacet
  facet normal 0.000000e+000 0.000000e+000 -1.022306e-001
    outer loop
      vertex   -2.435321e+001 1.297058e+002 0.000000e+000
      vertex   -2.564679e+001 1.297058e+002 0.000000e+000
      vertex   -2.467585e+001 1.297389e+002 0.000000e+000
    endloop
  endfacet
  facet normal -0.000000e+000 0.000000e+000 -3.412972e-002
    outer loop
      vertex   -2.467585e+001 1.297389e+002 0.000000e+000
      vertex   -2.564679e+001 1.297058e+002 0.000000e+000
      vertex   -2.532415e+001 1.297389e+002 0.000000e+000
    endloop
  endfacet
  facet normal 0.000000e+000 0.000000e+000 -3.415502e-002
    outer loop
      vertex   -2.467585e+001 1.297389e+002 0.000000e+000
      vertex   -2.532415e+001 1.297389e+002 0.000000e+000
      vertex   -2.500000e+001 1.297500e+002 0.000000e+000
    endloop
  endfacet
endsolid
